%TF.GenerationSoftware,KiCad,Pcbnew,8.0.9-8.0.9-0~ubuntu24.04.1*%
%TF.CreationDate,2026-07-18T20:06:58+00:00*%
%TF.ProjectId,smart-glove,736d6172-742d-4676-9c6f-76652e6b6963,rev?*%
%TF.SameCoordinates,Original*%
%TF.FileFunction,Copper,L2,Bot*%
%TF.FilePolarity,Positive*%
%FSLAX46Y46*%
G04 Gerber Fmt 4.6, Leading zero omitted, Abs format (unit mm)*
G04 Created by KiCad (PCBNEW 8.0.9-8.0.9-0~ubuntu24.04.1) date 2026-07-18 20:06:58*
%MOMM*%
%LPD*%
G01*
G04 APERTURE LIST*
G04 Aperture macros list*
%AMRoundRect*
0 Rectangle with rounded corners*
0 $1 Rounding radius*
0 $2 $3 $4 $5 $6 $7 $8 $9 X,Y pos of 4 corners*
0 Add a 4 corners polygon primitive as box body*
4,1,4,$2,$3,$4,$5,$6,$7,$8,$9,$2,$3,0*
0 Add four circle primitives for the rounded corners*
1,1,$1+$1,$2,$3*
1,1,$1+$1,$4,$5*
1,1,$1+$1,$6,$7*
1,1,$1+$1,$8,$9*
0 Add four rect primitives between the rounded corners*
20,1,$1+$1,$2,$3,$4,$5,0*
20,1,$1+$1,$4,$5,$6,$7,0*
20,1,$1+$1,$6,$7,$8,$9,0*
20,1,$1+$1,$8,$9,$2,$3,0*%
G04 Aperture macros list end*
%TA.AperFunction,HeatsinkPad*%
%ADD10C,0.600000*%
%TD*%
%TA.AperFunction,ComponentPad*%
%ADD11O,1.000000X2.100000*%
%TD*%
%TA.AperFunction,ComponentPad*%
%ADD12O,1.000000X1.600000*%
%TD*%
%TA.AperFunction,ComponentPad*%
%ADD13RoundRect,0.250000X0.625000X-0.350000X0.625000X0.350000X-0.625000X0.350000X-0.625000X-0.350000X0*%
%TD*%
%TA.AperFunction,ComponentPad*%
%ADD14O,1.750000X1.200000*%
%TD*%
%TA.AperFunction,ComponentPad*%
%ADD15R,1.700000X1.700000*%
%TD*%
%TA.AperFunction,ComponentPad*%
%ADD16O,1.700000X1.700000*%
%TD*%
%TA.AperFunction,ViaPad*%
%ADD17C,0.600000*%
%TD*%
%TA.AperFunction,Conductor*%
%ADD18C,0.200000*%
%TD*%
G04 APERTURE END LIST*
D10*
%TO.P,U1,39*%
%TO.N,GND*%
X45795000Y-22327500D03*
X45795000Y-23852500D03*
X46557500Y-21565000D03*
X46557500Y-23090000D03*
X46557500Y-24615000D03*
X47320000Y-22327500D03*
X47320000Y-23852500D03*
X48082500Y-21565000D03*
X48082500Y-23090000D03*
X48082500Y-24615000D03*
X48845000Y-22327500D03*
X48845000Y-23852500D03*
%TD*%
D11*
%TO.P,J1,S1*%
%TO.N,GND*%
X43680000Y-62870000D03*
D12*
X43680000Y-67050000D03*
D11*
X52320000Y-62870000D03*
D12*
X52320000Y-67050000D03*
%TD*%
D13*
%TO.P,J3,1*%
%TO.N,+BAT*%
X78000000Y-64000000D03*
D14*
%TO.P,J3,2*%
%TO.N,GND*%
X78000000Y-62000000D03*
%TD*%
D15*
%TO.P,J2,1*%
%TO.N,3V3*%
X8000000Y-56000000D03*
D16*
%TO.P,J2,2*%
%TO.N,FLEX1*%
X8000000Y-58540000D03*
%TO.P,J2,3*%
%TO.N,FLEX2*%
X8000000Y-61080000D03*
%TO.P,J2,4*%
%TO.N,FLEX3*%
X8000000Y-63620000D03*
%TO.P,J2,5*%
%TO.N,FLEX4*%
X8000000Y-66160000D03*
%TO.P,J2,6*%
%TO.N,GND*%
X8000000Y-68700000D03*
%TD*%
D17*
%TO.N,+5V*%
X45955300Y-60724500D03*
X71375500Y-25294300D03*
X50351900Y-60725500D03*
%TO.N,FLEX1*%
X14580700Y-18136900D03*
%TO.N,FLEX2*%
X15175000Y-20985600D03*
%TO.N,EN*%
X37050000Y-18344000D03*
X33135500Y-58412800D03*
%TO.N,IMU_INT*%
X60931100Y-36626400D03*
X82252300Y-57950000D03*
%TD*%
D18*
%TO.N,GND*%
X52320000Y-62870000D02*
X52320000Y-65948300D01*
X52320000Y-67050000D02*
X52320000Y-65948300D01*
X43680000Y-67050000D02*
X43680000Y-62870000D01*
%TO.N,+5V*%
X50350900Y-60724500D02*
X45955300Y-60724500D01*
X50351900Y-60725500D02*
X50350900Y-60724500D01*
X50350900Y-60724500D02*
X50350900Y-46318900D01*
X50350900Y-46318900D02*
X71375500Y-25294300D01*
%TO.N,FLEX1*%
X8000000Y-57388300D02*
X8791800Y-57388300D01*
X8000000Y-58540000D02*
X8000000Y-57388300D01*
X9151700Y-23565900D02*
X14580700Y-18136900D01*
X9151700Y-57028400D02*
X9151700Y-23565900D01*
X8791800Y-57388300D02*
X9151700Y-57028400D01*
%TO.N,FLEX2*%
X15175000Y-53041200D02*
X15175000Y-20985600D01*
X8000000Y-59928300D02*
X8287900Y-59928300D01*
X8000000Y-61080000D02*
X8000000Y-59928300D01*
X8287900Y-59928300D02*
X15175000Y-53041200D01*
%TO.N,EN*%
X33135600Y-22258400D02*
X33135600Y-58412800D01*
X37050000Y-18344000D02*
X33135600Y-22258400D01*
X33135600Y-58412800D02*
X33135500Y-58412800D01*
%TO.N,IMU_INT*%
X82252300Y-57947600D02*
X82252300Y-57950000D01*
X60931100Y-36626400D02*
X82252300Y-57947600D01*
%TD*%
%TA.AperFunction,Conductor*%
%TO.N,GND*%
G36*
X93743039Y-12019685D02*
G01*
X93788794Y-12072489D01*
X93800000Y-12124000D01*
X93800000Y-70676000D01*
X93780315Y-70743039D01*
X93727511Y-70788794D01*
X93676000Y-70800000D01*
X1324000Y-70800000D01*
X1256961Y-70780315D01*
X1211206Y-70727511D01*
X1200000Y-70676000D01*
X1200000Y-68393713D01*
X2149500Y-68393713D01*
X2149500Y-68606286D01*
X2182753Y-68816239D01*
X2248444Y-69018414D01*
X2344951Y-69207820D01*
X2469890Y-69379786D01*
X2620213Y-69530109D01*
X2792179Y-69655048D01*
X2792181Y-69655049D01*
X2792184Y-69655051D01*
X2981588Y-69751557D01*
X3183757Y-69817246D01*
X3393713Y-69850500D01*
X3393714Y-69850500D01*
X3606286Y-69850500D01*
X3606287Y-69850500D01*
X3816243Y-69817246D01*
X4018412Y-69751557D01*
X4207816Y-69655051D01*
X4229789Y-69639086D01*
X4379786Y-69530109D01*
X4379788Y-69530106D01*
X4379792Y-69530104D01*
X4530104Y-69379792D01*
X4530106Y-69379788D01*
X4530109Y-69379786D01*
X4655048Y-69207820D01*
X4655047Y-69207820D01*
X4655051Y-69207816D01*
X4751557Y-69018412D01*
X4817246Y-68816243D01*
X4850500Y-68606287D01*
X4850500Y-68393713D01*
X90149500Y-68393713D01*
X90149500Y-68606286D01*
X90182753Y-68816239D01*
X90248444Y-69018414D01*
X90344951Y-69207820D01*
X90469890Y-69379786D01*
X90620213Y-69530109D01*
X90792179Y-69655048D01*
X90792181Y-69655049D01*
X90792184Y-69655051D01*
X90981588Y-69751557D01*
X91183757Y-69817246D01*
X91393713Y-69850500D01*
X91393714Y-69850500D01*
X91606286Y-69850500D01*
X91606287Y-69850500D01*
X91816243Y-69817246D01*
X92018412Y-69751557D01*
X92207816Y-69655051D01*
X92229789Y-69639086D01*
X92379786Y-69530109D01*
X92379788Y-69530106D01*
X92379792Y-69530104D01*
X92530104Y-69379792D01*
X92530106Y-69379788D01*
X92530109Y-69379786D01*
X92655048Y-69207820D01*
X92655047Y-69207820D01*
X92655051Y-69207816D01*
X92751557Y-69018412D01*
X92817246Y-68816243D01*
X92850500Y-68606287D01*
X92850500Y-68393713D01*
X92817246Y-68183757D01*
X92751557Y-67981588D01*
X92655051Y-67792184D01*
X92655049Y-67792181D01*
X92655048Y-67792179D01*
X92530109Y-67620213D01*
X92379786Y-67469890D01*
X92207820Y-67344951D01*
X92018414Y-67248444D01*
X92018413Y-67248443D01*
X92018412Y-67248443D01*
X91816243Y-67182754D01*
X91816241Y-67182753D01*
X91816240Y-67182753D01*
X91654957Y-67157208D01*
X91606287Y-67149500D01*
X91393713Y-67149500D01*
X91345042Y-67157208D01*
X91183760Y-67182753D01*
X90981585Y-67248444D01*
X90792179Y-67344951D01*
X90620213Y-67469890D01*
X90469890Y-67620213D01*
X90344951Y-67792179D01*
X90248444Y-67981585D01*
X90182753Y-68183760D01*
X90149500Y-68393713D01*
X4850500Y-68393713D01*
X4817246Y-68183757D01*
X4751557Y-67981588D01*
X4655051Y-67792184D01*
X4655049Y-67792181D01*
X4655048Y-67792179D01*
X4530109Y-67620213D01*
X4379786Y-67469890D01*
X4207820Y-67344951D01*
X4018414Y-67248444D01*
X4018413Y-67248443D01*
X4018412Y-67248443D01*
X3816243Y-67182754D01*
X3816241Y-67182753D01*
X3816240Y-67182753D01*
X3654957Y-67157208D01*
X3606287Y-67149500D01*
X3393713Y-67149500D01*
X3345042Y-67157208D01*
X3183760Y-67182753D01*
X2981585Y-67248444D01*
X2792179Y-67344951D01*
X2620213Y-67469890D01*
X2469890Y-67620213D01*
X2344951Y-67792179D01*
X2248444Y-67981585D01*
X2182753Y-68183760D01*
X2149500Y-68393713D01*
X1200000Y-68393713D01*
X1200000Y-66160000D01*
X6924320Y-66160000D01*
X6944988Y-66369853D01*
X7006202Y-66571649D01*
X7105600Y-66757610D01*
X7105605Y-66757616D01*
X7239378Y-66920621D01*
X7402383Y-67054394D01*
X7402389Y-67054399D01*
X7588350Y-67153797D01*
X7588352Y-67153797D01*
X7588355Y-67153799D01*
X7790145Y-67215011D01*
X7790144Y-67215011D01*
X7808959Y-67216864D01*
X8000000Y-67235680D01*
X8209855Y-67215011D01*
X8411645Y-67153799D01*
X8419688Y-67149500D01*
X8597610Y-67054399D01*
X8597612Y-67054396D01*
X8597616Y-67054395D01*
X8760621Y-66920621D01*
X8894395Y-66757616D01*
X8894396Y-66757612D01*
X8894399Y-66757610D01*
X8993797Y-66571649D01*
X8993797Y-66571648D01*
X8993799Y-66571645D01*
X9055011Y-66369855D01*
X9075680Y-66160000D01*
X9055011Y-65950145D01*
X8993799Y-65748355D01*
X8993797Y-65748352D01*
X8993797Y-65748350D01*
X8894399Y-65562389D01*
X8894394Y-65562383D01*
X8760621Y-65399378D01*
X8597616Y-65265605D01*
X8597610Y-65265600D01*
X8411649Y-65166202D01*
X8310750Y-65135595D01*
X8209855Y-65104989D01*
X8209853Y-65104988D01*
X8209855Y-65104988D01*
X8000000Y-65084320D01*
X7790146Y-65104988D01*
X7588350Y-65166202D01*
X7402389Y-65265600D01*
X7402383Y-65265605D01*
X7239378Y-65399378D01*
X7105605Y-65562383D01*
X7105600Y-65562389D01*
X7006202Y-65748350D01*
X6944988Y-65950146D01*
X6924320Y-66160000D01*
X1200000Y-66160000D01*
X1200000Y-63620000D01*
X6924320Y-63620000D01*
X6944988Y-63829853D01*
X7006202Y-64031649D01*
X7105600Y-64217610D01*
X7105605Y-64217616D01*
X7239378Y-64380621D01*
X7402383Y-64514394D01*
X7402389Y-64514399D01*
X7588350Y-64613797D01*
X7588352Y-64613797D01*
X7588355Y-64613799D01*
X7790145Y-64675011D01*
X7790144Y-64675011D01*
X7808959Y-64676864D01*
X8000000Y-64695680D01*
X8209855Y-64675011D01*
X8411645Y-64613799D01*
X8478987Y-64577804D01*
X8597610Y-64514399D01*
X8597612Y-64514396D01*
X8597616Y-64514395D01*
X8760621Y-64380621D01*
X8894395Y-64217616D01*
X8894396Y-64217612D01*
X8894399Y-64217610D01*
X8993797Y-64031649D01*
X8993797Y-64031648D01*
X8993799Y-64031645D01*
X9055011Y-63829855D01*
X9075680Y-63620000D01*
X9055011Y-63410145D01*
X9028950Y-63324234D01*
X44534500Y-63324234D01*
X44534500Y-63475765D01*
X44573719Y-63622136D01*
X44611602Y-63687750D01*
X44649485Y-63753365D01*
X44756635Y-63860515D01*
X44887865Y-63936281D01*
X45034234Y-63975500D01*
X45034236Y-63975500D01*
X45185764Y-63975500D01*
X45185766Y-63975500D01*
X45332135Y-63936281D01*
X45463365Y-63860515D01*
X45570515Y-63753365D01*
X45646281Y-63622135D01*
X45685500Y-63475766D01*
X45685500Y-63324234D01*
X50314500Y-63324234D01*
X50314500Y-63475765D01*
X50353719Y-63622136D01*
X50391602Y-63687750D01*
X50429485Y-63753365D01*
X50536635Y-63860515D01*
X50667865Y-63936281D01*
X50814234Y-63975500D01*
X50814236Y-63975500D01*
X50965764Y-63975500D01*
X50965766Y-63975500D01*
X51112135Y-63936281D01*
X51243365Y-63860515D01*
X51350515Y-63753365D01*
X51426281Y-63622135D01*
X51430872Y-63605000D01*
X76904500Y-63605000D01*
X76904500Y-64395000D01*
X76910525Y-64451040D01*
X76910525Y-64451042D01*
X76910526Y-64451043D01*
X76957805Y-64577804D01*
X77038884Y-64686115D01*
X77051662Y-64695680D01*
X77147195Y-64767194D01*
X77273960Y-64814475D01*
X77330000Y-64820500D01*
X77330010Y-64820500D01*
X78669990Y-64820500D01*
X78670000Y-64820500D01*
X78726040Y-64814475D01*
X78852805Y-64767194D01*
X78961115Y-64686115D01*
X79042194Y-64577805D01*
X79089475Y-64451040D01*
X79095500Y-64395000D01*
X79095500Y-63605000D01*
X79089475Y-63548960D01*
X79042194Y-63422195D01*
X78968864Y-63324236D01*
X78961115Y-63313884D01*
X78852804Y-63232805D01*
X78726043Y-63185526D01*
X78726042Y-63185525D01*
X78726040Y-63185525D01*
X78670000Y-63179500D01*
X77330000Y-63179500D01*
X77273960Y-63185525D01*
X77273957Y-63185525D01*
X77273956Y-63185526D01*
X77147195Y-63232805D01*
X77038884Y-63313884D01*
X76957805Y-63422195D01*
X76910526Y-63548956D01*
X76910525Y-63548960D01*
X76904500Y-63605000D01*
X51430872Y-63605000D01*
X51465500Y-63475766D01*
X51465500Y-63324234D01*
X51426281Y-63177865D01*
X51350515Y-63046635D01*
X51243365Y-62939485D01*
X51177750Y-62901602D01*
X51112136Y-62863719D01*
X51038950Y-62844109D01*
X50965766Y-62824500D01*
X50814234Y-62824500D01*
X50667863Y-62863719D01*
X50536635Y-62939485D01*
X50536632Y-62939487D01*
X50429487Y-63046632D01*
X50429485Y-63046635D01*
X50353719Y-63177863D01*
X50314500Y-63324234D01*
X45685500Y-63324234D01*
X45646281Y-63177865D01*
X45570515Y-63046635D01*
X45463365Y-62939485D01*
X45397750Y-62901602D01*
X45332136Y-62863719D01*
X45258950Y-62844109D01*
X45185766Y-62824500D01*
X45034234Y-62824500D01*
X44887863Y-62863719D01*
X44756635Y-62939485D01*
X44756632Y-62939487D01*
X44649487Y-63046632D01*
X44649485Y-63046635D01*
X44573719Y-63177863D01*
X44534500Y-63324234D01*
X9028950Y-63324234D01*
X8993799Y-63208355D01*
X8993797Y-63208352D01*
X8993797Y-63208350D01*
X8894399Y-63022389D01*
X8894394Y-63022383D01*
X8760621Y-62859378D01*
X8597616Y-62725605D01*
X8597610Y-62725600D01*
X8411649Y-62626202D01*
X8310750Y-62595595D01*
X8209855Y-62564989D01*
X8209853Y-62564988D01*
X8209855Y-62564988D01*
X8000000Y-62544320D01*
X7790146Y-62564988D01*
X7588350Y-62626202D01*
X7402389Y-62725600D01*
X7402383Y-62725605D01*
X7239378Y-62859378D01*
X7105605Y-63022383D01*
X7105600Y-63022389D01*
X7006202Y-63208350D01*
X6944988Y-63410146D01*
X6924320Y-63620000D01*
X1200000Y-63620000D01*
X1200000Y-58540000D01*
X6924320Y-58540000D01*
X6944988Y-58749853D01*
X7006202Y-58951649D01*
X7105600Y-59137610D01*
X7105605Y-59137616D01*
X7239378Y-59300621D01*
X7402383Y-59434394D01*
X7402389Y-59434399D01*
X7588350Y-59533797D01*
X7588352Y-59533797D01*
X7588355Y-59533799D01*
X7668033Y-59557969D01*
X7726471Y-59596266D01*
X7754927Y-59660078D01*
X7744367Y-59729145D01*
X7739424Y-59738629D01*
X7701342Y-59804587D01*
X7701341Y-59804589D01*
X7679500Y-59886103D01*
X7679500Y-59966587D01*
X7659815Y-60033626D01*
X7607011Y-60079381D01*
X7591507Y-60085244D01*
X7588354Y-60086200D01*
X7402389Y-60185600D01*
X7402383Y-60185605D01*
X7239378Y-60319378D01*
X7105605Y-60482383D01*
X7105600Y-60482389D01*
X7006202Y-60668350D01*
X6944988Y-60870146D01*
X6924320Y-61080000D01*
X6944988Y-61289853D01*
X7006202Y-61491649D01*
X7105600Y-61677610D01*
X7105605Y-61677616D01*
X7239378Y-61840621D01*
X7402383Y-61974394D01*
X7402389Y-61974399D01*
X7588350Y-62073797D01*
X7588352Y-62073797D01*
X7588355Y-62073799D01*
X7790145Y-62135011D01*
X7790144Y-62135011D01*
X7808959Y-62136864D01*
X8000000Y-62155680D01*
X8209855Y-62135011D01*
X8411645Y-62073799D01*
X8411649Y-62073797D01*
X8597610Y-61974399D01*
X8597612Y-61974396D01*
X8597616Y-61974395D01*
X8760621Y-61840621D01*
X8894395Y-61677616D01*
X8894396Y-61677612D01*
X8894399Y-61677610D01*
X8993797Y-61491649D01*
X8993797Y-61491648D01*
X8993799Y-61491645D01*
X9055011Y-61289855D01*
X9075680Y-61080000D01*
X9055011Y-60870145D01*
X9010830Y-60724499D01*
X45430309Y-60724499D01*
X45430309Y-60724500D01*
X45448198Y-60860377D01*
X45448199Y-60860381D01*
X45500642Y-60986993D01*
X45500643Y-60986995D01*
X45500644Y-60986996D01*
X45584075Y-61095725D01*
X45692804Y-61179156D01*
X45692805Y-61179156D01*
X45692806Y-61179157D01*
X45735010Y-61196638D01*
X45819422Y-61231602D01*
X45939491Y-61247409D01*
X45955299Y-61249491D01*
X45955300Y-61249491D01*
X45955301Y-61249491D01*
X45969461Y-61247626D01*
X46091178Y-61231602D01*
X46217796Y-61179156D01*
X46326525Y-61095725D01*
X46328222Y-61093514D01*
X46330130Y-61092120D01*
X46332276Y-61089975D01*
X46332610Y-61090309D01*
X46384650Y-61052311D01*
X46426598Y-61045000D01*
X49879835Y-61045000D01*
X49946874Y-61064685D01*
X49978209Y-61093511D01*
X49979907Y-61095725D01*
X49980675Y-61096725D01*
X50089404Y-61180156D01*
X50216022Y-61232602D01*
X50336091Y-61248409D01*
X50351899Y-61250491D01*
X50351900Y-61250491D01*
X50351901Y-61250491D01*
X50366061Y-61248626D01*
X50487778Y-61232602D01*
X50614396Y-61180156D01*
X50723125Y-61096725D01*
X50806556Y-60987996D01*
X50859002Y-60861378D01*
X50876891Y-60725500D01*
X50859002Y-60589622D01*
X50806556Y-60463005D01*
X50806556Y-60463004D01*
X50723126Y-60354276D01*
X50719910Y-60351808D01*
X50717886Y-60349036D01*
X50717383Y-60348533D01*
X50717461Y-60348454D01*
X50678709Y-60295378D01*
X50671400Y-60253435D01*
X50671400Y-46503017D01*
X50691085Y-46435978D01*
X50707719Y-46415336D01*
X51060621Y-46062434D01*
X60274258Y-36848796D01*
X60335579Y-36815313D01*
X60405271Y-36820297D01*
X60461204Y-36862169D01*
X60474941Y-36886293D01*
X60476441Y-36888892D01*
X60476443Y-36888895D01*
X60476444Y-36888896D01*
X60559875Y-36997625D01*
X60668604Y-37081056D01*
X60795222Y-37133502D01*
X60931100Y-37151391D01*
X60933861Y-37151027D01*
X60936194Y-37151391D01*
X60939228Y-37151391D01*
X60939228Y-37151864D01*
X61002895Y-37161791D01*
X61037730Y-37186285D01*
X81692693Y-57841248D01*
X81726178Y-57902571D01*
X81727953Y-57945103D01*
X81727309Y-57949998D01*
X81727309Y-57950000D01*
X81739151Y-58039951D01*
X81745198Y-58085877D01*
X81745199Y-58085881D01*
X81797642Y-58212493D01*
X81797643Y-58212495D01*
X81797644Y-58212496D01*
X81881075Y-58321225D01*
X81989804Y-58404656D01*
X81989805Y-58404656D01*
X81989806Y-58404657D01*
X82032010Y-58422138D01*
X82116422Y-58457102D01*
X82236491Y-58472909D01*
X82252299Y-58474991D01*
X82252300Y-58474991D01*
X82252301Y-58474991D01*
X82266461Y-58473126D01*
X82388178Y-58457102D01*
X82514796Y-58404656D01*
X82623525Y-58321225D01*
X82706956Y-58212496D01*
X82759402Y-58085878D01*
X82777291Y-57950000D01*
X82759402Y-57814122D01*
X82706956Y-57687505D01*
X82623525Y-57578775D01*
X82514796Y-57495344D01*
X82514795Y-57495343D01*
X82514793Y-57495342D01*
X82388181Y-57442899D01*
X82388179Y-57442898D01*
X82388178Y-57442898D01*
X82313566Y-57433075D01*
X82252301Y-57425009D01*
X82252293Y-57425009D01*
X82251647Y-57425094D01*
X82251102Y-57425009D01*
X82244173Y-57425009D01*
X82244173Y-57423927D01*
X82182613Y-57414324D01*
X82147790Y-57389835D01*
X61490985Y-36733030D01*
X61457500Y-36671707D01*
X61455727Y-36629163D01*
X61456091Y-36626400D01*
X61438202Y-36490522D01*
X61385756Y-36363905D01*
X61302325Y-36255175D01*
X61193596Y-36171744D01*
X61193595Y-36171743D01*
X61193592Y-36171741D01*
X61186557Y-36167680D01*
X61187210Y-36166547D01*
X61139323Y-36127958D01*
X61117258Y-36061664D01*
X61134537Y-35993964D01*
X61153494Y-35969560D01*
X71268871Y-25854183D01*
X71330192Y-25820700D01*
X71372735Y-25818927D01*
X71375500Y-25819291D01*
X71511378Y-25801402D01*
X71637996Y-25748956D01*
X71746725Y-25665525D01*
X71830156Y-25556796D01*
X71882602Y-25430178D01*
X71900491Y-25294300D01*
X71882602Y-25158422D01*
X71830156Y-25031805D01*
X71746725Y-24923075D01*
X71637996Y-24839644D01*
X71637995Y-24839643D01*
X71637993Y-24839642D01*
X71511381Y-24787199D01*
X71511379Y-24787198D01*
X71511378Y-24787198D01*
X71443439Y-24778253D01*
X71375501Y-24769309D01*
X71375499Y-24769309D01*
X71239622Y-24787198D01*
X71239618Y-24787199D01*
X71113005Y-24839643D01*
X71004275Y-24923075D01*
X70920843Y-25031805D01*
X70868399Y-25158418D01*
X70868398Y-25158422D01*
X70850509Y-25294299D01*
X70850509Y-25294301D01*
X70850873Y-25297067D01*
X70850509Y-25299400D01*
X70850509Y-25302427D01*
X70850037Y-25302427D01*
X70840104Y-25366102D01*
X70815614Y-25400928D01*
X50154110Y-46062434D01*
X50094438Y-46122105D01*
X50094436Y-46122108D01*
X50052241Y-46195190D01*
X50030400Y-46276703D01*
X50030400Y-60254969D01*
X50010715Y-60322008D01*
X49986367Y-60348474D01*
X49986421Y-60348528D01*
X49985140Y-60349808D01*
X49981889Y-60353343D01*
X49980675Y-60354273D01*
X49979745Y-60355487D01*
X49978696Y-60356252D01*
X49974927Y-60360022D01*
X49974339Y-60359434D01*
X49923317Y-60396689D01*
X49881369Y-60404000D01*
X46426598Y-60404000D01*
X46359559Y-60384315D01*
X46328221Y-60355484D01*
X46326526Y-60353275D01*
X46217796Y-60269844D01*
X46217794Y-60269843D01*
X46091181Y-60217399D01*
X46091179Y-60217398D01*
X46091178Y-60217398D01*
X46023239Y-60208453D01*
X45955301Y-60199509D01*
X45955299Y-60199509D01*
X45819422Y-60217398D01*
X45819418Y-60217399D01*
X45692805Y-60269843D01*
X45584075Y-60353275D01*
X45500643Y-60462005D01*
X45448199Y-60588618D01*
X45448198Y-60588622D01*
X45430309Y-60724499D01*
X9010830Y-60724499D01*
X8993799Y-60668355D01*
X8993797Y-60668352D01*
X8993797Y-60668350D01*
X8894399Y-60482389D01*
X8894394Y-60482383D01*
X8760621Y-60319378D01*
X8640888Y-60221117D01*
X8601553Y-60163371D01*
X8599682Y-60093526D01*
X8631869Y-60037584D01*
X10256654Y-58412800D01*
X32610509Y-58412800D01*
X32627255Y-58540000D01*
X32628398Y-58548677D01*
X32628399Y-58548681D01*
X32680842Y-58675293D01*
X32680843Y-58675295D01*
X32680844Y-58675296D01*
X32764275Y-58784025D01*
X32873004Y-58867456D01*
X32999622Y-58919902D01*
X33119691Y-58935709D01*
X33135499Y-58937791D01*
X33135500Y-58937791D01*
X33135501Y-58937791D01*
X33149661Y-58935926D01*
X33271378Y-58919902D01*
X33397996Y-58867456D01*
X33506725Y-58784025D01*
X33590156Y-58675296D01*
X33642602Y-58548678D01*
X33660491Y-58412800D01*
X33642602Y-58276922D01*
X33590156Y-58150305D01*
X33590156Y-58150304D01*
X33506726Y-58041575D01*
X33504609Y-58039951D01*
X33503277Y-58038127D01*
X33500983Y-58035833D01*
X33501341Y-58035474D01*
X33463409Y-57983521D01*
X33456100Y-57941579D01*
X33456100Y-22442516D01*
X33475785Y-22375477D01*
X33492414Y-22354840D01*
X36943370Y-18903883D01*
X37004691Y-18870400D01*
X37047235Y-18868627D01*
X37050000Y-18868991D01*
X37185878Y-18851102D01*
X37312496Y-18798656D01*
X37421225Y-18715225D01*
X37504656Y-18606496D01*
X37557102Y-18479878D01*
X37574991Y-18344000D01*
X37557102Y-18208122D01*
X37504656Y-18081505D01*
X37442900Y-18001022D01*
X37421226Y-17972776D01*
X37312493Y-17889342D01*
X37185881Y-17836899D01*
X37185879Y-17836898D01*
X37185878Y-17836898D01*
X37117939Y-17827953D01*
X37050001Y-17819009D01*
X37049999Y-17819009D01*
X36914122Y-17836898D01*
X36914118Y-17836899D01*
X36787505Y-17889343D01*
X36678775Y-17972775D01*
X36595343Y-18081505D01*
X36542899Y-18208118D01*
X36542898Y-18208122D01*
X36525009Y-18343999D01*
X36525009Y-18344003D01*
X36525373Y-18346770D01*
X36525009Y-18349103D01*
X36525009Y-18352127D01*
X36524537Y-18352127D01*
X36514603Y-18415804D01*
X36490114Y-18450629D01*
X32938810Y-22001934D01*
X32879138Y-22061605D01*
X32879136Y-22061608D01*
X32836941Y-22134690D01*
X32815100Y-22216203D01*
X32815100Y-57941425D01*
X32795415Y-58008464D01*
X32766588Y-58039800D01*
X32764275Y-58041574D01*
X32680843Y-58150305D01*
X32628399Y-58276918D01*
X32628398Y-58276922D01*
X32610509Y-58412800D01*
X10256654Y-58412800D01*
X15431464Y-53237992D01*
X15473659Y-53164909D01*
X15495500Y-53083395D01*
X15495500Y-21456898D01*
X15515185Y-21389859D01*
X15544016Y-21358521D01*
X15546224Y-21356826D01*
X15546225Y-21356825D01*
X15629656Y-21248096D01*
X15682102Y-21121478D01*
X15699991Y-20985600D01*
X15682102Y-20849722D01*
X15629656Y-20723105D01*
X15546225Y-20614375D01*
X15437496Y-20530944D01*
X15437495Y-20530943D01*
X15437493Y-20530942D01*
X15310881Y-20478499D01*
X15310879Y-20478498D01*
X15310878Y-20478498D01*
X15242939Y-20469553D01*
X15175001Y-20460609D01*
X15174999Y-20460609D01*
X15039122Y-20478498D01*
X15039118Y-20478499D01*
X14912505Y-20530943D01*
X14803775Y-20614375D01*
X14720343Y-20723105D01*
X14667899Y-20849718D01*
X14667898Y-20849722D01*
X14650009Y-20985599D01*
X14650009Y-20985600D01*
X14667898Y-21121477D01*
X14667899Y-21121481D01*
X14720343Y-21248094D01*
X14720344Y-21248096D01*
X14803775Y-21356826D01*
X14805984Y-21358521D01*
X14807375Y-21360426D01*
X14809522Y-21362573D01*
X14809187Y-21362907D01*
X14847188Y-21414948D01*
X14854500Y-21456898D01*
X14854500Y-52857081D01*
X14834815Y-52924120D01*
X14818181Y-52944762D01*
X9274269Y-58488673D01*
X9212946Y-58522158D01*
X9143254Y-58517174D01*
X9087321Y-58475302D01*
X9063186Y-58413147D01*
X9055011Y-58330145D01*
X8993799Y-58128355D01*
X8993797Y-58128352D01*
X8993797Y-58128350D01*
X8894399Y-57942389D01*
X8894394Y-57942382D01*
X8848371Y-57886303D01*
X8821058Y-57821993D01*
X8832849Y-57753125D01*
X8880001Y-57701565D01*
X8912130Y-57687864D01*
X8915509Y-57686959D01*
X8988592Y-57644764D01*
X9048264Y-57585092D01*
X9048264Y-57585090D01*
X9058465Y-57574890D01*
X9058468Y-57574885D01*
X9408164Y-57225192D01*
X9450359Y-57152109D01*
X9472200Y-57070595D01*
X9472200Y-56986206D01*
X9472200Y-23750017D01*
X9491885Y-23682978D01*
X9508519Y-23662336D01*
X11922761Y-21248094D01*
X14474071Y-18696783D01*
X14535392Y-18663300D01*
X14577935Y-18661527D01*
X14580700Y-18661891D01*
X14716578Y-18644002D01*
X14843196Y-18591556D01*
X14951925Y-18508125D01*
X15035356Y-18399396D01*
X15087802Y-18272778D01*
X15105691Y-18136900D01*
X15087802Y-18001022D01*
X15035356Y-17874405D01*
X15006576Y-17836898D01*
X14951926Y-17765676D01*
X14843193Y-17682242D01*
X14716581Y-17629799D01*
X14716579Y-17629798D01*
X14716578Y-17629798D01*
X14648639Y-17620853D01*
X14580701Y-17611909D01*
X14580699Y-17611909D01*
X14444822Y-17629798D01*
X14444818Y-17629799D01*
X14318205Y-17682243D01*
X14209475Y-17765675D01*
X14126043Y-17874405D01*
X14073599Y-18001018D01*
X14073598Y-18001022D01*
X14055709Y-18136899D01*
X14055709Y-18136901D01*
X14056073Y-18139667D01*
X14055709Y-18142000D01*
X14055709Y-18145027D01*
X14055237Y-18145027D01*
X14045304Y-18208702D01*
X14020814Y-18243528D01*
X8954910Y-23309434D01*
X8895238Y-23369105D01*
X8895236Y-23369108D01*
X8853041Y-23442190D01*
X8831200Y-23523703D01*
X8831200Y-54805500D01*
X8811515Y-54872539D01*
X8758711Y-54918294D01*
X8707200Y-54929500D01*
X7128282Y-54929500D01*
X7063964Y-54942293D01*
X7063961Y-54942294D01*
X6991028Y-54991027D01*
X6942292Y-55063966D01*
X6942291Y-55063967D01*
X6929500Y-55128276D01*
X6929500Y-56871717D01*
X6942293Y-56936035D01*
X6942294Y-56936038D01*
X6975816Y-56986206D01*
X6991028Y-57008972D01*
X7063965Y-57057707D01*
X7063966Y-57057707D01*
X7063967Y-57057708D01*
X7102483Y-57065368D01*
X7128281Y-57070500D01*
X7598626Y-57070499D01*
X7665664Y-57090183D01*
X7711419Y-57142987D01*
X7721363Y-57212146D01*
X7706013Y-57256497D01*
X7701343Y-57264585D01*
X7701341Y-57264589D01*
X7679500Y-57346103D01*
X7679500Y-57426587D01*
X7659815Y-57493626D01*
X7607011Y-57539381D01*
X7591507Y-57545244D01*
X7588354Y-57546200D01*
X7402389Y-57645600D01*
X7402383Y-57645605D01*
X7239378Y-57779378D01*
X7105605Y-57942383D01*
X7105600Y-57942389D01*
X7006202Y-58128350D01*
X6944988Y-58330146D01*
X6924320Y-58540000D01*
X1200000Y-58540000D01*
X1200000Y-12124000D01*
X1219685Y-12056961D01*
X1272489Y-12011206D01*
X1324000Y-12000000D01*
X93676000Y-12000000D01*
X93743039Y-12019685D01*
G37*
%TD.AperFunction*%
%TD*%
M02*
