M48
; DRILL file {KiCad 8.0.9-8.0.9-0~ubuntu24.04.1} date 2026-07-18T21:31:10+0000
; FORMAT={-:-/ absolute / metric / decimal}
; #@! TF.CreationDate,2026-07-18T21:31:10+00:00
; #@! TF.GenerationSoftware,Kicad,Pcbnew,8.0.9-8.0.9-0~ubuntu24.04.1
; #@! TF.FileFunction,MixedPlating,1,2
FMAT,2
METRIC
; #@! TA.AperFunction,Plated,PTH,ComponentDrill
T1C0.200
; #@! TA.AperFunction,Plated,PTH,ViaDrill
T2C0.300
; #@! TA.AperFunction,Plated,PTH,ComponentDrill
T3C0.600
; #@! TA.AperFunction,Plated,PTH,ComponentDrill
T4C0.750
; #@! TA.AperFunction,Plated,PTH,ComponentDrill
T5C1.000
; #@! TA.AperFunction,NonPlated,NPTH,ComponentDrill
T6C0.650
; #@! TA.AperFunction,NonPlated,NPTH,ComponentDrill
T7C2.200
%
G90
G05
T1
X45.795Y-22.328
X45.795Y-23.852
X46.557Y-21.565
X46.557Y-23.09
X46.557Y-24.615
X47.32Y-22.328
X47.32Y-23.852
X48.082Y-21.565
X48.082Y-23.09
X48.082Y-24.615
X48.845Y-22.328
X48.845Y-23.852
T2
X14.236Y-23.843
X15.757Y-20.929
X16.736Y-17.241
X18.592Y-32.381
X33.144Y-54.999
X46.593Y-63.299
X52.935Y-64.884
X53.553Y-54.778
X60.087Y-54.16
X75.612Y-26.986
X76.147Y-50.794
X77.746Y-53.488
X79.315Y-57.007
X80.427Y-56.799
X80.78Y-58.897
T4
X78.0Y-62.0
X78.0Y-64.0
T5
X8.0Y-50.0
X8.0Y-52.54
X8.0Y-55.08
X8.0Y-57.62
X8.0Y-60.16
X8.0Y-62.7
X8.0Y-65.24
T6
X45.11Y-63.4
X50.89Y-63.4
T7
X3.5Y-3.5
X3.5Y-68.5
X91.5Y-3.5
X91.5Y-68.5
T3
X43.68Y-62.32G85X43.68Y-63.42
G05
X43.68Y-66.75G85X43.68Y-67.35
G05
X52.32Y-62.32G85X52.32Y-63.42
G05
X52.32Y-66.75G85X52.32Y-67.35
G05
M30
