%TF.GenerationSoftware,KiCad,Pcbnew,8.0.9-8.0.9-0~ubuntu24.04.1*%
%TF.CreationDate,2026-07-18T21:31:09+00:00*%
%TF.ProjectId,smart-glove,736d6172-742d-4676-9c6f-76652e6b6963,rev?*%
%TF.SameCoordinates,Original*%
%TF.FileFunction,Copper,L2,Bot*%
%TF.FilePolarity,Positive*%
%FSLAX46Y46*%
G04 Gerber Fmt 4.6, Leading zero omitted, Abs format (unit mm)*
G04 Created by KiCad (PCBNEW 8.0.9-8.0.9-0~ubuntu24.04.1) date 2026-07-18 21:31:09*
%MOMM*%
%LPD*%
G01*
G04 APERTURE LIST*
G04 Aperture macros list*
%AMRoundRect*
0 Rectangle with rounded corners*
0 $1 Rounding radius*
0 $2 $3 $4 $5 $6 $7 $8 $9 X,Y pos of 4 corners*
0 Add a 4 corners polygon primitive as box body*
4,1,4,$2,$3,$4,$5,$6,$7,$8,$9,$2,$3,0*
0 Add four circle primitives for the rounded corners*
1,1,$1+$1,$2,$3*
1,1,$1+$1,$4,$5*
1,1,$1+$1,$6,$7*
1,1,$1+$1,$8,$9*
0 Add four rect primitives between the rounded corners*
20,1,$1+$1,$2,$3,$4,$5,0*
20,1,$1+$1,$4,$5,$6,$7,0*
20,1,$1+$1,$6,$7,$8,$9,0*
20,1,$1+$1,$8,$9,$2,$3,0*%
G04 Aperture macros list end*
%TA.AperFunction,HeatsinkPad*%
%ADD10C,0.600000*%
%TD*%
%TA.AperFunction,ComponentPad*%
%ADD11RoundRect,0.250000X0.625000X-0.350000X0.625000X0.350000X-0.625000X0.350000X-0.625000X-0.350000X0*%
%TD*%
%TA.AperFunction,ComponentPad*%
%ADD12O,1.750000X1.200000*%
%TD*%
%TA.AperFunction,ComponentPad*%
%ADD13R,1.700000X1.700000*%
%TD*%
%TA.AperFunction,ComponentPad*%
%ADD14O,1.700000X1.700000*%
%TD*%
%TA.AperFunction,ComponentPad*%
%ADD15O,1.000000X2.100000*%
%TD*%
%TA.AperFunction,ComponentPad*%
%ADD16O,1.000000X1.600000*%
%TD*%
%TA.AperFunction,ViaPad*%
%ADD17C,0.600000*%
%TD*%
%TA.AperFunction,Conductor*%
%ADD18C,0.200000*%
%TD*%
G04 APERTURE END LIST*
D10*
%TO.P,U1,39*%
%TO.N,GND*%
X45795000Y-22327500D03*
X45795000Y-23852500D03*
X46557500Y-21565000D03*
X46557500Y-23090000D03*
X46557500Y-24615000D03*
X47320000Y-22327500D03*
X47320000Y-23852500D03*
X48082500Y-21565000D03*
X48082500Y-23090000D03*
X48082500Y-24615000D03*
X48845000Y-22327500D03*
X48845000Y-23852500D03*
%TD*%
D11*
%TO.P,J3,1*%
%TO.N,+BAT*%
X78000000Y-64000000D03*
D12*
%TO.P,J3,2*%
%TO.N,GND*%
X78000000Y-62000000D03*
%TD*%
D13*
%TO.P,J2,1*%
%TO.N,3V3*%
X8000000Y-50000000D03*
D14*
%TO.P,J2,2*%
%TO.N,FLEX1*%
X8000000Y-52540000D03*
%TO.P,J2,3*%
%TO.N,FLEX2*%
X8000000Y-55080000D03*
%TO.P,J2,4*%
%TO.N,FLEX3*%
X8000000Y-57620000D03*
%TO.P,J2,5*%
%TO.N,FLEX4*%
X8000000Y-60160000D03*
%TO.P,J2,6*%
%TO.N,FLEX5*%
X8000000Y-62700000D03*
%TO.P,J2,7*%
%TO.N,GND*%
X8000000Y-65240000D03*
%TD*%
D15*
%TO.P,J1,S1*%
%TO.N,GND*%
X43680000Y-62870000D03*
D16*
X43680000Y-67050000D03*
D15*
X52320000Y-62870000D03*
D16*
X52320000Y-67050000D03*
%TD*%
D17*
%TO.N,GND*%
X79314800Y-57007400D03*
X53552600Y-54777600D03*
%TO.N,+BAT*%
X75611800Y-26986500D03*
%TO.N,FLEX1*%
X16736500Y-17240900D03*
%TO.N,FLEX2*%
X15756800Y-20929000D03*
%TO.N,FLEX3*%
X14236200Y-23842700D03*
%TO.N,FLEX4*%
X18592500Y-32381200D03*
%TO.N,IMU_INT*%
X80779600Y-58897400D03*
X76146600Y-50794200D03*
%TO.N,CC1*%
X33144000Y-54998900D03*
X46592500Y-63298900D03*
%TO.N,CC2*%
X60087100Y-54159600D03*
X52935000Y-64884100D03*
%TO.N,REGOUT*%
X80427200Y-56799200D03*
X77746500Y-53488100D03*
%TD*%
D18*
%TO.N,GND*%
X79314800Y-59783500D02*
X79314800Y-57007400D01*
X43680000Y-65948300D02*
X43680000Y-62870000D01*
X48082500Y-24615000D02*
X48082500Y-49307500D01*
X52320000Y-56010200D02*
X53552600Y-54777600D01*
X43680000Y-67050000D02*
X43680000Y-65948300D01*
X78000000Y-62000000D02*
X78000000Y-61098300D01*
X48082500Y-49307500D02*
X53552600Y-54777600D01*
X52320000Y-67050000D02*
X52320000Y-65948300D01*
X52320000Y-65948300D02*
X52320000Y-62870000D01*
X52320000Y-62870000D02*
X52320000Y-56010200D01*
X52320000Y-65948300D02*
X43680000Y-65948300D01*
X78000000Y-61098300D02*
X79314800Y-59783500D01*
%TO.N,+BAT*%
X75533200Y-27065100D02*
X75533200Y-61533200D01*
X75611800Y-26986500D02*
X75533200Y-27065100D01*
X75533200Y-61533200D02*
X78000000Y-64000000D01*
%TO.N,FLEX1*%
X9151700Y-24825700D02*
X16736500Y-17240900D01*
X8791800Y-51388300D02*
X9151700Y-51028400D01*
X8000000Y-52540000D02*
X8000000Y-51388300D01*
X9151700Y-51028400D02*
X9151700Y-24825700D01*
X8000000Y-51388300D02*
X8791800Y-51388300D01*
%TO.N,FLEX2*%
X11804300Y-50411900D02*
X8287900Y-53928300D01*
X11804300Y-24881500D02*
X11804300Y-50411900D01*
X8287900Y-53928300D02*
X8000000Y-53928300D01*
X8000000Y-55080000D02*
X8000000Y-53928300D01*
X15756800Y-20929000D02*
X11804300Y-24881500D01*
%TO.N,FLEX3*%
X8000000Y-56468300D02*
X8287900Y-56468300D01*
X8287900Y-56468300D02*
X14236200Y-50520000D01*
X8000000Y-57620000D02*
X8000000Y-56468300D01*
X14236200Y-50520000D02*
X14236200Y-23842700D01*
%TO.N,FLEX4*%
X8287900Y-59008300D02*
X18592500Y-48703700D01*
X8000000Y-59008300D02*
X8287900Y-59008300D01*
X8000000Y-60160000D02*
X8000000Y-59008300D01*
X18592500Y-48703700D02*
X18592500Y-32381200D01*
%TO.N,IMU_INT*%
X81028900Y-55676500D02*
X81028900Y-58648100D01*
X76146600Y-50794200D02*
X81028900Y-55676500D01*
X81028900Y-58648100D02*
X80779600Y-58897400D01*
%TO.N,CC1*%
X38292600Y-54999000D02*
X33144000Y-54999000D01*
X46592500Y-63298900D02*
X38292600Y-54999000D01*
X33144000Y-54999000D02*
X33144000Y-54998900D01*
%TO.N,CC2*%
X60087100Y-57732000D02*
X60087100Y-54159600D01*
X52935000Y-64884100D02*
X60087100Y-57732000D01*
%TO.N,REGOUT*%
X80427200Y-56799200D02*
X77746500Y-54118500D01*
X77746500Y-54118500D02*
X77746500Y-53488100D01*
%TD*%
%TA.AperFunction,Conductor*%
%TO.N,GND*%
G36*
X93743039Y-12019685D02*
G01*
X93788794Y-12072489D01*
X93800000Y-12124000D01*
X93800000Y-70676000D01*
X93780315Y-70743039D01*
X93727511Y-70788794D01*
X93676000Y-70800000D01*
X1324000Y-70800000D01*
X1256961Y-70780315D01*
X1211206Y-70727511D01*
X1200000Y-70676000D01*
X1200000Y-68393713D01*
X2149500Y-68393713D01*
X2149500Y-68606286D01*
X2182753Y-68816239D01*
X2248444Y-69018414D01*
X2344951Y-69207820D01*
X2469890Y-69379786D01*
X2620213Y-69530109D01*
X2792179Y-69655048D01*
X2792181Y-69655049D01*
X2792184Y-69655051D01*
X2981588Y-69751557D01*
X3183757Y-69817246D01*
X3393713Y-69850500D01*
X3393714Y-69850500D01*
X3606286Y-69850500D01*
X3606287Y-69850500D01*
X3816243Y-69817246D01*
X4018412Y-69751557D01*
X4207816Y-69655051D01*
X4229789Y-69639086D01*
X4379786Y-69530109D01*
X4379788Y-69530106D01*
X4379792Y-69530104D01*
X4530104Y-69379792D01*
X4530106Y-69379788D01*
X4530109Y-69379786D01*
X4655048Y-69207820D01*
X4655047Y-69207820D01*
X4655051Y-69207816D01*
X4751557Y-69018412D01*
X4817246Y-68816243D01*
X4850500Y-68606287D01*
X4850500Y-68393713D01*
X90149500Y-68393713D01*
X90149500Y-68606286D01*
X90182753Y-68816239D01*
X90248444Y-69018414D01*
X90344951Y-69207820D01*
X90469890Y-69379786D01*
X90620213Y-69530109D01*
X90792179Y-69655048D01*
X90792181Y-69655049D01*
X90792184Y-69655051D01*
X90981588Y-69751557D01*
X91183757Y-69817246D01*
X91393713Y-69850500D01*
X91393714Y-69850500D01*
X91606286Y-69850500D01*
X91606287Y-69850500D01*
X91816243Y-69817246D01*
X92018412Y-69751557D01*
X92207816Y-69655051D01*
X92229789Y-69639086D01*
X92379786Y-69530109D01*
X92379788Y-69530106D01*
X92379792Y-69530104D01*
X92530104Y-69379792D01*
X92530106Y-69379788D01*
X92530109Y-69379786D01*
X92655048Y-69207820D01*
X92655047Y-69207820D01*
X92655051Y-69207816D01*
X92751557Y-69018412D01*
X92817246Y-68816243D01*
X92850500Y-68606287D01*
X92850500Y-68393713D01*
X92817246Y-68183757D01*
X92751557Y-67981588D01*
X92655051Y-67792184D01*
X92655049Y-67792181D01*
X92655048Y-67792179D01*
X92530109Y-67620213D01*
X92379786Y-67469890D01*
X92207820Y-67344951D01*
X92018414Y-67248444D01*
X92018413Y-67248443D01*
X92018412Y-67248443D01*
X91816243Y-67182754D01*
X91816241Y-67182753D01*
X91816240Y-67182753D01*
X91654957Y-67157208D01*
X91606287Y-67149500D01*
X91393713Y-67149500D01*
X91345042Y-67157208D01*
X91183760Y-67182753D01*
X90981585Y-67248444D01*
X90792179Y-67344951D01*
X90620213Y-67469890D01*
X90469890Y-67620213D01*
X90344951Y-67792179D01*
X90248444Y-67981585D01*
X90182753Y-68183760D01*
X90149500Y-68393713D01*
X4850500Y-68393713D01*
X4817246Y-68183757D01*
X4751557Y-67981588D01*
X4655051Y-67792184D01*
X4655049Y-67792181D01*
X4655048Y-67792179D01*
X4530109Y-67620213D01*
X4379786Y-67469890D01*
X4207820Y-67344951D01*
X4018414Y-67248444D01*
X4018413Y-67248443D01*
X4018412Y-67248443D01*
X3816243Y-67182754D01*
X3816241Y-67182753D01*
X3816240Y-67182753D01*
X3654957Y-67157208D01*
X3606287Y-67149500D01*
X3393713Y-67149500D01*
X3345042Y-67157208D01*
X3183760Y-67182753D01*
X2981585Y-67248444D01*
X2792179Y-67344951D01*
X2620213Y-67469890D01*
X2469890Y-67620213D01*
X2344951Y-67792179D01*
X2248444Y-67981585D01*
X2182753Y-68183760D01*
X2149500Y-68393713D01*
X1200000Y-68393713D01*
X1200000Y-64884099D01*
X52410009Y-64884099D01*
X52410009Y-64884100D01*
X52427898Y-65019977D01*
X52427899Y-65019981D01*
X52480342Y-65146593D01*
X52480343Y-65146595D01*
X52480344Y-65146596D01*
X52563775Y-65255325D01*
X52672504Y-65338756D01*
X52799122Y-65391202D01*
X52919191Y-65407009D01*
X52934999Y-65409091D01*
X52935000Y-65409091D01*
X52935001Y-65409091D01*
X52949161Y-65407226D01*
X53070878Y-65391202D01*
X53197496Y-65338756D01*
X53306225Y-65255325D01*
X53389656Y-65146596D01*
X53442102Y-65019978D01*
X53459991Y-64884100D01*
X53459627Y-64881335D01*
X53459991Y-64879001D01*
X53459991Y-64875972D01*
X53460463Y-64875972D01*
X53470392Y-64812300D01*
X53494882Y-64777471D01*
X60273682Y-57998672D01*
X60273687Y-57998668D01*
X60283890Y-57988464D01*
X60283892Y-57988464D01*
X60343564Y-57928792D01*
X60385759Y-57855709D01*
X60392686Y-57829855D01*
X60407601Y-57774194D01*
X60407601Y-57689805D01*
X60407601Y-57682210D01*
X60407600Y-57682192D01*
X60407600Y-54630898D01*
X60427285Y-54563859D01*
X60456116Y-54532521D01*
X60458324Y-54530826D01*
X60458325Y-54530825D01*
X60541756Y-54422096D01*
X60594202Y-54295478D01*
X60612091Y-54159600D01*
X60594202Y-54023722D01*
X60541756Y-53897105D01*
X60470768Y-53804591D01*
X60458326Y-53788376D01*
X60458325Y-53788375D01*
X60349596Y-53704944D01*
X60349595Y-53704943D01*
X60349593Y-53704942D01*
X60222981Y-53652499D01*
X60222979Y-53652498D01*
X60222978Y-53652498D01*
X60155039Y-53643553D01*
X60087101Y-53634609D01*
X60087099Y-53634609D01*
X59951222Y-53652498D01*
X59951218Y-53652499D01*
X59824605Y-53704943D01*
X59715875Y-53788375D01*
X59632443Y-53897105D01*
X59579999Y-54023718D01*
X59579998Y-54023722D01*
X59562109Y-54159599D01*
X59562109Y-54159600D01*
X59579998Y-54295477D01*
X59579999Y-54295481D01*
X59632443Y-54422094D01*
X59632444Y-54422096D01*
X59715875Y-54530826D01*
X59718084Y-54532521D01*
X59719475Y-54534426D01*
X59721622Y-54536573D01*
X59721287Y-54536907D01*
X59759288Y-54588948D01*
X59766600Y-54630898D01*
X59766600Y-57547882D01*
X59746915Y-57614921D01*
X59730281Y-57635563D01*
X53041629Y-64324214D01*
X52980306Y-64357699D01*
X52937770Y-64359473D01*
X52935004Y-64359109D01*
X52934999Y-64359109D01*
X52799122Y-64376998D01*
X52799118Y-64376999D01*
X52672505Y-64429443D01*
X52563775Y-64512875D01*
X52480343Y-64621605D01*
X52427899Y-64748218D01*
X52427898Y-64748222D01*
X52410009Y-64884099D01*
X1200000Y-64884099D01*
X1200000Y-62700000D01*
X6924320Y-62700000D01*
X6944988Y-62909853D01*
X7006202Y-63111649D01*
X7105600Y-63297610D01*
X7105605Y-63297616D01*
X7239378Y-63460621D01*
X7402383Y-63594394D01*
X7402389Y-63594399D01*
X7588350Y-63693797D01*
X7588352Y-63693797D01*
X7588355Y-63693799D01*
X7790145Y-63755011D01*
X7790144Y-63755011D01*
X7808959Y-63756864D01*
X8000000Y-63775680D01*
X8209855Y-63755011D01*
X8411645Y-63693799D01*
X8455938Y-63670124D01*
X8597610Y-63594399D01*
X8597612Y-63594396D01*
X8597616Y-63594395D01*
X8760621Y-63460621D01*
X8894395Y-63297616D01*
X8894396Y-63297612D01*
X8894399Y-63297610D01*
X8993797Y-63111649D01*
X8993797Y-63111648D01*
X8993799Y-63111645D01*
X9055011Y-62909855D01*
X9075680Y-62700000D01*
X9055011Y-62490145D01*
X8993799Y-62288355D01*
X8993797Y-62288352D01*
X8993797Y-62288350D01*
X8894399Y-62102389D01*
X8894394Y-62102383D01*
X8760621Y-61939378D01*
X8597616Y-61805605D01*
X8597610Y-61805600D01*
X8411649Y-61706202D01*
X8249150Y-61656909D01*
X8209855Y-61644989D01*
X8209853Y-61644988D01*
X8209855Y-61644988D01*
X8000000Y-61624320D01*
X7790146Y-61644988D01*
X7588350Y-61706202D01*
X7402389Y-61805600D01*
X7402383Y-61805605D01*
X7239378Y-61939378D01*
X7105605Y-62102383D01*
X7105600Y-62102389D01*
X7006202Y-62288350D01*
X6944988Y-62490146D01*
X6924320Y-62700000D01*
X1200000Y-62700000D01*
X1200000Y-52540000D01*
X6924320Y-52540000D01*
X6944988Y-52749853D01*
X7006202Y-52951649D01*
X7105600Y-53137610D01*
X7105605Y-53137616D01*
X7239378Y-53300621D01*
X7402383Y-53434394D01*
X7402389Y-53434399D01*
X7588350Y-53533797D01*
X7588352Y-53533797D01*
X7588355Y-53533799D01*
X7668033Y-53557969D01*
X7726471Y-53596266D01*
X7754927Y-53660078D01*
X7744367Y-53729145D01*
X7739424Y-53738629D01*
X7701342Y-53804587D01*
X7701341Y-53804589D01*
X7679500Y-53886103D01*
X7679500Y-53966587D01*
X7659815Y-54033626D01*
X7607011Y-54079381D01*
X7591507Y-54085244D01*
X7588354Y-54086200D01*
X7402389Y-54185600D01*
X7402383Y-54185605D01*
X7239378Y-54319378D01*
X7105605Y-54482383D01*
X7105600Y-54482389D01*
X7006202Y-54668350D01*
X6944988Y-54870146D01*
X6924320Y-55080000D01*
X6944988Y-55289853D01*
X7006202Y-55491649D01*
X7105600Y-55677610D01*
X7105605Y-55677616D01*
X7239378Y-55840621D01*
X7402383Y-55974394D01*
X7402389Y-55974399D01*
X7588350Y-56073797D01*
X7588352Y-56073797D01*
X7588355Y-56073799D01*
X7668033Y-56097969D01*
X7726471Y-56136266D01*
X7754927Y-56200078D01*
X7744367Y-56269145D01*
X7739424Y-56278629D01*
X7701342Y-56344587D01*
X7701341Y-56344589D01*
X7679500Y-56426103D01*
X7679500Y-56506587D01*
X7659815Y-56573626D01*
X7607011Y-56619381D01*
X7591507Y-56625244D01*
X7588354Y-56626200D01*
X7402389Y-56725600D01*
X7402383Y-56725605D01*
X7239378Y-56859378D01*
X7105605Y-57022383D01*
X7105600Y-57022389D01*
X7006202Y-57208350D01*
X6944988Y-57410146D01*
X6924320Y-57620000D01*
X6944988Y-57829853D01*
X7006202Y-58031649D01*
X7105600Y-58217610D01*
X7105605Y-58217616D01*
X7239378Y-58380621D01*
X7402383Y-58514394D01*
X7402389Y-58514399D01*
X7588350Y-58613797D01*
X7588352Y-58613797D01*
X7588355Y-58613799D01*
X7668033Y-58637969D01*
X7726471Y-58676266D01*
X7754927Y-58740078D01*
X7744367Y-58809145D01*
X7739424Y-58818629D01*
X7701342Y-58884587D01*
X7701341Y-58884589D01*
X7679500Y-58966103D01*
X7679500Y-59046587D01*
X7659815Y-59113626D01*
X7607011Y-59159381D01*
X7591507Y-59165244D01*
X7588354Y-59166200D01*
X7402389Y-59265600D01*
X7402383Y-59265605D01*
X7239378Y-59399378D01*
X7105605Y-59562383D01*
X7105600Y-59562389D01*
X7006202Y-59748350D01*
X6944988Y-59950146D01*
X6924320Y-60160000D01*
X6944988Y-60369853D01*
X7006202Y-60571649D01*
X7105600Y-60757610D01*
X7105605Y-60757616D01*
X7239378Y-60920621D01*
X7402383Y-61054394D01*
X7402389Y-61054399D01*
X7588350Y-61153797D01*
X7588352Y-61153797D01*
X7588355Y-61153799D01*
X7790145Y-61215011D01*
X7790144Y-61215011D01*
X7808959Y-61216864D01*
X8000000Y-61235680D01*
X8209855Y-61215011D01*
X8411645Y-61153799D01*
X8411649Y-61153797D01*
X8597610Y-61054399D01*
X8597612Y-61054396D01*
X8597616Y-61054395D01*
X8760621Y-60920621D01*
X8894395Y-60757616D01*
X8894396Y-60757612D01*
X8894399Y-60757610D01*
X8993797Y-60571649D01*
X8993797Y-60571648D01*
X8993799Y-60571645D01*
X9055011Y-60369855D01*
X9075680Y-60160000D01*
X9055011Y-59950145D01*
X8993799Y-59748355D01*
X8993797Y-59748352D01*
X8993797Y-59748350D01*
X8894399Y-59562389D01*
X8894394Y-59562383D01*
X8760621Y-59399378D01*
X8640888Y-59301117D01*
X8601553Y-59243371D01*
X8599682Y-59173526D01*
X8631869Y-59117584D01*
X12750554Y-54998899D01*
X32619009Y-54998899D01*
X32619009Y-54998900D01*
X32636898Y-55134777D01*
X32636899Y-55134781D01*
X32689342Y-55261393D01*
X32689343Y-55261395D01*
X32689344Y-55261396D01*
X32772775Y-55370125D01*
X32881504Y-55453556D01*
X33008122Y-55506002D01*
X33128191Y-55521809D01*
X33143999Y-55523891D01*
X33144000Y-55523891D01*
X33144001Y-55523891D01*
X33158161Y-55522026D01*
X33279878Y-55506002D01*
X33406496Y-55453556D01*
X33515225Y-55370125D01*
X33516848Y-55368010D01*
X33518671Y-55366678D01*
X33520972Y-55364378D01*
X33521330Y-55364736D01*
X33573277Y-55326809D01*
X33615221Y-55319500D01*
X38108483Y-55319500D01*
X38175522Y-55339185D01*
X38196164Y-55355819D01*
X45546124Y-62705779D01*
X45579609Y-62767102D01*
X45574625Y-62836794D01*
X45532753Y-62892727D01*
X45467289Y-62917144D01*
X45399016Y-62902292D01*
X45396443Y-62900847D01*
X45332138Y-62863720D01*
X45332135Y-62863719D01*
X45185766Y-62824500D01*
X45034234Y-62824500D01*
X44887863Y-62863719D01*
X44756635Y-62939485D01*
X44756632Y-62939487D01*
X44649487Y-63046632D01*
X44649485Y-63046635D01*
X44573719Y-63177863D01*
X44553428Y-63253592D01*
X44534500Y-63324234D01*
X44534500Y-63475766D01*
X44554109Y-63548950D01*
X44573719Y-63622136D01*
X44601426Y-63670125D01*
X44649485Y-63753365D01*
X44756635Y-63860515D01*
X44887865Y-63936281D01*
X45034234Y-63975500D01*
X45034236Y-63975500D01*
X45185764Y-63975500D01*
X45185766Y-63975500D01*
X45332135Y-63936281D01*
X45463365Y-63860515D01*
X45570515Y-63753365D01*
X45646281Y-63622135D01*
X45685500Y-63475766D01*
X45685500Y-63324234D01*
X45646281Y-63177865D01*
X45609151Y-63113555D01*
X45592679Y-63045657D01*
X45615531Y-62979630D01*
X45670452Y-62936439D01*
X45740005Y-62929797D01*
X45802108Y-62961812D01*
X45804220Y-62963875D01*
X46032614Y-63192269D01*
X46066099Y-63253592D01*
X46067874Y-63296124D01*
X46067678Y-63297616D01*
X46067509Y-63298900D01*
X46083741Y-63422195D01*
X46085398Y-63434777D01*
X46085399Y-63434781D01*
X46137842Y-63561393D01*
X46137843Y-63561395D01*
X46137844Y-63561396D01*
X46221275Y-63670125D01*
X46330004Y-63753556D01*
X46330005Y-63753556D01*
X46330006Y-63753557D01*
X46372210Y-63771038D01*
X46456622Y-63806002D01*
X46576691Y-63821809D01*
X46592499Y-63823891D01*
X46592500Y-63823891D01*
X46592501Y-63823891D01*
X46606661Y-63822026D01*
X46728378Y-63806002D01*
X46854996Y-63753556D01*
X46963725Y-63670125D01*
X47047156Y-63561396D01*
X47099602Y-63434778D01*
X47114156Y-63324234D01*
X50314500Y-63324234D01*
X50314500Y-63475766D01*
X50334109Y-63548950D01*
X50353719Y-63622136D01*
X50381426Y-63670125D01*
X50429485Y-63753365D01*
X50536635Y-63860515D01*
X50667865Y-63936281D01*
X50814234Y-63975500D01*
X50814236Y-63975500D01*
X50965764Y-63975500D01*
X50965766Y-63975500D01*
X51112135Y-63936281D01*
X51243365Y-63860515D01*
X51350515Y-63753365D01*
X51426281Y-63622135D01*
X51465500Y-63475766D01*
X51465500Y-63324234D01*
X51426281Y-63177865D01*
X51350515Y-63046635D01*
X51243365Y-62939485D01*
X51162378Y-62892727D01*
X51112136Y-62863719D01*
X51011648Y-62836794D01*
X50965766Y-62824500D01*
X50814234Y-62824500D01*
X50667863Y-62863719D01*
X50536635Y-62939485D01*
X50536632Y-62939487D01*
X50429487Y-63046632D01*
X50429485Y-63046635D01*
X50353719Y-63177863D01*
X50333428Y-63253592D01*
X50314500Y-63324234D01*
X47114156Y-63324234D01*
X47117491Y-63298900D01*
X47099602Y-63163022D01*
X47047156Y-63036405D01*
X46963725Y-62927675D01*
X46854996Y-62844244D01*
X46854995Y-62844243D01*
X46854993Y-62844242D01*
X46728381Y-62791799D01*
X46728379Y-62791798D01*
X46728378Y-62791798D01*
X46655885Y-62782254D01*
X46592501Y-62773909D01*
X46592498Y-62773909D01*
X46589724Y-62774274D01*
X46587385Y-62773909D01*
X46584374Y-62773909D01*
X46584374Y-62773439D01*
X46520690Y-62763502D01*
X46485869Y-62739014D01*
X38556134Y-54809279D01*
X38556132Y-54809276D01*
X38489394Y-54742538D01*
X38489392Y-54742536D01*
X38416309Y-54700341D01*
X38334796Y-54678500D01*
X38334795Y-54678500D01*
X33615375Y-54678500D01*
X33548336Y-54658815D01*
X33516999Y-54629986D01*
X33515225Y-54627675D01*
X33406496Y-54544244D01*
X33406494Y-54544243D01*
X33279881Y-54491799D01*
X33279879Y-54491798D01*
X33279878Y-54491798D01*
X33208365Y-54482383D01*
X33144001Y-54473909D01*
X33143999Y-54473909D01*
X33008122Y-54491798D01*
X33008118Y-54491799D01*
X32881505Y-54544243D01*
X32772775Y-54627675D01*
X32689343Y-54736405D01*
X32636899Y-54863018D01*
X32636898Y-54863022D01*
X32619009Y-54998899D01*
X12750554Y-54998899D01*
X18779082Y-48970372D01*
X18779087Y-48970368D01*
X18789290Y-48960164D01*
X18789292Y-48960164D01*
X18848964Y-48900492D01*
X18891159Y-48827409D01*
X18913000Y-48745895D01*
X18913000Y-32852498D01*
X18932685Y-32785459D01*
X18961516Y-32754121D01*
X18963724Y-32752426D01*
X18963725Y-32752425D01*
X19047156Y-32643696D01*
X19099602Y-32517078D01*
X19117491Y-32381200D01*
X19099602Y-32245322D01*
X19047156Y-32118705D01*
X18963725Y-32009975D01*
X18854996Y-31926544D01*
X18854995Y-31926543D01*
X18854993Y-31926542D01*
X18728381Y-31874099D01*
X18728379Y-31874098D01*
X18728378Y-31874098D01*
X18660439Y-31865153D01*
X18592501Y-31856209D01*
X18592499Y-31856209D01*
X18456622Y-31874098D01*
X18456618Y-31874099D01*
X18330005Y-31926543D01*
X18221275Y-32009975D01*
X18137843Y-32118705D01*
X18085399Y-32245318D01*
X18085398Y-32245322D01*
X18067509Y-32381199D01*
X18067509Y-32381200D01*
X18085398Y-32517077D01*
X18085399Y-32517081D01*
X18137843Y-32643694D01*
X18137844Y-32643696D01*
X18221275Y-32752426D01*
X18223484Y-32754121D01*
X18224875Y-32756026D01*
X18227022Y-32758173D01*
X18226687Y-32758507D01*
X18264688Y-32810548D01*
X18272000Y-32852498D01*
X18272000Y-48519582D01*
X18252315Y-48586621D01*
X18235681Y-48607263D01*
X9274270Y-57568673D01*
X9212947Y-57602158D01*
X9143255Y-57597174D01*
X9087322Y-57555302D01*
X9063186Y-57493146D01*
X9055011Y-57410146D01*
X9028937Y-57324191D01*
X8993799Y-57208355D01*
X8993797Y-57208352D01*
X8993797Y-57208350D01*
X8894399Y-57022389D01*
X8894394Y-57022383D01*
X8760621Y-56859378D01*
X8640888Y-56761117D01*
X8601553Y-56703371D01*
X8599682Y-56633526D01*
X8631869Y-56577584D01*
X14422782Y-50786672D01*
X14422787Y-50786668D01*
X14432990Y-50776464D01*
X14432992Y-50776464D01*
X14492664Y-50716792D01*
X14534859Y-50643709D01*
X14534860Y-50643708D01*
X14556701Y-50562194D01*
X14556701Y-50477805D01*
X14556701Y-50470210D01*
X14556700Y-50470192D01*
X14556700Y-26986499D01*
X75086809Y-26986499D01*
X75086809Y-26986500D01*
X75104698Y-27122377D01*
X75104699Y-27122381D01*
X75157142Y-27248993D01*
X75157143Y-27248995D01*
X75157144Y-27248996D01*
X75187076Y-27288003D01*
X75212270Y-27353170D01*
X75212700Y-27363489D01*
X75212700Y-61575395D01*
X75234541Y-61656909D01*
X75276736Y-61729992D01*
X75276738Y-61729994D01*
X75343473Y-61796729D01*
X75343479Y-61796734D01*
X76904480Y-63357735D01*
X76937965Y-63419058D01*
X76932981Y-63488748D01*
X76910527Y-63548951D01*
X76910526Y-63548954D01*
X76910526Y-63548956D01*
X76910525Y-63548960D01*
X76904500Y-63605000D01*
X76904500Y-64395000D01*
X76910525Y-64451040D01*
X76910525Y-64451042D01*
X76910526Y-64451043D01*
X76957805Y-64577804D01*
X77038884Y-64686115D01*
X77121846Y-64748218D01*
X77147195Y-64767194D01*
X77273960Y-64814475D01*
X77330000Y-64820500D01*
X77330010Y-64820500D01*
X78669990Y-64820500D01*
X78670000Y-64820500D01*
X78726040Y-64814475D01*
X78852805Y-64767194D01*
X78961115Y-64686115D01*
X79042194Y-64577805D01*
X79089475Y-64451040D01*
X79095500Y-64395000D01*
X79095500Y-63605000D01*
X79089475Y-63548960D01*
X79042194Y-63422195D01*
X79037427Y-63415827D01*
X78961115Y-63313884D01*
X78852804Y-63232805D01*
X78726043Y-63185526D01*
X78726042Y-63185525D01*
X78726040Y-63185525D01*
X78670000Y-63179500D01*
X78669991Y-63179500D01*
X77684117Y-63179500D01*
X77617078Y-63159815D01*
X77596436Y-63143181D01*
X75890019Y-61436764D01*
X75856534Y-61375441D01*
X75853700Y-61349083D01*
X75853700Y-51420827D01*
X75873385Y-51353788D01*
X75926189Y-51308033D01*
X75995347Y-51298089D01*
X76009802Y-51301054D01*
X76010707Y-51301295D01*
X76010722Y-51301302D01*
X76146600Y-51319191D01*
X76149361Y-51318827D01*
X76151694Y-51319191D01*
X76154728Y-51319191D01*
X76154728Y-51319664D01*
X76218395Y-51329591D01*
X76253230Y-51354085D01*
X77671318Y-52772173D01*
X77704803Y-52833496D01*
X77699819Y-52903188D01*
X77657947Y-52959121D01*
X77615736Y-52979627D01*
X77610624Y-52980996D01*
X77484005Y-53033443D01*
X77375275Y-53116875D01*
X77291843Y-53225605D01*
X77239399Y-53352218D01*
X77239398Y-53352222D01*
X77228580Y-53434395D01*
X77221509Y-53488100D01*
X77230707Y-53557968D01*
X77239398Y-53623977D01*
X77239399Y-53623981D01*
X77291843Y-53750594D01*
X77291844Y-53750596D01*
X77375275Y-53859326D01*
X77377484Y-53861021D01*
X77378875Y-53862926D01*
X77381022Y-53865073D01*
X77380687Y-53865407D01*
X77418688Y-53917448D01*
X77426000Y-53959398D01*
X77426000Y-54160695D01*
X77447841Y-54242209D01*
X77490036Y-54315292D01*
X77490038Y-54315294D01*
X77556773Y-54382029D01*
X77556779Y-54382034D01*
X79867314Y-56692570D01*
X79900799Y-56753893D01*
X79902573Y-56796428D01*
X79902209Y-56799194D01*
X79902209Y-56799200D01*
X79920098Y-56935077D01*
X79920099Y-56935081D01*
X79972542Y-57061693D01*
X79972543Y-57061695D01*
X79972544Y-57061696D01*
X80055975Y-57170425D01*
X80164704Y-57253856D01*
X80291322Y-57306302D01*
X80411391Y-57322109D01*
X80427199Y-57324191D01*
X80427200Y-57324191D01*
X80427201Y-57324191D01*
X80446696Y-57321624D01*
X80563078Y-57306302D01*
X80563080Y-57306300D01*
X80568214Y-57305625D01*
X80637249Y-57316390D01*
X80689505Y-57362770D01*
X80708400Y-57428564D01*
X80708400Y-58280653D01*
X80688715Y-58347692D01*
X80635911Y-58393447D01*
X80631853Y-58395214D01*
X80517103Y-58442744D01*
X80408375Y-58526175D01*
X80324943Y-58634905D01*
X80272499Y-58761518D01*
X80272498Y-58761522D01*
X80254609Y-58897399D01*
X80254609Y-58897400D01*
X80272498Y-59033277D01*
X80272499Y-59033281D01*
X80324942Y-59159893D01*
X80324943Y-59159895D01*
X80324944Y-59159896D01*
X80408375Y-59268625D01*
X80517104Y-59352056D01*
X80643722Y-59404502D01*
X80763791Y-59420309D01*
X80779599Y-59422391D01*
X80779600Y-59422391D01*
X80779601Y-59422391D01*
X80793761Y-59420526D01*
X80915478Y-59404502D01*
X81042096Y-59352056D01*
X81150825Y-59268625D01*
X81234256Y-59159896D01*
X81286702Y-59033278D01*
X81304591Y-58897400D01*
X81300885Y-58869255D01*
X81311649Y-58800223D01*
X81316423Y-58791096D01*
X81327559Y-58771809D01*
X81349400Y-58690295D01*
X81349400Y-58605906D01*
X81349400Y-55634305D01*
X81327559Y-55552791D01*
X81285364Y-55479708D01*
X81225692Y-55420036D01*
X81221361Y-55415705D01*
X81221350Y-55415695D01*
X76706485Y-50900830D01*
X76673000Y-50839507D01*
X76671227Y-50796963D01*
X76671591Y-50794200D01*
X76653702Y-50658322D01*
X76601256Y-50531705D01*
X76559894Y-50477801D01*
X76517826Y-50422976D01*
X76409093Y-50339542D01*
X76282481Y-50287099D01*
X76282479Y-50287098D01*
X76282478Y-50287098D01*
X76214539Y-50278153D01*
X76146601Y-50269209D01*
X76146599Y-50269209D01*
X76010720Y-50287098D01*
X76009789Y-50287348D01*
X76008972Y-50287328D01*
X76002665Y-50288159D01*
X76002535Y-50287175D01*
X75939940Y-50285683D01*
X75882078Y-50246518D01*
X75854576Y-50182289D01*
X75853700Y-50167572D01*
X75853700Y-27518109D01*
X75873385Y-27451070D01*
X75902211Y-27419735D01*
X75983025Y-27357725D01*
X76066456Y-27248996D01*
X76118902Y-27122378D01*
X76136791Y-26986500D01*
X76118902Y-26850622D01*
X76066456Y-26724005D01*
X75983025Y-26615275D01*
X75874296Y-26531844D01*
X75874295Y-26531843D01*
X75874293Y-26531842D01*
X75747681Y-26479399D01*
X75747679Y-26479398D01*
X75747678Y-26479398D01*
X75679739Y-26470453D01*
X75611801Y-26461509D01*
X75611799Y-26461509D01*
X75475922Y-26479398D01*
X75475918Y-26479399D01*
X75349305Y-26531843D01*
X75240575Y-26615275D01*
X75157143Y-26724005D01*
X75104699Y-26850618D01*
X75104698Y-26850622D01*
X75086809Y-26986499D01*
X14556700Y-26986499D01*
X14556700Y-24313998D01*
X14576385Y-24246959D01*
X14605216Y-24215621D01*
X14607424Y-24213926D01*
X14607425Y-24213925D01*
X14690856Y-24105196D01*
X14743302Y-23978578D01*
X14761191Y-23842700D01*
X14743302Y-23706822D01*
X14690856Y-23580205D01*
X14607425Y-23471475D01*
X14498696Y-23388044D01*
X14498695Y-23388043D01*
X14498693Y-23388042D01*
X14372081Y-23335599D01*
X14372079Y-23335598D01*
X14372078Y-23335598D01*
X14304139Y-23326653D01*
X14236201Y-23317709D01*
X14236198Y-23317709D01*
X14120613Y-23332926D01*
X14051578Y-23322160D01*
X13999322Y-23275780D01*
X13980437Y-23208511D01*
X14000918Y-23141711D01*
X14016740Y-23122313D01*
X15650170Y-21488883D01*
X15711491Y-21455400D01*
X15754035Y-21453627D01*
X15756800Y-21453991D01*
X15892678Y-21436102D01*
X16019296Y-21383656D01*
X16128025Y-21300225D01*
X16211456Y-21191496D01*
X16263902Y-21064878D01*
X16281791Y-20929000D01*
X16263902Y-20793122D01*
X16211456Y-20666505D01*
X16128025Y-20557775D01*
X16019296Y-20474344D01*
X16019295Y-20474343D01*
X16019293Y-20474342D01*
X15892681Y-20421899D01*
X15892679Y-20421898D01*
X15892678Y-20421898D01*
X15824739Y-20412953D01*
X15756801Y-20404009D01*
X15756799Y-20404009D01*
X15620922Y-20421898D01*
X15620918Y-20421899D01*
X15494305Y-20474343D01*
X15385575Y-20557775D01*
X15302143Y-20666505D01*
X15249699Y-20793118D01*
X15249698Y-20793122D01*
X15231809Y-20928999D01*
X15231809Y-20929003D01*
X15232173Y-20931770D01*
X15231809Y-20934103D01*
X15231809Y-20937127D01*
X15231337Y-20937127D01*
X15221403Y-21000804D01*
X15196914Y-21035629D01*
X11607510Y-24625034D01*
X11547838Y-24684705D01*
X11547836Y-24684708D01*
X11505641Y-24757790D01*
X11483800Y-24839303D01*
X11483800Y-50227782D01*
X11464115Y-50294821D01*
X11447481Y-50315463D01*
X9274270Y-52488674D01*
X9212947Y-52522159D01*
X9143255Y-52517175D01*
X9087322Y-52475303D01*
X9063186Y-52413147D01*
X9055011Y-52330146D01*
X8993797Y-52128350D01*
X8894399Y-51942389D01*
X8894394Y-51942382D01*
X8848371Y-51886303D01*
X8821058Y-51821993D01*
X8832849Y-51753125D01*
X8880001Y-51701565D01*
X8912130Y-51687864D01*
X8915509Y-51686959D01*
X8988592Y-51644764D01*
X9048264Y-51585092D01*
X9048264Y-51585090D01*
X9058465Y-51574890D01*
X9058468Y-51574885D01*
X9408164Y-51225192D01*
X9450359Y-51152109D01*
X9472200Y-51070595D01*
X9472200Y-50986206D01*
X9472200Y-25009816D01*
X9491885Y-24942777D01*
X9508514Y-24922140D01*
X16629870Y-17800783D01*
X16691191Y-17767300D01*
X16733735Y-17765527D01*
X16736500Y-17765891D01*
X16872378Y-17748002D01*
X16998996Y-17695556D01*
X17107725Y-17612125D01*
X17191156Y-17503396D01*
X17243602Y-17376778D01*
X17261491Y-17240900D01*
X17243602Y-17105022D01*
X17191156Y-16978405D01*
X17107725Y-16869675D01*
X16998996Y-16786244D01*
X16998995Y-16786243D01*
X16998993Y-16786242D01*
X16872381Y-16733799D01*
X16872379Y-16733798D01*
X16872378Y-16733798D01*
X16804439Y-16724853D01*
X16736501Y-16715909D01*
X16736499Y-16715909D01*
X16600622Y-16733798D01*
X16600618Y-16733799D01*
X16474005Y-16786243D01*
X16365275Y-16869675D01*
X16281843Y-16978405D01*
X16229399Y-17105018D01*
X16229398Y-17105022D01*
X16211509Y-17240899D01*
X16211509Y-17240903D01*
X16211873Y-17243670D01*
X16211509Y-17246003D01*
X16211509Y-17249027D01*
X16211037Y-17249027D01*
X16201103Y-17312704D01*
X16176614Y-17347529D01*
X8954910Y-24569234D01*
X8895238Y-24628905D01*
X8895236Y-24628908D01*
X8853041Y-24701990D01*
X8831200Y-24783503D01*
X8831200Y-48805500D01*
X8811515Y-48872539D01*
X8758711Y-48918294D01*
X8707200Y-48929500D01*
X7128282Y-48929500D01*
X7063964Y-48942293D01*
X7063961Y-48942294D01*
X6991028Y-48991027D01*
X6942292Y-49063966D01*
X6942291Y-49063967D01*
X6929500Y-49128276D01*
X6929500Y-50871717D01*
X6942293Y-50936035D01*
X6942294Y-50936038D01*
X6975816Y-50986206D01*
X6991028Y-51008972D01*
X7063965Y-51057707D01*
X7063966Y-51057707D01*
X7063967Y-51057708D01*
X7102483Y-51065368D01*
X7128281Y-51070500D01*
X7598626Y-51070499D01*
X7665664Y-51090183D01*
X7711419Y-51142987D01*
X7721363Y-51212146D01*
X7706013Y-51256497D01*
X7701343Y-51264585D01*
X7701341Y-51264589D01*
X7679500Y-51346103D01*
X7679500Y-51426587D01*
X7659815Y-51493626D01*
X7607011Y-51539381D01*
X7591507Y-51545244D01*
X7588354Y-51546200D01*
X7402389Y-51645600D01*
X7402383Y-51645605D01*
X7239378Y-51779378D01*
X7105605Y-51942383D01*
X7105600Y-51942389D01*
X7006202Y-52128350D01*
X6944988Y-52330146D01*
X6924320Y-52540000D01*
X1200000Y-52540000D01*
X1200000Y-12124000D01*
X1219685Y-12056961D01*
X1272489Y-12011206D01*
X1324000Y-12000000D01*
X93676000Y-12000000D01*
X93743039Y-12019685D01*
G37*
%TD.AperFunction*%
%TD*%
M02*
