%TF.GenerationSoftware,KiCad,Pcbnew,7.0.11+dfsg-1build4*%
%TF.CreationDate,2026-07-18T16:48:01+00:00*%
%TF.ProjectId,smart-glove,736d6172-742d-4676-9c6f-76652e6b6963,rev?*%
%TF.SameCoordinates,Original*%
%TF.FileFunction,Copper,L2,Bot*%
%TF.FilePolarity,Positive*%
%FSLAX46Y46*%
G04 Gerber Fmt 4.6, Leading zero omitted, Abs format (unit mm)*
G04 Created by KiCad (PCBNEW 7.0.11+dfsg-1build4) date 2026-07-18 16:48:01*
%MOMM*%
%LPD*%
G01*
G04 APERTURE LIST*
G04 Aperture macros list*
%AMRoundRect*
0 Rectangle with rounded corners*
0 $1 Rounding radius*
0 $2 $3 $4 $5 $6 $7 $8 $9 X,Y pos of 4 corners*
0 Add a 4 corners polygon primitive as box body*
4,1,4,$2,$3,$4,$5,$6,$7,$8,$9,$2,$3,0*
0 Add four circle primitives for the rounded corners*
1,1,$1+$1,$2,$3*
1,1,$1+$1,$4,$5*
1,1,$1+$1,$6,$7*
1,1,$1+$1,$8,$9*
0 Add four rect primitives between the rounded corners*
20,1,$1+$1,$2,$3,$4,$5,0*
20,1,$1+$1,$4,$5,$6,$7,0*
20,1,$1+$1,$6,$7,$8,$9,0*
20,1,$1+$1,$8,$9,$2,$3,0*%
G04 Aperture macros list end*
%TA.AperFunction,ComponentPad*%
%ADD10RoundRect,0.250000X0.625000X-0.350000X0.625000X0.350000X-0.625000X0.350000X-0.625000X-0.350000X0*%
%TD*%
%TA.AperFunction,ComponentPad*%
%ADD11O,1.750000X1.200000*%
%TD*%
%TA.AperFunction,ComponentPad*%
%ADD12O,1.000000X2.100000*%
%TD*%
%TA.AperFunction,ComponentPad*%
%ADD13O,1.000000X1.600000*%
%TD*%
%TA.AperFunction,ComponentPad*%
%ADD14R,1.700000X1.700000*%
%TD*%
%TA.AperFunction,ComponentPad*%
%ADD15O,1.700000X1.700000*%
%TD*%
%TA.AperFunction,HeatsinkPad*%
%ADD16C,0.600000*%
%TD*%
%TA.AperFunction,ViaPad*%
%ADD17C,0.600000*%
%TD*%
%TA.AperFunction,Conductor*%
%ADD18C,0.550000*%
%TD*%
%TA.AperFunction,Conductor*%
%ADD19C,0.250000*%
%TD*%
G04 APERTURE END LIST*
D10*
%TO.P,J3,1*%
%TO.N,+BAT*%
X43000000Y-36500000D03*
D11*
%TO.P,J3,2*%
%TO.N,GND*%
X43000000Y-34500000D03*
%TD*%
D12*
%TO.P,J1,S1*%
%TO.N,GND*%
X20680000Y-36070000D03*
D13*
X20680000Y-40250000D03*
D12*
X29320000Y-36070000D03*
D13*
X29320000Y-40250000D03*
%TD*%
D14*
%TO.P,J2,1*%
%TO.N,3V3*%
X3000000Y-16000000D03*
D15*
%TO.P,J2,2*%
%TO.N,FLEX1*%
X3000000Y-18540000D03*
%TO.P,J2,3*%
%TO.N,FLEX2*%
X3000000Y-21080000D03*
%TO.P,J2,4*%
%TO.N,FLEX3*%
X3000000Y-23620000D03*
%TO.P,J2,5*%
%TO.N,FLEX4*%
X3000000Y-26160000D03*
%TO.P,J2,6*%
%TO.N,GND*%
X3000000Y-28700000D03*
%TD*%
D16*
%TO.P,U1,39*%
%TO.N,GND*%
X22795000Y-16827500D03*
X22795000Y-18352500D03*
X23557500Y-16065000D03*
X23557500Y-17590000D03*
X23557500Y-19115000D03*
X24320000Y-16827500D03*
X24320000Y-18352500D03*
X25082500Y-16065000D03*
X25082500Y-17590000D03*
X25082500Y-19115000D03*
X25845000Y-16827500D03*
X25845000Y-18352500D03*
%TD*%
D17*
%TO.N,GND*%
X8000000Y-28000000D03*
X20000000Y-28000000D03*
X45000000Y-6000000D03*
X28000000Y-30000000D03*
X20000000Y-6000000D03*
X30000000Y-34000000D03*
X8000000Y-6000000D03*
X12000000Y-20000000D03*
X30000000Y-6000000D03*
X45000000Y-28000000D03*
%TO.N,3V3*%
X31000000Y-18500000D03*
%TO.N,FLEX1*%
X16000000Y-11000000D03*
%TO.N,FLEX2*%
X16000000Y-13500000D03*
%TO.N,FLEX3*%
X16000000Y-16000000D03*
%TO.N,FLEX4*%
X16000000Y-18500000D03*
%TO.N,SCL*%
X34000000Y-24000000D03*
X39500000Y-24000000D03*
%TD*%
D18*
%TO.N,GND*%
X1000000Y-12200000D02*
X49000000Y-12200000D01*
X1000000Y-5000000D02*
X49000000Y-5000000D01*
X1000000Y-6600000D02*
X49000000Y-6600000D01*
X1000000Y-40999999D02*
X49000000Y-40999999D01*
X1000000Y-1000000D02*
X49000000Y-1000000D01*
X1000000Y-17000000D02*
X49000000Y-17000000D01*
X1000000Y-19400000D02*
X49000000Y-19400000D01*
X1000000Y-21800000D02*
X49000000Y-21800000D01*
X1000000Y-29000000D02*
X49000000Y-29000000D01*
X1000000Y-1800000D02*
X49000000Y-1800000D01*
X1000000Y-35400000D02*
X49000000Y-35400000D01*
X1000000Y-25000000D02*
X49000000Y-25000000D01*
X1000000Y-21000000D02*
X49000000Y-21000000D01*
X1000000Y-4200000D02*
X49000000Y-4200000D01*
X1000000Y-2600000D02*
X49000000Y-2600000D01*
X1000000Y-24200000D02*
X49000000Y-24200000D01*
X1000000Y-27400000D02*
X49000000Y-27400000D01*
X1000000Y-30600000D02*
X49000000Y-30600000D01*
X1000000Y-23400000D02*
X49000000Y-23400000D01*
X1000000Y-9000000D02*
X49000000Y-9000000D01*
X1000000Y-3400000D02*
X49000000Y-3400000D01*
X1000000Y-13000000D02*
X49000000Y-13000000D01*
X1000000Y-14600000D02*
X49000000Y-14600000D01*
X1000000Y-33800000D02*
X49000000Y-33800000D01*
X1000000Y-7399999D02*
X49000000Y-7399999D01*
X1000000Y-33000000D02*
X49000000Y-33000000D01*
X1000000Y-9800000D02*
X49000000Y-9800000D01*
X1000000Y-39399999D02*
X49000000Y-39399999D01*
X1000000Y-11400000D02*
X49000000Y-11400000D01*
X1000000Y-37800000D02*
X49000000Y-37800000D01*
X1000000Y-29800000D02*
X49000000Y-29800000D01*
X1000000Y-10600000D02*
X49000000Y-10600000D01*
X1000000Y-37000000D02*
X49000000Y-37000000D01*
X1000000Y-5800000D02*
X49000000Y-5800000D01*
X1000000Y-17800000D02*
X49000000Y-17800000D01*
X1000000Y-38599999D02*
X49000000Y-38599999D01*
X1000000Y-28200000D02*
X49000000Y-28200000D01*
X1000000Y-26600000D02*
X49000000Y-26600000D01*
X1000000Y-22600000D02*
X49000000Y-22600000D01*
X1000000Y-20200000D02*
X49000000Y-20200000D01*
X1000000Y-18600000D02*
X49000000Y-18600000D01*
X1000000Y-31400000D02*
X49000000Y-31400000D01*
X1000000Y-36200000D02*
X49000000Y-36200000D01*
X1000000Y-40199999D02*
X49000000Y-40199999D01*
X1000000Y-15400000D02*
X49000000Y-15400000D01*
X1000000Y-32200000D02*
X49000000Y-32200000D01*
X1000000Y-16200000D02*
X49000000Y-16200000D01*
X1000000Y-25800000D02*
X49000000Y-25800000D01*
X1000000Y-34600000D02*
X49000000Y-34600000D01*
X1000000Y-13800000D02*
X49000000Y-13800000D01*
X1000000Y-8199999D02*
X49000000Y-8199999D01*
D19*
%TO.N,SCL*%
X34000000Y-24000000D02*
X39500000Y-24000000D01*
%TD*%
M02*
