%TF.GenerationSoftware,KiCad,Pcbnew,8.0.9-8.0.9-0~ubuntu24.04.1*%
%TF.CreationDate,2026-07-18T20:06:58+00:00*%
%TF.ProjectId,smart-glove,736d6172-742d-4676-9c6f-76652e6b6963,rev?*%
%TF.SameCoordinates,Original*%
%TF.FileFunction,Paste,Top*%
%TF.FilePolarity,Positive*%
%FSLAX46Y46*%
G04 Gerber Fmt 4.6, Leading zero omitted, Abs format (unit mm)*
G04 Created by KiCad (PCBNEW 8.0.9-8.0.9-0~ubuntu24.04.1) date 2026-07-18 20:06:58*
%MOMM*%
%LPD*%
G01*
G04 APERTURE LIST*
G04 Aperture macros list*
%AMRoundRect*
0 Rectangle with rounded corners*
0 $1 Rounding radius*
0 $2 $3 $4 $5 $6 $7 $8 $9 X,Y pos of 4 corners*
0 Add a 4 corners polygon primitive as box body*
4,1,4,$2,$3,$4,$5,$6,$7,$8,$9,$2,$3,0*
0 Add four circle primitives for the rounded corners*
1,1,$1+$1,$2,$3*
1,1,$1+$1,$4,$5*
1,1,$1+$1,$6,$7*
1,1,$1+$1,$8,$9*
0 Add four rect primitives between the rounded corners*
20,1,$1+$1,$2,$3,$4,$5,0*
20,1,$1+$1,$4,$5,$6,$7,0*
20,1,$1+$1,$6,$7,$8,$9,0*
20,1,$1+$1,$8,$9,$2,$3,0*%
G04 Aperture macros list end*
%ADD10RoundRect,0.218750X-0.218750X-0.256250X0.218750X-0.256250X0.218750X0.256250X-0.218750X0.256250X0*%
%ADD11RoundRect,0.225000X-0.225000X-0.250000X0.225000X-0.250000X0.225000X0.250000X-0.225000X0.250000X0*%
%ADD12R,1.500000X0.900000*%
%ADD13R,0.900000X1.500000*%
%ADD14R,1.050000X1.050000*%
%ADD15RoundRect,0.200000X-0.200000X-0.275000X0.200000X-0.275000X0.200000X0.275000X-0.200000X0.275000X0*%
%ADD16R,0.600000X1.450000*%
%ADD17R,0.300000X1.450000*%
%ADD18RoundRect,0.250000X-0.250000X-0.475000X0.250000X-0.475000X0.250000X0.475000X-0.250000X0.475000X0*%
%ADD19RoundRect,0.375000X-0.375000X0.625000X-0.375000X-0.625000X0.375000X-0.625000X0.375000X0.625000X0*%
%ADD20RoundRect,0.500000X-1.400000X0.500000X-1.400000X-0.500000X1.400000X-0.500000X1.400000X0.500000X0*%
%ADD21R,0.900000X1.700000*%
%ADD22RoundRect,0.150000X-0.825000X-0.150000X0.825000X-0.150000X0.825000X0.150000X-0.825000X0.150000X0*%
%ADD23RoundRect,0.075000X-0.350000X-0.075000X0.350000X-0.075000X0.350000X0.075000X-0.350000X0.075000X0*%
%ADD24RoundRect,0.075000X0.075000X-0.350000X0.075000X0.350000X-0.075000X0.350000X-0.075000X-0.350000X0*%
G04 APERTURE END LIST*
D10*
%TO.C,D1*%
X17212500Y-52500000D03*
X18787500Y-52500000D03*
%TD*%
%TO.C,D3*%
X23212500Y-52500000D03*
X24787500Y-52500000D03*
%TD*%
D11*
%TO.C,C1*%
X51225000Y-54000000D03*
X52775000Y-54000000D03*
%TD*%
D12*
%TO.C,U1*%
X39250000Y-15750000D03*
X39250000Y-17020000D03*
X39250000Y-18290000D03*
X39250000Y-19560000D03*
X39250000Y-20830000D03*
X39250000Y-22100000D03*
X39250000Y-23370000D03*
X39250000Y-24640000D03*
X39250000Y-25910000D03*
X39250000Y-27180000D03*
X39250000Y-28450000D03*
X39250000Y-29720000D03*
X39250000Y-30990000D03*
X39250000Y-32260000D03*
D13*
X42290000Y-33510000D03*
X43560000Y-33510000D03*
X44830000Y-33510000D03*
X46100000Y-33510000D03*
X47370000Y-33510000D03*
X48640000Y-33510000D03*
X49910000Y-33510000D03*
X51180000Y-33510000D03*
X52450000Y-33510000D03*
X53720000Y-33510000D03*
D12*
X56750000Y-32260000D03*
X56750000Y-30990000D03*
X56750000Y-29720000D03*
X56750000Y-28450000D03*
X56750000Y-27180000D03*
X56750000Y-25910000D03*
X56750000Y-24640000D03*
X56750000Y-23370000D03*
X56750000Y-22100000D03*
X56750000Y-20830000D03*
X56750000Y-19560000D03*
X56750000Y-18290000D03*
X56750000Y-17020000D03*
X56750000Y-15750000D03*
D14*
X45795000Y-21565000D03*
X45795000Y-23090000D03*
X45795000Y-24615000D03*
X47320000Y-21565000D03*
X47320000Y-23090000D03*
X47320000Y-24615000D03*
X48845000Y-21565000D03*
X48845000Y-23090000D03*
X48845000Y-24615000D03*
%TD*%
D15*
%TO.C,R3*%
X15175000Y-24000000D03*
X16825000Y-24000000D03*
%TD*%
%TO.C,R1*%
X15175000Y-16000000D03*
X16825000Y-16000000D03*
%TD*%
D16*
%TO.C,J1*%
X44750000Y-61955000D03*
X45550000Y-61955000D03*
D17*
X46750000Y-61955000D03*
X47750000Y-61955000D03*
X48250000Y-61955000D03*
X49250000Y-61955000D03*
D16*
X50450000Y-61955000D03*
X51250000Y-61955000D03*
X51250000Y-61955000D03*
X50450000Y-61955000D03*
D17*
X49750000Y-61955000D03*
X48750000Y-61955000D03*
X47250000Y-61955000D03*
X46250000Y-61955000D03*
D16*
X45550000Y-61955000D03*
X44750000Y-61955000D03*
%TD*%
D11*
%TO.C,C9*%
X69225000Y-56000000D03*
X70775000Y-56000000D03*
%TD*%
D18*
%TO.C,C6*%
X69050000Y-30000000D03*
X70950000Y-30000000D03*
%TD*%
D11*
%TO.C,C2*%
X55225000Y-54000000D03*
X56775000Y-54000000D03*
%TD*%
%TO.C,C7*%
X69225000Y-34000000D03*
X70775000Y-34000000D03*
%TD*%
D19*
%TO.C,U3*%
X82300000Y-26850000D03*
X80000000Y-26850000D03*
X77700000Y-26850000D03*
D20*
X80000000Y-33150000D03*
%TD*%
D21*
%TO.C,SW2*%
X34300000Y-58000000D03*
X37700000Y-58000000D03*
%TD*%
D15*
%TO.C,R10*%
X23175000Y-58000000D03*
X24825000Y-58000000D03*
%TD*%
%TO.C,R6*%
X33175000Y-54000000D03*
X34825000Y-54000000D03*
%TD*%
%TO.C,R2*%
X15175000Y-20000000D03*
X16825000Y-20000000D03*
%TD*%
%TO.C,R7*%
X61175000Y-54000000D03*
X62825000Y-54000000D03*
%TD*%
%TO.C,R5*%
X17175000Y-54000000D03*
X18825000Y-54000000D03*
%TD*%
%TO.C,R8*%
X65175000Y-14000000D03*
X66825000Y-14000000D03*
%TD*%
D22*
%TO.C,U2*%
X77525000Y-16095000D03*
X77525000Y-17365000D03*
X77525000Y-18635000D03*
X77525000Y-19905000D03*
X82475000Y-19905000D03*
X82475000Y-18635000D03*
X82475000Y-17365000D03*
X82475000Y-16095000D03*
%TD*%
D21*
%TO.C,SW1*%
X28300000Y-58000000D03*
X31700000Y-58000000D03*
%TD*%
D10*
%TO.C,D2*%
X71212500Y-14000000D03*
X72787500Y-14000000D03*
%TD*%
D15*
%TO.C,R9*%
X17175000Y-58000000D03*
X18825000Y-58000000D03*
%TD*%
D18*
%TO.C,C5*%
X69050000Y-24000000D03*
X70950000Y-24000000D03*
%TD*%
D15*
%TO.C,R4*%
X15175000Y-28000000D03*
X16825000Y-28000000D03*
%TD*%
D23*
%TO.C,U4*%
X78050000Y-54750000D03*
X78050000Y-55250000D03*
X78050000Y-55750000D03*
X78050000Y-56250000D03*
X78050000Y-56750000D03*
X78050000Y-57250000D03*
D24*
X78750000Y-57950000D03*
X79250000Y-57950000D03*
X79750000Y-57950000D03*
X80250000Y-57950000D03*
X80750000Y-57950000D03*
X81250000Y-57950000D03*
D23*
X81950000Y-57250000D03*
X81950000Y-56750000D03*
X81950000Y-56250000D03*
X81950000Y-55750000D03*
X81950000Y-55250000D03*
X81950000Y-54750000D03*
D24*
X81250000Y-54050000D03*
X80750000Y-54050000D03*
X80250000Y-54050000D03*
X79750000Y-54050000D03*
X79250000Y-54050000D03*
X78750000Y-54050000D03*
%TD*%
M02*
