%TF.GenerationSoftware,KiCad,Pcbnew,8.0.9-8.0.9-0~ubuntu24.04.1*%
%TF.CreationDate,2026-07-18T23:15:57+00:00*%
%TF.ProjectId,smart-glove,736d6172-742d-4676-9c6f-76652e6b6963,rev?*%
%TF.SameCoordinates,Original*%
%TF.FileFunction,Legend,Top*%
%TF.FilePolarity,Positive*%
%FSLAX46Y46*%
G04 Gerber Fmt 4.6, Leading zero omitted, Abs format (unit mm)*
G04 Created by KiCad (PCBNEW 8.0.9-8.0.9-0~ubuntu24.04.1) date 2026-07-18 23:15:57*
%MOMM*%
%LPD*%
G01*
G04 APERTURE LIST*
%ADD10C,0.150000*%
%ADD11C,0.120000*%
G04 APERTURE END LIST*
D10*
X2673809Y-3344951D02*
X2795238Y-3385427D01*
X2795238Y-3385427D02*
X2997619Y-3385427D01*
X2997619Y-3385427D02*
X3078571Y-3344951D01*
X3078571Y-3344951D02*
X3119047Y-3304474D01*
X3119047Y-3304474D02*
X3159524Y-3223522D01*
X3159524Y-3223522D02*
X3159524Y-3142570D01*
X3159524Y-3142570D02*
X3119047Y-3061617D01*
X3119047Y-3061617D02*
X3078571Y-3021141D01*
X3078571Y-3021141D02*
X2997619Y-2980665D01*
X2997619Y-2980665D02*
X2835714Y-2940189D01*
X2835714Y-2940189D02*
X2754762Y-2899712D01*
X2754762Y-2899712D02*
X2714285Y-2859236D01*
X2714285Y-2859236D02*
X2673809Y-2778284D01*
X2673809Y-2778284D02*
X2673809Y-2697331D01*
X2673809Y-2697331D02*
X2714285Y-2616379D01*
X2714285Y-2616379D02*
X2754762Y-2575903D01*
X2754762Y-2575903D02*
X2835714Y-2535427D01*
X2835714Y-2535427D02*
X3038095Y-2535427D01*
X3038095Y-2535427D02*
X3159524Y-2575903D01*
X3523809Y-3385427D02*
X3523809Y-2818760D01*
X3523809Y-2535427D02*
X3483333Y-2575903D01*
X3483333Y-2575903D02*
X3523809Y-2616379D01*
X3523809Y-2616379D02*
X3564286Y-2575903D01*
X3564286Y-2575903D02*
X3523809Y-2535427D01*
X3523809Y-2535427D02*
X3523809Y-2616379D01*
X4292857Y-2818760D02*
X4292857Y-3506855D01*
X4292857Y-3506855D02*
X4252381Y-3587808D01*
X4252381Y-3587808D02*
X4211905Y-3628284D01*
X4211905Y-3628284D02*
X4130952Y-3668760D01*
X4130952Y-3668760D02*
X4009524Y-3668760D01*
X4009524Y-3668760D02*
X3928571Y-3628284D01*
X4292857Y-3344951D02*
X4211905Y-3385427D01*
X4211905Y-3385427D02*
X4050000Y-3385427D01*
X4050000Y-3385427D02*
X3969048Y-3344951D01*
X3969048Y-3344951D02*
X3928571Y-3304474D01*
X3928571Y-3304474D02*
X3888095Y-3223522D01*
X3888095Y-3223522D02*
X3888095Y-2980665D01*
X3888095Y-2980665D02*
X3928571Y-2899712D01*
X3928571Y-2899712D02*
X3969048Y-2859236D01*
X3969048Y-2859236D02*
X4050000Y-2818760D01*
X4050000Y-2818760D02*
X4211905Y-2818760D01*
X4211905Y-2818760D02*
X4292857Y-2859236D01*
X4697619Y-2818760D02*
X4697619Y-3385427D01*
X4697619Y-2899712D02*
X4738096Y-2859236D01*
X4738096Y-2859236D02*
X4819048Y-2818760D01*
X4819048Y-2818760D02*
X4940477Y-2818760D01*
X4940477Y-2818760D02*
X5021429Y-2859236D01*
X5021429Y-2859236D02*
X5061905Y-2940189D01*
X5061905Y-2940189D02*
X5061905Y-3385427D01*
X5426191Y-3344951D02*
X5547620Y-3385427D01*
X5547620Y-3385427D02*
X5750001Y-3385427D01*
X5750001Y-3385427D02*
X5830953Y-3344951D01*
X5830953Y-3344951D02*
X5871429Y-3304474D01*
X5871429Y-3304474D02*
X5911906Y-3223522D01*
X5911906Y-3223522D02*
X5911906Y-3142570D01*
X5911906Y-3142570D02*
X5871429Y-3061617D01*
X5871429Y-3061617D02*
X5830953Y-3021141D01*
X5830953Y-3021141D02*
X5750001Y-2980665D01*
X5750001Y-2980665D02*
X5588096Y-2940189D01*
X5588096Y-2940189D02*
X5507144Y-2899712D01*
X5507144Y-2899712D02*
X5466667Y-2859236D01*
X5466667Y-2859236D02*
X5426191Y-2778284D01*
X5426191Y-2778284D02*
X5426191Y-2697331D01*
X5426191Y-2697331D02*
X5466667Y-2616379D01*
X5466667Y-2616379D02*
X5507144Y-2575903D01*
X5507144Y-2575903D02*
X5588096Y-2535427D01*
X5588096Y-2535427D02*
X5790477Y-2535427D01*
X5790477Y-2535427D02*
X5911906Y-2575903D01*
X6276191Y-2818760D02*
X6276191Y-3668760D01*
X6276191Y-2859236D02*
X6357144Y-2818760D01*
X6357144Y-2818760D02*
X6519049Y-2818760D01*
X6519049Y-2818760D02*
X6600001Y-2859236D01*
X6600001Y-2859236D02*
X6640477Y-2899712D01*
X6640477Y-2899712D02*
X6680953Y-2980665D01*
X6680953Y-2980665D02*
X6680953Y-3223522D01*
X6680953Y-3223522D02*
X6640477Y-3304474D01*
X6640477Y-3304474D02*
X6600001Y-3344951D01*
X6600001Y-3344951D02*
X6519049Y-3385427D01*
X6519049Y-3385427D02*
X6357144Y-3385427D01*
X6357144Y-3385427D02*
X6276191Y-3344951D01*
X7369049Y-3344951D02*
X7288097Y-3385427D01*
X7288097Y-3385427D02*
X7126192Y-3385427D01*
X7126192Y-3385427D02*
X7045239Y-3344951D01*
X7045239Y-3344951D02*
X7004763Y-3263998D01*
X7004763Y-3263998D02*
X7004763Y-2940189D01*
X7004763Y-2940189D02*
X7045239Y-2859236D01*
X7045239Y-2859236D02*
X7126192Y-2818760D01*
X7126192Y-2818760D02*
X7288097Y-2818760D01*
X7288097Y-2818760D02*
X7369049Y-2859236D01*
X7369049Y-2859236D02*
X7409525Y-2940189D01*
X7409525Y-2940189D02*
X7409525Y-3021141D01*
X7409525Y-3021141D02*
X7004763Y-3102093D01*
X8138096Y-3385427D02*
X8138096Y-2940189D01*
X8138096Y-2940189D02*
X8097620Y-2859236D01*
X8097620Y-2859236D02*
X8016668Y-2818760D01*
X8016668Y-2818760D02*
X7854763Y-2818760D01*
X7854763Y-2818760D02*
X7773810Y-2859236D01*
X8138096Y-3344951D02*
X8057144Y-3385427D01*
X8057144Y-3385427D02*
X7854763Y-3385427D01*
X7854763Y-3385427D02*
X7773810Y-3344951D01*
X7773810Y-3344951D02*
X7733334Y-3263998D01*
X7733334Y-3263998D02*
X7733334Y-3183046D01*
X7733334Y-3183046D02*
X7773810Y-3102093D01*
X7773810Y-3102093D02*
X7854763Y-3061617D01*
X7854763Y-3061617D02*
X8057144Y-3061617D01*
X8057144Y-3061617D02*
X8138096Y-3021141D01*
X8542858Y-3385427D02*
X8542858Y-2535427D01*
X8623811Y-3061617D02*
X8866668Y-3385427D01*
X8866668Y-2818760D02*
X8542858Y-3142570D01*
X9838096Y-3344951D02*
X9959525Y-3385427D01*
X9959525Y-3385427D02*
X10161906Y-3385427D01*
X10161906Y-3385427D02*
X10242858Y-3344951D01*
X10242858Y-3344951D02*
X10283334Y-3304474D01*
X10283334Y-3304474D02*
X10323811Y-3223522D01*
X10323811Y-3223522D02*
X10323811Y-3142570D01*
X10323811Y-3142570D02*
X10283334Y-3061617D01*
X10283334Y-3061617D02*
X10242858Y-3021141D01*
X10242858Y-3021141D02*
X10161906Y-2980665D01*
X10161906Y-2980665D02*
X10000001Y-2940189D01*
X10000001Y-2940189D02*
X9919049Y-2899712D01*
X9919049Y-2899712D02*
X9878572Y-2859236D01*
X9878572Y-2859236D02*
X9838096Y-2778284D01*
X9838096Y-2778284D02*
X9838096Y-2697331D01*
X9838096Y-2697331D02*
X9878572Y-2616379D01*
X9878572Y-2616379D02*
X9919049Y-2575903D01*
X9919049Y-2575903D02*
X10000001Y-2535427D01*
X10000001Y-2535427D02*
X10202382Y-2535427D01*
X10202382Y-2535427D02*
X10323811Y-2575903D01*
X10688096Y-3385427D02*
X10688096Y-2818760D01*
X10688096Y-2899712D02*
X10728573Y-2859236D01*
X10728573Y-2859236D02*
X10809525Y-2818760D01*
X10809525Y-2818760D02*
X10930954Y-2818760D01*
X10930954Y-2818760D02*
X11011906Y-2859236D01*
X11011906Y-2859236D02*
X11052382Y-2940189D01*
X11052382Y-2940189D02*
X11052382Y-3385427D01*
X11052382Y-2940189D02*
X11092858Y-2859236D01*
X11092858Y-2859236D02*
X11173811Y-2818760D01*
X11173811Y-2818760D02*
X11295239Y-2818760D01*
X11295239Y-2818760D02*
X11376192Y-2859236D01*
X11376192Y-2859236D02*
X11416668Y-2940189D01*
X11416668Y-2940189D02*
X11416668Y-3385427D01*
X12185715Y-3385427D02*
X12185715Y-2940189D01*
X12185715Y-2940189D02*
X12145239Y-2859236D01*
X12145239Y-2859236D02*
X12064287Y-2818760D01*
X12064287Y-2818760D02*
X11902382Y-2818760D01*
X11902382Y-2818760D02*
X11821429Y-2859236D01*
X12185715Y-3344951D02*
X12104763Y-3385427D01*
X12104763Y-3385427D02*
X11902382Y-3385427D01*
X11902382Y-3385427D02*
X11821429Y-3344951D01*
X11821429Y-3344951D02*
X11780953Y-3263998D01*
X11780953Y-3263998D02*
X11780953Y-3183046D01*
X11780953Y-3183046D02*
X11821429Y-3102093D01*
X11821429Y-3102093D02*
X11902382Y-3061617D01*
X11902382Y-3061617D02*
X12104763Y-3061617D01*
X12104763Y-3061617D02*
X12185715Y-3021141D01*
X12590477Y-3385427D02*
X12590477Y-2818760D01*
X12590477Y-2980665D02*
X12630954Y-2899712D01*
X12630954Y-2899712D02*
X12671430Y-2859236D01*
X12671430Y-2859236D02*
X12752382Y-2818760D01*
X12752382Y-2818760D02*
X12833335Y-2818760D01*
X12995239Y-2818760D02*
X13319048Y-2818760D01*
X13116667Y-2535427D02*
X13116667Y-3263998D01*
X13116667Y-3263998D02*
X13157144Y-3344951D01*
X13157144Y-3344951D02*
X13238096Y-3385427D01*
X13238096Y-3385427D02*
X13319048Y-3385427D01*
X14695239Y-2575903D02*
X14614286Y-2535427D01*
X14614286Y-2535427D02*
X14492858Y-2535427D01*
X14492858Y-2535427D02*
X14371429Y-2575903D01*
X14371429Y-2575903D02*
X14290477Y-2656855D01*
X14290477Y-2656855D02*
X14250000Y-2737808D01*
X14250000Y-2737808D02*
X14209524Y-2899712D01*
X14209524Y-2899712D02*
X14209524Y-3021141D01*
X14209524Y-3021141D02*
X14250000Y-3183046D01*
X14250000Y-3183046D02*
X14290477Y-3263998D01*
X14290477Y-3263998D02*
X14371429Y-3344951D01*
X14371429Y-3344951D02*
X14492858Y-3385427D01*
X14492858Y-3385427D02*
X14573810Y-3385427D01*
X14573810Y-3385427D02*
X14695239Y-3344951D01*
X14695239Y-3344951D02*
X14735715Y-3304474D01*
X14735715Y-3304474D02*
X14735715Y-3021141D01*
X14735715Y-3021141D02*
X14573810Y-3021141D01*
X15221429Y-3385427D02*
X15140477Y-3344951D01*
X15140477Y-3344951D02*
X15100000Y-3263998D01*
X15100000Y-3263998D02*
X15100000Y-2535427D01*
X15666667Y-3385427D02*
X15585715Y-3344951D01*
X15585715Y-3344951D02*
X15545238Y-3304474D01*
X15545238Y-3304474D02*
X15504762Y-3223522D01*
X15504762Y-3223522D02*
X15504762Y-2980665D01*
X15504762Y-2980665D02*
X15545238Y-2899712D01*
X15545238Y-2899712D02*
X15585715Y-2859236D01*
X15585715Y-2859236D02*
X15666667Y-2818760D01*
X15666667Y-2818760D02*
X15788096Y-2818760D01*
X15788096Y-2818760D02*
X15869048Y-2859236D01*
X15869048Y-2859236D02*
X15909524Y-2899712D01*
X15909524Y-2899712D02*
X15950000Y-2980665D01*
X15950000Y-2980665D02*
X15950000Y-3223522D01*
X15950000Y-3223522D02*
X15909524Y-3304474D01*
X15909524Y-3304474D02*
X15869048Y-3344951D01*
X15869048Y-3344951D02*
X15788096Y-3385427D01*
X15788096Y-3385427D02*
X15666667Y-3385427D01*
X16233334Y-2818760D02*
X16435715Y-3385427D01*
X16435715Y-3385427D02*
X16638096Y-2818760D01*
X17285715Y-3344951D02*
X17204763Y-3385427D01*
X17204763Y-3385427D02*
X17042858Y-3385427D01*
X17042858Y-3385427D02*
X16961905Y-3344951D01*
X16961905Y-3344951D02*
X16921429Y-3263998D01*
X16921429Y-3263998D02*
X16921429Y-2940189D01*
X16921429Y-2940189D02*
X16961905Y-2859236D01*
X16961905Y-2859236D02*
X17042858Y-2818760D01*
X17042858Y-2818760D02*
X17204763Y-2818760D01*
X17204763Y-2818760D02*
X17285715Y-2859236D01*
X17285715Y-2859236D02*
X17326191Y-2940189D01*
X17326191Y-2940189D02*
X17326191Y-3021141D01*
X17326191Y-3021141D02*
X16921429Y-3102093D01*
X44579761Y-48142902D02*
X44579761Y-48669092D01*
X44579761Y-48669092D02*
X44610714Y-48730997D01*
X44610714Y-48730997D02*
X44641666Y-48761950D01*
X44641666Y-48761950D02*
X44703571Y-48792902D01*
X44703571Y-48792902D02*
X44827380Y-48792902D01*
X44827380Y-48792902D02*
X44889285Y-48761950D01*
X44889285Y-48761950D02*
X44920238Y-48730997D01*
X44920238Y-48730997D02*
X44951190Y-48669092D01*
X44951190Y-48669092D02*
X44951190Y-48142902D01*
X45229761Y-48761950D02*
X45322618Y-48792902D01*
X45322618Y-48792902D02*
X45477380Y-48792902D01*
X45477380Y-48792902D02*
X45539285Y-48761950D01*
X45539285Y-48761950D02*
X45570237Y-48730997D01*
X45570237Y-48730997D02*
X45601190Y-48669092D01*
X45601190Y-48669092D02*
X45601190Y-48607188D01*
X45601190Y-48607188D02*
X45570237Y-48545283D01*
X45570237Y-48545283D02*
X45539285Y-48514330D01*
X45539285Y-48514330D02*
X45477380Y-48483378D01*
X45477380Y-48483378D02*
X45353571Y-48452426D01*
X45353571Y-48452426D02*
X45291666Y-48421473D01*
X45291666Y-48421473D02*
X45260713Y-48390521D01*
X45260713Y-48390521D02*
X45229761Y-48328616D01*
X45229761Y-48328616D02*
X45229761Y-48266711D01*
X45229761Y-48266711D02*
X45260713Y-48204807D01*
X45260713Y-48204807D02*
X45291666Y-48173854D01*
X45291666Y-48173854D02*
X45353571Y-48142902D01*
X45353571Y-48142902D02*
X45508332Y-48142902D01*
X45508332Y-48142902D02*
X45601190Y-48173854D01*
X46096428Y-48452426D02*
X46189285Y-48483378D01*
X46189285Y-48483378D02*
X46220238Y-48514330D01*
X46220238Y-48514330D02*
X46251190Y-48576235D01*
X46251190Y-48576235D02*
X46251190Y-48669092D01*
X46251190Y-48669092D02*
X46220238Y-48730997D01*
X46220238Y-48730997D02*
X46189285Y-48761950D01*
X46189285Y-48761950D02*
X46127380Y-48792902D01*
X46127380Y-48792902D02*
X45879761Y-48792902D01*
X45879761Y-48792902D02*
X45879761Y-48142902D01*
X45879761Y-48142902D02*
X46096428Y-48142902D01*
X46096428Y-48142902D02*
X46158333Y-48173854D01*
X46158333Y-48173854D02*
X46189285Y-48204807D01*
X46189285Y-48204807D02*
X46220238Y-48266711D01*
X46220238Y-48266711D02*
X46220238Y-48328616D01*
X46220238Y-48328616D02*
X46189285Y-48390521D01*
X46189285Y-48390521D02*
X46158333Y-48421473D01*
X46158333Y-48421473D02*
X46096428Y-48452426D01*
X46096428Y-48452426D02*
X45879761Y-48452426D01*
X46529761Y-48545283D02*
X47025000Y-48545283D01*
X47705952Y-48730997D02*
X47675000Y-48761950D01*
X47675000Y-48761950D02*
X47582142Y-48792902D01*
X47582142Y-48792902D02*
X47520238Y-48792902D01*
X47520238Y-48792902D02*
X47427381Y-48761950D01*
X47427381Y-48761950D02*
X47365476Y-48700045D01*
X47365476Y-48700045D02*
X47334523Y-48638140D01*
X47334523Y-48638140D02*
X47303571Y-48514330D01*
X47303571Y-48514330D02*
X47303571Y-48421473D01*
X47303571Y-48421473D02*
X47334523Y-48297664D01*
X47334523Y-48297664D02*
X47365476Y-48235759D01*
X47365476Y-48235759D02*
X47427381Y-48173854D01*
X47427381Y-48173854D02*
X47520238Y-48142902D01*
X47520238Y-48142902D02*
X47582142Y-48142902D01*
X47582142Y-48142902D02*
X47675000Y-48173854D01*
X47675000Y-48173854D02*
X47705952Y-48204807D01*
X48448809Y-48761950D02*
X48541666Y-48792902D01*
X48541666Y-48792902D02*
X48696428Y-48792902D01*
X48696428Y-48792902D02*
X48758333Y-48761950D01*
X48758333Y-48761950D02*
X48789285Y-48730997D01*
X48789285Y-48730997D02*
X48820238Y-48669092D01*
X48820238Y-48669092D02*
X48820238Y-48607188D01*
X48820238Y-48607188D02*
X48789285Y-48545283D01*
X48789285Y-48545283D02*
X48758333Y-48514330D01*
X48758333Y-48514330D02*
X48696428Y-48483378D01*
X48696428Y-48483378D02*
X48572619Y-48452426D01*
X48572619Y-48452426D02*
X48510714Y-48421473D01*
X48510714Y-48421473D02*
X48479761Y-48390521D01*
X48479761Y-48390521D02*
X48448809Y-48328616D01*
X48448809Y-48328616D02*
X48448809Y-48266711D01*
X48448809Y-48266711D02*
X48479761Y-48204807D01*
X48479761Y-48204807D02*
X48510714Y-48173854D01*
X48510714Y-48173854D02*
X48572619Y-48142902D01*
X48572619Y-48142902D02*
X48727380Y-48142902D01*
X48727380Y-48142902D02*
X48820238Y-48173854D01*
X49098809Y-48452426D02*
X49315476Y-48452426D01*
X49408333Y-48792902D02*
X49098809Y-48792902D01*
X49098809Y-48792902D02*
X49098809Y-48142902D01*
X49098809Y-48142902D02*
X49408333Y-48142902D01*
X50058333Y-48792902D02*
X49841666Y-48483378D01*
X49686904Y-48792902D02*
X49686904Y-48142902D01*
X49686904Y-48142902D02*
X49934523Y-48142902D01*
X49934523Y-48142902D02*
X49996428Y-48173854D01*
X49996428Y-48173854D02*
X50027381Y-48204807D01*
X50027381Y-48204807D02*
X50058333Y-48266711D01*
X50058333Y-48266711D02*
X50058333Y-48359569D01*
X50058333Y-48359569D02*
X50027381Y-48421473D01*
X50027381Y-48421473D02*
X49996428Y-48452426D01*
X49996428Y-48452426D02*
X49934523Y-48483378D01*
X49934523Y-48483378D02*
X49686904Y-48483378D01*
X50336904Y-48792902D02*
X50336904Y-48142902D01*
X50615476Y-48607188D02*
X50925000Y-48607188D01*
X50553571Y-48792902D02*
X50770238Y-48142902D01*
X50770238Y-48142902D02*
X50986905Y-48792902D01*
X51513095Y-48792902D02*
X51203571Y-48792902D01*
X51203571Y-48792902D02*
X51203571Y-48142902D01*
X46071429Y-4124878D02*
X46428572Y-4124878D01*
X46000000Y-4339164D02*
X46250000Y-3589164D01*
X46250000Y-3589164D02*
X46500000Y-4339164D01*
X46750000Y-4339164D02*
X46750000Y-3589164D01*
X46750000Y-3589164D02*
X47178571Y-4339164D01*
X47178571Y-4339164D02*
X47178571Y-3589164D01*
X47428571Y-3589164D02*
X47857143Y-3589164D01*
X47642857Y-4339164D02*
X47642857Y-3589164D01*
X48678572Y-4339164D02*
X48678572Y-3589164D01*
X49107143Y-4339164D02*
X48785715Y-3910592D01*
X49107143Y-3589164D02*
X48678572Y-4017735D01*
X49428572Y-3946307D02*
X49678572Y-3946307D01*
X49785715Y-4339164D02*
X49428572Y-4339164D01*
X49428572Y-4339164D02*
X49428572Y-3589164D01*
X49428572Y-3589164D02*
X49785715Y-3589164D01*
X50107143Y-3946307D02*
X50357143Y-3946307D01*
X50464286Y-4339164D02*
X50107143Y-4339164D01*
X50107143Y-4339164D02*
X50107143Y-3589164D01*
X50107143Y-3589164D02*
X50464286Y-3589164D01*
X50785714Y-4339164D02*
X50785714Y-3589164D01*
X50785714Y-3589164D02*
X51071428Y-3589164D01*
X51071428Y-3589164D02*
X51142857Y-3624878D01*
X51142857Y-3624878D02*
X51178571Y-3660592D01*
X51178571Y-3660592D02*
X51214285Y-3732021D01*
X51214285Y-3732021D02*
X51214285Y-3839164D01*
X51214285Y-3839164D02*
X51178571Y-3910592D01*
X51178571Y-3910592D02*
X51142857Y-3946307D01*
X51142857Y-3946307D02*
X51071428Y-3982021D01*
X51071428Y-3982021D02*
X50785714Y-3982021D01*
X52250000Y-3589164D02*
X52392857Y-3589164D01*
X52392857Y-3589164D02*
X52464286Y-3624878D01*
X52464286Y-3624878D02*
X52535714Y-3696307D01*
X52535714Y-3696307D02*
X52571429Y-3839164D01*
X52571429Y-3839164D02*
X52571429Y-4089164D01*
X52571429Y-4089164D02*
X52535714Y-4232021D01*
X52535714Y-4232021D02*
X52464286Y-4303450D01*
X52464286Y-4303450D02*
X52392857Y-4339164D01*
X52392857Y-4339164D02*
X52250000Y-4339164D01*
X52250000Y-4339164D02*
X52178572Y-4303450D01*
X52178572Y-4303450D02*
X52107143Y-4232021D01*
X52107143Y-4232021D02*
X52071429Y-4089164D01*
X52071429Y-4089164D02*
X52071429Y-3839164D01*
X52071429Y-3839164D02*
X52107143Y-3696307D01*
X52107143Y-3696307D02*
X52178572Y-3624878D01*
X52178572Y-3624878D02*
X52250000Y-3589164D01*
X52892857Y-3589164D02*
X52892857Y-4196307D01*
X52892857Y-4196307D02*
X52928571Y-4267735D01*
X52928571Y-4267735D02*
X52964286Y-4303450D01*
X52964286Y-4303450D02*
X53035714Y-4339164D01*
X53035714Y-4339164D02*
X53178571Y-4339164D01*
X53178571Y-4339164D02*
X53250000Y-4303450D01*
X53250000Y-4303450D02*
X53285714Y-4267735D01*
X53285714Y-4267735D02*
X53321428Y-4196307D01*
X53321428Y-4196307D02*
X53321428Y-3589164D01*
X53571428Y-3589164D02*
X54000000Y-3589164D01*
X53785714Y-4339164D02*
X53785714Y-3589164D01*
X3607143Y-5339164D02*
X3607143Y-4589164D01*
X3607143Y-4589164D02*
X3857143Y-5124878D01*
X3857143Y-5124878D02*
X4107143Y-4589164D01*
X4107143Y-4589164D02*
X4107143Y-5339164D01*
X4785715Y-5339164D02*
X4785715Y-4946307D01*
X4785715Y-4946307D02*
X4750000Y-4874878D01*
X4750000Y-4874878D02*
X4678572Y-4839164D01*
X4678572Y-4839164D02*
X4535715Y-4839164D01*
X4535715Y-4839164D02*
X4464286Y-4874878D01*
X4785715Y-5303450D02*
X4714286Y-5339164D01*
X4714286Y-5339164D02*
X4535715Y-5339164D01*
X4535715Y-5339164D02*
X4464286Y-5303450D01*
X4464286Y-5303450D02*
X4428572Y-5232021D01*
X4428572Y-5232021D02*
X4428572Y-5160592D01*
X4428572Y-5160592D02*
X4464286Y-5089164D01*
X4464286Y-5089164D02*
X4535715Y-5053450D01*
X4535715Y-5053450D02*
X4714286Y-5053450D01*
X4714286Y-5053450D02*
X4785715Y-5017735D01*
X5142857Y-4839164D02*
X5142857Y-5339164D01*
X5142857Y-4910592D02*
X5178571Y-4874878D01*
X5178571Y-4874878D02*
X5250000Y-4839164D01*
X5250000Y-4839164D02*
X5357143Y-4839164D01*
X5357143Y-4839164D02*
X5428571Y-4874878D01*
X5428571Y-4874878D02*
X5464286Y-4946307D01*
X5464286Y-4946307D02*
X5464286Y-5339164D01*
X6321428Y-4589164D02*
X6500000Y-5339164D01*
X6500000Y-5339164D02*
X6642857Y-4803450D01*
X6642857Y-4803450D02*
X6785714Y-5339164D01*
X6785714Y-5339164D02*
X6964286Y-4589164D01*
X7250000Y-5339164D02*
X7250000Y-4589164D01*
X7571429Y-5339164D02*
X7571429Y-4946307D01*
X7571429Y-4946307D02*
X7535714Y-4874878D01*
X7535714Y-4874878D02*
X7464286Y-4839164D01*
X7464286Y-4839164D02*
X7357143Y-4839164D01*
X7357143Y-4839164D02*
X7285714Y-4874878D01*
X7285714Y-4874878D02*
X7250000Y-4910592D01*
X8035714Y-5339164D02*
X7964285Y-5303450D01*
X7964285Y-5303450D02*
X7928571Y-5267735D01*
X7928571Y-5267735D02*
X7892857Y-5196307D01*
X7892857Y-5196307D02*
X7892857Y-4982021D01*
X7892857Y-4982021D02*
X7928571Y-4910592D01*
X7928571Y-4910592D02*
X7964285Y-4874878D01*
X7964285Y-4874878D02*
X8035714Y-4839164D01*
X8035714Y-4839164D02*
X8142857Y-4839164D01*
X8142857Y-4839164D02*
X8214285Y-4874878D01*
X8214285Y-4874878D02*
X8250000Y-4910592D01*
X8250000Y-4910592D02*
X8285714Y-4982021D01*
X8285714Y-4982021D02*
X8285714Y-5196307D01*
X8285714Y-5196307D02*
X8250000Y-5267735D01*
X8250000Y-5267735D02*
X8214285Y-5303450D01*
X8214285Y-5303450D02*
X8142857Y-5339164D01*
X8142857Y-5339164D02*
X8035714Y-5339164D01*
X9178571Y-4946307D02*
X9428571Y-4946307D01*
X9535714Y-5339164D02*
X9178571Y-5339164D01*
X9178571Y-5339164D02*
X9178571Y-4589164D01*
X9178571Y-4589164D02*
X9535714Y-4589164D01*
X9857142Y-5339164D02*
X9857142Y-4839164D01*
X9857142Y-4910592D02*
X9892856Y-4874878D01*
X9892856Y-4874878D02*
X9964285Y-4839164D01*
X9964285Y-4839164D02*
X10071428Y-4839164D01*
X10071428Y-4839164D02*
X10142856Y-4874878D01*
X10142856Y-4874878D02*
X10178571Y-4946307D01*
X10178571Y-4946307D02*
X10178571Y-5339164D01*
X10178571Y-4946307D02*
X10214285Y-4874878D01*
X10214285Y-4874878D02*
X10285713Y-4839164D01*
X10285713Y-4839164D02*
X10392856Y-4839164D01*
X10392856Y-4839164D02*
X10464285Y-4874878D01*
X10464285Y-4874878D02*
X10499999Y-4946307D01*
X10499999Y-4946307D02*
X10499999Y-5339164D01*
X10857142Y-5339164D02*
X10857142Y-4589164D01*
X10857142Y-4874878D02*
X10928571Y-4839164D01*
X10928571Y-4839164D02*
X11071428Y-4839164D01*
X11071428Y-4839164D02*
X11142856Y-4874878D01*
X11142856Y-4874878D02*
X11178571Y-4910592D01*
X11178571Y-4910592D02*
X11214285Y-4982021D01*
X11214285Y-4982021D02*
X11214285Y-5196307D01*
X11214285Y-5196307D02*
X11178571Y-5267735D01*
X11178571Y-5267735D02*
X11142856Y-5303450D01*
X11142856Y-5303450D02*
X11071428Y-5339164D01*
X11071428Y-5339164D02*
X10928571Y-5339164D01*
X10928571Y-5339164D02*
X10857142Y-5303450D01*
X11821427Y-5303450D02*
X11749999Y-5339164D01*
X11749999Y-5339164D02*
X11607142Y-5339164D01*
X11607142Y-5339164D02*
X11535713Y-5303450D01*
X11535713Y-5303450D02*
X11499999Y-5232021D01*
X11499999Y-5232021D02*
X11499999Y-4946307D01*
X11499999Y-4946307D02*
X11535713Y-4874878D01*
X11535713Y-4874878D02*
X11607142Y-4839164D01*
X11607142Y-4839164D02*
X11749999Y-4839164D01*
X11749999Y-4839164D02*
X11821427Y-4874878D01*
X11821427Y-4874878D02*
X11857142Y-4946307D01*
X11857142Y-4946307D02*
X11857142Y-5017735D01*
X11857142Y-5017735D02*
X11499999Y-5089164D01*
X12499999Y-5339164D02*
X12499999Y-4589164D01*
X12499999Y-5303450D02*
X12428570Y-5339164D01*
X12428570Y-5339164D02*
X12285713Y-5339164D01*
X12285713Y-5339164D02*
X12214284Y-5303450D01*
X12214284Y-5303450D02*
X12178570Y-5267735D01*
X12178570Y-5267735D02*
X12142856Y-5196307D01*
X12142856Y-5196307D02*
X12142856Y-4982021D01*
X12142856Y-4982021D02*
X12178570Y-4910592D01*
X12178570Y-4910592D02*
X12214284Y-4874878D01*
X12214284Y-4874878D02*
X12285713Y-4839164D01*
X12285713Y-4839164D02*
X12428570Y-4839164D01*
X12428570Y-4839164D02*
X12499999Y-4874878D01*
X13857141Y-5339164D02*
X13607141Y-4982021D01*
X13428570Y-5339164D02*
X13428570Y-4589164D01*
X13428570Y-4589164D02*
X13714284Y-4589164D01*
X13714284Y-4589164D02*
X13785713Y-4624878D01*
X13785713Y-4624878D02*
X13821427Y-4660592D01*
X13821427Y-4660592D02*
X13857141Y-4732021D01*
X13857141Y-4732021D02*
X13857141Y-4839164D01*
X13857141Y-4839164D02*
X13821427Y-4910592D01*
X13821427Y-4910592D02*
X13785713Y-4946307D01*
X13785713Y-4946307D02*
X13714284Y-4982021D01*
X13714284Y-4982021D02*
X13428570Y-4982021D01*
X14464284Y-5303450D02*
X14392856Y-5339164D01*
X14392856Y-5339164D02*
X14249999Y-5339164D01*
X14249999Y-5339164D02*
X14178570Y-5303450D01*
X14178570Y-5303450D02*
X14142856Y-5232021D01*
X14142856Y-5232021D02*
X14142856Y-4946307D01*
X14142856Y-4946307D02*
X14178570Y-4874878D01*
X14178570Y-4874878D02*
X14249999Y-4839164D01*
X14249999Y-4839164D02*
X14392856Y-4839164D01*
X14392856Y-4839164D02*
X14464284Y-4874878D01*
X14464284Y-4874878D02*
X14499999Y-4946307D01*
X14499999Y-4946307D02*
X14499999Y-5017735D01*
X14499999Y-5017735D02*
X14142856Y-5089164D01*
X14749998Y-4839164D02*
X14928570Y-5339164D01*
X14928570Y-5339164D02*
X15107141Y-4839164D01*
X15964285Y-5339164D02*
X15964285Y-4589164D01*
X15964285Y-4946307D02*
X16392856Y-4946307D01*
X16392856Y-5339164D02*
X16392856Y-4589164D01*
D11*
%TO.C,R4*%
X9762742Y-19277500D02*
X10237258Y-19277500D01*
X9762742Y-20322500D02*
X10237258Y-20322500D01*
%TO.C,C10*%
X23738748Y-36265000D02*
X24261252Y-36265000D01*
X23738748Y-37735000D02*
X24261252Y-37735000D01*
%TO.C,U3*%
X56590000Y-20150000D02*
X56590000Y-23910000D01*
X56590000Y-23910000D02*
X57850000Y-23910000D01*
X63410000Y-20150000D02*
X63410000Y-23910000D01*
X63410000Y-23910000D02*
X62150000Y-23910000D01*
X63640000Y-19110000D02*
X63310000Y-18870000D01*
X63640000Y-18630000D01*
X63640000Y-19110000D01*
G36*
X63640000Y-19110000D02*
G01*
X63310000Y-18870000D01*
X63640000Y-18630000D01*
X63640000Y-19110000D01*
G37*
%TO.C,R6*%
X11762742Y-36477500D02*
X12237258Y-36477500D01*
X11762742Y-37522500D02*
X12237258Y-37522500D01*
%TO.C,R8*%
X50762742Y-6477500D02*
X51237258Y-6477500D01*
X50762742Y-7522500D02*
X51237258Y-7522500D01*
%TO.C,R7*%
X15762742Y-36477500D02*
X16237258Y-36477500D01*
X15762742Y-37522500D02*
X16237258Y-37522500D01*
%TO.C,C7*%
X50859420Y-17990000D02*
X51140580Y-17990000D01*
X50859420Y-19010000D02*
X51140580Y-19010000D01*
%TO.C,C1*%
X35859420Y-39490000D02*
X36140580Y-39490000D01*
X35859420Y-40510000D02*
X36140580Y-40510000D01*
%TO.C,U6*%
X62000000Y-34940000D02*
X61200000Y-34940000D01*
X62000000Y-34940000D02*
X62800000Y-34940000D01*
X62000000Y-38060000D02*
X61200000Y-38060000D01*
X62000000Y-38060000D02*
X62800000Y-38060000D01*
X60700000Y-34990000D02*
X60460000Y-34660000D01*
X60940000Y-34660000D01*
X60700000Y-34990000D01*
G36*
X60700000Y-34990000D02*
G01*
X60460000Y-34660000D01*
X60940000Y-34660000D01*
X60700000Y-34990000D01*
G37*
%TO.C,R10*%
X11262742Y-41977500D02*
X11737258Y-41977500D01*
X11262742Y-43022500D02*
X11737258Y-43022500D01*
%TO.C,C2*%
X35859420Y-42490000D02*
X36140580Y-42490000D01*
X35859420Y-43510000D02*
X36140580Y-43510000D01*
%TO.C,R12*%
X55762742Y-35977500D02*
X56237258Y-35977500D01*
X55762742Y-37022500D02*
X56237258Y-37022500D01*
%TO.C,J4*%
X26670000Y-49830000D02*
X26670000Y-48500000D01*
X28000000Y-49830000D02*
X26670000Y-49830000D01*
X29270000Y-47170000D02*
X36950000Y-47170000D01*
X29270000Y-49830000D02*
X29270000Y-47170000D01*
X29270000Y-49830000D02*
X36950000Y-49830000D01*
X36950000Y-49830000D02*
X36950000Y-47170000D01*
%TO.C,J2*%
X6670000Y-49830000D02*
X6670000Y-48500000D01*
X8000000Y-49830000D02*
X6670000Y-49830000D01*
X9270000Y-47170000D02*
X24570000Y-47170000D01*
X9270000Y-49830000D02*
X9270000Y-47170000D01*
X9270000Y-49830000D02*
X24570000Y-49830000D01*
X24570000Y-49830000D02*
X24570000Y-47170000D01*
%TO.C,R5*%
X7762742Y-35477500D02*
X8237258Y-35477500D01*
X7762742Y-36522500D02*
X8237258Y-36522500D01*
%TO.C,SW1*%
X12350000Y-44100000D02*
X15650000Y-44100000D01*
X12350000Y-44400000D02*
X12350000Y-44100000D01*
X12350000Y-46600000D02*
X12350000Y-46900000D01*
X12350000Y-46900000D02*
X15650000Y-46900000D01*
X15650000Y-44100000D02*
X15650000Y-44400000D01*
X15650000Y-46900000D02*
X15650000Y-46600000D01*
%TO.C,D2*%
X54015000Y-6265000D02*
X54015000Y-7735000D01*
X54015000Y-7735000D02*
X56300000Y-7735000D01*
X56300000Y-6265000D02*
X54015000Y-6265000D01*
%TO.C,U1*%
X26880000Y-2140000D02*
X26880000Y-8300000D01*
X26880000Y-2140000D02*
X45120000Y-2140000D01*
X26880000Y-27100000D02*
X26880000Y-27880000D01*
X26880000Y-27880000D02*
X27880000Y-27880000D01*
X45120000Y-2140000D02*
X45120000Y-8555000D01*
X45120000Y-27100000D02*
X45120000Y-27880000D01*
X45120000Y-27880000D02*
X44120000Y-27880000D01*
X26875000Y-9025000D02*
X26375000Y-9025000D01*
X26875000Y-8525000D01*
X26875000Y-9025000D01*
G36*
X26875000Y-9025000D02*
G01*
X26375000Y-9025000D01*
X26875000Y-8525000D01*
X26875000Y-9025000D01*
G37*
%TO.C,J1*%
X41300000Y-46100000D02*
X41300000Y-48100000D01*
X41300000Y-50000000D02*
X41300000Y-51900000D01*
X41300000Y-51900000D02*
X50700000Y-51900000D01*
X50700000Y-46100000D02*
X50700000Y-48100000D01*
X50700000Y-50000000D02*
X50700000Y-51900000D01*
%TO.C,C12*%
X33859420Y-33990000D02*
X34140580Y-33990000D01*
X33859420Y-35010000D02*
X34140580Y-35010000D01*
%TO.C,D3*%
X10015000Y-38265000D02*
X10015000Y-39735000D01*
X10015000Y-39735000D02*
X12300000Y-39735000D01*
X12300000Y-38265000D02*
X10015000Y-38265000D01*
%TO.C,SW2*%
X17350000Y-44100000D02*
X20650000Y-44100000D01*
X17350000Y-44400000D02*
X17350000Y-44100000D01*
X17350000Y-46600000D02*
X17350000Y-46900000D01*
X17350000Y-46900000D02*
X20650000Y-46900000D01*
X20650000Y-44100000D02*
X20650000Y-44400000D01*
X20650000Y-46900000D02*
X20650000Y-46600000D01*
%TO.C,R1*%
X9762742Y-8477500D02*
X10237258Y-8477500D01*
X9762742Y-9522500D02*
X10237258Y-9522500D01*
%TO.C,C15*%
X55859420Y-38490000D02*
X56140580Y-38490000D01*
X55859420Y-39510000D02*
X56140580Y-39510000D01*
%TO.C,J3*%
X64890000Y-49110000D02*
X64890000Y-50360000D01*
X64890000Y-50360000D02*
X66140000Y-50360000D01*
X64990000Y-48300000D02*
X64990000Y-48600000D01*
X64990000Y-48600000D02*
X65190000Y-48600000D01*
X65090000Y-48300000D02*
X65090000Y-48600000D01*
X65190000Y-43940000D02*
X65190000Y-50060000D01*
X65190000Y-47500000D02*
X65800000Y-47500000D01*
X65190000Y-48300000D02*
X64990000Y-48300000D01*
X65190000Y-50060000D02*
X69910000Y-50060000D01*
X65800000Y-44550000D02*
X65800000Y-46500000D01*
X65800000Y-46500000D02*
X65190000Y-46500000D01*
X65800000Y-47500000D02*
X65800000Y-49450000D01*
X65800000Y-49450000D02*
X69300000Y-49450000D01*
X66500000Y-43940000D02*
X66500000Y-44550000D01*
X66500000Y-50060000D02*
X66500000Y-49450000D01*
X67800000Y-43940000D02*
X67800000Y-44550000D01*
X67800000Y-50060000D02*
X67800000Y-49450000D01*
X68800000Y-46900000D02*
X69300000Y-46900000D01*
X68800000Y-47100000D02*
X68800000Y-46900000D01*
X69300000Y-44550000D02*
X65800000Y-44550000D01*
X69300000Y-47000000D02*
X68800000Y-47000000D01*
X69300000Y-47100000D02*
X68800000Y-47100000D01*
X69300000Y-49450000D02*
X69300000Y-44550000D01*
X69910000Y-43940000D02*
X65190000Y-43940000D01*
X69910000Y-50060000D02*
X69910000Y-43940000D01*
%TO.C,C9*%
X23859420Y-40490000D02*
X24140580Y-40490000D01*
X23859420Y-41510000D02*
X24140580Y-41510000D01*
%TO.C,U2*%
X60000000Y-8440000D02*
X58050000Y-8440000D01*
X60000000Y-8440000D02*
X61950000Y-8440000D01*
X60000000Y-13560000D02*
X58050000Y-13560000D01*
X60000000Y-13560000D02*
X61950000Y-13560000D01*
X57300000Y-8535000D02*
X57060000Y-8205000D01*
X57540000Y-8205000D01*
X57300000Y-8535000D01*
G36*
X57300000Y-8535000D02*
G01*
X57060000Y-8205000D01*
X57540000Y-8205000D01*
X57300000Y-8535000D01*
G37*
%TO.C,U4*%
X27850000Y-38315000D02*
X27850000Y-38090000D01*
X27850000Y-42150000D02*
X27850000Y-41625000D01*
X27850000Y-42150000D02*
X28375000Y-42150000D01*
X28375000Y-37850000D02*
X28150000Y-37850000D01*
X32150000Y-37850000D02*
X31625000Y-37850000D01*
X32150000Y-37850000D02*
X32150000Y-38375000D01*
X32150000Y-42150000D02*
X31625000Y-42150000D01*
X32150000Y-42150000D02*
X32150000Y-41625000D01*
X27850000Y-37850000D02*
X27610000Y-37520000D01*
X28090000Y-37520000D01*
X27850000Y-37850000D01*
G36*
X27850000Y-37850000D02*
G01*
X27610000Y-37520000D01*
X28090000Y-37520000D01*
X27850000Y-37850000D01*
G37*
%TO.C,R9*%
X7762742Y-41977500D02*
X8237258Y-41977500D01*
X7762742Y-43022500D02*
X8237258Y-43022500D01*
%TO.C,C13*%
X37859420Y-31490000D02*
X38140580Y-31490000D01*
X37859420Y-32510000D02*
X38140580Y-32510000D01*
%TO.C,C14*%
X37859420Y-33990000D02*
X38140580Y-33990000D01*
X37859420Y-35010000D02*
X38140580Y-35010000D01*
%TO.C,R2*%
X9762742Y-12077500D02*
X10237258Y-12077500D01*
X9762742Y-13122500D02*
X10237258Y-13122500D01*
%TO.C,C11*%
X33859420Y-31490000D02*
X34140580Y-31490000D01*
X33859420Y-32510000D02*
X34140580Y-32510000D01*
%TO.C,U5*%
X48000000Y-28940000D02*
X46050000Y-28940000D01*
X48000000Y-28940000D02*
X49950000Y-28940000D01*
X48000000Y-39060000D02*
X46050000Y-39060000D01*
X48000000Y-39060000D02*
X49950000Y-39060000D01*
X45300000Y-28995000D02*
X45060000Y-28665000D01*
X45540000Y-28665000D01*
X45300000Y-28995000D01*
G36*
X45300000Y-28995000D02*
G01*
X45060000Y-28665000D01*
X45540000Y-28665000D01*
X45300000Y-28995000D01*
G37*
%TO.C,R11*%
X9762742Y-22877500D02*
X10237258Y-22877500D01*
X9762742Y-23922500D02*
X10237258Y-23922500D01*
%TO.C,C6*%
X50738748Y-13765000D02*
X51261252Y-13765000D01*
X50738748Y-15235000D02*
X51261252Y-15235000D01*
%TO.C,R3*%
X9762742Y-15677500D02*
X10237258Y-15677500D01*
X9762742Y-16722500D02*
X10237258Y-16722500D01*
D10*
%TO.C,U7*%
X60375000Y-40375000D02*
X60375000Y-40550000D01*
X60375000Y-40375000D02*
X63625000Y-40375000D01*
X60375000Y-43450000D02*
X60375000Y-43625000D01*
X60375000Y-43625000D02*
X63625000Y-43625000D01*
X63625000Y-40375000D02*
X63625000Y-40550000D01*
X63625000Y-43450000D02*
X63625000Y-43625000D01*
D11*
X59900000Y-40550000D02*
X59660000Y-40220000D01*
X60140000Y-40220000D01*
X59900000Y-40550000D01*
G36*
X59900000Y-40550000D02*
G01*
X59660000Y-40220000D01*
X60140000Y-40220000D01*
X59900000Y-40550000D01*
G37*
%TO.C,D1*%
X6515000Y-38265000D02*
X6515000Y-39735000D01*
X6515000Y-39735000D02*
X8800000Y-39735000D01*
X8800000Y-38265000D02*
X6515000Y-38265000D01*
%TO.C,C5*%
X50738748Y-9265000D02*
X51261252Y-9265000D01*
X50738748Y-10735000D02*
X51261252Y-10735000D01*
%TD*%
M02*
