M48
; DRILL file {KiCad 8.0.9-8.0.9-0~ubuntu24.04.1} date 2026-07-18T22:49:07+0000
; FORMAT={-:-/ absolute / metric / decimal}
; #@! TF.CreationDate,2026-07-18T22:49:07+00:00
; #@! TF.GenerationSoftware,Kicad,Pcbnew,8.0.9-8.0.9-0~ubuntu24.04.1
; #@! TF.FileFunction,MixedPlating,1,2
FMAT,2
METRIC
; #@! TA.AperFunction,Plated,PTH,ComponentDrill
T1C0.200
; #@! TA.AperFunction,Plated,PTH,ViaDrill
T2C0.300
; #@! TA.AperFunction,Plated,PTH,ComponentDrill
T3C0.600
; #@! TA.AperFunction,Plated,PTH,ComponentDrill
T4C0.750
; #@! TA.AperFunction,Plated,PTH,ComponentDrill
T5C1.000
; #@! TA.AperFunction,NonPlated,NPTH,ComponentDrill
T6C0.650
; #@! TA.AperFunction,NonPlated,NPTH,ComponentDrill
T7C2.200
%
G90
G05
T1
X27.795Y-13.327
X27.795Y-14.852
X28.557Y-12.565
X28.557Y-14.09
X28.557Y-15.615
X29.32Y-13.327
X29.32Y-14.852
X30.082Y-12.565
X30.082Y-14.09
X30.082Y-15.615
X30.845Y-13.327
X30.845Y-14.852
T2
X10.296Y-10.56
X12.8Y-12.135
X15.67Y-13.169
X15.91Y-15.426
X17.773Y-16.693
X20.846Y-38.038
X21.108Y-26.445
X21.89Y-32.086
X22.511Y-8.02
X27.002Y-36.572
X30.506Y-34.403
X36.506Y-10.56
X37.498Y-11.83
X40.01Y-20.297
X46.32Y-34.398
X47.527Y-35.292
X52.528Y-12.71
T4
X55.5Y-39.5
X55.5Y-41.5
T5
X7.0Y-42.0
X9.54Y-42.0
X12.08Y-42.0
X14.62Y-42.0
X17.16Y-42.0
X19.7Y-42.0
X22.24Y-42.0
X28.0Y-42.0
X30.54Y-42.0
X33.08Y-42.0
X35.62Y-42.0
T6
X39.11Y-38.9
X44.89Y-38.9
T7
X3.0Y-3.0
X57.0Y-3.0
T3
X37.68Y-37.82G85X37.68Y-38.92
G05
X37.68Y-42.25G85X37.68Y-42.85
G05
X46.32Y-37.82G85X46.32Y-38.92
G05
X46.32Y-42.25G85X46.32Y-42.85
G05
M30
