%TF.GenerationSoftware,KiCad,Pcbnew,7.0.11+dfsg-1build4*%
%TF.CreationDate,2026-07-18T16:48:01+00:00*%
%TF.ProjectId,smart-glove,736d6172-742d-4676-9c6f-76652e6b6963,rev?*%
%TF.SameCoordinates,Original*%
%TF.FileFunction,Legend,Top*%
%TF.FilePolarity,Positive*%
%FSLAX46Y46*%
G04 Gerber Fmt 4.6, Leading zero omitted, Abs format (unit mm)*
G04 Created by KiCad (PCBNEW 7.0.11+dfsg-1build4) date 2026-07-18 16:48:01*
%MOMM*%
%LPD*%
G01*
G04 APERTURE LIST*
G04 Aperture macros list*
%AMRoundRect*
0 Rectangle with rounded corners*
0 $1 Rounding radius*
0 $2 $3 $4 $5 $6 $7 $8 $9 X,Y pos of 4 corners*
0 Add a 4 corners polygon primitive as box body*
4,1,4,$2,$3,$4,$5,$6,$7,$8,$9,$2,$3,0*
0 Add four circle primitives for the rounded corners*
1,1,$1+$1,$2,$3*
1,1,$1+$1,$4,$5*
1,1,$1+$1,$6,$7*
1,1,$1+$1,$8,$9*
0 Add four rect primitives between the rounded corners*
20,1,$1+$1,$2,$3,$4,$5,0*
20,1,$1+$1,$4,$5,$6,$7,0*
20,1,$1+$1,$6,$7,$8,$9,0*
20,1,$1+$1,$8,$9,$2,$3,0*%
G04 Aperture macros list end*
%ADD10C,0.120000*%
%ADD11C,0.165000*%
%ADD12C,0.150000*%
%ADD13RoundRect,0.200000X-0.200000X-0.275000X0.200000X-0.275000X0.200000X0.275000X-0.200000X0.275000X0*%
%ADD14RoundRect,0.218750X-0.218750X-0.256250X0.218750X-0.256250X0.218750X0.256250X-0.218750X0.256250X0*%
%ADD15RoundRect,0.250000X0.625000X-0.350000X0.625000X0.350000X-0.625000X0.350000X-0.625000X-0.350000X0*%
%ADD16O,1.750000X1.200000*%
%ADD17RoundRect,0.150000X-0.825000X-0.150000X0.825000X-0.150000X0.825000X0.150000X-0.825000X0.150000X0*%
%ADD18RoundRect,0.225000X-0.225000X-0.250000X0.225000X-0.250000X0.225000X0.250000X-0.225000X0.250000X0*%
%ADD19C,2.200000*%
%ADD20R,0.900000X1.700000*%
%ADD21RoundRect,0.250000X-0.250000X-0.475000X0.250000X-0.475000X0.250000X0.475000X-0.250000X0.475000X0*%
%ADD22C,0.650000*%
%ADD23R,0.600000X1.450000*%
%ADD24R,0.300000X1.450000*%
%ADD25O,1.000000X2.100000*%
%ADD26O,1.000000X1.600000*%
%ADD27RoundRect,0.375000X-0.375000X0.625000X-0.375000X-0.625000X0.375000X-0.625000X0.375000X0.625000X0*%
%ADD28RoundRect,0.500000X-1.400000X0.500000X-1.400000X-0.500000X1.400000X-0.500000X1.400000X0.500000X0*%
%ADD29R,1.700000X1.700000*%
%ADD30O,1.700000X1.700000*%
%ADD31RoundRect,0.075000X-0.350000X-0.075000X0.350000X-0.075000X0.350000X0.075000X-0.350000X0.075000X0*%
%ADD32RoundRect,0.075000X0.075000X-0.350000X0.075000X0.350000X-0.075000X0.350000X-0.075000X-0.350000X0*%
%ADD33R,1.500000X0.900000*%
%ADD34R,0.900000X1.500000*%
%ADD35C,0.600000*%
%ADD36R,4.200000X4.200000*%
G04 APERTURE END LIST*
D10*
X20885713Y-40825760D02*
X20809522Y-40863855D01*
X20809522Y-40863855D02*
X20657141Y-40863855D01*
X20657141Y-40863855D02*
X20580951Y-40825760D01*
X20580951Y-40825760D02*
X20542856Y-40787664D01*
X20542856Y-40787664D02*
X20504760Y-40711474D01*
X20504760Y-40711474D02*
X20504760Y-40482902D01*
X20504760Y-40482902D02*
X20542856Y-40406712D01*
X20542856Y-40406712D02*
X20580951Y-40368617D01*
X20580951Y-40368617D02*
X20657141Y-40330521D01*
X20657141Y-40330521D02*
X20809522Y-40330521D01*
X20809522Y-40330521D02*
X20885713Y-40368617D01*
X21342855Y-40863855D02*
X21266665Y-40825760D01*
X21266665Y-40825760D02*
X21228570Y-40787664D01*
X21228570Y-40787664D02*
X21190474Y-40711474D01*
X21190474Y-40711474D02*
X21190474Y-40482902D01*
X21190474Y-40482902D02*
X21228570Y-40406712D01*
X21228570Y-40406712D02*
X21266665Y-40368617D01*
X21266665Y-40368617D02*
X21342855Y-40330521D01*
X21342855Y-40330521D02*
X21457141Y-40330521D01*
X21457141Y-40330521D02*
X21533332Y-40368617D01*
X21533332Y-40368617D02*
X21571427Y-40406712D01*
X21571427Y-40406712D02*
X21609522Y-40482902D01*
X21609522Y-40482902D02*
X21609522Y-40711474D01*
X21609522Y-40711474D02*
X21571427Y-40787664D01*
X21571427Y-40787664D02*
X21533332Y-40825760D01*
X21533332Y-40825760D02*
X21457141Y-40863855D01*
X21457141Y-40863855D02*
X21342855Y-40863855D01*
X22295237Y-40863855D02*
X22295237Y-40063855D01*
X22295237Y-40825760D02*
X22219046Y-40863855D01*
X22219046Y-40863855D02*
X22066665Y-40863855D01*
X22066665Y-40863855D02*
X21990475Y-40825760D01*
X21990475Y-40825760D02*
X21952380Y-40787664D01*
X21952380Y-40787664D02*
X21914284Y-40711474D01*
X21914284Y-40711474D02*
X21914284Y-40482902D01*
X21914284Y-40482902D02*
X21952380Y-40406712D01*
X21952380Y-40406712D02*
X21990475Y-40368617D01*
X21990475Y-40368617D02*
X22066665Y-40330521D01*
X22066665Y-40330521D02*
X22219046Y-40330521D01*
X22219046Y-40330521D02*
X22295237Y-40368617D01*
X22980952Y-40825760D02*
X22904761Y-40863855D01*
X22904761Y-40863855D02*
X22752380Y-40863855D01*
X22752380Y-40863855D02*
X22676190Y-40825760D01*
X22676190Y-40825760D02*
X22638094Y-40749569D01*
X22638094Y-40749569D02*
X22638094Y-40444807D01*
X22638094Y-40444807D02*
X22676190Y-40368617D01*
X22676190Y-40368617D02*
X22752380Y-40330521D01*
X22752380Y-40330521D02*
X22904761Y-40330521D01*
X22904761Y-40330521D02*
X22980952Y-40368617D01*
X22980952Y-40368617D02*
X23019047Y-40444807D01*
X23019047Y-40444807D02*
X23019047Y-40520998D01*
X23019047Y-40520998D02*
X22638094Y-40597188D01*
X23361904Y-40863855D02*
X23361904Y-40063855D01*
X23361904Y-40368617D02*
X23438094Y-40330521D01*
X23438094Y-40330521D02*
X23590475Y-40330521D01*
X23590475Y-40330521D02*
X23666666Y-40368617D01*
X23666666Y-40368617D02*
X23704761Y-40406712D01*
X23704761Y-40406712D02*
X23742856Y-40482902D01*
X23742856Y-40482902D02*
X23742856Y-40711474D01*
X23742856Y-40711474D02*
X23704761Y-40787664D01*
X23704761Y-40787664D02*
X23666666Y-40825760D01*
X23666666Y-40825760D02*
X23590475Y-40863855D01*
X23590475Y-40863855D02*
X23438094Y-40863855D01*
X23438094Y-40863855D02*
X23361904Y-40825760D01*
X24428571Y-40330521D02*
X24428571Y-40863855D01*
X24085714Y-40330521D02*
X24085714Y-40749569D01*
X24085714Y-40749569D02*
X24123809Y-40825760D01*
X24123809Y-40825760D02*
X24199999Y-40863855D01*
X24199999Y-40863855D02*
X24314285Y-40863855D01*
X24314285Y-40863855D02*
X24390476Y-40825760D01*
X24390476Y-40825760D02*
X24428571Y-40787664D01*
X24733333Y-40330521D02*
X25152381Y-40330521D01*
X25152381Y-40330521D02*
X24733333Y-40863855D01*
X24733333Y-40863855D02*
X25152381Y-40863855D01*
X25380952Y-40330521D02*
X25800000Y-40330521D01*
X25800000Y-40330521D02*
X25380952Y-40863855D01*
X25380952Y-40863855D02*
X25800000Y-40863855D01*
X26104762Y-40787664D02*
X26142857Y-40825760D01*
X26142857Y-40825760D02*
X26104762Y-40863855D01*
X26104762Y-40863855D02*
X26066666Y-40825760D01*
X26066666Y-40825760D02*
X26104762Y-40787664D01*
X26104762Y-40787664D02*
X26104762Y-40863855D01*
X26828571Y-40330521D02*
X26828571Y-40978140D01*
X26828571Y-40978140D02*
X26790476Y-41054331D01*
X26790476Y-41054331D02*
X26752380Y-41092426D01*
X26752380Y-41092426D02*
X26676190Y-41130521D01*
X26676190Y-41130521D02*
X26561904Y-41130521D01*
X26561904Y-41130521D02*
X26485714Y-41092426D01*
X26828571Y-40825760D02*
X26752380Y-40863855D01*
X26752380Y-40863855D02*
X26599999Y-40863855D01*
X26599999Y-40863855D02*
X26523809Y-40825760D01*
X26523809Y-40825760D02*
X26485714Y-40787664D01*
X26485714Y-40787664D02*
X26447618Y-40711474D01*
X26447618Y-40711474D02*
X26447618Y-40482902D01*
X26447618Y-40482902D02*
X26485714Y-40406712D01*
X26485714Y-40406712D02*
X26523809Y-40368617D01*
X26523809Y-40368617D02*
X26599999Y-40330521D01*
X26599999Y-40330521D02*
X26752380Y-40330521D01*
X26752380Y-40330521D02*
X26828571Y-40368617D01*
X27514286Y-40825760D02*
X27438095Y-40863855D01*
X27438095Y-40863855D02*
X27285714Y-40863855D01*
X27285714Y-40863855D02*
X27209524Y-40825760D01*
X27209524Y-40825760D02*
X27171428Y-40749569D01*
X27171428Y-40749569D02*
X27171428Y-40444807D01*
X27171428Y-40444807D02*
X27209524Y-40368617D01*
X27209524Y-40368617D02*
X27285714Y-40330521D01*
X27285714Y-40330521D02*
X27438095Y-40330521D01*
X27438095Y-40330521D02*
X27514286Y-40368617D01*
X27514286Y-40368617D02*
X27552381Y-40444807D01*
X27552381Y-40444807D02*
X27552381Y-40520998D01*
X27552381Y-40520998D02*
X27171428Y-40597188D01*
X27780952Y-40330521D02*
X28085714Y-40330521D01*
X27895238Y-40063855D02*
X27895238Y-40749569D01*
X27895238Y-40749569D02*
X27933333Y-40825760D01*
X27933333Y-40825760D02*
X28009523Y-40863855D01*
X28009523Y-40863855D02*
X28085714Y-40863855D01*
X28238095Y-40330521D02*
X28542857Y-40330521D01*
X28352381Y-40863855D02*
X28352381Y-40178140D01*
X28352381Y-40178140D02*
X28390476Y-40101950D01*
X28390476Y-40101950D02*
X28466666Y-40063855D01*
X28466666Y-40063855D02*
X28542857Y-40063855D01*
X28923809Y-40863855D02*
X28847619Y-40825760D01*
X28847619Y-40825760D02*
X28809524Y-40749569D01*
X28809524Y-40749569D02*
X28809524Y-40063855D01*
X29152381Y-40330521D02*
X29342857Y-40863855D01*
X29533334Y-40330521D02*
X29342857Y-40863855D01*
X29342857Y-40863855D02*
X29266667Y-41054331D01*
X29266667Y-41054331D02*
X29228572Y-41092426D01*
X29228572Y-41092426D02*
X29152381Y-41130521D01*
D11*
X16069048Y-2647920D02*
X16226191Y-2700300D01*
X16226191Y-2700300D02*
X16488096Y-2700300D01*
X16488096Y-2700300D02*
X16592858Y-2647920D01*
X16592858Y-2647920D02*
X16645239Y-2595539D01*
X16645239Y-2595539D02*
X16697620Y-2490777D01*
X16697620Y-2490777D02*
X16697620Y-2386015D01*
X16697620Y-2386015D02*
X16645239Y-2281253D01*
X16645239Y-2281253D02*
X16592858Y-2228872D01*
X16592858Y-2228872D02*
X16488096Y-2176491D01*
X16488096Y-2176491D02*
X16278572Y-2124110D01*
X16278572Y-2124110D02*
X16173810Y-2071729D01*
X16173810Y-2071729D02*
X16121429Y-2019348D01*
X16121429Y-2019348D02*
X16069048Y-1914586D01*
X16069048Y-1914586D02*
X16069048Y-1809824D01*
X16069048Y-1809824D02*
X16121429Y-1705062D01*
X16121429Y-1705062D02*
X16173810Y-1652681D01*
X16173810Y-1652681D02*
X16278572Y-1600300D01*
X16278572Y-1600300D02*
X16540477Y-1600300D01*
X16540477Y-1600300D02*
X16697620Y-1652681D01*
X17169048Y-2700300D02*
X17169048Y-1966967D01*
X17169048Y-2071729D02*
X17221429Y-2019348D01*
X17221429Y-2019348D02*
X17326191Y-1966967D01*
X17326191Y-1966967D02*
X17483334Y-1966967D01*
X17483334Y-1966967D02*
X17588096Y-2019348D01*
X17588096Y-2019348D02*
X17640477Y-2124110D01*
X17640477Y-2124110D02*
X17640477Y-2700300D01*
X17640477Y-2124110D02*
X17692858Y-2019348D01*
X17692858Y-2019348D02*
X17797620Y-1966967D01*
X17797620Y-1966967D02*
X17954763Y-1966967D01*
X17954763Y-1966967D02*
X18059524Y-2019348D01*
X18059524Y-2019348D02*
X18111905Y-2124110D01*
X18111905Y-2124110D02*
X18111905Y-2700300D01*
X19107144Y-2700300D02*
X19107144Y-2124110D01*
X19107144Y-2124110D02*
X19054763Y-2019348D01*
X19054763Y-2019348D02*
X18950001Y-1966967D01*
X18950001Y-1966967D02*
X18740477Y-1966967D01*
X18740477Y-1966967D02*
X18635715Y-2019348D01*
X19107144Y-2647920D02*
X19002382Y-2700300D01*
X19002382Y-2700300D02*
X18740477Y-2700300D01*
X18740477Y-2700300D02*
X18635715Y-2647920D01*
X18635715Y-2647920D02*
X18583334Y-2543158D01*
X18583334Y-2543158D02*
X18583334Y-2438396D01*
X18583334Y-2438396D02*
X18635715Y-2333634D01*
X18635715Y-2333634D02*
X18740477Y-2281253D01*
X18740477Y-2281253D02*
X19002382Y-2281253D01*
X19002382Y-2281253D02*
X19107144Y-2228872D01*
X19630953Y-2700300D02*
X19630953Y-1966967D01*
X19630953Y-2176491D02*
X19683334Y-2071729D01*
X19683334Y-2071729D02*
X19735715Y-2019348D01*
X19735715Y-2019348D02*
X19840477Y-1966967D01*
X19840477Y-1966967D02*
X19945239Y-1966967D01*
X20154762Y-1966967D02*
X20573810Y-1966967D01*
X20311905Y-1600300D02*
X20311905Y-2543158D01*
X20311905Y-2543158D02*
X20364286Y-2647920D01*
X20364286Y-2647920D02*
X20469048Y-2700300D01*
X20469048Y-2700300D02*
X20573810Y-2700300D01*
X21516667Y-1652681D02*
X21411905Y-1600300D01*
X21411905Y-1600300D02*
X21254762Y-1600300D01*
X21254762Y-1600300D02*
X21097619Y-1652681D01*
X21097619Y-1652681D02*
X20992857Y-1757443D01*
X20992857Y-1757443D02*
X20940476Y-1862205D01*
X20940476Y-1862205D02*
X20888095Y-2071729D01*
X20888095Y-2071729D02*
X20888095Y-2228872D01*
X20888095Y-2228872D02*
X20940476Y-2438396D01*
X20940476Y-2438396D02*
X20992857Y-2543158D01*
X20992857Y-2543158D02*
X21097619Y-2647920D01*
X21097619Y-2647920D02*
X21254762Y-2700300D01*
X21254762Y-2700300D02*
X21359524Y-2700300D01*
X21359524Y-2700300D02*
X21516667Y-2647920D01*
X21516667Y-2647920D02*
X21569048Y-2595539D01*
X21569048Y-2595539D02*
X21569048Y-2228872D01*
X21569048Y-2228872D02*
X21359524Y-2228872D01*
X22197619Y-2700300D02*
X22092857Y-2647920D01*
X22092857Y-2647920D02*
X22040476Y-2543158D01*
X22040476Y-2543158D02*
X22040476Y-1600300D01*
X22773809Y-2700300D02*
X22669047Y-2647920D01*
X22669047Y-2647920D02*
X22616666Y-2595539D01*
X22616666Y-2595539D02*
X22564285Y-2490777D01*
X22564285Y-2490777D02*
X22564285Y-2176491D01*
X22564285Y-2176491D02*
X22616666Y-2071729D01*
X22616666Y-2071729D02*
X22669047Y-2019348D01*
X22669047Y-2019348D02*
X22773809Y-1966967D01*
X22773809Y-1966967D02*
X22930952Y-1966967D01*
X22930952Y-1966967D02*
X23035714Y-2019348D01*
X23035714Y-2019348D02*
X23088095Y-2071729D01*
X23088095Y-2071729D02*
X23140476Y-2176491D01*
X23140476Y-2176491D02*
X23140476Y-2490777D01*
X23140476Y-2490777D02*
X23088095Y-2595539D01*
X23088095Y-2595539D02*
X23035714Y-2647920D01*
X23035714Y-2647920D02*
X22930952Y-2700300D01*
X22930952Y-2700300D02*
X22773809Y-2700300D01*
X23507142Y-1966967D02*
X23769047Y-2700300D01*
X23769047Y-2700300D02*
X24030952Y-1966967D01*
X24869047Y-2647920D02*
X24764285Y-2700300D01*
X24764285Y-2700300D02*
X24554761Y-2700300D01*
X24554761Y-2700300D02*
X24449999Y-2647920D01*
X24449999Y-2647920D02*
X24397618Y-2543158D01*
X24397618Y-2543158D02*
X24397618Y-2124110D01*
X24397618Y-2124110D02*
X24449999Y-2019348D01*
X24449999Y-2019348D02*
X24554761Y-1966967D01*
X24554761Y-1966967D02*
X24764285Y-1966967D01*
X24764285Y-1966967D02*
X24869047Y-2019348D01*
X24869047Y-2019348D02*
X24921428Y-2124110D01*
X24921428Y-2124110D02*
X24921428Y-2228872D01*
X24921428Y-2228872D02*
X24397618Y-2333634D01*
X26230951Y-2700300D02*
X26230951Y-1600300D01*
X26230951Y-1600300D02*
X26597618Y-2386015D01*
X26597618Y-2386015D02*
X26964285Y-1600300D01*
X26964285Y-1600300D02*
X26964285Y-2700300D01*
X28116666Y-2595539D02*
X28064285Y-2647920D01*
X28064285Y-2647920D02*
X27907142Y-2700300D01*
X27907142Y-2700300D02*
X27802380Y-2700300D01*
X27802380Y-2700300D02*
X27645237Y-2647920D01*
X27645237Y-2647920D02*
X27540475Y-2543158D01*
X27540475Y-2543158D02*
X27488094Y-2438396D01*
X27488094Y-2438396D02*
X27435713Y-2228872D01*
X27435713Y-2228872D02*
X27435713Y-2071729D01*
X27435713Y-2071729D02*
X27488094Y-1862205D01*
X27488094Y-1862205D02*
X27540475Y-1757443D01*
X27540475Y-1757443D02*
X27645237Y-1652681D01*
X27645237Y-1652681D02*
X27802380Y-1600300D01*
X27802380Y-1600300D02*
X27907142Y-1600300D01*
X27907142Y-1600300D02*
X28064285Y-1652681D01*
X28064285Y-1652681D02*
X28116666Y-1705062D01*
X28588094Y-1600300D02*
X28588094Y-2490777D01*
X28588094Y-2490777D02*
X28640475Y-2595539D01*
X28640475Y-2595539D02*
X28692856Y-2647920D01*
X28692856Y-2647920D02*
X28797618Y-2700300D01*
X28797618Y-2700300D02*
X29007142Y-2700300D01*
X29007142Y-2700300D02*
X29111904Y-2647920D01*
X29111904Y-2647920D02*
X29164285Y-2595539D01*
X29164285Y-2595539D02*
X29216666Y-2490777D01*
X29216666Y-2490777D02*
X29216666Y-1600300D01*
X31207142Y-2700300D02*
X30840475Y-2176491D01*
X30578570Y-2700300D02*
X30578570Y-1600300D01*
X30578570Y-1600300D02*
X30997618Y-1600300D01*
X30997618Y-1600300D02*
X31102380Y-1652681D01*
X31102380Y-1652681D02*
X31154761Y-1705062D01*
X31154761Y-1705062D02*
X31207142Y-1809824D01*
X31207142Y-1809824D02*
X31207142Y-1966967D01*
X31207142Y-1966967D02*
X31154761Y-2071729D01*
X31154761Y-2071729D02*
X31102380Y-2124110D01*
X31102380Y-2124110D02*
X30997618Y-2176491D01*
X30997618Y-2176491D02*
X30578570Y-2176491D01*
X32097618Y-2647920D02*
X31992856Y-2700300D01*
X31992856Y-2700300D02*
X31783332Y-2700300D01*
X31783332Y-2700300D02*
X31678570Y-2647920D01*
X31678570Y-2647920D02*
X31626189Y-2543158D01*
X31626189Y-2543158D02*
X31626189Y-2124110D01*
X31626189Y-2124110D02*
X31678570Y-2019348D01*
X31678570Y-2019348D02*
X31783332Y-1966967D01*
X31783332Y-1966967D02*
X31992856Y-1966967D01*
X31992856Y-1966967D02*
X32097618Y-2019348D01*
X32097618Y-2019348D02*
X32149999Y-2124110D01*
X32149999Y-2124110D02*
X32149999Y-2228872D01*
X32149999Y-2228872D02*
X31626189Y-2333634D01*
X32516665Y-1966967D02*
X32778570Y-2700300D01*
X32778570Y-2700300D02*
X33040475Y-1966967D01*
X33407141Y-2386015D02*
X33930951Y-2386015D01*
X33302379Y-2700300D02*
X33669046Y-1600300D01*
X33669046Y-1600300D02*
X34035713Y-2700300D01*
D12*
X9833333Y-7524819D02*
X9500000Y-7048628D01*
X9261905Y-7524819D02*
X9261905Y-6524819D01*
X9261905Y-6524819D02*
X9642857Y-6524819D01*
X9642857Y-6524819D02*
X9738095Y-6572438D01*
X9738095Y-6572438D02*
X9785714Y-6620057D01*
X9785714Y-6620057D02*
X9833333Y-6715295D01*
X9833333Y-6715295D02*
X9833333Y-6858152D01*
X9833333Y-6858152D02*
X9785714Y-6953390D01*
X9785714Y-6953390D02*
X9738095Y-7001009D01*
X9738095Y-7001009D02*
X9642857Y-7048628D01*
X9642857Y-7048628D02*
X9261905Y-7048628D01*
X10785714Y-7524819D02*
X10214286Y-7524819D01*
X10500000Y-7524819D02*
X10500000Y-6524819D01*
X10500000Y-6524819D02*
X10404762Y-6667676D01*
X10404762Y-6667676D02*
X10309524Y-6762914D01*
X10309524Y-6762914D02*
X10214286Y-6810533D01*
X35761905Y-6024819D02*
X35761905Y-5024819D01*
X35761905Y-5024819D02*
X36000000Y-5024819D01*
X36000000Y-5024819D02*
X36142857Y-5072438D01*
X36142857Y-5072438D02*
X36238095Y-5167676D01*
X36238095Y-5167676D02*
X36285714Y-5262914D01*
X36285714Y-5262914D02*
X36333333Y-5453390D01*
X36333333Y-5453390D02*
X36333333Y-5596247D01*
X36333333Y-5596247D02*
X36285714Y-5786723D01*
X36285714Y-5786723D02*
X36238095Y-5881961D01*
X36238095Y-5881961D02*
X36142857Y-5977200D01*
X36142857Y-5977200D02*
X36000000Y-6024819D01*
X36000000Y-6024819D02*
X35761905Y-6024819D01*
X36714286Y-5120057D02*
X36761905Y-5072438D01*
X36761905Y-5072438D02*
X36857143Y-5024819D01*
X36857143Y-5024819D02*
X37095238Y-5024819D01*
X37095238Y-5024819D02*
X37190476Y-5072438D01*
X37190476Y-5072438D02*
X37238095Y-5120057D01*
X37238095Y-5120057D02*
X37285714Y-5215295D01*
X37285714Y-5215295D02*
X37285714Y-5310533D01*
X37285714Y-5310533D02*
X37238095Y-5453390D01*
X37238095Y-5453390D02*
X36666667Y-6024819D01*
X36666667Y-6024819D02*
X37285714Y-6024819D01*
X39554819Y-35833333D02*
X40269104Y-35833333D01*
X40269104Y-35833333D02*
X40411961Y-35880952D01*
X40411961Y-35880952D02*
X40507200Y-35976190D01*
X40507200Y-35976190D02*
X40554819Y-36119047D01*
X40554819Y-36119047D02*
X40554819Y-36214285D01*
X39554819Y-35452380D02*
X39554819Y-34833333D01*
X39554819Y-34833333D02*
X39935771Y-35166666D01*
X39935771Y-35166666D02*
X39935771Y-35023809D01*
X39935771Y-35023809D02*
X39983390Y-34928571D01*
X39983390Y-34928571D02*
X40031009Y-34880952D01*
X40031009Y-34880952D02*
X40126247Y-34833333D01*
X40126247Y-34833333D02*
X40364342Y-34833333D01*
X40364342Y-34833333D02*
X40459580Y-34880952D01*
X40459580Y-34880952D02*
X40507200Y-34928571D01*
X40507200Y-34928571D02*
X40554819Y-35023809D01*
X40554819Y-35023809D02*
X40554819Y-35309523D01*
X40554819Y-35309523D02*
X40507200Y-35404761D01*
X40507200Y-35404761D02*
X40459580Y-35452380D01*
X9833333Y-12524819D02*
X9500000Y-12048628D01*
X9261905Y-12524819D02*
X9261905Y-11524819D01*
X9261905Y-11524819D02*
X9642857Y-11524819D01*
X9642857Y-11524819D02*
X9738095Y-11572438D01*
X9738095Y-11572438D02*
X9785714Y-11620057D01*
X9785714Y-11620057D02*
X9833333Y-11715295D01*
X9833333Y-11715295D02*
X9833333Y-11858152D01*
X9833333Y-11858152D02*
X9785714Y-11953390D01*
X9785714Y-11953390D02*
X9738095Y-12001009D01*
X9738095Y-12001009D02*
X9642857Y-12048628D01*
X9642857Y-12048628D02*
X9261905Y-12048628D01*
X10166667Y-11524819D02*
X10785714Y-11524819D01*
X10785714Y-11524819D02*
X10452381Y-11905771D01*
X10452381Y-11905771D02*
X10595238Y-11905771D01*
X10595238Y-11905771D02*
X10690476Y-11953390D01*
X10690476Y-11953390D02*
X10738095Y-12001009D01*
X10738095Y-12001009D02*
X10785714Y-12096247D01*
X10785714Y-12096247D02*
X10785714Y-12334342D01*
X10785714Y-12334342D02*
X10738095Y-12429580D01*
X10738095Y-12429580D02*
X10690476Y-12477200D01*
X10690476Y-12477200D02*
X10595238Y-12524819D01*
X10595238Y-12524819D02*
X10309524Y-12524819D01*
X10309524Y-12524819D02*
X10214286Y-12477200D01*
X10214286Y-12477200D02*
X10166667Y-12429580D01*
X40238095Y-6054819D02*
X40238095Y-6864342D01*
X40238095Y-6864342D02*
X40285714Y-6959580D01*
X40285714Y-6959580D02*
X40333333Y-7007200D01*
X40333333Y-7007200D02*
X40428571Y-7054819D01*
X40428571Y-7054819D02*
X40619047Y-7054819D01*
X40619047Y-7054819D02*
X40714285Y-7007200D01*
X40714285Y-7007200D02*
X40761904Y-6959580D01*
X40761904Y-6959580D02*
X40809523Y-6864342D01*
X40809523Y-6864342D02*
X40809523Y-6054819D01*
X41238095Y-6150057D02*
X41285714Y-6102438D01*
X41285714Y-6102438D02*
X41380952Y-6054819D01*
X41380952Y-6054819D02*
X41619047Y-6054819D01*
X41619047Y-6054819D02*
X41714285Y-6102438D01*
X41714285Y-6102438D02*
X41761904Y-6150057D01*
X41761904Y-6150057D02*
X41809523Y-6245295D01*
X41809523Y-6245295D02*
X41809523Y-6340533D01*
X41809523Y-6340533D02*
X41761904Y-6483390D01*
X41761904Y-6483390D02*
X41190476Y-7054819D01*
X41190476Y-7054819D02*
X41809523Y-7054819D01*
X18333333Y-7024819D02*
X18000000Y-6548628D01*
X17761905Y-7024819D02*
X17761905Y-6024819D01*
X17761905Y-6024819D02*
X18142857Y-6024819D01*
X18142857Y-6024819D02*
X18238095Y-6072438D01*
X18238095Y-6072438D02*
X18285714Y-6120057D01*
X18285714Y-6120057D02*
X18333333Y-6215295D01*
X18333333Y-6215295D02*
X18333333Y-6358152D01*
X18333333Y-6358152D02*
X18285714Y-6453390D01*
X18285714Y-6453390D02*
X18238095Y-6501009D01*
X18238095Y-6501009D02*
X18142857Y-6548628D01*
X18142857Y-6548628D02*
X17761905Y-6548628D01*
X18809524Y-7024819D02*
X19000000Y-7024819D01*
X19000000Y-7024819D02*
X19095238Y-6977200D01*
X19095238Y-6977200D02*
X19142857Y-6929580D01*
X19142857Y-6929580D02*
X19238095Y-6786723D01*
X19238095Y-6786723D02*
X19285714Y-6596247D01*
X19285714Y-6596247D02*
X19285714Y-6215295D01*
X19285714Y-6215295D02*
X19238095Y-6120057D01*
X19238095Y-6120057D02*
X19190476Y-6072438D01*
X19190476Y-6072438D02*
X19095238Y-6024819D01*
X19095238Y-6024819D02*
X18904762Y-6024819D01*
X18904762Y-6024819D02*
X18809524Y-6072438D01*
X18809524Y-6072438D02*
X18761905Y-6120057D01*
X18761905Y-6120057D02*
X18714286Y-6215295D01*
X18714286Y-6215295D02*
X18714286Y-6453390D01*
X18714286Y-6453390D02*
X18761905Y-6548628D01*
X18761905Y-6548628D02*
X18809524Y-6596247D01*
X18809524Y-6596247D02*
X18904762Y-6643866D01*
X18904762Y-6643866D02*
X19095238Y-6643866D01*
X19095238Y-6643866D02*
X19190476Y-6596247D01*
X19190476Y-6596247D02*
X19238095Y-6548628D01*
X19238095Y-6548628D02*
X19285714Y-6453390D01*
X30833333Y-11929580D02*
X30785714Y-11977200D01*
X30785714Y-11977200D02*
X30642857Y-12024819D01*
X30642857Y-12024819D02*
X30547619Y-12024819D01*
X30547619Y-12024819D02*
X30404762Y-11977200D01*
X30404762Y-11977200D02*
X30309524Y-11881961D01*
X30309524Y-11881961D02*
X30261905Y-11786723D01*
X30261905Y-11786723D02*
X30214286Y-11596247D01*
X30214286Y-11596247D02*
X30214286Y-11453390D01*
X30214286Y-11453390D02*
X30261905Y-11262914D01*
X30261905Y-11262914D02*
X30309524Y-11167676D01*
X30309524Y-11167676D02*
X30404762Y-11072438D01*
X30404762Y-11072438D02*
X30547619Y-11024819D01*
X30547619Y-11024819D02*
X30642857Y-11024819D01*
X30642857Y-11024819D02*
X30785714Y-11072438D01*
X30785714Y-11072438D02*
X30833333Y-11120057D01*
X31404762Y-11453390D02*
X31309524Y-11405771D01*
X31309524Y-11405771D02*
X31261905Y-11358152D01*
X31261905Y-11358152D02*
X31214286Y-11262914D01*
X31214286Y-11262914D02*
X31214286Y-11215295D01*
X31214286Y-11215295D02*
X31261905Y-11120057D01*
X31261905Y-11120057D02*
X31309524Y-11072438D01*
X31309524Y-11072438D02*
X31404762Y-11024819D01*
X31404762Y-11024819D02*
X31595238Y-11024819D01*
X31595238Y-11024819D02*
X31690476Y-11072438D01*
X31690476Y-11072438D02*
X31738095Y-11120057D01*
X31738095Y-11120057D02*
X31785714Y-11215295D01*
X31785714Y-11215295D02*
X31785714Y-11262914D01*
X31785714Y-11262914D02*
X31738095Y-11358152D01*
X31738095Y-11358152D02*
X31690476Y-11405771D01*
X31690476Y-11405771D02*
X31595238Y-11453390D01*
X31595238Y-11453390D02*
X31404762Y-11453390D01*
X31404762Y-11453390D02*
X31309524Y-11501009D01*
X31309524Y-11501009D02*
X31261905Y-11548628D01*
X31261905Y-11548628D02*
X31214286Y-11643866D01*
X31214286Y-11643866D02*
X31214286Y-11834342D01*
X31214286Y-11834342D02*
X31261905Y-11929580D01*
X31261905Y-11929580D02*
X31309524Y-11977200D01*
X31309524Y-11977200D02*
X31404762Y-12024819D01*
X31404762Y-12024819D02*
X31595238Y-12024819D01*
X31595238Y-12024819D02*
X31690476Y-11977200D01*
X31690476Y-11977200D02*
X31738095Y-11929580D01*
X31738095Y-11929580D02*
X31785714Y-11834342D01*
X31785714Y-11834342D02*
X31785714Y-11643866D01*
X31785714Y-11643866D02*
X31738095Y-11548628D01*
X31738095Y-11548628D02*
X31690476Y-11501009D01*
X31690476Y-11501009D02*
X31595238Y-11453390D01*
X1738095Y-36754819D02*
X1738095Y-35754819D01*
X1738095Y-36231009D02*
X2309523Y-36231009D01*
X2309523Y-36754819D02*
X2309523Y-35754819D01*
X2690476Y-35754819D02*
X3309523Y-35754819D01*
X3309523Y-35754819D02*
X2976190Y-36135771D01*
X2976190Y-36135771D02*
X3119047Y-36135771D01*
X3119047Y-36135771D02*
X3214285Y-36183390D01*
X3214285Y-36183390D02*
X3261904Y-36231009D01*
X3261904Y-36231009D02*
X3309523Y-36326247D01*
X3309523Y-36326247D02*
X3309523Y-36564342D01*
X3309523Y-36564342D02*
X3261904Y-36659580D01*
X3261904Y-36659580D02*
X3214285Y-36707200D01*
X3214285Y-36707200D02*
X3119047Y-36754819D01*
X3119047Y-36754819D02*
X2833333Y-36754819D01*
X2833333Y-36754819D02*
X2738095Y-36707200D01*
X2738095Y-36707200D02*
X2690476Y-36659580D01*
X9833333Y-15024819D02*
X9500000Y-14548628D01*
X9261905Y-15024819D02*
X9261905Y-14024819D01*
X9261905Y-14024819D02*
X9642857Y-14024819D01*
X9642857Y-14024819D02*
X9738095Y-14072438D01*
X9738095Y-14072438D02*
X9785714Y-14120057D01*
X9785714Y-14120057D02*
X9833333Y-14215295D01*
X9833333Y-14215295D02*
X9833333Y-14358152D01*
X9833333Y-14358152D02*
X9785714Y-14453390D01*
X9785714Y-14453390D02*
X9738095Y-14501009D01*
X9738095Y-14501009D02*
X9642857Y-14548628D01*
X9642857Y-14548628D02*
X9261905Y-14548628D01*
X10690476Y-14358152D02*
X10690476Y-15024819D01*
X10452381Y-13977200D02*
X10214286Y-14691485D01*
X10214286Y-14691485D02*
X10833333Y-14691485D01*
X46738095Y-36754819D02*
X46738095Y-35754819D01*
X46738095Y-36231009D02*
X47309523Y-36231009D01*
X47309523Y-36754819D02*
X47309523Y-35754819D01*
X48214285Y-36088152D02*
X48214285Y-36754819D01*
X47976190Y-35707200D02*
X47738095Y-36421485D01*
X47738095Y-36421485D02*
X48357142Y-36421485D01*
X1738095Y245180D02*
X1738095Y1245180D01*
X1738095Y768990D02*
X2309523Y768990D01*
X2309523Y245180D02*
X2309523Y1245180D01*
X3309523Y245180D02*
X2738095Y245180D01*
X3023809Y245180D02*
X3023809Y1245180D01*
X3023809Y1245180D02*
X2928571Y1102323D01*
X2928571Y1102323D02*
X2833333Y1007085D01*
X2833333Y1007085D02*
X2738095Y959466D01*
X30833333Y-9429580D02*
X30785714Y-9477200D01*
X30785714Y-9477200D02*
X30642857Y-9524819D01*
X30642857Y-9524819D02*
X30547619Y-9524819D01*
X30547619Y-9524819D02*
X30404762Y-9477200D01*
X30404762Y-9477200D02*
X30309524Y-9381961D01*
X30309524Y-9381961D02*
X30261905Y-9286723D01*
X30261905Y-9286723D02*
X30214286Y-9096247D01*
X30214286Y-9096247D02*
X30214286Y-8953390D01*
X30214286Y-8953390D02*
X30261905Y-8762914D01*
X30261905Y-8762914D02*
X30309524Y-8667676D01*
X30309524Y-8667676D02*
X30404762Y-8572438D01*
X30404762Y-8572438D02*
X30547619Y-8524819D01*
X30547619Y-8524819D02*
X30642857Y-8524819D01*
X30642857Y-8524819D02*
X30785714Y-8572438D01*
X30785714Y-8572438D02*
X30833333Y-8620057D01*
X31166667Y-8524819D02*
X31833333Y-8524819D01*
X31833333Y-8524819D02*
X31404762Y-9524819D01*
X13833333Y-14929580D02*
X13785714Y-14977200D01*
X13785714Y-14977200D02*
X13642857Y-15024819D01*
X13642857Y-15024819D02*
X13547619Y-15024819D01*
X13547619Y-15024819D02*
X13404762Y-14977200D01*
X13404762Y-14977200D02*
X13309524Y-14881961D01*
X13309524Y-14881961D02*
X13261905Y-14786723D01*
X13261905Y-14786723D02*
X13214286Y-14596247D01*
X13214286Y-14596247D02*
X13214286Y-14453390D01*
X13214286Y-14453390D02*
X13261905Y-14262914D01*
X13261905Y-14262914D02*
X13309524Y-14167676D01*
X13309524Y-14167676D02*
X13404762Y-14072438D01*
X13404762Y-14072438D02*
X13547619Y-14024819D01*
X13547619Y-14024819D02*
X13642857Y-14024819D01*
X13642857Y-14024819D02*
X13785714Y-14072438D01*
X13785714Y-14072438D02*
X13833333Y-14120057D01*
X14690476Y-14358152D02*
X14690476Y-15024819D01*
X14452381Y-13977200D02*
X14214286Y-14691485D01*
X14214286Y-14691485D02*
X14833333Y-14691485D01*
X14761905Y-31024819D02*
X14761905Y-30024819D01*
X14761905Y-30024819D02*
X15000000Y-30024819D01*
X15000000Y-30024819D02*
X15142857Y-30072438D01*
X15142857Y-30072438D02*
X15238095Y-30167676D01*
X15238095Y-30167676D02*
X15285714Y-30262914D01*
X15285714Y-30262914D02*
X15333333Y-30453390D01*
X15333333Y-30453390D02*
X15333333Y-30596247D01*
X15333333Y-30596247D02*
X15285714Y-30786723D01*
X15285714Y-30786723D02*
X15238095Y-30881961D01*
X15238095Y-30881961D02*
X15142857Y-30977200D01*
X15142857Y-30977200D02*
X15000000Y-31024819D01*
X15000000Y-31024819D02*
X14761905Y-31024819D01*
X15666667Y-30024819D02*
X16285714Y-30024819D01*
X16285714Y-30024819D02*
X15952381Y-30405771D01*
X15952381Y-30405771D02*
X16095238Y-30405771D01*
X16095238Y-30405771D02*
X16190476Y-30453390D01*
X16190476Y-30453390D02*
X16238095Y-30501009D01*
X16238095Y-30501009D02*
X16285714Y-30596247D01*
X16285714Y-30596247D02*
X16285714Y-30834342D01*
X16285714Y-30834342D02*
X16238095Y-30929580D01*
X16238095Y-30929580D02*
X16190476Y-30977200D01*
X16190476Y-30977200D02*
X16095238Y-31024819D01*
X16095238Y-31024819D02*
X15809524Y-31024819D01*
X15809524Y-31024819D02*
X15714286Y-30977200D01*
X15714286Y-30977200D02*
X15666667Y-30929580D01*
X6666667Y-34907200D02*
X6809524Y-34954819D01*
X6809524Y-34954819D02*
X7047619Y-34954819D01*
X7047619Y-34954819D02*
X7142857Y-34907200D01*
X7142857Y-34907200D02*
X7190476Y-34859580D01*
X7190476Y-34859580D02*
X7238095Y-34764342D01*
X7238095Y-34764342D02*
X7238095Y-34669104D01*
X7238095Y-34669104D02*
X7190476Y-34573866D01*
X7190476Y-34573866D02*
X7142857Y-34526247D01*
X7142857Y-34526247D02*
X7047619Y-34478628D01*
X7047619Y-34478628D02*
X6857143Y-34431009D01*
X6857143Y-34431009D02*
X6761905Y-34383390D01*
X6761905Y-34383390D02*
X6714286Y-34335771D01*
X6714286Y-34335771D02*
X6666667Y-34240533D01*
X6666667Y-34240533D02*
X6666667Y-34145295D01*
X6666667Y-34145295D02*
X6714286Y-34050057D01*
X6714286Y-34050057D02*
X6761905Y-34002438D01*
X6761905Y-34002438D02*
X6857143Y-33954819D01*
X6857143Y-33954819D02*
X7095238Y-33954819D01*
X7095238Y-33954819D02*
X7238095Y-34002438D01*
X7571429Y-33954819D02*
X7809524Y-34954819D01*
X7809524Y-34954819D02*
X8000000Y-34240533D01*
X8000000Y-34240533D02*
X8190476Y-34954819D01*
X8190476Y-34954819D02*
X8428572Y-33954819D01*
X8761905Y-34050057D02*
X8809524Y-34002438D01*
X8809524Y-34002438D02*
X8904762Y-33954819D01*
X8904762Y-33954819D02*
X9142857Y-33954819D01*
X9142857Y-33954819D02*
X9238095Y-34002438D01*
X9238095Y-34002438D02*
X9285714Y-34050057D01*
X9285714Y-34050057D02*
X9333333Y-34145295D01*
X9333333Y-34145295D02*
X9333333Y-34240533D01*
X9333333Y-34240533D02*
X9285714Y-34383390D01*
X9285714Y-34383390D02*
X8714286Y-34954819D01*
X8714286Y-34954819D02*
X9333333Y-34954819D01*
X37857142Y-29179580D02*
X37809523Y-29227200D01*
X37809523Y-29227200D02*
X37666666Y-29274819D01*
X37666666Y-29274819D02*
X37571428Y-29274819D01*
X37571428Y-29274819D02*
X37428571Y-29227200D01*
X37428571Y-29227200D02*
X37333333Y-29131961D01*
X37333333Y-29131961D02*
X37285714Y-29036723D01*
X37285714Y-29036723D02*
X37238095Y-28846247D01*
X37238095Y-28846247D02*
X37238095Y-28703390D01*
X37238095Y-28703390D02*
X37285714Y-28512914D01*
X37285714Y-28512914D02*
X37333333Y-28417676D01*
X37333333Y-28417676D02*
X37428571Y-28322438D01*
X37428571Y-28322438D02*
X37571428Y-28274819D01*
X37571428Y-28274819D02*
X37666666Y-28274819D01*
X37666666Y-28274819D02*
X37809523Y-28322438D01*
X37809523Y-28322438D02*
X37857142Y-28370057D01*
X38809523Y-29274819D02*
X38238095Y-29274819D01*
X38523809Y-29274819D02*
X38523809Y-28274819D01*
X38523809Y-28274819D02*
X38428571Y-28417676D01*
X38428571Y-28417676D02*
X38333333Y-28512914D01*
X38333333Y-28512914D02*
X38238095Y-28560533D01*
X39428571Y-28274819D02*
X39523809Y-28274819D01*
X39523809Y-28274819D02*
X39619047Y-28322438D01*
X39619047Y-28322438D02*
X39666666Y-28370057D01*
X39666666Y-28370057D02*
X39714285Y-28465295D01*
X39714285Y-28465295D02*
X39761904Y-28655771D01*
X39761904Y-28655771D02*
X39761904Y-28893866D01*
X39761904Y-28893866D02*
X39714285Y-29084342D01*
X39714285Y-29084342D02*
X39666666Y-29179580D01*
X39666666Y-29179580D02*
X39619047Y-29227200D01*
X39619047Y-29227200D02*
X39523809Y-29274819D01*
X39523809Y-29274819D02*
X39428571Y-29274819D01*
X39428571Y-29274819D02*
X39333333Y-29227200D01*
X39333333Y-29227200D02*
X39285714Y-29179580D01*
X39285714Y-29179580D02*
X39238095Y-29084342D01*
X39238095Y-29084342D02*
X39190476Y-28893866D01*
X39190476Y-28893866D02*
X39190476Y-28655771D01*
X39190476Y-28655771D02*
X39238095Y-28465295D01*
X39238095Y-28465295D02*
X39285714Y-28370057D01*
X39285714Y-28370057D02*
X39333333Y-28322438D01*
X39333333Y-28322438D02*
X39428571Y-28274819D01*
X9833333Y-10024819D02*
X9500000Y-9548628D01*
X9261905Y-10024819D02*
X9261905Y-9024819D01*
X9261905Y-9024819D02*
X9642857Y-9024819D01*
X9642857Y-9024819D02*
X9738095Y-9072438D01*
X9738095Y-9072438D02*
X9785714Y-9120057D01*
X9785714Y-9120057D02*
X9833333Y-9215295D01*
X9833333Y-9215295D02*
X9833333Y-9358152D01*
X9833333Y-9358152D02*
X9785714Y-9453390D01*
X9785714Y-9453390D02*
X9738095Y-9501009D01*
X9738095Y-9501009D02*
X9642857Y-9548628D01*
X9642857Y-9548628D02*
X9261905Y-9548628D01*
X10214286Y-9120057D02*
X10261905Y-9072438D01*
X10261905Y-9072438D02*
X10357143Y-9024819D01*
X10357143Y-9024819D02*
X10595238Y-9024819D01*
X10595238Y-9024819D02*
X10690476Y-9072438D01*
X10690476Y-9072438D02*
X10738095Y-9120057D01*
X10738095Y-9120057D02*
X10785714Y-9215295D01*
X10785714Y-9215295D02*
X10785714Y-9310533D01*
X10785714Y-9310533D02*
X10738095Y-9453390D01*
X10738095Y-9453390D02*
X10166667Y-10024819D01*
X10166667Y-10024819D02*
X10785714Y-10024819D01*
X13833333Y-7429580D02*
X13785714Y-7477200D01*
X13785714Y-7477200D02*
X13642857Y-7524819D01*
X13642857Y-7524819D02*
X13547619Y-7524819D01*
X13547619Y-7524819D02*
X13404762Y-7477200D01*
X13404762Y-7477200D02*
X13309524Y-7381961D01*
X13309524Y-7381961D02*
X13261905Y-7286723D01*
X13261905Y-7286723D02*
X13214286Y-7096247D01*
X13214286Y-7096247D02*
X13214286Y-6953390D01*
X13214286Y-6953390D02*
X13261905Y-6762914D01*
X13261905Y-6762914D02*
X13309524Y-6667676D01*
X13309524Y-6667676D02*
X13404762Y-6572438D01*
X13404762Y-6572438D02*
X13547619Y-6524819D01*
X13547619Y-6524819D02*
X13642857Y-6524819D01*
X13642857Y-6524819D02*
X13785714Y-6572438D01*
X13785714Y-6572438D02*
X13833333Y-6620057D01*
X14785714Y-7524819D02*
X14214286Y-7524819D01*
X14500000Y-7524819D02*
X14500000Y-6524819D01*
X14500000Y-6524819D02*
X14404762Y-6667676D01*
X14404762Y-6667676D02*
X14309524Y-6762914D01*
X14309524Y-6762914D02*
X14214286Y-6810533D01*
X24666666Y-33009819D02*
X24666666Y-33724104D01*
X24666666Y-33724104D02*
X24619047Y-33866961D01*
X24619047Y-33866961D02*
X24523809Y-33962200D01*
X24523809Y-33962200D02*
X24380952Y-34009819D01*
X24380952Y-34009819D02*
X24285714Y-34009819D01*
X25666666Y-34009819D02*
X25095238Y-34009819D01*
X25380952Y-34009819D02*
X25380952Y-33009819D01*
X25380952Y-33009819D02*
X25285714Y-33152676D01*
X25285714Y-33152676D02*
X25190476Y-33247914D01*
X25190476Y-33247914D02*
X25095238Y-33295533D01*
X36333333Y-26429580D02*
X36285714Y-26477200D01*
X36285714Y-26477200D02*
X36142857Y-26524819D01*
X36142857Y-26524819D02*
X36047619Y-26524819D01*
X36047619Y-26524819D02*
X35904762Y-26477200D01*
X35904762Y-26477200D02*
X35809524Y-26381961D01*
X35809524Y-26381961D02*
X35761905Y-26286723D01*
X35761905Y-26286723D02*
X35714286Y-26096247D01*
X35714286Y-26096247D02*
X35714286Y-25953390D01*
X35714286Y-25953390D02*
X35761905Y-25762914D01*
X35761905Y-25762914D02*
X35809524Y-25667676D01*
X35809524Y-25667676D02*
X35904762Y-25572438D01*
X35904762Y-25572438D02*
X36047619Y-25524819D01*
X36047619Y-25524819D02*
X36142857Y-25524819D01*
X36142857Y-25524819D02*
X36285714Y-25572438D01*
X36285714Y-25572438D02*
X36333333Y-25620057D01*
X36809524Y-26524819D02*
X37000000Y-26524819D01*
X37000000Y-26524819D02*
X37095238Y-26477200D01*
X37095238Y-26477200D02*
X37142857Y-26429580D01*
X37142857Y-26429580D02*
X37238095Y-26286723D01*
X37238095Y-26286723D02*
X37285714Y-26096247D01*
X37285714Y-26096247D02*
X37285714Y-25715295D01*
X37285714Y-25715295D02*
X37238095Y-25620057D01*
X37238095Y-25620057D02*
X37190476Y-25572438D01*
X37190476Y-25572438D02*
X37095238Y-25524819D01*
X37095238Y-25524819D02*
X36904762Y-25524819D01*
X36904762Y-25524819D02*
X36809524Y-25572438D01*
X36809524Y-25572438D02*
X36761905Y-25620057D01*
X36761905Y-25620057D02*
X36714286Y-25715295D01*
X36714286Y-25715295D02*
X36714286Y-25953390D01*
X36714286Y-25953390D02*
X36761905Y-26048628D01*
X36761905Y-26048628D02*
X36809524Y-26096247D01*
X36809524Y-26096247D02*
X36904762Y-26143866D01*
X36904762Y-26143866D02*
X37095238Y-26143866D01*
X37095238Y-26143866D02*
X37190476Y-26096247D01*
X37190476Y-26096247D02*
X37238095Y-26048628D01*
X37238095Y-26048628D02*
X37285714Y-25953390D01*
X36333333Y-9024819D02*
X36000000Y-8548628D01*
X35761905Y-9024819D02*
X35761905Y-8024819D01*
X35761905Y-8024819D02*
X36142857Y-8024819D01*
X36142857Y-8024819D02*
X36238095Y-8072438D01*
X36238095Y-8072438D02*
X36285714Y-8120057D01*
X36285714Y-8120057D02*
X36333333Y-8215295D01*
X36333333Y-8215295D02*
X36333333Y-8358152D01*
X36333333Y-8358152D02*
X36285714Y-8453390D01*
X36285714Y-8453390D02*
X36238095Y-8501009D01*
X36238095Y-8501009D02*
X36142857Y-8548628D01*
X36142857Y-8548628D02*
X35761905Y-8548628D01*
X36904762Y-8453390D02*
X36809524Y-8405771D01*
X36809524Y-8405771D02*
X36761905Y-8358152D01*
X36761905Y-8358152D02*
X36714286Y-8262914D01*
X36714286Y-8262914D02*
X36714286Y-8215295D01*
X36714286Y-8215295D02*
X36761905Y-8120057D01*
X36761905Y-8120057D02*
X36809524Y-8072438D01*
X36809524Y-8072438D02*
X36904762Y-8024819D01*
X36904762Y-8024819D02*
X37095238Y-8024819D01*
X37095238Y-8024819D02*
X37190476Y-8072438D01*
X37190476Y-8072438D02*
X37238095Y-8120057D01*
X37238095Y-8120057D02*
X37285714Y-8215295D01*
X37285714Y-8215295D02*
X37285714Y-8262914D01*
X37285714Y-8262914D02*
X37238095Y-8358152D01*
X37238095Y-8358152D02*
X37190476Y-8405771D01*
X37190476Y-8405771D02*
X37095238Y-8453390D01*
X37095238Y-8453390D02*
X36904762Y-8453390D01*
X36904762Y-8453390D02*
X36809524Y-8501009D01*
X36809524Y-8501009D02*
X36761905Y-8548628D01*
X36761905Y-8548628D02*
X36714286Y-8643866D01*
X36714286Y-8643866D02*
X36714286Y-8834342D01*
X36714286Y-8834342D02*
X36761905Y-8929580D01*
X36761905Y-8929580D02*
X36809524Y-8977200D01*
X36809524Y-8977200D02*
X36904762Y-9024819D01*
X36904762Y-9024819D02*
X37095238Y-9024819D01*
X37095238Y-9024819D02*
X37190476Y-8977200D01*
X37190476Y-8977200D02*
X37238095Y-8929580D01*
X37238095Y-8929580D02*
X37285714Y-8834342D01*
X37285714Y-8834342D02*
X37285714Y-8643866D01*
X37285714Y-8643866D02*
X37238095Y-8548628D01*
X37238095Y-8548628D02*
X37190476Y-8501009D01*
X37190476Y-8501009D02*
X37095238Y-8453390D01*
X13833333Y-9929580D02*
X13785714Y-9977200D01*
X13785714Y-9977200D02*
X13642857Y-10024819D01*
X13642857Y-10024819D02*
X13547619Y-10024819D01*
X13547619Y-10024819D02*
X13404762Y-9977200D01*
X13404762Y-9977200D02*
X13309524Y-9881961D01*
X13309524Y-9881961D02*
X13261905Y-9786723D01*
X13261905Y-9786723D02*
X13214286Y-9596247D01*
X13214286Y-9596247D02*
X13214286Y-9453390D01*
X13214286Y-9453390D02*
X13261905Y-9262914D01*
X13261905Y-9262914D02*
X13309524Y-9167676D01*
X13309524Y-9167676D02*
X13404762Y-9072438D01*
X13404762Y-9072438D02*
X13547619Y-9024819D01*
X13547619Y-9024819D02*
X13642857Y-9024819D01*
X13642857Y-9024819D02*
X13785714Y-9072438D01*
X13785714Y-9072438D02*
X13833333Y-9120057D01*
X14214286Y-9120057D02*
X14261905Y-9072438D01*
X14261905Y-9072438D02*
X14357143Y-9024819D01*
X14357143Y-9024819D02*
X14595238Y-9024819D01*
X14595238Y-9024819D02*
X14690476Y-9072438D01*
X14690476Y-9072438D02*
X14738095Y-9120057D01*
X14738095Y-9120057D02*
X14785714Y-9215295D01*
X14785714Y-9215295D02*
X14785714Y-9310533D01*
X14785714Y-9310533D02*
X14738095Y-9453390D01*
X14738095Y-9453390D02*
X14166667Y-10024819D01*
X14166667Y-10024819D02*
X14785714Y-10024819D01*
X17833333Y-34524819D02*
X17500000Y-34048628D01*
X17261905Y-34524819D02*
X17261905Y-33524819D01*
X17261905Y-33524819D02*
X17642857Y-33524819D01*
X17642857Y-33524819D02*
X17738095Y-33572438D01*
X17738095Y-33572438D02*
X17785714Y-33620057D01*
X17785714Y-33620057D02*
X17833333Y-33715295D01*
X17833333Y-33715295D02*
X17833333Y-33858152D01*
X17833333Y-33858152D02*
X17785714Y-33953390D01*
X17785714Y-33953390D02*
X17738095Y-34001009D01*
X17738095Y-34001009D02*
X17642857Y-34048628D01*
X17642857Y-34048628D02*
X17261905Y-34048628D01*
X18690476Y-33524819D02*
X18500000Y-33524819D01*
X18500000Y-33524819D02*
X18404762Y-33572438D01*
X18404762Y-33572438D02*
X18357143Y-33620057D01*
X18357143Y-33620057D02*
X18261905Y-33762914D01*
X18261905Y-33762914D02*
X18214286Y-33953390D01*
X18214286Y-33953390D02*
X18214286Y-34334342D01*
X18214286Y-34334342D02*
X18261905Y-34429580D01*
X18261905Y-34429580D02*
X18309524Y-34477200D01*
X18309524Y-34477200D02*
X18404762Y-34524819D01*
X18404762Y-34524819D02*
X18595238Y-34524819D01*
X18595238Y-34524819D02*
X18690476Y-34477200D01*
X18690476Y-34477200D02*
X18738095Y-34429580D01*
X18738095Y-34429580D02*
X18785714Y-34334342D01*
X18785714Y-34334342D02*
X18785714Y-34096247D01*
X18785714Y-34096247D02*
X18738095Y-34001009D01*
X18738095Y-34001009D02*
X18690476Y-33953390D01*
X18690476Y-33953390D02*
X18595238Y-33905771D01*
X18595238Y-33905771D02*
X18404762Y-33905771D01*
X18404762Y-33905771D02*
X18309524Y-33953390D01*
X18309524Y-33953390D02*
X18261905Y-34001009D01*
X18261905Y-34001009D02*
X18214286Y-34096247D01*
X44954819Y-19261904D02*
X45764342Y-19261904D01*
X45764342Y-19261904D02*
X45859580Y-19214285D01*
X45859580Y-19214285D02*
X45907200Y-19166666D01*
X45907200Y-19166666D02*
X45954819Y-19071428D01*
X45954819Y-19071428D02*
X45954819Y-18880952D01*
X45954819Y-18880952D02*
X45907200Y-18785714D01*
X45907200Y-18785714D02*
X45859580Y-18738095D01*
X45859580Y-18738095D02*
X45764342Y-18690476D01*
X45764342Y-18690476D02*
X44954819Y-18690476D01*
X44954819Y-18309523D02*
X44954819Y-17690476D01*
X44954819Y-17690476D02*
X45335771Y-18023809D01*
X45335771Y-18023809D02*
X45335771Y-17880952D01*
X45335771Y-17880952D02*
X45383390Y-17785714D01*
X45383390Y-17785714D02*
X45431009Y-17738095D01*
X45431009Y-17738095D02*
X45526247Y-17690476D01*
X45526247Y-17690476D02*
X45764342Y-17690476D01*
X45764342Y-17690476D02*
X45859580Y-17738095D01*
X45859580Y-17738095D02*
X45907200Y-17785714D01*
X45907200Y-17785714D02*
X45954819Y-17880952D01*
X45954819Y-17880952D02*
X45954819Y-18166666D01*
X45954819Y-18166666D02*
X45907200Y-18261904D01*
X45907200Y-18261904D02*
X45859580Y-18309523D01*
X12333333Y-31024819D02*
X12000000Y-30548628D01*
X11761905Y-31024819D02*
X11761905Y-30024819D01*
X11761905Y-30024819D02*
X12142857Y-30024819D01*
X12142857Y-30024819D02*
X12238095Y-30072438D01*
X12238095Y-30072438D02*
X12285714Y-30120057D01*
X12285714Y-30120057D02*
X12333333Y-30215295D01*
X12333333Y-30215295D02*
X12333333Y-30358152D01*
X12333333Y-30358152D02*
X12285714Y-30453390D01*
X12285714Y-30453390D02*
X12238095Y-30501009D01*
X12238095Y-30501009D02*
X12142857Y-30548628D01*
X12142857Y-30548628D02*
X11761905Y-30548628D01*
X13238095Y-30024819D02*
X12761905Y-30024819D01*
X12761905Y-30024819D02*
X12714286Y-30501009D01*
X12714286Y-30501009D02*
X12761905Y-30453390D01*
X12761905Y-30453390D02*
X12857143Y-30405771D01*
X12857143Y-30405771D02*
X13095238Y-30405771D01*
X13095238Y-30405771D02*
X13190476Y-30453390D01*
X13190476Y-30453390D02*
X13238095Y-30501009D01*
X13238095Y-30501009D02*
X13285714Y-30596247D01*
X13285714Y-30596247D02*
X13285714Y-30834342D01*
X13285714Y-30834342D02*
X13238095Y-30929580D01*
X13238095Y-30929580D02*
X13190476Y-30977200D01*
X13190476Y-30977200D02*
X13095238Y-31024819D01*
X13095238Y-31024819D02*
X12857143Y-31024819D01*
X12857143Y-31024819D02*
X12761905Y-30977200D01*
X12761905Y-30977200D02*
X12714286Y-30929580D01*
X13833333Y-12429580D02*
X13785714Y-12477200D01*
X13785714Y-12477200D02*
X13642857Y-12524819D01*
X13642857Y-12524819D02*
X13547619Y-12524819D01*
X13547619Y-12524819D02*
X13404762Y-12477200D01*
X13404762Y-12477200D02*
X13309524Y-12381961D01*
X13309524Y-12381961D02*
X13261905Y-12286723D01*
X13261905Y-12286723D02*
X13214286Y-12096247D01*
X13214286Y-12096247D02*
X13214286Y-11953390D01*
X13214286Y-11953390D02*
X13261905Y-11762914D01*
X13261905Y-11762914D02*
X13309524Y-11667676D01*
X13309524Y-11667676D02*
X13404762Y-11572438D01*
X13404762Y-11572438D02*
X13547619Y-11524819D01*
X13547619Y-11524819D02*
X13642857Y-11524819D01*
X13642857Y-11524819D02*
X13785714Y-11572438D01*
X13785714Y-11572438D02*
X13833333Y-11620057D01*
X14166667Y-11524819D02*
X14785714Y-11524819D01*
X14785714Y-11524819D02*
X14452381Y-11905771D01*
X14452381Y-11905771D02*
X14595238Y-11905771D01*
X14595238Y-11905771D02*
X14690476Y-11953390D01*
X14690476Y-11953390D02*
X14738095Y-12001009D01*
X14738095Y-12001009D02*
X14785714Y-12096247D01*
X14785714Y-12096247D02*
X14785714Y-12334342D01*
X14785714Y-12334342D02*
X14738095Y-12429580D01*
X14738095Y-12429580D02*
X14690476Y-12477200D01*
X14690476Y-12477200D02*
X14595238Y-12524819D01*
X14595238Y-12524819D02*
X14309524Y-12524819D01*
X14309524Y-12524819D02*
X14214286Y-12477200D01*
X14214286Y-12477200D02*
X14166667Y-12429580D01*
X35833333Y-17179580D02*
X35785714Y-17227200D01*
X35785714Y-17227200D02*
X35642857Y-17274819D01*
X35642857Y-17274819D02*
X35547619Y-17274819D01*
X35547619Y-17274819D02*
X35404762Y-17227200D01*
X35404762Y-17227200D02*
X35309524Y-17131961D01*
X35309524Y-17131961D02*
X35261905Y-17036723D01*
X35261905Y-17036723D02*
X35214286Y-16846247D01*
X35214286Y-16846247D02*
X35214286Y-16703390D01*
X35214286Y-16703390D02*
X35261905Y-16512914D01*
X35261905Y-16512914D02*
X35309524Y-16417676D01*
X35309524Y-16417676D02*
X35404762Y-16322438D01*
X35404762Y-16322438D02*
X35547619Y-16274819D01*
X35547619Y-16274819D02*
X35642857Y-16274819D01*
X35642857Y-16274819D02*
X35785714Y-16322438D01*
X35785714Y-16322438D02*
X35833333Y-16370057D01*
X36690476Y-16274819D02*
X36500000Y-16274819D01*
X36500000Y-16274819D02*
X36404762Y-16322438D01*
X36404762Y-16322438D02*
X36357143Y-16370057D01*
X36357143Y-16370057D02*
X36261905Y-16512914D01*
X36261905Y-16512914D02*
X36214286Y-16703390D01*
X36214286Y-16703390D02*
X36214286Y-17084342D01*
X36214286Y-17084342D02*
X36261905Y-17179580D01*
X36261905Y-17179580D02*
X36309524Y-17227200D01*
X36309524Y-17227200D02*
X36404762Y-17274819D01*
X36404762Y-17274819D02*
X36595238Y-17274819D01*
X36595238Y-17274819D02*
X36690476Y-17227200D01*
X36690476Y-17227200D02*
X36738095Y-17179580D01*
X36738095Y-17179580D02*
X36785714Y-17084342D01*
X36785714Y-17084342D02*
X36785714Y-16846247D01*
X36785714Y-16846247D02*
X36738095Y-16751009D01*
X36738095Y-16751009D02*
X36690476Y-16703390D01*
X36690476Y-16703390D02*
X36595238Y-16655771D01*
X36595238Y-16655771D02*
X36404762Y-16655771D01*
X36404762Y-16655771D02*
X36309524Y-16703390D01*
X36309524Y-16703390D02*
X36261905Y-16751009D01*
X36261905Y-16751009D02*
X36214286Y-16846247D01*
X35833333Y-14179580D02*
X35785714Y-14227200D01*
X35785714Y-14227200D02*
X35642857Y-14274819D01*
X35642857Y-14274819D02*
X35547619Y-14274819D01*
X35547619Y-14274819D02*
X35404762Y-14227200D01*
X35404762Y-14227200D02*
X35309524Y-14131961D01*
X35309524Y-14131961D02*
X35261905Y-14036723D01*
X35261905Y-14036723D02*
X35214286Y-13846247D01*
X35214286Y-13846247D02*
X35214286Y-13703390D01*
X35214286Y-13703390D02*
X35261905Y-13512914D01*
X35261905Y-13512914D02*
X35309524Y-13417676D01*
X35309524Y-13417676D02*
X35404762Y-13322438D01*
X35404762Y-13322438D02*
X35547619Y-13274819D01*
X35547619Y-13274819D02*
X35642857Y-13274819D01*
X35642857Y-13274819D02*
X35785714Y-13322438D01*
X35785714Y-13322438D02*
X35833333Y-13370057D01*
X36738095Y-13274819D02*
X36261905Y-13274819D01*
X36261905Y-13274819D02*
X36214286Y-13751009D01*
X36214286Y-13751009D02*
X36261905Y-13703390D01*
X36261905Y-13703390D02*
X36357143Y-13655771D01*
X36357143Y-13655771D02*
X36595238Y-13655771D01*
X36595238Y-13655771D02*
X36690476Y-13703390D01*
X36690476Y-13703390D02*
X36738095Y-13751009D01*
X36738095Y-13751009D02*
X36785714Y-13846247D01*
X36785714Y-13846247D02*
X36785714Y-14084342D01*
X36785714Y-14084342D02*
X36738095Y-14179580D01*
X36738095Y-14179580D02*
X36690476Y-14227200D01*
X36690476Y-14227200D02*
X36595238Y-14274819D01*
X36595238Y-14274819D02*
X36357143Y-14274819D01*
X36357143Y-14274819D02*
X36261905Y-14227200D01*
X36261905Y-14227200D02*
X36214286Y-14179580D01*
X20857142Y-7024819D02*
X20523809Y-6548628D01*
X20285714Y-7024819D02*
X20285714Y-6024819D01*
X20285714Y-6024819D02*
X20666666Y-6024819D01*
X20666666Y-6024819D02*
X20761904Y-6072438D01*
X20761904Y-6072438D02*
X20809523Y-6120057D01*
X20809523Y-6120057D02*
X20857142Y-6215295D01*
X20857142Y-6215295D02*
X20857142Y-6358152D01*
X20857142Y-6358152D02*
X20809523Y-6453390D01*
X20809523Y-6453390D02*
X20761904Y-6501009D01*
X20761904Y-6501009D02*
X20666666Y-6548628D01*
X20666666Y-6548628D02*
X20285714Y-6548628D01*
X21809523Y-7024819D02*
X21238095Y-7024819D01*
X21523809Y-7024819D02*
X21523809Y-6024819D01*
X21523809Y-6024819D02*
X21428571Y-6167676D01*
X21428571Y-6167676D02*
X21333333Y-6262914D01*
X21333333Y-6262914D02*
X21238095Y-6310533D01*
X22428571Y-6024819D02*
X22523809Y-6024819D01*
X22523809Y-6024819D02*
X22619047Y-6072438D01*
X22619047Y-6072438D02*
X22666666Y-6120057D01*
X22666666Y-6120057D02*
X22714285Y-6215295D01*
X22714285Y-6215295D02*
X22761904Y-6405771D01*
X22761904Y-6405771D02*
X22761904Y-6643866D01*
X22761904Y-6643866D02*
X22714285Y-6834342D01*
X22714285Y-6834342D02*
X22666666Y-6929580D01*
X22666666Y-6929580D02*
X22619047Y-6977200D01*
X22619047Y-6977200D02*
X22523809Y-7024819D01*
X22523809Y-7024819D02*
X22428571Y-7024819D01*
X22428571Y-7024819D02*
X22333333Y-6977200D01*
X22333333Y-6977200D02*
X22285714Y-6929580D01*
X22285714Y-6929580D02*
X22238095Y-6834342D01*
X22238095Y-6834342D02*
X22190476Y-6643866D01*
X22190476Y-6643866D02*
X22190476Y-6405771D01*
X22190476Y-6405771D02*
X22238095Y-6215295D01*
X22238095Y-6215295D02*
X22285714Y-6120057D01*
X22285714Y-6120057D02*
X22333333Y-6072438D01*
X22333333Y-6072438D02*
X22428571Y-6024819D01*
X31833333Y-34524819D02*
X31500000Y-34048628D01*
X31261905Y-34524819D02*
X31261905Y-33524819D01*
X31261905Y-33524819D02*
X31642857Y-33524819D01*
X31642857Y-33524819D02*
X31738095Y-33572438D01*
X31738095Y-33572438D02*
X31785714Y-33620057D01*
X31785714Y-33620057D02*
X31833333Y-33715295D01*
X31833333Y-33715295D02*
X31833333Y-33858152D01*
X31833333Y-33858152D02*
X31785714Y-33953390D01*
X31785714Y-33953390D02*
X31738095Y-34001009D01*
X31738095Y-34001009D02*
X31642857Y-34048628D01*
X31642857Y-34048628D02*
X31261905Y-34048628D01*
X32166667Y-33524819D02*
X32833333Y-33524819D01*
X32833333Y-33524819D02*
X32404762Y-34524819D01*
X2666666Y-13124819D02*
X2666666Y-13839104D01*
X2666666Y-13839104D02*
X2619047Y-13981961D01*
X2619047Y-13981961D02*
X2523809Y-14077200D01*
X2523809Y-14077200D02*
X2380952Y-14124819D01*
X2380952Y-14124819D02*
X2285714Y-14124819D01*
X3095238Y-13220057D02*
X3142857Y-13172438D01*
X3142857Y-13172438D02*
X3238095Y-13124819D01*
X3238095Y-13124819D02*
X3476190Y-13124819D01*
X3476190Y-13124819D02*
X3571428Y-13172438D01*
X3571428Y-13172438D02*
X3619047Y-13220057D01*
X3619047Y-13220057D02*
X3666666Y-13315295D01*
X3666666Y-13315295D02*
X3666666Y-13410533D01*
X3666666Y-13410533D02*
X3619047Y-13553390D01*
X3619047Y-13553390D02*
X3047619Y-14124819D01*
X3047619Y-14124819D02*
X3666666Y-14124819D01*
X40238095Y-23579819D02*
X40238095Y-24389342D01*
X40238095Y-24389342D02*
X40285714Y-24484580D01*
X40285714Y-24484580D02*
X40333333Y-24532200D01*
X40333333Y-24532200D02*
X40428571Y-24579819D01*
X40428571Y-24579819D02*
X40619047Y-24579819D01*
X40619047Y-24579819D02*
X40714285Y-24532200D01*
X40714285Y-24532200D02*
X40761904Y-24484580D01*
X40761904Y-24484580D02*
X40809523Y-24389342D01*
X40809523Y-24389342D02*
X40809523Y-23579819D01*
X41714285Y-23913152D02*
X41714285Y-24579819D01*
X41476190Y-23532200D02*
X41238095Y-24246485D01*
X41238095Y-24246485D02*
X41857142Y-24246485D01*
X11761905Y-33524819D02*
X11761905Y-32524819D01*
X11761905Y-32524819D02*
X12000000Y-32524819D01*
X12000000Y-32524819D02*
X12142857Y-32572438D01*
X12142857Y-32572438D02*
X12238095Y-32667676D01*
X12238095Y-32667676D02*
X12285714Y-32762914D01*
X12285714Y-32762914D02*
X12333333Y-32953390D01*
X12333333Y-32953390D02*
X12333333Y-33096247D01*
X12333333Y-33096247D02*
X12285714Y-33286723D01*
X12285714Y-33286723D02*
X12238095Y-33381961D01*
X12238095Y-33381961D02*
X12142857Y-33477200D01*
X12142857Y-33477200D02*
X12000000Y-33524819D01*
X12000000Y-33524819D02*
X11761905Y-33524819D01*
X13285714Y-33524819D02*
X12714286Y-33524819D01*
X13000000Y-33524819D02*
X13000000Y-32524819D01*
X13000000Y-32524819D02*
X12904762Y-32667676D01*
X12904762Y-32667676D02*
X12809524Y-32762914D01*
X12809524Y-32762914D02*
X12714286Y-32810533D01*
X13844819Y-27691904D02*
X14654342Y-27691904D01*
X14654342Y-27691904D02*
X14749580Y-27644285D01*
X14749580Y-27644285D02*
X14797200Y-27596666D01*
X14797200Y-27596666D02*
X14844819Y-27501428D01*
X14844819Y-27501428D02*
X14844819Y-27310952D01*
X14844819Y-27310952D02*
X14797200Y-27215714D01*
X14797200Y-27215714D02*
X14749580Y-27168095D01*
X14749580Y-27168095D02*
X14654342Y-27120476D01*
X14654342Y-27120476D02*
X13844819Y-27120476D01*
X14844819Y-26120476D02*
X14844819Y-26691904D01*
X14844819Y-26406190D02*
X13844819Y-26406190D01*
X13844819Y-26406190D02*
X13987676Y-26501428D01*
X13987676Y-26501428D02*
X14082914Y-26596666D01*
X14082914Y-26596666D02*
X14130533Y-26691904D01*
X46738095Y245180D02*
X46738095Y1245180D01*
X46738095Y768990D02*
X47309523Y768990D01*
X47309523Y245180D02*
X47309523Y1245180D01*
X47738095Y1149942D02*
X47785714Y1197561D01*
X47785714Y1197561D02*
X47880952Y1245180D01*
X47880952Y1245180D02*
X48119047Y1245180D01*
X48119047Y1245180D02*
X48214285Y1197561D01*
X48214285Y1197561D02*
X48261904Y1149942D01*
X48261904Y1149942D02*
X48309523Y1054704D01*
X48309523Y1054704D02*
X48309523Y959466D01*
X48309523Y959466D02*
X48261904Y816609D01*
X48261904Y816609D02*
X47690476Y245180D01*
X47690476Y245180D02*
X48309523Y245180D01*
X6666667Y-30407200D02*
X6809524Y-30454819D01*
X6809524Y-30454819D02*
X7047619Y-30454819D01*
X7047619Y-30454819D02*
X7142857Y-30407200D01*
X7142857Y-30407200D02*
X7190476Y-30359580D01*
X7190476Y-30359580D02*
X7238095Y-30264342D01*
X7238095Y-30264342D02*
X7238095Y-30169104D01*
X7238095Y-30169104D02*
X7190476Y-30073866D01*
X7190476Y-30073866D02*
X7142857Y-30026247D01*
X7142857Y-30026247D02*
X7047619Y-29978628D01*
X7047619Y-29978628D02*
X6857143Y-29931009D01*
X6857143Y-29931009D02*
X6761905Y-29883390D01*
X6761905Y-29883390D02*
X6714286Y-29835771D01*
X6714286Y-29835771D02*
X6666667Y-29740533D01*
X6666667Y-29740533D02*
X6666667Y-29645295D01*
X6666667Y-29645295D02*
X6714286Y-29550057D01*
X6714286Y-29550057D02*
X6761905Y-29502438D01*
X6761905Y-29502438D02*
X6857143Y-29454819D01*
X6857143Y-29454819D02*
X7095238Y-29454819D01*
X7095238Y-29454819D02*
X7238095Y-29502438D01*
X7571429Y-29454819D02*
X7809524Y-30454819D01*
X7809524Y-30454819D02*
X8000000Y-29740533D01*
X8000000Y-29740533D02*
X8190476Y-30454819D01*
X8190476Y-30454819D02*
X8428572Y-29454819D01*
X9333333Y-30454819D02*
X8761905Y-30454819D01*
X9047619Y-30454819D02*
X9047619Y-29454819D01*
X9047619Y-29454819D02*
X8952381Y-29597676D01*
X8952381Y-29597676D02*
X8857143Y-29692914D01*
X8857143Y-29692914D02*
X8761905Y-29740533D01*
D10*
%TO.C,R1*%
X9762742Y-7977500D02*
X10237258Y-7977500D01*
X9762742Y-9022500D02*
X10237258Y-9022500D01*
%TO.C,D2*%
X35015000Y-6265000D02*
X35015000Y-7735000D01*
X35015000Y-7735000D02*
X37300000Y-7735000D01*
X37300000Y-6265000D02*
X35015000Y-6265000D01*
%TO.C,J3*%
X40890000Y-38860000D02*
X42140000Y-38860000D01*
X41190000Y-38560000D02*
X45910000Y-38560000D01*
X42500000Y-38560000D02*
X42500000Y-37950000D01*
X43800000Y-38560000D02*
X43800000Y-37950000D01*
X45910000Y-38560000D02*
X45910000Y-32440000D01*
X41800000Y-37950000D02*
X45300000Y-37950000D01*
X45300000Y-37950000D02*
X45300000Y-33050000D01*
X40890000Y-37610000D02*
X40890000Y-38860000D01*
X40990000Y-37100000D02*
X41190000Y-37100000D01*
X40990000Y-36800000D02*
X40990000Y-37100000D01*
X41090000Y-36800000D02*
X41090000Y-37100000D01*
X41190000Y-36800000D02*
X40990000Y-36800000D01*
X41190000Y-36000000D02*
X41800000Y-36000000D01*
X41800000Y-36000000D02*
X41800000Y-37950000D01*
X44800000Y-35600000D02*
X44800000Y-35400000D01*
X45300000Y-35600000D02*
X44800000Y-35600000D01*
X45300000Y-35500000D02*
X44800000Y-35500000D01*
X44800000Y-35400000D02*
X45300000Y-35400000D01*
X41800000Y-35000000D02*
X41190000Y-35000000D01*
X41800000Y-33050000D02*
X41800000Y-35000000D01*
X45300000Y-33050000D02*
X41800000Y-33050000D01*
X41190000Y-32440000D02*
X41190000Y-38560000D01*
X42500000Y-32440000D02*
X42500000Y-33050000D01*
X43800000Y-32440000D02*
X43800000Y-33050000D01*
X45910000Y-32440000D02*
X41190000Y-32440000D01*
%TO.C,R3*%
X9762742Y-12977500D02*
X10237258Y-12977500D01*
X9762742Y-14022500D02*
X10237258Y-14022500D01*
%TO.C,U2*%
X41000000Y-7440000D02*
X39050000Y-7440000D01*
X41000000Y-7440000D02*
X42950000Y-7440000D01*
X41000000Y-12560000D02*
X39050000Y-12560000D01*
X41000000Y-12560000D02*
X42950000Y-12560000D01*
X38300000Y-7535000D02*
X38060000Y-7205000D01*
X38540000Y-7205000D01*
X38300000Y-7535000D01*
G36*
X38300000Y-7535000D02*
G01*
X38060000Y-7205000D01*
X38540000Y-7205000D01*
X38300000Y-7535000D01*
G37*
%TO.C,R9*%
X18262742Y-7477500D02*
X18737258Y-7477500D01*
X18262742Y-8522500D02*
X18737258Y-8522500D01*
%TO.C,C8*%
X30859420Y-12490000D02*
X31140580Y-12490000D01*
X30859420Y-13510000D02*
X31140580Y-13510000D01*
%TO.C,R4*%
X9762742Y-15477500D02*
X10237258Y-15477500D01*
X9762742Y-16522500D02*
X10237258Y-16522500D01*
%TO.C,C7*%
X30859420Y-9990000D02*
X31140580Y-9990000D01*
X30859420Y-11010000D02*
X31140580Y-11010000D01*
%TO.C,C4*%
X13859420Y-15490000D02*
X14140580Y-15490000D01*
X13859420Y-16510000D02*
X14140580Y-16510000D01*
%TO.C,D3*%
X14015000Y-31265000D02*
X14015000Y-32735000D01*
X14015000Y-32735000D02*
X16300000Y-32735000D01*
X16300000Y-31265000D02*
X14015000Y-31265000D01*
%TO.C,SW2*%
X6350000Y-35600000D02*
X9650000Y-35600000D01*
X6350000Y-35900000D02*
X6350000Y-35600000D01*
X6350000Y-38100000D02*
X6350000Y-38400000D01*
X6350000Y-38400000D02*
X9650000Y-38400000D01*
X9650000Y-35600000D02*
X9650000Y-35900000D01*
X9650000Y-38400000D02*
X9650000Y-38100000D01*
%TO.C,C10*%
X38238748Y-29765000D02*
X38761252Y-29765000D01*
X38238748Y-31235000D02*
X38761252Y-31235000D01*
%TO.C,R2*%
X9762742Y-10477500D02*
X10237258Y-10477500D01*
X9762742Y-11522500D02*
X10237258Y-11522500D01*
%TO.C,C1*%
X13859420Y-7990000D02*
X14140580Y-7990000D01*
X13859420Y-9010000D02*
X14140580Y-9010000D01*
%TO.C,J1*%
X20300000Y-37300000D02*
X20300000Y-39300000D01*
X20300000Y-41200000D02*
X20300000Y-43100000D01*
X20300000Y-43100000D02*
X29700000Y-43100000D01*
X29700000Y-37300000D02*
X29700000Y-39300000D01*
X29700000Y-41200000D02*
X29700000Y-43100000D01*
%TO.C,C9*%
X36359420Y-26990000D02*
X36640580Y-26990000D01*
X36359420Y-28010000D02*
X36640580Y-28010000D01*
%TO.C,R8*%
X36262742Y-9477500D02*
X36737258Y-9477500D01*
X36262742Y-10522500D02*
X36737258Y-10522500D01*
%TO.C,C2*%
X13859420Y-10490000D02*
X14140580Y-10490000D01*
X13859420Y-11510000D02*
X14140580Y-11510000D01*
%TO.C,R6*%
X17762742Y-34977500D02*
X18237258Y-34977500D01*
X17762742Y-36022500D02*
X18237258Y-36022500D01*
%TO.C,U3*%
X44410000Y-16650000D02*
X44410000Y-20410000D01*
X37590000Y-16650000D02*
X37590000Y-20410000D01*
X44410000Y-20410000D02*
X43150000Y-20410000D01*
X37590000Y-20410000D02*
X38850000Y-20410000D01*
X44640000Y-15610000D02*
X44310000Y-15370000D01*
X44640000Y-15130000D01*
X44640000Y-15610000D01*
G36*
X44640000Y-15610000D02*
G01*
X44310000Y-15370000D01*
X44640000Y-15130000D01*
X44640000Y-15610000D01*
G37*
%TO.C,R5*%
X12262742Y-31477500D02*
X12737258Y-31477500D01*
X12262742Y-32522500D02*
X12737258Y-32522500D01*
%TO.C,C3*%
X13859420Y-12990000D02*
X14140580Y-12990000D01*
X13859420Y-14010000D02*
X14140580Y-14010000D01*
%TO.C,C6*%
X35738748Y-17765000D02*
X36261252Y-17765000D01*
X35738748Y-19235000D02*
X36261252Y-19235000D01*
%TO.C,C5*%
X35738748Y-14765000D02*
X36261252Y-14765000D01*
X35738748Y-16235000D02*
X36261252Y-16235000D01*
%TO.C,R10*%
X21262742Y-7477500D02*
X21737258Y-7477500D01*
X21262742Y-8522500D02*
X21737258Y-8522500D01*
%TO.C,R7*%
X31762742Y-34977500D02*
X32237258Y-34977500D01*
X31762742Y-36022500D02*
X32237258Y-36022500D01*
%TO.C,J2*%
X1670000Y-14670000D02*
X3000000Y-14670000D01*
X1670000Y-16000000D02*
X1670000Y-14670000D01*
X1670000Y-17270000D02*
X1670000Y-30030000D01*
X1670000Y-17270000D02*
X4330000Y-17270000D01*
X1670000Y-30030000D02*
X4330000Y-30030000D01*
X4330000Y-17270000D02*
X4330000Y-30030000D01*
%TO.C,U4*%
X38850000Y-25815000D02*
X38850000Y-25590000D01*
X38850000Y-29650000D02*
X38850000Y-29125000D01*
X38850000Y-29650000D02*
X39375000Y-29650000D01*
X39375000Y-25350000D02*
X39150000Y-25350000D01*
X43150000Y-25350000D02*
X42625000Y-25350000D01*
X43150000Y-25350000D02*
X43150000Y-25875000D01*
X43150000Y-29650000D02*
X42625000Y-29650000D01*
X43150000Y-29650000D02*
X43150000Y-29125000D01*
X38850000Y-25350000D02*
X38610000Y-25020000D01*
X39090000Y-25020000D01*
X38850000Y-25350000D01*
G36*
X38850000Y-25350000D02*
G01*
X38610000Y-25020000D01*
X39090000Y-25020000D01*
X38850000Y-25350000D01*
G37*
%TO.C,D1*%
X11015000Y-33765000D02*
X11015000Y-35235000D01*
X11015000Y-35235000D02*
X13300000Y-35235000D01*
X13300000Y-33765000D02*
X11015000Y-33765000D01*
%TO.C,U1*%
X15880000Y-2640000D02*
X15880000Y-8800000D01*
X15880000Y-2640000D02*
X34120000Y-2640000D01*
X15880000Y-27600000D02*
X15880000Y-28380000D01*
X15880000Y-28380000D02*
X16880000Y-28380000D01*
X34120000Y-2640000D02*
X34120000Y-9055000D01*
X34120000Y-27600000D02*
X34120000Y-28380000D01*
X34120000Y-28380000D02*
X33120000Y-28380000D01*
X15875000Y-9525000D02*
X15375000Y-9525000D01*
X15875000Y-9025000D01*
X15875000Y-9525000D01*
G36*
X15875000Y-9525000D02*
G01*
X15375000Y-9525000D01*
X15875000Y-9025000D01*
X15875000Y-9525000D01*
G37*
%TO.C,SW1*%
X6350000Y-31100000D02*
X9650000Y-31100000D01*
X6350000Y-31400000D02*
X6350000Y-31100000D01*
X6350000Y-33600000D02*
X6350000Y-33900000D01*
X6350000Y-33900000D02*
X9650000Y-33900000D01*
X9650000Y-31100000D02*
X9650000Y-31400000D01*
X9650000Y-33900000D02*
X9650000Y-33600000D01*
%TD*%
%LPC*%
D13*
%TO.C,R1*%
X9175000Y-8500000D03*
X10825000Y-8500000D03*
%TD*%
D14*
%TO.C,D2*%
X35712500Y-7000000D03*
X37287500Y-7000000D03*
%TD*%
D15*
%TO.C,J3*%
X43000000Y-36500000D03*
D16*
X43000000Y-34500000D03*
%TD*%
D13*
%TO.C,R3*%
X9175000Y-13500000D03*
X10825000Y-13500000D03*
%TD*%
D17*
%TO.C,U2*%
X38525000Y-8095000D03*
X38525000Y-9365000D03*
X38525000Y-10635000D03*
X38525000Y-11905000D03*
X43475000Y-11905000D03*
X43475000Y-10635000D03*
X43475000Y-9365000D03*
X43475000Y-8095000D03*
%TD*%
D13*
%TO.C,R9*%
X17675000Y-8000000D03*
X19325000Y-8000000D03*
%TD*%
D18*
%TO.C,C8*%
X30225000Y-13000000D03*
X31775000Y-13000000D03*
%TD*%
D19*
%TO.C,H3*%
X2500000Y-39500000D03*
%TD*%
D13*
%TO.C,R4*%
X9175000Y-16000000D03*
X10825000Y-16000000D03*
%TD*%
D19*
%TO.C,H4*%
X47500000Y-39500000D03*
%TD*%
%TO.C,H1*%
X2500000Y-2500000D03*
%TD*%
D18*
%TO.C,C7*%
X30225000Y-10500000D03*
X31775000Y-10500000D03*
%TD*%
%TO.C,C4*%
X13225000Y-16000000D03*
X14775000Y-16000000D03*
%TD*%
D14*
%TO.C,D3*%
X14712500Y-32000000D03*
X16287500Y-32000000D03*
%TD*%
D20*
%TO.C,SW2*%
X6300000Y-37000000D03*
X9700000Y-37000000D03*
%TD*%
D21*
%TO.C,C10*%
X37550000Y-30500000D03*
X39450000Y-30500000D03*
%TD*%
D13*
%TO.C,R2*%
X9175000Y-11000000D03*
X10825000Y-11000000D03*
%TD*%
D18*
%TO.C,C1*%
X13225000Y-8500000D03*
X14775000Y-8500000D03*
%TD*%
D22*
%TO.C,J1*%
X22110000Y-36600000D03*
X27890000Y-36600000D03*
D23*
X21750000Y-35155000D03*
X22550000Y-35155000D03*
D24*
X23750000Y-35155000D03*
X24750000Y-35155000D03*
X25250000Y-35155000D03*
X26250000Y-35155000D03*
D23*
X27450000Y-35155000D03*
X28250000Y-35155000D03*
X28250000Y-35155000D03*
X27450000Y-35155000D03*
D24*
X26750000Y-35155000D03*
X25750000Y-35155000D03*
X24250000Y-35155000D03*
X23250000Y-35155000D03*
D23*
X22550000Y-35155000D03*
X21750000Y-35155000D03*
D25*
X20680000Y-36070000D03*
D26*
X20680000Y-40250000D03*
D25*
X29320000Y-36070000D03*
D26*
X29320000Y-40250000D03*
%TD*%
D18*
%TO.C,C9*%
X35725000Y-27500000D03*
X37275000Y-27500000D03*
%TD*%
D13*
%TO.C,R8*%
X35675000Y-10000000D03*
X37325000Y-10000000D03*
%TD*%
D18*
%TO.C,C2*%
X13225000Y-11000000D03*
X14775000Y-11000000D03*
%TD*%
D13*
%TO.C,R6*%
X17175000Y-35500000D03*
X18825000Y-35500000D03*
%TD*%
D27*
%TO.C,U3*%
X43300000Y-15350000D03*
X41000000Y-15350000D03*
X38700000Y-15350000D03*
D28*
X41000000Y-21650000D03*
%TD*%
D13*
%TO.C,R5*%
X11675000Y-32000000D03*
X13325000Y-32000000D03*
%TD*%
D18*
%TO.C,C3*%
X13225000Y-13500000D03*
X14775000Y-13500000D03*
%TD*%
D21*
%TO.C,C6*%
X35050000Y-18500000D03*
X36950000Y-18500000D03*
%TD*%
%TO.C,C5*%
X35050000Y-15500000D03*
X36950000Y-15500000D03*
%TD*%
D13*
%TO.C,R10*%
X20675000Y-8000000D03*
X22325000Y-8000000D03*
%TD*%
%TO.C,R7*%
X31175000Y-35500000D03*
X32825000Y-35500000D03*
%TD*%
D29*
%TO.C,J2*%
X3000000Y-16000000D03*
D30*
X3000000Y-18540000D03*
X3000000Y-21080000D03*
X3000000Y-23620000D03*
X3000000Y-26160000D03*
X3000000Y-28700000D03*
%TD*%
D31*
%TO.C,U4*%
X39050000Y-26250000D03*
X39050000Y-26750000D03*
X39050000Y-27250000D03*
X39050000Y-27750000D03*
X39050000Y-28250000D03*
X39050000Y-28750000D03*
D32*
X39750000Y-29450000D03*
X40250000Y-29450000D03*
X40750000Y-29450000D03*
X41250000Y-29450000D03*
X41750000Y-29450000D03*
X42250000Y-29450000D03*
D31*
X42950000Y-28750000D03*
X42950000Y-28250000D03*
X42950000Y-27750000D03*
X42950000Y-27250000D03*
X42950000Y-26750000D03*
X42950000Y-26250000D03*
D32*
X42250000Y-25550000D03*
X41750000Y-25550000D03*
X41250000Y-25550000D03*
X40750000Y-25550000D03*
X40250000Y-25550000D03*
X39750000Y-25550000D03*
%TD*%
D14*
%TO.C,D1*%
X11712500Y-34500000D03*
X13287500Y-34500000D03*
%TD*%
D33*
%TO.C,U1*%
X16250000Y-10250000D03*
X16250000Y-11520000D03*
X16250000Y-12790000D03*
X16250000Y-14060000D03*
X16250000Y-15330000D03*
X16250000Y-16600000D03*
X16250000Y-17870000D03*
X16250000Y-19140000D03*
X16250000Y-20410000D03*
X16250000Y-21680000D03*
X16250000Y-22950000D03*
X16250000Y-24220000D03*
X16250000Y-25490000D03*
X16250000Y-26760000D03*
D34*
X19290000Y-28010000D03*
X20560000Y-28010000D03*
X21830000Y-28010000D03*
X23100000Y-28010000D03*
X24370000Y-28010000D03*
X25640000Y-28010000D03*
X26910000Y-28010000D03*
X28180000Y-28010000D03*
X29450000Y-28010000D03*
X30720000Y-28010000D03*
D33*
X33750000Y-26760000D03*
X33750000Y-25490000D03*
X33750000Y-24220000D03*
X33750000Y-22950000D03*
X33750000Y-21680000D03*
X33750000Y-20410000D03*
X33750000Y-19140000D03*
X33750000Y-17870000D03*
X33750000Y-16600000D03*
X33750000Y-15330000D03*
X33750000Y-14060000D03*
X33750000Y-12790000D03*
X33750000Y-11520000D03*
X33750000Y-10250000D03*
D35*
X22795000Y-16827500D03*
X22795000Y-18352500D03*
X23557500Y-16065000D03*
X23557500Y-17590000D03*
X23557500Y-19115000D03*
X24320000Y-16827500D03*
D36*
X24320000Y-17590000D03*
D35*
X24320000Y-18352500D03*
X25082500Y-16065000D03*
X25082500Y-17590000D03*
X25082500Y-19115000D03*
X25845000Y-16827500D03*
X25845000Y-18352500D03*
%TD*%
D19*
%TO.C,H2*%
X47500000Y-2500000D03*
%TD*%
D20*
%TO.C,SW1*%
X6300000Y-32500000D03*
X9700000Y-32500000D03*
%TD*%
%LPD*%
M02*
