%TF.GenerationSoftware,KiCad,Pcbnew,7.0.11+dfsg-1build4*%
%TF.CreationDate,2026-07-18T16:48:01+00:00*%
%TF.ProjectId,smart-glove,736d6172-742d-4676-9c6f-76652e6b6963,rev?*%
%TF.SameCoordinates,Original*%
%TF.FileFunction,Paste,Top*%
%TF.FilePolarity,Positive*%
%FSLAX46Y46*%
G04 Gerber Fmt 4.6, Leading zero omitted, Abs format (unit mm)*
G04 Created by KiCad (PCBNEW 7.0.11+dfsg-1build4) date 2026-07-18 16:48:01*
%MOMM*%
%LPD*%
G01*
G04 APERTURE LIST*
G04 Aperture macros list*
%AMRoundRect*
0 Rectangle with rounded corners*
0 $1 Rounding radius*
0 $2 $3 $4 $5 $6 $7 $8 $9 X,Y pos of 4 corners*
0 Add a 4 corners polygon primitive as box body*
4,1,4,$2,$3,$4,$5,$6,$7,$8,$9,$2,$3,0*
0 Add four circle primitives for the rounded corners*
1,1,$1+$1,$2,$3*
1,1,$1+$1,$4,$5*
1,1,$1+$1,$6,$7*
1,1,$1+$1,$8,$9*
0 Add four rect primitives between the rounded corners*
20,1,$1+$1,$2,$3,$4,$5,0*
20,1,$1+$1,$4,$5,$6,$7,0*
20,1,$1+$1,$6,$7,$8,$9,0*
20,1,$1+$1,$8,$9,$2,$3,0*%
G04 Aperture macros list end*
%ADD10RoundRect,0.200000X-0.200000X-0.275000X0.200000X-0.275000X0.200000X0.275000X-0.200000X0.275000X0*%
%ADD11RoundRect,0.218750X-0.218750X-0.256250X0.218750X-0.256250X0.218750X0.256250X-0.218750X0.256250X0*%
%ADD12RoundRect,0.150000X-0.825000X-0.150000X0.825000X-0.150000X0.825000X0.150000X-0.825000X0.150000X0*%
%ADD13RoundRect,0.225000X-0.225000X-0.250000X0.225000X-0.250000X0.225000X0.250000X-0.225000X0.250000X0*%
%ADD14R,0.900000X1.700000*%
%ADD15RoundRect,0.250000X-0.250000X-0.475000X0.250000X-0.475000X0.250000X0.475000X-0.250000X0.475000X0*%
%ADD16R,0.600000X1.450000*%
%ADD17R,0.300000X1.450000*%
%ADD18RoundRect,0.375000X-0.375000X0.625000X-0.375000X-0.625000X0.375000X-0.625000X0.375000X0.625000X0*%
%ADD19RoundRect,0.500000X-1.400000X0.500000X-1.400000X-0.500000X1.400000X-0.500000X1.400000X0.500000X0*%
%ADD20RoundRect,0.075000X-0.350000X-0.075000X0.350000X-0.075000X0.350000X0.075000X-0.350000X0.075000X0*%
%ADD21RoundRect,0.075000X0.075000X-0.350000X0.075000X0.350000X-0.075000X0.350000X-0.075000X-0.350000X0*%
%ADD22R,1.500000X0.900000*%
%ADD23R,0.900000X1.500000*%
%ADD24R,1.050000X1.050000*%
G04 APERTURE END LIST*
D10*
%TO.C,R1*%
X9175000Y-8500000D03*
X10825000Y-8500000D03*
%TD*%
D11*
%TO.C,D2*%
X35712500Y-7000000D03*
X37287500Y-7000000D03*
%TD*%
D10*
%TO.C,R3*%
X9175000Y-13500000D03*
X10825000Y-13500000D03*
%TD*%
D12*
%TO.C,U2*%
X38525000Y-8095000D03*
X38525000Y-9365000D03*
X38525000Y-10635000D03*
X38525000Y-11905000D03*
X43475000Y-11905000D03*
X43475000Y-10635000D03*
X43475000Y-9365000D03*
X43475000Y-8095000D03*
%TD*%
D10*
%TO.C,R9*%
X17675000Y-8000000D03*
X19325000Y-8000000D03*
%TD*%
D13*
%TO.C,C8*%
X30225000Y-13000000D03*
X31775000Y-13000000D03*
%TD*%
D10*
%TO.C,R4*%
X9175000Y-16000000D03*
X10825000Y-16000000D03*
%TD*%
D13*
%TO.C,C7*%
X30225000Y-10500000D03*
X31775000Y-10500000D03*
%TD*%
%TO.C,C4*%
X13225000Y-16000000D03*
X14775000Y-16000000D03*
%TD*%
D11*
%TO.C,D3*%
X14712500Y-32000000D03*
X16287500Y-32000000D03*
%TD*%
D14*
%TO.C,SW2*%
X6300000Y-37000000D03*
X9700000Y-37000000D03*
%TD*%
D15*
%TO.C,C10*%
X37550000Y-30500000D03*
X39450000Y-30500000D03*
%TD*%
D10*
%TO.C,R2*%
X9175000Y-11000000D03*
X10825000Y-11000000D03*
%TD*%
D13*
%TO.C,C1*%
X13225000Y-8500000D03*
X14775000Y-8500000D03*
%TD*%
D16*
%TO.C,J1*%
X21750000Y-35155000D03*
X22550000Y-35155000D03*
D17*
X23750000Y-35155000D03*
X24750000Y-35155000D03*
X25250000Y-35155000D03*
X26250000Y-35155000D03*
D16*
X27450000Y-35155000D03*
X28250000Y-35155000D03*
X28250000Y-35155000D03*
X27450000Y-35155000D03*
D17*
X26750000Y-35155000D03*
X25750000Y-35155000D03*
X24250000Y-35155000D03*
X23250000Y-35155000D03*
D16*
X22550000Y-35155000D03*
X21750000Y-35155000D03*
%TD*%
D13*
%TO.C,C9*%
X35725000Y-27500000D03*
X37275000Y-27500000D03*
%TD*%
D10*
%TO.C,R8*%
X35675000Y-10000000D03*
X37325000Y-10000000D03*
%TD*%
D13*
%TO.C,C2*%
X13225000Y-11000000D03*
X14775000Y-11000000D03*
%TD*%
D10*
%TO.C,R6*%
X17175000Y-35500000D03*
X18825000Y-35500000D03*
%TD*%
D18*
%TO.C,U3*%
X43300000Y-15350000D03*
X41000000Y-15350000D03*
X38700000Y-15350000D03*
D19*
X41000000Y-21650000D03*
%TD*%
D10*
%TO.C,R5*%
X11675000Y-32000000D03*
X13325000Y-32000000D03*
%TD*%
D13*
%TO.C,C3*%
X13225000Y-13500000D03*
X14775000Y-13500000D03*
%TD*%
D15*
%TO.C,C6*%
X35050000Y-18500000D03*
X36950000Y-18500000D03*
%TD*%
%TO.C,C5*%
X35050000Y-15500000D03*
X36950000Y-15500000D03*
%TD*%
D10*
%TO.C,R10*%
X20675000Y-8000000D03*
X22325000Y-8000000D03*
%TD*%
%TO.C,R7*%
X31175000Y-35500000D03*
X32825000Y-35500000D03*
%TD*%
D20*
%TO.C,U4*%
X39050000Y-26250000D03*
X39050000Y-26750000D03*
X39050000Y-27250000D03*
X39050000Y-27750000D03*
X39050000Y-28250000D03*
X39050000Y-28750000D03*
D21*
X39750000Y-29450000D03*
X40250000Y-29450000D03*
X40750000Y-29450000D03*
X41250000Y-29450000D03*
X41750000Y-29450000D03*
X42250000Y-29450000D03*
D20*
X42950000Y-28750000D03*
X42950000Y-28250000D03*
X42950000Y-27750000D03*
X42950000Y-27250000D03*
X42950000Y-26750000D03*
X42950000Y-26250000D03*
D21*
X42250000Y-25550000D03*
X41750000Y-25550000D03*
X41250000Y-25550000D03*
X40750000Y-25550000D03*
X40250000Y-25550000D03*
X39750000Y-25550000D03*
%TD*%
D11*
%TO.C,D1*%
X11712500Y-34500000D03*
X13287500Y-34500000D03*
%TD*%
D22*
%TO.C,U1*%
X16250000Y-10250000D03*
X16250000Y-11520000D03*
X16250000Y-12790000D03*
X16250000Y-14060000D03*
X16250000Y-15330000D03*
X16250000Y-16600000D03*
X16250000Y-17870000D03*
X16250000Y-19140000D03*
X16250000Y-20410000D03*
X16250000Y-21680000D03*
X16250000Y-22950000D03*
X16250000Y-24220000D03*
X16250000Y-25490000D03*
X16250000Y-26760000D03*
D23*
X19290000Y-28010000D03*
X20560000Y-28010000D03*
X21830000Y-28010000D03*
X23100000Y-28010000D03*
X24370000Y-28010000D03*
X25640000Y-28010000D03*
X26910000Y-28010000D03*
X28180000Y-28010000D03*
X29450000Y-28010000D03*
X30720000Y-28010000D03*
D22*
X33750000Y-26760000D03*
X33750000Y-25490000D03*
X33750000Y-24220000D03*
X33750000Y-22950000D03*
X33750000Y-21680000D03*
X33750000Y-20410000D03*
X33750000Y-19140000D03*
X33750000Y-17870000D03*
X33750000Y-16600000D03*
X33750000Y-15330000D03*
X33750000Y-14060000D03*
X33750000Y-12790000D03*
X33750000Y-11520000D03*
X33750000Y-10250000D03*
D24*
X22795000Y-16065000D03*
X22795000Y-17590000D03*
X22795000Y-19115000D03*
X24320000Y-16065000D03*
X24320000Y-17590000D03*
X24320000Y-19115000D03*
X25845000Y-16065000D03*
X25845000Y-17590000D03*
X25845000Y-19115000D03*
%TD*%
D14*
%TO.C,SW1*%
X6300000Y-32500000D03*
X9700000Y-32500000D03*
%TD*%
M02*
