M48
; DRILL file {KiCad 8.0.9-8.0.9-0~ubuntu24.04.1} date 2026-07-18T22:23:40+0000
; FORMAT={-:-/ absolute / metric / decimal}
; #@! TF.CreationDate,2026-07-18T22:23:40+00:00
; #@! TF.GenerationSoftware,Kicad,Pcbnew,8.0.9-8.0.9-0~ubuntu24.04.1
; #@! TF.FileFunction,MixedPlating,1,2
FMAT,2
METRIC
; #@! TA.AperFunction,Plated,PTH,ComponentDrill
T1C0.200
; #@! TA.AperFunction,Plated,PTH,ViaDrill
T2C0.300
; #@! TA.AperFunction,Plated,PTH,ComponentDrill
T3C0.600
; #@! TA.AperFunction,Plated,PTH,ComponentDrill
T4C0.750
; #@! TA.AperFunction,Plated,PTH,ComponentDrill
T5C1.000
; #@! TA.AperFunction,NonPlated,NPTH,ComponentDrill
T6C0.650
; #@! TA.AperFunction,NonPlated,NPTH,ComponentDrill
T7C2.200
%
G90
G05
T1
X35.795Y-16.328
X35.795Y-17.852
X36.557Y-15.565
X36.557Y-17.09
X36.557Y-18.615
X37.32Y-16.328
X37.32Y-17.852
X38.082Y-15.565
X38.082Y-17.09
X38.082Y-18.615
X38.845Y-16.328
X38.845Y-17.852
T2
X11.456Y-11.795
X13.501Y-15.2
X18.393Y-16.1
X18.933Y-24.109
X19.59Y-45.137
X26.273Y-43.0
X34.063Y-40.865
X39.674Y-42.522
X44.014Y-42.134
X49.554Y-39.751
X61.525Y-14.726
T4
X65.0Y-46.0
X65.0Y-48.0
T5
X10.0Y-48.5
X12.54Y-48.5
X15.08Y-48.5
X17.62Y-48.5
X20.16Y-48.5
X22.7Y-48.5
X25.24Y-48.5
T6
X39.11Y-45.2
X44.89Y-45.2
T7
X3.5Y-3.5
X3.5Y-48.5
X71.5Y-3.5
X71.5Y-40.0
T3
X37.68Y-44.12G85X37.68Y-45.22
G05
X37.68Y-48.55G85X37.68Y-49.15
G05
X46.32Y-44.12G85X46.32Y-45.22
G05
X46.32Y-48.55G85X46.32Y-49.15
G05
M30
