%TF.GenerationSoftware,KiCad,Pcbnew,8.0.9-8.0.9-0~ubuntu24.04.1*%
%TF.CreationDate,2026-07-18T22:23:39+00:00*%
%TF.ProjectId,smart-glove,736d6172-742d-4676-9c6f-76652e6b6963,rev?*%
%TF.SameCoordinates,Original*%
%TF.FileFunction,Copper,L1,Top*%
%TF.FilePolarity,Positive*%
%FSLAX46Y46*%
G04 Gerber Fmt 4.6, Leading zero omitted, Abs format (unit mm)*
G04 Created by KiCad (PCBNEW 8.0.9-8.0.9-0~ubuntu24.04.1) date 2026-07-18 22:23:39*
%MOMM*%
%LPD*%
G01*
G04 APERTURE LIST*
G04 Aperture macros list*
%AMRoundRect*
0 Rectangle with rounded corners*
0 $1 Rounding radius*
0 $2 $3 $4 $5 $6 $7 $8 $9 X,Y pos of 4 corners*
0 Add a 4 corners polygon primitive as box body*
4,1,4,$2,$3,$4,$5,$6,$7,$8,$9,$2,$3,0*
0 Add four circle primitives for the rounded corners*
1,1,$1+$1,$2,$3*
1,1,$1+$1,$4,$5*
1,1,$1+$1,$6,$7*
1,1,$1+$1,$8,$9*
0 Add four rect primitives between the rounded corners*
20,1,$1+$1,$2,$3,$4,$5,0*
20,1,$1+$1,$4,$5,$6,$7,0*
20,1,$1+$1,$6,$7,$8,$9,0*
20,1,$1+$1,$8,$9,$2,$3,0*%
G04 Aperture macros list end*
%TA.AperFunction,SMDPad,CuDef*%
%ADD10RoundRect,0.200000X-0.200000X-0.275000X0.200000X-0.275000X0.200000X0.275000X-0.200000X0.275000X0*%
%TD*%
%TA.AperFunction,SMDPad,CuDef*%
%ADD11RoundRect,0.250000X-0.250000X-0.475000X0.250000X-0.475000X0.250000X0.475000X-0.250000X0.475000X0*%
%TD*%
%TA.AperFunction,SMDPad,CuDef*%
%ADD12RoundRect,0.218750X-0.218750X-0.256250X0.218750X-0.256250X0.218750X0.256250X-0.218750X0.256250X0*%
%TD*%
%TA.AperFunction,SMDPad,CuDef*%
%ADD13RoundRect,0.225000X-0.225000X-0.250000X0.225000X-0.250000X0.225000X0.250000X-0.225000X0.250000X0*%
%TD*%
%TA.AperFunction,SMDPad,CuDef*%
%ADD14RoundRect,0.150000X-0.825000X-0.150000X0.825000X-0.150000X0.825000X0.150000X-0.825000X0.150000X0*%
%TD*%
%TA.AperFunction,SMDPad,CuDef*%
%ADD15R,1.500000X0.900000*%
%TD*%
%TA.AperFunction,SMDPad,CuDef*%
%ADD16R,0.900000X1.500000*%
%TD*%
%TA.AperFunction,SMDPad,CuDef*%
%ADD17R,1.050000X1.050000*%
%TD*%
%TA.AperFunction,HeatsinkPad*%
%ADD18C,0.600000*%
%TD*%
%TA.AperFunction,SMDPad,CuDef*%
%ADD19R,4.200000X4.200000*%
%TD*%
%TA.AperFunction,SMDPad,CuDef*%
%ADD20R,0.900000X1.700000*%
%TD*%
%TA.AperFunction,SMDPad,CuDef*%
%ADD21R,0.600000X1.450000*%
%TD*%
%TA.AperFunction,SMDPad,CuDef*%
%ADD22R,0.300000X1.450000*%
%TD*%
%TA.AperFunction,ComponentPad*%
%ADD23O,1.000000X2.100000*%
%TD*%
%TA.AperFunction,ComponentPad*%
%ADD24O,1.000000X1.600000*%
%TD*%
%TA.AperFunction,SMDPad,CuDef*%
%ADD25RoundRect,0.075000X-0.350000X-0.075000X0.350000X-0.075000X0.350000X0.075000X-0.350000X0.075000X0*%
%TD*%
%TA.AperFunction,SMDPad,CuDef*%
%ADD26RoundRect,0.075000X0.075000X-0.350000X0.075000X0.350000X-0.075000X0.350000X-0.075000X-0.350000X0*%
%TD*%
%TA.AperFunction,ComponentPad*%
%ADD27RoundRect,0.250000X0.625000X-0.350000X0.625000X0.350000X-0.625000X0.350000X-0.625000X-0.350000X0*%
%TD*%
%TA.AperFunction,ComponentPad*%
%ADD28O,1.750000X1.200000*%
%TD*%
%TA.AperFunction,SMDPad,CuDef*%
%ADD29RoundRect,0.375000X-0.375000X0.625000X-0.375000X-0.625000X0.375000X-0.625000X0.375000X0.625000X0*%
%TD*%
%TA.AperFunction,SMDPad,CuDef*%
%ADD30RoundRect,0.500000X-1.400000X0.500000X-1.400000X-0.500000X1.400000X-0.500000X1.400000X0.500000X0*%
%TD*%
%TA.AperFunction,ComponentPad*%
%ADD31R,1.700000X1.700000*%
%TD*%
%TA.AperFunction,ComponentPad*%
%ADD32O,1.700000X1.700000*%
%TD*%
%TA.AperFunction,ViaPad*%
%ADD33C,0.600000*%
%TD*%
%TA.AperFunction,Conductor*%
%ADD34C,0.200000*%
%TD*%
G04 APERTURE END LIST*
D10*
%TO.P,R6,1*%
%TO.N,CC1*%
X31175000Y-42000000D03*
%TO.P,R6,2*%
%TO.N,GND*%
X32825000Y-42000000D03*
%TD*%
D11*
%TO.P,C10,1*%
%TO.N,REGOUT*%
X47550000Y-38500000D03*
%TO.P,C10,2*%
%TO.N,GND*%
X49450000Y-38500000D03*
%TD*%
D12*
%TO.P,D1,1*%
%TO.N,GND*%
X13212500Y-40500000D03*
%TO.P,D1,2*%
%TO.N,PWR_LED*%
X14787500Y-40500000D03*
%TD*%
D13*
%TO.P,C1,1*%
%TO.N,3V3*%
X35225000Y-40000000D03*
%TO.P,C1,2*%
%TO.N,GND*%
X36775000Y-40000000D03*
%TD*%
D12*
%TO.P,D2,1*%
%TO.N,CHRG*%
X57712500Y-8000000D03*
%TO.P,D2,2*%
%TO.N,+5V*%
X59287500Y-8000000D03*
%TD*%
D10*
%TO.P,R7,1*%
%TO.N,CC2*%
X43175000Y-40000000D03*
%TO.P,R7,2*%
%TO.N,GND*%
X44825000Y-40000000D03*
%TD*%
D11*
%TO.P,C6,1*%
%TO.N,3V3*%
X53050000Y-16500000D03*
%TO.P,C6,2*%
%TO.N,GND*%
X54950000Y-16500000D03*
%TD*%
D10*
%TO.P,R8,1*%
%TO.N,TP_PROG*%
X53175000Y-8000000D03*
%TO.P,R8,2*%
%TO.N,GND*%
X54825000Y-8000000D03*
%TD*%
%TO.P,R1,1*%
%TO.N,FLEX1*%
X11175000Y-10000000D03*
%TO.P,R1,2*%
%TO.N,GND*%
X12825000Y-10000000D03*
%TD*%
%TO.P,R2,1*%
%TO.N,FLEX2*%
X11175000Y-13600000D03*
%TO.P,R2,2*%
%TO.N,GND*%
X12825000Y-13600000D03*
%TD*%
%TO.P,R10,1*%
%TO.N,3V3*%
X16675000Y-43000000D03*
%TO.P,R10,2*%
%TO.N,BOOT*%
X18325000Y-43000000D03*
%TD*%
D14*
%TO.P,U2,1*%
%TO.N,GND*%
X61525000Y-10095000D03*
%TO.P,U2,2*%
%TO.N,TP_PROG*%
X61525000Y-11365000D03*
%TO.P,U2,3*%
%TO.N,GND*%
X61525000Y-12635000D03*
%TO.P,U2,4*%
%TO.N,+5V*%
X61525000Y-13905000D03*
%TO.P,U2,5*%
%TO.N,+BAT*%
X66475000Y-13905000D03*
%TO.P,U2,6*%
%TO.N,N/C*%
X66475000Y-12635000D03*
%TO.P,U2,7*%
%TO.N,CHRG*%
X66475000Y-11365000D03*
%TO.P,U2,8*%
%TO.N,+5V*%
X66475000Y-10095000D03*
%TD*%
D15*
%TO.P,U1,1*%
%TO.N,GND*%
X29250000Y-9750000D03*
%TO.P,U1,2*%
%TO.N,3V3*%
X29250000Y-11020000D03*
%TO.P,U1,3*%
%TO.N,EN*%
X29250000Y-12290000D03*
%TO.P,U1,4*%
%TO.N,FLEX1*%
X29250000Y-13560000D03*
%TO.P,U1,5*%
%TO.N,FLEX2*%
X29250000Y-14830000D03*
%TO.P,U1,6*%
%TO.N,FLEX3*%
X29250000Y-16100000D03*
%TO.P,U1,7*%
%TO.N,FLEX4*%
X29250000Y-17370000D03*
%TO.P,U1,8*%
%TO.N,FLEX5*%
X29250000Y-18640000D03*
%TO.P,U1,9*%
%TO.N,N/C*%
X29250000Y-19910000D03*
%TO.P,U1,10*%
X29250000Y-21180000D03*
%TO.P,U1,11*%
X29250000Y-22450000D03*
%TO.P,U1,12*%
X29250000Y-23720000D03*
%TO.P,U1,13*%
X29250000Y-24990000D03*
%TO.P,U1,14*%
X29250000Y-26260000D03*
D16*
%TO.P,U1,15*%
%TO.N,GND*%
X32290000Y-27510000D03*
%TO.P,U1,16*%
%TO.N,N/C*%
X33560000Y-27510000D03*
%TO.P,U1,17*%
X34830000Y-27510000D03*
%TO.P,U1,18*%
X36100000Y-27510000D03*
%TO.P,U1,19*%
X37370000Y-27510000D03*
%TO.P,U1,20*%
X38640000Y-27510000D03*
%TO.P,U1,21*%
X39910000Y-27510000D03*
%TO.P,U1,22*%
X41180000Y-27510000D03*
%TO.P,U1,23*%
X42450000Y-27510000D03*
%TO.P,U1,24*%
%TO.N,STAT_LED*%
X43720000Y-27510000D03*
D15*
%TO.P,U1,25*%
%TO.N,BOOT*%
X46750000Y-26260000D03*
%TO.P,U1,26*%
%TO.N,N/C*%
X46750000Y-24990000D03*
%TO.P,U1,27*%
X46750000Y-23720000D03*
%TO.P,U1,28*%
X46750000Y-22450000D03*
%TO.P,U1,29*%
X46750000Y-21180000D03*
%TO.P,U1,30*%
X46750000Y-19910000D03*
%TO.P,U1,31*%
%TO.N,IMU_INT*%
X46750000Y-18640000D03*
%TO.P,U1,32*%
%TO.N,N/C*%
X46750000Y-17370000D03*
%TO.P,U1,33*%
%TO.N,SDA*%
X46750000Y-16100000D03*
%TO.P,U1,34*%
%TO.N,N/C*%
X46750000Y-14830000D03*
%TO.P,U1,35*%
X46750000Y-13560000D03*
%TO.P,U1,36*%
%TO.N,SCL*%
X46750000Y-12290000D03*
%TO.P,U1,37*%
%TO.N,N/C*%
X46750000Y-11020000D03*
%TO.P,U1,38*%
%TO.N,GND*%
X46750000Y-9750000D03*
D17*
%TO.P,U1,39*%
X35795000Y-15565000D03*
D18*
X35795000Y-16327500D03*
D17*
X35795000Y-17090000D03*
D18*
X35795000Y-17852500D03*
D17*
X35795000Y-18615000D03*
D18*
X36557500Y-15565000D03*
X36557500Y-17090000D03*
X36557500Y-18615000D03*
D17*
X37320000Y-15565000D03*
D18*
X37320000Y-16327500D03*
D17*
X37320000Y-17090000D03*
D19*
X37320000Y-17090000D03*
D18*
X37320000Y-17852500D03*
D17*
X37320000Y-18615000D03*
D18*
X38082500Y-15565000D03*
X38082500Y-17090000D03*
X38082500Y-18615000D03*
D17*
X38845000Y-15565000D03*
D18*
X38845000Y-16327500D03*
D17*
X38845000Y-17090000D03*
D18*
X38845000Y-17852500D03*
D17*
X38845000Y-18615000D03*
%TD*%
D20*
%TO.P,SW1,1*%
%TO.N,BOOT*%
X20300000Y-43000000D03*
%TO.P,SW1,2*%
%TO.N,GND*%
X23700000Y-43000000D03*
%TD*%
D11*
%TO.P,C5,1*%
%TO.N,+BAT*%
X53050000Y-12000000D03*
%TO.P,C5,2*%
%TO.N,GND*%
X54950000Y-12000000D03*
%TD*%
D10*
%TO.P,R9,1*%
%TO.N,3V3*%
X13175000Y-43000000D03*
%TO.P,R9,2*%
%TO.N,EN*%
X14825000Y-43000000D03*
%TD*%
D21*
%TO.P,J1,A1*%
%TO.N,GND*%
X38750000Y-43755000D03*
%TO.P,J1,A4*%
%TO.N,+5V*%
X39550000Y-43755000D03*
D22*
%TO.P,J1,A5*%
%TO.N,CC1*%
X40750000Y-43755000D03*
%TO.P,J1,A6*%
%TO.N,N/C*%
X41750000Y-43755000D03*
%TO.P,J1,A7*%
X42250000Y-43755000D03*
%TO.P,J1,A8*%
X43250000Y-43755000D03*
D21*
%TO.P,J1,A9*%
%TO.N,+5V*%
X44450000Y-43755000D03*
%TO.P,J1,A12*%
%TO.N,GND*%
X45250000Y-43755000D03*
%TO.P,J1,B1*%
X45250000Y-43755000D03*
%TO.P,J1,B4*%
%TO.N,+5V*%
X44450000Y-43755000D03*
D22*
%TO.P,J1,B5*%
%TO.N,CC2*%
X43750000Y-43755000D03*
%TO.P,J1,B6*%
%TO.N,N/C*%
X42750000Y-43755000D03*
%TO.P,J1,B7*%
X41250000Y-43755000D03*
%TO.P,J1,B8*%
X40250000Y-43755000D03*
D21*
%TO.P,J1,B9*%
%TO.N,+5V*%
X39550000Y-43755000D03*
%TO.P,J1,B12*%
%TO.N,GND*%
X38750000Y-43755000D03*
D23*
%TO.P,J1,S1*%
X37680000Y-44670000D03*
D24*
X37680000Y-48850000D03*
D23*
X46320000Y-44670000D03*
D24*
X46320000Y-48850000D03*
%TD*%
D20*
%TO.P,SW2,1*%
%TO.N,EN*%
X25300000Y-43000000D03*
%TO.P,SW2,2*%
%TO.N,GND*%
X28700000Y-43000000D03*
%TD*%
D10*
%TO.P,R5,1*%
%TO.N,3V3*%
X13175000Y-38500000D03*
%TO.P,R5,2*%
%TO.N,PWR_LED*%
X14825000Y-38500000D03*
%TD*%
D12*
%TO.P,D3,1*%
%TO.N,GND*%
X16712500Y-40500000D03*
%TO.P,D3,2*%
%TO.N,STAT_LED*%
X18287500Y-40500000D03*
%TD*%
D25*
%TO.P,U4,1*%
%TO.N,N/C*%
X56050000Y-38750000D03*
%TO.P,U4,2*%
X56050000Y-39250000D03*
%TO.P,U4,3*%
X56050000Y-39750000D03*
%TO.P,U4,4*%
X56050000Y-40250000D03*
%TO.P,U4,5*%
X56050000Y-40750000D03*
%TO.P,U4,6*%
X56050000Y-41250000D03*
D26*
%TO.P,U4,7*%
X56750000Y-41950000D03*
%TO.P,U4,8*%
%TO.N,3V3*%
X57250000Y-41950000D03*
%TO.P,U4,9*%
%TO.N,GND*%
X57750000Y-41950000D03*
%TO.P,U4,10*%
%TO.N,REGOUT*%
X58250000Y-41950000D03*
%TO.P,U4,11*%
%TO.N,N/C*%
X58750000Y-41950000D03*
%TO.P,U4,12*%
%TO.N,IMU_INT*%
X59250000Y-41950000D03*
D25*
%TO.P,U4,13*%
%TO.N,3V3*%
X59950000Y-41250000D03*
%TO.P,U4,14*%
%TO.N,N/C*%
X59950000Y-40750000D03*
%TO.P,U4,15*%
X59950000Y-40250000D03*
%TO.P,U4,16*%
X59950000Y-39750000D03*
%TO.P,U4,17*%
X59950000Y-39250000D03*
%TO.P,U4,18*%
%TO.N,GND*%
X59950000Y-38750000D03*
D26*
%TO.P,U4,19*%
%TO.N,N/C*%
X59250000Y-38050000D03*
%TO.P,U4,20*%
X58750000Y-38050000D03*
%TO.P,U4,21*%
X58250000Y-38050000D03*
%TO.P,U4,22*%
X57750000Y-38050000D03*
%TO.P,U4,23*%
%TO.N,SCL*%
X57250000Y-38050000D03*
%TO.P,U4,24*%
%TO.N,SDA*%
X56750000Y-38050000D03*
%TD*%
D10*
%TO.P,R3,1*%
%TO.N,FLEX3*%
X11175000Y-17200000D03*
%TO.P,R3,2*%
%TO.N,GND*%
X12825000Y-17200000D03*
%TD*%
D27*
%TO.P,J3,1*%
%TO.N,+BAT*%
X65000000Y-48000000D03*
D28*
%TO.P,J3,2*%
%TO.N,GND*%
X65000000Y-46000000D03*
%TD*%
D13*
%TO.P,C2,1*%
%TO.N,3V3*%
X38725000Y-40000000D03*
%TO.P,C2,2*%
%TO.N,GND*%
X40275000Y-40000000D03*
%TD*%
%TO.P,C7,1*%
%TO.N,3V3*%
X53225000Y-20500000D03*
%TO.P,C7,2*%
%TO.N,GND*%
X54775000Y-20500000D03*
%TD*%
%TO.P,C9,1*%
%TO.N,3V3*%
X53225000Y-45000000D03*
%TO.P,C9,2*%
%TO.N,GND*%
X54775000Y-45000000D03*
%TD*%
D29*
%TO.P,U3,1*%
%TO.N,GND*%
X66300000Y-18850000D03*
%TO.P,U3,2*%
%TO.N,3V3*%
X64000000Y-18850000D03*
%TO.P,U3,3*%
%TO.N,+BAT*%
X61700000Y-18850000D03*
D30*
%TO.P,U3,4*%
%TO.N,3V3*%
X64000000Y-25150000D03*
%TD*%
D10*
%TO.P,R4,1*%
%TO.N,FLEX4*%
X11175000Y-20800000D03*
%TO.P,R4,2*%
%TO.N,GND*%
X12825000Y-20800000D03*
%TD*%
%TO.P,R11,1*%
%TO.N,FLEX5*%
X11175000Y-24400000D03*
%TO.P,R11,2*%
%TO.N,GND*%
X12825000Y-24400000D03*
%TD*%
D31*
%TO.P,J2,1*%
%TO.N,3V3*%
X10000000Y-48500000D03*
D32*
%TO.P,J2,2*%
%TO.N,FLEX1*%
X12540000Y-48500000D03*
%TO.P,J2,3*%
%TO.N,FLEX2*%
X15080000Y-48500000D03*
%TO.P,J2,4*%
%TO.N,FLEX3*%
X17620000Y-48500000D03*
%TO.P,J2,5*%
%TO.N,FLEX4*%
X20160000Y-48500000D03*
%TO.P,J2,6*%
%TO.N,FLEX5*%
X22700000Y-48500000D03*
%TO.P,J2,7*%
%TO.N,GND*%
X25240000Y-48500000D03*
%TD*%
D33*
%TO.N,GND*%
X49553900Y-39750800D03*
%TO.N,3V3*%
X34062900Y-40864700D03*
%TO.N,+5V*%
X39674400Y-42521700D03*
X44014500Y-42134500D03*
X61525000Y-14726300D03*
%TO.N,FLEX1*%
X11456200Y-11795500D03*
%TO.N,FLEX2*%
X13501000Y-15200000D03*
%TO.N,FLEX3*%
X18393000Y-16100000D03*
%TO.N,FLEX4*%
X18933400Y-24108900D03*
%TO.N,EN*%
X26272800Y-43000000D03*
X19590100Y-45136700D03*
%TD*%
D34*
%TO.N,GND*%
X45250000Y-42986900D02*
X45262300Y-42974600D01*
X37320000Y-15946300D02*
X37320000Y-16327500D01*
X54013600Y-7188600D02*
X54825000Y-8000000D01*
X45260800Y-40555900D02*
X45262300Y-40557400D01*
X10794900Y-9193800D02*
X10472500Y-9516200D01*
X57468000Y-42690100D02*
X52493200Y-42690100D01*
X53917900Y-10967900D02*
X54950000Y-12000000D01*
X38845000Y-18615000D02*
X38845000Y-17852500D01*
X12825000Y-10000000D02*
X13075000Y-9750000D01*
X10429400Y-20321500D02*
X10821100Y-19929800D01*
X35795000Y-18615000D02*
X35795000Y-17852500D01*
X31277500Y-27510000D02*
X32290000Y-27510000D01*
X32325000Y-43000000D02*
X32825000Y-42500000D01*
X11163200Y-12404200D02*
X11629200Y-12404200D01*
X45486700Y-9750000D02*
X39671700Y-15565000D01*
X41204600Y-39218900D02*
X41206100Y-39217400D01*
X14012100Y-41299600D02*
X16098200Y-41299600D01*
X38845000Y-16327500D02*
X38845000Y-15565000D01*
X37320000Y-15565000D02*
X36557500Y-15565000D01*
X54775000Y-45507600D02*
X63330900Y-45507600D01*
X38230800Y-47748300D02*
X46320000Y-47748300D01*
X37680000Y-44670000D02*
X37680000Y-47748300D01*
X52493200Y-42690100D02*
X49553900Y-39750800D01*
X11954800Y-19929800D02*
X11954800Y-18070200D01*
X43978200Y-39617500D02*
X43978200Y-39617600D01*
X38845000Y-17090000D02*
X38082500Y-17090000D01*
X52758300Y-21317800D02*
X52241100Y-20800600D01*
X37560500Y-40785500D02*
X39489500Y-40785500D01*
X41056100Y-39218900D02*
X41204600Y-39218900D01*
X38845000Y-17852500D02*
X38845000Y-17090000D01*
X54775000Y-20500000D02*
X53957200Y-21317800D01*
X29250000Y-9750000D02*
X30301700Y-9750000D01*
X52241100Y-15681700D02*
X52888500Y-15034300D01*
X53484300Y-15034300D02*
X54950000Y-16500000D01*
X28700000Y-43000000D02*
X32325000Y-43000000D01*
X37320000Y-18615000D02*
X36557500Y-18615000D01*
X50767500Y-9167700D02*
X52746600Y-7188600D01*
X36861700Y-42500000D02*
X37680000Y-43318300D01*
X53957200Y-21317800D02*
X52758300Y-21317800D01*
X45976300Y-42974600D02*
X45262300Y-42974600D01*
X38845000Y-15565000D02*
X38082500Y-15565000D01*
X25240000Y-48500000D02*
X25240000Y-47348300D01*
X37680000Y-48299100D02*
X38230800Y-47748300D01*
X18683000Y-38529500D02*
X20258000Y-38529500D01*
X52247300Y-11277400D02*
X52271100Y-11253600D01*
X54775000Y-45507600D02*
X54775000Y-45000000D01*
X35795000Y-18615000D02*
X35795000Y-19441700D01*
X25240000Y-44374000D02*
X23922300Y-44374000D01*
X57398200Y-16500000D02*
X61051300Y-20153100D01*
X37320000Y-15565000D02*
X37701300Y-15565000D01*
X57152900Y-12633500D02*
X55583500Y-12633500D01*
X55583500Y-12633500D02*
X54950000Y-12000000D01*
X12018800Y-9193800D02*
X10794900Y-9193800D01*
X13212500Y-40500000D02*
X14012100Y-41299600D01*
X52888500Y-15034300D02*
X52247300Y-14393100D01*
X32290000Y-27510000D02*
X32290000Y-22946700D01*
X43578100Y-39217400D02*
X43978200Y-39617500D01*
X59950000Y-27310600D02*
X53957200Y-21317800D01*
X10821100Y-19929800D02*
X11954800Y-19929800D01*
X10472500Y-11713500D02*
X11163200Y-12404200D01*
X38845000Y-15565000D02*
X39671700Y-15565000D01*
X36557500Y-17090000D02*
X35795000Y-17090000D01*
X50767500Y-9750000D02*
X50767500Y-9167700D01*
X13075000Y-9750000D02*
X29250000Y-9750000D01*
X16166800Y-41231000D02*
X17500000Y-42564200D01*
X18254400Y-44151700D02*
X23700000Y-44151700D01*
X49450000Y-39646900D02*
X49450000Y-38500000D01*
X52271100Y-11253600D02*
X50767500Y-9750000D01*
X36775000Y-40000000D02*
X37560500Y-40785500D01*
X17500000Y-43397300D02*
X18254400Y-44151700D01*
X10839900Y-18070200D02*
X10472500Y-17702800D01*
X44442600Y-39617600D02*
X44825000Y-40000000D01*
X20258000Y-38529500D02*
X31277500Y-27510000D01*
X37680000Y-48299100D02*
X37680000Y-47748300D01*
X52556800Y-10967900D02*
X53917900Y-10967900D01*
X46320000Y-43318300D02*
X45976300Y-42974600D01*
X36557500Y-18615000D02*
X35795000Y-18615000D01*
X11954800Y-18070200D02*
X12825000Y-17200000D01*
X38845000Y-18615000D02*
X38082500Y-18615000D01*
X39489500Y-40785500D02*
X40275000Y-40000000D01*
X37701300Y-15565000D02*
X37320000Y-15946300D01*
X32290000Y-22946700D02*
X35795000Y-19441700D01*
X62812200Y-11762800D02*
X62812200Y-11014000D01*
X46320000Y-46021700D02*
X46320000Y-47748300D01*
X65000000Y-46000000D02*
X63823300Y-46000000D01*
X16712500Y-40500000D02*
X18683000Y-38529500D01*
X64981900Y-17531900D02*
X66300000Y-18850000D01*
X46320000Y-46021700D02*
X54260900Y-46021700D01*
X38845000Y-17090000D02*
X38845000Y-16327500D01*
X28700000Y-43000000D02*
X27948300Y-43000000D01*
X54950000Y-16500000D02*
X57398200Y-16500000D01*
X16166800Y-41045700D02*
X16712500Y-40500000D01*
X49553900Y-39750800D02*
X49450000Y-39646900D01*
X35795000Y-15565000D02*
X34968300Y-15565000D01*
X37680000Y-43921600D02*
X37680000Y-43318300D01*
X32825000Y-42000000D02*
X32825000Y-42500000D01*
X45260800Y-40435800D02*
X45260800Y-40555900D01*
X17500000Y-42564200D02*
X17500000Y-43397300D01*
X61051300Y-20153100D02*
X62349700Y-20153100D01*
X52746600Y-7188600D02*
X54013600Y-7188600D01*
X37680000Y-48850000D02*
X37680000Y-48299100D01*
X37701300Y-15565000D02*
X38082500Y-15565000D01*
X43978200Y-39617600D02*
X44442600Y-39617600D01*
X41206100Y-39217400D02*
X43578100Y-39217400D01*
X46320000Y-48850000D02*
X46320000Y-47748300D01*
X52888500Y-15034300D02*
X53484300Y-15034300D01*
X11629200Y-12404200D02*
X12825000Y-13600000D01*
X40275000Y-40000000D02*
X41056100Y-39218900D01*
X63341800Y-17531900D02*
X64981900Y-17531900D01*
X57154400Y-12635000D02*
X57152900Y-12633500D01*
X16098200Y-41299600D02*
X16166800Y-41231000D01*
X52271100Y-11253600D02*
X52556800Y-10967900D01*
X34968300Y-14416600D02*
X30301700Y-9750000D01*
X46750000Y-9750000D02*
X45486700Y-9750000D01*
X38082500Y-18615000D02*
X37320000Y-18615000D01*
X10472500Y-13094900D02*
X11163200Y-12404200D01*
X54260900Y-46021700D02*
X54775000Y-45507600D01*
X23922300Y-44374000D02*
X23700000Y-44151700D01*
X46320000Y-44670000D02*
X46320000Y-43318300D01*
X26574300Y-44374000D02*
X27948300Y-43000000D01*
X25240000Y-44374000D02*
X26574300Y-44374000D01*
X11954800Y-18070200D02*
X10839900Y-18070200D01*
X62946900Y-17926800D02*
X63341800Y-17531900D01*
X36557500Y-15565000D02*
X35795000Y-15565000D01*
X12825000Y-10000000D02*
X12018800Y-9193800D01*
X37320000Y-17090000D02*
X36557500Y-17090000D01*
X34968300Y-15565000D02*
X34968300Y-14416600D01*
X44825000Y-40000000D02*
X45260800Y-40435800D01*
X16166800Y-41231000D02*
X16166800Y-41045700D01*
X50767500Y-9750000D02*
X46750000Y-9750000D01*
X45262300Y-40557400D02*
X45262300Y-42974600D01*
X38082500Y-17090000D02*
X37320000Y-17090000D01*
X12825000Y-24400000D02*
X10429400Y-22004400D01*
X11954800Y-19929800D02*
X12825000Y-20800000D01*
X32825000Y-42500000D02*
X36861700Y-42500000D01*
X23700000Y-43000000D02*
X23700000Y-44151700D01*
X46320000Y-44670000D02*
X46320000Y-46021700D01*
X37680000Y-44670000D02*
X37680000Y-43921600D01*
X25240000Y-47348300D02*
X25240000Y-44374000D01*
X63330900Y-45507600D02*
X63823300Y-46000000D01*
%TO.N,3V3*%
X57518900Y-41223000D02*
X57250000Y-41491900D01*
X59950000Y-42374700D02*
X58406800Y-43917900D01*
X54012800Y-17462800D02*
X53050000Y-16500000D01*
X34360300Y-40864700D02*
X35225000Y-40000000D01*
X51014800Y-45000000D02*
X53225000Y-45000000D01*
X44814900Y-38800100D02*
X51014800Y-45000000D01*
X59950000Y-41250000D02*
X59950000Y-42374700D01*
X59923000Y-41223000D02*
X57518900Y-41223000D01*
X13175000Y-44173300D02*
X13175000Y-43000000D01*
X20204100Y-37593200D02*
X14081800Y-37593200D01*
X60427900Y-41250000D02*
X59950000Y-41250000D01*
X64000000Y-18850000D02*
X64000000Y-20554800D01*
X12461700Y-41023800D02*
X13617300Y-42179400D01*
X54012800Y-19712200D02*
X59726900Y-19712200D01*
X15854400Y-42179400D02*
X16675000Y-43000000D01*
X12461700Y-39213300D02*
X12461700Y-41023800D01*
X13617300Y-42557700D02*
X13617300Y-42179400D01*
X54307100Y-43917900D02*
X53225000Y-45000000D01*
X54012800Y-19712200D02*
X53225000Y-20500000D01*
X29250000Y-11020000D02*
X30301700Y-11020000D01*
X30301700Y-11020000D02*
X30706600Y-11424900D01*
X39924900Y-38800100D02*
X44814900Y-38800100D01*
X38725000Y-40000000D02*
X39924900Y-38800100D01*
X58406800Y-43917900D02*
X54307100Y-43917900D01*
X13617300Y-42179400D02*
X15854400Y-42179400D01*
X57250000Y-41491900D02*
X57250000Y-41950000D01*
X64000000Y-20554800D02*
X64000000Y-25150000D01*
X35225000Y-40000000D02*
X36004300Y-39220700D01*
X30706600Y-27090700D02*
X20204100Y-37593200D01*
X34062900Y-40864700D02*
X34360300Y-40864700D01*
X60569500Y-20554800D02*
X64000000Y-20554800D01*
X10000000Y-47348300D02*
X13175000Y-44173300D01*
X13175000Y-43000000D02*
X13617300Y-42557700D01*
X64000000Y-25150000D02*
X64000000Y-37677900D01*
X54012800Y-19712200D02*
X54012800Y-17462800D01*
X36004300Y-39220700D02*
X37945700Y-39220700D01*
X64000000Y-37677900D02*
X60427900Y-41250000D01*
X59950000Y-41250000D02*
X59923000Y-41223000D01*
X14081800Y-37593200D02*
X13175000Y-38500000D01*
X30706600Y-11424900D02*
X30706600Y-27090700D01*
X37945700Y-39220700D02*
X38725000Y-40000000D01*
X10000000Y-48500000D02*
X10000000Y-47348300D01*
X13175000Y-38500000D02*
X12461700Y-39213300D01*
X59726900Y-19712200D02*
X60569500Y-20554800D01*
%TO.N,+5V*%
X67475900Y-12000000D02*
X67755700Y-11720200D01*
X39550000Y-42728300D02*
X39550000Y-42646100D01*
X59287500Y-8000000D02*
X64380000Y-8000000D01*
X62094700Y-13905000D02*
X63999700Y-12000000D01*
X44450000Y-42570000D02*
X44014500Y-42134500D01*
X39550000Y-42646100D02*
X39674400Y-42521700D01*
X39550000Y-43755000D02*
X39550000Y-42728300D01*
X66884700Y-10095000D02*
X66475000Y-10095000D01*
X67755700Y-10966000D02*
X66884700Y-10095000D01*
X44450000Y-43755000D02*
X44450000Y-42570000D01*
X61525000Y-13905000D02*
X62094700Y-13905000D01*
X67755700Y-11720200D02*
X67755700Y-10966000D01*
X63999700Y-12000000D02*
X67475900Y-12000000D01*
X61525000Y-13905000D02*
X61525000Y-14726300D01*
X64380000Y-8000000D02*
X66475000Y-10095000D01*
%TO.N,+BAT*%
X67373200Y-17963900D02*
X66475000Y-17065700D01*
X56523800Y-15473800D02*
X53050000Y-12000000D01*
X58608300Y-15473800D02*
X56523800Y-15473800D01*
X63199800Y-17065700D02*
X66475000Y-17065700D01*
X67373200Y-45626800D02*
X67373200Y-17963900D01*
X61700000Y-18565500D02*
X58608300Y-15473800D01*
X66475000Y-17065700D02*
X66475000Y-13905000D01*
X65000000Y-48000000D02*
X67373200Y-45626800D01*
X61700000Y-18850000D02*
X61700000Y-18565500D01*
X61700000Y-18565500D02*
X63199800Y-17065700D01*
%TO.N,FLEX1*%
X15201500Y-13560000D02*
X13437000Y-11795500D01*
X13437000Y-11795500D02*
X11456200Y-11795500D01*
X29250000Y-13560000D02*
X15201500Y-13560000D01*
X11456200Y-10281200D02*
X11175000Y-10000000D01*
X11456200Y-11795500D02*
X11456200Y-10281200D01*
%TO.N,FLEX2*%
X13871000Y-14830000D02*
X13501000Y-15200000D01*
X29250000Y-14830000D02*
X13871000Y-14830000D01*
X12775000Y-15200000D02*
X11175000Y-13600000D01*
X13501000Y-15200000D02*
X12775000Y-15200000D01*
%TO.N,FLEX3*%
X11175000Y-17200000D02*
X12275000Y-16100000D01*
X12275000Y-16100000D02*
X18393000Y-16100000D01*
X29250000Y-16100000D02*
X18393000Y-16100000D01*
%TO.N,FLEX4*%
X14483900Y-24108900D02*
X11175000Y-20800000D01*
X25672300Y-17370000D02*
X18933400Y-24108900D01*
X18933400Y-24108900D02*
X14483900Y-24108900D01*
X29250000Y-17370000D02*
X25672300Y-17370000D01*
%TO.N,FLEX5*%
X11175000Y-24400000D02*
X11175000Y-25217800D01*
X11175000Y-25217800D02*
X21620500Y-25217800D01*
X8783800Y-50053400D02*
X20282900Y-50053400D01*
X8441500Y-49711100D02*
X8783800Y-50053400D01*
X21548300Y-48788000D02*
X21548300Y-48500000D01*
X20282900Y-50053400D02*
X21548300Y-48788000D01*
X21620500Y-25217800D02*
X28198300Y-18640000D01*
X22700000Y-48500000D02*
X21548300Y-48500000D01*
X29250000Y-18640000D02*
X28198300Y-18640000D01*
X11175000Y-25217800D02*
X8441500Y-27951300D01*
X8441500Y-27951300D02*
X8441500Y-49711100D01*
%TO.N,SDA*%
X56750000Y-38050000D02*
X48203400Y-29503400D01*
X48203400Y-16501700D02*
X47801700Y-16100000D01*
X48203400Y-29503400D02*
X48203400Y-16501700D01*
X46750000Y-16100000D02*
X47801700Y-16100000D01*
%TO.N,SCL*%
X46750000Y-12290000D02*
X47801700Y-12290000D01*
X50073300Y-14561600D02*
X50073300Y-24003400D01*
X50073300Y-24003400D02*
X57250000Y-31180100D01*
X47801700Y-12290000D02*
X50073300Y-14561600D01*
X57250000Y-31180100D02*
X57250000Y-38050000D01*
%TO.N,EN*%
X11010700Y-49651700D02*
X11270000Y-49392400D01*
X11270000Y-49392400D02*
X11270000Y-48137200D01*
X15055500Y-44351700D02*
X15840500Y-45136700D01*
X13414700Y-37060700D02*
X8848300Y-41627100D01*
X15840500Y-45136700D02*
X19590100Y-45136700D01*
X25300000Y-43000000D02*
X26051700Y-43000000D01*
X8848300Y-41627100D02*
X8848300Y-49475000D01*
X9025000Y-49651700D02*
X11010700Y-49651700D01*
X8848300Y-49475000D02*
X9025000Y-49651700D01*
X15055500Y-43230500D02*
X14825000Y-43000000D01*
X15055500Y-44351700D02*
X15055500Y-43230500D01*
X30301700Y-12290000D02*
X30301700Y-26905600D01*
X30301700Y-26905600D02*
X20146600Y-37060700D01*
X26051700Y-43000000D02*
X26272800Y-43000000D01*
X11270000Y-48137200D02*
X15055500Y-44351700D01*
X29250000Y-12290000D02*
X30301700Y-12290000D01*
X20146600Y-37060700D02*
X13414700Y-37060700D01*
%TO.N,BOOT*%
X46750000Y-26260000D02*
X45698300Y-26260000D01*
X20300000Y-43000000D02*
X21051700Y-43000000D01*
X34451100Y-29600600D02*
X43259400Y-29600600D01*
X21051700Y-43000000D02*
X34451100Y-29600600D01*
X18325000Y-43000000D02*
X20300000Y-43000000D01*
X45698300Y-27161700D02*
X45698300Y-26260000D01*
X43259400Y-29600600D02*
X45698300Y-27161700D01*
%TO.N,STAT_LED*%
X19868000Y-40500000D02*
X31806300Y-28561700D01*
X18287500Y-40500000D02*
X19868000Y-40500000D01*
X43720000Y-27510000D02*
X43720000Y-28561700D01*
X31806300Y-28561700D02*
X43720000Y-28561700D01*
%TO.N,CHRG*%
X65870800Y-11365000D02*
X63577900Y-9072100D01*
X66475000Y-11365000D02*
X65870800Y-11365000D01*
X58784600Y-9072100D02*
X57712500Y-8000000D01*
X63577900Y-9072100D02*
X58784600Y-9072100D01*
%TO.N,IMU_INT*%
X58208600Y-43495000D02*
X51036600Y-43495000D01*
X46725000Y-39183400D02*
X46725000Y-27911700D01*
X46750000Y-18640000D02*
X47801700Y-18640000D01*
X46725000Y-27911700D02*
X47801700Y-26835000D01*
X59250000Y-42453600D02*
X58208600Y-43495000D01*
X59250000Y-41950000D02*
X59250000Y-42453600D01*
X51036600Y-43495000D02*
X46725000Y-39183400D01*
X47801700Y-26835000D02*
X47801700Y-18640000D01*
%TO.N,TP_PROG*%
X56540000Y-11365000D02*
X53175000Y-8000000D01*
X61525000Y-11365000D02*
X56540000Y-11365000D01*
%TO.N,PWR_LED*%
X14787500Y-40500000D02*
X14825000Y-40462500D01*
X14825000Y-40462500D02*
X14825000Y-38500000D01*
%TO.N,CC1*%
X33254100Y-41180000D02*
X31995000Y-41180000D01*
X31995000Y-41180000D02*
X31175000Y-42000000D01*
X33558000Y-41483900D02*
X33254100Y-41180000D01*
X40750000Y-42728300D02*
X39505600Y-41483900D01*
X39505600Y-41483900D02*
X33558000Y-41483900D01*
X40750000Y-43755000D02*
X40750000Y-42728300D01*
%TO.N,CC2*%
X43750000Y-42728300D02*
X43175000Y-42153300D01*
X43750000Y-43755000D02*
X43750000Y-42728300D01*
X43175000Y-42153300D02*
X43175000Y-40000000D01*
%TO.N,REGOUT*%
X58250000Y-41950000D02*
X58250000Y-42496100D01*
X52044100Y-43091800D02*
X47550000Y-38597700D01*
X47550000Y-38597700D02*
X47550000Y-38500000D01*
X58250000Y-42496100D02*
X57654300Y-43091800D01*
X57654300Y-43091800D02*
X52044100Y-43091800D01*
%TD*%
%TA.AperFunction,Conductor*%
%TO.N,GND*%
G36*
X47848845Y-27309569D02*
G01*
X47892110Y-27352834D01*
X47902900Y-27397779D01*
X47902900Y-29542964D01*
X47923378Y-29619388D01*
X47923380Y-29619392D01*
X47962938Y-29687908D01*
X47962940Y-29687911D01*
X56370505Y-38095476D01*
X56398281Y-38149991D01*
X56399500Y-38165478D01*
X56399500Y-38300500D01*
X56380593Y-38358691D01*
X56331093Y-38394655D01*
X56300500Y-38399500D01*
X55672870Y-38399500D01*
X55672863Y-38399501D01*
X55592505Y-38415484D01*
X55592503Y-38415485D01*
X55501379Y-38476373D01*
X55501373Y-38476379D01*
X55440486Y-38567501D01*
X55440486Y-38567503D01*
X55440485Y-38567505D01*
X55434296Y-38598620D01*
X55424500Y-38647867D01*
X55424500Y-38852129D01*
X55424501Y-38852137D01*
X55440484Y-38932494D01*
X55440486Y-38932498D01*
X55448840Y-38945001D01*
X55465447Y-39003889D01*
X55448840Y-39054999D01*
X55440485Y-39067503D01*
X55440484Y-39067504D01*
X55424500Y-39147864D01*
X55424500Y-39352129D01*
X55424501Y-39352137D01*
X55440484Y-39432494D01*
X55440486Y-39432498D01*
X55448840Y-39445001D01*
X55465447Y-39503889D01*
X55448840Y-39554999D01*
X55440485Y-39567503D01*
X55440484Y-39567504D01*
X55424500Y-39647864D01*
X55424500Y-39852129D01*
X55424501Y-39852137D01*
X55440484Y-39932494D01*
X55440486Y-39932498D01*
X55448840Y-39945001D01*
X55465447Y-40003889D01*
X55448840Y-40054999D01*
X55440485Y-40067503D01*
X55440484Y-40067504D01*
X55424500Y-40147864D01*
X55424500Y-40352129D01*
X55424501Y-40352137D01*
X55440484Y-40432494D01*
X55440486Y-40432498D01*
X55448840Y-40445001D01*
X55465447Y-40503889D01*
X55448840Y-40554999D01*
X55440485Y-40567503D01*
X55440484Y-40567504D01*
X55424500Y-40647864D01*
X55424500Y-40852129D01*
X55424501Y-40852137D01*
X55440484Y-40932494D01*
X55440486Y-40932498D01*
X55448840Y-40945001D01*
X55465447Y-41003889D01*
X55448840Y-41054999D01*
X55440485Y-41067503D01*
X55440484Y-41067504D01*
X55424500Y-41147864D01*
X55424500Y-41352129D01*
X55424501Y-41352137D01*
X55440484Y-41432494D01*
X55440485Y-41432496D01*
X55491936Y-41509496D01*
X55501376Y-41523624D01*
X55592505Y-41584515D01*
X55672867Y-41600500D01*
X56300500Y-41600499D01*
X56358691Y-41619406D01*
X56394655Y-41668906D01*
X56399500Y-41699499D01*
X56399500Y-42327129D01*
X56399501Y-42327136D01*
X56415484Y-42407494D01*
X56415485Y-42407496D01*
X56475048Y-42496637D01*
X56476376Y-42498624D01*
X56567505Y-42559515D01*
X56647867Y-42575500D01*
X56852132Y-42575499D01*
X56932495Y-42559515D01*
X56944996Y-42551161D01*
X57003883Y-42534551D01*
X57055000Y-42551159D01*
X57067505Y-42559515D01*
X57147867Y-42575500D01*
X57352132Y-42575499D01*
X57432495Y-42559515D01*
X57523624Y-42498624D01*
X57584515Y-42407495D01*
X57600500Y-42327133D01*
X57600499Y-41622499D01*
X57619406Y-41564309D01*
X57668906Y-41528345D01*
X57699499Y-41523500D01*
X57800500Y-41523500D01*
X57858691Y-41542407D01*
X57894655Y-41591907D01*
X57899500Y-41622500D01*
X57899500Y-42327128D01*
X57899501Y-42327135D01*
X57904855Y-42354055D01*
X57897660Y-42414815D01*
X57877760Y-42443367D01*
X57558826Y-42762303D01*
X57504309Y-42790081D01*
X57488822Y-42791300D01*
X52209579Y-42791300D01*
X52151388Y-42772393D01*
X52139575Y-42762304D01*
X48279496Y-38902225D01*
X48251719Y-38847708D01*
X48250500Y-38832221D01*
X48250500Y-37970727D01*
X48250499Y-37970725D01*
X48247646Y-37940305D01*
X48247646Y-37940301D01*
X48202793Y-37812118D01*
X48197977Y-37805593D01*
X48122154Y-37702855D01*
X48122152Y-37702853D01*
X48122150Y-37702850D01*
X48122146Y-37702847D01*
X48122144Y-37702845D01*
X48012883Y-37622207D01*
X47884703Y-37577355D01*
X47884694Y-37577353D01*
X47854274Y-37574500D01*
X47854266Y-37574500D01*
X47245734Y-37574500D01*
X47245725Y-37574500D01*
X47215305Y-37577353D01*
X47215301Y-37577354D01*
X47157197Y-37597685D01*
X47096027Y-37599057D01*
X47045733Y-37564212D01*
X47025525Y-37506460D01*
X47025500Y-37504240D01*
X47025500Y-28077179D01*
X47044407Y-28018988D01*
X47054496Y-28007175D01*
X47733896Y-27327775D01*
X47788413Y-27299998D01*
X47848845Y-27309569D01*
G37*
%TD.AperFunction*%
%TA.AperFunction,Conductor*%
G36*
X52533692Y-8018907D02*
G01*
X52569656Y-8068407D01*
X52574501Y-8099000D01*
X52574501Y-8306523D01*
X52589352Y-8400299D01*
X52589354Y-8400304D01*
X52646950Y-8513342D01*
X52736658Y-8603050D01*
X52849696Y-8660646D01*
X52943481Y-8675500D01*
X53384520Y-8675499D01*
X53442711Y-8694406D01*
X53454524Y-8704495D01*
X56355489Y-11605460D01*
X56355491Y-11605461D01*
X56355492Y-11605462D01*
X56355493Y-11605463D01*
X56424008Y-11645020D01*
X56424006Y-11645020D01*
X56424010Y-11645021D01*
X56424012Y-11645022D01*
X56500438Y-11665500D01*
X60321635Y-11665500D01*
X60379826Y-11684407D01*
X60405610Y-11715108D01*
X60406035Y-11714806D01*
X60409884Y-11720197D01*
X60410576Y-11721020D01*
X60410802Y-11721483D01*
X60493517Y-11804198D01*
X60547285Y-11830483D01*
X60598604Y-11855572D01*
X60598605Y-11855572D01*
X60598607Y-11855573D01*
X60666740Y-11865500D01*
X60666743Y-11865500D01*
X62383257Y-11865500D01*
X62383260Y-11865500D01*
X62451393Y-11855573D01*
X62556483Y-11804198D01*
X62639198Y-11721483D01*
X62690573Y-11616393D01*
X62700500Y-11548260D01*
X62700500Y-11181740D01*
X62690573Y-11113607D01*
X62639198Y-11008517D01*
X62556483Y-10925802D01*
X62556481Y-10925801D01*
X62451395Y-10874427D01*
X62424139Y-10870456D01*
X62383260Y-10864500D01*
X60666740Y-10864500D01*
X60632673Y-10869463D01*
X60598604Y-10874427D01*
X60493518Y-10925801D01*
X60410801Y-11008518D01*
X60410577Y-11008978D01*
X60410180Y-11009387D01*
X60406035Y-11015194D01*
X60405164Y-11014572D01*
X60368035Y-11052953D01*
X60321635Y-11064500D01*
X56705479Y-11064500D01*
X56647288Y-11045593D01*
X56635475Y-11035504D01*
X53804495Y-8204524D01*
X53776718Y-8150007D01*
X53775499Y-8134520D01*
X53775499Y-8099000D01*
X53794406Y-8040809D01*
X53843906Y-8004845D01*
X53874499Y-8000000D01*
X56975500Y-8000000D01*
X57033691Y-8018907D01*
X57069655Y-8068407D01*
X57074500Y-8099000D01*
X57074500Y-8289248D01*
X57090049Y-8387419D01*
X57090050Y-8387423D01*
X57148243Y-8501631D01*
X57150342Y-8505751D01*
X57244249Y-8599658D01*
X57362580Y-8659951D01*
X57429130Y-8670491D01*
X57460751Y-8675500D01*
X57460754Y-8675500D01*
X57922021Y-8675500D01*
X57980212Y-8694407D01*
X57992025Y-8704496D01*
X58544140Y-9256611D01*
X58544139Y-9256611D01*
X58600089Y-9312560D01*
X58668607Y-9352119D01*
X58668611Y-9352121D01*
X58745035Y-9372599D01*
X58745037Y-9372600D01*
X58745038Y-9372600D01*
X63412421Y-9372600D01*
X63470612Y-9391507D01*
X63482425Y-9401596D01*
X65270504Y-11189675D01*
X65298281Y-11244192D01*
X65299500Y-11259679D01*
X65299500Y-11548260D01*
X65305032Y-11586227D01*
X65294712Y-11646535D01*
X65250914Y-11689260D01*
X65207066Y-11699500D01*
X63960138Y-11699500D01*
X63909186Y-11713152D01*
X63883710Y-11719979D01*
X63883708Y-11719980D01*
X63874321Y-11725400D01*
X63874320Y-11725399D01*
X63815191Y-11759538D01*
X62199225Y-13375504D01*
X62144708Y-13403281D01*
X62129221Y-13404500D01*
X60666740Y-13404500D01*
X60632673Y-13409463D01*
X60598604Y-13414427D01*
X60493518Y-13465801D01*
X60410801Y-13548518D01*
X60359427Y-13653604D01*
X60359427Y-13653607D01*
X60349500Y-13721740D01*
X60349500Y-14088260D01*
X60356118Y-14133682D01*
X60359427Y-14156395D01*
X60398074Y-14235448D01*
X60410802Y-14261483D01*
X60493517Y-14344198D01*
X60547285Y-14370483D01*
X60598604Y-14395572D01*
X60598605Y-14395572D01*
X60598607Y-14395573D01*
X60666740Y-14405500D01*
X60967235Y-14405500D01*
X61025426Y-14424407D01*
X61061390Y-14473907D01*
X61061390Y-14535093D01*
X61057288Y-14545627D01*
X61039835Y-14583842D01*
X61039834Y-14583843D01*
X61019353Y-14726297D01*
X61019353Y-14726302D01*
X61039834Y-14868756D01*
X61045240Y-14880593D01*
X61099623Y-14999673D01*
X61193872Y-15108443D01*
X61193873Y-15108444D01*
X61314942Y-15186250D01*
X61314947Y-15186253D01*
X61414251Y-15215411D01*
X61453035Y-15226799D01*
X61453036Y-15226799D01*
X61453039Y-15226800D01*
X61453041Y-15226800D01*
X61596959Y-15226800D01*
X61596961Y-15226800D01*
X61735053Y-15186253D01*
X61856128Y-15108443D01*
X61950377Y-14999673D01*
X62010165Y-14868757D01*
X62030647Y-14726300D01*
X62028532Y-14711592D01*
X62010165Y-14583843D01*
X62010165Y-14583842D01*
X61992712Y-14545627D01*
X61985737Y-14484841D01*
X62015823Y-14431564D01*
X62071478Y-14406145D01*
X62082765Y-14405500D01*
X62383257Y-14405500D01*
X62383260Y-14405500D01*
X62451393Y-14395573D01*
X62556483Y-14344198D01*
X62639198Y-14261483D01*
X62690573Y-14156393D01*
X62700500Y-14088260D01*
X62700500Y-13765179D01*
X62719407Y-13706988D01*
X62729496Y-13695175D01*
X64095175Y-12329496D01*
X64149692Y-12301719D01*
X64165179Y-12300500D01*
X65207066Y-12300500D01*
X65265257Y-12319407D01*
X65301221Y-12368907D01*
X65305031Y-12413772D01*
X65299500Y-12451740D01*
X65299500Y-12818260D01*
X65306118Y-12863682D01*
X65309427Y-12886395D01*
X65348074Y-12965448D01*
X65360802Y-12991483D01*
X65443517Y-13074198D01*
X65497285Y-13100483D01*
X65548604Y-13125572D01*
X65548605Y-13125572D01*
X65548607Y-13125573D01*
X65616740Y-13135500D01*
X65616743Y-13135500D01*
X67333257Y-13135500D01*
X67333260Y-13135500D01*
X67401393Y-13125573D01*
X67506483Y-13074198D01*
X67589198Y-12991483D01*
X67640573Y-12886393D01*
X67650500Y-12818260D01*
X67650500Y-12451740D01*
X67640573Y-12383607D01*
X67630651Y-12363313D01*
X67622081Y-12302732D01*
X67650757Y-12248682D01*
X67659332Y-12241287D01*
X67660402Y-12240465D01*
X67660411Y-12240460D01*
X67688387Y-12212483D01*
X67716361Y-12184511D01*
X67916216Y-11984655D01*
X67996160Y-11904711D01*
X68035721Y-11836189D01*
X68056200Y-11759762D01*
X68056200Y-10926438D01*
X68035721Y-10850011D01*
X68033170Y-10845593D01*
X67996160Y-10781489D01*
X67940211Y-10725539D01*
X67940211Y-10725540D01*
X67664008Y-10449337D01*
X67636231Y-10394820D01*
X67639427Y-10350097D01*
X67640569Y-10346399D01*
X67640573Y-10346393D01*
X67650500Y-10278260D01*
X67650500Y-9911740D01*
X67640573Y-9843607D01*
X67589198Y-9738517D01*
X67506483Y-9655802D01*
X67502838Y-9654020D01*
X67401395Y-9604427D01*
X67374139Y-9600456D01*
X67333260Y-9594500D01*
X67333257Y-9594500D01*
X66440479Y-9594500D01*
X66382288Y-9575593D01*
X66370475Y-9565504D01*
X64973975Y-8169004D01*
X64946198Y-8114487D01*
X64955769Y-8054055D01*
X64999034Y-8010790D01*
X65043979Y-8000000D01*
X73701000Y-8000000D01*
X73759191Y-8018907D01*
X73795155Y-8068407D01*
X73800000Y-8099000D01*
X73800000Y-50701000D01*
X73781093Y-50759191D01*
X73731593Y-50795155D01*
X73701000Y-50800000D01*
X1299000Y-50800000D01*
X1240809Y-50781093D01*
X1204845Y-50731593D01*
X1200000Y-50701000D01*
X1200000Y-48393709D01*
X2149500Y-48393709D01*
X2149500Y-48606290D01*
X2182752Y-48816238D01*
X2248443Y-49018412D01*
X2344948Y-49207815D01*
X2344950Y-49207819D01*
X2469891Y-49379786D01*
X2469893Y-49379788D01*
X2469896Y-49379792D01*
X2620208Y-49530104D01*
X2620211Y-49530106D01*
X2620213Y-49530108D01*
X2792180Y-49655049D01*
X2792184Y-49655051D01*
X2981588Y-49751557D01*
X3183757Y-49817246D01*
X3183758Y-49817246D01*
X3183761Y-49817247D01*
X3393710Y-49850500D01*
X3393713Y-49850500D01*
X3606290Y-49850500D01*
X3816238Y-49817247D01*
X3816239Y-49817246D01*
X3816243Y-49817246D01*
X4018412Y-49751557D01*
X4207816Y-49655051D01*
X4379792Y-49530104D01*
X4530104Y-49379792D01*
X4655051Y-49207816D01*
X4751557Y-49018412D01*
X4817246Y-48816243D01*
X4817247Y-48816238D01*
X4850500Y-48606290D01*
X4850500Y-48393709D01*
X4817247Y-48183761D01*
X4788747Y-48096047D01*
X4751557Y-47981588D01*
X4655051Y-47792184D01*
X4655049Y-47792180D01*
X4530108Y-47620213D01*
X4530106Y-47620211D01*
X4530104Y-47620208D01*
X4379792Y-47469896D01*
X4379788Y-47469893D01*
X4379786Y-47469891D01*
X4207819Y-47344950D01*
X4207815Y-47344948D01*
X4018412Y-47248443D01*
X3816238Y-47182752D01*
X3606290Y-47149500D01*
X3606287Y-47149500D01*
X3393713Y-47149500D01*
X3393710Y-47149500D01*
X3183761Y-47182752D01*
X2981587Y-47248443D01*
X2792184Y-47344948D01*
X2792180Y-47344950D01*
X2620213Y-47469891D01*
X2469891Y-47620213D01*
X2344950Y-47792180D01*
X2344948Y-47792184D01*
X2248443Y-47981587D01*
X2182752Y-48183761D01*
X2149500Y-48393709D01*
X1200000Y-48393709D01*
X1200000Y-27911735D01*
X8141000Y-27911735D01*
X8141000Y-49750664D01*
X8161477Y-49827085D01*
X8161479Y-49827090D01*
X8185611Y-49868888D01*
X8201038Y-49895609D01*
X8201040Y-49895611D01*
X8543339Y-50237911D01*
X8599289Y-50293860D01*
X8667807Y-50333419D01*
X8667811Y-50333421D01*
X8744235Y-50353899D01*
X8744237Y-50353900D01*
X8744238Y-50353900D01*
X20322463Y-50353900D01*
X20322463Y-50353899D01*
X20398889Y-50333421D01*
X20467411Y-50293860D01*
X20523360Y-50237911D01*
X21678596Y-49082673D01*
X21733111Y-49054898D01*
X21793543Y-49064469D01*
X21825126Y-49089875D01*
X21953581Y-49246400D01*
X21953585Y-49246404D01*
X21953590Y-49246410D01*
X21953595Y-49246414D01*
X22113547Y-49377683D01*
X22113548Y-49377683D01*
X22113550Y-49377685D01*
X22296046Y-49475232D01*
X22433997Y-49517078D01*
X22494065Y-49535300D01*
X22494070Y-49535301D01*
X22699997Y-49555583D01*
X22700000Y-49555583D01*
X22700003Y-49555583D01*
X22905929Y-49535301D01*
X22905934Y-49535300D01*
X22923063Y-49530104D01*
X23103954Y-49475232D01*
X23286450Y-49377685D01*
X23446410Y-49246410D01*
X23577685Y-49086450D01*
X23675232Y-48903954D01*
X23735300Y-48705934D01*
X23735301Y-48705929D01*
X23755583Y-48500003D01*
X23755583Y-48499996D01*
X23735301Y-48294070D01*
X23735300Y-48294065D01*
X23717078Y-48233997D01*
X23675232Y-48096046D01*
X23577685Y-47913550D01*
X23563889Y-47896740D01*
X23446414Y-47753595D01*
X23446410Y-47753590D01*
X23446404Y-47753585D01*
X23286452Y-47622316D01*
X23103954Y-47524768D01*
X22905934Y-47464699D01*
X22905929Y-47464698D01*
X22700003Y-47444417D01*
X22699997Y-47444417D01*
X22494070Y-47464698D01*
X22494065Y-47464699D01*
X22296045Y-47524768D01*
X22113547Y-47622316D01*
X21953595Y-47753585D01*
X21953585Y-47753595D01*
X21822316Y-47913547D01*
X21724768Y-48096045D01*
X21724767Y-48096047D01*
X21714700Y-48129237D01*
X21679716Y-48179434D01*
X21621908Y-48199481D01*
X21619963Y-48199500D01*
X21508735Y-48199500D01*
X21432311Y-48219978D01*
X21432307Y-48219980D01*
X21363788Y-48259539D01*
X21343271Y-48280057D01*
X21288754Y-48307833D01*
X21228322Y-48298261D01*
X21185058Y-48254995D01*
X21178532Y-48238790D01*
X21135232Y-48096046D01*
X21037685Y-47913550D01*
X21023889Y-47896740D01*
X20906414Y-47753595D01*
X20906410Y-47753590D01*
X20906404Y-47753585D01*
X20746452Y-47622316D01*
X20563954Y-47524768D01*
X20365934Y-47464699D01*
X20365929Y-47464698D01*
X20160003Y-47444417D01*
X20159997Y-47444417D01*
X19954070Y-47464698D01*
X19954065Y-47464699D01*
X19756045Y-47524768D01*
X19573547Y-47622316D01*
X19413595Y-47753585D01*
X19413585Y-47753595D01*
X19282316Y-47913547D01*
X19184768Y-48096045D01*
X19124699Y-48294065D01*
X19124698Y-48294070D01*
X19104417Y-48499996D01*
X19104417Y-48500003D01*
X19124698Y-48705929D01*
X19124699Y-48705934D01*
X19184768Y-48903954D01*
X19282316Y-49086452D01*
X19366028Y-49188455D01*
X19413590Y-49246410D01*
X19413595Y-49246414D01*
X19573547Y-49377683D01*
X19573548Y-49377683D01*
X19573550Y-49377685D01*
X19756046Y-49475232D01*
X19893997Y-49517078D01*
X19954065Y-49535300D01*
X19954070Y-49535301D01*
X20129885Y-49552617D01*
X20185942Y-49577137D01*
X20216881Y-49629923D01*
X20210884Y-49690814D01*
X20190197Y-49721131D01*
X20187438Y-49723891D01*
X20132927Y-49751678D01*
X20117422Y-49752900D01*
X17631799Y-49752900D01*
X17621057Y-49749410D01*
X17608201Y-49752900D01*
X15091799Y-49752900D01*
X15081057Y-49749410D01*
X15068201Y-49752900D01*
X12551799Y-49752900D01*
X12541057Y-49749410D01*
X12528201Y-49752900D01*
X11573478Y-49752900D01*
X11515287Y-49733993D01*
X11479323Y-49684493D01*
X11479323Y-49623307D01*
X11503472Y-49583898D01*
X11510460Y-49576911D01*
X11534484Y-49535300D01*
X11550020Y-49508392D01*
X11550020Y-49508390D01*
X11550022Y-49508388D01*
X11570500Y-49431962D01*
X11570500Y-49352838D01*
X11570500Y-49251260D01*
X11589407Y-49193069D01*
X11638907Y-49157105D01*
X11700093Y-49157105D01*
X11746027Y-49188454D01*
X11793590Y-49246410D01*
X11793595Y-49246414D01*
X11953547Y-49377683D01*
X11953548Y-49377683D01*
X11953550Y-49377685D01*
X12136046Y-49475232D01*
X12273997Y-49517078D01*
X12334065Y-49535300D01*
X12334070Y-49535301D01*
X12537905Y-49555377D01*
X12539853Y-49556229D01*
X12542095Y-49555377D01*
X12745929Y-49535301D01*
X12745934Y-49535300D01*
X12763063Y-49530104D01*
X12943954Y-49475232D01*
X13126450Y-49377685D01*
X13286410Y-49246410D01*
X13417685Y-49086450D01*
X13515232Y-48903954D01*
X13575300Y-48705934D01*
X13575301Y-48705929D01*
X13595583Y-48500003D01*
X13595583Y-48499996D01*
X14024417Y-48499996D01*
X14024417Y-48500003D01*
X14044698Y-48705929D01*
X14044699Y-48705934D01*
X14104768Y-48903954D01*
X14202316Y-49086452D01*
X14286028Y-49188455D01*
X14333590Y-49246410D01*
X14333595Y-49246414D01*
X14493547Y-49377683D01*
X14493548Y-49377683D01*
X14493550Y-49377685D01*
X14676046Y-49475232D01*
X14813997Y-49517078D01*
X14874065Y-49535300D01*
X14874070Y-49535301D01*
X15077905Y-49555377D01*
X15079853Y-49556229D01*
X15082095Y-49555377D01*
X15285929Y-49535301D01*
X15285934Y-49535300D01*
X15303063Y-49530104D01*
X15483954Y-49475232D01*
X15666450Y-49377685D01*
X15826410Y-49246410D01*
X15957685Y-49086450D01*
X16055232Y-48903954D01*
X16115300Y-48705934D01*
X16115301Y-48705929D01*
X16135583Y-48500003D01*
X16135583Y-48499996D01*
X16564417Y-48499996D01*
X16564417Y-48500003D01*
X16584698Y-48705929D01*
X16584699Y-48705934D01*
X16644768Y-48903954D01*
X16742316Y-49086452D01*
X16826028Y-49188455D01*
X16873590Y-49246410D01*
X16873595Y-49246414D01*
X17033547Y-49377683D01*
X17033548Y-49377683D01*
X17033550Y-49377685D01*
X17216046Y-49475232D01*
X17353997Y-49517078D01*
X17414065Y-49535300D01*
X17414070Y-49535301D01*
X17617905Y-49555377D01*
X17619853Y-49556229D01*
X17622095Y-49555377D01*
X17825929Y-49535301D01*
X17825934Y-49535300D01*
X17843063Y-49530104D01*
X18023954Y-49475232D01*
X18206450Y-49377685D01*
X18366410Y-49246410D01*
X18497685Y-49086450D01*
X18595232Y-48903954D01*
X18655300Y-48705934D01*
X18655301Y-48705929D01*
X18675583Y-48500003D01*
X18675583Y-48499996D01*
X18655301Y-48294070D01*
X18655300Y-48294065D01*
X18637078Y-48233997D01*
X18595232Y-48096046D01*
X18497685Y-47913550D01*
X18483889Y-47896740D01*
X18366414Y-47753595D01*
X18366410Y-47753590D01*
X18366404Y-47753585D01*
X18206452Y-47622316D01*
X18023954Y-47524768D01*
X17825934Y-47464699D01*
X17825929Y-47464698D01*
X17620003Y-47444417D01*
X17619997Y-47444417D01*
X17414070Y-47464698D01*
X17414065Y-47464699D01*
X17216045Y-47524768D01*
X17033547Y-47622316D01*
X16873595Y-47753585D01*
X16873585Y-47753595D01*
X16742316Y-47913547D01*
X16644768Y-48096045D01*
X16584699Y-48294065D01*
X16584698Y-48294070D01*
X16564417Y-48499996D01*
X16135583Y-48499996D01*
X16115301Y-48294070D01*
X16115300Y-48294065D01*
X16097078Y-48233997D01*
X16055232Y-48096046D01*
X15957685Y-47913550D01*
X15943889Y-47896740D01*
X15826414Y-47753595D01*
X15826410Y-47753590D01*
X15826404Y-47753585D01*
X15666452Y-47622316D01*
X15483954Y-47524768D01*
X15285934Y-47464699D01*
X15285929Y-47464698D01*
X15080003Y-47444417D01*
X15079997Y-47444417D01*
X14874070Y-47464698D01*
X14874065Y-47464699D01*
X14676045Y-47524768D01*
X14493547Y-47622316D01*
X14333595Y-47753585D01*
X14333585Y-47753595D01*
X14202316Y-47913547D01*
X14104768Y-48096045D01*
X14044699Y-48294065D01*
X14044698Y-48294070D01*
X14024417Y-48499996D01*
X13595583Y-48499996D01*
X13575301Y-48294070D01*
X13575300Y-48294065D01*
X13557078Y-48233997D01*
X13515232Y-48096046D01*
X13417685Y-47913550D01*
X13403889Y-47896740D01*
X13286414Y-47753595D01*
X13286410Y-47753590D01*
X13286404Y-47753585D01*
X13126452Y-47622316D01*
X12943954Y-47524768D01*
X12745934Y-47464699D01*
X12745928Y-47464698D01*
X12609714Y-47451282D01*
X12553657Y-47426762D01*
X12522718Y-47373975D01*
X12528716Y-47313084D01*
X12549411Y-47282758D01*
X14985497Y-44846672D01*
X15040013Y-44818897D01*
X15100445Y-44828468D01*
X15125500Y-44846671D01*
X15655989Y-45377160D01*
X15655991Y-45377161D01*
X15655993Y-45377163D01*
X15724508Y-45416720D01*
X15724506Y-45416720D01*
X15724510Y-45416721D01*
X15724512Y-45416722D01*
X15800938Y-45437200D01*
X19143017Y-45437200D01*
X19201208Y-45456107D01*
X19217833Y-45471367D01*
X19258972Y-45518843D01*
X19380047Y-45596653D01*
X19486503Y-45627911D01*
X19518135Y-45637199D01*
X19518136Y-45637199D01*
X19518139Y-45637200D01*
X19518141Y-45637200D01*
X19662059Y-45637200D01*
X19662061Y-45637200D01*
X19800153Y-45596653D01*
X19921228Y-45518843D01*
X20015477Y-45410073D01*
X20075265Y-45279157D01*
X20095747Y-45136700D01*
X20075265Y-44994243D01*
X20015477Y-44863327D01*
X19921228Y-44754557D01*
X19921227Y-44754556D01*
X19921226Y-44754555D01*
X19800157Y-44676749D01*
X19800154Y-44676747D01*
X19800153Y-44676747D01*
X19800150Y-44676746D01*
X19662064Y-44636200D01*
X19662061Y-44636200D01*
X19518139Y-44636200D01*
X19518135Y-44636200D01*
X19380049Y-44676746D01*
X19380042Y-44676749D01*
X19258976Y-44754554D01*
X19258971Y-44754558D01*
X19249031Y-44766028D01*
X19223940Y-44794987D01*
X19217836Y-44802031D01*
X19165440Y-44833627D01*
X19143017Y-44836200D01*
X16005979Y-44836200D01*
X15947788Y-44817293D01*
X15935975Y-44807204D01*
X15384996Y-44256225D01*
X15357219Y-44201708D01*
X15356000Y-44186221D01*
X15356000Y-43531320D01*
X15366791Y-43486375D01*
X15410644Y-43400307D01*
X15410645Y-43400305D01*
X15410646Y-43400304D01*
X15425500Y-43306519D01*
X15425499Y-42693482D01*
X15419989Y-42658691D01*
X15409806Y-42594385D01*
X15419378Y-42533953D01*
X15462643Y-42490690D01*
X15507587Y-42479900D01*
X15688921Y-42479900D01*
X15747112Y-42498807D01*
X15758925Y-42508896D01*
X16045504Y-42795475D01*
X16073281Y-42849992D01*
X16074500Y-42865479D01*
X16074500Y-43306520D01*
X16074501Y-43306523D01*
X16089352Y-43400299D01*
X16089354Y-43400304D01*
X16146950Y-43513342D01*
X16236658Y-43603050D01*
X16349696Y-43660646D01*
X16443481Y-43675500D01*
X16906518Y-43675499D01*
X16906520Y-43675499D01*
X16906521Y-43675498D01*
X16975502Y-43664574D01*
X17000299Y-43660647D01*
X17000299Y-43660646D01*
X17000304Y-43660646D01*
X17113342Y-43603050D01*
X17203050Y-43513342D01*
X17260646Y-43400304D01*
X17275500Y-43306519D01*
X17275499Y-42693482D01*
X17266109Y-42634190D01*
X17260647Y-42599700D01*
X17260646Y-42599698D01*
X17260646Y-42599696D01*
X17203050Y-42486658D01*
X17113342Y-42396950D01*
X17000304Y-42339354D01*
X17000305Y-42339354D01*
X16906522Y-42324500D01*
X16465479Y-42324500D01*
X16407288Y-42305593D01*
X16395476Y-42295504D01*
X16038911Y-41938940D01*
X15993703Y-41912839D01*
X15993702Y-41912839D01*
X15970388Y-41899378D01*
X15893964Y-41878900D01*
X15893962Y-41878900D01*
X13782779Y-41878900D01*
X13724588Y-41859993D01*
X13712775Y-41849904D01*
X12791196Y-40928325D01*
X12763419Y-40873808D01*
X12762200Y-40858321D01*
X12762200Y-39378777D01*
X12781107Y-39320586D01*
X12791191Y-39308779D01*
X12895475Y-39204494D01*
X12949990Y-39176718D01*
X12965464Y-39175499D01*
X13406518Y-39175499D01*
X13406521Y-39175499D01*
X13406522Y-39175498D01*
X13475502Y-39164574D01*
X13500299Y-39160647D01*
X13500299Y-39160646D01*
X13500304Y-39160646D01*
X13613342Y-39103050D01*
X13703050Y-39013342D01*
X13760646Y-38900304D01*
X13775500Y-38806519D01*
X13775499Y-38365476D01*
X13794406Y-38307286D01*
X13804489Y-38295480D01*
X14068899Y-38031071D01*
X14123414Y-38003295D01*
X14183846Y-38012866D01*
X14227111Y-38056131D01*
X14236682Y-38116563D01*
X14224500Y-38193477D01*
X14224500Y-38806520D01*
X14224501Y-38806523D01*
X14239352Y-38900299D01*
X14239354Y-38900304D01*
X14296950Y-39013342D01*
X14386658Y-39103050D01*
X14470446Y-39145742D01*
X14513710Y-39189006D01*
X14524500Y-39233951D01*
X14524500Y-39741728D01*
X14505593Y-39799919D01*
X14456093Y-39835883D01*
X14440994Y-39839508D01*
X14439458Y-39839751D01*
X14437578Y-39840049D01*
X14319250Y-39900341D01*
X14225341Y-39994250D01*
X14165050Y-40112576D01*
X14165049Y-40112580D01*
X14149500Y-40210751D01*
X14149500Y-40789248D01*
X14159460Y-40852129D01*
X14164141Y-40881690D01*
X14165049Y-40887419D01*
X14165050Y-40887423D01*
X14193357Y-40942978D01*
X14225342Y-41005751D01*
X14319249Y-41099658D01*
X14437580Y-41159951D01*
X14504130Y-41170491D01*
X14535751Y-41175500D01*
X14535754Y-41175500D01*
X15039249Y-41175500D01*
X15067803Y-41170976D01*
X15137420Y-41159951D01*
X15255751Y-41099658D01*
X15349658Y-41005751D01*
X15409951Y-40887420D01*
X15425500Y-40789246D01*
X15425500Y-40210754D01*
X15425500Y-40210751D01*
X17649500Y-40210751D01*
X17649500Y-40789248D01*
X17659460Y-40852129D01*
X17664141Y-40881690D01*
X17665049Y-40887419D01*
X17665050Y-40887423D01*
X17693357Y-40942978D01*
X17725342Y-41005751D01*
X17819249Y-41099658D01*
X17937580Y-41159951D01*
X18004130Y-41170491D01*
X18035751Y-41175500D01*
X18035754Y-41175500D01*
X18539249Y-41175500D01*
X18567803Y-41170976D01*
X18637420Y-41159951D01*
X18755751Y-41099658D01*
X18849658Y-41005751D01*
X18909951Y-40887420D01*
X18910491Y-40884008D01*
X18912059Y-40880931D01*
X18912358Y-40880012D01*
X18912503Y-40880059D01*
X18938271Y-40829494D01*
X18992789Y-40801718D01*
X19008272Y-40800500D01*
X19907563Y-40800500D01*
X19907563Y-40800499D01*
X19983989Y-40780021D01*
X20052511Y-40740460D01*
X20108460Y-40684511D01*
X31901775Y-28891196D01*
X31956292Y-28863419D01*
X31971779Y-28862200D01*
X43333821Y-28862200D01*
X43392012Y-28881107D01*
X43427976Y-28930607D01*
X43427976Y-28991793D01*
X43403825Y-29031204D01*
X43163925Y-29271104D01*
X43109408Y-29298881D01*
X43093921Y-29300100D01*
X34411535Y-29300100D01*
X34335111Y-29320578D01*
X34335107Y-29320580D01*
X34266591Y-29360138D01*
X21119504Y-42507225D01*
X21064987Y-42535002D01*
X21004555Y-42525431D01*
X20961290Y-42482166D01*
X20950500Y-42437221D01*
X20950500Y-42130253D01*
X20950498Y-42130241D01*
X20947711Y-42116231D01*
X20938867Y-42071769D01*
X20894552Y-42005448D01*
X20894548Y-42005445D01*
X20828233Y-41961134D01*
X20828231Y-41961133D01*
X20828228Y-41961132D01*
X20828227Y-41961132D01*
X20769758Y-41949501D01*
X20769748Y-41949500D01*
X19830252Y-41949500D01*
X19830251Y-41949500D01*
X19830241Y-41949501D01*
X19771772Y-41961132D01*
X19771766Y-41961134D01*
X19705451Y-42005445D01*
X19705445Y-42005451D01*
X19661134Y-42071766D01*
X19661132Y-42071772D01*
X19649501Y-42130241D01*
X19649500Y-42130253D01*
X19649500Y-42600500D01*
X19630593Y-42658691D01*
X19581093Y-42694655D01*
X19550500Y-42699500D01*
X19011008Y-42699500D01*
X18952817Y-42680593D01*
X18916853Y-42631093D01*
X18913227Y-42615987D01*
X18910647Y-42599699D01*
X18910646Y-42599697D01*
X18910646Y-42599696D01*
X18853050Y-42486658D01*
X18763342Y-42396950D01*
X18650304Y-42339354D01*
X18650305Y-42339354D01*
X18556522Y-42324500D01*
X18093479Y-42324500D01*
X18093476Y-42324501D01*
X17999700Y-42339352D01*
X17999695Y-42339354D01*
X17886659Y-42396949D01*
X17796949Y-42486659D01*
X17739354Y-42599695D01*
X17724500Y-42693477D01*
X17724500Y-43306520D01*
X17724501Y-43306523D01*
X17739352Y-43400299D01*
X17739354Y-43400304D01*
X17796950Y-43513342D01*
X17886658Y-43603050D01*
X17999696Y-43660646D01*
X18093481Y-43675500D01*
X18556518Y-43675499D01*
X18556520Y-43675499D01*
X18556521Y-43675498D01*
X18625502Y-43664574D01*
X18650299Y-43660647D01*
X18650299Y-43660646D01*
X18650304Y-43660646D01*
X18763342Y-43603050D01*
X18853050Y-43513342D01*
X18910646Y-43400304D01*
X18913226Y-43384013D01*
X18941003Y-43329497D01*
X18995519Y-43301719D01*
X19011007Y-43300500D01*
X19550500Y-43300500D01*
X19608691Y-43319407D01*
X19644655Y-43368907D01*
X19649500Y-43399500D01*
X19649500Y-43869746D01*
X19649501Y-43869758D01*
X19660509Y-43925093D01*
X19661133Y-43928231D01*
X19705448Y-43994552D01*
X19771769Y-44038867D01*
X19816231Y-44047711D01*
X19830241Y-44050498D01*
X19830246Y-44050498D01*
X19830252Y-44050500D01*
X19830253Y-44050500D01*
X20769747Y-44050500D01*
X20769748Y-44050500D01*
X20828231Y-44038867D01*
X20894552Y-43994552D01*
X20938867Y-43928231D01*
X20950500Y-43869748D01*
X20950500Y-43399500D01*
X20969407Y-43341309D01*
X21018907Y-43305345D01*
X21049500Y-43300500D01*
X21091263Y-43300500D01*
X21091263Y-43300499D01*
X21167689Y-43280021D01*
X21236211Y-43240460D01*
X21292160Y-43184511D01*
X22346418Y-42130253D01*
X24649500Y-42130253D01*
X24649500Y-43869746D01*
X24649501Y-43869758D01*
X24660509Y-43925093D01*
X24661133Y-43928231D01*
X24705448Y-43994552D01*
X24771769Y-44038867D01*
X24816231Y-44047711D01*
X24830241Y-44050498D01*
X24830246Y-44050498D01*
X24830252Y-44050500D01*
X24830253Y-44050500D01*
X25769747Y-44050500D01*
X25769748Y-44050500D01*
X25828231Y-44038867D01*
X25894552Y-43994552D01*
X25938867Y-43928231D01*
X25950500Y-43869748D01*
X25950500Y-43559242D01*
X25969407Y-43501051D01*
X26018907Y-43465087D01*
X26077388Y-43464252D01*
X26200839Y-43500500D01*
X26200841Y-43500500D01*
X26344759Y-43500500D01*
X26344761Y-43500500D01*
X26482853Y-43459953D01*
X26603928Y-43382143D01*
X26698177Y-43273373D01*
X26757965Y-43142457D01*
X26778447Y-43000000D01*
X26757965Y-42857543D01*
X26698177Y-42726627D01*
X26603928Y-42617857D01*
X26603927Y-42617856D01*
X26603926Y-42617855D01*
X26482857Y-42540049D01*
X26482854Y-42540047D01*
X26482853Y-42540047D01*
X26482850Y-42540046D01*
X26344764Y-42499500D01*
X26344761Y-42499500D01*
X26200839Y-42499500D01*
X26200835Y-42499500D01*
X26077391Y-42535747D01*
X26016231Y-42533999D01*
X25967778Y-42496637D01*
X25950500Y-42440757D01*
X25950500Y-42130253D01*
X25950498Y-42130241D01*
X25947711Y-42116231D01*
X25938867Y-42071769D01*
X25894552Y-42005448D01*
X25894548Y-42005445D01*
X25828233Y-41961134D01*
X25828231Y-41961133D01*
X25828228Y-41961132D01*
X25828227Y-41961132D01*
X25769758Y-41949501D01*
X25769748Y-41949500D01*
X24830252Y-41949500D01*
X24830251Y-41949500D01*
X24830241Y-41949501D01*
X24771772Y-41961132D01*
X24771766Y-41961134D01*
X24705451Y-42005445D01*
X24705445Y-42005451D01*
X24661134Y-42071766D01*
X24661132Y-42071772D01*
X24649501Y-42130241D01*
X24649500Y-42130253D01*
X22346418Y-42130253D01*
X34546575Y-29930096D01*
X34601092Y-29902319D01*
X34616579Y-29901100D01*
X43298963Y-29901100D01*
X43298963Y-29901099D01*
X43375389Y-29880621D01*
X43443911Y-29841060D01*
X43499860Y-29785111D01*
X45938760Y-27346211D01*
X45950724Y-27325489D01*
X45978321Y-27277689D01*
X45998800Y-27201262D01*
X45998800Y-27009500D01*
X46017707Y-26951309D01*
X46067207Y-26915345D01*
X46097800Y-26910500D01*
X47062221Y-26910500D01*
X47120412Y-26929407D01*
X47156376Y-26978907D01*
X47156376Y-27040093D01*
X47132225Y-27079504D01*
X46540489Y-27671240D01*
X46540488Y-27671239D01*
X46484539Y-27727189D01*
X46444980Y-27795707D01*
X46444978Y-27795711D01*
X46424500Y-27872135D01*
X46424500Y-39222964D01*
X46444977Y-39299385D01*
X46444979Y-39299390D01*
X46466513Y-39336688D01*
X46475433Y-39352137D01*
X46484540Y-39367911D01*
X50796140Y-43679511D01*
X50796139Y-43679511D01*
X50852089Y-43735460D01*
X50920607Y-43775019D01*
X50920611Y-43775021D01*
X50997035Y-43795499D01*
X50997037Y-43795500D01*
X50997038Y-43795500D01*
X51076162Y-43795500D01*
X53765521Y-43795500D01*
X53823712Y-43814407D01*
X53859676Y-43863907D01*
X53859676Y-43925093D01*
X53835525Y-43964504D01*
X53504525Y-44295504D01*
X53450008Y-44323281D01*
X53434521Y-44324500D01*
X52966510Y-44324500D01*
X52866874Y-44340281D01*
X52866867Y-44340283D01*
X52746782Y-44401470D01*
X52651470Y-44496782D01*
X52590282Y-44616870D01*
X52587874Y-44624282D01*
X52586432Y-44623813D01*
X52562649Y-44670499D01*
X52508134Y-44698280D01*
X52492641Y-44699500D01*
X51180279Y-44699500D01*
X51122088Y-44680593D01*
X51110275Y-44670504D01*
X48059177Y-41619406D01*
X44999411Y-38559640D01*
X44996809Y-38558138D01*
X44957637Y-38535522D01*
X44930888Y-38520078D01*
X44854464Y-38499600D01*
X44854462Y-38499600D01*
X39885338Y-38499600D01*
X39885335Y-38499600D01*
X39808911Y-38520078D01*
X39768194Y-38543586D01*
X39742991Y-38558138D01*
X39740389Y-38559640D01*
X39004525Y-39295504D01*
X38950008Y-39323281D01*
X38934521Y-39324500D01*
X38515479Y-39324500D01*
X38457288Y-39305593D01*
X38445476Y-39295504D01*
X38130211Y-38980240D01*
X38130204Y-38980236D01*
X38117394Y-38972840D01*
X38061689Y-38940679D01*
X38061687Y-38940678D01*
X38061685Y-38940677D01*
X37985264Y-38920200D01*
X37985262Y-38920200D01*
X36043862Y-38920200D01*
X35964738Y-38920200D01*
X35918856Y-38932494D01*
X35888307Y-38940679D01*
X35819793Y-38980236D01*
X35819788Y-38980240D01*
X35504524Y-39295504D01*
X35450008Y-39323281D01*
X35434521Y-39324500D01*
X34966510Y-39324500D01*
X34866874Y-39340281D01*
X34866867Y-39340283D01*
X34746782Y-39401470D01*
X34651470Y-39496782D01*
X34590283Y-39616867D01*
X34590281Y-39616874D01*
X34574500Y-39716510D01*
X34574500Y-40184521D01*
X34555593Y-40242712D01*
X34545503Y-40254525D01*
X34403834Y-40396193D01*
X34349318Y-40423970D01*
X34288886Y-40414398D01*
X34280308Y-40409473D01*
X34272956Y-40404748D01*
X34272954Y-40404747D01*
X34134864Y-40364200D01*
X34134861Y-40364200D01*
X33990939Y-40364200D01*
X33990935Y-40364200D01*
X33852849Y-40404746D01*
X33852842Y-40404749D01*
X33731773Y-40482555D01*
X33637522Y-40591328D01*
X33577734Y-40722243D01*
X33559040Y-40852267D01*
X33532044Y-40907175D01*
X33477930Y-40935728D01*
X33417367Y-40927021D01*
X33411549Y-40923915D01*
X33370090Y-40899979D01*
X33370088Y-40899978D01*
X33293664Y-40879500D01*
X33293662Y-40879500D01*
X31955438Y-40879500D01*
X31955435Y-40879500D01*
X31879011Y-40899978D01*
X31879007Y-40899980D01*
X31810489Y-40939539D01*
X31454524Y-41295504D01*
X31400008Y-41323281D01*
X31384521Y-41324500D01*
X30943479Y-41324500D01*
X30943476Y-41324501D01*
X30849700Y-41339352D01*
X30849695Y-41339354D01*
X30736659Y-41396949D01*
X30646949Y-41486659D01*
X30589354Y-41599695D01*
X30574500Y-41693477D01*
X30574500Y-42306520D01*
X30574501Y-42306523D01*
X30589352Y-42400299D01*
X30589354Y-42400304D01*
X30646950Y-42513342D01*
X30736658Y-42603050D01*
X30849696Y-42660646D01*
X30943481Y-42675500D01*
X31406518Y-42675499D01*
X31406520Y-42675499D01*
X31406521Y-42675498D01*
X31453411Y-42668072D01*
X31500299Y-42660647D01*
X31500299Y-42660646D01*
X31500304Y-42660646D01*
X31613342Y-42603050D01*
X31703050Y-42513342D01*
X31760646Y-42400304D01*
X31775500Y-42306519D01*
X31775499Y-41865476D01*
X31794406Y-41807286D01*
X31804489Y-41795480D01*
X32090475Y-41509496D01*
X32144991Y-41481719D01*
X32160478Y-41480500D01*
X33088621Y-41480500D01*
X33146812Y-41499407D01*
X33158624Y-41509496D01*
X33373488Y-41724359D01*
X33373493Y-41724363D01*
X33442008Y-41763920D01*
X33442006Y-41763920D01*
X33442010Y-41763921D01*
X33442012Y-41763922D01*
X33518438Y-41784400D01*
X39340121Y-41784400D01*
X39398312Y-41803307D01*
X39410125Y-41813396D01*
X39496790Y-41900061D01*
X39524567Y-41954578D01*
X39514996Y-42015010D01*
X39471731Y-42058275D01*
X39467915Y-42060117D01*
X39464347Y-42061746D01*
X39343273Y-42139555D01*
X39249022Y-42248328D01*
X39189234Y-42379243D01*
X39168753Y-42521697D01*
X39168753Y-42521702D01*
X39189234Y-42664156D01*
X39189234Y-42664158D01*
X39212078Y-42714178D01*
X39219053Y-42774964D01*
X39188966Y-42828241D01*
X39177028Y-42837619D01*
X39105449Y-42885447D01*
X39105445Y-42885451D01*
X39061134Y-42951766D01*
X39061132Y-42951772D01*
X39049501Y-43010241D01*
X39049500Y-43010253D01*
X39049500Y-44499748D01*
X39054197Y-44523360D01*
X39047006Y-44584121D01*
X39005473Y-44629052D01*
X38982723Y-44638302D01*
X38953973Y-44646005D01*
X38887865Y-44663719D01*
X38887863Y-44663719D01*
X38887859Y-44663721D01*
X38756639Y-44739481D01*
X38649481Y-44846639D01*
X38573720Y-44977860D01*
X38551793Y-45059693D01*
X38534500Y-45124234D01*
X38534500Y-45275766D01*
X38563268Y-45383132D01*
X38573720Y-45422139D01*
X38649481Y-45553360D01*
X38649483Y-45553362D01*
X38649485Y-45553365D01*
X38756635Y-45660515D01*
X38756637Y-45660516D01*
X38756639Y-45660518D01*
X38887861Y-45736279D01*
X38887859Y-45736279D01*
X38887863Y-45736280D01*
X38887865Y-45736281D01*
X39034234Y-45775500D01*
X39034236Y-45775500D01*
X39185764Y-45775500D01*
X39185766Y-45775500D01*
X39332135Y-45736281D01*
X39332137Y-45736279D01*
X39332139Y-45736279D01*
X39463360Y-45660518D01*
X39463360Y-45660517D01*
X39463365Y-45660515D01*
X39570515Y-45553365D01*
X39590446Y-45518844D01*
X39646279Y-45422139D01*
X39646279Y-45422137D01*
X39646281Y-45422135D01*
X39685500Y-45275766D01*
X39685500Y-45124234D01*
X39646281Y-44977865D01*
X39646279Y-44977862D01*
X39646279Y-44977860D01*
X39570518Y-44846639D01*
X39566566Y-44841489D01*
X39568531Y-44839981D01*
X39545606Y-44794987D01*
X39555177Y-44734555D01*
X39598442Y-44691290D01*
X39643387Y-44680500D01*
X39869747Y-44680500D01*
X39869748Y-44680500D01*
X39928231Y-44668867D01*
X39928236Y-44668863D01*
X39937113Y-44665187D01*
X39998110Y-44660386D01*
X40012887Y-44665187D01*
X40021765Y-44668864D01*
X40021769Y-44668867D01*
X40080252Y-44680500D01*
X40080253Y-44680500D01*
X40419747Y-44680500D01*
X40419748Y-44680500D01*
X40438621Y-44676746D01*
X40480685Y-44668379D01*
X40519315Y-44668379D01*
X40580241Y-44680498D01*
X40580246Y-44680498D01*
X40580252Y-44680500D01*
X40580253Y-44680500D01*
X40919747Y-44680500D01*
X40919748Y-44680500D01*
X40938621Y-44676746D01*
X40980685Y-44668379D01*
X41019315Y-44668379D01*
X41080241Y-44680498D01*
X41080246Y-44680498D01*
X41080252Y-44680500D01*
X41080253Y-44680500D01*
X41419747Y-44680500D01*
X41419748Y-44680500D01*
X41438621Y-44676746D01*
X41480685Y-44668379D01*
X41519315Y-44668379D01*
X41580241Y-44680498D01*
X41580246Y-44680498D01*
X41580252Y-44680500D01*
X41580253Y-44680500D01*
X41919747Y-44680500D01*
X41919748Y-44680500D01*
X41938621Y-44676746D01*
X41980685Y-44668379D01*
X42019315Y-44668379D01*
X42080241Y-44680498D01*
X42080246Y-44680498D01*
X42080252Y-44680500D01*
X42080253Y-44680500D01*
X42419747Y-44680500D01*
X42419748Y-44680500D01*
X42438621Y-44676746D01*
X42480685Y-44668379D01*
X42519315Y-44668379D01*
X42580241Y-44680498D01*
X42580246Y-44680498D01*
X42580252Y-44680500D01*
X42580253Y-44680500D01*
X42919747Y-44680500D01*
X42919748Y-44680500D01*
X42938621Y-44676746D01*
X42980685Y-44668379D01*
X43019315Y-44668379D01*
X43080241Y-44680498D01*
X43080246Y-44680498D01*
X43080252Y-44680500D01*
X43080253Y-44680500D01*
X43419747Y-44680500D01*
X43419748Y-44680500D01*
X43438621Y-44676746D01*
X43480685Y-44668379D01*
X43519315Y-44668379D01*
X43580241Y-44680498D01*
X43580246Y-44680498D01*
X43580252Y-44680500D01*
X43580253Y-44680500D01*
X43919747Y-44680500D01*
X43919748Y-44680500D01*
X43978231Y-44668867D01*
X43978236Y-44668863D01*
X43987113Y-44665187D01*
X44048110Y-44660386D01*
X44062887Y-44665187D01*
X44071765Y-44668864D01*
X44071769Y-44668867D01*
X44130252Y-44680500D01*
X44356613Y-44680500D01*
X44414804Y-44699407D01*
X44450768Y-44748907D01*
X44450768Y-44810093D01*
X44432138Y-44840494D01*
X44433434Y-44841489D01*
X44429481Y-44846639D01*
X44353720Y-44977860D01*
X44331793Y-45059693D01*
X44314500Y-45124234D01*
X44314500Y-45275766D01*
X44343268Y-45383132D01*
X44353720Y-45422139D01*
X44429481Y-45553360D01*
X44429483Y-45553362D01*
X44429485Y-45553365D01*
X44536635Y-45660515D01*
X44536637Y-45660516D01*
X44536639Y-45660518D01*
X44667861Y-45736279D01*
X44667859Y-45736279D01*
X44667863Y-45736280D01*
X44667865Y-45736281D01*
X44814234Y-45775500D01*
X44814236Y-45775500D01*
X44965764Y-45775500D01*
X44965766Y-45775500D01*
X45112135Y-45736281D01*
X45112137Y-45736279D01*
X45112139Y-45736279D01*
X45243360Y-45660518D01*
X45243360Y-45660517D01*
X45243365Y-45660515D01*
X45350515Y-45553365D01*
X45370446Y-45518844D01*
X45426279Y-45422139D01*
X45426279Y-45422137D01*
X45426281Y-45422135D01*
X45465500Y-45275766D01*
X45465500Y-45124234D01*
X45426281Y-44977865D01*
X45426279Y-44977862D01*
X45426279Y-44977860D01*
X45350518Y-44846639D01*
X45350516Y-44846637D01*
X45350515Y-44846635D01*
X45243365Y-44739485D01*
X45243362Y-44739483D01*
X45243360Y-44739481D01*
X45112138Y-44663720D01*
X45112139Y-44663720D01*
X45017277Y-44638302D01*
X44965962Y-44604977D01*
X44944036Y-44547856D01*
X44945803Y-44523360D01*
X44950500Y-44499748D01*
X44950500Y-43010252D01*
X44938867Y-42951769D01*
X44894552Y-42885448D01*
X44864667Y-42865479D01*
X44828233Y-42841134D01*
X44819224Y-42837403D01*
X44819902Y-42835764D01*
X44776796Y-42811619D01*
X44751185Y-42756052D01*
X44750500Y-42744424D01*
X44750500Y-42530437D01*
X44750499Y-42530435D01*
X44748158Y-42521700D01*
X44730021Y-42454011D01*
X44720327Y-42437221D01*
X44690460Y-42385489D01*
X44634511Y-42329539D01*
X44634511Y-42329540D01*
X44545046Y-42240075D01*
X44517269Y-42185558D01*
X44517058Y-42155982D01*
X44520147Y-42134500D01*
X44519536Y-42130253D01*
X44499665Y-41992043D01*
X44482555Y-41954578D01*
X44439877Y-41861127D01*
X44345628Y-41752357D01*
X44345627Y-41752356D01*
X44345626Y-41752355D01*
X44224557Y-41674549D01*
X44224554Y-41674547D01*
X44224553Y-41674547D01*
X44224550Y-41674546D01*
X44086464Y-41634000D01*
X44086461Y-41634000D01*
X43942539Y-41634000D01*
X43942535Y-41634000D01*
X43804449Y-41674546D01*
X43804442Y-41674549D01*
X43683372Y-41752356D01*
X43649319Y-41791656D01*
X43596923Y-41823251D01*
X43535962Y-41818015D01*
X43489721Y-41777947D01*
X43475500Y-41726824D01*
X43475500Y-40733951D01*
X43494407Y-40675760D01*
X43529552Y-40645742D01*
X43613342Y-40603050D01*
X43703050Y-40513342D01*
X43760646Y-40400304D01*
X43775500Y-40306519D01*
X43775499Y-39693482D01*
X43773722Y-39682263D01*
X43760647Y-39599700D01*
X43760646Y-39599698D01*
X43760646Y-39599696D01*
X43703050Y-39486658D01*
X43613342Y-39396950D01*
X43500304Y-39339354D01*
X43500305Y-39339354D01*
X43406522Y-39324500D01*
X42943479Y-39324500D01*
X42943476Y-39324501D01*
X42849700Y-39339352D01*
X42849695Y-39339354D01*
X42736659Y-39396949D01*
X42646949Y-39486659D01*
X42589354Y-39599695D01*
X42574500Y-39693477D01*
X42574500Y-40306520D01*
X42574501Y-40306523D01*
X42589352Y-40400299D01*
X42589354Y-40400304D01*
X42646950Y-40513342D01*
X42736658Y-40603050D01*
X42820446Y-40645742D01*
X42863710Y-40689006D01*
X42874500Y-40733951D01*
X42874500Y-42192864D01*
X42894978Y-42269287D01*
X42894979Y-42269289D01*
X42902670Y-42282610D01*
X42923685Y-42319010D01*
X42934539Y-42337810D01*
X43257225Y-42660497D01*
X43285002Y-42715013D01*
X43275431Y-42775445D01*
X43232166Y-42818710D01*
X43187221Y-42829500D01*
X43080248Y-42829500D01*
X43019314Y-42841621D01*
X42980686Y-42841621D01*
X42919751Y-42829500D01*
X42919748Y-42829500D01*
X42580252Y-42829500D01*
X42580248Y-42829500D01*
X42519314Y-42841621D01*
X42480686Y-42841621D01*
X42419751Y-42829500D01*
X42419748Y-42829500D01*
X42080252Y-42829500D01*
X42080248Y-42829500D01*
X42019314Y-42841621D01*
X41980686Y-42841621D01*
X41919751Y-42829500D01*
X41919748Y-42829500D01*
X41580252Y-42829500D01*
X41580248Y-42829500D01*
X41519314Y-42841621D01*
X41480686Y-42841621D01*
X41419751Y-42829500D01*
X41419748Y-42829500D01*
X41149500Y-42829500D01*
X41091309Y-42810593D01*
X41055345Y-42761093D01*
X41050500Y-42730500D01*
X41050500Y-42688737D01*
X41050499Y-42688735D01*
X41048317Y-42680593D01*
X41030021Y-42612311D01*
X41022739Y-42599699D01*
X40990460Y-42543789D01*
X40934511Y-42487839D01*
X40934511Y-42487840D01*
X39690111Y-41243440D01*
X39690108Y-41243438D01*
X39621592Y-41203880D01*
X39621588Y-41203878D01*
X39545164Y-41183400D01*
X39545162Y-41183400D01*
X34705579Y-41183400D01*
X34647388Y-41164493D01*
X34611424Y-41114993D01*
X34611424Y-41053807D01*
X34635575Y-41014396D01*
X34945475Y-40704496D01*
X34999992Y-40676719D01*
X35015479Y-40675500D01*
X35483490Y-40675500D01*
X35504885Y-40672111D01*
X35583126Y-40659719D01*
X35703220Y-40598528D01*
X35798528Y-40503220D01*
X35859719Y-40383126D01*
X35875500Y-40283488D01*
X35875500Y-39815479D01*
X35894407Y-39757288D01*
X35904496Y-39745475D01*
X36099775Y-39550196D01*
X36154292Y-39522419D01*
X36169779Y-39521200D01*
X37780221Y-39521200D01*
X37838412Y-39540107D01*
X37850225Y-39550196D01*
X38045504Y-39745475D01*
X38073281Y-39799992D01*
X38074500Y-39815479D01*
X38074500Y-40283489D01*
X38078148Y-40306519D01*
X38087283Y-40364200D01*
X38090281Y-40383125D01*
X38090283Y-40383132D01*
X38147851Y-40496114D01*
X38151472Y-40503220D01*
X38246780Y-40598528D01*
X38246782Y-40598529D01*
X38366867Y-40659716D01*
X38366869Y-40659716D01*
X38366874Y-40659719D01*
X38442541Y-40671703D01*
X38466510Y-40675500D01*
X38466512Y-40675500D01*
X38983490Y-40675500D01*
X39004885Y-40672111D01*
X39083126Y-40659719D01*
X39203220Y-40598528D01*
X39298528Y-40503220D01*
X39359719Y-40383126D01*
X39375500Y-40283488D01*
X39375500Y-39815479D01*
X39394407Y-39757288D01*
X39404496Y-39745475D01*
X40020375Y-39129596D01*
X40074892Y-39101819D01*
X40090379Y-39100600D01*
X44649421Y-39100600D01*
X44707612Y-39119507D01*
X44719425Y-39129596D01*
X50830289Y-45240460D01*
X50830291Y-45240461D01*
X50830292Y-45240462D01*
X50830293Y-45240463D01*
X50898808Y-45280020D01*
X50898806Y-45280020D01*
X50898810Y-45280021D01*
X50898812Y-45280022D01*
X50975238Y-45300500D01*
X51054362Y-45300500D01*
X52492641Y-45300500D01*
X52550832Y-45319407D01*
X52586796Y-45368907D01*
X52590004Y-45382275D01*
X52590282Y-45383129D01*
X52630123Y-45461321D01*
X52651472Y-45503220D01*
X52746780Y-45598528D01*
X52746782Y-45598529D01*
X52866867Y-45659716D01*
X52866869Y-45659716D01*
X52866874Y-45659719D01*
X52942541Y-45671703D01*
X52966510Y-45675500D01*
X52966512Y-45675500D01*
X53483490Y-45675500D01*
X53504885Y-45672111D01*
X53583126Y-45659719D01*
X53703220Y-45598528D01*
X53798528Y-45503220D01*
X53859719Y-45383126D01*
X53875500Y-45283488D01*
X53875500Y-44815479D01*
X53894407Y-44757288D01*
X53904496Y-44745475D01*
X54402575Y-44247396D01*
X54457092Y-44219619D01*
X54472579Y-44218400D01*
X58446363Y-44218400D01*
X58446363Y-44218399D01*
X58522789Y-44197921D01*
X58591311Y-44158360D01*
X58647260Y-44102411D01*
X60190460Y-42559211D01*
X60207073Y-42530435D01*
X60214172Y-42518140D01*
X60214173Y-42518138D01*
X60220474Y-42507225D01*
X60230021Y-42490689D01*
X60250500Y-42414262D01*
X60250500Y-41696989D01*
X60269407Y-41638798D01*
X60318907Y-41602834D01*
X60330185Y-41599891D01*
X60407495Y-41584515D01*
X60438748Y-41563632D01*
X60468118Y-41550324D01*
X60543889Y-41530021D01*
X60543892Y-41530019D01*
X60543893Y-41530019D01*
X60567799Y-41516216D01*
X60612411Y-41490460D01*
X60668360Y-41434511D01*
X64240460Y-37862411D01*
X64262347Y-37824501D01*
X64280021Y-37793889D01*
X64300500Y-37717462D01*
X64300500Y-26449500D01*
X64319407Y-26391309D01*
X64368907Y-26355345D01*
X64399500Y-26350500D01*
X65456611Y-26350500D01*
X65456616Y-26350500D01*
X65527196Y-26344086D01*
X65689606Y-26293478D01*
X65835185Y-26205472D01*
X65955472Y-26085185D01*
X66043478Y-25939606D01*
X66094086Y-25777196D01*
X66100500Y-25706616D01*
X66100500Y-24593384D01*
X66094086Y-24522804D01*
X66043478Y-24360394D01*
X66042566Y-24358886D01*
X66002985Y-24293411D01*
X65955472Y-24214815D01*
X65835185Y-24094528D01*
X65797777Y-24071914D01*
X65689607Y-24006522D01*
X65689605Y-24006521D01*
X65527194Y-23955913D01*
X65456620Y-23949500D01*
X65456616Y-23949500D01*
X64399500Y-23949500D01*
X64341309Y-23930593D01*
X64305345Y-23881093D01*
X64300500Y-23850500D01*
X64300500Y-20149500D01*
X64319407Y-20091309D01*
X64368907Y-20055345D01*
X64399500Y-20050500D01*
X64412719Y-20050500D01*
X64412720Y-20050500D01*
X64525236Y-20035687D01*
X64665233Y-19977698D01*
X64785451Y-19885451D01*
X64877698Y-19765233D01*
X64935687Y-19625236D01*
X64950500Y-19512720D01*
X64950500Y-18187280D01*
X64935687Y-18074764D01*
X64877698Y-17934767D01*
X64785451Y-17814549D01*
X64665233Y-17722302D01*
X64525236Y-17664313D01*
X64525234Y-17664312D01*
X64525232Y-17664312D01*
X64412720Y-17649500D01*
X63587280Y-17649500D01*
X63587279Y-17649500D01*
X63474767Y-17664312D01*
X63474761Y-17664314D01*
X63334768Y-17722301D01*
X63214551Y-17814547D01*
X63214547Y-17814551D01*
X63122301Y-17934768D01*
X63064314Y-18074761D01*
X63064312Y-18074767D01*
X63049500Y-18187279D01*
X63049500Y-19512720D01*
X63063192Y-19616725D01*
X63064313Y-19625236D01*
X63122302Y-19765233D01*
X63214549Y-19885451D01*
X63334767Y-19977698D01*
X63474764Y-20035687D01*
X63587280Y-20050500D01*
X63600500Y-20050500D01*
X63658691Y-20069407D01*
X63694655Y-20118907D01*
X63699500Y-20149500D01*
X63699500Y-20155300D01*
X63680593Y-20213491D01*
X63631093Y-20249455D01*
X63600500Y-20254300D01*
X60734979Y-20254300D01*
X60676788Y-20235393D01*
X60664975Y-20225304D01*
X60325119Y-19885448D01*
X59911411Y-19471740D01*
X59911408Y-19471738D01*
X59842892Y-19432180D01*
X59842888Y-19432178D01*
X59766464Y-19411700D01*
X59766462Y-19411700D01*
X54412300Y-19411700D01*
X54354109Y-19392793D01*
X54318145Y-19343293D01*
X54313300Y-19312700D01*
X54313300Y-17423237D01*
X54313299Y-17423235D01*
X54306958Y-17399572D01*
X54292821Y-17346811D01*
X54253260Y-17278289D01*
X54197311Y-17222339D01*
X54197311Y-17222340D01*
X53779496Y-16804525D01*
X53751719Y-16750008D01*
X53750500Y-16734521D01*
X53750500Y-15970727D01*
X53750499Y-15970725D01*
X53747646Y-15940305D01*
X53747646Y-15940301D01*
X53702793Y-15812118D01*
X53696282Y-15803296D01*
X53622154Y-15702855D01*
X53622152Y-15702853D01*
X53622150Y-15702850D01*
X53622146Y-15702847D01*
X53622144Y-15702845D01*
X53512883Y-15622207D01*
X53384703Y-15577355D01*
X53384694Y-15577353D01*
X53354274Y-15574500D01*
X53354266Y-15574500D01*
X52745734Y-15574500D01*
X52745725Y-15574500D01*
X52715305Y-15577353D01*
X52715296Y-15577355D01*
X52587116Y-15622207D01*
X52477855Y-15702845D01*
X52477845Y-15702855D01*
X52397207Y-15812116D01*
X52352355Y-15940296D01*
X52352353Y-15940305D01*
X52349500Y-15970725D01*
X52349500Y-17029274D01*
X52352353Y-17059694D01*
X52352355Y-17059703D01*
X52397207Y-17187883D01*
X52477845Y-17297144D01*
X52477847Y-17297146D01*
X52477850Y-17297150D01*
X52477853Y-17297152D01*
X52477855Y-17297154D01*
X52587116Y-17377792D01*
X52587117Y-17377792D01*
X52587118Y-17377793D01*
X52715301Y-17422646D01*
X52745725Y-17425499D01*
X52745727Y-17425500D01*
X52745734Y-17425500D01*
X53354273Y-17425500D01*
X53354273Y-17425499D01*
X53384699Y-17422646D01*
X53446713Y-17400945D01*
X53507882Y-17399572D01*
X53549415Y-17424386D01*
X53683304Y-17558275D01*
X53711081Y-17612792D01*
X53712300Y-17628279D01*
X53712300Y-19546721D01*
X53693393Y-19604912D01*
X53683304Y-19616725D01*
X53504525Y-19795504D01*
X53450008Y-19823281D01*
X53434521Y-19824500D01*
X52966510Y-19824500D01*
X52866874Y-19840281D01*
X52866867Y-19840283D01*
X52746782Y-19901470D01*
X52651470Y-19996782D01*
X52590283Y-20116867D01*
X52590281Y-20116874D01*
X52585114Y-20149500D01*
X52574500Y-20216512D01*
X52574500Y-20783488D01*
X52588868Y-20874207D01*
X52590281Y-20883125D01*
X52590283Y-20883132D01*
X52637362Y-20975528D01*
X52651472Y-21003220D01*
X52746780Y-21098528D01*
X52746782Y-21098529D01*
X52866867Y-21159716D01*
X52866869Y-21159716D01*
X52866874Y-21159719D01*
X52942541Y-21171703D01*
X52966510Y-21175500D01*
X52966512Y-21175500D01*
X53483490Y-21175500D01*
X53504885Y-21172111D01*
X53583126Y-21159719D01*
X53703220Y-21098528D01*
X53798528Y-21003220D01*
X53859719Y-20883126D01*
X53875500Y-20783488D01*
X53875500Y-20315479D01*
X53894407Y-20257288D01*
X53904496Y-20245475D01*
X54108275Y-20041696D01*
X54162792Y-20013919D01*
X54178279Y-20012700D01*
X59561421Y-20012700D01*
X59619612Y-20031607D01*
X59631425Y-20041696D01*
X60329040Y-20739311D01*
X60329039Y-20739311D01*
X60384989Y-20795260D01*
X60453507Y-20834819D01*
X60453511Y-20834821D01*
X60529935Y-20855299D01*
X60529937Y-20855300D01*
X60529938Y-20855300D01*
X60609062Y-20855300D01*
X63600500Y-20855300D01*
X63658691Y-20874207D01*
X63694655Y-20923707D01*
X63699500Y-20954300D01*
X63699500Y-23850500D01*
X63680593Y-23908691D01*
X63631093Y-23944655D01*
X63600500Y-23949500D01*
X62543379Y-23949500D01*
X62472805Y-23955913D01*
X62310394Y-24006521D01*
X62310392Y-24006522D01*
X62164816Y-24094527D01*
X62044527Y-24214816D01*
X61956522Y-24360392D01*
X61956521Y-24360394D01*
X61905913Y-24522805D01*
X61899500Y-24593379D01*
X61899500Y-25706620D01*
X61905913Y-25777194D01*
X61956521Y-25939605D01*
X61956522Y-25939607D01*
X61980928Y-25979979D01*
X62044528Y-26085185D01*
X62164815Y-26205472D01*
X62310394Y-26293478D01*
X62472804Y-26344086D01*
X62543384Y-26350500D01*
X63600500Y-26350500D01*
X63658691Y-26369407D01*
X63694655Y-26418907D01*
X63699500Y-26449500D01*
X63699500Y-37512420D01*
X63680593Y-37570611D01*
X63670504Y-37582424D01*
X60725499Y-40527428D01*
X60670982Y-40555205D01*
X60610550Y-40545634D01*
X60567285Y-40502369D01*
X60557714Y-40441937D01*
X60558398Y-40438109D01*
X60561211Y-40423970D01*
X60575500Y-40352133D01*
X60575499Y-40147868D01*
X60572162Y-40131093D01*
X60559515Y-40067506D01*
X60559515Y-40067505D01*
X60551159Y-40054999D01*
X60534551Y-39996114D01*
X60551159Y-39944999D01*
X60559515Y-39932495D01*
X60575500Y-39852133D01*
X60575499Y-39647868D01*
X60559515Y-39567505D01*
X60551159Y-39554999D01*
X60534551Y-39496114D01*
X60551159Y-39444999D01*
X60559515Y-39432495D01*
X60575500Y-39352133D01*
X60575499Y-39147868D01*
X60569998Y-39120213D01*
X60559515Y-39067505D01*
X60559514Y-39067503D01*
X60498626Y-38976379D01*
X60498624Y-38976376D01*
X60498620Y-38976373D01*
X60407497Y-38915486D01*
X60407496Y-38915485D01*
X60407495Y-38915485D01*
X60327133Y-38899500D01*
X60327132Y-38899500D01*
X59572870Y-38899500D01*
X59572863Y-38899501D01*
X59492505Y-38915484D01*
X59492503Y-38915485D01*
X59401379Y-38976373D01*
X59401373Y-38976379D01*
X59340486Y-39067501D01*
X59340486Y-39067503D01*
X59340485Y-39067505D01*
X59333902Y-39100600D01*
X59324500Y-39147867D01*
X59324500Y-39352129D01*
X59324501Y-39352137D01*
X59340484Y-39432494D01*
X59340486Y-39432498D01*
X59348840Y-39445001D01*
X59365447Y-39503889D01*
X59348840Y-39554999D01*
X59340485Y-39567503D01*
X59340484Y-39567504D01*
X59324500Y-39647864D01*
X59324500Y-39852129D01*
X59324501Y-39852137D01*
X59340484Y-39932494D01*
X59340486Y-39932498D01*
X59348840Y-39945001D01*
X59365447Y-40003889D01*
X59348840Y-40054999D01*
X59340485Y-40067503D01*
X59340484Y-40067504D01*
X59324500Y-40147864D01*
X59324500Y-40352129D01*
X59324501Y-40352137D01*
X59340484Y-40432494D01*
X59340486Y-40432498D01*
X59348840Y-40445001D01*
X59365447Y-40503889D01*
X59348840Y-40554999D01*
X59340485Y-40567503D01*
X59340484Y-40567504D01*
X59324500Y-40647864D01*
X59324500Y-40647867D01*
X59324500Y-40740460D01*
X59324501Y-40823499D01*
X59305594Y-40881690D01*
X59256094Y-40917654D01*
X59225501Y-40922500D01*
X57479335Y-40922500D01*
X57402912Y-40942978D01*
X57337597Y-40980688D01*
X57337596Y-40980688D01*
X57334394Y-40982536D01*
X57334386Y-40982542D01*
X57065488Y-41251440D01*
X57006569Y-41310358D01*
X56952052Y-41338135D01*
X56917253Y-41337452D01*
X56852138Y-41324500D01*
X56852133Y-41324500D01*
X56774499Y-41324500D01*
X56716308Y-41305593D01*
X56680344Y-41256093D01*
X56675499Y-41225500D01*
X56675499Y-41147870D01*
X56675498Y-41147863D01*
X56668960Y-41114993D01*
X56659515Y-41067505D01*
X56651159Y-41054999D01*
X56634551Y-40996114D01*
X56651159Y-40944999D01*
X56659515Y-40932495D01*
X56675500Y-40852133D01*
X56675499Y-40647868D01*
X56659515Y-40567505D01*
X56651159Y-40554999D01*
X56634551Y-40496114D01*
X56651159Y-40444999D01*
X56659515Y-40432495D01*
X56675500Y-40352133D01*
X56675499Y-40147868D01*
X56672162Y-40131093D01*
X56659515Y-40067506D01*
X56659515Y-40067505D01*
X56651159Y-40054999D01*
X56634551Y-39996114D01*
X56651159Y-39944999D01*
X56659515Y-39932495D01*
X56675500Y-39852133D01*
X56675499Y-39647868D01*
X56659515Y-39567505D01*
X56651159Y-39554999D01*
X56634551Y-39496114D01*
X56651159Y-39444999D01*
X56659515Y-39432495D01*
X56675500Y-39352133D01*
X56675499Y-39147868D01*
X56669998Y-39120213D01*
X56666340Y-39101819D01*
X56659515Y-39067505D01*
X56651159Y-39054999D01*
X56634551Y-38996114D01*
X56651159Y-38944999D01*
X56659515Y-38932495D01*
X56675500Y-38852133D01*
X56675500Y-38774499D01*
X56694407Y-38716308D01*
X56743907Y-38680344D01*
X56774500Y-38675499D01*
X56852130Y-38675499D01*
X56852132Y-38675499D01*
X56932495Y-38659515D01*
X56944996Y-38651161D01*
X57003883Y-38634551D01*
X57055000Y-38651159D01*
X57067505Y-38659515D01*
X57147867Y-38675500D01*
X57352132Y-38675499D01*
X57432495Y-38659515D01*
X57444996Y-38651161D01*
X57503883Y-38634551D01*
X57555000Y-38651159D01*
X57567505Y-38659515D01*
X57647867Y-38675500D01*
X57852132Y-38675499D01*
X57932495Y-38659515D01*
X57944996Y-38651161D01*
X58003883Y-38634551D01*
X58055000Y-38651159D01*
X58067505Y-38659515D01*
X58147867Y-38675500D01*
X58352132Y-38675499D01*
X58432495Y-38659515D01*
X58444996Y-38651161D01*
X58503883Y-38634551D01*
X58555000Y-38651159D01*
X58567505Y-38659515D01*
X58647867Y-38675500D01*
X58852132Y-38675499D01*
X58932495Y-38659515D01*
X58944996Y-38651161D01*
X59003883Y-38634551D01*
X59055000Y-38651159D01*
X59067505Y-38659515D01*
X59147867Y-38675500D01*
X59352132Y-38675499D01*
X59432495Y-38659515D01*
X59523624Y-38598624D01*
X59584515Y-38507495D01*
X59600500Y-38427133D01*
X59600499Y-37672868D01*
X59584515Y-37592505D01*
X59574391Y-37577354D01*
X59523626Y-37501379D01*
X59523624Y-37501376D01*
X59469853Y-37465447D01*
X59432497Y-37440486D01*
X59432496Y-37440485D01*
X59432495Y-37440485D01*
X59352133Y-37424500D01*
X59352132Y-37424500D01*
X59147870Y-37424500D01*
X59147862Y-37424501D01*
X59067505Y-37440484D01*
X59067501Y-37440486D01*
X59054999Y-37448840D01*
X58996111Y-37465447D01*
X58945001Y-37448840D01*
X58932496Y-37440485D01*
X58932495Y-37440484D01*
X58852134Y-37424500D01*
X58647870Y-37424500D01*
X58647862Y-37424501D01*
X58567505Y-37440484D01*
X58567501Y-37440486D01*
X58554999Y-37448840D01*
X58496111Y-37465447D01*
X58445001Y-37448840D01*
X58432496Y-37440485D01*
X58432495Y-37440484D01*
X58352134Y-37424500D01*
X58147870Y-37424500D01*
X58147862Y-37424501D01*
X58067505Y-37440484D01*
X58067501Y-37440486D01*
X58054999Y-37448840D01*
X57996111Y-37465447D01*
X57945001Y-37448840D01*
X57932496Y-37440485D01*
X57932495Y-37440484D01*
X57852135Y-37424500D01*
X57649500Y-37424500D01*
X57591309Y-37405593D01*
X57555345Y-37356093D01*
X57550500Y-37325500D01*
X57550500Y-31140537D01*
X57550499Y-31140535D01*
X57530021Y-31064111D01*
X57530019Y-31064107D01*
X57490460Y-30995589D01*
X57434511Y-30939639D01*
X57434511Y-30939640D01*
X50402796Y-23907925D01*
X50375019Y-23853408D01*
X50373800Y-23837921D01*
X50373800Y-14522037D01*
X50364668Y-14487959D01*
X50364667Y-14487954D01*
X50353324Y-14445618D01*
X50353323Y-14445615D01*
X50353322Y-14445614D01*
X50353322Y-14445612D01*
X50313760Y-14377089D01*
X47986211Y-12049540D01*
X47986208Y-12049538D01*
X47917692Y-12009980D01*
X47917688Y-12009978D01*
X47841264Y-11989500D01*
X47841262Y-11989500D01*
X47799500Y-11989500D01*
X47741309Y-11970593D01*
X47705345Y-11921093D01*
X47700500Y-11890500D01*
X47700500Y-11820253D01*
X47700498Y-11820241D01*
X47695577Y-11795502D01*
X47688867Y-11761769D01*
X47654274Y-11709999D01*
X47637667Y-11651115D01*
X47654274Y-11600001D01*
X47688867Y-11548231D01*
X47700500Y-11489748D01*
X47700500Y-11470725D01*
X52349500Y-11470725D01*
X52349500Y-12529274D01*
X52352353Y-12559694D01*
X52352355Y-12559703D01*
X52397207Y-12687883D01*
X52477845Y-12797144D01*
X52477847Y-12797146D01*
X52477850Y-12797150D01*
X52477853Y-12797152D01*
X52477855Y-12797154D01*
X52587116Y-12877792D01*
X52587117Y-12877792D01*
X52587118Y-12877793D01*
X52715301Y-12922646D01*
X52745725Y-12925499D01*
X52745727Y-12925500D01*
X52745734Y-12925500D01*
X53354273Y-12925500D01*
X53354273Y-12925499D01*
X53384699Y-12922646D01*
X53446713Y-12900945D01*
X53507882Y-12899572D01*
X53549415Y-12924386D01*
X56283340Y-15658311D01*
X56283339Y-15658311D01*
X56339289Y-15714260D01*
X56407807Y-15753819D01*
X56407811Y-15753821D01*
X56484235Y-15774299D01*
X56484237Y-15774300D01*
X56484238Y-15774300D01*
X58442821Y-15774300D01*
X58501012Y-15793207D01*
X58512825Y-15803296D01*
X60732115Y-18022586D01*
X60759892Y-18077103D01*
X60760264Y-18105511D01*
X60749500Y-18187276D01*
X60749500Y-19512720D01*
X60763192Y-19616725D01*
X60764313Y-19625236D01*
X60822302Y-19765233D01*
X60914549Y-19885451D01*
X61034767Y-19977698D01*
X61174764Y-20035687D01*
X61287280Y-20050500D01*
X61287281Y-20050500D01*
X62112719Y-20050500D01*
X62112720Y-20050500D01*
X62225236Y-20035687D01*
X62365233Y-19977698D01*
X62485451Y-19885451D01*
X62577698Y-19765233D01*
X62635687Y-19625236D01*
X62650500Y-19512720D01*
X62650500Y-18187280D01*
X62639735Y-18105511D01*
X62650885Y-18045350D01*
X62667885Y-18022585D01*
X63295276Y-17395196D01*
X63349792Y-17367419D01*
X63365279Y-17366200D01*
X66309521Y-17366200D01*
X66367712Y-17385107D01*
X66379525Y-17395196D01*
X67043704Y-18059375D01*
X67071481Y-18113892D01*
X67072700Y-18129379D01*
X67072700Y-45461321D01*
X67053793Y-45519512D01*
X67043704Y-45531325D01*
X65404525Y-47170504D01*
X65350008Y-47198281D01*
X65334521Y-47199500D01*
X64320725Y-47199500D01*
X64290305Y-47202353D01*
X64290296Y-47202355D01*
X64162116Y-47247207D01*
X64052855Y-47327845D01*
X64052845Y-47327855D01*
X63972207Y-47437116D01*
X63927355Y-47565296D01*
X63927353Y-47565305D01*
X63924500Y-47595725D01*
X63924500Y-48404274D01*
X63927353Y-48434694D01*
X63927355Y-48434703D01*
X63972207Y-48562883D01*
X64052845Y-48672144D01*
X64052847Y-48672146D01*
X64052850Y-48672150D01*
X64052853Y-48672152D01*
X64052855Y-48672154D01*
X64162116Y-48752792D01*
X64162117Y-48752792D01*
X64162118Y-48752793D01*
X64290301Y-48797646D01*
X64320725Y-48800499D01*
X64320727Y-48800500D01*
X64320734Y-48800500D01*
X65679273Y-48800500D01*
X65679273Y-48800499D01*
X65709699Y-48797646D01*
X65837882Y-48752793D01*
X65947150Y-48672150D01*
X66027793Y-48562882D01*
X66072646Y-48434699D01*
X66075499Y-48404273D01*
X66075500Y-48404273D01*
X66075500Y-47595727D01*
X66075499Y-47595725D01*
X66073253Y-47571772D01*
X66072646Y-47565301D01*
X66037984Y-47466245D01*
X66036612Y-47405076D01*
X66061423Y-47363546D01*
X67613660Y-45811311D01*
X67653222Y-45742788D01*
X67673700Y-45666362D01*
X67673700Y-45587238D01*
X67673700Y-39893709D01*
X70149500Y-39893709D01*
X70149500Y-40106290D01*
X70182752Y-40316238D01*
X70248443Y-40518412D01*
X70344948Y-40707815D01*
X70344950Y-40707819D01*
X70469891Y-40879786D01*
X70469893Y-40879788D01*
X70469896Y-40879792D01*
X70620208Y-41030104D01*
X70620211Y-41030106D01*
X70620213Y-41030108D01*
X70792180Y-41155049D01*
X70792184Y-41155051D01*
X70981588Y-41251557D01*
X71183757Y-41317246D01*
X71183758Y-41317246D01*
X71183761Y-41317247D01*
X71393710Y-41350500D01*
X71393713Y-41350500D01*
X71606290Y-41350500D01*
X71816238Y-41317247D01*
X71816239Y-41317246D01*
X71816243Y-41317246D01*
X72018412Y-41251557D01*
X72207816Y-41155051D01*
X72228823Y-41139789D01*
X72328312Y-41067506D01*
X72379792Y-41030104D01*
X72530104Y-40879792D01*
X72655051Y-40707816D01*
X72751557Y-40518412D01*
X72817246Y-40316243D01*
X72818786Y-40306519D01*
X72850500Y-40106290D01*
X72850500Y-39893709D01*
X72817247Y-39683761D01*
X72817246Y-39683757D01*
X72751557Y-39481588D01*
X72655051Y-39292184D01*
X72655049Y-39292180D01*
X72530108Y-39120213D01*
X72530106Y-39120211D01*
X72530104Y-39120208D01*
X72379792Y-38969896D01*
X72379788Y-38969893D01*
X72379786Y-38969891D01*
X72207819Y-38844950D01*
X72207815Y-38844948D01*
X72018412Y-38748443D01*
X71816238Y-38682752D01*
X71606290Y-38649500D01*
X71606287Y-38649500D01*
X71393713Y-38649500D01*
X71393710Y-38649500D01*
X71183761Y-38682752D01*
X70981587Y-38748443D01*
X70792184Y-38844948D01*
X70792180Y-38844950D01*
X70620213Y-38969891D01*
X70469891Y-39120213D01*
X70344950Y-39292180D01*
X70344948Y-39292184D01*
X70248443Y-39481587D01*
X70182752Y-39683761D01*
X70149500Y-39893709D01*
X67673700Y-39893709D01*
X67673700Y-17924338D01*
X67653222Y-17847912D01*
X67653220Y-17847909D01*
X67653220Y-17847907D01*
X67613663Y-17779393D01*
X67613662Y-17779392D01*
X67613661Y-17779391D01*
X67613660Y-17779389D01*
X66804496Y-16970225D01*
X66776719Y-16915708D01*
X66775500Y-16900221D01*
X66775500Y-14504500D01*
X66794407Y-14446309D01*
X66843907Y-14410345D01*
X66874500Y-14405500D01*
X67333257Y-14405500D01*
X67333260Y-14405500D01*
X67401393Y-14395573D01*
X67506483Y-14344198D01*
X67589198Y-14261483D01*
X67640573Y-14156393D01*
X67650500Y-14088260D01*
X67650500Y-13721740D01*
X67640573Y-13653607D01*
X67589198Y-13548517D01*
X67506483Y-13465802D01*
X67506481Y-13465801D01*
X67401395Y-13414427D01*
X67374139Y-13410456D01*
X67333260Y-13404500D01*
X65616740Y-13404500D01*
X65582673Y-13409463D01*
X65548604Y-13414427D01*
X65443518Y-13465801D01*
X65360801Y-13548518D01*
X65309427Y-13653604D01*
X65309427Y-13653607D01*
X65299500Y-13721740D01*
X65299500Y-14088260D01*
X65306118Y-14133682D01*
X65309427Y-14156395D01*
X65348074Y-14235448D01*
X65360802Y-14261483D01*
X65443517Y-14344198D01*
X65497285Y-14370483D01*
X65548604Y-14395572D01*
X65548605Y-14395572D01*
X65548607Y-14395573D01*
X65616740Y-14405500D01*
X66075500Y-14405500D01*
X66133691Y-14424407D01*
X66169655Y-14473907D01*
X66174500Y-14504500D01*
X66174500Y-16666200D01*
X66155593Y-16724391D01*
X66106093Y-16760355D01*
X66075500Y-16765200D01*
X63239362Y-16765200D01*
X63160238Y-16765200D01*
X63121689Y-16775529D01*
X63083807Y-16785679D01*
X63015293Y-16825236D01*
X63015288Y-16825240D01*
X62216438Y-17624088D01*
X62161922Y-17651865D01*
X62133515Y-17652237D01*
X62112725Y-17649500D01*
X62112720Y-17649500D01*
X61287280Y-17649500D01*
X61287271Y-17649500D01*
X61266482Y-17652237D01*
X61206322Y-17641086D01*
X61183559Y-17624088D01*
X59988967Y-16429496D01*
X58792811Y-15233340D01*
X58781486Y-15226801D01*
X58781486Y-15226800D01*
X58781481Y-15226799D01*
X58733171Y-15198907D01*
X58724288Y-15193778D01*
X58647864Y-15173300D01*
X58647862Y-15173300D01*
X56689279Y-15173300D01*
X56631088Y-15154393D01*
X56619275Y-15144304D01*
X53779496Y-12304525D01*
X53751719Y-12250008D01*
X53750500Y-12234521D01*
X53750500Y-11470727D01*
X53750499Y-11470725D01*
X53747646Y-11440305D01*
X53747646Y-11440301D01*
X53702793Y-11312118D01*
X53700426Y-11308911D01*
X53622154Y-11202855D01*
X53622152Y-11202853D01*
X53622150Y-11202850D01*
X53622146Y-11202847D01*
X53622144Y-11202845D01*
X53512883Y-11122207D01*
X53384703Y-11077355D01*
X53384694Y-11077353D01*
X53354274Y-11074500D01*
X53354266Y-11074500D01*
X52745734Y-11074500D01*
X52745725Y-11074500D01*
X52715305Y-11077353D01*
X52715296Y-11077355D01*
X52587116Y-11122207D01*
X52477855Y-11202845D01*
X52477845Y-11202855D01*
X52397207Y-11312116D01*
X52352355Y-11440296D01*
X52352353Y-11440305D01*
X52349500Y-11470725D01*
X47700500Y-11470725D01*
X47700500Y-10550252D01*
X47688867Y-10491769D01*
X47644552Y-10425448D01*
X47618546Y-10408071D01*
X47578233Y-10381134D01*
X47578231Y-10381133D01*
X47578228Y-10381132D01*
X47578227Y-10381132D01*
X47519758Y-10369501D01*
X47519748Y-10369500D01*
X45980252Y-10369500D01*
X45980251Y-10369500D01*
X45980241Y-10369501D01*
X45921772Y-10381132D01*
X45921766Y-10381134D01*
X45855451Y-10425445D01*
X45855445Y-10425451D01*
X45811134Y-10491766D01*
X45811132Y-10491772D01*
X45799501Y-10550241D01*
X45799500Y-10550253D01*
X45799500Y-11489746D01*
X45799501Y-11489758D01*
X45811132Y-11548227D01*
X45811134Y-11548233D01*
X45845723Y-11599998D01*
X45862332Y-11658886D01*
X45845723Y-11710002D01*
X45811134Y-11761766D01*
X45811132Y-11761772D01*
X45799501Y-11820241D01*
X45799500Y-11820253D01*
X45799500Y-12759746D01*
X45799501Y-12759758D01*
X45811132Y-12818227D01*
X45811134Y-12818233D01*
X45845723Y-12869998D01*
X45862332Y-12928886D01*
X45845723Y-12980002D01*
X45811134Y-13031766D01*
X45811132Y-13031772D01*
X45799501Y-13090241D01*
X45799500Y-13090253D01*
X45799500Y-14029746D01*
X45799501Y-14029758D01*
X45811132Y-14088227D01*
X45811134Y-14088233D01*
X45845723Y-14139998D01*
X45862332Y-14198886D01*
X45845723Y-14250002D01*
X45811134Y-14301766D01*
X45811132Y-14301772D01*
X45799501Y-14360241D01*
X45799500Y-14360253D01*
X45799500Y-15299746D01*
X45799501Y-15299758D01*
X45811132Y-15358227D01*
X45811134Y-15358233D01*
X45845723Y-15409998D01*
X45862332Y-15468886D01*
X45845723Y-15520002D01*
X45811134Y-15571766D01*
X45811132Y-15571772D01*
X45799501Y-15630241D01*
X45799500Y-15630253D01*
X45799500Y-16569746D01*
X45799501Y-16569758D01*
X45811132Y-16628227D01*
X45811134Y-16628233D01*
X45845723Y-16679998D01*
X45862332Y-16738886D01*
X45845723Y-16790002D01*
X45811134Y-16841766D01*
X45811132Y-16841772D01*
X45799501Y-16900241D01*
X45799500Y-16900253D01*
X45799500Y-17839746D01*
X45799501Y-17839758D01*
X45811132Y-17898227D01*
X45811134Y-17898233D01*
X45845723Y-17949998D01*
X45862332Y-18008886D01*
X45845723Y-18060002D01*
X45811134Y-18111766D01*
X45811132Y-18111772D01*
X45799501Y-18170241D01*
X45799500Y-18170253D01*
X45799500Y-19109746D01*
X45799501Y-19109758D01*
X45811132Y-19168227D01*
X45811134Y-19168233D01*
X45845723Y-19219998D01*
X45862332Y-19278886D01*
X45845723Y-19330002D01*
X45811134Y-19381766D01*
X45811132Y-19381772D01*
X45799501Y-19440241D01*
X45799500Y-19440253D01*
X45799500Y-20379746D01*
X45799501Y-20379758D01*
X45811132Y-20438227D01*
X45811134Y-20438233D01*
X45845723Y-20489998D01*
X45862332Y-20548886D01*
X45845723Y-20600002D01*
X45811134Y-20651766D01*
X45811132Y-20651772D01*
X45799501Y-20710241D01*
X45799500Y-20710253D01*
X45799500Y-21649746D01*
X45799501Y-21649758D01*
X45811132Y-21708227D01*
X45811134Y-21708233D01*
X45845723Y-21759998D01*
X45862332Y-21818886D01*
X45845723Y-21870002D01*
X45811134Y-21921766D01*
X45811132Y-21921772D01*
X45799501Y-21980241D01*
X45799500Y-21980253D01*
X45799500Y-22919746D01*
X45799501Y-22919758D01*
X45811132Y-22978227D01*
X45811134Y-22978233D01*
X45845723Y-23029998D01*
X45862332Y-23088886D01*
X45845723Y-23140002D01*
X45811134Y-23191766D01*
X45811132Y-23191772D01*
X45799501Y-23250241D01*
X45799500Y-23250253D01*
X45799500Y-24189746D01*
X45799501Y-24189758D01*
X45811132Y-24248227D01*
X45811134Y-24248233D01*
X45845723Y-24299998D01*
X45862332Y-24358886D01*
X45845723Y-24410002D01*
X45811134Y-24461766D01*
X45811132Y-24461772D01*
X45799501Y-24520241D01*
X45799500Y-24520253D01*
X45799500Y-25459746D01*
X45799501Y-25459758D01*
X45811132Y-25518227D01*
X45811134Y-25518233D01*
X45845723Y-25569998D01*
X45862332Y-25628886D01*
X45845723Y-25680002D01*
X45811134Y-25731766D01*
X45811132Y-25731772D01*
X45799501Y-25790241D01*
X45799500Y-25790253D01*
X45799500Y-25860500D01*
X45780593Y-25918691D01*
X45731093Y-25954655D01*
X45700500Y-25959500D01*
X45658735Y-25959500D01*
X45582311Y-25979978D01*
X45582307Y-25979980D01*
X45513791Y-26019538D01*
X45457838Y-26075491D01*
X45418280Y-26144007D01*
X45418278Y-26144011D01*
X45397800Y-26220435D01*
X45397800Y-26996221D01*
X45378893Y-27054412D01*
X45368804Y-27066225D01*
X44539504Y-27895525D01*
X44484987Y-27923302D01*
X44424555Y-27913731D01*
X44381290Y-27870466D01*
X44370500Y-27825521D01*
X44370500Y-26740253D01*
X44370498Y-26740241D01*
X44367711Y-26726231D01*
X44358867Y-26681769D01*
X44314552Y-26615448D01*
X44299998Y-26605723D01*
X44248233Y-26571134D01*
X44248231Y-26571133D01*
X44248228Y-26571132D01*
X44248227Y-26571132D01*
X44189758Y-26559501D01*
X44189748Y-26559500D01*
X43250252Y-26559500D01*
X43250251Y-26559500D01*
X43250241Y-26559501D01*
X43191772Y-26571132D01*
X43191766Y-26571134D01*
X43140002Y-26605723D01*
X43081114Y-26622332D01*
X43029998Y-26605723D01*
X42978233Y-26571134D01*
X42978231Y-26571133D01*
X42978228Y-26571132D01*
X42978227Y-26571132D01*
X42919758Y-26559501D01*
X42919748Y-26559500D01*
X41980252Y-26559500D01*
X41980251Y-26559500D01*
X41980241Y-26559501D01*
X41921772Y-26571132D01*
X41921766Y-26571134D01*
X41870002Y-26605723D01*
X41811114Y-26622332D01*
X41759998Y-26605723D01*
X41708233Y-26571134D01*
X41708231Y-26571133D01*
X41708228Y-26571132D01*
X41708227Y-26571132D01*
X41649758Y-26559501D01*
X41649748Y-26559500D01*
X40710252Y-26559500D01*
X40710251Y-26559500D01*
X40710241Y-26559501D01*
X40651772Y-26571132D01*
X40651766Y-26571134D01*
X40600002Y-26605723D01*
X40541114Y-26622332D01*
X40489998Y-26605723D01*
X40438233Y-26571134D01*
X40438231Y-26571133D01*
X40438228Y-26571132D01*
X40438227Y-26571132D01*
X40379758Y-26559501D01*
X40379748Y-26559500D01*
X39440252Y-26559500D01*
X39440251Y-26559500D01*
X39440241Y-26559501D01*
X39381772Y-26571132D01*
X39381766Y-26571134D01*
X39330002Y-26605723D01*
X39271114Y-26622332D01*
X39219998Y-26605723D01*
X39168233Y-26571134D01*
X39168231Y-26571133D01*
X39168228Y-26571132D01*
X39168227Y-26571132D01*
X39109758Y-26559501D01*
X39109748Y-26559500D01*
X38170252Y-26559500D01*
X38170251Y-26559500D01*
X38170241Y-26559501D01*
X38111772Y-26571132D01*
X38111766Y-26571134D01*
X38060002Y-26605723D01*
X38001114Y-26622332D01*
X37949998Y-26605723D01*
X37898233Y-26571134D01*
X37898231Y-26571133D01*
X37898228Y-26571132D01*
X37898227Y-26571132D01*
X37839758Y-26559501D01*
X37839748Y-26559500D01*
X36900252Y-26559500D01*
X36900251Y-26559500D01*
X36900241Y-26559501D01*
X36841772Y-26571132D01*
X36841766Y-26571134D01*
X36790002Y-26605723D01*
X36731114Y-26622332D01*
X36679998Y-26605723D01*
X36628233Y-26571134D01*
X36628231Y-26571133D01*
X36628228Y-26571132D01*
X36628227Y-26571132D01*
X36569758Y-26559501D01*
X36569748Y-26559500D01*
X35630252Y-26559500D01*
X35630251Y-26559500D01*
X35630241Y-26559501D01*
X35571772Y-26571132D01*
X35571766Y-26571134D01*
X35520002Y-26605723D01*
X35461114Y-26622332D01*
X35409998Y-26605723D01*
X35358233Y-26571134D01*
X35358231Y-26571133D01*
X35358228Y-26571132D01*
X35358227Y-26571132D01*
X35299758Y-26559501D01*
X35299748Y-26559500D01*
X34360252Y-26559500D01*
X34360251Y-26559500D01*
X34360241Y-26559501D01*
X34301772Y-26571132D01*
X34301766Y-26571134D01*
X34250002Y-26605723D01*
X34191114Y-26622332D01*
X34139998Y-26605723D01*
X34088233Y-26571134D01*
X34088231Y-26571133D01*
X34088228Y-26571132D01*
X34088227Y-26571132D01*
X34029758Y-26559501D01*
X34029748Y-26559500D01*
X33090252Y-26559500D01*
X33090251Y-26559500D01*
X33090241Y-26559501D01*
X33031772Y-26571132D01*
X33031766Y-26571134D01*
X32965451Y-26615445D01*
X32965445Y-26615451D01*
X32921134Y-26681766D01*
X32921132Y-26681772D01*
X32909501Y-26740241D01*
X32909500Y-26740253D01*
X32909500Y-28162200D01*
X32890593Y-28220391D01*
X32841093Y-28256355D01*
X32810500Y-28261200D01*
X31845862Y-28261200D01*
X31766738Y-28261200D01*
X31719961Y-28273733D01*
X31690307Y-28281679D01*
X31621793Y-28321236D01*
X19772525Y-40170504D01*
X19718008Y-40198281D01*
X19702521Y-40199500D01*
X19008272Y-40199500D01*
X18950081Y-40180593D01*
X18914117Y-40131093D01*
X18910491Y-40115991D01*
X18909951Y-40112580D01*
X18849658Y-39994249D01*
X18755751Y-39900342D01*
X18742733Y-39893709D01*
X18637423Y-39840050D01*
X18637420Y-39840049D01*
X18611117Y-39835883D01*
X18539249Y-39824500D01*
X18539246Y-39824500D01*
X18035754Y-39824500D01*
X18035751Y-39824500D01*
X17937580Y-39840049D01*
X17937576Y-39840050D01*
X17819250Y-39900341D01*
X17725341Y-39994250D01*
X17665050Y-40112576D01*
X17665049Y-40112580D01*
X17649500Y-40210751D01*
X15425500Y-40210751D01*
X15409951Y-40112580D01*
X15349658Y-39994249D01*
X15255751Y-39900342D01*
X15242733Y-39893709D01*
X15179554Y-39861517D01*
X15136290Y-39818252D01*
X15125500Y-39773308D01*
X15125500Y-39233951D01*
X15144407Y-39175760D01*
X15179552Y-39145742D01*
X15263342Y-39103050D01*
X15353050Y-39013342D01*
X15410646Y-38900304D01*
X15425500Y-38806519D01*
X15425499Y-38193482D01*
X15414570Y-38124471D01*
X15410647Y-38099700D01*
X15410645Y-38099692D01*
X15379030Y-38037645D01*
X15369458Y-37977213D01*
X15397235Y-37922697D01*
X15451752Y-37894919D01*
X15467239Y-37893700D01*
X20243663Y-37893700D01*
X20243663Y-37893699D01*
X20320089Y-37873221D01*
X20388611Y-37833660D01*
X20444560Y-37777711D01*
X30947060Y-27275211D01*
X30950334Y-27269540D01*
X30986621Y-27206689D01*
X31007100Y-27130262D01*
X31007100Y-11385338D01*
X30986621Y-11308911D01*
X30947060Y-11240389D01*
X30925342Y-11218671D01*
X30891112Y-11184440D01*
X30486210Y-10779539D01*
X30417692Y-10739980D01*
X30417688Y-10739978D01*
X30341264Y-10719500D01*
X30341262Y-10719500D01*
X30299500Y-10719500D01*
X30241309Y-10700593D01*
X30205345Y-10651093D01*
X30200500Y-10620500D01*
X30200500Y-10550253D01*
X30200498Y-10550241D01*
X30193158Y-10513342D01*
X30188867Y-10491769D01*
X30144552Y-10425448D01*
X30118546Y-10408071D01*
X30078233Y-10381134D01*
X30078231Y-10381133D01*
X30078228Y-10381132D01*
X30078227Y-10381132D01*
X30019758Y-10369501D01*
X30019748Y-10369500D01*
X28480252Y-10369500D01*
X28480251Y-10369500D01*
X28480241Y-10369501D01*
X28421772Y-10381132D01*
X28421766Y-10381134D01*
X28355451Y-10425445D01*
X28355445Y-10425451D01*
X28311134Y-10491766D01*
X28311132Y-10491772D01*
X28299501Y-10550241D01*
X28299500Y-10550253D01*
X28299500Y-11489746D01*
X28299501Y-11489758D01*
X28311132Y-11548227D01*
X28311134Y-11548233D01*
X28345723Y-11599998D01*
X28362332Y-11658886D01*
X28345723Y-11710002D01*
X28311134Y-11761766D01*
X28311132Y-11761772D01*
X28299501Y-11820241D01*
X28299500Y-11820253D01*
X28299500Y-12759746D01*
X28299501Y-12759758D01*
X28311132Y-12818227D01*
X28311134Y-12818233D01*
X28345723Y-12869998D01*
X28362332Y-12928886D01*
X28345723Y-12980002D01*
X28311134Y-13031766D01*
X28311132Y-13031772D01*
X28299501Y-13090241D01*
X28299500Y-13090253D01*
X28299500Y-13160500D01*
X28280593Y-13218691D01*
X28231093Y-13254655D01*
X28200500Y-13259500D01*
X15366979Y-13259500D01*
X15308788Y-13240593D01*
X15296975Y-13230504D01*
X14480244Y-12413773D01*
X13621511Y-11555040D01*
X13621505Y-11555036D01*
X13621503Y-11555035D01*
X13611933Y-11549510D01*
X13611931Y-11549509D01*
X13587017Y-11535125D01*
X13552988Y-11515478D01*
X13476564Y-11495000D01*
X13476562Y-11495000D01*
X11903284Y-11495000D01*
X11845093Y-11476093D01*
X11828465Y-11460831D01*
X11782692Y-11408006D01*
X11784724Y-11406244D01*
X11759267Y-11364005D01*
X11756700Y-11341605D01*
X11756700Y-10428127D01*
X11759877Y-10408071D01*
X11759427Y-10408000D01*
X11760727Y-10399795D01*
X11775500Y-10306519D01*
X11775499Y-9693482D01*
X11769532Y-9655802D01*
X11760647Y-9599700D01*
X11760646Y-9599698D01*
X11760646Y-9599696D01*
X11703050Y-9486658D01*
X11613342Y-9396950D01*
X11500304Y-9339354D01*
X11500305Y-9339354D01*
X11406522Y-9324500D01*
X10943479Y-9324500D01*
X10943476Y-9324501D01*
X10849700Y-9339352D01*
X10849695Y-9339354D01*
X10736659Y-9396949D01*
X10646949Y-9486659D01*
X10589354Y-9599695D01*
X10574500Y-9693477D01*
X10574500Y-10306520D01*
X10574501Y-10306523D01*
X10589352Y-10400299D01*
X10589354Y-10400304D01*
X10646950Y-10513342D01*
X10736658Y-10603050D01*
X10849696Y-10660646D01*
X10943481Y-10675500D01*
X11056700Y-10675499D01*
X11114890Y-10694406D01*
X11150854Y-10743906D01*
X11155700Y-10774499D01*
X11155700Y-11341605D01*
X11136793Y-11399796D01*
X11129458Y-11407789D01*
X11129709Y-11408006D01*
X11125072Y-11413356D01*
X11125072Y-11413357D01*
X11075363Y-11470725D01*
X11030822Y-11522128D01*
X10971034Y-11653043D01*
X10950553Y-11795497D01*
X10950553Y-11795502D01*
X10971034Y-11937956D01*
X11003927Y-12009980D01*
X11030823Y-12068873D01*
X11083936Y-12130169D01*
X11125073Y-12177644D01*
X11213576Y-12234521D01*
X11246147Y-12255453D01*
X11329819Y-12280021D01*
X11384235Y-12295999D01*
X11384236Y-12295999D01*
X11384239Y-12296000D01*
X11384241Y-12296000D01*
X11528159Y-12296000D01*
X11528161Y-12296000D01*
X11666253Y-12255453D01*
X11787328Y-12177643D01*
X11828464Y-12130168D01*
X11880860Y-12098573D01*
X11903283Y-12096000D01*
X13271521Y-12096000D01*
X13329712Y-12114907D01*
X13341525Y-12124996D01*
X14961040Y-13744511D01*
X14961039Y-13744511D01*
X15016989Y-13800460D01*
X15085507Y-13840019D01*
X15085511Y-13840021D01*
X15161935Y-13860499D01*
X15161937Y-13860500D01*
X15161938Y-13860500D01*
X28200500Y-13860500D01*
X28258691Y-13879407D01*
X28294655Y-13928907D01*
X28299500Y-13959500D01*
X28299500Y-14029746D01*
X28299501Y-14029758D01*
X28311132Y-14088227D01*
X28311134Y-14088233D01*
X28345723Y-14139998D01*
X28362332Y-14198886D01*
X28345723Y-14250002D01*
X28311134Y-14301766D01*
X28311132Y-14301772D01*
X28299501Y-14360241D01*
X28299500Y-14360253D01*
X28299500Y-14430500D01*
X28280593Y-14488691D01*
X28231093Y-14524655D01*
X28200500Y-14529500D01*
X13831435Y-14529500D01*
X13755011Y-14549978D01*
X13755007Y-14549980D01*
X13696359Y-14583841D01*
X13696359Y-14583842D01*
X13686491Y-14589539D01*
X13686484Y-14589543D01*
X13605524Y-14670504D01*
X13551007Y-14698281D01*
X13535521Y-14699500D01*
X13429035Y-14699500D01*
X13290949Y-14740046D01*
X13290942Y-14740049D01*
X13169876Y-14817854D01*
X13169871Y-14817858D01*
X13128736Y-14865331D01*
X13076340Y-14896927D01*
X13053917Y-14899500D01*
X12940479Y-14899500D01*
X12882288Y-14880593D01*
X12870475Y-14870504D01*
X11804495Y-13804524D01*
X11776718Y-13750007D01*
X11775499Y-13734520D01*
X11775499Y-13293478D01*
X11775498Y-13293476D01*
X11760647Y-13199700D01*
X11760646Y-13199698D01*
X11760646Y-13199696D01*
X11703050Y-13086658D01*
X11613342Y-12996950D01*
X11500304Y-12939354D01*
X11500305Y-12939354D01*
X11406522Y-12924500D01*
X10943479Y-12924500D01*
X10943476Y-12924501D01*
X10849700Y-12939352D01*
X10849695Y-12939354D01*
X10736659Y-12996949D01*
X10646949Y-13086659D01*
X10589354Y-13199695D01*
X10574500Y-13293477D01*
X10574500Y-13906520D01*
X10574501Y-13906523D01*
X10589352Y-14000299D01*
X10589354Y-14000304D01*
X10646950Y-14113342D01*
X10736658Y-14203050D01*
X10849696Y-14260646D01*
X10943481Y-14275500D01*
X11384520Y-14275499D01*
X11442711Y-14294406D01*
X11454524Y-14304495D01*
X12590489Y-15440460D01*
X12590491Y-15440461D01*
X12590492Y-15440462D01*
X12590493Y-15440463D01*
X12659008Y-15480020D01*
X12659006Y-15480020D01*
X12659010Y-15480021D01*
X12659012Y-15480022D01*
X12735438Y-15500500D01*
X13053917Y-15500500D01*
X13112108Y-15519407D01*
X13128733Y-15534667D01*
X13169872Y-15582143D01*
X13224447Y-15617216D01*
X13263178Y-15664582D01*
X13266671Y-15725668D01*
X13233591Y-15777140D01*
X13176575Y-15799339D01*
X13170923Y-15799500D01*
X12235435Y-15799500D01*
X12159011Y-15819978D01*
X12159007Y-15819980D01*
X12090489Y-15859539D01*
X11454523Y-16495504D01*
X11400007Y-16523281D01*
X11384520Y-16524500D01*
X10943479Y-16524500D01*
X10943476Y-16524501D01*
X10849700Y-16539352D01*
X10849695Y-16539354D01*
X10736659Y-16596949D01*
X10646949Y-16686659D01*
X10589354Y-16799695D01*
X10574500Y-16893477D01*
X10574500Y-17506520D01*
X10574501Y-17506523D01*
X10589352Y-17600299D01*
X10589354Y-17600304D01*
X10646950Y-17713342D01*
X10736658Y-17803050D01*
X10849696Y-17860646D01*
X10943481Y-17875500D01*
X11406518Y-17875499D01*
X11406520Y-17875499D01*
X11406521Y-17875498D01*
X11453411Y-17868072D01*
X11500299Y-17860647D01*
X11500299Y-17860646D01*
X11500304Y-17860646D01*
X11613342Y-17803050D01*
X11703050Y-17713342D01*
X11760646Y-17600304D01*
X11775500Y-17506519D01*
X11775499Y-17065477D01*
X11794406Y-17007287D01*
X11804496Y-16995474D01*
X12370476Y-16429496D01*
X12424992Y-16401719D01*
X12440479Y-16400500D01*
X17945917Y-16400500D01*
X18004108Y-16419407D01*
X18020733Y-16434667D01*
X18061872Y-16482143D01*
X18182947Y-16559953D01*
X18289403Y-16591211D01*
X18321035Y-16600499D01*
X18321036Y-16600499D01*
X18321039Y-16600500D01*
X18321041Y-16600500D01*
X18464959Y-16600500D01*
X18464961Y-16600500D01*
X18603053Y-16559953D01*
X18724128Y-16482143D01*
X18765264Y-16434668D01*
X18817660Y-16403073D01*
X18840083Y-16400500D01*
X28200500Y-16400500D01*
X28258691Y-16419407D01*
X28294655Y-16468907D01*
X28299500Y-16499500D01*
X28299500Y-16569746D01*
X28299501Y-16569758D01*
X28311132Y-16628227D01*
X28311134Y-16628233D01*
X28345723Y-16679998D01*
X28362332Y-16738886D01*
X28345723Y-16790002D01*
X28311134Y-16841766D01*
X28311132Y-16841772D01*
X28299501Y-16900241D01*
X28299500Y-16900253D01*
X28299500Y-16970500D01*
X28280593Y-17028691D01*
X28231093Y-17064655D01*
X28200500Y-17069500D01*
X25711862Y-17069500D01*
X25632738Y-17069500D01*
X25585961Y-17082033D01*
X25556307Y-17089979D01*
X25487793Y-17129536D01*
X25487792Y-17129537D01*
X19037924Y-23579404D01*
X18983407Y-23607181D01*
X18967920Y-23608400D01*
X18861435Y-23608400D01*
X18723349Y-23648946D01*
X18723342Y-23648949D01*
X18602276Y-23726754D01*
X18602271Y-23726758D01*
X18561136Y-23774231D01*
X18508740Y-23805827D01*
X18486317Y-23808400D01*
X14649379Y-23808400D01*
X14591188Y-23789493D01*
X14579375Y-23779404D01*
X11804495Y-21004524D01*
X11776718Y-20950007D01*
X11775499Y-20934520D01*
X11775499Y-20493478D01*
X11775498Y-20493476D01*
X11760647Y-20399700D01*
X11760646Y-20399698D01*
X11760646Y-20399696D01*
X11703050Y-20286658D01*
X11613342Y-20196950D01*
X11500304Y-20139354D01*
X11500305Y-20139354D01*
X11406522Y-20124500D01*
X10943479Y-20124500D01*
X10943476Y-20124501D01*
X10849700Y-20139352D01*
X10849695Y-20139354D01*
X10736659Y-20196949D01*
X10646949Y-20286659D01*
X10589354Y-20399695D01*
X10574500Y-20493477D01*
X10574500Y-21106520D01*
X10574501Y-21106523D01*
X10589352Y-21200299D01*
X10589354Y-21200304D01*
X10646950Y-21313342D01*
X10736658Y-21403050D01*
X10849696Y-21460646D01*
X10943481Y-21475500D01*
X11384520Y-21475499D01*
X11442711Y-21494406D01*
X11454524Y-21504495D01*
X14243440Y-24293411D01*
X14243439Y-24293411D01*
X14299389Y-24349360D01*
X14367907Y-24388919D01*
X14367911Y-24388921D01*
X14444335Y-24409399D01*
X14444337Y-24409400D01*
X14444338Y-24409400D01*
X18486317Y-24409400D01*
X18544508Y-24428307D01*
X18561133Y-24443567D01*
X18602272Y-24491043D01*
X18723347Y-24568853D01*
X18806876Y-24593379D01*
X18861435Y-24609399D01*
X18861436Y-24609399D01*
X18861439Y-24609400D01*
X18861441Y-24609400D01*
X19005359Y-24609400D01*
X19005361Y-24609400D01*
X19143453Y-24568853D01*
X19264528Y-24491043D01*
X19358777Y-24382273D01*
X19418565Y-24251357D01*
X19431766Y-24159540D01*
X19439047Y-24108902D01*
X19439047Y-24108900D01*
X19435958Y-24087418D01*
X19446390Y-24027128D01*
X19463943Y-24003326D01*
X25767775Y-17699496D01*
X25822292Y-17671719D01*
X25837779Y-17670500D01*
X28200500Y-17670500D01*
X28258691Y-17689407D01*
X28294655Y-17738907D01*
X28299500Y-17769500D01*
X28299500Y-17839746D01*
X28299501Y-17839758D01*
X28311132Y-17898227D01*
X28311134Y-17898233D01*
X28345723Y-17949998D01*
X28362332Y-18008886D01*
X28345723Y-18060002D01*
X28311134Y-18111766D01*
X28311132Y-18111772D01*
X28299501Y-18170241D01*
X28299500Y-18170253D01*
X28299500Y-18240500D01*
X28280593Y-18298691D01*
X28231093Y-18334655D01*
X28200500Y-18339500D01*
X28158735Y-18339500D01*
X28082311Y-18359978D01*
X28082307Y-18359980D01*
X28013791Y-18399538D01*
X21525025Y-24888304D01*
X21470508Y-24916081D01*
X21455021Y-24917300D01*
X11858030Y-24917300D01*
X11799839Y-24898393D01*
X11763875Y-24848893D01*
X11760249Y-24802813D01*
X11775499Y-24706523D01*
X11775500Y-24706519D01*
X11775499Y-24093482D01*
X11773722Y-24082263D01*
X11760647Y-23999700D01*
X11760646Y-23999698D01*
X11760646Y-23999696D01*
X11703050Y-23886658D01*
X11613342Y-23796950D01*
X11500304Y-23739354D01*
X11500305Y-23739354D01*
X11406522Y-23724500D01*
X10943479Y-23724500D01*
X10943476Y-23724501D01*
X10849700Y-23739352D01*
X10849695Y-23739354D01*
X10736659Y-23796949D01*
X10646949Y-23886659D01*
X10589354Y-23999695D01*
X10574500Y-24093477D01*
X10574500Y-24706520D01*
X10574501Y-24706523D01*
X10589352Y-24800299D01*
X10589354Y-24800304D01*
X10646950Y-24913342D01*
X10736658Y-25003050D01*
X10766370Y-25018189D01*
X10809633Y-25061452D01*
X10819204Y-25121884D01*
X10791427Y-25176400D01*
X10791427Y-25176401D01*
X8256989Y-27710840D01*
X8256988Y-27710839D01*
X8201039Y-27766789D01*
X8161480Y-27835307D01*
X8161478Y-27835311D01*
X8141000Y-27911735D01*
X1200000Y-27911735D01*
X1200000Y-8099000D01*
X1218907Y-8040809D01*
X1268407Y-8004845D01*
X1299000Y-8000000D01*
X52475501Y-8000000D01*
X52533692Y-8018907D01*
G37*
%TD.AperFunction*%
%TD*%
M02*
