%TF.GenerationSoftware,KiCad,Pcbnew,8.0.9-8.0.9-0~ubuntu24.04.1*%
%TF.CreationDate,2026-07-18T21:31:09+00:00*%
%TF.ProjectId,smart-glove,736d6172-742d-4676-9c6f-76652e6b6963,rev?*%
%TF.SameCoordinates,Original*%
%TF.FileFunction,Copper,L1,Top*%
%TF.FilePolarity,Positive*%
%FSLAX46Y46*%
G04 Gerber Fmt 4.6, Leading zero omitted, Abs format (unit mm)*
G04 Created by KiCad (PCBNEW 8.0.9-8.0.9-0~ubuntu24.04.1) date 2026-07-18 21:31:09*
%MOMM*%
%LPD*%
G01*
G04 APERTURE LIST*
G04 Aperture macros list*
%AMRoundRect*
0 Rectangle with rounded corners*
0 $1 Rounding radius*
0 $2 $3 $4 $5 $6 $7 $8 $9 X,Y pos of 4 corners*
0 Add a 4 corners polygon primitive as box body*
4,1,4,$2,$3,$4,$5,$6,$7,$8,$9,$2,$3,0*
0 Add four circle primitives for the rounded corners*
1,1,$1+$1,$2,$3*
1,1,$1+$1,$4,$5*
1,1,$1+$1,$6,$7*
1,1,$1+$1,$8,$9*
0 Add four rect primitives between the rounded corners*
20,1,$1+$1,$2,$3,$4,$5,0*
20,1,$1+$1,$4,$5,$6,$7,0*
20,1,$1+$1,$6,$7,$8,$9,0*
20,1,$1+$1,$8,$9,$2,$3,0*%
G04 Aperture macros list end*
%TA.AperFunction,SMDPad,CuDef*%
%ADD10RoundRect,0.200000X-0.200000X-0.275000X0.200000X-0.275000X0.200000X0.275000X-0.200000X0.275000X0*%
%TD*%
%TA.AperFunction,SMDPad,CuDef*%
%ADD11RoundRect,0.218750X-0.218750X-0.256250X0.218750X-0.256250X0.218750X0.256250X-0.218750X0.256250X0*%
%TD*%
%TA.AperFunction,SMDPad,CuDef*%
%ADD12R,1.500000X0.900000*%
%TD*%
%TA.AperFunction,SMDPad,CuDef*%
%ADD13R,0.900000X1.500000*%
%TD*%
%TA.AperFunction,SMDPad,CuDef*%
%ADD14R,1.050000X1.050000*%
%TD*%
%TA.AperFunction,HeatsinkPad*%
%ADD15C,0.600000*%
%TD*%
%TA.AperFunction,SMDPad,CuDef*%
%ADD16R,4.200000X4.200000*%
%TD*%
%TA.AperFunction,SMDPad,CuDef*%
%ADD17R,0.900000X1.700000*%
%TD*%
%TA.AperFunction,SMDPad,CuDef*%
%ADD18RoundRect,0.225000X-0.225000X-0.250000X0.225000X-0.250000X0.225000X0.250000X-0.225000X0.250000X0*%
%TD*%
%TA.AperFunction,SMDPad,CuDef*%
%ADD19RoundRect,0.375000X-0.375000X0.625000X-0.375000X-0.625000X0.375000X-0.625000X0.375000X0.625000X0*%
%TD*%
%TA.AperFunction,SMDPad,CuDef*%
%ADD20RoundRect,0.500000X-1.400000X0.500000X-1.400000X-0.500000X1.400000X-0.500000X1.400000X0.500000X0*%
%TD*%
%TA.AperFunction,SMDPad,CuDef*%
%ADD21RoundRect,0.250000X-0.250000X-0.475000X0.250000X-0.475000X0.250000X0.475000X-0.250000X0.475000X0*%
%TD*%
%TA.AperFunction,ComponentPad*%
%ADD22RoundRect,0.250000X0.625000X-0.350000X0.625000X0.350000X-0.625000X0.350000X-0.625000X-0.350000X0*%
%TD*%
%TA.AperFunction,ComponentPad*%
%ADD23O,1.750000X1.200000*%
%TD*%
%TA.AperFunction,SMDPad,CuDef*%
%ADD24RoundRect,0.075000X-0.350000X-0.075000X0.350000X-0.075000X0.350000X0.075000X-0.350000X0.075000X0*%
%TD*%
%TA.AperFunction,SMDPad,CuDef*%
%ADD25RoundRect,0.075000X0.075000X-0.350000X0.075000X0.350000X-0.075000X0.350000X-0.075000X-0.350000X0*%
%TD*%
%TA.AperFunction,ComponentPad*%
%ADD26R,1.700000X1.700000*%
%TD*%
%TA.AperFunction,ComponentPad*%
%ADD27O,1.700000X1.700000*%
%TD*%
%TA.AperFunction,SMDPad,CuDef*%
%ADD28RoundRect,0.150000X-0.825000X-0.150000X0.825000X-0.150000X0.825000X0.150000X-0.825000X0.150000X0*%
%TD*%
%TA.AperFunction,SMDPad,CuDef*%
%ADD29R,0.600000X1.450000*%
%TD*%
%TA.AperFunction,SMDPad,CuDef*%
%ADD30R,0.300000X1.450000*%
%TD*%
%TA.AperFunction,ComponentPad*%
%ADD31O,1.000000X2.100000*%
%TD*%
%TA.AperFunction,ComponentPad*%
%ADD32O,1.000000X1.600000*%
%TD*%
%TA.AperFunction,ViaPad*%
%ADD33C,0.600000*%
%TD*%
%TA.AperFunction,Conductor*%
%ADD34C,0.200000*%
%TD*%
G04 APERTURE END LIST*
D10*
%TO.P,R5,1*%
%TO.N,3V3*%
X17175000Y-54000000D03*
%TO.P,R5,2*%
%TO.N,PWR_LED*%
X18825000Y-54000000D03*
%TD*%
D11*
%TO.P,D2,1*%
%TO.N,CHRG*%
X71212500Y-14000000D03*
%TO.P,D2,2*%
%TO.N,+5V*%
X72787500Y-14000000D03*
%TD*%
D12*
%TO.P,U1,1*%
%TO.N,GND*%
X39250000Y-15750000D03*
%TO.P,U1,2*%
%TO.N,3V3*%
X39250000Y-17020000D03*
%TO.P,U1,3*%
%TO.N,EN*%
X39250000Y-18290000D03*
%TO.P,U1,4*%
%TO.N,FLEX1*%
X39250000Y-19560000D03*
%TO.P,U1,5*%
%TO.N,FLEX2*%
X39250000Y-20830000D03*
%TO.P,U1,6*%
%TO.N,FLEX3*%
X39250000Y-22100000D03*
%TO.P,U1,7*%
%TO.N,FLEX4*%
X39250000Y-23370000D03*
%TO.P,U1,8*%
%TO.N,FLEX5*%
X39250000Y-24640000D03*
%TO.P,U1,9*%
%TO.N,N/C*%
X39250000Y-25910000D03*
%TO.P,U1,10*%
X39250000Y-27180000D03*
%TO.P,U1,11*%
X39250000Y-28450000D03*
%TO.P,U1,12*%
X39250000Y-29720000D03*
%TO.P,U1,13*%
X39250000Y-30990000D03*
%TO.P,U1,14*%
X39250000Y-32260000D03*
D13*
%TO.P,U1,15*%
%TO.N,GND*%
X42290000Y-33510000D03*
%TO.P,U1,16*%
%TO.N,N/C*%
X43560000Y-33510000D03*
%TO.P,U1,17*%
X44830000Y-33510000D03*
%TO.P,U1,18*%
X46100000Y-33510000D03*
%TO.P,U1,19*%
X47370000Y-33510000D03*
%TO.P,U1,20*%
X48640000Y-33510000D03*
%TO.P,U1,21*%
X49910000Y-33510000D03*
%TO.P,U1,22*%
X51180000Y-33510000D03*
%TO.P,U1,23*%
X52450000Y-33510000D03*
%TO.P,U1,24*%
%TO.N,STAT_LED*%
X53720000Y-33510000D03*
D12*
%TO.P,U1,25*%
%TO.N,BOOT*%
X56750000Y-32260000D03*
%TO.P,U1,26*%
%TO.N,N/C*%
X56750000Y-30990000D03*
%TO.P,U1,27*%
X56750000Y-29720000D03*
%TO.P,U1,28*%
X56750000Y-28450000D03*
%TO.P,U1,29*%
X56750000Y-27180000D03*
%TO.P,U1,30*%
X56750000Y-25910000D03*
%TO.P,U1,31*%
%TO.N,IMU_INT*%
X56750000Y-24640000D03*
%TO.P,U1,32*%
%TO.N,N/C*%
X56750000Y-23370000D03*
%TO.P,U1,33*%
%TO.N,SDA*%
X56750000Y-22100000D03*
%TO.P,U1,34*%
%TO.N,N/C*%
X56750000Y-20830000D03*
%TO.P,U1,35*%
X56750000Y-19560000D03*
%TO.P,U1,36*%
%TO.N,SCL*%
X56750000Y-18290000D03*
%TO.P,U1,37*%
%TO.N,N/C*%
X56750000Y-17020000D03*
%TO.P,U1,38*%
%TO.N,GND*%
X56750000Y-15750000D03*
D14*
%TO.P,U1,39*%
X45795000Y-21565000D03*
D15*
X45795000Y-22327500D03*
D14*
X45795000Y-23090000D03*
D15*
X45795000Y-23852500D03*
D14*
X45795000Y-24615000D03*
D15*
X46557500Y-21565000D03*
X46557500Y-23090000D03*
X46557500Y-24615000D03*
D14*
X47320000Y-21565000D03*
D15*
X47320000Y-22327500D03*
D14*
X47320000Y-23090000D03*
D16*
X47320000Y-23090000D03*
D15*
X47320000Y-23852500D03*
D14*
X47320000Y-24615000D03*
D15*
X48082500Y-21565000D03*
X48082500Y-23090000D03*
X48082500Y-24615000D03*
D14*
X48845000Y-21565000D03*
D15*
X48845000Y-22327500D03*
D14*
X48845000Y-23090000D03*
D15*
X48845000Y-23852500D03*
D14*
X48845000Y-24615000D03*
%TD*%
D17*
%TO.P,SW2,1*%
%TO.N,EN*%
X34300000Y-58000000D03*
%TO.P,SW2,2*%
%TO.N,GND*%
X37700000Y-58000000D03*
%TD*%
D11*
%TO.P,D1,1*%
%TO.N,GND*%
X17212500Y-52500000D03*
%TO.P,D1,2*%
%TO.N,PWR_LED*%
X18787500Y-52500000D03*
%TD*%
D18*
%TO.P,C7,1*%
%TO.N,3V3*%
X69225000Y-34000000D03*
%TO.P,C7,2*%
%TO.N,GND*%
X70775000Y-34000000D03*
%TD*%
D19*
%TO.P,U3,1*%
%TO.N,GND*%
X82300000Y-26850000D03*
%TO.P,U3,2*%
%TO.N,3V3*%
X80000000Y-26850000D03*
%TO.P,U3,3*%
%TO.N,+BAT*%
X77700000Y-26850000D03*
D20*
%TO.P,U3,4*%
%TO.N,3V3*%
X80000000Y-33150000D03*
%TD*%
D10*
%TO.P,R3,1*%
%TO.N,FLEX3*%
X15175000Y-24000000D03*
%TO.P,R3,2*%
%TO.N,GND*%
X16825000Y-24000000D03*
%TD*%
%TO.P,R10,1*%
%TO.N,3V3*%
X23175000Y-58000000D03*
%TO.P,R10,2*%
%TO.N,BOOT*%
X24825000Y-58000000D03*
%TD*%
D21*
%TO.P,C5,1*%
%TO.N,+BAT*%
X69050000Y-24000000D03*
%TO.P,C5,2*%
%TO.N,GND*%
X70950000Y-24000000D03*
%TD*%
D18*
%TO.P,C9,1*%
%TO.N,3V3*%
X69225000Y-56000000D03*
%TO.P,C9,2*%
%TO.N,GND*%
X70775000Y-56000000D03*
%TD*%
D21*
%TO.P,C6,1*%
%TO.N,3V3*%
X69050000Y-30000000D03*
%TO.P,C6,2*%
%TO.N,GND*%
X70950000Y-30000000D03*
%TD*%
D10*
%TO.P,R9,1*%
%TO.N,3V3*%
X17175000Y-58000000D03*
%TO.P,R9,2*%
%TO.N,EN*%
X18825000Y-58000000D03*
%TD*%
%TO.P,R2,1*%
%TO.N,FLEX2*%
X15175000Y-20000000D03*
%TO.P,R2,2*%
%TO.N,GND*%
X16825000Y-20000000D03*
%TD*%
%TO.P,R6,1*%
%TO.N,CC1*%
X33175000Y-54000000D03*
%TO.P,R6,2*%
%TO.N,GND*%
X34825000Y-54000000D03*
%TD*%
D17*
%TO.P,SW1,1*%
%TO.N,BOOT*%
X28300000Y-58000000D03*
%TO.P,SW1,2*%
%TO.N,GND*%
X31700000Y-58000000D03*
%TD*%
D10*
%TO.P,R1,1*%
%TO.N,FLEX1*%
X15175000Y-16000000D03*
%TO.P,R1,2*%
%TO.N,GND*%
X16825000Y-16000000D03*
%TD*%
D22*
%TO.P,J3,1*%
%TO.N,+BAT*%
X78000000Y-64000000D03*
D23*
%TO.P,J3,2*%
%TO.N,GND*%
X78000000Y-62000000D03*
%TD*%
D24*
%TO.P,U4,1*%
%TO.N,N/C*%
X78050000Y-54750000D03*
%TO.P,U4,2*%
X78050000Y-55250000D03*
%TO.P,U4,3*%
X78050000Y-55750000D03*
%TO.P,U4,4*%
X78050000Y-56250000D03*
%TO.P,U4,5*%
X78050000Y-56750000D03*
%TO.P,U4,6*%
X78050000Y-57250000D03*
D25*
%TO.P,U4,7*%
X78750000Y-57950000D03*
%TO.P,U4,8*%
%TO.N,3V3*%
X79250000Y-57950000D03*
%TO.P,U4,9*%
%TO.N,GND*%
X79750000Y-57950000D03*
%TO.P,U4,10*%
%TO.N,REGOUT*%
X80250000Y-57950000D03*
%TO.P,U4,11*%
%TO.N,N/C*%
X80750000Y-57950000D03*
%TO.P,U4,12*%
%TO.N,IMU_INT*%
X81250000Y-57950000D03*
D24*
%TO.P,U4,13*%
%TO.N,3V3*%
X81950000Y-57250000D03*
%TO.P,U4,14*%
%TO.N,N/C*%
X81950000Y-56750000D03*
%TO.P,U4,15*%
X81950000Y-56250000D03*
%TO.P,U4,16*%
X81950000Y-55750000D03*
%TO.P,U4,17*%
X81950000Y-55250000D03*
%TO.P,U4,18*%
%TO.N,GND*%
X81950000Y-54750000D03*
D25*
%TO.P,U4,19*%
%TO.N,N/C*%
X81250000Y-54050000D03*
%TO.P,U4,20*%
X80750000Y-54050000D03*
%TO.P,U4,21*%
X80250000Y-54050000D03*
%TO.P,U4,22*%
X79750000Y-54050000D03*
%TO.P,U4,23*%
%TO.N,SCL*%
X79250000Y-54050000D03*
%TO.P,U4,24*%
%TO.N,SDA*%
X78750000Y-54050000D03*
%TD*%
D10*
%TO.P,R11,1*%
%TO.N,FLEX5*%
X15175000Y-32000000D03*
%TO.P,R11,2*%
%TO.N,GND*%
X16825000Y-32000000D03*
%TD*%
D18*
%TO.P,C1,1*%
%TO.N,3V3*%
X51225000Y-54000000D03*
%TO.P,C1,2*%
%TO.N,GND*%
X52775000Y-54000000D03*
%TD*%
D10*
%TO.P,R8,1*%
%TO.N,TP_PROG*%
X65175000Y-14000000D03*
%TO.P,R8,2*%
%TO.N,GND*%
X66825000Y-14000000D03*
%TD*%
D26*
%TO.P,J2,1*%
%TO.N,3V3*%
X8000000Y-50000000D03*
D27*
%TO.P,J2,2*%
%TO.N,FLEX1*%
X8000000Y-52540000D03*
%TO.P,J2,3*%
%TO.N,FLEX2*%
X8000000Y-55080000D03*
%TO.P,J2,4*%
%TO.N,FLEX3*%
X8000000Y-57620000D03*
%TO.P,J2,5*%
%TO.N,FLEX4*%
X8000000Y-60160000D03*
%TO.P,J2,6*%
%TO.N,FLEX5*%
X8000000Y-62700000D03*
%TO.P,J2,7*%
%TO.N,GND*%
X8000000Y-65240000D03*
%TD*%
D28*
%TO.P,U2,1*%
%TO.N,GND*%
X77525000Y-16095000D03*
%TO.P,U2,2*%
%TO.N,TP_PROG*%
X77525000Y-17365000D03*
%TO.P,U2,3*%
%TO.N,GND*%
X77525000Y-18635000D03*
%TO.P,U2,4*%
%TO.N,+5V*%
X77525000Y-19905000D03*
%TO.P,U2,5*%
%TO.N,+BAT*%
X82475000Y-19905000D03*
%TO.P,U2,6*%
%TO.N,N/C*%
X82475000Y-18635000D03*
%TO.P,U2,7*%
%TO.N,CHRG*%
X82475000Y-17365000D03*
%TO.P,U2,8*%
%TO.N,+5V*%
X82475000Y-16095000D03*
%TD*%
D10*
%TO.P,R7,1*%
%TO.N,CC2*%
X61175000Y-54000000D03*
%TO.P,R7,2*%
%TO.N,GND*%
X62825000Y-54000000D03*
%TD*%
%TO.P,R4,1*%
%TO.N,FLEX4*%
X15175000Y-28000000D03*
%TO.P,R4,2*%
%TO.N,GND*%
X16825000Y-28000000D03*
%TD*%
D21*
%TO.P,C10,1*%
%TO.N,REGOUT*%
X69050000Y-50000000D03*
%TO.P,C10,2*%
%TO.N,GND*%
X70950000Y-50000000D03*
%TD*%
D18*
%TO.P,C2,1*%
%TO.N,3V3*%
X55225000Y-54000000D03*
%TO.P,C2,2*%
%TO.N,GND*%
X56775000Y-54000000D03*
%TD*%
D29*
%TO.P,J1,A1*%
%TO.N,GND*%
X44750000Y-61955000D03*
%TO.P,J1,A4*%
%TO.N,+5V*%
X45550000Y-61955000D03*
D30*
%TO.P,J1,A5*%
%TO.N,CC1*%
X46750000Y-61955000D03*
%TO.P,J1,A6*%
%TO.N,N/C*%
X47750000Y-61955000D03*
%TO.P,J1,A7*%
X48250000Y-61955000D03*
%TO.P,J1,A8*%
X49250000Y-61955000D03*
D29*
%TO.P,J1,A9*%
%TO.N,+5V*%
X50450000Y-61955000D03*
%TO.P,J1,A12*%
%TO.N,GND*%
X51250000Y-61955000D03*
%TO.P,J1,B1*%
X51250000Y-61955000D03*
%TO.P,J1,B4*%
%TO.N,+5V*%
X50450000Y-61955000D03*
D30*
%TO.P,J1,B5*%
%TO.N,CC2*%
X49750000Y-61955000D03*
%TO.P,J1,B6*%
%TO.N,N/C*%
X48750000Y-61955000D03*
%TO.P,J1,B7*%
X47250000Y-61955000D03*
%TO.P,J1,B8*%
X46250000Y-61955000D03*
D29*
%TO.P,J1,B9*%
%TO.N,+5V*%
X45550000Y-61955000D03*
%TO.P,J1,B12*%
%TO.N,GND*%
X44750000Y-61955000D03*
D31*
%TO.P,J1,S1*%
X43680000Y-62870000D03*
D32*
X43680000Y-67050000D03*
D31*
X52320000Y-62870000D03*
D32*
X52320000Y-67050000D03*
%TD*%
D11*
%TO.P,D3,1*%
%TO.N,GND*%
X23212500Y-52500000D03*
%TO.P,D3,2*%
%TO.N,STAT_LED*%
X24787500Y-52500000D03*
%TD*%
D33*
%TO.N,GND*%
X79314800Y-57007400D03*
X53552600Y-54777600D03*
%TO.N,+BAT*%
X75611800Y-26986500D03*
%TO.N,FLEX1*%
X16736500Y-17240900D03*
%TO.N,FLEX2*%
X15756800Y-20929000D03*
%TO.N,FLEX3*%
X14236200Y-23842700D03*
%TO.N,FLEX4*%
X18592500Y-32381200D03*
%TO.N,IMU_INT*%
X80779600Y-58897400D03*
X76146600Y-50794200D03*
%TO.N,CC1*%
X33144000Y-54998900D03*
X46592500Y-63298900D03*
%TO.N,CC2*%
X60087100Y-54159600D03*
X52935000Y-64884100D03*
%TO.N,REGOUT*%
X80427200Y-56799200D03*
X77746500Y-53488100D03*
%TD*%
D34*
%TO.N,GND*%
X48845000Y-23090000D02*
X48082500Y-23090000D01*
X47320000Y-23090000D02*
X46557500Y-23090000D01*
X48845000Y-23090000D02*
X48845000Y-22327500D01*
X70775000Y-30175000D02*
X70775000Y-34000000D01*
X55997400Y-54777600D02*
X53552600Y-54777600D01*
X48082500Y-21565000D02*
X47320000Y-21565000D01*
X56750000Y-15750000D02*
X57801700Y-15750000D01*
X45795000Y-24615000D02*
X45795000Y-23852500D01*
X44968300Y-21565000D02*
X44968300Y-20416600D01*
X15391700Y-18566600D02*
X13587500Y-20370800D01*
X62825000Y-54000000D02*
X68775000Y-54000000D01*
X31700000Y-58000000D02*
X32451700Y-58000000D01*
X62047500Y-54777500D02*
X62825000Y-54000000D01*
X79314800Y-57007400D02*
X79314800Y-56898200D01*
X23212500Y-51712200D02*
X23212500Y-52500000D01*
X23212500Y-51712200D02*
X18000300Y-51712200D01*
X64375000Y-20833100D02*
X68618700Y-25076800D01*
X14466500Y-17641400D02*
X14570400Y-17745300D01*
X78000000Y-62000000D02*
X76823300Y-62000000D01*
X72769000Y-28181000D02*
X72769000Y-27972600D01*
X72769000Y-28181000D02*
X70950000Y-30000000D01*
X48845000Y-21565000D02*
X48082500Y-21565000D01*
X33603400Y-56848300D02*
X32451700Y-58000000D01*
X70950000Y-30000000D02*
X70775000Y-30175000D01*
X48082500Y-23090000D02*
X47320000Y-23090000D01*
X48845000Y-21978400D02*
X48845000Y-22327500D01*
X16825000Y-32000000D02*
X16825000Y-28000000D01*
X18000300Y-51712200D02*
X17212500Y-52500000D01*
X70950000Y-50000000D02*
X70950000Y-51825000D01*
X48082500Y-24615000D02*
X47320000Y-24615000D01*
X34887500Y-56848300D02*
X34825000Y-56848300D01*
X45795000Y-24615000D02*
X45795000Y-25441700D01*
X48845000Y-23852500D02*
X48845000Y-23090000D01*
X49258400Y-21565000D02*
X48845000Y-21978400D01*
X45381700Y-21565000D02*
X45795000Y-21978300D01*
X68775000Y-54000000D02*
X70775000Y-56000000D01*
X80983000Y-25533000D02*
X79351800Y-25533000D01*
X55486700Y-15750000D02*
X56750000Y-15750000D01*
X15391700Y-18566600D02*
X16825000Y-20000000D01*
X44968300Y-20416600D02*
X40301700Y-15750000D01*
X82300000Y-26850000D02*
X80983000Y-25533000D01*
X28792500Y-65240000D02*
X8000000Y-65240000D01*
X14570400Y-17745400D02*
X15391700Y-18566600D01*
X69873200Y-25076800D02*
X70950000Y-24000000D01*
X16825000Y-28000000D02*
X16825000Y-25562000D01*
X47320000Y-23090000D02*
X47320000Y-22327500D01*
X68920000Y-16095000D02*
X66825000Y-14000000D01*
X49671700Y-21565000D02*
X55486700Y-15750000D01*
X38198300Y-15750000D02*
X17075000Y-15750000D01*
X47320000Y-24615000D02*
X46557500Y-24615000D01*
X36035900Y-57996600D02*
X34887500Y-56848300D01*
X39250000Y-15750000D02*
X40301700Y-15750000D01*
X37092900Y-58000000D02*
X36809700Y-58000000D01*
X66043100Y-13218100D02*
X64759900Y-13218100D01*
X45795000Y-21565000D02*
X45381700Y-21565000D01*
X46557500Y-24615000D02*
X45795000Y-24615000D01*
X43680000Y-61518300D02*
X43680000Y-60928300D01*
X13587500Y-24058800D02*
X14309700Y-24781000D01*
X45795000Y-25441700D02*
X42290000Y-28946700D01*
X56775000Y-54000000D02*
X57552500Y-54777500D01*
X76823300Y-62000000D02*
X76629200Y-62194100D01*
X79351800Y-25533000D02*
X78939900Y-25944900D01*
X47320000Y-21565000D02*
X46557500Y-21565000D01*
X36806300Y-57996600D02*
X36035900Y-57996600D01*
X14570400Y-17745300D02*
X14570400Y-17745400D01*
X36809700Y-58000000D02*
X36806300Y-57996600D01*
X16033400Y-15208400D02*
X14769600Y-15208400D01*
X78321800Y-28181000D02*
X72769000Y-28181000D01*
X43680000Y-62870000D02*
X43680000Y-61518300D01*
X17075000Y-15750000D02*
X16825000Y-16000000D01*
X14769600Y-15208400D02*
X14466500Y-15511500D01*
X37700000Y-58000000D02*
X38451700Y-58000000D01*
X72769000Y-27972600D02*
X69873200Y-25076800D01*
X44750000Y-60928300D02*
X43680000Y-60928300D01*
X45381700Y-21565000D02*
X44968300Y-21565000D01*
X53552600Y-54777600D02*
X52775000Y-54000000D01*
X52320000Y-62870000D02*
X52320000Y-62194100D01*
X14309700Y-24781000D02*
X16044000Y-24781000D01*
X66825000Y-14000000D02*
X66043100Y-13218100D01*
X16825000Y-16000000D02*
X16033400Y-15208400D01*
X34825000Y-56848300D02*
X33603400Y-56848300D01*
X64375000Y-15750000D02*
X64375000Y-20833100D01*
X48845000Y-21565000D02*
X49258400Y-21565000D01*
X34825000Y-56848300D02*
X34825000Y-54000000D01*
X64759900Y-13218100D02*
X64375000Y-13603000D01*
X13587500Y-20370800D02*
X13587500Y-24058800D01*
X48845000Y-24615000D02*
X48082500Y-24615000D01*
X42290000Y-28946700D02*
X42290000Y-33510000D01*
X24087800Y-51712200D02*
X23212500Y-51712200D01*
X36035900Y-57996600D02*
X28792500Y-65240000D01*
X57552500Y-54777500D02*
X62047500Y-54777500D01*
X64375000Y-13603000D02*
X64375000Y-15750000D01*
X70950000Y-51825000D02*
X68775000Y-54000000D01*
X47320000Y-23852500D02*
X47320000Y-23090000D01*
X68618700Y-25076800D02*
X69873200Y-25076800D01*
X16044000Y-24781000D02*
X16825000Y-24000000D01*
X46557500Y-21565000D02*
X45795000Y-21565000D01*
X48845000Y-24615000D02*
X48845000Y-23852500D01*
X64375000Y-15750000D02*
X57801700Y-15750000D01*
X78814600Y-17008900D02*
X78814600Y-17697400D01*
X37700000Y-58000000D02*
X37092900Y-58000000D01*
X39250000Y-15750000D02*
X38198300Y-15750000D01*
X41380000Y-60928300D02*
X38451700Y-58000000D01*
X46557500Y-23090000D02*
X45795000Y-23090000D01*
X56775000Y-54000000D02*
X55997400Y-54777600D01*
X43680000Y-60928300D02*
X41380000Y-60928300D01*
X52320000Y-62194100D02*
X51489100Y-62194100D01*
X45795000Y-21978300D02*
X45795000Y-22327500D01*
X42290000Y-33510000D02*
X24087800Y-51712200D01*
X16825000Y-25562000D02*
X16044000Y-24781000D01*
X76629200Y-62194100D02*
X52320000Y-62194100D01*
X49258400Y-21565000D02*
X49671700Y-21565000D01*
%TO.N,3V3*%
X10736700Y-51585000D02*
X16383700Y-51585000D01*
X16383700Y-53208700D02*
X16383700Y-51585000D01*
X34513800Y-33454900D02*
X40268000Y-33454900D01*
X32717300Y-53207400D02*
X50432400Y-53207400D01*
X52312000Y-53217300D02*
X51521300Y-54008000D01*
X28938100Y-59161900D02*
X30714200Y-57385800D01*
X80338800Y-59523600D02*
X79250000Y-58434800D01*
X39250000Y-17020000D02*
X40301700Y-17020000D01*
X30714200Y-55210500D02*
X32717300Y-53207400D01*
X17969600Y-57205400D02*
X22380400Y-57205400D01*
X78983500Y-58701300D02*
X79250000Y-58434800D01*
X40703400Y-17421700D02*
X40301700Y-17020000D01*
X53513300Y-56000000D02*
X69225000Y-56000000D01*
X78369800Y-34780200D02*
X80000000Y-33150000D01*
X50432400Y-53207400D02*
X51225000Y-54000000D01*
X51513300Y-54000000D02*
X51521300Y-54008000D01*
X17175000Y-56410800D02*
X17175000Y-54000000D01*
X40268000Y-33454900D02*
X40703400Y-33019500D01*
X82681000Y-39091400D02*
X82681000Y-57000500D01*
X54442300Y-53217300D02*
X52312000Y-53217300D01*
X8000000Y-50000000D02*
X9151700Y-50000000D01*
X78369800Y-34780200D02*
X82681000Y-39091400D01*
X22380400Y-57205400D02*
X23175000Y-58000000D01*
X9151700Y-50000000D02*
X10736700Y-51585000D01*
X30714200Y-57385800D02*
X30714200Y-55210500D01*
X17969600Y-57205400D02*
X17175000Y-56410800D01*
X69225000Y-56000000D02*
X71926300Y-58701300D01*
X51225000Y-54000000D02*
X51513300Y-54000000D01*
X81052700Y-59523600D02*
X80338800Y-59523600D01*
X16383700Y-51585000D02*
X34513800Y-33454900D01*
X51521300Y-54008000D02*
X53513300Y-56000000D01*
X17175000Y-58000000D02*
X17969600Y-57205400D01*
X24336900Y-59161900D02*
X28938100Y-59161900D01*
X81950000Y-58626300D02*
X81052700Y-59523600D01*
X69050000Y-30000000D02*
X69225000Y-30175000D01*
X81950000Y-57250000D02*
X81950000Y-58626300D01*
X79250000Y-58434800D02*
X79250000Y-57950000D01*
X80000000Y-33150000D02*
X80000000Y-26850000D01*
X23175000Y-58000000D02*
X24336900Y-59161900D01*
X69225000Y-30175000D02*
X69225000Y-34000000D01*
X71926300Y-58701300D02*
X78983500Y-58701300D01*
X55225000Y-54000000D02*
X54442300Y-53217300D01*
X40703400Y-33019500D02*
X40703400Y-17421700D01*
X82681000Y-57000500D02*
X82431500Y-57250000D01*
X70005200Y-34780200D02*
X78369800Y-34780200D01*
X82431500Y-57250000D02*
X81950000Y-57250000D01*
X69225000Y-34000000D02*
X70005200Y-34780200D01*
X17175000Y-54000000D02*
X16383700Y-53208700D01*
%TO.N,+5V*%
X81167900Y-17003400D02*
X81167900Y-19270000D01*
X50450000Y-61955000D02*
X50450000Y-60928300D01*
X50450000Y-60928300D02*
X80319300Y-60928300D01*
X83775200Y-19580000D02*
X83465200Y-19270000D01*
X78164500Y-14000000D02*
X72787500Y-14000000D01*
X83465200Y-19270000D02*
X81167900Y-19270000D01*
X82475000Y-16095000D02*
X82076300Y-16095000D01*
X81167900Y-19270000D02*
X78160000Y-19270000D01*
X78160000Y-19270000D02*
X77525000Y-19905000D01*
X81167900Y-17003400D02*
X78164500Y-14000000D01*
X80319300Y-60928300D02*
X83775200Y-57472400D01*
X82076300Y-16095000D02*
X81167900Y-17003400D01*
X45550000Y-60928300D02*
X50450000Y-60928300D01*
X45550000Y-61955000D02*
X45550000Y-60928300D01*
X83775200Y-57472400D02*
X83775200Y-19580000D01*
%TO.N,+BAT*%
X75748300Y-26850000D02*
X75611800Y-26986500D01*
X77700000Y-24680000D02*
X77700000Y-26850000D01*
X71563700Y-22938400D02*
X70111600Y-22938400D01*
X70111600Y-22938400D02*
X69050000Y-24000000D01*
X82475000Y-19905000D02*
X77700000Y-24680000D01*
X77700000Y-26850000D02*
X75748300Y-26850000D01*
X75611800Y-26986500D02*
X71563700Y-22938400D01*
%TO.N,FLEX1*%
X19055600Y-19560000D02*
X39250000Y-19560000D01*
X16736500Y-17240900D02*
X15495600Y-16000000D01*
X15495600Y-16000000D02*
X15175000Y-16000000D01*
X16736500Y-17240900D02*
X19055600Y-19560000D01*
%TO.N,FLEX2*%
X15175000Y-20248200D02*
X15756800Y-20830000D01*
X15175000Y-20000000D02*
X15175000Y-20248200D01*
X15756800Y-20929000D02*
X15756800Y-20830000D01*
X15756800Y-20830000D02*
X39250000Y-20830000D01*
%TO.N,FLEX3*%
X39250000Y-22100000D02*
X17075000Y-22100000D01*
X14236200Y-23842700D02*
X15017700Y-23842700D01*
X17075000Y-22100000D02*
X15175000Y-24000000D01*
X15017700Y-23842700D02*
X15175000Y-24000000D01*
%TO.N,FLEX4*%
X18592500Y-32381200D02*
X27603700Y-23370000D01*
X18592500Y-32381200D02*
X18188600Y-32785100D01*
X16368900Y-32785100D02*
X16000000Y-32416200D01*
X16000000Y-32416200D02*
X16000000Y-28825000D01*
X27603700Y-23370000D02*
X39250000Y-23370000D01*
X18188600Y-32785100D02*
X16368900Y-32785100D01*
X16000000Y-28825000D02*
X15175000Y-28000000D01*
%TO.N,FLEX5*%
X28030900Y-24640000D02*
X39250000Y-24640000D01*
X15456000Y-32281000D02*
X15175000Y-32000000D01*
X8000000Y-61548300D02*
X7712000Y-61548300D01*
X15456000Y-33194500D02*
X15456000Y-32281000D01*
X19476400Y-33194500D02*
X28030900Y-24640000D01*
X15456000Y-33194500D02*
X19476400Y-33194500D01*
X6446600Y-60282900D02*
X6446600Y-42203900D01*
X8000000Y-62700000D02*
X8000000Y-61548300D01*
X6446600Y-42203900D02*
X15456000Y-33194500D01*
X7712000Y-61548300D02*
X6446600Y-60282900D01*
%TO.N,SDA*%
X58203400Y-22501700D02*
X58203400Y-31272600D01*
X78750000Y-51819200D02*
X78750000Y-54050000D01*
X58203400Y-31272600D02*
X78750000Y-51819200D01*
X57801700Y-22100000D02*
X58203400Y-22501700D01*
X56750000Y-22100000D02*
X57801700Y-22100000D01*
%TO.N,SCL*%
X79250000Y-54050000D02*
X79250000Y-46929000D01*
X56750000Y-18290000D02*
X57801700Y-18290000D01*
X59580900Y-20069200D02*
X57801700Y-18290000D01*
X79250000Y-46929000D02*
X59580900Y-27259900D01*
X59580900Y-27259900D02*
X59580900Y-20069200D01*
%TO.N,EN*%
X40301700Y-18290000D02*
X40301700Y-32853200D01*
X22747500Y-33053200D02*
X6848300Y-48952400D01*
X6848300Y-50975000D02*
X7025000Y-51151700D01*
X16146900Y-58786900D02*
X18825000Y-58786900D01*
X18825000Y-58786900D02*
X19613500Y-59575400D01*
X34300000Y-58000000D02*
X33548300Y-58000000D01*
X6848300Y-48952400D02*
X6848300Y-50975000D01*
X40301700Y-32853200D02*
X40101700Y-33053200D01*
X18825000Y-58786900D02*
X18825000Y-58000000D01*
X31972900Y-59575400D02*
X33548300Y-58000000D01*
X19613500Y-59575400D02*
X31972900Y-59575400D01*
X40101700Y-33053200D02*
X22747500Y-33053200D01*
X39250000Y-18290000D02*
X40301700Y-18290000D01*
X8511700Y-51151700D02*
X16146900Y-58786900D01*
X7025000Y-51151700D02*
X8511700Y-51151700D01*
%TO.N,BOOT*%
X55698300Y-33161700D02*
X36348400Y-52511600D01*
X55698300Y-32260000D02*
X55698300Y-33161700D01*
X32636700Y-52511600D02*
X28300000Y-56848300D01*
X36348400Y-52511600D02*
X32636700Y-52511600D01*
X24825000Y-58000000D02*
X28300000Y-58000000D01*
X28300000Y-58000000D02*
X28300000Y-56848300D01*
X56750000Y-32260000D02*
X55698300Y-32260000D01*
%TO.N,STAT_LED*%
X53720000Y-34561700D02*
X42725800Y-34561700D01*
X53720000Y-33510000D02*
X53720000Y-34561700D01*
X42725800Y-34561700D02*
X24787500Y-52500000D01*
%TO.N,CHRG*%
X83779200Y-15733900D02*
X83779200Y-16441000D01*
X81247300Y-13202000D02*
X83779200Y-15733900D01*
X72010500Y-13202000D02*
X81247300Y-13202000D01*
X71212500Y-14000000D02*
X72010500Y-13202000D01*
X83779200Y-16441000D02*
X82855200Y-17365000D01*
X82855200Y-17365000D02*
X82475000Y-17365000D01*
%TO.N,IMU_INT*%
X56750000Y-24640000D02*
X57801700Y-24640000D01*
X81250000Y-58427000D02*
X80779600Y-58897400D01*
X81250000Y-57950000D02*
X81250000Y-58427000D01*
X57801700Y-24640000D02*
X57801700Y-32449300D01*
X57801700Y-32449300D02*
X76146600Y-50794200D01*
%TO.N,TP_PROG*%
X68540000Y-17365000D02*
X65175000Y-14000000D01*
X77525000Y-17365000D02*
X68540000Y-17365000D01*
%TO.N,PWR_LED*%
X18825000Y-52537500D02*
X18825000Y-54000000D01*
X18787500Y-52500000D02*
X18825000Y-52537500D01*
%TO.N,CC1*%
X46750000Y-63141400D02*
X46592500Y-63298900D01*
X33175000Y-54967900D02*
X33144000Y-54998900D01*
X33175000Y-54000000D02*
X33175000Y-54967900D01*
X46750000Y-61955000D02*
X46750000Y-63141400D01*
%TO.N,CC2*%
X49750000Y-61955000D02*
X49750000Y-63523100D01*
X51111000Y-64884100D02*
X52935000Y-64884100D01*
X61015400Y-54159600D02*
X61175000Y-54000000D01*
X60087100Y-54159600D02*
X61015400Y-54159600D01*
X49750000Y-63523100D02*
X51111000Y-64884100D01*
%TO.N,REGOUT*%
X80250000Y-56976400D02*
X80427200Y-56799200D01*
X73192700Y-48934300D02*
X77746500Y-53488100D01*
X70115700Y-48934300D02*
X73192700Y-48934300D01*
X80250000Y-57950000D02*
X80250000Y-56976400D01*
X69050000Y-50000000D02*
X70115700Y-48934300D01*
%TD*%
%TA.AperFunction,Conductor*%
%TO.N,GND*%
G36*
X57773843Y-32879398D02*
G01*
X57796358Y-32897213D01*
X73301263Y-48402119D01*
X73334748Y-48463442D01*
X73329764Y-48533134D01*
X73287892Y-48589067D01*
X73222428Y-48613484D01*
X73213582Y-48613800D01*
X70073503Y-48613800D01*
X69991990Y-48635641D01*
X69918908Y-48677836D01*
X69918905Y-48677838D01*
X69555845Y-49040897D01*
X69494522Y-49074382D01*
X69424831Y-49069398D01*
X69401044Y-49060526D01*
X69401045Y-49060526D01*
X69401041Y-49060525D01*
X69401040Y-49060525D01*
X69345000Y-49054500D01*
X68755000Y-49054500D01*
X68698960Y-49060525D01*
X68698957Y-49060525D01*
X68698956Y-49060526D01*
X68572195Y-49107805D01*
X68463884Y-49188884D01*
X68382805Y-49297195D01*
X68335526Y-49423956D01*
X68335525Y-49423960D01*
X68329500Y-49480000D01*
X68329500Y-50520000D01*
X68335525Y-50576040D01*
X68335525Y-50576042D01*
X68335526Y-50576043D01*
X68382805Y-50702804D01*
X68463884Y-50811115D01*
X68544843Y-50871719D01*
X68572195Y-50892194D01*
X68698960Y-50939475D01*
X68755000Y-50945500D01*
X68755010Y-50945500D01*
X69344990Y-50945500D01*
X69345000Y-50945500D01*
X69401040Y-50939475D01*
X69527805Y-50892194D01*
X69636115Y-50811115D01*
X69717194Y-50702805D01*
X69764475Y-50576040D01*
X69770500Y-50520000D01*
X69770500Y-49784117D01*
X69790185Y-49717078D01*
X69806819Y-49696436D01*
X70212137Y-49291119D01*
X70273460Y-49257634D01*
X70299818Y-49254800D01*
X73008583Y-49254800D01*
X73075622Y-49274485D01*
X73096264Y-49291119D01*
X77186614Y-53381469D01*
X77220099Y-53442792D01*
X77221874Y-53485324D01*
X77221509Y-53488100D01*
X77238305Y-53615679D01*
X77239398Y-53623977D01*
X77239399Y-53623981D01*
X77291842Y-53750593D01*
X77291843Y-53750595D01*
X77291844Y-53750596D01*
X77375275Y-53859325D01*
X77484004Y-53942756D01*
X77610622Y-53995202D01*
X77730691Y-54011009D01*
X77746499Y-54013091D01*
X77746500Y-54013091D01*
X77746501Y-54013091D01*
X77760661Y-54011226D01*
X77882378Y-53995202D01*
X78008996Y-53942756D01*
X78117725Y-53859325D01*
X78157126Y-53807976D01*
X78213552Y-53766776D01*
X78283298Y-53762621D01*
X78344219Y-53796833D01*
X78376971Y-53858551D01*
X78379500Y-53883465D01*
X78379500Y-54255500D01*
X78359815Y-54322539D01*
X78307011Y-54368294D01*
X78255500Y-54379500D01*
X77655885Y-54379500D01*
X77655861Y-54379502D01*
X77631178Y-54382364D01*
X77631168Y-54382367D01*
X77530109Y-54426989D01*
X77451990Y-54505108D01*
X77407366Y-54606170D01*
X77407366Y-54606172D01*
X77404500Y-54630873D01*
X77404500Y-54869114D01*
X77404502Y-54869138D01*
X77407364Y-54893821D01*
X77407367Y-54893831D01*
X77432130Y-54949913D01*
X77441202Y-55019191D01*
X77432131Y-55050084D01*
X77407366Y-55106170D01*
X77407366Y-55106172D01*
X77404500Y-55130873D01*
X77404500Y-55369114D01*
X77404502Y-55369138D01*
X77407364Y-55393821D01*
X77407367Y-55393831D01*
X77432130Y-55449913D01*
X77441202Y-55519191D01*
X77432131Y-55550084D01*
X77407366Y-55606170D01*
X77407366Y-55606172D01*
X77404500Y-55630873D01*
X77404500Y-55869114D01*
X77404502Y-55869138D01*
X77407364Y-55893821D01*
X77407367Y-55893831D01*
X77432130Y-55949913D01*
X77441202Y-56019191D01*
X77432131Y-56050084D01*
X77407366Y-56106170D01*
X77407366Y-56106172D01*
X77404500Y-56130873D01*
X77404500Y-56369114D01*
X77404502Y-56369138D01*
X77407364Y-56393821D01*
X77407367Y-56393831D01*
X77432130Y-56449913D01*
X77441202Y-56519191D01*
X77432131Y-56550084D01*
X77407366Y-56606170D01*
X77407366Y-56606172D01*
X77404500Y-56630873D01*
X77404500Y-56869114D01*
X77404502Y-56869138D01*
X77407364Y-56893821D01*
X77407367Y-56893831D01*
X77432130Y-56949913D01*
X77441202Y-57019191D01*
X77432131Y-57050084D01*
X77407366Y-57106170D01*
X77407366Y-57106172D01*
X77404500Y-57130873D01*
X77404500Y-57369114D01*
X77404502Y-57369138D01*
X77407364Y-57393821D01*
X77407367Y-57393831D01*
X77451989Y-57494890D01*
X77451990Y-57494891D01*
X77530109Y-57573010D01*
X77631173Y-57617634D01*
X77655877Y-57620500D01*
X78255500Y-57620499D01*
X78322539Y-57640183D01*
X78368294Y-57692987D01*
X78379500Y-57744499D01*
X78379501Y-58256800D01*
X78359817Y-58323839D01*
X78307013Y-58369594D01*
X78255501Y-58380800D01*
X72110417Y-58380800D01*
X72043378Y-58361115D01*
X72022736Y-58344481D01*
X69931819Y-56253564D01*
X69898334Y-56192241D01*
X69895500Y-56165883D01*
X69895500Y-55696331D01*
X69892678Y-55666245D01*
X69892678Y-55666241D01*
X69848322Y-55539481D01*
X69768574Y-55431426D01*
X69660519Y-55351678D01*
X69601347Y-55330972D01*
X69533763Y-55307323D01*
X69533754Y-55307321D01*
X69503668Y-55304500D01*
X69503664Y-55304500D01*
X68946336Y-55304500D01*
X68946332Y-55304500D01*
X68916245Y-55307321D01*
X68916236Y-55307323D01*
X68789481Y-55351678D01*
X68681426Y-55431426D01*
X68601678Y-55539481D01*
X68581741Y-55596456D01*
X68541019Y-55653231D01*
X68476066Y-55678978D01*
X68464700Y-55679500D01*
X53697418Y-55679500D01*
X53630379Y-55659815D01*
X53609737Y-55643181D01*
X52062236Y-54095680D01*
X52028751Y-54034357D01*
X52033735Y-53964665D01*
X52062236Y-53920318D01*
X52215779Y-53766776D01*
X52408436Y-53574119D01*
X52469759Y-53540634D01*
X52496117Y-53537800D01*
X54258183Y-53537800D01*
X54325222Y-53557485D01*
X54345864Y-53574119D01*
X54518181Y-53746436D01*
X54551666Y-53807759D01*
X54554500Y-53834117D01*
X54554500Y-54303668D01*
X54557321Y-54333754D01*
X54557323Y-54333763D01*
X54573328Y-54379500D01*
X54601678Y-54460519D01*
X54681426Y-54568574D01*
X54789481Y-54648322D01*
X54916241Y-54692678D01*
X54931288Y-54694089D01*
X54946332Y-54695500D01*
X54946336Y-54695500D01*
X55503668Y-54695500D01*
X55517039Y-54694245D01*
X55533759Y-54692678D01*
X55660519Y-54648322D01*
X55768574Y-54568574D01*
X55848322Y-54460519D01*
X55892678Y-54333759D01*
X55895084Y-54308102D01*
X55895500Y-54303668D01*
X55895500Y-54159599D01*
X59562109Y-54159599D01*
X59562109Y-54159600D01*
X59579998Y-54295477D01*
X59579999Y-54295481D01*
X59632442Y-54422093D01*
X59632443Y-54422095D01*
X59632444Y-54422096D01*
X59715875Y-54530825D01*
X59824604Y-54614256D01*
X59824605Y-54614256D01*
X59824606Y-54614257D01*
X59843795Y-54622205D01*
X59951222Y-54666702D01*
X60071291Y-54682509D01*
X60087099Y-54684591D01*
X60087100Y-54684591D01*
X60087101Y-54684591D01*
X60101261Y-54682726D01*
X60222978Y-54666702D01*
X60349596Y-54614256D01*
X60458325Y-54530825D01*
X60458334Y-54530812D01*
X60459547Y-54529601D01*
X60460836Y-54528896D01*
X60464772Y-54525877D01*
X60465242Y-54526490D01*
X60520868Y-54496112D01*
X60590560Y-54501091D01*
X60634916Y-54529595D01*
X60724749Y-54619428D01*
X60724753Y-54619431D01*
X60724755Y-54619433D01*
X60843438Y-54679905D01*
X60843439Y-54679905D01*
X60843441Y-54679906D01*
X60941897Y-54695499D01*
X60941903Y-54695500D01*
X61408096Y-54695499D01*
X61506562Y-54679905D01*
X61625245Y-54619433D01*
X61719433Y-54525245D01*
X61779905Y-54406562D01*
X61795500Y-54308097D01*
X61795499Y-53691904D01*
X61779905Y-53593438D01*
X61719433Y-53474755D01*
X61719429Y-53474751D01*
X61719428Y-53474749D01*
X61625250Y-53380571D01*
X61625246Y-53380568D01*
X61625245Y-53380567D01*
X61506562Y-53320095D01*
X61506561Y-53320094D01*
X61506558Y-53320093D01*
X61408102Y-53304500D01*
X60941904Y-53304500D01*
X60843436Y-53320095D01*
X60780385Y-53352222D01*
X60724755Y-53380567D01*
X60724754Y-53380568D01*
X60724749Y-53380571D01*
X60630571Y-53474749D01*
X60630568Y-53474753D01*
X60630567Y-53474755D01*
X60570095Y-53593438D01*
X60570094Y-53593439D01*
X60570094Y-53593441D01*
X60563058Y-53637863D01*
X60533128Y-53700997D01*
X60473816Y-53737928D01*
X60403954Y-53736930D01*
X60365098Y-53716839D01*
X60349597Y-53704944D01*
X60349594Y-53704943D01*
X60222981Y-53652499D01*
X60222979Y-53652498D01*
X60222978Y-53652498D01*
X60155039Y-53643553D01*
X60087101Y-53634609D01*
X60087099Y-53634609D01*
X59951222Y-53652498D01*
X59951218Y-53652499D01*
X59824605Y-53704943D01*
X59715875Y-53788375D01*
X59632443Y-53897105D01*
X59579999Y-54023718D01*
X59579998Y-54023722D01*
X59562109Y-54159599D01*
X55895500Y-54159599D01*
X55895500Y-53696331D01*
X55892678Y-53666245D01*
X55892678Y-53666241D01*
X55848322Y-53539481D01*
X55768574Y-53431426D01*
X55660519Y-53351678D01*
X55601347Y-53330972D01*
X55533763Y-53307323D01*
X55533754Y-53307321D01*
X55503668Y-53304500D01*
X55503664Y-53304500D01*
X55034117Y-53304500D01*
X54967078Y-53284815D01*
X54946436Y-53268181D01*
X54705834Y-53027579D01*
X54705832Y-53027576D01*
X54639094Y-52960838D01*
X54639092Y-52960836D01*
X54566009Y-52918641D01*
X54511669Y-52904081D01*
X54484496Y-52896800D01*
X54484495Y-52896800D01*
X52361807Y-52896800D01*
X52361791Y-52896799D01*
X52354195Y-52896799D01*
X52269806Y-52896799D01*
X52269804Y-52896799D01*
X52188293Y-52918638D01*
X52188291Y-52918639D01*
X52157406Y-52936470D01*
X52157407Y-52936471D01*
X52115207Y-52960836D01*
X52095046Y-52980998D01*
X52055536Y-53020508D01*
X52055534Y-53020510D01*
X51762910Y-53313133D01*
X51701587Y-53346618D01*
X51634274Y-53342493D01*
X51533766Y-53307323D01*
X51533754Y-53307321D01*
X51503668Y-53304500D01*
X51503664Y-53304500D01*
X51034117Y-53304500D01*
X50967078Y-53284815D01*
X50946436Y-53268181D01*
X50695934Y-53017679D01*
X50695932Y-53017676D01*
X50629194Y-52950938D01*
X50629192Y-52950936D01*
X50556109Y-52908741D01*
X50538717Y-52904081D01*
X50474596Y-52886900D01*
X50474595Y-52886900D01*
X36725716Y-52886900D01*
X36658677Y-52867215D01*
X36612922Y-52814411D01*
X36602978Y-52745253D01*
X36632003Y-52681697D01*
X36638035Y-52675219D01*
X42645059Y-46668195D01*
X55884882Y-33428372D01*
X55884887Y-33428368D01*
X55895090Y-33418164D01*
X55895092Y-33418164D01*
X55954764Y-33358492D01*
X55996959Y-33285409D01*
X56018800Y-33203895D01*
X56018800Y-33054499D01*
X56038485Y-32987460D01*
X56091289Y-32941705D01*
X56142800Y-32930499D01*
X57521717Y-32930499D01*
X57521718Y-32930499D01*
X57586035Y-32917707D01*
X57586038Y-32917705D01*
X57639786Y-32881792D01*
X57706463Y-32860914D01*
X57773843Y-32879398D01*
G37*
%TD.AperFunction*%
%TA.AperFunction,Conductor*%
G36*
X93743039Y-12019685D02*
G01*
X93788794Y-12072489D01*
X93800000Y-12124000D01*
X93800000Y-70676000D01*
X93780315Y-70743039D01*
X93727511Y-70788794D01*
X93676000Y-70800000D01*
X1324000Y-70800000D01*
X1256961Y-70780315D01*
X1211206Y-70727511D01*
X1200000Y-70676000D01*
X1200000Y-68393713D01*
X2149500Y-68393713D01*
X2149500Y-68606286D01*
X2182753Y-68816239D01*
X2248444Y-69018414D01*
X2344951Y-69207820D01*
X2469890Y-69379786D01*
X2620213Y-69530109D01*
X2792179Y-69655048D01*
X2792181Y-69655049D01*
X2792184Y-69655051D01*
X2981588Y-69751557D01*
X3183757Y-69817246D01*
X3393713Y-69850500D01*
X3393714Y-69850500D01*
X3606286Y-69850500D01*
X3606287Y-69850500D01*
X3816243Y-69817246D01*
X4018412Y-69751557D01*
X4207816Y-69655051D01*
X4229789Y-69639086D01*
X4379786Y-69530109D01*
X4379788Y-69530106D01*
X4379792Y-69530104D01*
X4530104Y-69379792D01*
X4530106Y-69379788D01*
X4530109Y-69379786D01*
X4655048Y-69207820D01*
X4655047Y-69207820D01*
X4655051Y-69207816D01*
X4751557Y-69018412D01*
X4817246Y-68816243D01*
X4850500Y-68606287D01*
X4850500Y-68393713D01*
X90149500Y-68393713D01*
X90149500Y-68606286D01*
X90182753Y-68816239D01*
X90248444Y-69018414D01*
X90344951Y-69207820D01*
X90469890Y-69379786D01*
X90620213Y-69530109D01*
X90792179Y-69655048D01*
X90792181Y-69655049D01*
X90792184Y-69655051D01*
X90981588Y-69751557D01*
X91183757Y-69817246D01*
X91393713Y-69850500D01*
X91393714Y-69850500D01*
X91606286Y-69850500D01*
X91606287Y-69850500D01*
X91816243Y-69817246D01*
X92018412Y-69751557D01*
X92207816Y-69655051D01*
X92229789Y-69639086D01*
X92379786Y-69530109D01*
X92379788Y-69530106D01*
X92379792Y-69530104D01*
X92530104Y-69379792D01*
X92530106Y-69379788D01*
X92530109Y-69379786D01*
X92655048Y-69207820D01*
X92655047Y-69207820D01*
X92655051Y-69207816D01*
X92751557Y-69018412D01*
X92817246Y-68816243D01*
X92850500Y-68606287D01*
X92850500Y-68393713D01*
X92817246Y-68183757D01*
X92751557Y-67981588D01*
X92655051Y-67792184D01*
X92655049Y-67792181D01*
X92655048Y-67792179D01*
X92530109Y-67620213D01*
X92379786Y-67469890D01*
X92207820Y-67344951D01*
X92018414Y-67248444D01*
X92018413Y-67248443D01*
X92018412Y-67248443D01*
X91816243Y-67182754D01*
X91816241Y-67182753D01*
X91816240Y-67182753D01*
X91654957Y-67157208D01*
X91606287Y-67149500D01*
X91393713Y-67149500D01*
X91345042Y-67157208D01*
X91183760Y-67182753D01*
X90981585Y-67248444D01*
X90792179Y-67344951D01*
X90620213Y-67469890D01*
X90469890Y-67620213D01*
X90344951Y-67792179D01*
X90248444Y-67981585D01*
X90182753Y-68183760D01*
X90149500Y-68393713D01*
X4850500Y-68393713D01*
X4817246Y-68183757D01*
X4751557Y-67981588D01*
X4655051Y-67792184D01*
X4655049Y-67792181D01*
X4655048Y-67792179D01*
X4530109Y-67620213D01*
X4379786Y-67469890D01*
X4207820Y-67344951D01*
X4018414Y-67248444D01*
X4018413Y-67248443D01*
X4018412Y-67248443D01*
X3816243Y-67182754D01*
X3816241Y-67182753D01*
X3816240Y-67182753D01*
X3654957Y-67157208D01*
X3606287Y-67149500D01*
X3393713Y-67149500D01*
X3345042Y-67157208D01*
X3183760Y-67182753D01*
X2981585Y-67248444D01*
X2792179Y-67344951D01*
X2620213Y-67469890D01*
X2469890Y-67620213D01*
X2344951Y-67792179D01*
X2248444Y-67981585D01*
X2182753Y-68183760D01*
X2149500Y-68393713D01*
X1200000Y-68393713D01*
X1200000Y-42161703D01*
X6126100Y-42161703D01*
X6126100Y-60325096D01*
X6138093Y-60369855D01*
X6147941Y-60406609D01*
X6190136Y-60479692D01*
X6190138Y-60479694D01*
X6256873Y-60546429D01*
X6256879Y-60546434D01*
X7368072Y-61657627D01*
X7401557Y-61718950D01*
X7396573Y-61788642D01*
X7359056Y-61841161D01*
X7239379Y-61939378D01*
X7105605Y-62102383D01*
X7105600Y-62102389D01*
X7006202Y-62288350D01*
X6944988Y-62490146D01*
X6924320Y-62700000D01*
X6944988Y-62909853D01*
X7006202Y-63111649D01*
X7105600Y-63297610D01*
X7105605Y-63297616D01*
X7239378Y-63460621D01*
X7402383Y-63594394D01*
X7402389Y-63594399D01*
X7588350Y-63693797D01*
X7588352Y-63693797D01*
X7588355Y-63693799D01*
X7790145Y-63755011D01*
X7790144Y-63755011D01*
X7808959Y-63756864D01*
X8000000Y-63775680D01*
X8209855Y-63755011D01*
X8411645Y-63693799D01*
X8455938Y-63670124D01*
X8597610Y-63594399D01*
X8597612Y-63594396D01*
X8597616Y-63594395D01*
X8760621Y-63460621D01*
X8894395Y-63297616D01*
X8894396Y-63297612D01*
X8894399Y-63297610D01*
X8993797Y-63111649D01*
X8993797Y-63111648D01*
X8993799Y-63111645D01*
X9055011Y-62909855D01*
X9075680Y-62700000D01*
X9055011Y-62490145D01*
X8993799Y-62288355D01*
X8993797Y-62288352D01*
X8993797Y-62288350D01*
X8894399Y-62102389D01*
X8894394Y-62102383D01*
X8760621Y-61939378D01*
X8597616Y-61805605D01*
X8597610Y-61805600D01*
X8411644Y-61706200D01*
X8411646Y-61706200D01*
X8408493Y-61705244D01*
X8407046Y-61704295D01*
X8406021Y-61703871D01*
X8406101Y-61703676D01*
X8350058Y-61666941D01*
X8321608Y-61603126D01*
X8320500Y-61586587D01*
X8320500Y-61506108D01*
X8320500Y-61506105D01*
X8298659Y-61424591D01*
X8260575Y-61358629D01*
X8244102Y-61290731D01*
X8266954Y-61224703D01*
X8321874Y-61181512D01*
X8331947Y-61177974D01*
X8411645Y-61153799D01*
X8508507Y-61102024D01*
X8597610Y-61054399D01*
X8597612Y-61054396D01*
X8597616Y-61054395D01*
X8760621Y-60920621D01*
X8894395Y-60757616D01*
X8894396Y-60757612D01*
X8894399Y-60757610D01*
X8993797Y-60571649D01*
X8993797Y-60571648D01*
X8993799Y-60571645D01*
X9055011Y-60369855D01*
X9075680Y-60160000D01*
X9055011Y-59950145D01*
X8993799Y-59748355D01*
X8993797Y-59748352D01*
X8993797Y-59748350D01*
X8894399Y-59562389D01*
X8894394Y-59562383D01*
X8760621Y-59399378D01*
X8597616Y-59265605D01*
X8597610Y-59265600D01*
X8411649Y-59166202D01*
X8282696Y-59127085D01*
X8209855Y-59104989D01*
X8209853Y-59104988D01*
X8209855Y-59104988D01*
X8000000Y-59084320D01*
X7790146Y-59104988D01*
X7588350Y-59166202D01*
X7402389Y-59265600D01*
X7402383Y-59265605D01*
X7239378Y-59399378D01*
X7105605Y-59562383D01*
X7105600Y-59562389D01*
X7006203Y-59748348D01*
X7005661Y-59749659D01*
X7005192Y-59750239D01*
X7003329Y-59753727D01*
X7002667Y-59753373D01*
X6961819Y-59804062D01*
X6895525Y-59826126D01*
X6827825Y-59808846D01*
X6780215Y-59757708D01*
X6767100Y-59702205D01*
X6767100Y-58077794D01*
X6786785Y-58010755D01*
X6839589Y-57965000D01*
X6908747Y-57955056D01*
X6972303Y-57984081D01*
X7002893Y-58026505D01*
X7003329Y-58026273D01*
X7005056Y-58029504D01*
X7005663Y-58030346D01*
X7006203Y-58031650D01*
X7105600Y-58217610D01*
X7105605Y-58217616D01*
X7239378Y-58380621D01*
X7402383Y-58514394D01*
X7402389Y-58514399D01*
X7588350Y-58613797D01*
X7588352Y-58613797D01*
X7588355Y-58613799D01*
X7790145Y-58675011D01*
X7790144Y-58675011D01*
X7802674Y-58676245D01*
X8000000Y-58695680D01*
X8209855Y-58675011D01*
X8411645Y-58613799D01*
X8424870Y-58606730D01*
X8597610Y-58514399D01*
X8597612Y-58514396D01*
X8597616Y-58514395D01*
X8760621Y-58380621D01*
X8894395Y-58217616D01*
X8894396Y-58217612D01*
X8894399Y-58217610D01*
X8993797Y-58031649D01*
X8993797Y-58031648D01*
X8993799Y-58031645D01*
X9055011Y-57829855D01*
X9075680Y-57620000D01*
X9055011Y-57410145D01*
X8993799Y-57208355D01*
X8993797Y-57208352D01*
X8993797Y-57208350D01*
X8894399Y-57022389D01*
X8894394Y-57022383D01*
X8891774Y-57019191D01*
X8861615Y-56982441D01*
X8760621Y-56859378D01*
X8597616Y-56725605D01*
X8597610Y-56725600D01*
X8411649Y-56626202D01*
X8298358Y-56591836D01*
X8209855Y-56564989D01*
X8209853Y-56564988D01*
X8209855Y-56564988D01*
X8000000Y-56544320D01*
X7790146Y-56564988D01*
X7588350Y-56626202D01*
X7402389Y-56725600D01*
X7402383Y-56725605D01*
X7239378Y-56859378D01*
X7105605Y-57022383D01*
X7105600Y-57022389D01*
X7006203Y-57208348D01*
X7005661Y-57209659D01*
X7005192Y-57210239D01*
X7003329Y-57213727D01*
X7002667Y-57213373D01*
X6961819Y-57264062D01*
X6895525Y-57286126D01*
X6827825Y-57268846D01*
X6780215Y-57217708D01*
X6767100Y-57162205D01*
X6767100Y-55537794D01*
X6786785Y-55470755D01*
X6839589Y-55425000D01*
X6908747Y-55415056D01*
X6972303Y-55444081D01*
X7002893Y-55486505D01*
X7003329Y-55486273D01*
X7005056Y-55489504D01*
X7005663Y-55490346D01*
X7006203Y-55491650D01*
X7105600Y-55677610D01*
X7105605Y-55677616D01*
X7239378Y-55840621D01*
X7402383Y-55974394D01*
X7402389Y-55974399D01*
X7588350Y-56073797D01*
X7588352Y-56073797D01*
X7588355Y-56073799D01*
X7790145Y-56135011D01*
X7790144Y-56135011D01*
X7808959Y-56136864D01*
X8000000Y-56155680D01*
X8209855Y-56135011D01*
X8411645Y-56073799D01*
X8456007Y-56050087D01*
X8597610Y-55974399D01*
X8597612Y-55974396D01*
X8597616Y-55974395D01*
X8760621Y-55840621D01*
X8894395Y-55677616D01*
X8894396Y-55677612D01*
X8894399Y-55677610D01*
X8993797Y-55491649D01*
X8993797Y-55491648D01*
X8993799Y-55491645D01*
X9055011Y-55289855D01*
X9075680Y-55080000D01*
X9055011Y-54870145D01*
X8993799Y-54668355D01*
X8993797Y-54668352D01*
X8993797Y-54668350D01*
X8894399Y-54482389D01*
X8894394Y-54482383D01*
X8892520Y-54480100D01*
X8812313Y-54382366D01*
X8760621Y-54319378D01*
X8597616Y-54185605D01*
X8597610Y-54185600D01*
X8411649Y-54086202D01*
X8287377Y-54048505D01*
X8209855Y-54024989D01*
X8209853Y-54024988D01*
X8209855Y-54024988D01*
X8000000Y-54004320D01*
X7790146Y-54024988D01*
X7588350Y-54086202D01*
X7402389Y-54185600D01*
X7402383Y-54185605D01*
X7239378Y-54319378D01*
X7105605Y-54482383D01*
X7105600Y-54482389D01*
X7006203Y-54668348D01*
X7005661Y-54669659D01*
X7005192Y-54670239D01*
X7003329Y-54673727D01*
X7002667Y-54673373D01*
X6961819Y-54724062D01*
X6895525Y-54746126D01*
X6827825Y-54728846D01*
X6780215Y-54677708D01*
X6767100Y-54622205D01*
X6767100Y-52997794D01*
X6786785Y-52930755D01*
X6839589Y-52885000D01*
X6908747Y-52875056D01*
X6972303Y-52904081D01*
X7002893Y-52946505D01*
X7003329Y-52946273D01*
X7005056Y-52949504D01*
X7005663Y-52950346D01*
X7006203Y-52951650D01*
X7105600Y-53137610D01*
X7105605Y-53137616D01*
X7239378Y-53300621D01*
X7402383Y-53434394D01*
X7402389Y-53434399D01*
X7588350Y-53533797D01*
X7588352Y-53533797D01*
X7588355Y-53533799D01*
X7790145Y-53595011D01*
X7790144Y-53595011D01*
X7808959Y-53596864D01*
X8000000Y-53615680D01*
X8209855Y-53595011D01*
X8411645Y-53533799D01*
X8411649Y-53533797D01*
X8597610Y-53434399D01*
X8597612Y-53434396D01*
X8597616Y-53434395D01*
X8760621Y-53300621D01*
X8894395Y-53137616D01*
X8894396Y-53137612D01*
X8894399Y-53137610D01*
X8993797Y-52951649D01*
X8993797Y-52951648D01*
X8993799Y-52951645D01*
X9055011Y-52749855D01*
X9075680Y-52540000D01*
X9069108Y-52473279D01*
X9082126Y-52404637D01*
X9130191Y-52353926D01*
X9198041Y-52337251D01*
X9264136Y-52359906D01*
X9280191Y-52373446D01*
X15950108Y-59043364D01*
X16023191Y-59085559D01*
X16104705Y-59107400D01*
X16189094Y-59107400D01*
X18640883Y-59107400D01*
X18707922Y-59127085D01*
X18728563Y-59143718D01*
X19357035Y-59772191D01*
X19357036Y-59772192D01*
X19416708Y-59831864D01*
X19489791Y-59874059D01*
X19571305Y-59895900D01*
X19571308Y-59895900D01*
X32015092Y-59895900D01*
X32015094Y-59895900D01*
X32015095Y-59895900D01*
X32096609Y-59874059D01*
X32169692Y-59831864D01*
X32229364Y-59772192D01*
X32229364Y-59772190D01*
X32239568Y-59761987D01*
X32239572Y-59761982D01*
X33417821Y-58583732D01*
X33479142Y-58550249D01*
X33548834Y-58555233D01*
X33604767Y-58597105D01*
X33629184Y-58662569D01*
X33629500Y-58671414D01*
X33629500Y-58871716D01*
X33642293Y-58936035D01*
X33642294Y-58936038D01*
X33691027Y-59008971D01*
X33691028Y-59008972D01*
X33763965Y-59057707D01*
X33763966Y-59057707D01*
X33763967Y-59057708D01*
X33802483Y-59065368D01*
X33828281Y-59070500D01*
X34771718Y-59070499D01*
X34836035Y-59057707D01*
X34908972Y-59008972D01*
X34957707Y-58936035D01*
X34970500Y-58871719D01*
X34970499Y-57128282D01*
X34957707Y-57063965D01*
X34957705Y-57063963D01*
X34957705Y-57063961D01*
X34908972Y-56991028D01*
X34847439Y-56949913D01*
X34836035Y-56942293D01*
X34836034Y-56942292D01*
X34836033Y-56942292D01*
X34836032Y-56942291D01*
X34771721Y-56929500D01*
X33828282Y-56929500D01*
X33763964Y-56942293D01*
X33763961Y-56942294D01*
X33691028Y-56991027D01*
X33642292Y-57063966D01*
X33642291Y-57063967D01*
X33629500Y-57128276D01*
X33629500Y-57555500D01*
X33609815Y-57622539D01*
X33557011Y-57668294D01*
X33514060Y-57677637D01*
X33514166Y-57678439D01*
X33506103Y-57679500D01*
X33424590Y-57701341D01*
X33351508Y-57743536D01*
X33351505Y-57743538D01*
X33298608Y-57796436D01*
X33291836Y-57803208D01*
X33291834Y-57803210D01*
X32569795Y-58525250D01*
X31876464Y-59218581D01*
X31815141Y-59252066D01*
X31788783Y-59254900D01*
X29597717Y-59254900D01*
X29530678Y-59235215D01*
X29484923Y-59182411D01*
X29474979Y-59113253D01*
X29504004Y-59049697D01*
X29510036Y-59043219D01*
X29857576Y-58695679D01*
X30900782Y-57652471D01*
X30900787Y-57652468D01*
X30910990Y-57642264D01*
X30910992Y-57642264D01*
X30970664Y-57582592D01*
X31012859Y-57509509D01*
X31013676Y-57506463D01*
X31025625Y-57461865D01*
X31025625Y-57461863D01*
X31034701Y-57427994D01*
X31034701Y-57343605D01*
X31034701Y-57336010D01*
X31034700Y-57335992D01*
X31034700Y-55394616D01*
X31054385Y-55327577D01*
X31071014Y-55306940D01*
X32342821Y-54035132D01*
X32404142Y-54001649D01*
X32473834Y-54006633D01*
X32529767Y-54048505D01*
X32554184Y-54113969D01*
X32554500Y-54122814D01*
X32554500Y-54308095D01*
X32570095Y-54406563D01*
X32589233Y-54444123D01*
X32630567Y-54525245D01*
X32630569Y-54525247D01*
X32630571Y-54525250D01*
X32678609Y-54573288D01*
X32712094Y-54634611D01*
X32707110Y-54704303D01*
X32693275Y-54729288D01*
X32693408Y-54729365D01*
X32689343Y-54736404D01*
X32636899Y-54863018D01*
X32636898Y-54863022D01*
X32625459Y-54949912D01*
X32619009Y-54998900D01*
X32636385Y-55130885D01*
X32636898Y-55134777D01*
X32636899Y-55134781D01*
X32689342Y-55261393D01*
X32689343Y-55261395D01*
X32689344Y-55261396D01*
X32772775Y-55370125D01*
X32881504Y-55453556D01*
X33008122Y-55506002D01*
X33128191Y-55521809D01*
X33143999Y-55523891D01*
X33144000Y-55523891D01*
X33144001Y-55523891D01*
X33158161Y-55522026D01*
X33279878Y-55506002D01*
X33406496Y-55453556D01*
X33515225Y-55370125D01*
X33598656Y-55261396D01*
X33651102Y-55134778D01*
X33668991Y-54998900D01*
X33651102Y-54863022D01*
X33630913Y-54814283D01*
X33603890Y-54749040D01*
X33596421Y-54679571D01*
X33627697Y-54617092D01*
X33630743Y-54613934D01*
X33719433Y-54525245D01*
X33779905Y-54406562D01*
X33795500Y-54308097D01*
X33795499Y-53691904D01*
X33795499Y-53691903D01*
X33795499Y-53691899D01*
X33792236Y-53671298D01*
X33801191Y-53602005D01*
X33846187Y-53548553D01*
X33912938Y-53527913D01*
X33914709Y-53527900D01*
X50248283Y-53527900D01*
X50315322Y-53547585D01*
X50335964Y-53564219D01*
X50518181Y-53746436D01*
X50551666Y-53807759D01*
X50554500Y-53834117D01*
X50554500Y-54303668D01*
X50557321Y-54333754D01*
X50557323Y-54333763D01*
X50573328Y-54379500D01*
X50601678Y-54460519D01*
X50681426Y-54568574D01*
X50789481Y-54648322D01*
X50916241Y-54692678D01*
X50931288Y-54694089D01*
X50946332Y-54695500D01*
X50946336Y-54695500D01*
X51503668Y-54695500D01*
X51517039Y-54694245D01*
X51533759Y-54692678D01*
X51622422Y-54661652D01*
X51692198Y-54658090D01*
X51751057Y-54691013D01*
X53316508Y-56256464D01*
X53389591Y-56298659D01*
X53471105Y-56320500D01*
X53555494Y-56320500D01*
X68464700Y-56320500D01*
X68531739Y-56340185D01*
X68577494Y-56392989D01*
X68581741Y-56403544D01*
X68601678Y-56460519D01*
X68681426Y-56568574D01*
X68789481Y-56648322D01*
X68916241Y-56692678D01*
X68931288Y-56694089D01*
X68946332Y-56695500D01*
X68946336Y-56695500D01*
X69415883Y-56695500D01*
X69482922Y-56715185D01*
X69503564Y-56731819D01*
X71665495Y-58893750D01*
X71665505Y-58893761D01*
X71669836Y-58898092D01*
X71729508Y-58957764D01*
X71802591Y-58999959D01*
X71884105Y-59021800D01*
X71884108Y-59021800D01*
X79025692Y-59021800D01*
X79025694Y-59021800D01*
X79025695Y-59021800D01*
X79107209Y-58999959D01*
X79180292Y-58957764D01*
X79180297Y-58957758D01*
X79186274Y-58954308D01*
X79254174Y-58937834D01*
X79320202Y-58960685D01*
X79335958Y-58974013D01*
X80077995Y-59716050D01*
X80078005Y-59716061D01*
X80082335Y-59720391D01*
X80082336Y-59720392D01*
X80142008Y-59780064D01*
X80215091Y-59822259D01*
X80228457Y-59825840D01*
X80236928Y-59828110D01*
X80236933Y-59828111D01*
X80296606Y-59844101D01*
X80296607Y-59844101D01*
X80388591Y-59844101D01*
X80388607Y-59844100D01*
X80650883Y-59844100D01*
X80717922Y-59863785D01*
X80763677Y-59916589D01*
X80773621Y-59985747D01*
X80744596Y-60049303D01*
X80738564Y-60055781D01*
X80222864Y-60571481D01*
X80161541Y-60604966D01*
X80135183Y-60607800D01*
X45507803Y-60607800D01*
X45426290Y-60629641D01*
X45353208Y-60671836D01*
X45353205Y-60671838D01*
X45293538Y-60731505D01*
X45293536Y-60731508D01*
X45251341Y-60804590D01*
X45229500Y-60886103D01*
X45229500Y-60912292D01*
X45209815Y-60979331D01*
X45171900Y-61012184D01*
X45174120Y-61015507D01*
X45091028Y-61071027D01*
X45042292Y-61143966D01*
X45042291Y-61143967D01*
X45029500Y-61208276D01*
X45029500Y-62701717D01*
X45029501Y-62701721D01*
X45030271Y-62705592D01*
X45030085Y-62707658D01*
X45030098Y-62707780D01*
X45030074Y-62707782D01*
X45024039Y-62775183D01*
X44981172Y-62830358D01*
X44940747Y-62849549D01*
X44887865Y-62863719D01*
X44887863Y-62863719D01*
X44887863Y-62863720D01*
X44756635Y-62939485D01*
X44756632Y-62939487D01*
X44649487Y-63046632D01*
X44649485Y-63046635D01*
X44573719Y-63177863D01*
X44534500Y-63324234D01*
X44534500Y-63475765D01*
X44573719Y-63622136D01*
X44601426Y-63670125D01*
X44649485Y-63753365D01*
X44756635Y-63860515D01*
X44887865Y-63936281D01*
X45034234Y-63975500D01*
X45034236Y-63975500D01*
X45185764Y-63975500D01*
X45185766Y-63975500D01*
X45332135Y-63936281D01*
X45463365Y-63860515D01*
X45570515Y-63753365D01*
X45646281Y-63622135D01*
X45685500Y-63475766D01*
X45685500Y-63324234D01*
X45646281Y-63177865D01*
X45637712Y-63163023D01*
X45593531Y-63086499D01*
X45577058Y-63018599D01*
X45599910Y-62952572D01*
X45654831Y-62909382D01*
X45700918Y-62900499D01*
X45871717Y-62900499D01*
X45871718Y-62900499D01*
X45936035Y-62887707D01*
X45936035Y-62887706D01*
X45948014Y-62885324D01*
X45948734Y-62888947D01*
X45996984Y-62883747D01*
X46003134Y-62885552D01*
X46013963Y-62887706D01*
X46013965Y-62887707D01*
X46037127Y-62892314D01*
X46099036Y-62924697D01*
X46133612Y-62985412D01*
X46129874Y-63055181D01*
X46127497Y-63061383D01*
X46085399Y-63163018D01*
X46085398Y-63163022D01*
X46067900Y-63295933D01*
X46067509Y-63298900D01*
X46083741Y-63422195D01*
X46085398Y-63434777D01*
X46085399Y-63434781D01*
X46137842Y-63561393D01*
X46137843Y-63561395D01*
X46137844Y-63561396D01*
X46221275Y-63670125D01*
X46330004Y-63753556D01*
X46330005Y-63753556D01*
X46330006Y-63753557D01*
X46372210Y-63771038D01*
X46456622Y-63806002D01*
X46576691Y-63821809D01*
X46592499Y-63823891D01*
X46592500Y-63823891D01*
X46592501Y-63823891D01*
X46606661Y-63822026D01*
X46728378Y-63806002D01*
X46854996Y-63753556D01*
X46963725Y-63670125D01*
X47047156Y-63561396D01*
X47099602Y-63434778D01*
X47117491Y-63298900D01*
X47117100Y-63295933D01*
X47099602Y-63163023D01*
X47079938Y-63115549D01*
X47070500Y-63068098D01*
X47070500Y-63024499D01*
X47090185Y-62957460D01*
X47142989Y-62911705D01*
X47194496Y-62900499D01*
X47421718Y-62900499D01*
X47475813Y-62889740D01*
X47524189Y-62889741D01*
X47549675Y-62894810D01*
X47578281Y-62900500D01*
X47921718Y-62900499D01*
X47975813Y-62889740D01*
X48024189Y-62889741D01*
X48049675Y-62894810D01*
X48078281Y-62900500D01*
X48421718Y-62900499D01*
X48475813Y-62889740D01*
X48524189Y-62889741D01*
X48549675Y-62894810D01*
X48578281Y-62900500D01*
X48921718Y-62900499D01*
X48975813Y-62889740D01*
X49024189Y-62889741D01*
X49049675Y-62894810D01*
X49078281Y-62900500D01*
X49305500Y-62900499D01*
X49372539Y-62920183D01*
X49418294Y-62972987D01*
X49429500Y-63024499D01*
X49429500Y-63565296D01*
X49440141Y-63605008D01*
X49451341Y-63646809D01*
X49493536Y-63719892D01*
X49493538Y-63719894D01*
X49560273Y-63786629D01*
X49560279Y-63786634D01*
X50850195Y-65076550D01*
X50850205Y-65076561D01*
X50854535Y-65080891D01*
X50854536Y-65080892D01*
X50914208Y-65140564D01*
X50914210Y-65140565D01*
X50914214Y-65140568D01*
X50924653Y-65146595D01*
X50924656Y-65146596D01*
X50987292Y-65182760D01*
X51068806Y-65204601D01*
X51068809Y-65204601D01*
X51160791Y-65204601D01*
X51160807Y-65204600D01*
X52463702Y-65204600D01*
X52530741Y-65224285D01*
X52562078Y-65253114D01*
X52563775Y-65255325D01*
X52672504Y-65338756D01*
X52799122Y-65391202D01*
X52919191Y-65407009D01*
X52934999Y-65409091D01*
X52935000Y-65409091D01*
X52935001Y-65409091D01*
X52949161Y-65407226D01*
X53070878Y-65391202D01*
X53197496Y-65338756D01*
X53306225Y-65255325D01*
X53389656Y-65146596D01*
X53442102Y-65019978D01*
X53459991Y-64884100D01*
X53442102Y-64748222D01*
X53389656Y-64621605D01*
X53356047Y-64577805D01*
X53306226Y-64512876D01*
X53197493Y-64429442D01*
X53070881Y-64376999D01*
X53070879Y-64376998D01*
X53070878Y-64376998D01*
X53002939Y-64368053D01*
X52935001Y-64359109D01*
X52934999Y-64359109D01*
X52799122Y-64376998D01*
X52799118Y-64376999D01*
X52672505Y-64429443D01*
X52563771Y-64512877D01*
X52562079Y-64515084D01*
X52560174Y-64516474D01*
X52558023Y-64518626D01*
X52557687Y-64518290D01*
X52505652Y-64556288D01*
X52463702Y-64563600D01*
X51295117Y-64563600D01*
X51228078Y-64543915D01*
X51207436Y-64527281D01*
X50867336Y-64187181D01*
X50833851Y-64125858D01*
X50838835Y-64056166D01*
X50880707Y-64000233D01*
X50946171Y-63975816D01*
X50955017Y-63975500D01*
X50965764Y-63975500D01*
X50965766Y-63975500D01*
X51112135Y-63936281D01*
X51243365Y-63860515D01*
X51350515Y-63753365D01*
X51426281Y-63622135D01*
X51430872Y-63605000D01*
X76904500Y-63605000D01*
X76904500Y-64395000D01*
X76910525Y-64451040D01*
X76910525Y-64451042D01*
X76910526Y-64451043D01*
X76957805Y-64577804D01*
X77038884Y-64686115D01*
X77121846Y-64748218D01*
X77147195Y-64767194D01*
X77273960Y-64814475D01*
X77330000Y-64820500D01*
X77330010Y-64820500D01*
X78669990Y-64820500D01*
X78670000Y-64820500D01*
X78726040Y-64814475D01*
X78852805Y-64767194D01*
X78961115Y-64686115D01*
X79042194Y-64577805D01*
X79089475Y-64451040D01*
X79095500Y-64395000D01*
X79095500Y-63605000D01*
X79089475Y-63548960D01*
X79042194Y-63422195D01*
X79014153Y-63384736D01*
X78961115Y-63313884D01*
X78852804Y-63232805D01*
X78726043Y-63185526D01*
X78726042Y-63185525D01*
X78726040Y-63185525D01*
X78670000Y-63179500D01*
X77330000Y-63179500D01*
X77273960Y-63185525D01*
X77273957Y-63185525D01*
X77273956Y-63185526D01*
X77147195Y-63232805D01*
X77038884Y-63313884D01*
X76957805Y-63422195D01*
X76910526Y-63548956D01*
X76910525Y-63548960D01*
X76904500Y-63605000D01*
X51430872Y-63605000D01*
X51465500Y-63475766D01*
X51465500Y-63324234D01*
X51426281Y-63177865D01*
X51350515Y-63046635D01*
X51243365Y-62939485D01*
X51112135Y-62863719D01*
X51059253Y-62849549D01*
X50999594Y-62813185D01*
X50969065Y-62750338D01*
X50969731Y-62705580D01*
X50970500Y-62701719D01*
X50970499Y-61372799D01*
X50990184Y-61305761D01*
X51042987Y-61260006D01*
X51094499Y-61248800D01*
X80361492Y-61248800D01*
X80361494Y-61248800D01*
X80361495Y-61248800D01*
X80443009Y-61226959D01*
X80516092Y-61184764D01*
X80575764Y-61125092D01*
X80575764Y-61125090D01*
X80585968Y-61114887D01*
X80585972Y-61114882D01*
X83961782Y-57739072D01*
X83961787Y-57739068D01*
X83971990Y-57728864D01*
X83971992Y-57728864D01*
X84031664Y-57669192D01*
X84060065Y-57620000D01*
X84073860Y-57596108D01*
X84095701Y-57514594D01*
X84095701Y-57430205D01*
X84095701Y-57422610D01*
X84095700Y-57422592D01*
X84095700Y-19537808D01*
X84095700Y-19537805D01*
X84073859Y-19456291D01*
X84031664Y-19383208D01*
X83971992Y-19323536D01*
X83967661Y-19319205D01*
X83967650Y-19319195D01*
X83728734Y-19080279D01*
X83728731Y-19080275D01*
X83683414Y-19034957D01*
X83649929Y-18973634D01*
X83654915Y-18903942D01*
X83659697Y-18892813D01*
X83659831Y-18892539D01*
X83660007Y-18892179D01*
X83670500Y-18820161D01*
X83670499Y-18449840D01*
X83660007Y-18377821D01*
X83605700Y-18266734D01*
X83605698Y-18266732D01*
X83605698Y-18266731D01*
X83518268Y-18179301D01*
X83407177Y-18124992D01*
X83391466Y-18122703D01*
X83327966Y-18093557D01*
X83290303Y-18034707D01*
X83290437Y-17964837D01*
X83328323Y-17906131D01*
X83391472Y-17877295D01*
X83407179Y-17875007D01*
X83518266Y-17820700D01*
X83605700Y-17733266D01*
X83660007Y-17622179D01*
X83670500Y-17550161D01*
X83670499Y-17179840D01*
X83660007Y-17107821D01*
X83660004Y-17107815D01*
X83659801Y-17107157D01*
X83659789Y-17106331D01*
X83658618Y-17098291D01*
X83659673Y-17098137D01*
X83658813Y-17037295D01*
X83690587Y-16982866D01*
X84035664Y-16637792D01*
X84077859Y-16564709D01*
X84099700Y-16483195D01*
X84099700Y-16398806D01*
X84099700Y-15691705D01*
X84077859Y-15610191D01*
X84035664Y-15537108D01*
X83975992Y-15477436D01*
X83975991Y-15477435D01*
X81510833Y-13012278D01*
X81510832Y-13012276D01*
X81444094Y-12945538D01*
X81444092Y-12945536D01*
X81371009Y-12903341D01*
X81289496Y-12881500D01*
X81289495Y-12881500D01*
X72052694Y-12881500D01*
X71968305Y-12881500D01*
X71968303Y-12881500D01*
X71886790Y-12903341D01*
X71813708Y-12945536D01*
X71813705Y-12945538D01*
X71491062Y-13268181D01*
X71429739Y-13301666D01*
X71403381Y-13304500D01*
X70940847Y-13304500D01*
X70911170Y-13307282D01*
X70911167Y-13307282D01*
X70911166Y-13307283D01*
X70786184Y-13351016D01*
X70786183Y-13351016D01*
X70786182Y-13351017D01*
X70679645Y-13429645D01*
X70601015Y-13536185D01*
X70557283Y-13661164D01*
X70557282Y-13661167D01*
X70554500Y-13690840D01*
X70554500Y-14309152D01*
X70557282Y-14338829D01*
X70557282Y-14338831D01*
X70557283Y-14338834D01*
X70601016Y-14463816D01*
X70679645Y-14570355D01*
X70786184Y-14648984D01*
X70911166Y-14692717D01*
X70940845Y-14695500D01*
X71484154Y-14695499D01*
X71513834Y-14692717D01*
X71638816Y-14648984D01*
X71745355Y-14570355D01*
X71823984Y-14463816D01*
X71867717Y-14338834D01*
X71870500Y-14309155D01*
X71870499Y-13846617D01*
X71890183Y-13779579D01*
X71906814Y-13758941D01*
X71917817Y-13747937D01*
X71979136Y-13714451D01*
X72048828Y-13719432D01*
X72104764Y-13761301D01*
X72129184Y-13826764D01*
X72129500Y-13835616D01*
X72129500Y-14309152D01*
X72132282Y-14338829D01*
X72132282Y-14338831D01*
X72132283Y-14338834D01*
X72176016Y-14463816D01*
X72254645Y-14570355D01*
X72361184Y-14648984D01*
X72486166Y-14692717D01*
X72515845Y-14695500D01*
X73059154Y-14695499D01*
X73088834Y-14692717D01*
X73213816Y-14648984D01*
X73320355Y-14570355D01*
X73398984Y-14463816D01*
X73420074Y-14403545D01*
X73460795Y-14346769D01*
X73525748Y-14321022D01*
X73537115Y-14320500D01*
X77980383Y-14320500D01*
X78047422Y-14340185D01*
X78068064Y-14356819D01*
X80811081Y-17099836D01*
X80844566Y-17161159D01*
X80847400Y-17187517D01*
X80847400Y-18825500D01*
X80827715Y-18892539D01*
X80774911Y-18938294D01*
X80723400Y-18949500D01*
X78209807Y-18949500D01*
X78209791Y-18949499D01*
X78202195Y-18949499D01*
X78117806Y-18949499D01*
X78117804Y-18949499D01*
X78036293Y-18971338D01*
X78036291Y-18971339D01*
X78005406Y-18989170D01*
X78005407Y-18989171D01*
X77963207Y-19013536D01*
X77941787Y-19034957D01*
X77903536Y-19073208D01*
X77903534Y-19073210D01*
X77628562Y-19348181D01*
X77567239Y-19381666D01*
X77540881Y-19384500D01*
X76664840Y-19384500D01*
X76592820Y-19394993D01*
X76481731Y-19449301D01*
X76394301Y-19536731D01*
X76339992Y-19647822D01*
X76329500Y-19719838D01*
X76329500Y-20090154D01*
X76329501Y-20090160D01*
X76339993Y-20162179D01*
X76371662Y-20226959D01*
X76394301Y-20273268D01*
X76481731Y-20360698D01*
X76481732Y-20360698D01*
X76481734Y-20360700D01*
X76592821Y-20415007D01*
X76664839Y-20425500D01*
X78385160Y-20425499D01*
X78457179Y-20415007D01*
X78568266Y-20360700D01*
X78655700Y-20273266D01*
X78710007Y-20162179D01*
X78720500Y-20090161D01*
X78720499Y-19719840D01*
X78720499Y-19719838D01*
X78720499Y-19715353D01*
X78722523Y-19715353D01*
X78735536Y-19655199D01*
X78784884Y-19605737D01*
X78844437Y-19590500D01*
X81125705Y-19590500D01*
X81155562Y-19590500D01*
X81222601Y-19610185D01*
X81268356Y-19662989D01*
X81277770Y-19715352D01*
X81279500Y-19715352D01*
X81279500Y-20090154D01*
X81279501Y-20090160D01*
X81289993Y-20162179D01*
X81321662Y-20226959D01*
X81344301Y-20273268D01*
X81411207Y-20340174D01*
X81444692Y-20401497D01*
X81439708Y-20471189D01*
X81411207Y-20515536D01*
X77503210Y-24423534D01*
X77443538Y-24483205D01*
X77443536Y-24483208D01*
X77401341Y-24556290D01*
X77379500Y-24637803D01*
X77379500Y-25508441D01*
X77359815Y-25575480D01*
X77307011Y-25621235D01*
X77271684Y-25631380D01*
X77169551Y-25644825D01*
X77169539Y-25644828D01*
X77024681Y-25704829D01*
X77024678Y-25704831D01*
X76900284Y-25800284D01*
X76804831Y-25924678D01*
X76804829Y-25924681D01*
X76744828Y-26069539D01*
X76744826Y-26069544D01*
X76729500Y-26185964D01*
X76729500Y-26405500D01*
X76709815Y-26472539D01*
X76657011Y-26518294D01*
X76605500Y-26529500D01*
X75893301Y-26529500D01*
X75845849Y-26520061D01*
X75747681Y-26479399D01*
X75747679Y-26479398D01*
X75747678Y-26479398D01*
X75675185Y-26469854D01*
X75611801Y-26461509D01*
X75611798Y-26461509D01*
X75609024Y-26461874D01*
X75606685Y-26461509D01*
X75603674Y-26461509D01*
X75603674Y-26461039D01*
X75539990Y-26451102D01*
X75505169Y-26426614D01*
X71827234Y-22748679D01*
X71827232Y-22748676D01*
X71760494Y-22681938D01*
X71760492Y-22681936D01*
X71687409Y-22639741D01*
X71667681Y-22634455D01*
X71605896Y-22617900D01*
X71605895Y-22617900D01*
X70069405Y-22617900D01*
X70069403Y-22617900D01*
X69987890Y-22639741D01*
X69914808Y-22681936D01*
X69914805Y-22681938D01*
X69855134Y-22741610D01*
X69555846Y-23040897D01*
X69494523Y-23074382D01*
X69424834Y-23069399D01*
X69401043Y-23060526D01*
X69401044Y-23060526D01*
X69401042Y-23060525D01*
X69401040Y-23060525D01*
X69345000Y-23054500D01*
X68755000Y-23054500D01*
X68698960Y-23060525D01*
X68698957Y-23060525D01*
X68698956Y-23060526D01*
X68572195Y-23107805D01*
X68463884Y-23188884D01*
X68382805Y-23297195D01*
X68335526Y-23423956D01*
X68335525Y-23423960D01*
X68329500Y-23480000D01*
X68329500Y-24520000D01*
X68335525Y-24576040D01*
X68335525Y-24576042D01*
X68335526Y-24576043D01*
X68382805Y-24702804D01*
X68463884Y-24811115D01*
X68572195Y-24892194D01*
X68698960Y-24939475D01*
X68755000Y-24945500D01*
X68755010Y-24945500D01*
X69344990Y-24945500D01*
X69345000Y-24945500D01*
X69401040Y-24939475D01*
X69527805Y-24892194D01*
X69636115Y-24811115D01*
X69717194Y-24702805D01*
X69764475Y-24576040D01*
X69770500Y-24520000D01*
X69770500Y-23784117D01*
X69790185Y-23717078D01*
X69806819Y-23696436D01*
X70208036Y-23295219D01*
X70269359Y-23261734D01*
X70295717Y-23258900D01*
X71379583Y-23258900D01*
X71446622Y-23278585D01*
X71467264Y-23295219D01*
X75051914Y-26879869D01*
X75085399Y-26941192D01*
X75087174Y-26983724D01*
X75086809Y-26986498D01*
X75086809Y-26986500D01*
X75104698Y-27122377D01*
X75104699Y-27122381D01*
X75157142Y-27248993D01*
X75157143Y-27248995D01*
X75157144Y-27248996D01*
X75240575Y-27357725D01*
X75349304Y-27441156D01*
X75475922Y-27493602D01*
X75595991Y-27509409D01*
X75611799Y-27511491D01*
X75611800Y-27511491D01*
X75611801Y-27511491D01*
X75625961Y-27509626D01*
X75747678Y-27493602D01*
X75874296Y-27441156D01*
X75983025Y-27357725D01*
X76066456Y-27248996D01*
X76067262Y-27247049D01*
X76068382Y-27245660D01*
X76070520Y-27241957D01*
X76071097Y-27242290D01*
X76111102Y-27192645D01*
X76177396Y-27170579D01*
X76181824Y-27170500D01*
X76605501Y-27170500D01*
X76672540Y-27190185D01*
X76718295Y-27242989D01*
X76729501Y-27294500D01*
X76729501Y-27514037D01*
X76744824Y-27630448D01*
X76744828Y-27630460D01*
X76804829Y-27775318D01*
X76804831Y-27775321D01*
X76852557Y-27837518D01*
X76900284Y-27899716D01*
X76981340Y-27961913D01*
X77024678Y-27995168D01*
X77024681Y-27995170D01*
X77116028Y-28033006D01*
X77169543Y-28055173D01*
X77285965Y-28070500D01*
X78114034Y-28070499D01*
X78114037Y-28070499D01*
X78230448Y-28055175D01*
X78230452Y-28055173D01*
X78230457Y-28055173D01*
X78375320Y-27995169D01*
X78499716Y-27899716D01*
X78595169Y-27775320D01*
X78655173Y-27630457D01*
X78670500Y-27514035D01*
X78670499Y-26185966D01*
X78670499Y-26185964D01*
X78670499Y-26185962D01*
X78655175Y-26069551D01*
X78655173Y-26069544D01*
X78655173Y-26069543D01*
X78633006Y-26016028D01*
X78595170Y-25924681D01*
X78595168Y-25924678D01*
X78561913Y-25881340D01*
X78499716Y-25800284D01*
X78437518Y-25752557D01*
X78375321Y-25704831D01*
X78375318Y-25704829D01*
X78230460Y-25644828D01*
X78230458Y-25644827D01*
X78230457Y-25644827D01*
X78205984Y-25641605D01*
X78128314Y-25631379D01*
X78064417Y-25603112D01*
X78025947Y-25544787D01*
X78020500Y-25508440D01*
X78020500Y-24864116D01*
X78040185Y-24797077D01*
X78056814Y-24776440D01*
X82371436Y-20461817D01*
X82432759Y-20428333D01*
X82459117Y-20425499D01*
X83330700Y-20425499D01*
X83397739Y-20445184D01*
X83443494Y-20497988D01*
X83454700Y-20549499D01*
X83454700Y-57288283D01*
X83435015Y-57355322D01*
X83418381Y-57375964D01*
X82482181Y-58312164D01*
X82420858Y-58345649D01*
X82351166Y-58340665D01*
X82295233Y-58298793D01*
X82270816Y-58233329D01*
X82270500Y-58224483D01*
X82270500Y-57739156D01*
X82290185Y-57672117D01*
X82342989Y-57626362D01*
X82361950Y-57619504D01*
X82368819Y-57617634D01*
X82368827Y-57617634D01*
X82469739Y-57573076D01*
X82487710Y-57566744D01*
X82555209Y-57548659D01*
X82628292Y-57506464D01*
X82687964Y-57446792D01*
X82687965Y-57446790D01*
X82937464Y-57197292D01*
X82979659Y-57124209D01*
X83001500Y-57042695D01*
X83001500Y-56958306D01*
X83001500Y-39143597D01*
X83001501Y-39143584D01*
X83001501Y-39049209D01*
X83001501Y-39049206D01*
X82979660Y-38967692D01*
X82961826Y-38936804D01*
X82937464Y-38894608D01*
X82877792Y-38834936D01*
X82877791Y-38834935D01*
X82873461Y-38830605D01*
X82873450Y-38830595D01*
X78910736Y-34867881D01*
X78877251Y-34806558D01*
X78882235Y-34736866D01*
X78910736Y-34692519D01*
X79196436Y-34406819D01*
X79257759Y-34373334D01*
X79284117Y-34370500D01*
X81448007Y-34370500D01*
X81448012Y-34370500D01*
X81546690Y-34360419D01*
X81706569Y-34307440D01*
X81849922Y-34219019D01*
X81969019Y-34099922D01*
X82057440Y-33956569D01*
X82110419Y-33796690D01*
X82120500Y-33698012D01*
X82120500Y-32601988D01*
X82110419Y-32503310D01*
X82057440Y-32343431D01*
X81969019Y-32200078D01*
X81849922Y-32080981D01*
X81706569Y-31992560D01*
X81706568Y-31992559D01*
X81706567Y-31992559D01*
X81652646Y-31974691D01*
X81546690Y-31939581D01*
X81546688Y-31939580D01*
X81448019Y-31929500D01*
X81448012Y-31929500D01*
X80444500Y-31929500D01*
X80377461Y-31909815D01*
X80331706Y-31857011D01*
X80320500Y-31805500D01*
X80320500Y-28191558D01*
X80340185Y-28124519D01*
X80392989Y-28078764D01*
X80428317Y-28068619D01*
X80484224Y-28061259D01*
X80530457Y-28055173D01*
X80675320Y-27995169D01*
X80799716Y-27899716D01*
X80895169Y-27775320D01*
X80955173Y-27630457D01*
X80970500Y-27514035D01*
X80970499Y-26185966D01*
X80970499Y-26185964D01*
X80970499Y-26185962D01*
X80955175Y-26069551D01*
X80955173Y-26069544D01*
X80955173Y-26069543D01*
X80933006Y-26016028D01*
X80895170Y-25924681D01*
X80895168Y-25924678D01*
X80861913Y-25881340D01*
X80799716Y-25800284D01*
X80737518Y-25752557D01*
X80675321Y-25704831D01*
X80675318Y-25704829D01*
X80530460Y-25644828D01*
X80530455Y-25644826D01*
X80414035Y-25629500D01*
X79585962Y-25629500D01*
X79469551Y-25644824D01*
X79469539Y-25644828D01*
X79324681Y-25704829D01*
X79324678Y-25704831D01*
X79200284Y-25800284D01*
X79104831Y-25924678D01*
X79104829Y-25924681D01*
X79044828Y-26069539D01*
X79044826Y-26069544D01*
X79029500Y-26185964D01*
X79029500Y-27514037D01*
X79044824Y-27630448D01*
X79044828Y-27630460D01*
X79104829Y-27775318D01*
X79104831Y-27775321D01*
X79152557Y-27837518D01*
X79200284Y-27899716D01*
X79281340Y-27961913D01*
X79324678Y-27995168D01*
X79324681Y-27995170D01*
X79416028Y-28033006D01*
X79469543Y-28055173D01*
X79571677Y-28068619D01*
X79571685Y-28068620D01*
X79635582Y-28096886D01*
X79674053Y-28155211D01*
X79679500Y-28191559D01*
X79679500Y-31805500D01*
X79659815Y-31872539D01*
X79607011Y-31918294D01*
X79555500Y-31929500D01*
X78551980Y-31929500D01*
X78453311Y-31939580D01*
X78453310Y-31939581D01*
X78400332Y-31957136D01*
X78293432Y-31992559D01*
X78150076Y-32080982D01*
X78030982Y-32200076D01*
X77942559Y-32343432D01*
X77921640Y-32406562D01*
X77889581Y-32503310D01*
X77889581Y-32503311D01*
X77889580Y-32503311D01*
X77879500Y-32601980D01*
X77879500Y-33698019D01*
X77889580Y-33796688D01*
X77901635Y-33833065D01*
X77942560Y-33956569D01*
X78030981Y-34099922D01*
X78150078Y-34219019D01*
X78168144Y-34230162D01*
X78214867Y-34282109D01*
X78226090Y-34351071D01*
X78198246Y-34415154D01*
X78140178Y-34454010D01*
X78103046Y-34459700D01*
X70189318Y-34459700D01*
X70122279Y-34440015D01*
X70101637Y-34423381D01*
X69931819Y-34253563D01*
X69898334Y-34192240D01*
X69895500Y-34165882D01*
X69895500Y-33696331D01*
X69892678Y-33666245D01*
X69892678Y-33666241D01*
X69848322Y-33539481D01*
X69768574Y-33431426D01*
X69688825Y-33372568D01*
X69660518Y-33351677D01*
X69628544Y-33340489D01*
X69571768Y-33299766D01*
X69546022Y-33234813D01*
X69545500Y-33223448D01*
X69545500Y-30941017D01*
X69565185Y-30873978D01*
X69595189Y-30841750D01*
X69636115Y-30811115D01*
X69717194Y-30702805D01*
X69764475Y-30576040D01*
X69770500Y-30520000D01*
X69770500Y-29480000D01*
X69764475Y-29423960D01*
X69717194Y-29297195D01*
X69680574Y-29248276D01*
X69636115Y-29188884D01*
X69527804Y-29107805D01*
X69401043Y-29060526D01*
X69401042Y-29060525D01*
X69401040Y-29060525D01*
X69345000Y-29054500D01*
X68755000Y-29054500D01*
X68698960Y-29060525D01*
X68698957Y-29060525D01*
X68698956Y-29060526D01*
X68572195Y-29107805D01*
X68463884Y-29188884D01*
X68382805Y-29297195D01*
X68335526Y-29423956D01*
X68335525Y-29423960D01*
X68329500Y-29480000D01*
X68329500Y-30520000D01*
X68335525Y-30576040D01*
X68335525Y-30576042D01*
X68335526Y-30576043D01*
X68382805Y-30702804D01*
X68463884Y-30811115D01*
X68504806Y-30841748D01*
X68572195Y-30892194D01*
X68698960Y-30939475D01*
X68755000Y-30945500D01*
X68780500Y-30945500D01*
X68847539Y-30965185D01*
X68893294Y-31017989D01*
X68904500Y-31069500D01*
X68904500Y-33223448D01*
X68884815Y-33290487D01*
X68832011Y-33336242D01*
X68821456Y-33340489D01*
X68789481Y-33351677D01*
X68681426Y-33431426D01*
X68601678Y-33539481D01*
X68557323Y-33666236D01*
X68557321Y-33666245D01*
X68554500Y-33696331D01*
X68554500Y-34303668D01*
X68557321Y-34333754D01*
X68557323Y-34333763D01*
X68568222Y-34364910D01*
X68601678Y-34460519D01*
X68681426Y-34568574D01*
X68789481Y-34648322D01*
X68916241Y-34692678D01*
X68931288Y-34694089D01*
X68946332Y-34695500D01*
X68946336Y-34695500D01*
X69415882Y-34695500D01*
X69482921Y-34715185D01*
X69503563Y-34731819D01*
X69808408Y-35036664D01*
X69881491Y-35078859D01*
X69963005Y-35100700D01*
X70047394Y-35100700D01*
X78185683Y-35100700D01*
X78252722Y-35120385D01*
X78273364Y-35137019D01*
X82324181Y-39187836D01*
X82357666Y-39249159D01*
X82360500Y-39275517D01*
X82360500Y-54755500D01*
X82340815Y-54822539D01*
X82288011Y-54868294D01*
X82236500Y-54879500D01*
X81557388Y-54879500D01*
X81490349Y-54859815D01*
X81483569Y-54851990D01*
X81461324Y-54900701D01*
X81437688Y-54921799D01*
X81430106Y-54926992D01*
X81351990Y-55005108D01*
X81307366Y-55106170D01*
X81307366Y-55106172D01*
X81304500Y-55130873D01*
X81304500Y-55369114D01*
X81304502Y-55369138D01*
X81307364Y-55393821D01*
X81307367Y-55393831D01*
X81332130Y-55449913D01*
X81341202Y-55519191D01*
X81332131Y-55550084D01*
X81307366Y-55606170D01*
X81307366Y-55606172D01*
X81304500Y-55630873D01*
X81304500Y-55869114D01*
X81304502Y-55869138D01*
X81307364Y-55893821D01*
X81307367Y-55893831D01*
X81332130Y-55949913D01*
X81341202Y-56019191D01*
X81332131Y-56050084D01*
X81307366Y-56106170D01*
X81307366Y-56106172D01*
X81304500Y-56130873D01*
X81304500Y-56369114D01*
X81304502Y-56369138D01*
X81307364Y-56393821D01*
X81307367Y-56393831D01*
X81332130Y-56449913D01*
X81341202Y-56519191D01*
X81332131Y-56550084D01*
X81307366Y-56606170D01*
X81307366Y-56606172D01*
X81304500Y-56630873D01*
X81304500Y-56869114D01*
X81304502Y-56869138D01*
X81307364Y-56893821D01*
X81307367Y-56893831D01*
X81332130Y-56949913D01*
X81341202Y-57019191D01*
X81332131Y-57050084D01*
X81307366Y-57106170D01*
X81307366Y-57106172D01*
X81304500Y-57130873D01*
X81304500Y-57180500D01*
X81284815Y-57247539D01*
X81232011Y-57293294D01*
X81180502Y-57304500D01*
X81130874Y-57304500D01*
X81106178Y-57307364D01*
X81106171Y-57307366D01*
X81050085Y-57332131D01*
X80980807Y-57341202D01*
X80949913Y-57332130D01*
X80888428Y-57304981D01*
X80835052Y-57259894D01*
X80814525Y-57193108D01*
X80833364Y-57125826D01*
X80840124Y-57116081D01*
X80881856Y-57061696D01*
X80934302Y-56935078D01*
X80952191Y-56799200D01*
X80934302Y-56663322D01*
X80881856Y-56536705D01*
X80817624Y-56452996D01*
X80798426Y-56427976D01*
X80766586Y-56403544D01*
X80689696Y-56344544D01*
X80689695Y-56344543D01*
X80689693Y-56344542D01*
X80563081Y-56292099D01*
X80563079Y-56292098D01*
X80563078Y-56292098D01*
X80456337Y-56278045D01*
X80427201Y-56274209D01*
X80427199Y-56274209D01*
X80291322Y-56292098D01*
X80291318Y-56292099D01*
X80164705Y-56344543D01*
X80055975Y-56427975D01*
X79972543Y-56536705D01*
X79920099Y-56663318D01*
X79920098Y-56663322D01*
X79902209Y-56799199D01*
X79902209Y-56799200D01*
X79920098Y-56935078D01*
X79922202Y-56942930D01*
X79921668Y-56943072D01*
X79929500Y-56982441D01*
X79929500Y-57398267D01*
X79918934Y-57448353D01*
X79882367Y-57531168D01*
X79882366Y-57531172D01*
X79879500Y-57555873D01*
X79879500Y-58311683D01*
X79859815Y-58378722D01*
X79807011Y-58424477D01*
X79737853Y-58434421D01*
X79674297Y-58405396D01*
X79667819Y-58399364D01*
X79656818Y-58388363D01*
X79623333Y-58327040D01*
X79620499Y-58300690D01*
X79620499Y-57555878D01*
X79619662Y-57548659D01*
X79617635Y-57531178D01*
X79617634Y-57531175D01*
X79617634Y-57531173D01*
X79615311Y-57525913D01*
X79573010Y-57430109D01*
X79494891Y-57351990D01*
X79393828Y-57307366D01*
X79369123Y-57304500D01*
X79130885Y-57304500D01*
X79130861Y-57304502D01*
X79106178Y-57307364D01*
X79106171Y-57307366D01*
X79050085Y-57332131D01*
X78980807Y-57341202D01*
X78949914Y-57332130D01*
X78893832Y-57307367D01*
X78893827Y-57307366D01*
X78869126Y-57304500D01*
X78869123Y-57304500D01*
X78819499Y-57304500D01*
X78752460Y-57284815D01*
X78706705Y-57232011D01*
X78695499Y-57180500D01*
X78695499Y-57130885D01*
X78695499Y-57130878D01*
X78694726Y-57124209D01*
X78692635Y-57106178D01*
X78692633Y-57106172D01*
X78667868Y-57050084D01*
X78658797Y-56980809D01*
X78667866Y-56949919D01*
X78692634Y-56893827D01*
X78695500Y-56869123D01*
X78695499Y-56630878D01*
X78692799Y-56607592D01*
X78692635Y-56606178D01*
X78692633Y-56606172D01*
X78667868Y-56550084D01*
X78658797Y-56480809D01*
X78667866Y-56449919D01*
X78692634Y-56393827D01*
X78695500Y-56369123D01*
X78695499Y-56130878D01*
X78692634Y-56106173D01*
X78667868Y-56050084D01*
X78658797Y-55980809D01*
X78667866Y-55949919D01*
X78692634Y-55893827D01*
X78695500Y-55869123D01*
X78695499Y-55630878D01*
X78692634Y-55606173D01*
X78667868Y-55550084D01*
X78658797Y-55480809D01*
X78667866Y-55449919D01*
X78692634Y-55393827D01*
X78695500Y-55369123D01*
X78695499Y-55130878D01*
X78692634Y-55106173D01*
X78667868Y-55050084D01*
X78658797Y-54980809D01*
X78667866Y-54949919D01*
X78692634Y-54893827D01*
X78695500Y-54869123D01*
X78695500Y-54819499D01*
X78715185Y-54752460D01*
X78767989Y-54706705D01*
X78819500Y-54695499D01*
X78869114Y-54695499D01*
X78869122Y-54695499D01*
X78877831Y-54694489D01*
X78893821Y-54692635D01*
X78893823Y-54692634D01*
X78893827Y-54692634D01*
X78949916Y-54667868D01*
X79019190Y-54658797D01*
X79050084Y-54667868D01*
X79106173Y-54692634D01*
X79130877Y-54695500D01*
X79369122Y-54695499D01*
X79377831Y-54694489D01*
X79393821Y-54692635D01*
X79393823Y-54692634D01*
X79393827Y-54692634D01*
X79449916Y-54667868D01*
X79519190Y-54658797D01*
X79550084Y-54667868D01*
X79606173Y-54692634D01*
X79630877Y-54695500D01*
X79869122Y-54695499D01*
X79877831Y-54694489D01*
X79893821Y-54692635D01*
X79893823Y-54692634D01*
X79893827Y-54692634D01*
X79949916Y-54667868D01*
X80019190Y-54658797D01*
X80050084Y-54667868D01*
X80106173Y-54692634D01*
X80130877Y-54695500D01*
X80369122Y-54695499D01*
X80377831Y-54694489D01*
X80393821Y-54692635D01*
X80393823Y-54692634D01*
X80393827Y-54692634D01*
X80449916Y-54667868D01*
X80519190Y-54658797D01*
X80550084Y-54667868D01*
X80606173Y-54692634D01*
X80630877Y-54695500D01*
X80869122Y-54695499D01*
X80877831Y-54694489D01*
X80893821Y-54692635D01*
X80893823Y-54692634D01*
X80893827Y-54692634D01*
X80949916Y-54667868D01*
X81019190Y-54658797D01*
X81050084Y-54667868D01*
X81106173Y-54692634D01*
X81130877Y-54695500D01*
X81367610Y-54695499D01*
X81434650Y-54715183D01*
X81441429Y-54723007D01*
X81463675Y-54674297D01*
X81487318Y-54653196D01*
X81494884Y-54648012D01*
X81494891Y-54648010D01*
X81573010Y-54569891D01*
X81617634Y-54468827D01*
X81620500Y-54444123D01*
X81620499Y-53655878D01*
X81618410Y-53637863D01*
X81617635Y-53631178D01*
X81617634Y-53631175D01*
X81617634Y-53631173D01*
X81614458Y-53623981D01*
X81573010Y-53530109D01*
X81494891Y-53451990D01*
X81393828Y-53407366D01*
X81369123Y-53404500D01*
X81130885Y-53404500D01*
X81130861Y-53404502D01*
X81106178Y-53407364D01*
X81106171Y-53407366D01*
X81050085Y-53432131D01*
X80980807Y-53441202D01*
X80949914Y-53432130D01*
X80893832Y-53407367D01*
X80893827Y-53407366D01*
X80869123Y-53404500D01*
X80630885Y-53404500D01*
X80630861Y-53404502D01*
X80606178Y-53407364D01*
X80606171Y-53407366D01*
X80550085Y-53432131D01*
X80480807Y-53441202D01*
X80449914Y-53432130D01*
X80393832Y-53407367D01*
X80393827Y-53407366D01*
X80369123Y-53404500D01*
X80130885Y-53404500D01*
X80130861Y-53404502D01*
X80106178Y-53407364D01*
X80106171Y-53407366D01*
X80050085Y-53432131D01*
X79980807Y-53441202D01*
X79949914Y-53432130D01*
X79893832Y-53407367D01*
X79893827Y-53407366D01*
X79869126Y-53404500D01*
X79694500Y-53404500D01*
X79627461Y-53384815D01*
X79581706Y-53332011D01*
X79570500Y-53280500D01*
X79570500Y-46886808D01*
X79570500Y-46886805D01*
X79548659Y-46805291D01*
X79506464Y-46732208D01*
X79446792Y-46672536D01*
X79442461Y-46668205D01*
X79442450Y-46668195D01*
X59937719Y-27163464D01*
X59904234Y-27102141D01*
X59901400Y-27075783D01*
X59901400Y-20121397D01*
X59901401Y-20121384D01*
X59901401Y-20027007D01*
X59879559Y-19945492D01*
X59879559Y-19945491D01*
X59837366Y-19872411D01*
X59837365Y-19872410D01*
X59837364Y-19872408D01*
X59777692Y-19812736D01*
X59777691Y-19812735D01*
X59773361Y-19808405D01*
X59773350Y-19808395D01*
X58065234Y-18100279D01*
X58065232Y-18100276D01*
X57998494Y-18033538D01*
X57998492Y-18033536D01*
X57925409Y-17991341D01*
X57882900Y-17979951D01*
X57843896Y-17969500D01*
X57835834Y-17968439D01*
X57836022Y-17967010D01*
X57777460Y-17949815D01*
X57731705Y-17897011D01*
X57720499Y-17845500D01*
X57720499Y-17818282D01*
X57712147Y-17776291D01*
X57707707Y-17753965D01*
X57707705Y-17753963D01*
X57707705Y-17753961D01*
X57687612Y-17723890D01*
X57666734Y-17657213D01*
X57685218Y-17589832D01*
X57687573Y-17586166D01*
X57707707Y-17556035D01*
X57708876Y-17550161D01*
X57720499Y-17491723D01*
X57720500Y-17491719D01*
X57720499Y-16548282D01*
X57707707Y-16483965D01*
X57707705Y-16483963D01*
X57707705Y-16483961D01*
X57658972Y-16411028D01*
X57647165Y-16403139D01*
X57586035Y-16362293D01*
X57586034Y-16362292D01*
X57586033Y-16362292D01*
X57586032Y-16362291D01*
X57521721Y-16349500D01*
X55978282Y-16349500D01*
X55913964Y-16362293D01*
X55913961Y-16362294D01*
X55841028Y-16411027D01*
X55792292Y-16483966D01*
X55792291Y-16483967D01*
X55779500Y-16548276D01*
X55779500Y-17491717D01*
X55792293Y-17556035D01*
X55792295Y-17556041D01*
X55812387Y-17586110D01*
X55833265Y-17652787D01*
X55814780Y-17720167D01*
X55812389Y-17723889D01*
X55792291Y-17753967D01*
X55779500Y-17818276D01*
X55779500Y-18761717D01*
X55792293Y-18826035D01*
X55792295Y-18826041D01*
X55812387Y-18856110D01*
X55833265Y-18922787D01*
X55814780Y-18990167D01*
X55812389Y-18993889D01*
X55792291Y-19023967D01*
X55779500Y-19088276D01*
X55779500Y-20031717D01*
X55792293Y-20096035D01*
X55792295Y-20096041D01*
X55812387Y-20126110D01*
X55833265Y-20192787D01*
X55814780Y-20260167D01*
X55812389Y-20263889D01*
X55792291Y-20293967D01*
X55779500Y-20358276D01*
X55779500Y-21301717D01*
X55792293Y-21366035D01*
X55792295Y-21366041D01*
X55812387Y-21396110D01*
X55833265Y-21462787D01*
X55814780Y-21530167D01*
X55812389Y-21533889D01*
X55792291Y-21563967D01*
X55779500Y-21628276D01*
X55779500Y-22571717D01*
X55792293Y-22636035D01*
X55792295Y-22636041D01*
X55812387Y-22666110D01*
X55833265Y-22732787D01*
X55814780Y-22800167D01*
X55812389Y-22803889D01*
X55792291Y-22833967D01*
X55779500Y-22898276D01*
X55779500Y-23841717D01*
X55792293Y-23906035D01*
X55792295Y-23906041D01*
X55812387Y-23936110D01*
X55833265Y-24002787D01*
X55814780Y-24070167D01*
X55812389Y-24073889D01*
X55792291Y-24103967D01*
X55779500Y-24168276D01*
X55779500Y-25111717D01*
X55792293Y-25176035D01*
X55792295Y-25176041D01*
X55812387Y-25206110D01*
X55833265Y-25272787D01*
X55814780Y-25340167D01*
X55812389Y-25343889D01*
X55792291Y-25373967D01*
X55779500Y-25438276D01*
X55779500Y-26381717D01*
X55792293Y-26446035D01*
X55792295Y-26446041D01*
X55812387Y-26476110D01*
X55833265Y-26542787D01*
X55814780Y-26610167D01*
X55812389Y-26613889D01*
X55792291Y-26643967D01*
X55779500Y-26708276D01*
X55779500Y-27651717D01*
X55792293Y-27716035D01*
X55792295Y-27716041D01*
X55812387Y-27746110D01*
X55833265Y-27812787D01*
X55814780Y-27880167D01*
X55812389Y-27883889D01*
X55792291Y-27913967D01*
X55779500Y-27978276D01*
X55779500Y-28921717D01*
X55792293Y-28986035D01*
X55792295Y-28986041D01*
X55812387Y-29016110D01*
X55833265Y-29082787D01*
X55814780Y-29150167D01*
X55812389Y-29153889D01*
X55792291Y-29183967D01*
X55779500Y-29248276D01*
X55779500Y-30191717D01*
X55792293Y-30256035D01*
X55792295Y-30256041D01*
X55812387Y-30286110D01*
X55833265Y-30352787D01*
X55814780Y-30420167D01*
X55812389Y-30423889D01*
X55792291Y-30453967D01*
X55779500Y-30518276D01*
X55779500Y-31461717D01*
X55792293Y-31526035D01*
X55792295Y-31526041D01*
X55812387Y-31556110D01*
X55833265Y-31622787D01*
X55814780Y-31690167D01*
X55812389Y-31693889D01*
X55792291Y-31723967D01*
X55779500Y-31788276D01*
X55779500Y-31815500D01*
X55759815Y-31882539D01*
X55707011Y-31928294D01*
X55664060Y-31937637D01*
X55664166Y-31938439D01*
X55656103Y-31939500D01*
X55574590Y-31961341D01*
X55501508Y-32003536D01*
X55501505Y-32003538D01*
X55441838Y-32063205D01*
X55441836Y-32063208D01*
X55399641Y-32136290D01*
X55377800Y-32217803D01*
X55377800Y-32977582D01*
X55358115Y-33044621D01*
X55341481Y-33065263D01*
X54602180Y-33804564D01*
X54540857Y-33838049D01*
X54471165Y-33833065D01*
X54415232Y-33791193D01*
X54390815Y-33725729D01*
X54390499Y-33716883D01*
X54390499Y-32738282D01*
X54381990Y-32695500D01*
X54377707Y-32673965D01*
X54377705Y-32673963D01*
X54377705Y-32673961D01*
X54328972Y-32601028D01*
X54317354Y-32593265D01*
X54256035Y-32552293D01*
X54256034Y-32552292D01*
X54256033Y-32552292D01*
X54256032Y-32552291D01*
X54191721Y-32539500D01*
X53248282Y-32539500D01*
X53183964Y-32552293D01*
X53183959Y-32552295D01*
X53153888Y-32572388D01*
X53087211Y-32593265D01*
X53019831Y-32574779D01*
X53016109Y-32572388D01*
X52986035Y-32552293D01*
X52986032Y-32552292D01*
X52986032Y-32552291D01*
X52921721Y-32539500D01*
X51978282Y-32539500D01*
X51913964Y-32552293D01*
X51913959Y-32552295D01*
X51883888Y-32572388D01*
X51817211Y-32593265D01*
X51749831Y-32574779D01*
X51746109Y-32572388D01*
X51716035Y-32552293D01*
X51716032Y-32552292D01*
X51716032Y-32552291D01*
X51651721Y-32539500D01*
X50708282Y-32539500D01*
X50643964Y-32552293D01*
X50643959Y-32552295D01*
X50613888Y-32572388D01*
X50547211Y-32593265D01*
X50479831Y-32574779D01*
X50476109Y-32572388D01*
X50446035Y-32552293D01*
X50446032Y-32552292D01*
X50446032Y-32552291D01*
X50381721Y-32539500D01*
X49438282Y-32539500D01*
X49373964Y-32552293D01*
X49373959Y-32552295D01*
X49343888Y-32572388D01*
X49277211Y-32593265D01*
X49209831Y-32574779D01*
X49206109Y-32572388D01*
X49176035Y-32552293D01*
X49176032Y-32552292D01*
X49176032Y-32552291D01*
X49111721Y-32539500D01*
X48168282Y-32539500D01*
X48103964Y-32552293D01*
X48103959Y-32552295D01*
X48073888Y-32572388D01*
X48007211Y-32593265D01*
X47939831Y-32574779D01*
X47936109Y-32572388D01*
X47906035Y-32552293D01*
X47906032Y-32552292D01*
X47906032Y-32552291D01*
X47841721Y-32539500D01*
X46898282Y-32539500D01*
X46833964Y-32552293D01*
X46833959Y-32552295D01*
X46803888Y-32572388D01*
X46737211Y-32593265D01*
X46669831Y-32574779D01*
X46666109Y-32572388D01*
X46636035Y-32552293D01*
X46636032Y-32552292D01*
X46636032Y-32552291D01*
X46571721Y-32539500D01*
X45628282Y-32539500D01*
X45563964Y-32552293D01*
X45563959Y-32552295D01*
X45533888Y-32572388D01*
X45467211Y-32593265D01*
X45399831Y-32574779D01*
X45396109Y-32572388D01*
X45366035Y-32552293D01*
X45366032Y-32552292D01*
X45366032Y-32552291D01*
X45301721Y-32539500D01*
X44358282Y-32539500D01*
X44293964Y-32552293D01*
X44293959Y-32552295D01*
X44263888Y-32572388D01*
X44197211Y-32593265D01*
X44129831Y-32574779D01*
X44126109Y-32572388D01*
X44096035Y-32552293D01*
X44096032Y-32552292D01*
X44096032Y-32552291D01*
X44031721Y-32539500D01*
X43088282Y-32539500D01*
X43023964Y-32552293D01*
X43023961Y-32552294D01*
X42951028Y-32601027D01*
X42902292Y-32673966D01*
X42902291Y-32673967D01*
X42889500Y-32738276D01*
X42889500Y-32738279D01*
X42889500Y-32738281D01*
X42889500Y-33450964D01*
X42889501Y-34117200D01*
X42869816Y-34184239D01*
X42817013Y-34229994D01*
X42765501Y-34241200D01*
X42683603Y-34241200D01*
X42602090Y-34263041D01*
X42529008Y-34305236D01*
X42529005Y-34305238D01*
X42469334Y-34364910D01*
X25066062Y-51768181D01*
X25004739Y-51801666D01*
X24978381Y-51804500D01*
X24515847Y-51804500D01*
X24486170Y-51807282D01*
X24486167Y-51807282D01*
X24486166Y-51807283D01*
X24361184Y-51851016D01*
X24361183Y-51851016D01*
X24361182Y-51851017D01*
X24254645Y-51929645D01*
X24176015Y-52036185D01*
X24132283Y-52161164D01*
X24132282Y-52161167D01*
X24129500Y-52190840D01*
X24129500Y-52809152D01*
X24132282Y-52838829D01*
X24132282Y-52838831D01*
X24132283Y-52838834D01*
X24176016Y-52963816D01*
X24254645Y-53070355D01*
X24361184Y-53148984D01*
X24486166Y-53192717D01*
X24515845Y-53195500D01*
X25059154Y-53195499D01*
X25088834Y-53192717D01*
X25213816Y-53148984D01*
X25320355Y-53070355D01*
X25398984Y-52963816D01*
X25442717Y-52838834D01*
X25445500Y-52809155D01*
X25445499Y-52346615D01*
X25465183Y-52279577D01*
X25481813Y-52258940D01*
X42822236Y-34918519D01*
X42883559Y-34885034D01*
X42909917Y-34882200D01*
X53225183Y-34882200D01*
X53292222Y-34901885D01*
X53337977Y-34954689D01*
X53347921Y-35023847D01*
X53318896Y-35087403D01*
X53312864Y-35093881D01*
X36251964Y-52154781D01*
X36190641Y-52188266D01*
X36164283Y-52191100D01*
X32594503Y-52191100D01*
X32512990Y-52212941D01*
X32439908Y-52255136D01*
X32439905Y-52255138D01*
X28043538Y-56651505D01*
X28043536Y-56651508D01*
X28001341Y-56724590D01*
X27979500Y-56806103D01*
X27978439Y-56814166D01*
X27977010Y-56813977D01*
X27959815Y-56872539D01*
X27907011Y-56918294D01*
X27855504Y-56929500D01*
X27828283Y-56929500D01*
X27763964Y-56942293D01*
X27763961Y-56942294D01*
X27691028Y-56991027D01*
X27642292Y-57063966D01*
X27642291Y-57063967D01*
X27629500Y-57128276D01*
X27629500Y-57555500D01*
X27609815Y-57622539D01*
X27557011Y-57668294D01*
X27505500Y-57679500D01*
X25547959Y-57679500D01*
X25480920Y-57659815D01*
X25435165Y-57607011D01*
X25430028Y-57593818D01*
X25429905Y-57593439D01*
X25429905Y-57593438D01*
X25369433Y-57474755D01*
X25369431Y-57474753D01*
X25369428Y-57474749D01*
X25275250Y-57380571D01*
X25275246Y-57380568D01*
X25275245Y-57380567D01*
X25156562Y-57320095D01*
X25156561Y-57320094D01*
X25156558Y-57320093D01*
X25058102Y-57304500D01*
X24591904Y-57304500D01*
X24493436Y-57320095D01*
X24413316Y-57360919D01*
X24374755Y-57380567D01*
X24374754Y-57380568D01*
X24374749Y-57380571D01*
X24280571Y-57474749D01*
X24280568Y-57474753D01*
X24220093Y-57593441D01*
X24204500Y-57691897D01*
X24204500Y-58276883D01*
X24184815Y-58343922D01*
X24132011Y-58389677D01*
X24062853Y-58399621D01*
X23999297Y-58370596D01*
X23992819Y-58364564D01*
X23831818Y-58203563D01*
X23798333Y-58142240D01*
X23795499Y-58115882D01*
X23795499Y-57691904D01*
X23793535Y-57679500D01*
X23779905Y-57593438D01*
X23719433Y-57474755D01*
X23719429Y-57474751D01*
X23719428Y-57474749D01*
X23625250Y-57380571D01*
X23625246Y-57380568D01*
X23625245Y-57380567D01*
X23506562Y-57320095D01*
X23506561Y-57320094D01*
X23506558Y-57320093D01*
X23408102Y-57304500D01*
X22984117Y-57304500D01*
X22917078Y-57284815D01*
X22896436Y-57268181D01*
X22643934Y-57015679D01*
X22643932Y-57015676D01*
X22577194Y-56948938D01*
X22577192Y-56948936D01*
X22504109Y-56906741D01*
X22455927Y-56893831D01*
X22422596Y-56884900D01*
X22422595Y-56884900D01*
X18153717Y-56884900D01*
X18086678Y-56865215D01*
X18066036Y-56848581D01*
X17531819Y-56314364D01*
X17498334Y-56253041D01*
X17495500Y-56226683D01*
X17495500Y-54761528D01*
X17515185Y-54694489D01*
X17563204Y-54651044D01*
X17625245Y-54619433D01*
X17719433Y-54525245D01*
X17779905Y-54406562D01*
X17795500Y-54308097D01*
X17795499Y-53691904D01*
X17779905Y-53593438D01*
X17719433Y-53474755D01*
X17719429Y-53474751D01*
X17719428Y-53474749D01*
X17625250Y-53380571D01*
X17625246Y-53380568D01*
X17625245Y-53380567D01*
X17506562Y-53320095D01*
X17506561Y-53320094D01*
X17506558Y-53320093D01*
X17408102Y-53304500D01*
X16984117Y-53304500D01*
X16917078Y-53284815D01*
X16896436Y-53268181D01*
X16740519Y-53112264D01*
X16707034Y-53050941D01*
X16704200Y-53024583D01*
X16704200Y-52190840D01*
X18129500Y-52190840D01*
X18129500Y-52809152D01*
X18132282Y-52838829D01*
X18132282Y-52838831D01*
X18132283Y-52838834D01*
X18176016Y-52963816D01*
X18254645Y-53070355D01*
X18361184Y-53148984D01*
X18364858Y-53150269D01*
X18368337Y-53152764D01*
X18369399Y-53153326D01*
X18369322Y-53153471D01*
X18421632Y-53190990D01*
X18447379Y-53255943D01*
X18433923Y-53324505D01*
X18385535Y-53374907D01*
X18380209Y-53377788D01*
X18378243Y-53378790D01*
X18374754Y-53380567D01*
X18374749Y-53380571D01*
X18280571Y-53474749D01*
X18280568Y-53474753D01*
X18220093Y-53593441D01*
X18204500Y-53691897D01*
X18204500Y-54308095D01*
X18220095Y-54406563D01*
X18239233Y-54444123D01*
X18280567Y-54525245D01*
X18280569Y-54525247D01*
X18280571Y-54525250D01*
X18374749Y-54619428D01*
X18374753Y-54619431D01*
X18374755Y-54619433D01*
X18493438Y-54679905D01*
X18493439Y-54679905D01*
X18493441Y-54679906D01*
X18591897Y-54695499D01*
X18591903Y-54695500D01*
X19058096Y-54695499D01*
X19156562Y-54679905D01*
X19275245Y-54619433D01*
X19369433Y-54525245D01*
X19429905Y-54406562D01*
X19445500Y-54308097D01*
X19445499Y-53691904D01*
X19429905Y-53593438D01*
X19369433Y-53474755D01*
X19369429Y-53474751D01*
X19369428Y-53474749D01*
X19275250Y-53380571D01*
X19275246Y-53380568D01*
X19275245Y-53380567D01*
X19274089Y-53379978D01*
X19232065Y-53358565D01*
X19181269Y-53310590D01*
X19164475Y-53242769D01*
X19187013Y-53176634D01*
X19214728Y-53148311D01*
X19263570Y-53112264D01*
X19320355Y-53070355D01*
X19398984Y-52963816D01*
X19442717Y-52838834D01*
X19445500Y-52809155D01*
X19445499Y-52190846D01*
X19442717Y-52161166D01*
X19398984Y-52036184D01*
X19320355Y-51929645D01*
X19213816Y-51851016D01*
X19213814Y-51851015D01*
X19088835Y-51807283D01*
X19088832Y-51807282D01*
X19059159Y-51804500D01*
X18515847Y-51804500D01*
X18486170Y-51807282D01*
X18486167Y-51807282D01*
X18486166Y-51807283D01*
X18361184Y-51851016D01*
X18361183Y-51851016D01*
X18361182Y-51851017D01*
X18254645Y-51929645D01*
X18176015Y-52036185D01*
X18132283Y-52161164D01*
X18132282Y-52161167D01*
X18129500Y-52190840D01*
X16704200Y-52190840D01*
X16704200Y-51769117D01*
X16723885Y-51702078D01*
X16740519Y-51681436D01*
X34610237Y-33811719D01*
X34671560Y-33778234D01*
X34697918Y-33775400D01*
X40310192Y-33775400D01*
X40310194Y-33775400D01*
X40310195Y-33775400D01*
X40391709Y-33753559D01*
X40464792Y-33711364D01*
X40524464Y-33651692D01*
X40524464Y-33651690D01*
X40534668Y-33641487D01*
X40534672Y-33641482D01*
X40889982Y-33286172D01*
X40889987Y-33286168D01*
X40900190Y-33275964D01*
X40900192Y-33275964D01*
X40959864Y-33216292D01*
X40996807Y-33152306D01*
X41002060Y-33143208D01*
X41023901Y-33061694D01*
X41023901Y-32977305D01*
X41023901Y-32969710D01*
X41023900Y-32969692D01*
X41023900Y-17473897D01*
X41023901Y-17473884D01*
X41023901Y-17379509D01*
X41023901Y-17379506D01*
X41002060Y-17297992D01*
X40969323Y-17241292D01*
X40959864Y-17224908D01*
X40900192Y-17165236D01*
X40900191Y-17165235D01*
X40895861Y-17160905D01*
X40895850Y-17160895D01*
X40565234Y-16830279D01*
X40565232Y-16830276D01*
X40498494Y-16763538D01*
X40498492Y-16763536D01*
X40425409Y-16721341D01*
X40403382Y-16715439D01*
X40343896Y-16699500D01*
X40335834Y-16698439D01*
X40336022Y-16697010D01*
X40277460Y-16679815D01*
X40231705Y-16627011D01*
X40220499Y-16575500D01*
X40220499Y-16548282D01*
X40210090Y-16495948D01*
X40207707Y-16483965D01*
X40207705Y-16483963D01*
X40207705Y-16483961D01*
X40158972Y-16411028D01*
X40147165Y-16403139D01*
X40086035Y-16362293D01*
X40086034Y-16362292D01*
X40086033Y-16362292D01*
X40086032Y-16362291D01*
X40021721Y-16349500D01*
X38478282Y-16349500D01*
X38413964Y-16362293D01*
X38413961Y-16362294D01*
X38341028Y-16411027D01*
X38292292Y-16483966D01*
X38292291Y-16483967D01*
X38279500Y-16548276D01*
X38279500Y-17491717D01*
X38292293Y-17556035D01*
X38292295Y-17556041D01*
X38312387Y-17586110D01*
X38333265Y-17652787D01*
X38314780Y-17720167D01*
X38312389Y-17723889D01*
X38292291Y-17753967D01*
X38279500Y-17818276D01*
X38279500Y-18761717D01*
X38292293Y-18826035D01*
X38292295Y-18826041D01*
X38312387Y-18856110D01*
X38333265Y-18922787D01*
X38314780Y-18990167D01*
X38312389Y-18993889D01*
X38292291Y-19023967D01*
X38279500Y-19088276D01*
X38279500Y-19115500D01*
X38259815Y-19182539D01*
X38207011Y-19228294D01*
X38155500Y-19239500D01*
X19239717Y-19239500D01*
X19172678Y-19219815D01*
X19152036Y-19203181D01*
X17296385Y-17347530D01*
X17262900Y-17286207D01*
X17261127Y-17243663D01*
X17261491Y-17240900D01*
X17243602Y-17105022D01*
X17191156Y-16978405D01*
X17107725Y-16869675D01*
X16998996Y-16786244D01*
X16998995Y-16786243D01*
X16998993Y-16786242D01*
X16872381Y-16733799D01*
X16872379Y-16733798D01*
X16872378Y-16733798D01*
X16799885Y-16724254D01*
X16736501Y-16715909D01*
X16736498Y-16715909D01*
X16733724Y-16716274D01*
X16731385Y-16715909D01*
X16728374Y-16715909D01*
X16728374Y-16715439D01*
X16664690Y-16705502D01*
X16629869Y-16681014D01*
X15831818Y-15882963D01*
X15798333Y-15821640D01*
X15795499Y-15795282D01*
X15795499Y-15691904D01*
X15782558Y-15610191D01*
X15779905Y-15593438D01*
X15719433Y-15474755D01*
X15719429Y-15474751D01*
X15719428Y-15474749D01*
X15625250Y-15380571D01*
X15625246Y-15380568D01*
X15625245Y-15380567D01*
X15506562Y-15320095D01*
X15506561Y-15320094D01*
X15506558Y-15320093D01*
X15408102Y-15304500D01*
X14941904Y-15304500D01*
X14843436Y-15320095D01*
X14763316Y-15360919D01*
X14724755Y-15380567D01*
X14724754Y-15380568D01*
X14724749Y-15380571D01*
X14630571Y-15474749D01*
X14630568Y-15474753D01*
X14570093Y-15593441D01*
X14554500Y-15691897D01*
X14554500Y-16308095D01*
X14570095Y-16406563D01*
X14580007Y-16426016D01*
X14630567Y-16525245D01*
X14630569Y-16525247D01*
X14630571Y-16525250D01*
X14724749Y-16619428D01*
X14724753Y-16619431D01*
X14724755Y-16619433D01*
X14843438Y-16679905D01*
X14843439Y-16679905D01*
X14843441Y-16679906D01*
X14941897Y-16695499D01*
X14941903Y-16695500D01*
X15408096Y-16695499D01*
X15506562Y-16679905D01*
X15569175Y-16648001D01*
X15637844Y-16635106D01*
X15702585Y-16661382D01*
X15713151Y-16670806D01*
X16176614Y-17134269D01*
X16210099Y-17195592D01*
X16211874Y-17238124D01*
X16211509Y-17240898D01*
X16211509Y-17240900D01*
X16229398Y-17376777D01*
X16229399Y-17376781D01*
X16281842Y-17503393D01*
X16281843Y-17503395D01*
X16281844Y-17503396D01*
X16365275Y-17612125D01*
X16474004Y-17695556D01*
X16600622Y-17748002D01*
X16736500Y-17765891D01*
X16739261Y-17765527D01*
X16741594Y-17765891D01*
X16744628Y-17765891D01*
X16744628Y-17766364D01*
X16808295Y-17776291D01*
X16843130Y-17800785D01*
X18794795Y-19752450D01*
X18794805Y-19752461D01*
X18799135Y-19756791D01*
X18799136Y-19756792D01*
X18858808Y-19816464D01*
X18893446Y-19836462D01*
X18893448Y-19836464D01*
X18893449Y-19836464D01*
X18931892Y-19858660D01*
X19013406Y-19880501D01*
X19013409Y-19880501D01*
X19105391Y-19880501D01*
X19105407Y-19880500D01*
X38155501Y-19880500D01*
X38222540Y-19900185D01*
X38268295Y-19952989D01*
X38279501Y-20004500D01*
X38279501Y-20031717D01*
X38292293Y-20096035D01*
X38292295Y-20096041D01*
X38312387Y-20126110D01*
X38333265Y-20192787D01*
X38314780Y-20260167D01*
X38312389Y-20263889D01*
X38292291Y-20293967D01*
X38279500Y-20358276D01*
X38279500Y-20385500D01*
X38259815Y-20452539D01*
X38207011Y-20498294D01*
X38155500Y-20509500D01*
X16107205Y-20509500D01*
X16040166Y-20489815D01*
X16031720Y-20483877D01*
X16019295Y-20474343D01*
X15892677Y-20421897D01*
X15887399Y-20420483D01*
X15827741Y-20384115D01*
X15797215Y-20321267D01*
X15795499Y-20300721D01*
X15795499Y-19691904D01*
X15779905Y-19593438D01*
X15719433Y-19474755D01*
X15719429Y-19474751D01*
X15719428Y-19474749D01*
X15625250Y-19380571D01*
X15625246Y-19380568D01*
X15625245Y-19380567D01*
X15506562Y-19320095D01*
X15506561Y-19320094D01*
X15506558Y-19320093D01*
X15408102Y-19304500D01*
X14941904Y-19304500D01*
X14843436Y-19320095D01*
X14763316Y-19360919D01*
X14724755Y-19380567D01*
X14724754Y-19380568D01*
X14724749Y-19380571D01*
X14630571Y-19474749D01*
X14630568Y-19474753D01*
X14570093Y-19593441D01*
X14554500Y-19691897D01*
X14554500Y-20308095D01*
X14570095Y-20406563D01*
X14577909Y-20421898D01*
X14630567Y-20525245D01*
X14630569Y-20525247D01*
X14630571Y-20525250D01*
X14724749Y-20619428D01*
X14724753Y-20619431D01*
X14724755Y-20619433D01*
X14843438Y-20679905D01*
X14843439Y-20679905D01*
X14843441Y-20679906D01*
X14913944Y-20691071D01*
X14941903Y-20695500D01*
X15117679Y-20695499D01*
X15184719Y-20715183D01*
X15205361Y-20731818D01*
X15208431Y-20734888D01*
X15241916Y-20796211D01*
X15243689Y-20838753D01*
X15231809Y-20928996D01*
X15231809Y-20929000D01*
X15249698Y-21064877D01*
X15249699Y-21064881D01*
X15302142Y-21191493D01*
X15302143Y-21191495D01*
X15302144Y-21191496D01*
X15385575Y-21300225D01*
X15494304Y-21383656D01*
X15620922Y-21436102D01*
X15740991Y-21451909D01*
X15756799Y-21453991D01*
X15756800Y-21453991D01*
X15756801Y-21453991D01*
X15770961Y-21452126D01*
X15892678Y-21436102D01*
X16019296Y-21383656D01*
X16128025Y-21300225D01*
X16205689Y-21199011D01*
X16262115Y-21157811D01*
X16304063Y-21150500D01*
X38155501Y-21150500D01*
X38222540Y-21170185D01*
X38268295Y-21222989D01*
X38279501Y-21274500D01*
X38279501Y-21301717D01*
X38292293Y-21366035D01*
X38292295Y-21366041D01*
X38312387Y-21396110D01*
X38333265Y-21462787D01*
X38314780Y-21530167D01*
X38312389Y-21533889D01*
X38292291Y-21563967D01*
X38279500Y-21628276D01*
X38279500Y-21655500D01*
X38259815Y-21722539D01*
X38207011Y-21768294D01*
X38155500Y-21779500D01*
X17124807Y-21779500D01*
X17124791Y-21779499D01*
X17117195Y-21779499D01*
X17032806Y-21779499D01*
X17032804Y-21779499D01*
X16973134Y-21795486D01*
X16973135Y-21795487D01*
X16951294Y-21801339D01*
X16951293Y-21801339D01*
X16878211Y-21843534D01*
X16878205Y-21843538D01*
X16818534Y-21903210D01*
X15453562Y-23268181D01*
X15392239Y-23301666D01*
X15365881Y-23304500D01*
X14941904Y-23304500D01*
X14843436Y-23320095D01*
X14763316Y-23360919D01*
X14724755Y-23380567D01*
X14724754Y-23380568D01*
X14724752Y-23380569D01*
X14699268Y-23406053D01*
X14637944Y-23439537D01*
X14568253Y-23434551D01*
X14536102Y-23416746D01*
X14498696Y-23388044D01*
X14498694Y-23388043D01*
X14372081Y-23335599D01*
X14372079Y-23335598D01*
X14372078Y-23335598D01*
X14304139Y-23326653D01*
X14236201Y-23317709D01*
X14236199Y-23317709D01*
X14100322Y-23335598D01*
X14100318Y-23335599D01*
X13973705Y-23388043D01*
X13864975Y-23471475D01*
X13781543Y-23580205D01*
X13729099Y-23706818D01*
X13729098Y-23706822D01*
X13711209Y-23842699D01*
X13711209Y-23842700D01*
X13729098Y-23978577D01*
X13729099Y-23978581D01*
X13781542Y-24105193D01*
X13781543Y-24105195D01*
X13781544Y-24105196D01*
X13864975Y-24213925D01*
X13973704Y-24297356D01*
X13973705Y-24297356D01*
X13973706Y-24297357D01*
X14000111Y-24308294D01*
X14100322Y-24349802D01*
X14220391Y-24365609D01*
X14236199Y-24367691D01*
X14236200Y-24367691D01*
X14236201Y-24367691D01*
X14250361Y-24365826D01*
X14372078Y-24349802D01*
X14406421Y-24335576D01*
X14475888Y-24328108D01*
X14538368Y-24359383D01*
X14563581Y-24398927D01*
X14565664Y-24397866D01*
X14570095Y-24406562D01*
X14630567Y-24525245D01*
X14630569Y-24525247D01*
X14630571Y-24525250D01*
X14724749Y-24619428D01*
X14724753Y-24619431D01*
X14724755Y-24619433D01*
X14843438Y-24679905D01*
X14843439Y-24679905D01*
X14843441Y-24679906D01*
X14941897Y-24695499D01*
X14941903Y-24695500D01*
X15408096Y-24695499D01*
X15506562Y-24679905D01*
X15625245Y-24619433D01*
X15719433Y-24525245D01*
X15779905Y-24406562D01*
X15781115Y-24398927D01*
X15795499Y-24308102D01*
X15795500Y-24308097D01*
X15795499Y-23884115D01*
X15815183Y-23817077D01*
X15831813Y-23796440D01*
X17171436Y-22456819D01*
X17232759Y-22423334D01*
X17259117Y-22420500D01*
X38155501Y-22420500D01*
X38222540Y-22440185D01*
X38268295Y-22492989D01*
X38279501Y-22544500D01*
X38279501Y-22571717D01*
X38292293Y-22636035D01*
X38292295Y-22636041D01*
X38312387Y-22666110D01*
X38333265Y-22732787D01*
X38314780Y-22800167D01*
X38312389Y-22803889D01*
X38292291Y-22833967D01*
X38279500Y-22898276D01*
X38279500Y-22925500D01*
X38259815Y-22992539D01*
X38207011Y-23038294D01*
X38155500Y-23049500D01*
X27561503Y-23049500D01*
X27479990Y-23071341D01*
X27406908Y-23113536D01*
X27406905Y-23113538D01*
X18699129Y-31821314D01*
X18637806Y-31854799D01*
X18595270Y-31856573D01*
X18592504Y-31856209D01*
X18592499Y-31856209D01*
X18456622Y-31874098D01*
X18456618Y-31874099D01*
X18330005Y-31926543D01*
X18221275Y-32009975D01*
X18137843Y-32118705D01*
X18085399Y-32245318D01*
X18085398Y-32245323D01*
X18070723Y-32356786D01*
X18042456Y-32420682D01*
X17984131Y-32459153D01*
X17947784Y-32464600D01*
X16553018Y-32464600D01*
X16485979Y-32444915D01*
X16465337Y-32428281D01*
X16356819Y-32319763D01*
X16323334Y-32258440D01*
X16320500Y-32232082D01*
X16320500Y-28782808D01*
X16320500Y-28782805D01*
X16298659Y-28701291D01*
X16256464Y-28628208D01*
X16196792Y-28568536D01*
X16192461Y-28564205D01*
X16192450Y-28564195D01*
X15831818Y-28203563D01*
X15798333Y-28142240D01*
X15795499Y-28115882D01*
X15795499Y-27691904D01*
X15795498Y-27691897D01*
X15779905Y-27593438D01*
X15719433Y-27474755D01*
X15719429Y-27474751D01*
X15719428Y-27474749D01*
X15625250Y-27380571D01*
X15625246Y-27380568D01*
X15625245Y-27380567D01*
X15506562Y-27320095D01*
X15506561Y-27320094D01*
X15506558Y-27320093D01*
X15408102Y-27304500D01*
X14941904Y-27304500D01*
X14843436Y-27320095D01*
X14769587Y-27357724D01*
X14724755Y-27380567D01*
X14724754Y-27380568D01*
X14724749Y-27380571D01*
X14630571Y-27474749D01*
X14630568Y-27474753D01*
X14570093Y-27593441D01*
X14554500Y-27691897D01*
X14554500Y-28308095D01*
X14570095Y-28406563D01*
X14590507Y-28446622D01*
X14630567Y-28525245D01*
X14630569Y-28525247D01*
X14630571Y-28525250D01*
X14724749Y-28619428D01*
X14724753Y-28619431D01*
X14724755Y-28619433D01*
X14843438Y-28679905D01*
X14843439Y-28679905D01*
X14843441Y-28679906D01*
X14941897Y-28695499D01*
X14941903Y-28695500D01*
X15365882Y-28695499D01*
X15432921Y-28715183D01*
X15453563Y-28731818D01*
X15643181Y-28921436D01*
X15676666Y-28982759D01*
X15679500Y-29009117D01*
X15679500Y-31205862D01*
X15659815Y-31272901D01*
X15607011Y-31318656D01*
X15537853Y-31328600D01*
X15516278Y-31321761D01*
X15515840Y-31323110D01*
X15506558Y-31320093D01*
X15408102Y-31304500D01*
X14941904Y-31304500D01*
X14843436Y-31320095D01*
X14763316Y-31360919D01*
X14724755Y-31380567D01*
X14724754Y-31380568D01*
X14724749Y-31380571D01*
X14630571Y-31474749D01*
X14630568Y-31474753D01*
X14570093Y-31593441D01*
X14554500Y-31691897D01*
X14554500Y-32308095D01*
X14570095Y-32406563D01*
X14577289Y-32420682D01*
X14630567Y-32525245D01*
X14630569Y-32525247D01*
X14630571Y-32525250D01*
X14724749Y-32619428D01*
X14724753Y-32619431D01*
X14724755Y-32619433D01*
X14843438Y-32679905D01*
X14843439Y-32679905D01*
X14843441Y-32679906D01*
X14913944Y-32691071D01*
X14941903Y-32695500D01*
X15011500Y-32695499D01*
X15078538Y-32715183D01*
X15124294Y-32767986D01*
X15135500Y-32819499D01*
X15135500Y-33010382D01*
X15115815Y-33077421D01*
X15099181Y-33098063D01*
X6190138Y-42007105D01*
X6190136Y-42007108D01*
X6147941Y-42080190D01*
X6126100Y-42161703D01*
X1200000Y-42161703D01*
X1200000Y-13691897D01*
X64554500Y-13691897D01*
X64554500Y-14308095D01*
X64570095Y-14406563D01*
X64590507Y-14446622D01*
X64630567Y-14525245D01*
X64630569Y-14525247D01*
X64630571Y-14525250D01*
X64724749Y-14619428D01*
X64724753Y-14619431D01*
X64724755Y-14619433D01*
X64843438Y-14679905D01*
X64843439Y-14679905D01*
X64843441Y-14679906D01*
X64941897Y-14695499D01*
X64941903Y-14695500D01*
X65365882Y-14695499D01*
X65432921Y-14715183D01*
X65453563Y-14731818D01*
X68279195Y-17557450D01*
X68279205Y-17557461D01*
X68283535Y-17561791D01*
X68283536Y-17561792D01*
X68343208Y-17621464D01*
X68385404Y-17645826D01*
X68416292Y-17663660D01*
X68497806Y-17685501D01*
X68497809Y-17685501D01*
X68589791Y-17685501D01*
X68589807Y-17685500D01*
X76296367Y-17685500D01*
X76363406Y-17705185D01*
X76386171Y-17726863D01*
X76387034Y-17726001D01*
X76481731Y-17820698D01*
X76481732Y-17820698D01*
X76481734Y-17820700D01*
X76592821Y-17875007D01*
X76664839Y-17885500D01*
X78385160Y-17885499D01*
X78457179Y-17875007D01*
X78568266Y-17820700D01*
X78655700Y-17733266D01*
X78710007Y-17622179D01*
X78720500Y-17550161D01*
X78720499Y-17179840D01*
X78710007Y-17107821D01*
X78655700Y-16996734D01*
X78655698Y-16996732D01*
X78655698Y-16996731D01*
X78568268Y-16909301D01*
X78457177Y-16854992D01*
X78385161Y-16844500D01*
X76664840Y-16844500D01*
X76592820Y-16854993D01*
X76481731Y-16909301D01*
X76387034Y-17003999D01*
X76385125Y-17002090D01*
X76342307Y-17035676D01*
X76296367Y-17044500D01*
X68724117Y-17044500D01*
X68657078Y-17024815D01*
X68636436Y-17008181D01*
X65831818Y-14203563D01*
X65798333Y-14142240D01*
X65795499Y-14115882D01*
X65795499Y-13691904D01*
X65790631Y-13661164D01*
X65779905Y-13593438D01*
X65719433Y-13474755D01*
X65719429Y-13474751D01*
X65719428Y-13474749D01*
X65625250Y-13380571D01*
X65625246Y-13380568D01*
X65625245Y-13380567D01*
X65506562Y-13320095D01*
X65506561Y-13320094D01*
X65506558Y-13320093D01*
X65408102Y-13304500D01*
X64941904Y-13304500D01*
X64843436Y-13320095D01*
X64782752Y-13351016D01*
X64724755Y-13380567D01*
X64724754Y-13380568D01*
X64724749Y-13380571D01*
X64630571Y-13474749D01*
X64630568Y-13474753D01*
X64570093Y-13593441D01*
X64554500Y-13691897D01*
X1200000Y-13691897D01*
X1200000Y-12124000D01*
X1219685Y-12056961D01*
X1272489Y-12011206D01*
X1324000Y-12000000D01*
X93676000Y-12000000D01*
X93743039Y-12019685D01*
G37*
%TD.AperFunction*%
%TD*%
M02*
