%TF.GenerationSoftware,KiCad,Pcbnew,8.0.9-8.0.9-0~ubuntu24.04.1*%
%TF.CreationDate,2026-07-18T20:59:54+00:00*%
%TF.ProjectId,smart-glove,736d6172-742d-4676-9c6f-76652e6b6963,rev?*%
%TF.SameCoordinates,Original*%
%TF.FileFunction,Copper,L2,Bot*%
%TF.FilePolarity,Positive*%
%FSLAX46Y46*%
G04 Gerber Fmt 4.6, Leading zero omitted, Abs format (unit mm)*
G04 Created by KiCad (PCBNEW 8.0.9-8.0.9-0~ubuntu24.04.1) date 2026-07-18 20:59:54*
%MOMM*%
%LPD*%
G01*
G04 APERTURE LIST*
G04 Aperture macros list*
%AMRoundRect*
0 Rectangle with rounded corners*
0 $1 Rounding radius*
0 $2 $3 $4 $5 $6 $7 $8 $9 X,Y pos of 4 corners*
0 Add a 4 corners polygon primitive as box body*
4,1,4,$2,$3,$4,$5,$6,$7,$8,$9,$2,$3,0*
0 Add four circle primitives for the rounded corners*
1,1,$1+$1,$2,$3*
1,1,$1+$1,$4,$5*
1,1,$1+$1,$6,$7*
1,1,$1+$1,$8,$9*
0 Add four rect primitives between the rounded corners*
20,1,$1+$1,$2,$3,$4,$5,0*
20,1,$1+$1,$4,$5,$6,$7,0*
20,1,$1+$1,$6,$7,$8,$9,0*
20,1,$1+$1,$8,$9,$2,$3,0*%
G04 Aperture macros list end*
%TA.AperFunction,ComponentPad*%
%ADD10O,1.000000X2.100000*%
%TD*%
%TA.AperFunction,ComponentPad*%
%ADD11O,1.000000X1.600000*%
%TD*%
%TA.AperFunction,ComponentPad*%
%ADD12RoundRect,0.250000X0.625000X-0.350000X0.625000X0.350000X-0.625000X0.350000X-0.625000X-0.350000X0*%
%TD*%
%TA.AperFunction,ComponentPad*%
%ADD13O,1.750000X1.200000*%
%TD*%
%TA.AperFunction,ComponentPad*%
%ADD14R,1.700000X1.700000*%
%TD*%
%TA.AperFunction,ComponentPad*%
%ADD15O,1.700000X1.700000*%
%TD*%
%TA.AperFunction,HeatsinkPad*%
%ADD16C,0.600000*%
%TD*%
%TA.AperFunction,ViaPad*%
%ADD17C,0.600000*%
%TD*%
%TA.AperFunction,Conductor*%
%ADD18C,0.200000*%
%TD*%
G04 APERTURE END LIST*
D10*
%TO.P,J1,S1*%
%TO.N,GND*%
X43680000Y-62870000D03*
D11*
X43680000Y-67050000D03*
D10*
X52320000Y-62870000D03*
D11*
X52320000Y-67050000D03*
%TD*%
D12*
%TO.P,J3,1*%
%TO.N,+BAT*%
X78000000Y-64000000D03*
D13*
%TO.P,J3,2*%
%TO.N,GND*%
X78000000Y-62000000D03*
%TD*%
D14*
%TO.P,J2,1*%
%TO.N,3V3*%
X8000000Y-56000000D03*
D15*
%TO.P,J2,2*%
%TO.N,FLEX1*%
X8000000Y-58540000D03*
%TO.P,J2,3*%
%TO.N,FLEX2*%
X8000000Y-61080000D03*
%TO.P,J2,4*%
%TO.N,FLEX3*%
X8000000Y-63620000D03*
%TO.P,J2,5*%
%TO.N,FLEX4*%
X8000000Y-66160000D03*
%TO.P,J2,6*%
%TO.N,GND*%
X8000000Y-68700000D03*
%TD*%
D16*
%TO.P,U1,39*%
%TO.N,GND*%
X45795000Y-22327500D03*
X45795000Y-23852500D03*
X46557500Y-21565000D03*
X46557500Y-23090000D03*
X46557500Y-24615000D03*
X47320000Y-22327500D03*
X47320000Y-23852500D03*
X48082500Y-21565000D03*
X48082500Y-23090000D03*
X48082500Y-24615000D03*
X48845000Y-22327500D03*
X48845000Y-23852500D03*
%TD*%
D17*
%TO.N,3V3*%
X69225000Y-52777100D03*
X70373800Y-57018300D03*
X69225000Y-34999300D03*
X78980700Y-57022200D03*
%TO.N,+5V*%
X59723000Y-40903700D03*
X72806700Y-15832700D03*
%TO.N,+BAT*%
X79989000Y-28355100D03*
%TO.N,FLEX2*%
X16005000Y-20830000D03*
%TO.N,EN*%
X22197600Y-57880000D03*
X33291700Y-58228400D03*
X40508800Y-18169000D03*
%TO.N,CC1*%
X42288500Y-62068500D03*
X35976900Y-55994400D03*
%TD*%
D18*
%TO.N,GND*%
X52320000Y-67050000D02*
X52320000Y-65948300D01*
X49442500Y-58640800D02*
X52320000Y-61518300D01*
X52320000Y-62870000D02*
X52320000Y-65948300D01*
X43680000Y-67050000D02*
X43680000Y-62870000D01*
X46557500Y-58640800D02*
X43680000Y-61518300D01*
X46557500Y-24615000D02*
X46557500Y-58640800D01*
X43680000Y-62870000D02*
X43680000Y-61518300D01*
X46557500Y-58640800D02*
X49442500Y-58640800D01*
X52320000Y-62870000D02*
X52320000Y-61518300D01*
%TO.N,3V3*%
X69225000Y-34999300D02*
X69225000Y-52777100D01*
X70373800Y-57018300D02*
X78976800Y-57018300D01*
X70373800Y-53925900D02*
X70373800Y-57018300D01*
X78976800Y-57018300D02*
X78980700Y-57022200D01*
X69225000Y-52777100D02*
X70373800Y-53925900D01*
%TO.N,+5V*%
X72806700Y-15832700D02*
X59723000Y-28916400D01*
X59723000Y-28916400D02*
X59723000Y-40903700D01*
%TO.N,+BAT*%
X78000000Y-64000000D02*
X79989000Y-62011000D01*
X79989000Y-62011000D02*
X79989000Y-28355100D01*
%TO.N,FLEX2*%
X8000000Y-59928300D02*
X8287900Y-59928300D01*
X8287900Y-59928300D02*
X16005000Y-52211200D01*
X16005000Y-52211200D02*
X16005000Y-20830000D01*
X8000000Y-61080000D02*
X8000000Y-59928300D01*
%TO.N,EN*%
X40508800Y-18169000D02*
X33291700Y-25386100D01*
X33291700Y-57880000D02*
X33291700Y-58228400D01*
X33291700Y-25386100D02*
X33291700Y-57880000D01*
X33291700Y-57880000D02*
X22197600Y-57880000D01*
%TO.N,CC1*%
X42288500Y-62068500D02*
X36214400Y-55994400D01*
X36214400Y-55994400D02*
X35976900Y-55994400D01*
%TD*%
%TA.AperFunction,Conductor*%
%TO.N,GND*%
G36*
X93743039Y-12019685D02*
G01*
X93788794Y-12072489D01*
X93800000Y-12124000D01*
X93800000Y-70676000D01*
X93780315Y-70743039D01*
X93727511Y-70788794D01*
X93676000Y-70800000D01*
X1324000Y-70800000D01*
X1256961Y-70780315D01*
X1211206Y-70727511D01*
X1200000Y-70676000D01*
X1200000Y-68393713D01*
X2149500Y-68393713D01*
X2149500Y-68606286D01*
X2182753Y-68816239D01*
X2248444Y-69018414D01*
X2344951Y-69207820D01*
X2469890Y-69379786D01*
X2620213Y-69530109D01*
X2792179Y-69655048D01*
X2792181Y-69655049D01*
X2792184Y-69655051D01*
X2981588Y-69751557D01*
X3183757Y-69817246D01*
X3393713Y-69850500D01*
X3393714Y-69850500D01*
X3606286Y-69850500D01*
X3606287Y-69850500D01*
X3816243Y-69817246D01*
X4018412Y-69751557D01*
X4207816Y-69655051D01*
X4229789Y-69639086D01*
X4379786Y-69530109D01*
X4379788Y-69530106D01*
X4379792Y-69530104D01*
X4530104Y-69379792D01*
X4530106Y-69379788D01*
X4530109Y-69379786D01*
X4655048Y-69207820D01*
X4655047Y-69207820D01*
X4655051Y-69207816D01*
X4751557Y-69018412D01*
X4817246Y-68816243D01*
X4850500Y-68606287D01*
X4850500Y-68393713D01*
X90149500Y-68393713D01*
X90149500Y-68606286D01*
X90182753Y-68816239D01*
X90248444Y-69018414D01*
X90344951Y-69207820D01*
X90469890Y-69379786D01*
X90620213Y-69530109D01*
X90792179Y-69655048D01*
X90792181Y-69655049D01*
X90792184Y-69655051D01*
X90981588Y-69751557D01*
X91183757Y-69817246D01*
X91393713Y-69850500D01*
X91393714Y-69850500D01*
X91606286Y-69850500D01*
X91606287Y-69850500D01*
X91816243Y-69817246D01*
X92018412Y-69751557D01*
X92207816Y-69655051D01*
X92229789Y-69639086D01*
X92379786Y-69530109D01*
X92379788Y-69530106D01*
X92379792Y-69530104D01*
X92530104Y-69379792D01*
X92530106Y-69379788D01*
X92530109Y-69379786D01*
X92655048Y-69207820D01*
X92655047Y-69207820D01*
X92655051Y-69207816D01*
X92751557Y-69018412D01*
X92817246Y-68816243D01*
X92850500Y-68606287D01*
X92850500Y-68393713D01*
X92817246Y-68183757D01*
X92751557Y-67981588D01*
X92655051Y-67792184D01*
X92655049Y-67792181D01*
X92655048Y-67792179D01*
X92530109Y-67620213D01*
X92379786Y-67469890D01*
X92207820Y-67344951D01*
X92018414Y-67248444D01*
X92018413Y-67248443D01*
X92018412Y-67248443D01*
X91816243Y-67182754D01*
X91816241Y-67182753D01*
X91816240Y-67182753D01*
X91654957Y-67157208D01*
X91606287Y-67149500D01*
X91393713Y-67149500D01*
X91345042Y-67157208D01*
X91183760Y-67182753D01*
X90981585Y-67248444D01*
X90792179Y-67344951D01*
X90620213Y-67469890D01*
X90469890Y-67620213D01*
X90344951Y-67792179D01*
X90248444Y-67981585D01*
X90182753Y-68183760D01*
X90149500Y-68393713D01*
X4850500Y-68393713D01*
X4817246Y-68183757D01*
X4751557Y-67981588D01*
X4655051Y-67792184D01*
X4655049Y-67792181D01*
X4655048Y-67792179D01*
X4530109Y-67620213D01*
X4379786Y-67469890D01*
X4207820Y-67344951D01*
X4018414Y-67248444D01*
X4018413Y-67248443D01*
X4018412Y-67248443D01*
X3816243Y-67182754D01*
X3816241Y-67182753D01*
X3816240Y-67182753D01*
X3654957Y-67157208D01*
X3606287Y-67149500D01*
X3393713Y-67149500D01*
X3345042Y-67157208D01*
X3183760Y-67182753D01*
X2981585Y-67248444D01*
X2792179Y-67344951D01*
X2620213Y-67469890D01*
X2469890Y-67620213D01*
X2344951Y-67792179D01*
X2248444Y-67981585D01*
X2182753Y-68183760D01*
X2149500Y-68393713D01*
X1200000Y-68393713D01*
X1200000Y-66160000D01*
X6924320Y-66160000D01*
X6944988Y-66369853D01*
X7006202Y-66571649D01*
X7105600Y-66757610D01*
X7105605Y-66757616D01*
X7239378Y-66920621D01*
X7402383Y-67054394D01*
X7402389Y-67054399D01*
X7588350Y-67153797D01*
X7588352Y-67153797D01*
X7588355Y-67153799D01*
X7790145Y-67215011D01*
X7790144Y-67215011D01*
X7808959Y-67216864D01*
X8000000Y-67235680D01*
X8209855Y-67215011D01*
X8411645Y-67153799D01*
X8419688Y-67149500D01*
X8597610Y-67054399D01*
X8597612Y-67054396D01*
X8597616Y-67054395D01*
X8760621Y-66920621D01*
X8894395Y-66757616D01*
X8894396Y-66757612D01*
X8894399Y-66757610D01*
X8993797Y-66571649D01*
X8993797Y-66571648D01*
X8993799Y-66571645D01*
X9055011Y-66369855D01*
X9075680Y-66160000D01*
X9055011Y-65950145D01*
X8993799Y-65748355D01*
X8993797Y-65748352D01*
X8993797Y-65748350D01*
X8894399Y-65562389D01*
X8894394Y-65562383D01*
X8760621Y-65399378D01*
X8597616Y-65265605D01*
X8597610Y-65265600D01*
X8411649Y-65166202D01*
X8310750Y-65135595D01*
X8209855Y-65104989D01*
X8209853Y-65104988D01*
X8209855Y-65104988D01*
X8000000Y-65084320D01*
X7790146Y-65104988D01*
X7588350Y-65166202D01*
X7402389Y-65265600D01*
X7402383Y-65265605D01*
X7239378Y-65399378D01*
X7105605Y-65562383D01*
X7105600Y-65562389D01*
X7006202Y-65748350D01*
X6944988Y-65950146D01*
X6924320Y-66160000D01*
X1200000Y-66160000D01*
X1200000Y-63620000D01*
X6924320Y-63620000D01*
X6944988Y-63829853D01*
X7006202Y-64031649D01*
X7105600Y-64217610D01*
X7105605Y-64217616D01*
X7239378Y-64380621D01*
X7402383Y-64514394D01*
X7402389Y-64514399D01*
X7588350Y-64613797D01*
X7588352Y-64613797D01*
X7588355Y-64613799D01*
X7790145Y-64675011D01*
X7790144Y-64675011D01*
X7808959Y-64676864D01*
X8000000Y-64695680D01*
X8209855Y-64675011D01*
X8411645Y-64613799D01*
X8478987Y-64577804D01*
X8597610Y-64514399D01*
X8597612Y-64514396D01*
X8597616Y-64514395D01*
X8760621Y-64380621D01*
X8894395Y-64217616D01*
X8894396Y-64217612D01*
X8894399Y-64217610D01*
X8993797Y-64031649D01*
X8993797Y-64031648D01*
X8993799Y-64031645D01*
X9055011Y-63829855D01*
X9075680Y-63620000D01*
X9055011Y-63410145D01*
X9028950Y-63324234D01*
X44534500Y-63324234D01*
X44534500Y-63475766D01*
X44554109Y-63548950D01*
X44573719Y-63622136D01*
X44611602Y-63687750D01*
X44649485Y-63753365D01*
X44756635Y-63860515D01*
X44887865Y-63936281D01*
X45034234Y-63975500D01*
X45034236Y-63975500D01*
X45185764Y-63975500D01*
X45185766Y-63975500D01*
X45332135Y-63936281D01*
X45463365Y-63860515D01*
X45570515Y-63753365D01*
X45646281Y-63622135D01*
X45685500Y-63475766D01*
X45685500Y-63324234D01*
X50314500Y-63324234D01*
X50314500Y-63475766D01*
X50334109Y-63548950D01*
X50353719Y-63622136D01*
X50391602Y-63687750D01*
X50429485Y-63753365D01*
X50536635Y-63860515D01*
X50667865Y-63936281D01*
X50814234Y-63975500D01*
X50814236Y-63975500D01*
X50965764Y-63975500D01*
X50965766Y-63975500D01*
X51112135Y-63936281D01*
X51243365Y-63860515D01*
X51350515Y-63753365D01*
X51426281Y-63622135D01*
X51465500Y-63475766D01*
X51465500Y-63324234D01*
X51426281Y-63177865D01*
X51350515Y-63046635D01*
X51243365Y-62939485D01*
X51177750Y-62901602D01*
X51112136Y-62863719D01*
X51038950Y-62844109D01*
X50965766Y-62824500D01*
X50814234Y-62824500D01*
X50667863Y-62863719D01*
X50536635Y-62939485D01*
X50536632Y-62939487D01*
X50429487Y-63046632D01*
X50429485Y-63046635D01*
X50353719Y-63177863D01*
X50317273Y-63313884D01*
X50314500Y-63324234D01*
X45685500Y-63324234D01*
X45646281Y-63177865D01*
X45570515Y-63046635D01*
X45463365Y-62939485D01*
X45397750Y-62901602D01*
X45332136Y-62863719D01*
X45258950Y-62844109D01*
X45185766Y-62824500D01*
X45034234Y-62824500D01*
X44887863Y-62863719D01*
X44756635Y-62939485D01*
X44756632Y-62939487D01*
X44649487Y-63046632D01*
X44649485Y-63046635D01*
X44573719Y-63177863D01*
X44537273Y-63313884D01*
X44534500Y-63324234D01*
X9028950Y-63324234D01*
X8993799Y-63208355D01*
X8993797Y-63208352D01*
X8993797Y-63208350D01*
X8894399Y-63022389D01*
X8894394Y-63022383D01*
X8760621Y-62859378D01*
X8597616Y-62725605D01*
X8597610Y-62725600D01*
X8411649Y-62626202D01*
X8303814Y-62593491D01*
X8209855Y-62564989D01*
X8209853Y-62564988D01*
X8209855Y-62564988D01*
X8000000Y-62544320D01*
X7790146Y-62564988D01*
X7588350Y-62626202D01*
X7402389Y-62725600D01*
X7402383Y-62725605D01*
X7239378Y-62859378D01*
X7105605Y-63022383D01*
X7105600Y-63022389D01*
X7006202Y-63208350D01*
X6944988Y-63410146D01*
X6924320Y-63620000D01*
X1200000Y-63620000D01*
X1200000Y-58540000D01*
X6924320Y-58540000D01*
X6944988Y-58749853D01*
X7006202Y-58951649D01*
X7105600Y-59137610D01*
X7105605Y-59137616D01*
X7239378Y-59300621D01*
X7402383Y-59434394D01*
X7402389Y-59434399D01*
X7588350Y-59533797D01*
X7588352Y-59533797D01*
X7588355Y-59533799D01*
X7668033Y-59557969D01*
X7726471Y-59596266D01*
X7754927Y-59660078D01*
X7744367Y-59729145D01*
X7739424Y-59738629D01*
X7701342Y-59804587D01*
X7701341Y-59804589D01*
X7679500Y-59886103D01*
X7679500Y-59966587D01*
X7659815Y-60033626D01*
X7607011Y-60079381D01*
X7591507Y-60085244D01*
X7588354Y-60086200D01*
X7402389Y-60185600D01*
X7402383Y-60185605D01*
X7239378Y-60319378D01*
X7105605Y-60482383D01*
X7105600Y-60482389D01*
X7006202Y-60668350D01*
X6944988Y-60870146D01*
X6924320Y-61080000D01*
X6944988Y-61289853D01*
X7006202Y-61491649D01*
X7105600Y-61677610D01*
X7105605Y-61677616D01*
X7239378Y-61840621D01*
X7402383Y-61974394D01*
X7402389Y-61974399D01*
X7588350Y-62073797D01*
X7588352Y-62073797D01*
X7588355Y-62073799D01*
X7790145Y-62135011D01*
X7790144Y-62135011D01*
X7808959Y-62136864D01*
X8000000Y-62155680D01*
X8209855Y-62135011D01*
X8411645Y-62073799D01*
X8421561Y-62068499D01*
X8597610Y-61974399D01*
X8597612Y-61974396D01*
X8597616Y-61974395D01*
X8760621Y-61840621D01*
X8894395Y-61677616D01*
X8894396Y-61677612D01*
X8894399Y-61677610D01*
X8993797Y-61491649D01*
X8993797Y-61491648D01*
X8993799Y-61491645D01*
X9055011Y-61289855D01*
X9075680Y-61080000D01*
X9055011Y-60870145D01*
X8993799Y-60668355D01*
X8993797Y-60668352D01*
X8993797Y-60668350D01*
X8894399Y-60482389D01*
X8894394Y-60482383D01*
X8760621Y-60319378D01*
X8640888Y-60221117D01*
X8601553Y-60163371D01*
X8599682Y-60093526D01*
X8631869Y-60037584D01*
X10789455Y-57879999D01*
X21672609Y-57879999D01*
X21672609Y-57880000D01*
X21690498Y-58015877D01*
X21690499Y-58015881D01*
X21742942Y-58142493D01*
X21742943Y-58142495D01*
X21742944Y-58142496D01*
X21826375Y-58251225D01*
X21935104Y-58334656D01*
X22061722Y-58387102D01*
X22181791Y-58402909D01*
X22197599Y-58404991D01*
X22197600Y-58404991D01*
X22197601Y-58404991D01*
X22211761Y-58403126D01*
X22333478Y-58387102D01*
X22460096Y-58334656D01*
X22568825Y-58251225D01*
X22570522Y-58249014D01*
X22572430Y-58247620D01*
X22574576Y-58245475D01*
X22574910Y-58245809D01*
X22626950Y-58207811D01*
X22668898Y-58200500D01*
X32654291Y-58200500D01*
X32721330Y-58220185D01*
X32767085Y-58272989D01*
X32777230Y-58308314D01*
X32784598Y-58364276D01*
X32784599Y-58364281D01*
X32837042Y-58490893D01*
X32837043Y-58490895D01*
X32837044Y-58490896D01*
X32920475Y-58599625D01*
X33029204Y-58683056D01*
X33155822Y-58735502D01*
X33275891Y-58751309D01*
X33291699Y-58753391D01*
X33291700Y-58753391D01*
X33291701Y-58753391D01*
X33305861Y-58751526D01*
X33427578Y-58735502D01*
X33554196Y-58683056D01*
X33662925Y-58599625D01*
X33746356Y-58490896D01*
X33798802Y-58364278D01*
X33816691Y-58228400D01*
X33815609Y-58220185D01*
X33805381Y-58142496D01*
X33798802Y-58092522D01*
X33746356Y-57965905D01*
X33662925Y-57857175D01*
X33662923Y-57857174D01*
X33662923Y-57857173D01*
X33660714Y-57855478D01*
X33659320Y-57853569D01*
X33657175Y-57851424D01*
X33657509Y-57851089D01*
X33619511Y-57799050D01*
X33612200Y-57757102D01*
X33612200Y-55994399D01*
X35451909Y-55994399D01*
X35451909Y-55994400D01*
X35469798Y-56130277D01*
X35469799Y-56130281D01*
X35522242Y-56256893D01*
X35522243Y-56256895D01*
X35522244Y-56256896D01*
X35605675Y-56365625D01*
X35714404Y-56449056D01*
X35841022Y-56501502D01*
X35961091Y-56517309D01*
X35976899Y-56519391D01*
X35976900Y-56519391D01*
X35976901Y-56519391D01*
X35991061Y-56517526D01*
X36112778Y-56501502D01*
X36146165Y-56487672D01*
X36215630Y-56480203D01*
X36278110Y-56511476D01*
X36281297Y-56514552D01*
X41728614Y-61961869D01*
X41762099Y-62023192D01*
X41763874Y-62065724D01*
X41763509Y-62068500D01*
X41772265Y-62135011D01*
X41781398Y-62204377D01*
X41781399Y-62204381D01*
X41833842Y-62330993D01*
X41833843Y-62330995D01*
X41833844Y-62330996D01*
X41917275Y-62439725D01*
X42026004Y-62523156D01*
X42152622Y-62575602D01*
X42272691Y-62591409D01*
X42288499Y-62593491D01*
X42288500Y-62593491D01*
X42288501Y-62593491D01*
X42302661Y-62591626D01*
X42424378Y-62575602D01*
X42550996Y-62523156D01*
X42659725Y-62439725D01*
X42743156Y-62330996D01*
X42795602Y-62204378D01*
X42813491Y-62068500D01*
X42795602Y-61932622D01*
X42743156Y-61806005D01*
X42659725Y-61697275D01*
X42550996Y-61613844D01*
X42550995Y-61613843D01*
X42550993Y-61613842D01*
X42424381Y-61561399D01*
X42424379Y-61561398D01*
X42424378Y-61561398D01*
X42351885Y-61551854D01*
X42288501Y-61543509D01*
X42288498Y-61543509D01*
X42285724Y-61543874D01*
X42283385Y-61543509D01*
X42280374Y-61543509D01*
X42280374Y-61543039D01*
X42216690Y-61533102D01*
X42181869Y-61508614D01*
X36477934Y-55804679D01*
X36477932Y-55804676D01*
X36467660Y-55794404D01*
X36440781Y-55754177D01*
X36431556Y-55731905D01*
X36348125Y-55623175D01*
X36239396Y-55539744D01*
X36239395Y-55539743D01*
X36239393Y-55539742D01*
X36112781Y-55487299D01*
X36112779Y-55487298D01*
X36112778Y-55487298D01*
X36044839Y-55478353D01*
X35976901Y-55469409D01*
X35976899Y-55469409D01*
X35841022Y-55487298D01*
X35841018Y-55487299D01*
X35714405Y-55539743D01*
X35605675Y-55623175D01*
X35522243Y-55731905D01*
X35469799Y-55858518D01*
X35469798Y-55858522D01*
X35451909Y-55994399D01*
X33612200Y-55994399D01*
X33612200Y-40903699D01*
X59198009Y-40903699D01*
X59198009Y-40903700D01*
X59215898Y-41039577D01*
X59215899Y-41039581D01*
X59268342Y-41166193D01*
X59268343Y-41166195D01*
X59268344Y-41166196D01*
X59351775Y-41274925D01*
X59460504Y-41358356D01*
X59587122Y-41410802D01*
X59707191Y-41426609D01*
X59722999Y-41428691D01*
X59723000Y-41428691D01*
X59723001Y-41428691D01*
X59737161Y-41426826D01*
X59858878Y-41410802D01*
X59985496Y-41358356D01*
X60094225Y-41274925D01*
X60177656Y-41166196D01*
X60230102Y-41039578D01*
X60247991Y-40903700D01*
X60230102Y-40767822D01*
X60177656Y-40641205D01*
X60094225Y-40532475D01*
X60094223Y-40532474D01*
X60094223Y-40532473D01*
X60092014Y-40530778D01*
X60090620Y-40528869D01*
X60088475Y-40526724D01*
X60088809Y-40526389D01*
X60050811Y-40474350D01*
X60043500Y-40432402D01*
X60043500Y-34999299D01*
X68700009Y-34999299D01*
X68700009Y-34999300D01*
X68717898Y-35135177D01*
X68717899Y-35135181D01*
X68770343Y-35261794D01*
X68770344Y-35261796D01*
X68853775Y-35370526D01*
X68855984Y-35372221D01*
X68857375Y-35374126D01*
X68859522Y-35376273D01*
X68859187Y-35376607D01*
X68897188Y-35428648D01*
X68904500Y-35470598D01*
X68904500Y-52305802D01*
X68884815Y-52372841D01*
X68855986Y-52404178D01*
X68853776Y-52405873D01*
X68770343Y-52514605D01*
X68717899Y-52641218D01*
X68717898Y-52641222D01*
X68700009Y-52777099D01*
X68700009Y-52777100D01*
X68717898Y-52912977D01*
X68717899Y-52912981D01*
X68770342Y-53039593D01*
X68770343Y-53039595D01*
X68770344Y-53039596D01*
X68853775Y-53148325D01*
X68962504Y-53231756D01*
X69089122Y-53284202D01*
X69225000Y-53302091D01*
X69227761Y-53301727D01*
X69230094Y-53302091D01*
X69233128Y-53302091D01*
X69233128Y-53302564D01*
X69296795Y-53312491D01*
X69331630Y-53336985D01*
X70016981Y-54022336D01*
X70050466Y-54083659D01*
X70053300Y-54110017D01*
X70053300Y-56547002D01*
X70033615Y-56614041D01*
X70004786Y-56645378D01*
X70002576Y-56647073D01*
X69919143Y-56755805D01*
X69866699Y-56882418D01*
X69866698Y-56882422D01*
X69848809Y-57018299D01*
X69848809Y-57018300D01*
X69866698Y-57154177D01*
X69866699Y-57154181D01*
X69919142Y-57280793D01*
X69919143Y-57280795D01*
X69919144Y-57280796D01*
X70002575Y-57389525D01*
X70111304Y-57472956D01*
X70111305Y-57472956D01*
X70111306Y-57472957D01*
X70120722Y-57476857D01*
X70237922Y-57525402D01*
X70347398Y-57539815D01*
X70373799Y-57543291D01*
X70373800Y-57543291D01*
X70373801Y-57543291D01*
X70400202Y-57539815D01*
X70509678Y-57525402D01*
X70636296Y-57472956D01*
X70745025Y-57389525D01*
X70746722Y-57387314D01*
X70748630Y-57385920D01*
X70750776Y-57383775D01*
X70751110Y-57384109D01*
X70803150Y-57346111D01*
X70845098Y-57338800D01*
X78506410Y-57338800D01*
X78573449Y-57358485D01*
X78604785Y-57387313D01*
X78609475Y-57393425D01*
X78718204Y-57476856D01*
X78718205Y-57476856D01*
X78718206Y-57476857D01*
X78737839Y-57484989D01*
X78844822Y-57529302D01*
X78964891Y-57545109D01*
X78980699Y-57547191D01*
X78980700Y-57547191D01*
X78980701Y-57547191D01*
X78994861Y-57545326D01*
X79116578Y-57529302D01*
X79243196Y-57476856D01*
X79351925Y-57393425D01*
X79435356Y-57284696D01*
X79435359Y-57284686D01*
X79437111Y-57281655D01*
X79439264Y-57279601D01*
X79440303Y-57278248D01*
X79440514Y-57278409D01*
X79487676Y-57233438D01*
X79556283Y-57220213D01*
X79621149Y-57246179D01*
X79661679Y-57303092D01*
X79668500Y-57343652D01*
X79668500Y-61826883D01*
X79648815Y-61893922D01*
X79632181Y-61914564D01*
X78403564Y-63143181D01*
X78342241Y-63176666D01*
X78315883Y-63179500D01*
X77330000Y-63179500D01*
X77273960Y-63185525D01*
X77273957Y-63185525D01*
X77273956Y-63185526D01*
X77147195Y-63232805D01*
X77038884Y-63313884D01*
X76957805Y-63422195D01*
X76910527Y-63548954D01*
X76910525Y-63548960D01*
X76904500Y-63605000D01*
X76904500Y-64395000D01*
X76910525Y-64451040D01*
X76910525Y-64451042D01*
X76910526Y-64451043D01*
X76957805Y-64577804D01*
X77038884Y-64686115D01*
X77051662Y-64695680D01*
X77147195Y-64767194D01*
X77273960Y-64814475D01*
X77330000Y-64820500D01*
X77330010Y-64820500D01*
X78669990Y-64820500D01*
X78670000Y-64820500D01*
X78726040Y-64814475D01*
X78852805Y-64767194D01*
X78961115Y-64686115D01*
X79042194Y-64577805D01*
X79089475Y-64451040D01*
X79095500Y-64395000D01*
X79095500Y-63605000D01*
X79089475Y-63548960D01*
X79067017Y-63488750D01*
X79062032Y-63419059D01*
X79095515Y-63357738D01*
X80175582Y-62277672D01*
X80175587Y-62277668D01*
X80185790Y-62267464D01*
X80185792Y-62267464D01*
X80245464Y-62207792D01*
X80287659Y-62134709D01*
X80294093Y-62110695D01*
X80309501Y-62053194D01*
X80309501Y-61968805D01*
X80309501Y-61961210D01*
X80309500Y-61961192D01*
X80309500Y-28826398D01*
X80329185Y-28759359D01*
X80358016Y-28728021D01*
X80360224Y-28726326D01*
X80411167Y-28659936D01*
X80443656Y-28617596D01*
X80496102Y-28490978D01*
X80513991Y-28355100D01*
X80496102Y-28219222D01*
X80443656Y-28092605D01*
X80360225Y-27983875D01*
X80251496Y-27900444D01*
X80251495Y-27900443D01*
X80251493Y-27900442D01*
X80124881Y-27847999D01*
X80124879Y-27847998D01*
X80124878Y-27847998D01*
X80056939Y-27839053D01*
X79989001Y-27830109D01*
X79988999Y-27830109D01*
X79853122Y-27847998D01*
X79853118Y-27847999D01*
X79726505Y-27900443D01*
X79617775Y-27983875D01*
X79534343Y-28092605D01*
X79481899Y-28219218D01*
X79481898Y-28219222D01*
X79464009Y-28355099D01*
X79464009Y-28355100D01*
X79481898Y-28490977D01*
X79481899Y-28490981D01*
X79534343Y-28617594D01*
X79534344Y-28617596D01*
X79617775Y-28726326D01*
X79619984Y-28728021D01*
X79621375Y-28729926D01*
X79623522Y-28732073D01*
X79623187Y-28732407D01*
X79661188Y-28784448D01*
X79668500Y-28826398D01*
X79668500Y-56700747D01*
X79648815Y-56767786D01*
X79596011Y-56813541D01*
X79526853Y-56823485D01*
X79463297Y-56794460D01*
X79437114Y-56762749D01*
X79435357Y-56759705D01*
X79351926Y-56650976D01*
X79339353Y-56641328D01*
X79243196Y-56567544D01*
X79243195Y-56567543D01*
X79243193Y-56567542D01*
X79116581Y-56515099D01*
X79116579Y-56515098D01*
X79116578Y-56515098D01*
X79048639Y-56506153D01*
X78980701Y-56497209D01*
X78980699Y-56497209D01*
X78844822Y-56515098D01*
X78844818Y-56515099D01*
X78718205Y-56567543D01*
X78609473Y-56650976D01*
X78603728Y-56656722D01*
X78602403Y-56655397D01*
X78554338Y-56690491D01*
X78512395Y-56697800D01*
X70845098Y-56697800D01*
X70778059Y-56678115D01*
X70746721Y-56649284D01*
X70745026Y-56647075D01*
X70742814Y-56645378D01*
X70741420Y-56643469D01*
X70739279Y-56641328D01*
X70739612Y-56640994D01*
X70701611Y-56588950D01*
X70694300Y-56547002D01*
X70694300Y-53978097D01*
X70694301Y-53978084D01*
X70694301Y-53883709D01*
X70694301Y-53883706D01*
X70672460Y-53802192D01*
X70654626Y-53771304D01*
X70630264Y-53729108D01*
X70570592Y-53669436D01*
X70570591Y-53669435D01*
X70566261Y-53665105D01*
X70566250Y-53665095D01*
X69784885Y-52883730D01*
X69751400Y-52822407D01*
X69749627Y-52779863D01*
X69749991Y-52777100D01*
X69732102Y-52641222D01*
X69679656Y-52514605D01*
X69596225Y-52405875D01*
X69596223Y-52405874D01*
X69596223Y-52405873D01*
X69594014Y-52404178D01*
X69592620Y-52402269D01*
X69590475Y-52400124D01*
X69590809Y-52399789D01*
X69552811Y-52347750D01*
X69545500Y-52305802D01*
X69545500Y-35470598D01*
X69565185Y-35403559D01*
X69594016Y-35372221D01*
X69596224Y-35370526D01*
X69596225Y-35370525D01*
X69679656Y-35261796D01*
X69732102Y-35135178D01*
X69749991Y-34999300D01*
X69732102Y-34863422D01*
X69679656Y-34736805D01*
X69596225Y-34628075D01*
X69487496Y-34544644D01*
X69487495Y-34544643D01*
X69487493Y-34544642D01*
X69360881Y-34492199D01*
X69360879Y-34492198D01*
X69360878Y-34492198D01*
X69292939Y-34483253D01*
X69225001Y-34474309D01*
X69224999Y-34474309D01*
X69089122Y-34492198D01*
X69089118Y-34492199D01*
X68962505Y-34544643D01*
X68853775Y-34628075D01*
X68770343Y-34736805D01*
X68717899Y-34863418D01*
X68717898Y-34863422D01*
X68700009Y-34999299D01*
X60043500Y-34999299D01*
X60043500Y-29100516D01*
X60063185Y-29033477D01*
X60079814Y-29012840D01*
X72700070Y-16392583D01*
X72761391Y-16359100D01*
X72803935Y-16357327D01*
X72806700Y-16357691D01*
X72942578Y-16339802D01*
X73069196Y-16287356D01*
X73177925Y-16203925D01*
X73261356Y-16095196D01*
X73313802Y-15968578D01*
X73331691Y-15832700D01*
X73313802Y-15696822D01*
X73261356Y-15570205D01*
X73177925Y-15461475D01*
X73069196Y-15378044D01*
X73069195Y-15378043D01*
X73069193Y-15378042D01*
X72942581Y-15325599D01*
X72942579Y-15325598D01*
X72942578Y-15325598D01*
X72874639Y-15316653D01*
X72806701Y-15307709D01*
X72806699Y-15307709D01*
X72670822Y-15325598D01*
X72670818Y-15325599D01*
X72544205Y-15378043D01*
X72435475Y-15461475D01*
X72352043Y-15570205D01*
X72299599Y-15696818D01*
X72299598Y-15696822D01*
X72281709Y-15832699D01*
X72281709Y-15832703D01*
X72282073Y-15835470D01*
X72281709Y-15837803D01*
X72281709Y-15840827D01*
X72281237Y-15840827D01*
X72271303Y-15904504D01*
X72246814Y-15939329D01*
X59526210Y-28659934D01*
X59466538Y-28719605D01*
X59466536Y-28719608D01*
X59424341Y-28792690D01*
X59402500Y-28874203D01*
X59402500Y-40432402D01*
X59382815Y-40499441D01*
X59353986Y-40530778D01*
X59351776Y-40532473D01*
X59268343Y-40641205D01*
X59215899Y-40767818D01*
X59215898Y-40767822D01*
X59198009Y-40903699D01*
X33612200Y-40903699D01*
X33612200Y-25570216D01*
X33631885Y-25503177D01*
X33648514Y-25482540D01*
X40402170Y-18728883D01*
X40463491Y-18695400D01*
X40506035Y-18693627D01*
X40508800Y-18693991D01*
X40644678Y-18676102D01*
X40771296Y-18623656D01*
X40880025Y-18540225D01*
X40963456Y-18431496D01*
X41015902Y-18304878D01*
X41033791Y-18169000D01*
X41015902Y-18033122D01*
X40963456Y-17906505D01*
X40880025Y-17797775D01*
X40771296Y-17714344D01*
X40771295Y-17714343D01*
X40771293Y-17714342D01*
X40644681Y-17661899D01*
X40644679Y-17661898D01*
X40644678Y-17661898D01*
X40576739Y-17652953D01*
X40508801Y-17644009D01*
X40508799Y-17644009D01*
X40372922Y-17661898D01*
X40372918Y-17661899D01*
X40246305Y-17714343D01*
X40137575Y-17797775D01*
X40054143Y-17906505D01*
X40001699Y-18033118D01*
X40001698Y-18033122D01*
X39983809Y-18168999D01*
X39983809Y-18169003D01*
X39984173Y-18171770D01*
X39983809Y-18174103D01*
X39983809Y-18177127D01*
X39983337Y-18177127D01*
X39973403Y-18240804D01*
X39948914Y-18275629D01*
X33094910Y-25129634D01*
X33035238Y-25189305D01*
X33035236Y-25189308D01*
X32993041Y-25262390D01*
X32971200Y-25343903D01*
X32971200Y-57435500D01*
X32951515Y-57502539D01*
X32898711Y-57548294D01*
X32847200Y-57559500D01*
X22668898Y-57559500D01*
X22601859Y-57539815D01*
X22570521Y-57510984D01*
X22568826Y-57508775D01*
X22460096Y-57425344D01*
X22460094Y-57425343D01*
X22333481Y-57372899D01*
X22333479Y-57372898D01*
X22333478Y-57372898D01*
X22265539Y-57363953D01*
X22197601Y-57355009D01*
X22197599Y-57355009D01*
X22061722Y-57372898D01*
X22061718Y-57372899D01*
X21935105Y-57425343D01*
X21826375Y-57508775D01*
X21742943Y-57617505D01*
X21690499Y-57744118D01*
X21690498Y-57744122D01*
X21672609Y-57879999D01*
X10789455Y-57879999D01*
X16261464Y-52407992D01*
X16303659Y-52334909D01*
X16325500Y-52253395D01*
X16325500Y-52169006D01*
X16325500Y-21301298D01*
X16345185Y-21234259D01*
X16374016Y-21202921D01*
X16376224Y-21201226D01*
X16376225Y-21201225D01*
X16459656Y-21092496D01*
X16512102Y-20965878D01*
X16529991Y-20830000D01*
X16512102Y-20694122D01*
X16459656Y-20567505D01*
X16376225Y-20458775D01*
X16267496Y-20375344D01*
X16267495Y-20375343D01*
X16267493Y-20375342D01*
X16140881Y-20322899D01*
X16140879Y-20322898D01*
X16140878Y-20322898D01*
X16072939Y-20313953D01*
X16005001Y-20305009D01*
X16004999Y-20305009D01*
X15869122Y-20322898D01*
X15869118Y-20322899D01*
X15742505Y-20375343D01*
X15633775Y-20458775D01*
X15550343Y-20567505D01*
X15497899Y-20694118D01*
X15497898Y-20694122D01*
X15480009Y-20829999D01*
X15480009Y-20830000D01*
X15497898Y-20965877D01*
X15497899Y-20965881D01*
X15550343Y-21092494D01*
X15550344Y-21092496D01*
X15633775Y-21201226D01*
X15635984Y-21202921D01*
X15637375Y-21204826D01*
X15639522Y-21206973D01*
X15639187Y-21207307D01*
X15677188Y-21259348D01*
X15684500Y-21301298D01*
X15684500Y-52027081D01*
X15664815Y-52094120D01*
X15648181Y-52114762D01*
X9274269Y-58488673D01*
X9212946Y-58522158D01*
X9143254Y-58517174D01*
X9087321Y-58475302D01*
X9063186Y-58413147D01*
X9055011Y-58330145D01*
X8993799Y-58128355D01*
X8993797Y-58128352D01*
X8993797Y-58128350D01*
X8894399Y-57942389D01*
X8894394Y-57942383D01*
X8760621Y-57779378D01*
X8597616Y-57645605D01*
X8597610Y-57645600D01*
X8411649Y-57546202D01*
X8267710Y-57502539D01*
X8209855Y-57484989D01*
X8209853Y-57484988D01*
X8209855Y-57484988D01*
X8000000Y-57464320D01*
X7790146Y-57484988D01*
X7588350Y-57546202D01*
X7402389Y-57645600D01*
X7402383Y-57645605D01*
X7239378Y-57779378D01*
X7105605Y-57942383D01*
X7105600Y-57942389D01*
X7006202Y-58128350D01*
X6944988Y-58330146D01*
X6924320Y-58540000D01*
X1200000Y-58540000D01*
X1200000Y-55128276D01*
X6929500Y-55128276D01*
X6929500Y-56871717D01*
X6942293Y-56936035D01*
X6942294Y-56936038D01*
X6991027Y-57008971D01*
X6991028Y-57008972D01*
X7063965Y-57057707D01*
X7063966Y-57057707D01*
X7063967Y-57057708D01*
X7102483Y-57065368D01*
X7128281Y-57070500D01*
X8871718Y-57070499D01*
X8936035Y-57057707D01*
X9008972Y-57008972D01*
X9057707Y-56936035D01*
X9070500Y-56871719D01*
X9070499Y-55128282D01*
X9057707Y-55063965D01*
X9057705Y-55063963D01*
X9057705Y-55063961D01*
X9008972Y-54991028D01*
X8936036Y-54942294D01*
X8936035Y-54942293D01*
X8936034Y-54942292D01*
X8936033Y-54942292D01*
X8936032Y-54942291D01*
X8871721Y-54929500D01*
X7128282Y-54929500D01*
X7063964Y-54942293D01*
X7063961Y-54942294D01*
X6991028Y-54991027D01*
X6942292Y-55063966D01*
X6942291Y-55063967D01*
X6929500Y-55128276D01*
X1200000Y-55128276D01*
X1200000Y-12124000D01*
X1219685Y-12056961D01*
X1272489Y-12011206D01*
X1324000Y-12000000D01*
X93676000Y-12000000D01*
X93743039Y-12019685D01*
G37*
%TD.AperFunction*%
%TD*%
M02*
