%TF.GenerationSoftware,KiCad,Pcbnew,8.0.9-8.0.9-0~ubuntu24.04.1*%
%TF.CreationDate,2026-07-18T22:23:39+00:00*%
%TF.ProjectId,smart-glove,736d6172-742d-4676-9c6f-76652e6b6963,rev?*%
%TF.SameCoordinates,Original*%
%TF.FileFunction,Soldermask,Top*%
%TF.FilePolarity,Negative*%
%FSLAX46Y46*%
G04 Gerber Fmt 4.6, Leading zero omitted, Abs format (unit mm)*
G04 Created by KiCad (PCBNEW 8.0.9-8.0.9-0~ubuntu24.04.1) date 2026-07-18 22:23:39*
%MOMM*%
%LPD*%
G01*
G04 APERTURE LIST*
G04 Aperture macros list*
%AMRoundRect*
0 Rectangle with rounded corners*
0 $1 Rounding radius*
0 $2 $3 $4 $5 $6 $7 $8 $9 X,Y pos of 4 corners*
0 Add a 4 corners polygon primitive as box body*
4,1,4,$2,$3,$4,$5,$6,$7,$8,$9,$2,$3,0*
0 Add four circle primitives for the rounded corners*
1,1,$1+$1,$2,$3*
1,1,$1+$1,$4,$5*
1,1,$1+$1,$6,$7*
1,1,$1+$1,$8,$9*
0 Add four rect primitives between the rounded corners*
20,1,$1+$1,$2,$3,$4,$5,0*
20,1,$1+$1,$4,$5,$6,$7,0*
20,1,$1+$1,$6,$7,$8,$9,0*
20,1,$1+$1,$8,$9,$2,$3,0*%
G04 Aperture macros list end*
%ADD10C,2.200000*%
%ADD11RoundRect,0.200000X-0.200000X-0.275000X0.200000X-0.275000X0.200000X0.275000X-0.200000X0.275000X0*%
%ADD12RoundRect,0.250000X-0.250000X-0.475000X0.250000X-0.475000X0.250000X0.475000X-0.250000X0.475000X0*%
%ADD13RoundRect,0.218750X-0.218750X-0.256250X0.218750X-0.256250X0.218750X0.256250X-0.218750X0.256250X0*%
%ADD14RoundRect,0.225000X-0.225000X-0.250000X0.225000X-0.250000X0.225000X0.250000X-0.225000X0.250000X0*%
%ADD15RoundRect,0.150000X-0.825000X-0.150000X0.825000X-0.150000X0.825000X0.150000X-0.825000X0.150000X0*%
%ADD16R,1.500000X0.900000*%
%ADD17R,0.900000X1.500000*%
%ADD18C,0.600000*%
%ADD19R,4.200000X4.200000*%
%ADD20R,0.900000X1.700000*%
%ADD21C,0.650000*%
%ADD22R,0.600000X1.450000*%
%ADD23R,0.300000X1.450000*%
%ADD24O,1.000000X2.100000*%
%ADD25O,1.000000X1.600000*%
%ADD26RoundRect,0.075000X-0.350000X-0.075000X0.350000X-0.075000X0.350000X0.075000X-0.350000X0.075000X0*%
%ADD27RoundRect,0.075000X0.075000X-0.350000X0.075000X0.350000X-0.075000X0.350000X-0.075000X-0.350000X0*%
%ADD28RoundRect,0.250000X0.625000X-0.350000X0.625000X0.350000X-0.625000X0.350000X-0.625000X-0.350000X0*%
%ADD29O,1.750000X1.200000*%
%ADD30RoundRect,0.375000X-0.375000X0.625000X-0.375000X-0.625000X0.375000X-0.625000X0.375000X0.625000X0*%
%ADD31RoundRect,0.500000X-1.400000X0.500000X-1.400000X-0.500000X1.400000X-0.500000X1.400000X0.500000X0*%
%ADD32R,1.700000X1.700000*%
%ADD33O,1.700000X1.700000*%
G04 APERTURE END LIST*
D10*
%TO.C,H3*%
X3500000Y-48500000D03*
%TD*%
D11*
%TO.C,R6*%
X31175000Y-42000000D03*
X32825000Y-42000000D03*
%TD*%
D12*
%TO.C,C10*%
X47550000Y-38500000D03*
X49450000Y-38500000D03*
%TD*%
D13*
%TO.C,D1*%
X13212500Y-40500000D03*
X14787500Y-40500000D03*
%TD*%
D14*
%TO.C,C1*%
X35225000Y-40000000D03*
X36775000Y-40000000D03*
%TD*%
D13*
%TO.C,D2*%
X57712500Y-8000000D03*
X59287500Y-8000000D03*
%TD*%
D11*
%TO.C,R7*%
X43175000Y-40000000D03*
X44825000Y-40000000D03*
%TD*%
D12*
%TO.C,C6*%
X53050000Y-16500000D03*
X54950000Y-16500000D03*
%TD*%
D11*
%TO.C,R8*%
X53175000Y-8000000D03*
X54825000Y-8000000D03*
%TD*%
%TO.C,R1*%
X11175000Y-10000000D03*
X12825000Y-10000000D03*
%TD*%
%TO.C,R2*%
X11175000Y-13600000D03*
X12825000Y-13600000D03*
%TD*%
%TO.C,R10*%
X16675000Y-43000000D03*
X18325000Y-43000000D03*
%TD*%
D15*
%TO.C,U2*%
X61525000Y-10095000D03*
X61525000Y-11365000D03*
X61525000Y-12635000D03*
X61525000Y-13905000D03*
X66475000Y-13905000D03*
X66475000Y-12635000D03*
X66475000Y-11365000D03*
X66475000Y-10095000D03*
%TD*%
D16*
%TO.C,U1*%
X29250000Y-9750000D03*
X29250000Y-11020000D03*
X29250000Y-12290000D03*
X29250000Y-13560000D03*
X29250000Y-14830000D03*
X29250000Y-16100000D03*
X29250000Y-17370000D03*
X29250000Y-18640000D03*
X29250000Y-19910000D03*
X29250000Y-21180000D03*
X29250000Y-22450000D03*
X29250000Y-23720000D03*
X29250000Y-24990000D03*
X29250000Y-26260000D03*
D17*
X32290000Y-27510000D03*
X33560000Y-27510000D03*
X34830000Y-27510000D03*
X36100000Y-27510000D03*
X37370000Y-27510000D03*
X38640000Y-27510000D03*
X39910000Y-27510000D03*
X41180000Y-27510000D03*
X42450000Y-27510000D03*
X43720000Y-27510000D03*
D16*
X46750000Y-26260000D03*
X46750000Y-24990000D03*
X46750000Y-23720000D03*
X46750000Y-22450000D03*
X46750000Y-21180000D03*
X46750000Y-19910000D03*
X46750000Y-18640000D03*
X46750000Y-17370000D03*
X46750000Y-16100000D03*
X46750000Y-14830000D03*
X46750000Y-13560000D03*
X46750000Y-12290000D03*
X46750000Y-11020000D03*
X46750000Y-9750000D03*
D18*
X35795000Y-16327500D03*
X35795000Y-17852500D03*
X36557500Y-15565000D03*
X36557500Y-17090000D03*
X36557500Y-18615000D03*
X37320000Y-16327500D03*
D19*
X37320000Y-17090000D03*
D18*
X37320000Y-17852500D03*
X38082500Y-15565000D03*
X38082500Y-17090000D03*
X38082500Y-18615000D03*
X38845000Y-16327500D03*
X38845000Y-17852500D03*
%TD*%
D20*
%TO.C,SW1*%
X20300000Y-43000000D03*
X23700000Y-43000000D03*
%TD*%
D10*
%TO.C,H2*%
X71500000Y-3500000D03*
%TD*%
%TO.C,H4*%
X71500000Y-40000000D03*
%TD*%
D12*
%TO.C,C5*%
X53050000Y-12000000D03*
X54950000Y-12000000D03*
%TD*%
D11*
%TO.C,R9*%
X13175000Y-43000000D03*
X14825000Y-43000000D03*
%TD*%
D21*
%TO.C,J1*%
X39110000Y-45200000D03*
X44890000Y-45200000D03*
D22*
X38750000Y-43755000D03*
X39550000Y-43755000D03*
D23*
X40750000Y-43755000D03*
X41750000Y-43755000D03*
X42250000Y-43755000D03*
X43250000Y-43755000D03*
D22*
X44450000Y-43755000D03*
X45250000Y-43755000D03*
X45250000Y-43755000D03*
X44450000Y-43755000D03*
D23*
X43750000Y-43755000D03*
X42750000Y-43755000D03*
X41250000Y-43755000D03*
X40250000Y-43755000D03*
D22*
X39550000Y-43755000D03*
X38750000Y-43755000D03*
D24*
X37680000Y-44670000D03*
D25*
X37680000Y-48850000D03*
D24*
X46320000Y-44670000D03*
D25*
X46320000Y-48850000D03*
%TD*%
D20*
%TO.C,SW2*%
X25300000Y-43000000D03*
X28700000Y-43000000D03*
%TD*%
D11*
%TO.C,R5*%
X13175000Y-38500000D03*
X14825000Y-38500000D03*
%TD*%
D13*
%TO.C,D3*%
X16712500Y-40500000D03*
X18287500Y-40500000D03*
%TD*%
D26*
%TO.C,U4*%
X56050000Y-38750000D03*
X56050000Y-39250000D03*
X56050000Y-39750000D03*
X56050000Y-40250000D03*
X56050000Y-40750000D03*
X56050000Y-41250000D03*
D27*
X56750000Y-41950000D03*
X57250000Y-41950000D03*
X57750000Y-41950000D03*
X58250000Y-41950000D03*
X58750000Y-41950000D03*
X59250000Y-41950000D03*
D26*
X59950000Y-41250000D03*
X59950000Y-40750000D03*
X59950000Y-40250000D03*
X59950000Y-39750000D03*
X59950000Y-39250000D03*
X59950000Y-38750000D03*
D27*
X59250000Y-38050000D03*
X58750000Y-38050000D03*
X58250000Y-38050000D03*
X57750000Y-38050000D03*
X57250000Y-38050000D03*
X56750000Y-38050000D03*
%TD*%
D11*
%TO.C,R3*%
X11175000Y-17200000D03*
X12825000Y-17200000D03*
%TD*%
D28*
%TO.C,J3*%
X65000000Y-48000000D03*
D29*
X65000000Y-46000000D03*
%TD*%
D14*
%TO.C,C2*%
X38725000Y-40000000D03*
X40275000Y-40000000D03*
%TD*%
%TO.C,C7*%
X53225000Y-20500000D03*
X54775000Y-20500000D03*
%TD*%
%TO.C,C9*%
X53225000Y-45000000D03*
X54775000Y-45000000D03*
%TD*%
D10*
%TO.C,H1*%
X3500000Y-3500000D03*
%TD*%
D30*
%TO.C,U3*%
X66300000Y-18850000D03*
X64000000Y-18850000D03*
X61700000Y-18850000D03*
D31*
X64000000Y-25150000D03*
%TD*%
D11*
%TO.C,R4*%
X11175000Y-20800000D03*
X12825000Y-20800000D03*
%TD*%
%TO.C,R11*%
X11175000Y-24400000D03*
X12825000Y-24400000D03*
%TD*%
D32*
%TO.C,J2*%
X10000000Y-48500000D03*
D33*
X12540000Y-48500000D03*
X15080000Y-48500000D03*
X17620000Y-48500000D03*
X20160000Y-48500000D03*
X22700000Y-48500000D03*
X25240000Y-48500000D03*
%TD*%
M02*
