M48
; DRILL file {KiCad 8.0.9-8.0.9-0~ubuntu24.04.1} date 2026-07-18T23:15:57+0000
; FORMAT={-:-/ absolute / metric / decimal}
; #@! TF.CreationDate,2026-07-18T23:15:57+00:00
; #@! TF.GenerationSoftware,Kicad,Pcbnew,8.0.9-8.0.9-0~ubuntu24.04.1
; #@! TF.FileFunction,MixedPlating,1,2
FMAT,2
METRIC
; #@! TA.AperFunction,Plated,PTH,ComponentDrill
T1C0.200
; #@! TA.AperFunction,Plated,PTH,ViaDrill
T2C0.300
; #@! TA.AperFunction,Plated,PTH,ComponentDrill
T3C0.600
; #@! TA.AperFunction,Plated,PTH,ComponentDrill
T4C0.750
; #@! TA.AperFunction,Plated,PTH,ComponentDrill
T5C1.000
; #@! TA.AperFunction,NonPlated,NPTH,ComponentDrill
T6C0.650
; #@! TA.AperFunction,NonPlated,NPTH,ComponentDrill
T7C2.200
%
G90
G05
T1
X33.795Y-16.328
X33.795Y-17.852
X34.557Y-15.565
X34.557Y-17.09
X34.557Y-18.615
X35.32Y-16.328
X35.32Y-17.852
X36.082Y-15.565
X36.082Y-17.09
X36.082Y-18.615
X36.845Y-16.328
X36.845Y-17.852
T2
X12.045Y-14.83
X12.896Y-16.113
X13.01Y-12.835
X18.672Y-18.017
X21.56Y-18.835
X28.122Y-37.422
X28.287Y-35.039
X28.505Y-11.02
X29.192Y-35.05
X29.25Y-39.009
X31.379Y-32.708
X31.946Y-42.078
X32.224Y-32.43
X32.385Y-36.527
X32.835Y-44.629
X33.075Y-38.124
X34.471Y-28.765
X34.988Y-35.5
X40.463Y-16.1
X42.821Y-26.26
X43.361Y-18.64
X43.493Y-13.656
X43.495Y-12.495
X43.55Y-42.718
X43.579Y-32.531
X44.04Y-30.825
X47.529Y-12.973
X50.475Y-28.746
X57.149Y-13.738
T4
X67.0Y-46.0
X67.0Y-48.0
T5
X8.0Y-48.5
X10.54Y-48.5
X13.08Y-48.5
X15.62Y-48.5
X18.16Y-48.5
X20.7Y-48.5
X23.24Y-48.5
X28.0Y-48.5
X30.54Y-48.5
X33.08Y-48.5
X35.62Y-48.5
T6
X43.11Y-45.4
X48.89Y-45.4
T7
X3.5Y-3.5
X3.5Y-48.5
X68.5Y-3.5
X68.5Y-32.0
T3
X41.68Y-44.32G85X41.68Y-45.42
G05
X41.68Y-48.75G85X41.68Y-49.35
G05
X50.32Y-44.32G85X50.32Y-45.42
G05
X50.32Y-48.75G85X50.32Y-49.35
G05
M30
