%TF.GenerationSoftware,KiCad,Pcbnew,8.0.9-8.0.9-0~ubuntu24.04.1*%
%TF.CreationDate,2026-07-18T23:15:57+00:00*%
%TF.ProjectId,smart-glove,736d6172-742d-4676-9c6f-76652e6b6963,rev?*%
%TF.SameCoordinates,Original*%
%TF.FileFunction,Copper,L2,Bot*%
%TF.FilePolarity,Positive*%
%FSLAX46Y46*%
G04 Gerber Fmt 4.6, Leading zero omitted, Abs format (unit mm)*
G04 Created by KiCad (PCBNEW 8.0.9-8.0.9-0~ubuntu24.04.1) date 2026-07-18 23:15:57*
%MOMM*%
%LPD*%
G01*
G04 APERTURE LIST*
G04 Aperture macros list*
%AMRoundRect*
0 Rectangle with rounded corners*
0 $1 Rounding radius*
0 $2 $3 $4 $5 $6 $7 $8 $9 X,Y pos of 4 corners*
0 Add a 4 corners polygon primitive as box body*
4,1,4,$2,$3,$4,$5,$6,$7,$8,$9,$2,$3,0*
0 Add four circle primitives for the rounded corners*
1,1,$1+$1,$2,$3*
1,1,$1+$1,$4,$5*
1,1,$1+$1,$6,$7*
1,1,$1+$1,$8,$9*
0 Add four rect primitives between the rounded corners*
20,1,$1+$1,$2,$3,$4,$5,0*
20,1,$1+$1,$4,$5,$6,$7,0*
20,1,$1+$1,$6,$7,$8,$9,0*
20,1,$1+$1,$8,$9,$2,$3,0*%
G04 Aperture macros list end*
%TA.AperFunction,ComponentPad*%
%ADD10R,1.700000X1.700000*%
%TD*%
%TA.AperFunction,ComponentPad*%
%ADD11O,1.700000X1.700000*%
%TD*%
%TA.AperFunction,HeatsinkPad*%
%ADD12C,0.600000*%
%TD*%
%TA.AperFunction,ComponentPad*%
%ADD13O,1.000000X2.100000*%
%TD*%
%TA.AperFunction,ComponentPad*%
%ADD14O,1.000000X1.600000*%
%TD*%
%TA.AperFunction,ComponentPad*%
%ADD15RoundRect,0.250000X0.625000X-0.350000X0.625000X0.350000X-0.625000X0.350000X-0.625000X-0.350000X0*%
%TD*%
%TA.AperFunction,ComponentPad*%
%ADD16O,1.750000X1.200000*%
%TD*%
%TA.AperFunction,ViaPad*%
%ADD17C,0.600000*%
%TD*%
%TA.AperFunction,Conductor*%
%ADD18C,0.200000*%
%TD*%
G04 APERTURE END LIST*
D10*
%TO.P,J4,1*%
%TO.N,3V3*%
X28000000Y-48500000D03*
D11*
%TO.P,J4,2*%
%TO.N,UART_TX*%
X30540000Y-48500000D03*
%TO.P,J4,3*%
%TO.N,UART_RX*%
X33080000Y-48500000D03*
%TO.P,J4,4*%
%TO.N,GND*%
X35620000Y-48500000D03*
%TD*%
D10*
%TO.P,J2,1*%
%TO.N,3V3*%
X8000000Y-48500000D03*
D11*
%TO.P,J2,2*%
%TO.N,FLEX1*%
X10540000Y-48500000D03*
%TO.P,J2,3*%
%TO.N,FLEX2*%
X13080000Y-48500000D03*
%TO.P,J2,4*%
%TO.N,FLEX3*%
X15620000Y-48500000D03*
%TO.P,J2,5*%
%TO.N,FLEX4*%
X18160000Y-48500000D03*
%TO.P,J2,6*%
%TO.N,FLEX5*%
X20700000Y-48500000D03*
%TO.P,J2,7*%
%TO.N,GND*%
X23240000Y-48500000D03*
%TD*%
D12*
%TO.P,U1,39*%
%TO.N,GND*%
X33795000Y-16327500D03*
X33795000Y-17852500D03*
X34557500Y-15565000D03*
X34557500Y-17090000D03*
X34557500Y-18615000D03*
X35320000Y-16327500D03*
X35320000Y-17852500D03*
X36082500Y-15565000D03*
X36082500Y-17090000D03*
X36082500Y-18615000D03*
X36845000Y-16327500D03*
X36845000Y-17852500D03*
%TD*%
D13*
%TO.P,J1,S1*%
%TO.N,GND*%
X41680000Y-44870000D03*
D14*
X41680000Y-49050000D03*
D13*
X50320000Y-44870000D03*
D14*
X50320000Y-49050000D03*
%TD*%
D15*
%TO.P,J3,1*%
%TO.N,+BAT*%
X67000000Y-48000000D03*
D16*
%TO.P,J3,2*%
%TO.N,BAT_N*%
X67000000Y-46000000D03*
%TD*%
D17*
%TO.N,3V3*%
X47528600Y-12973400D03*
X28505100Y-11020000D03*
%TO.N,+5V*%
X57148800Y-13737600D03*
X43550000Y-42718500D03*
X50475000Y-28746400D03*
%TO.N,FLEX1*%
X13010500Y-12835500D03*
%TO.N,FLEX2*%
X12045300Y-14830000D03*
%TO.N,FLEX3*%
X12896000Y-16113400D03*
%TO.N,FLEX4*%
X18672000Y-18017500D03*
%TO.N,FLEX5*%
X21560000Y-18835000D03*
%TO.N,SDA*%
X40463100Y-16100000D03*
X28122200Y-37422200D03*
%TO.N,SCL*%
X29250000Y-39009500D03*
X43494900Y-12494900D03*
%TO.N,BOOT*%
X42821200Y-26260000D03*
X34987600Y-35499800D03*
%TO.N,STAT_LED*%
X34470700Y-28765200D03*
X29192400Y-35049500D03*
%TO.N,IMU_INT*%
X31946300Y-42078200D03*
X43361500Y-18640000D03*
%TO.N,CC1*%
X31378800Y-32707900D03*
X33074600Y-38123800D03*
%TO.N,CC2*%
X32835000Y-44629100D03*
X28287100Y-35039400D03*
%TO.N,UART_TX*%
X43492900Y-13655600D03*
X43578600Y-32530900D03*
%TO.N,UART_RX*%
X44039700Y-30825000D03*
%TO.N,DTR*%
X32224300Y-32429800D03*
X32385400Y-36526600D03*
%TD*%
D18*
%TO.N,GND*%
X41680000Y-49050000D02*
X41680000Y-44870000D01*
%TO.N,3V3*%
X8000000Y-48500000D02*
X9151700Y-48500000D01*
X28000000Y-48500000D02*
X28000000Y-47348300D01*
X10015500Y-49651700D02*
X25696600Y-49651700D01*
X9151700Y-48500000D02*
X9151700Y-48787900D01*
X26854200Y-46202500D02*
X28000000Y-47348300D01*
X46436600Y-11881400D02*
X47528600Y-12973400D01*
X26854200Y-15128700D02*
X26854200Y-46202500D01*
X29734000Y-12248900D02*
X30101500Y-11881400D01*
X29734000Y-12248900D02*
X26854200Y-15128700D01*
X25696600Y-49651700D02*
X26848300Y-48500000D01*
X28000000Y-48500000D02*
X26848300Y-48500000D01*
X30101500Y-11881400D02*
X46436600Y-11881400D01*
X29734000Y-12248900D02*
X28505100Y-11020000D01*
X9151700Y-48787900D02*
X10015500Y-49651700D01*
%TO.N,+5V*%
X50475000Y-35793500D02*
X43550000Y-42718500D01*
X50475000Y-28746400D02*
X50475000Y-35793500D01*
X57148800Y-22072600D02*
X57148800Y-13737600D01*
X50475000Y-28746400D02*
X57148800Y-22072600D01*
%TO.N,FLEX1*%
X10540000Y-15306000D02*
X13010500Y-12835500D01*
X10540000Y-48500000D02*
X10540000Y-15306000D01*
%TO.N,FLEX2*%
X13080000Y-47348300D02*
X12045300Y-46313600D01*
X12045300Y-46313600D02*
X12045300Y-14830000D01*
X13080000Y-48500000D02*
X13080000Y-47348300D01*
%TO.N,FLEX3*%
X15620000Y-18837400D02*
X12896000Y-16113400D01*
X15620000Y-48500000D02*
X15620000Y-18837400D01*
%TO.N,FLEX4*%
X18160000Y-18529500D02*
X18672000Y-18017500D01*
X18160000Y-48500000D02*
X18160000Y-18529500D01*
%TO.N,FLEX5*%
X21560000Y-18835000D02*
X20520900Y-19874100D01*
X20520900Y-19874100D02*
X20520900Y-47169200D01*
X20520900Y-47169200D02*
X20700000Y-47348300D01*
X20700000Y-48500000D02*
X20700000Y-47348300D01*
%TO.N,SDA*%
X27283700Y-29279400D02*
X27283700Y-36583700D01*
X27283700Y-36583700D02*
X28122200Y-37422200D01*
X40463100Y-16100000D02*
X27283700Y-29279400D01*
%TO.N,SCL*%
X27685400Y-31679900D02*
X27685400Y-35375600D01*
X41064800Y-14925000D02*
X41064800Y-18300500D01*
X29250000Y-36940200D02*
X29250000Y-39009500D01*
X27685400Y-35375600D02*
X29250000Y-36940200D01*
X41064800Y-18300500D02*
X27685400Y-31679900D01*
X43494900Y-12494900D02*
X41064800Y-14925000D01*
%TO.N,BOOT*%
X42822800Y-27664600D02*
X42822800Y-26260000D01*
X42822800Y-26260000D02*
X42821200Y-26260000D01*
X34987600Y-35499800D02*
X42822800Y-27664600D01*
%TO.N,STAT_LED*%
X29192400Y-34043500D02*
X29192400Y-35049500D01*
X34470700Y-28765200D02*
X29192400Y-34043500D01*
%TO.N,IMU_INT*%
X33803700Y-40220800D02*
X31946300Y-42078200D01*
X41776000Y-20225500D02*
X41776000Y-22904200D01*
X41776000Y-22904200D02*
X33803700Y-30876500D01*
X33803700Y-30876500D02*
X33803700Y-40220800D01*
X43361500Y-18640000D02*
X41776000Y-20225500D01*
%TO.N,CC1*%
X31378800Y-32707900D02*
X31378800Y-36428000D01*
X31378800Y-36428000D02*
X33074600Y-38123800D01*
%TO.N,CC2*%
X30671400Y-42465500D02*
X32835000Y-44629100D01*
X30671400Y-37423700D02*
X30671400Y-42465500D01*
X28287100Y-35039400D02*
X30671400Y-37423700D01*
%TO.N,UART_TX*%
X30540000Y-47348300D02*
X31010600Y-47348300D01*
X43423000Y-21517200D02*
X43995000Y-20945200D01*
X43995000Y-14157700D02*
X43492900Y-13655600D01*
X31010600Y-47348300D02*
X43578600Y-34780300D01*
X43995000Y-20945200D02*
X43995000Y-14157700D01*
X43578600Y-32530900D02*
X43423000Y-32375300D01*
X43578600Y-34780300D02*
X43578600Y-32530900D01*
X30540000Y-48500000D02*
X30540000Y-47348300D01*
X43423000Y-32375300D02*
X43423000Y-21517200D01*
%TO.N,UART_RX*%
X33080000Y-47348300D02*
X44190300Y-36238000D01*
X44190300Y-30975600D02*
X44039700Y-30825000D01*
X33080000Y-48500000D02*
X33080000Y-47348300D01*
X44190300Y-36238000D02*
X44190300Y-30975600D01*
%TO.N,DTR*%
X32224300Y-36365500D02*
X32385400Y-36526600D01*
X32224300Y-32429800D02*
X32224300Y-36365500D01*
%TD*%
%TA.AperFunction,Conductor*%
%TO.N,GND*%
G36*
X42991763Y-12200807D02*
G01*
X43027727Y-12250307D01*
X43027727Y-12311493D01*
X43023626Y-12322026D01*
X43009733Y-12352445D01*
X42989253Y-12494897D01*
X42989253Y-12494903D01*
X42992341Y-12516382D01*
X42981907Y-12576671D01*
X42964353Y-12600474D01*
X40880289Y-14684540D01*
X40880288Y-14684539D01*
X40824339Y-14740489D01*
X40784780Y-14809007D01*
X40784778Y-14809011D01*
X40764300Y-14885435D01*
X40764300Y-15534561D01*
X40745393Y-15592752D01*
X40695893Y-15628716D01*
X40637409Y-15629551D01*
X40535064Y-15599500D01*
X40535061Y-15599500D01*
X40391139Y-15599500D01*
X40391135Y-15599500D01*
X40253049Y-15640046D01*
X40253042Y-15640049D01*
X40131973Y-15717855D01*
X40037722Y-15826628D01*
X39977934Y-15957543D01*
X39957453Y-16099997D01*
X39957453Y-16100003D01*
X39960541Y-16121482D01*
X39950107Y-16181771D01*
X39932553Y-16205574D01*
X27323704Y-28814424D01*
X27269187Y-28842201D01*
X27208755Y-28832630D01*
X27165490Y-28789365D01*
X27154700Y-28744420D01*
X27154700Y-15294179D01*
X27173607Y-15235988D01*
X27183696Y-15224175D01*
X30196975Y-12210896D01*
X30251492Y-12183119D01*
X30266979Y-12181900D01*
X42933572Y-12181900D01*
X42991763Y-12200807D01*
G37*
%TD.AperFunction*%
%TA.AperFunction,Conductor*%
G36*
X70759191Y-8018907D02*
G01*
X70795155Y-8068407D01*
X70800000Y-8099000D01*
X70800000Y-50701000D01*
X70781093Y-50759191D01*
X70731593Y-50795155D01*
X70701000Y-50800000D01*
X1299000Y-50800000D01*
X1240809Y-50781093D01*
X1204845Y-50731593D01*
X1200000Y-50701000D01*
X1200000Y-48393709D01*
X2149500Y-48393709D01*
X2149500Y-48606290D01*
X2182752Y-48816238D01*
X2248443Y-49018412D01*
X2344948Y-49207815D01*
X2344950Y-49207819D01*
X2469891Y-49379786D01*
X2469893Y-49379788D01*
X2469896Y-49379792D01*
X2620208Y-49530104D01*
X2620211Y-49530106D01*
X2620213Y-49530108D01*
X2792180Y-49655049D01*
X2792184Y-49655051D01*
X2981588Y-49751557D01*
X3183757Y-49817246D01*
X3183758Y-49817246D01*
X3183761Y-49817247D01*
X3393710Y-49850500D01*
X3393713Y-49850500D01*
X3606290Y-49850500D01*
X3816238Y-49817247D01*
X3816239Y-49817246D01*
X3816243Y-49817246D01*
X4018412Y-49751557D01*
X4207816Y-49655051D01*
X4379792Y-49530104D01*
X4530104Y-49379792D01*
X4655051Y-49207816D01*
X4751557Y-49018412D01*
X4817246Y-48816243D01*
X4817247Y-48816238D01*
X4850500Y-48606290D01*
X4850500Y-48393709D01*
X4817247Y-48183761D01*
X4816218Y-48180593D01*
X4751557Y-47981588D01*
X4655051Y-47792184D01*
X4655049Y-47792180D01*
X4537402Y-47630253D01*
X6949500Y-47630253D01*
X6949500Y-49369746D01*
X6949501Y-49369758D01*
X6961132Y-49428227D01*
X6961134Y-49428233D01*
X7005445Y-49494548D01*
X7005448Y-49494552D01*
X7071769Y-49538867D01*
X7116231Y-49547711D01*
X7130241Y-49550498D01*
X7130246Y-49550498D01*
X7130252Y-49550500D01*
X7130253Y-49550500D01*
X8869747Y-49550500D01*
X8869748Y-49550500D01*
X8928231Y-49538867D01*
X8994552Y-49494552D01*
X9038867Y-49428231D01*
X9050500Y-49369748D01*
X9050500Y-49350678D01*
X9069407Y-49292487D01*
X9118907Y-49256523D01*
X9180093Y-49256523D01*
X9219501Y-49280672D01*
X9830989Y-49892160D01*
X9830991Y-49892161D01*
X9830993Y-49892163D01*
X9899508Y-49931720D01*
X9899506Y-49931720D01*
X9899510Y-49931721D01*
X9899512Y-49931722D01*
X9975938Y-49952200D01*
X9975940Y-49952200D01*
X25736163Y-49952200D01*
X25736163Y-49952199D01*
X25812589Y-49931721D01*
X25881111Y-49892160D01*
X25937060Y-49836211D01*
X26780496Y-48992775D01*
X26835013Y-48964998D01*
X26895445Y-48974569D01*
X26938710Y-49017834D01*
X26949500Y-49062779D01*
X26949500Y-49369746D01*
X26949501Y-49369758D01*
X26961132Y-49428227D01*
X26961134Y-49428233D01*
X27005445Y-49494548D01*
X27005448Y-49494552D01*
X27071769Y-49538867D01*
X27116231Y-49547711D01*
X27130241Y-49550498D01*
X27130246Y-49550498D01*
X27130252Y-49550500D01*
X27130253Y-49550500D01*
X28869747Y-49550500D01*
X28869748Y-49550500D01*
X28928231Y-49538867D01*
X28994552Y-49494552D01*
X29038867Y-49428231D01*
X29050500Y-49369748D01*
X29050500Y-47630252D01*
X29048921Y-47622316D01*
X29043634Y-47595734D01*
X29038867Y-47571769D01*
X28994552Y-47505448D01*
X28973199Y-47491180D01*
X28928233Y-47461134D01*
X28928231Y-47461133D01*
X28928228Y-47461132D01*
X28928227Y-47461132D01*
X28869758Y-47449501D01*
X28869748Y-47449500D01*
X28869747Y-47449500D01*
X28399500Y-47449500D01*
X28341309Y-47430593D01*
X28305345Y-47381093D01*
X28300500Y-47350500D01*
X28300500Y-47308737D01*
X28300499Y-47308735D01*
X28280021Y-47232311D01*
X28280019Y-47232307D01*
X28240460Y-47163789D01*
X28184511Y-47107839D01*
X28184511Y-47107840D01*
X27183696Y-46107025D01*
X27155919Y-46052508D01*
X27154700Y-46037021D01*
X27154700Y-37118679D01*
X27173607Y-37060488D01*
X27223107Y-37024524D01*
X27284293Y-37024524D01*
X27323704Y-37048675D01*
X27591653Y-37316624D01*
X27619430Y-37371141D01*
X27619641Y-37400714D01*
X27616554Y-37422197D01*
X27616553Y-37422202D01*
X27637034Y-37564656D01*
X27682334Y-37663847D01*
X27696823Y-37695573D01*
X27715518Y-37717148D01*
X27791073Y-37804344D01*
X27862780Y-37850427D01*
X27912147Y-37882153D01*
X28018603Y-37913411D01*
X28050235Y-37922699D01*
X28050236Y-37922699D01*
X28050239Y-37922700D01*
X28050241Y-37922700D01*
X28194159Y-37922700D01*
X28194161Y-37922700D01*
X28332253Y-37882153D01*
X28453328Y-37804343D01*
X28547577Y-37695573D01*
X28607365Y-37564657D01*
X28627847Y-37422200D01*
X28622374Y-37384137D01*
X28607365Y-37279743D01*
X28563293Y-37183240D01*
X28547577Y-37148827D01*
X28453328Y-37040057D01*
X28453327Y-37040056D01*
X28453326Y-37040055D01*
X28332257Y-36962249D01*
X28332254Y-36962247D01*
X28332253Y-36962247D01*
X28332250Y-36962246D01*
X28194164Y-36921700D01*
X28194161Y-36921700D01*
X28087679Y-36921700D01*
X28029488Y-36902793D01*
X28017675Y-36892704D01*
X27613196Y-36488225D01*
X27585419Y-36433708D01*
X27584200Y-36418221D01*
X27584200Y-35938379D01*
X27603107Y-35880188D01*
X27652607Y-35844224D01*
X27713793Y-35844224D01*
X27753204Y-35868375D01*
X28920504Y-37035675D01*
X28948281Y-37090192D01*
X28949500Y-37105679D01*
X28949500Y-38555605D01*
X28930593Y-38613796D01*
X28923258Y-38621789D01*
X28923509Y-38622006D01*
X28824622Y-38736128D01*
X28764834Y-38867043D01*
X28744353Y-39009497D01*
X28744353Y-39009502D01*
X28764834Y-39151956D01*
X28824622Y-39282871D01*
X28824623Y-39282873D01*
X28918872Y-39391643D01*
X28918873Y-39391644D01*
X29039942Y-39469450D01*
X29039947Y-39469453D01*
X29146403Y-39500711D01*
X29178035Y-39509999D01*
X29178036Y-39509999D01*
X29178039Y-39510000D01*
X29178041Y-39510000D01*
X29321959Y-39510000D01*
X29321961Y-39510000D01*
X29460053Y-39469453D01*
X29581128Y-39391643D01*
X29675377Y-39282873D01*
X29735165Y-39151957D01*
X29755647Y-39009500D01*
X29735165Y-38867043D01*
X29675377Y-38736127D01*
X29581128Y-38627357D01*
X29581127Y-38627356D01*
X29576491Y-38622006D01*
X29578524Y-38620243D01*
X29553067Y-38578005D01*
X29550500Y-38555605D01*
X29550500Y-36966779D01*
X29569407Y-36908588D01*
X29618907Y-36872624D01*
X29680093Y-36872624D01*
X29719504Y-36896775D01*
X30341904Y-37519175D01*
X30369681Y-37573692D01*
X30370900Y-37589179D01*
X30370900Y-42505064D01*
X30391377Y-42581485D01*
X30391379Y-42581489D01*
X30398138Y-42593196D01*
X30430940Y-42650011D01*
X31880533Y-44099604D01*
X32304453Y-44523524D01*
X32332230Y-44578041D01*
X32332442Y-44607615D01*
X32329353Y-44629102D01*
X32349834Y-44771556D01*
X32391924Y-44863719D01*
X32409623Y-44902473D01*
X32441694Y-44939485D01*
X32503873Y-45011244D01*
X32558943Y-45046635D01*
X32624947Y-45089053D01*
X32634858Y-45091963D01*
X32685365Y-45126499D01*
X32705927Y-45184126D01*
X32688689Y-45242833D01*
X32676971Y-45256957D01*
X30915125Y-47018804D01*
X30860608Y-47046581D01*
X30845121Y-47047800D01*
X30500435Y-47047800D01*
X30424011Y-47068278D01*
X30424007Y-47068280D01*
X30355491Y-47107838D01*
X30299538Y-47163791D01*
X30259980Y-47232307D01*
X30259978Y-47232311D01*
X30239500Y-47308735D01*
X30239500Y-47419961D01*
X30220593Y-47478152D01*
X30171093Y-47514116D01*
X30169241Y-47514697D01*
X30136054Y-47524765D01*
X30136041Y-47524770D01*
X29953547Y-47622316D01*
X29793595Y-47753585D01*
X29793585Y-47753595D01*
X29662316Y-47913547D01*
X29564768Y-48096045D01*
X29504699Y-48294065D01*
X29504698Y-48294070D01*
X29484417Y-48499996D01*
X29484417Y-48500003D01*
X29504698Y-48705929D01*
X29504699Y-48705934D01*
X29564768Y-48903954D01*
X29662316Y-49086452D01*
X29683013Y-49111671D01*
X29793590Y-49246410D01*
X29793595Y-49246414D01*
X29953547Y-49377683D01*
X29953548Y-49377683D01*
X29953550Y-49377685D01*
X30136046Y-49475232D01*
X30273997Y-49517078D01*
X30334065Y-49535300D01*
X30334070Y-49535301D01*
X30539997Y-49555583D01*
X30540000Y-49555583D01*
X30540003Y-49555583D01*
X30745929Y-49535301D01*
X30745934Y-49535300D01*
X30763063Y-49530104D01*
X30943954Y-49475232D01*
X31126450Y-49377685D01*
X31286410Y-49246410D01*
X31417685Y-49086450D01*
X31515232Y-48903954D01*
X31575300Y-48705934D01*
X31575301Y-48705929D01*
X31595583Y-48500003D01*
X31595583Y-48499996D01*
X31575301Y-48294070D01*
X31575300Y-48294065D01*
X31557078Y-48233997D01*
X31515232Y-48096046D01*
X31417685Y-47913550D01*
X31286410Y-47753590D01*
X31230166Y-47707432D01*
X31197180Y-47655902D01*
X31200782Y-47594823D01*
X31222969Y-47560901D01*
X31251060Y-47532811D01*
X43720798Y-35063072D01*
X43775313Y-35035297D01*
X43835745Y-35044868D01*
X43879010Y-35088133D01*
X43889800Y-35133078D01*
X43889800Y-36072521D01*
X43870893Y-36130712D01*
X43860804Y-36142525D01*
X32895489Y-47107840D01*
X32895488Y-47107839D01*
X32839539Y-47163789D01*
X32799980Y-47232307D01*
X32799978Y-47232311D01*
X32779500Y-47308735D01*
X32779500Y-47419961D01*
X32760593Y-47478152D01*
X32711093Y-47514116D01*
X32709241Y-47514697D01*
X32676054Y-47524765D01*
X32676041Y-47524770D01*
X32493547Y-47622316D01*
X32333595Y-47753585D01*
X32333585Y-47753595D01*
X32202316Y-47913547D01*
X32104768Y-48096045D01*
X32044699Y-48294065D01*
X32044698Y-48294070D01*
X32024417Y-48499996D01*
X32024417Y-48500003D01*
X32044698Y-48705929D01*
X32044699Y-48705934D01*
X32104768Y-48903954D01*
X32202316Y-49086452D01*
X32223013Y-49111671D01*
X32333590Y-49246410D01*
X32333595Y-49246414D01*
X32493547Y-49377683D01*
X32493548Y-49377683D01*
X32493550Y-49377685D01*
X32676046Y-49475232D01*
X32813997Y-49517078D01*
X32874065Y-49535300D01*
X32874070Y-49535301D01*
X33079997Y-49555583D01*
X33080000Y-49555583D01*
X33080003Y-49555583D01*
X33285929Y-49535301D01*
X33285934Y-49535300D01*
X33303063Y-49530104D01*
X33483954Y-49475232D01*
X33666450Y-49377685D01*
X33826410Y-49246410D01*
X33957685Y-49086450D01*
X34055232Y-48903954D01*
X34115300Y-48705934D01*
X34115301Y-48705929D01*
X34135583Y-48500003D01*
X34135583Y-48499996D01*
X34115301Y-48294070D01*
X34115300Y-48294065D01*
X34097078Y-48233997D01*
X34055232Y-48096046D01*
X33957685Y-47913550D01*
X33826410Y-47753590D01*
X33826404Y-47753585D01*
X33666452Y-47622316D01*
X33616704Y-47595725D01*
X65924500Y-47595725D01*
X65924500Y-48404274D01*
X65927353Y-48434694D01*
X65927355Y-48434703D01*
X65972207Y-48562883D01*
X66052845Y-48672144D01*
X66052847Y-48672146D01*
X66052850Y-48672150D01*
X66052853Y-48672152D01*
X66052855Y-48672154D01*
X66162116Y-48752792D01*
X66162117Y-48752792D01*
X66162118Y-48752793D01*
X66290301Y-48797646D01*
X66320725Y-48800499D01*
X66320727Y-48800500D01*
X66320734Y-48800500D01*
X67679273Y-48800500D01*
X67679273Y-48800499D01*
X67709699Y-48797646D01*
X67837882Y-48752793D01*
X67947150Y-48672150D01*
X68027793Y-48562882D01*
X68072646Y-48434699D01*
X68075499Y-48404273D01*
X68075500Y-48404273D01*
X68075500Y-47595727D01*
X68075499Y-47595725D01*
X68072646Y-47565301D01*
X68027793Y-47437118D01*
X68022977Y-47430593D01*
X67947154Y-47327855D01*
X67947152Y-47327853D01*
X67947150Y-47327850D01*
X67947146Y-47327847D01*
X67947144Y-47327845D01*
X67837883Y-47247207D01*
X67709703Y-47202355D01*
X67709694Y-47202353D01*
X67679274Y-47199500D01*
X67679266Y-47199500D01*
X66320734Y-47199500D01*
X66320725Y-47199500D01*
X66290305Y-47202353D01*
X66290296Y-47202355D01*
X66162116Y-47247207D01*
X66052855Y-47327845D01*
X66052845Y-47327855D01*
X65972207Y-47437116D01*
X65927355Y-47565296D01*
X65927353Y-47565305D01*
X65924500Y-47595725D01*
X33616704Y-47595725D01*
X33500373Y-47533544D01*
X33457968Y-47489439D01*
X33449585Y-47428831D01*
X33477037Y-47376233D01*
X35529036Y-45324234D01*
X42534500Y-45324234D01*
X42534500Y-45475766D01*
X42538237Y-45489711D01*
X42573720Y-45622139D01*
X42649481Y-45753360D01*
X42649483Y-45753362D01*
X42649485Y-45753365D01*
X42756635Y-45860515D01*
X42756637Y-45860516D01*
X42756639Y-45860518D01*
X42887861Y-45936279D01*
X42887859Y-45936279D01*
X42887863Y-45936280D01*
X42887865Y-45936281D01*
X43034234Y-45975500D01*
X43034236Y-45975500D01*
X43185764Y-45975500D01*
X43185766Y-45975500D01*
X43332135Y-45936281D01*
X43332137Y-45936279D01*
X43332139Y-45936279D01*
X43463360Y-45860518D01*
X43463360Y-45860517D01*
X43463365Y-45860515D01*
X43570515Y-45753365D01*
X43646281Y-45622135D01*
X43685500Y-45475766D01*
X43685500Y-45324234D01*
X48314500Y-45324234D01*
X48314500Y-45475766D01*
X48318237Y-45489711D01*
X48353720Y-45622139D01*
X48429481Y-45753360D01*
X48429483Y-45753362D01*
X48429485Y-45753365D01*
X48536635Y-45860515D01*
X48536637Y-45860516D01*
X48536639Y-45860518D01*
X48667861Y-45936279D01*
X48667859Y-45936279D01*
X48667863Y-45936280D01*
X48667865Y-45936281D01*
X48814234Y-45975500D01*
X48814236Y-45975500D01*
X48965764Y-45975500D01*
X48965766Y-45975500D01*
X49112135Y-45936281D01*
X49112137Y-45936279D01*
X49112139Y-45936279D01*
X49138334Y-45921155D01*
X65924500Y-45921155D01*
X65924500Y-46078844D01*
X65955263Y-46233496D01*
X65955263Y-46233498D01*
X66015603Y-46379174D01*
X66015609Y-46379185D01*
X66058223Y-46442960D01*
X66103211Y-46510289D01*
X66214711Y-46621789D01*
X66292876Y-46674017D01*
X66345814Y-46709390D01*
X66345825Y-46709396D01*
X66399638Y-46731685D01*
X66491503Y-46769737D01*
X66646158Y-46800500D01*
X66646159Y-46800500D01*
X67353841Y-46800500D01*
X67353842Y-46800500D01*
X67508497Y-46769737D01*
X67654179Y-46709394D01*
X67785289Y-46621789D01*
X67896789Y-46510289D01*
X67984394Y-46379179D01*
X68044737Y-46233497D01*
X68075500Y-46078842D01*
X68075500Y-45921158D01*
X68044737Y-45766503D01*
X67984940Y-45622139D01*
X67984396Y-45620825D01*
X67984390Y-45620814D01*
X67949017Y-45567876D01*
X67896789Y-45489711D01*
X67785289Y-45378211D01*
X67733059Y-45343312D01*
X67654185Y-45290609D01*
X67654174Y-45290603D01*
X67508497Y-45230263D01*
X67353844Y-45199500D01*
X67353842Y-45199500D01*
X66646158Y-45199500D01*
X66646155Y-45199500D01*
X66491503Y-45230263D01*
X66491501Y-45230263D01*
X66345825Y-45290603D01*
X66345814Y-45290609D01*
X66214711Y-45378211D01*
X66214707Y-45378214D01*
X66103214Y-45489707D01*
X66103211Y-45489711D01*
X66015609Y-45620814D01*
X66015603Y-45620825D01*
X65955263Y-45766501D01*
X65955263Y-45766503D01*
X65924500Y-45921155D01*
X49138334Y-45921155D01*
X49243360Y-45860518D01*
X49243360Y-45860517D01*
X49243365Y-45860515D01*
X49350515Y-45753365D01*
X49426281Y-45622135D01*
X49465500Y-45475766D01*
X49465500Y-45324234D01*
X49426281Y-45177865D01*
X49426279Y-45177862D01*
X49426279Y-45177860D01*
X49350518Y-45046639D01*
X49350516Y-45046637D01*
X49350515Y-45046635D01*
X49243365Y-44939485D01*
X49243362Y-44939483D01*
X49243360Y-44939481D01*
X49112138Y-44863720D01*
X49112140Y-44863720D01*
X49055347Y-44848503D01*
X48965766Y-44824500D01*
X48814234Y-44824500D01*
X48724652Y-44848503D01*
X48667860Y-44863720D01*
X48536639Y-44939481D01*
X48429481Y-45046639D01*
X48353720Y-45177860D01*
X48353719Y-45177865D01*
X48314500Y-45324234D01*
X43685500Y-45324234D01*
X43646281Y-45177865D01*
X43646279Y-45177862D01*
X43646279Y-45177860D01*
X43570518Y-45046639D01*
X43570516Y-45046637D01*
X43570515Y-45046635D01*
X43463365Y-44939485D01*
X43463362Y-44939483D01*
X43463360Y-44939481D01*
X43332138Y-44863720D01*
X43332140Y-44863720D01*
X43275347Y-44848503D01*
X43185766Y-44824500D01*
X43034234Y-44824500D01*
X42944652Y-44848503D01*
X42887860Y-44863720D01*
X42756639Y-44939481D01*
X42649481Y-45046639D01*
X42573720Y-45177860D01*
X42573719Y-45177865D01*
X42534500Y-45324234D01*
X35529036Y-45324234D01*
X38134773Y-42718497D01*
X43044353Y-42718497D01*
X43044353Y-42718502D01*
X43064834Y-42860956D01*
X43124622Y-42991871D01*
X43124623Y-42991873D01*
X43218872Y-43100643D01*
X43218873Y-43100644D01*
X43339942Y-43178450D01*
X43339947Y-43178453D01*
X43446403Y-43209711D01*
X43478035Y-43218999D01*
X43478036Y-43218999D01*
X43478039Y-43219000D01*
X43478041Y-43219000D01*
X43621959Y-43219000D01*
X43621961Y-43219000D01*
X43760053Y-43178453D01*
X43881128Y-43100643D01*
X43975377Y-42991873D01*
X44035165Y-42860957D01*
X44055647Y-42718500D01*
X44052558Y-42697017D01*
X44062990Y-42636728D01*
X44080543Y-42612926D01*
X50715460Y-35978011D01*
X50738849Y-35937500D01*
X50755021Y-35909489D01*
X50775500Y-35833062D01*
X50775500Y-31893709D01*
X67149500Y-31893709D01*
X67149500Y-32106290D01*
X67182752Y-32316238D01*
X67248443Y-32518412D01*
X67344948Y-32707815D01*
X67344950Y-32707819D01*
X67469891Y-32879786D01*
X67469893Y-32879788D01*
X67469896Y-32879792D01*
X67620208Y-33030104D01*
X67620211Y-33030106D01*
X67620213Y-33030108D01*
X67792180Y-33155049D01*
X67792184Y-33155051D01*
X67981588Y-33251557D01*
X68183757Y-33317246D01*
X68183758Y-33317246D01*
X68183761Y-33317247D01*
X68393710Y-33350500D01*
X68393713Y-33350500D01*
X68606290Y-33350500D01*
X68816238Y-33317247D01*
X68816239Y-33317246D01*
X68816243Y-33317246D01*
X69018412Y-33251557D01*
X69207816Y-33155051D01*
X69379792Y-33030104D01*
X69530104Y-32879792D01*
X69655051Y-32707816D01*
X69751557Y-32518412D01*
X69817246Y-32316243D01*
X69819302Y-32303264D01*
X69850500Y-32106290D01*
X69850500Y-31893709D01*
X69817247Y-31683761D01*
X69817246Y-31683757D01*
X69751557Y-31481588D01*
X69655051Y-31292184D01*
X69655049Y-31292180D01*
X69530108Y-31120213D01*
X69530106Y-31120211D01*
X69530104Y-31120208D01*
X69379792Y-30969896D01*
X69379788Y-30969893D01*
X69379786Y-30969891D01*
X69207819Y-30844950D01*
X69207815Y-30844948D01*
X69018412Y-30748443D01*
X68816238Y-30682752D01*
X68606290Y-30649500D01*
X68606287Y-30649500D01*
X68393713Y-30649500D01*
X68393710Y-30649500D01*
X68183761Y-30682752D01*
X67981587Y-30748443D01*
X67792184Y-30844948D01*
X67792180Y-30844950D01*
X67620213Y-30969891D01*
X67469891Y-31120213D01*
X67344950Y-31292180D01*
X67344948Y-31292184D01*
X67248443Y-31481587D01*
X67182752Y-31683761D01*
X67149500Y-31893709D01*
X50775500Y-31893709D01*
X50775500Y-29200293D01*
X50794407Y-29142102D01*
X50801741Y-29134111D01*
X50801491Y-29133894D01*
X50806128Y-29128543D01*
X50900377Y-29019773D01*
X50960165Y-28888857D01*
X50974470Y-28789365D01*
X50980647Y-28746402D01*
X50980647Y-28746400D01*
X50977558Y-28724918D01*
X50987990Y-28664628D01*
X51005543Y-28640826D01*
X57389260Y-22257111D01*
X57428821Y-22188589D01*
X57449300Y-22112162D01*
X57449300Y-14191493D01*
X57468207Y-14133302D01*
X57475541Y-14125311D01*
X57475291Y-14125094D01*
X57479928Y-14119743D01*
X57574177Y-14010973D01*
X57633965Y-13880057D01*
X57654447Y-13737600D01*
X57652798Y-13726134D01*
X57633965Y-13595143D01*
X57596516Y-13513143D01*
X57574177Y-13464227D01*
X57479928Y-13355457D01*
X57479927Y-13355456D01*
X57479926Y-13355455D01*
X57358857Y-13277649D01*
X57358854Y-13277647D01*
X57358853Y-13277647D01*
X57358850Y-13277646D01*
X57220764Y-13237100D01*
X57220761Y-13237100D01*
X57076839Y-13237100D01*
X57076835Y-13237100D01*
X56938749Y-13277646D01*
X56938742Y-13277649D01*
X56817673Y-13355455D01*
X56723422Y-13464228D01*
X56663634Y-13595143D01*
X56643153Y-13737597D01*
X56643153Y-13737602D01*
X56663634Y-13880056D01*
X56685974Y-13928973D01*
X56723423Y-14010973D01*
X56816281Y-14118138D01*
X56822309Y-14125094D01*
X56820271Y-14126859D01*
X56845725Y-14169058D01*
X56848300Y-14191493D01*
X56848300Y-21907120D01*
X56829393Y-21965311D01*
X56819304Y-21977124D01*
X50579524Y-28216904D01*
X50525007Y-28244681D01*
X50509520Y-28245900D01*
X50403035Y-28245900D01*
X50264949Y-28286446D01*
X50264942Y-28286449D01*
X50143873Y-28364255D01*
X50049622Y-28473028D01*
X49989834Y-28603943D01*
X49969353Y-28746397D01*
X49969353Y-28746402D01*
X49989834Y-28888856D01*
X50049623Y-29019773D01*
X50148509Y-29133894D01*
X50146471Y-29135659D01*
X50171925Y-29177858D01*
X50174500Y-29200293D01*
X50174500Y-35628020D01*
X50155593Y-35686211D01*
X50145504Y-35698024D01*
X43654524Y-42189004D01*
X43600007Y-42216781D01*
X43584520Y-42218000D01*
X43478035Y-42218000D01*
X43339949Y-42258546D01*
X43339942Y-42258549D01*
X43218873Y-42336355D01*
X43124622Y-42445128D01*
X43064834Y-42576043D01*
X43044353Y-42718497D01*
X38134773Y-42718497D01*
X44430760Y-36422511D01*
X44450432Y-36388438D01*
X44470321Y-36353989D01*
X44490800Y-36277562D01*
X44490800Y-31063584D01*
X44499747Y-31022457D01*
X44524865Y-30967456D01*
X44545347Y-30825002D01*
X44545347Y-30824997D01*
X44524865Y-30682543D01*
X44465077Y-30551627D01*
X44370828Y-30442857D01*
X44370827Y-30442856D01*
X44370826Y-30442855D01*
X44249757Y-30365049D01*
X44249754Y-30365047D01*
X44249753Y-30365047D01*
X44249750Y-30365046D01*
X44111664Y-30324500D01*
X44111661Y-30324500D01*
X43967739Y-30324500D01*
X43967735Y-30324500D01*
X43850391Y-30358956D01*
X43789231Y-30357208D01*
X43740778Y-30319846D01*
X43723500Y-30263966D01*
X43723500Y-21682678D01*
X43742407Y-21624487D01*
X43752490Y-21612680D01*
X44235460Y-21129711D01*
X44275021Y-21061189D01*
X44295500Y-20984762D01*
X44295500Y-14118138D01*
X44281436Y-14065650D01*
X44281436Y-14065649D01*
X44281436Y-14065648D01*
X44279087Y-14056885D01*
X44275022Y-14041712D01*
X44272731Y-14037744D01*
X44235463Y-13973193D01*
X44235459Y-13973188D01*
X44023446Y-13761174D01*
X43995669Y-13706658D01*
X43995458Y-13677082D01*
X43998547Y-13655600D01*
X43993586Y-13621097D01*
X43978065Y-13513143D01*
X43955726Y-13464228D01*
X43918277Y-13382227D01*
X43824028Y-13273457D01*
X43824027Y-13273456D01*
X43824026Y-13273455D01*
X43702957Y-13195649D01*
X43702954Y-13195648D01*
X43702953Y-13195647D01*
X43617422Y-13170533D01*
X43566916Y-13135997D01*
X43546354Y-13078370D01*
X43563592Y-13019663D01*
X43612045Y-12982300D01*
X43617396Y-12980561D01*
X43704953Y-12954853D01*
X43826028Y-12877043D01*
X43920277Y-12768273D01*
X43980065Y-12637357D01*
X43990881Y-12562127D01*
X44000547Y-12494902D01*
X44000547Y-12494897D01*
X43980066Y-12352445D01*
X43966174Y-12322026D01*
X43959200Y-12261239D01*
X43989287Y-12207963D01*
X44044943Y-12182545D01*
X44056228Y-12181900D01*
X46271121Y-12181900D01*
X46329312Y-12200807D01*
X46341125Y-12210896D01*
X46998053Y-12867824D01*
X47025830Y-12922341D01*
X47026041Y-12951914D01*
X47022954Y-12973397D01*
X47022953Y-12973402D01*
X47043434Y-13115856D01*
X47089920Y-13217644D01*
X47103223Y-13246773D01*
X47197472Y-13355543D01*
X47197473Y-13355544D01*
X47318542Y-13433350D01*
X47318547Y-13433353D01*
X47423695Y-13464227D01*
X47456635Y-13473899D01*
X47456636Y-13473899D01*
X47456639Y-13473900D01*
X47456641Y-13473900D01*
X47600559Y-13473900D01*
X47600561Y-13473900D01*
X47738653Y-13433353D01*
X47859728Y-13355543D01*
X47953977Y-13246773D01*
X48013765Y-13115857D01*
X48020592Y-13068371D01*
X48034247Y-12973402D01*
X48034247Y-12973397D01*
X48013765Y-12830943D01*
X47953977Y-12700028D01*
X47953977Y-12700027D01*
X47859728Y-12591257D01*
X47859727Y-12591256D01*
X47859726Y-12591255D01*
X47738657Y-12513449D01*
X47738654Y-12513447D01*
X47738653Y-12513447D01*
X47738650Y-12513446D01*
X47600564Y-12472900D01*
X47600561Y-12472900D01*
X47494079Y-12472900D01*
X47435888Y-12453993D01*
X47424075Y-12443904D01*
X47159067Y-12178896D01*
X46621111Y-11640940D01*
X46621108Y-11640938D01*
X46552592Y-11601380D01*
X46552588Y-11601378D01*
X46476164Y-11580900D01*
X46476162Y-11580900D01*
X30061938Y-11580900D01*
X30061935Y-11580900D01*
X29985511Y-11601378D01*
X29985507Y-11601380D01*
X29916989Y-11640939D01*
X29804003Y-11753925D01*
X29749487Y-11781702D01*
X29689055Y-11772130D01*
X29663996Y-11753925D01*
X29035646Y-11125575D01*
X29007869Y-11071058D01*
X29007658Y-11041482D01*
X29010747Y-11020000D01*
X28990265Y-10877543D01*
X28930477Y-10746627D01*
X28836228Y-10637857D01*
X28836227Y-10637856D01*
X28836226Y-10637855D01*
X28715157Y-10560049D01*
X28715154Y-10560047D01*
X28715153Y-10560047D01*
X28715150Y-10560046D01*
X28577064Y-10519500D01*
X28577061Y-10519500D01*
X28433139Y-10519500D01*
X28433135Y-10519500D01*
X28295049Y-10560046D01*
X28295042Y-10560049D01*
X28173973Y-10637855D01*
X28079722Y-10746628D01*
X28019934Y-10877543D01*
X27999453Y-11019997D01*
X27999453Y-11020002D01*
X28019934Y-11162456D01*
X28079722Y-11293371D01*
X28079723Y-11293373D01*
X28173972Y-11402143D01*
X28173973Y-11402144D01*
X28295042Y-11479950D01*
X28295047Y-11479953D01*
X28401503Y-11511211D01*
X28433135Y-11520499D01*
X28433136Y-11520499D01*
X28433139Y-11520500D01*
X28433141Y-11520500D01*
X28539621Y-11520500D01*
X28597812Y-11539407D01*
X28609625Y-11549496D01*
X29239025Y-12178896D01*
X29266802Y-12233413D01*
X29257231Y-12293845D01*
X29239025Y-12318904D01*
X26669689Y-14888240D01*
X26669688Y-14888239D01*
X26613739Y-14944189D01*
X26574180Y-15012707D01*
X26574178Y-15012711D01*
X26553700Y-15089135D01*
X26553700Y-46242064D01*
X26574177Y-46318485D01*
X26574179Y-46318489D01*
X26609217Y-46379178D01*
X26613739Y-46387010D01*
X27507225Y-47280496D01*
X27535002Y-47335013D01*
X27525431Y-47395445D01*
X27482166Y-47438710D01*
X27437221Y-47449500D01*
X27130252Y-47449500D01*
X27130251Y-47449500D01*
X27130241Y-47449501D01*
X27071772Y-47461132D01*
X27071766Y-47461134D01*
X27005451Y-47505445D01*
X27005445Y-47505451D01*
X26961134Y-47571766D01*
X26961132Y-47571772D01*
X26949501Y-47630241D01*
X26949500Y-47630253D01*
X26949500Y-48100500D01*
X26930593Y-48158691D01*
X26881093Y-48194655D01*
X26850500Y-48199500D01*
X26808738Y-48199500D01*
X26761961Y-48212033D01*
X26732307Y-48219979D01*
X26663793Y-48259536D01*
X25601125Y-49322204D01*
X25546608Y-49349981D01*
X25531121Y-49351200D01*
X21569729Y-49351200D01*
X21511538Y-49332293D01*
X21475574Y-49282793D01*
X21475574Y-49221607D01*
X21493201Y-49189395D01*
X21507488Y-49171985D01*
X21577685Y-49086450D01*
X21675232Y-48903954D01*
X21735300Y-48705934D01*
X21735301Y-48705929D01*
X21755583Y-48500003D01*
X21755583Y-48499996D01*
X21735301Y-48294070D01*
X21735300Y-48294065D01*
X21717078Y-48233997D01*
X21675232Y-48096046D01*
X21577685Y-47913550D01*
X21446410Y-47753590D01*
X21446404Y-47753585D01*
X21286452Y-47622316D01*
X21103958Y-47524770D01*
X21103957Y-47524769D01*
X21103954Y-47524768D01*
X21103948Y-47524766D01*
X21103945Y-47524765D01*
X21070759Y-47514697D01*
X21020563Y-47479711D01*
X21000519Y-47421902D01*
X21000500Y-47419961D01*
X21000500Y-47308737D01*
X20994190Y-47285189D01*
X20984344Y-47248443D01*
X20980022Y-47232312D01*
X20940460Y-47163789D01*
X20926171Y-47149500D01*
X20850396Y-47073724D01*
X20822619Y-47019207D01*
X20821400Y-47003721D01*
X20821400Y-20039578D01*
X20840307Y-19981387D01*
X20850390Y-19969580D01*
X21455474Y-19364495D01*
X21509991Y-19336719D01*
X21525478Y-19335500D01*
X21631959Y-19335500D01*
X21631961Y-19335500D01*
X21770053Y-19294953D01*
X21891128Y-19217143D01*
X21985377Y-19108373D01*
X22045165Y-18977457D01*
X22055506Y-18905534D01*
X22065647Y-18835002D01*
X22065647Y-18834997D01*
X22045165Y-18692543D01*
X22030980Y-18661482D01*
X21985377Y-18561627D01*
X21891128Y-18452857D01*
X21891127Y-18452856D01*
X21891126Y-18452855D01*
X21770057Y-18375049D01*
X21770054Y-18375047D01*
X21770053Y-18375047D01*
X21770050Y-18375046D01*
X21631964Y-18334500D01*
X21631961Y-18334500D01*
X21488039Y-18334500D01*
X21488035Y-18334500D01*
X21349949Y-18375046D01*
X21349942Y-18375049D01*
X21228873Y-18452855D01*
X21134622Y-18561628D01*
X21074834Y-18692543D01*
X21054353Y-18834997D01*
X21054353Y-18835003D01*
X21057441Y-18856482D01*
X21047007Y-18916771D01*
X21029453Y-18940573D01*
X20336389Y-19633639D01*
X20280439Y-19689589D01*
X20240880Y-19758107D01*
X20240878Y-19758111D01*
X20220400Y-19834535D01*
X20220400Y-47208764D01*
X20231037Y-47248460D01*
X20240879Y-47285189D01*
X20254475Y-47308738D01*
X20280440Y-47353711D01*
X20302961Y-47376232D01*
X20330737Y-47430747D01*
X20321166Y-47491179D01*
X20279625Y-47533544D01*
X20113548Y-47622316D01*
X20113547Y-47622316D01*
X19953595Y-47753585D01*
X19953585Y-47753595D01*
X19822316Y-47913547D01*
X19724768Y-48096045D01*
X19664699Y-48294065D01*
X19664698Y-48294070D01*
X19644417Y-48499996D01*
X19644417Y-48500003D01*
X19664698Y-48705929D01*
X19664699Y-48705934D01*
X19724768Y-48903954D01*
X19822316Y-49086452D01*
X19906799Y-49189395D01*
X19929099Y-49246372D01*
X19913650Y-49305575D01*
X19866353Y-49344390D01*
X19830271Y-49351200D01*
X19029729Y-49351200D01*
X18971538Y-49332293D01*
X18935574Y-49282793D01*
X18935574Y-49221607D01*
X18953201Y-49189395D01*
X18967488Y-49171985D01*
X19037685Y-49086450D01*
X19135232Y-48903954D01*
X19195300Y-48705934D01*
X19195301Y-48705929D01*
X19215583Y-48500003D01*
X19215583Y-48499996D01*
X19195301Y-48294070D01*
X19195300Y-48294065D01*
X19177078Y-48233997D01*
X19135232Y-48096046D01*
X19037685Y-47913550D01*
X18906410Y-47753590D01*
X18906404Y-47753585D01*
X18746452Y-47622316D01*
X18563958Y-47524770D01*
X18563957Y-47524769D01*
X18563954Y-47524768D01*
X18563948Y-47524766D01*
X18563945Y-47524765D01*
X18530759Y-47514697D01*
X18480563Y-47479711D01*
X18460519Y-47421902D01*
X18460500Y-47419961D01*
X18460500Y-18694977D01*
X18479407Y-18636786D01*
X18489485Y-18624985D01*
X18567475Y-18546994D01*
X18621990Y-18519219D01*
X18637477Y-18518000D01*
X18743959Y-18518000D01*
X18743961Y-18518000D01*
X18882053Y-18477453D01*
X19003128Y-18399643D01*
X19097377Y-18290873D01*
X19157165Y-18159957D01*
X19177647Y-18017500D01*
X19177646Y-18017496D01*
X19157165Y-17875043D01*
X19097377Y-17744128D01*
X19097377Y-17744127D01*
X19003128Y-17635357D01*
X19003127Y-17635356D01*
X19003126Y-17635355D01*
X18882057Y-17557549D01*
X18882054Y-17557547D01*
X18882053Y-17557547D01*
X18882050Y-17557546D01*
X18743964Y-17517000D01*
X18743961Y-17517000D01*
X18600039Y-17517000D01*
X18600035Y-17517000D01*
X18461949Y-17557546D01*
X18461942Y-17557549D01*
X18340873Y-17635355D01*
X18246622Y-17744128D01*
X18186834Y-17875043D01*
X18166353Y-18017496D01*
X18166353Y-18017497D01*
X18166353Y-18017500D01*
X18169442Y-18038983D01*
X18159007Y-18099272D01*
X18141453Y-18123074D01*
X17975489Y-18289039D01*
X17919539Y-18344989D01*
X17879980Y-18413507D01*
X17879978Y-18413511D01*
X17859500Y-18489935D01*
X17859500Y-47419961D01*
X17840593Y-47478152D01*
X17791093Y-47514116D01*
X17789241Y-47514697D01*
X17756054Y-47524765D01*
X17756041Y-47524770D01*
X17573547Y-47622316D01*
X17413595Y-47753585D01*
X17413585Y-47753595D01*
X17282316Y-47913547D01*
X17184768Y-48096045D01*
X17124699Y-48294065D01*
X17124698Y-48294070D01*
X17104417Y-48499996D01*
X17104417Y-48500003D01*
X17124698Y-48705929D01*
X17124699Y-48705934D01*
X17184768Y-48903954D01*
X17282316Y-49086452D01*
X17366799Y-49189395D01*
X17389099Y-49246372D01*
X17373650Y-49305575D01*
X17326353Y-49344390D01*
X17290271Y-49351200D01*
X16489729Y-49351200D01*
X16431538Y-49332293D01*
X16395574Y-49282793D01*
X16395574Y-49221607D01*
X16413201Y-49189395D01*
X16427488Y-49171985D01*
X16497685Y-49086450D01*
X16595232Y-48903954D01*
X16655300Y-48705934D01*
X16655301Y-48705929D01*
X16675583Y-48500003D01*
X16675583Y-48499996D01*
X16655301Y-48294070D01*
X16655300Y-48294065D01*
X16637078Y-48233997D01*
X16595232Y-48096046D01*
X16497685Y-47913550D01*
X16366410Y-47753590D01*
X16366404Y-47753585D01*
X16206452Y-47622316D01*
X16023958Y-47524770D01*
X16023957Y-47524769D01*
X16023954Y-47524768D01*
X16023948Y-47524766D01*
X16023945Y-47524765D01*
X15990759Y-47514697D01*
X15940563Y-47479711D01*
X15920519Y-47421902D01*
X15920500Y-47419961D01*
X15920500Y-18797838D01*
X15913030Y-18769960D01*
X15913030Y-18769959D01*
X15900021Y-18721410D01*
X15900020Y-18721408D01*
X15860463Y-18652893D01*
X15860462Y-18652892D01*
X15860461Y-18652891D01*
X15860460Y-18652889D01*
X13426546Y-16218975D01*
X13398769Y-16164458D01*
X13398558Y-16134882D01*
X13401647Y-16113400D01*
X13399720Y-16100000D01*
X13381165Y-15970943D01*
X13321377Y-15840028D01*
X13321377Y-15840027D01*
X13227128Y-15731257D01*
X13227127Y-15731256D01*
X13227126Y-15731255D01*
X13106057Y-15653449D01*
X13106054Y-15653447D01*
X13106053Y-15653447D01*
X13106050Y-15653446D01*
X12967964Y-15612900D01*
X12967961Y-15612900D01*
X12824039Y-15612900D01*
X12824035Y-15612900D01*
X12685949Y-15653446D01*
X12685942Y-15653449D01*
X12564872Y-15731256D01*
X12564870Y-15731258D01*
X12519619Y-15783481D01*
X12467223Y-15815077D01*
X12406262Y-15809841D01*
X12360021Y-15769773D01*
X12345800Y-15718650D01*
X12345800Y-15283893D01*
X12364707Y-15225702D01*
X12372041Y-15217711D01*
X12371791Y-15217494D01*
X12395605Y-15190011D01*
X12470677Y-15103373D01*
X12530465Y-14972457D01*
X12539642Y-14908631D01*
X12550947Y-14830002D01*
X12550947Y-14829997D01*
X12530465Y-14687543D01*
X12470677Y-14556628D01*
X12470677Y-14556627D01*
X12376428Y-14447857D01*
X12376427Y-14447856D01*
X12376426Y-14447855D01*
X12255357Y-14370049D01*
X12255354Y-14370048D01*
X12255353Y-14370047D01*
X12222817Y-14360493D01*
X12141468Y-14336607D01*
X12090961Y-14302071D01*
X12070400Y-14244443D01*
X12087639Y-14185737D01*
X12099351Y-14171618D01*
X12905974Y-13364996D01*
X12960491Y-13337219D01*
X12975978Y-13336000D01*
X13082459Y-13336000D01*
X13082461Y-13336000D01*
X13220553Y-13295453D01*
X13341628Y-13217643D01*
X13435877Y-13108873D01*
X13495665Y-12977957D01*
X13506006Y-12906034D01*
X13516147Y-12835502D01*
X13516147Y-12835497D01*
X13495665Y-12693043D01*
X13470233Y-12637356D01*
X13435877Y-12562127D01*
X13341628Y-12453357D01*
X13341627Y-12453356D01*
X13341626Y-12453355D01*
X13220557Y-12375549D01*
X13220554Y-12375547D01*
X13220553Y-12375547D01*
X13220550Y-12375546D01*
X13082464Y-12335000D01*
X13082461Y-12335000D01*
X12938539Y-12335000D01*
X12938535Y-12335000D01*
X12800449Y-12375546D01*
X12800442Y-12375549D01*
X12679373Y-12453355D01*
X12585122Y-12562128D01*
X12525334Y-12693043D01*
X12504853Y-12835497D01*
X12504853Y-12835503D01*
X12507941Y-12856982D01*
X12497507Y-12917271D01*
X12479953Y-12941074D01*
X10355489Y-15065540D01*
X10355488Y-15065539D01*
X10299539Y-15121489D01*
X10259980Y-15190007D01*
X10259978Y-15190011D01*
X10239500Y-15266435D01*
X10239500Y-47419961D01*
X10220593Y-47478152D01*
X10171093Y-47514116D01*
X10169241Y-47514697D01*
X10136054Y-47524765D01*
X10136041Y-47524770D01*
X9953547Y-47622316D01*
X9793595Y-47753585D01*
X9793585Y-47753595D01*
X9662316Y-47913547D01*
X9564768Y-48096045D01*
X9521467Y-48238790D01*
X9486482Y-48288987D01*
X9428674Y-48309033D01*
X9370123Y-48291272D01*
X9356732Y-48280061D01*
X9336211Y-48259540D01*
X9336208Y-48259538D01*
X9267692Y-48219980D01*
X9267688Y-48219978D01*
X9191264Y-48199500D01*
X9191262Y-48199500D01*
X9149500Y-48199500D01*
X9091309Y-48180593D01*
X9055345Y-48131093D01*
X9050500Y-48100500D01*
X9050500Y-47630253D01*
X9050498Y-47630241D01*
X9043634Y-47595734D01*
X9038867Y-47571769D01*
X8994552Y-47505448D01*
X8973199Y-47491180D01*
X8928233Y-47461134D01*
X8928231Y-47461133D01*
X8928228Y-47461132D01*
X8928227Y-47461132D01*
X8869758Y-47449501D01*
X8869748Y-47449500D01*
X7130252Y-47449500D01*
X7130251Y-47449500D01*
X7130241Y-47449501D01*
X7071772Y-47461132D01*
X7071766Y-47461134D01*
X7005451Y-47505445D01*
X7005445Y-47505451D01*
X6961134Y-47571766D01*
X6961132Y-47571772D01*
X6949501Y-47630241D01*
X6949500Y-47630253D01*
X4537402Y-47630253D01*
X4530108Y-47620213D01*
X4530106Y-47620211D01*
X4530104Y-47620208D01*
X4379792Y-47469896D01*
X4379788Y-47469893D01*
X4379786Y-47469891D01*
X4207819Y-47344950D01*
X4207815Y-47344948D01*
X4018412Y-47248443D01*
X3816238Y-47182752D01*
X3606290Y-47149500D01*
X3606287Y-47149500D01*
X3393713Y-47149500D01*
X3393710Y-47149500D01*
X3183761Y-47182752D01*
X2981587Y-47248443D01*
X2792184Y-47344948D01*
X2792180Y-47344950D01*
X2620213Y-47469891D01*
X2469891Y-47620213D01*
X2344950Y-47792180D01*
X2344948Y-47792184D01*
X2248443Y-47981587D01*
X2182752Y-48183761D01*
X2149500Y-48393709D01*
X1200000Y-48393709D01*
X1200000Y-8099000D01*
X1218907Y-8040809D01*
X1268407Y-8004845D01*
X1299000Y-8000000D01*
X70701000Y-8000000D01*
X70759191Y-8018907D01*
G37*
%TD.AperFunction*%
%TD*%
M02*
