%TF.GenerationSoftware,KiCad,Pcbnew,8.0.9-8.0.9-0~ubuntu24.04.1*%
%TF.CreationDate,2026-07-18T22:49:06+00:00*%
%TF.ProjectId,smart-glove,736d6172-742d-4676-9c6f-76652e6b6963,rev?*%
%TF.SameCoordinates,Original*%
%TF.FileFunction,Copper,L1,Top*%
%TF.FilePolarity,Positive*%
%FSLAX46Y46*%
G04 Gerber Fmt 4.6, Leading zero omitted, Abs format (unit mm)*
G04 Created by KiCad (PCBNEW 8.0.9-8.0.9-0~ubuntu24.04.1) date 2026-07-18 22:49:06*
%MOMM*%
%LPD*%
G01*
G04 APERTURE LIST*
G04 Aperture macros list*
%AMRoundRect*
0 Rectangle with rounded corners*
0 $1 Rounding radius*
0 $2 $3 $4 $5 $6 $7 $8 $9 X,Y pos of 4 corners*
0 Add a 4 corners polygon primitive as box body*
4,1,4,$2,$3,$4,$5,$6,$7,$8,$9,$2,$3,0*
0 Add four circle primitives for the rounded corners*
1,1,$1+$1,$2,$3*
1,1,$1+$1,$4,$5*
1,1,$1+$1,$6,$7*
1,1,$1+$1,$8,$9*
0 Add four rect primitives between the rounded corners*
20,1,$1+$1,$2,$3,$4,$5,0*
20,1,$1+$1,$4,$5,$6,$7,0*
20,1,$1+$1,$6,$7,$8,$9,0*
20,1,$1+$1,$8,$9,$2,$3,0*%
G04 Aperture macros list end*
%TA.AperFunction,SMDPad,CuDef*%
%ADD10R,0.600000X1.450000*%
%TD*%
%TA.AperFunction,SMDPad,CuDef*%
%ADD11R,0.300000X1.450000*%
%TD*%
%TA.AperFunction,ComponentPad*%
%ADD12O,1.000000X2.100000*%
%TD*%
%TA.AperFunction,ComponentPad*%
%ADD13O,1.000000X1.600000*%
%TD*%
%TA.AperFunction,SMDPad,CuDef*%
%ADD14RoundRect,0.200000X-0.200000X-0.275000X0.200000X-0.275000X0.200000X0.275000X-0.200000X0.275000X0*%
%TD*%
%TA.AperFunction,SMDPad,CuDef*%
%ADD15RoundRect,0.218750X-0.218750X-0.256250X0.218750X-0.256250X0.218750X0.256250X-0.218750X0.256250X0*%
%TD*%
%TA.AperFunction,SMDPad,CuDef*%
%ADD16RoundRect,0.075000X-0.350000X-0.075000X0.350000X-0.075000X0.350000X0.075000X-0.350000X0.075000X0*%
%TD*%
%TA.AperFunction,SMDPad,CuDef*%
%ADD17RoundRect,0.075000X0.075000X-0.350000X0.075000X0.350000X-0.075000X0.350000X-0.075000X-0.350000X0*%
%TD*%
%TA.AperFunction,ComponentPad*%
%ADD18R,1.700000X1.700000*%
%TD*%
%TA.AperFunction,ComponentPad*%
%ADD19O,1.700000X1.700000*%
%TD*%
%TA.AperFunction,SMDPad,CuDef*%
%ADD20RoundRect,0.225000X-0.225000X-0.250000X0.225000X-0.250000X0.225000X0.250000X-0.225000X0.250000X0*%
%TD*%
%TA.AperFunction,SMDPad,CuDef*%
%ADD21R,0.900000X1.700000*%
%TD*%
%TA.AperFunction,SMDPad,CuDef*%
%ADD22RoundRect,0.250000X-0.250000X-0.475000X0.250000X-0.475000X0.250000X0.475000X-0.250000X0.475000X0*%
%TD*%
%TA.AperFunction,ComponentPad*%
%ADD23RoundRect,0.250000X0.625000X-0.350000X0.625000X0.350000X-0.625000X0.350000X-0.625000X-0.350000X0*%
%TD*%
%TA.AperFunction,ComponentPad*%
%ADD24O,1.750000X1.200000*%
%TD*%
%TA.AperFunction,SMDPad,CuDef*%
%ADD25RoundRect,0.150000X-0.825000X-0.150000X0.825000X-0.150000X0.825000X0.150000X-0.825000X0.150000X0*%
%TD*%
%TA.AperFunction,SMDPad,CuDef*%
%ADD26R,1.500000X0.900000*%
%TD*%
%TA.AperFunction,SMDPad,CuDef*%
%ADD27R,0.900000X1.500000*%
%TD*%
%TA.AperFunction,SMDPad,CuDef*%
%ADD28R,1.050000X1.050000*%
%TD*%
%TA.AperFunction,HeatsinkPad*%
%ADD29C,0.600000*%
%TD*%
%TA.AperFunction,SMDPad,CuDef*%
%ADD30R,4.200000X4.200000*%
%TD*%
%TA.AperFunction,SMDPad,CuDef*%
%ADD31RoundRect,0.375000X-0.375000X0.625000X-0.375000X-0.625000X0.375000X-0.625000X0.375000X0.625000X0*%
%TD*%
%TA.AperFunction,SMDPad,CuDef*%
%ADD32RoundRect,0.500000X-1.400000X0.500000X-1.400000X-0.500000X1.400000X-0.500000X1.400000X0.500000X0*%
%TD*%
%TA.AperFunction,ViaPad*%
%ADD33C,0.600000*%
%TD*%
%TA.AperFunction,Conductor*%
%ADD34C,0.200000*%
%TD*%
G04 APERTURE END LIST*
D10*
%TO.P,J1,A1*%
%TO.N,GND*%
X38750000Y-37455000D03*
%TO.P,J1,A4*%
%TO.N,+5V*%
X39550000Y-37455000D03*
D11*
%TO.P,J1,A5*%
%TO.N,CC1*%
X40750000Y-37455000D03*
%TO.P,J1,A6*%
%TO.N,N/C*%
X41750000Y-37455000D03*
%TO.P,J1,A7*%
X42250000Y-37455000D03*
%TO.P,J1,A8*%
X43250000Y-37455000D03*
D10*
%TO.P,J1,A9*%
%TO.N,+5V*%
X44450000Y-37455000D03*
%TO.P,J1,A12*%
%TO.N,GND*%
X45250000Y-37455000D03*
%TO.P,J1,B1*%
X45250000Y-37455000D03*
%TO.P,J1,B4*%
%TO.N,+5V*%
X44450000Y-37455000D03*
D11*
%TO.P,J1,B5*%
%TO.N,CC2*%
X43750000Y-37455000D03*
%TO.P,J1,B6*%
%TO.N,N/C*%
X42750000Y-37455000D03*
%TO.P,J1,B7*%
X41250000Y-37455000D03*
%TO.P,J1,B8*%
X40250000Y-37455000D03*
D10*
%TO.P,J1,B9*%
%TO.N,+5V*%
X39550000Y-37455000D03*
%TO.P,J1,B12*%
%TO.N,GND*%
X38750000Y-37455000D03*
D12*
%TO.P,J1,S1*%
X37680000Y-38370000D03*
D13*
X37680000Y-42550000D03*
D12*
X46320000Y-38370000D03*
D13*
X46320000Y-42550000D03*
%TD*%
D14*
%TO.P,R1,1*%
%TO.N,FLEX1*%
X7175000Y-8000000D03*
%TO.P,R1,2*%
%TO.N,GND*%
X8825000Y-8000000D03*
%TD*%
%TO.P,R8,1*%
%TO.N,TP_PROG*%
X43675000Y-6000000D03*
%TO.P,R8,2*%
%TO.N,GND*%
X45325000Y-6000000D03*
%TD*%
D15*
%TO.P,D1,1*%
%TO.N,GND*%
X7212500Y-36500000D03*
%TO.P,D1,2*%
%TO.N,PWR_LED*%
X8787500Y-36500000D03*
%TD*%
%TO.P,D2,1*%
%TO.N,CHRG*%
X47712500Y-6000000D03*
%TO.P,D2,2*%
%TO.N,+5V*%
X49287500Y-6000000D03*
%TD*%
D16*
%TO.P,U4,1*%
%TO.N,N/C*%
X50050000Y-30750000D03*
%TO.P,U4,2*%
X50050000Y-31250000D03*
%TO.P,U4,3*%
X50050000Y-31750000D03*
%TO.P,U4,4*%
X50050000Y-32250000D03*
%TO.P,U4,5*%
X50050000Y-32750000D03*
%TO.P,U4,6*%
X50050000Y-33250000D03*
D17*
%TO.P,U4,7*%
X50750000Y-33950000D03*
%TO.P,U4,8*%
%TO.N,3V3*%
X51250000Y-33950000D03*
%TO.P,U4,9*%
%TO.N,GND*%
X51750000Y-33950000D03*
%TO.P,U4,10*%
%TO.N,REGOUT*%
X52250000Y-33950000D03*
%TO.P,U4,11*%
%TO.N,N/C*%
X52750000Y-33950000D03*
%TO.P,U4,12*%
%TO.N,IMU_INT*%
X53250000Y-33950000D03*
D16*
%TO.P,U4,13*%
%TO.N,3V3*%
X53950000Y-33250000D03*
%TO.P,U4,14*%
%TO.N,N/C*%
X53950000Y-32750000D03*
%TO.P,U4,15*%
X53950000Y-32250000D03*
%TO.P,U4,16*%
X53950000Y-31750000D03*
%TO.P,U4,17*%
X53950000Y-31250000D03*
%TO.P,U4,18*%
%TO.N,GND*%
X53950000Y-30750000D03*
D17*
%TO.P,U4,19*%
%TO.N,N/C*%
X53250000Y-30050000D03*
%TO.P,U4,20*%
X52750000Y-30050000D03*
%TO.P,U4,21*%
X52250000Y-30050000D03*
%TO.P,U4,22*%
X51750000Y-30050000D03*
%TO.P,U4,23*%
%TO.N,SCL*%
X51250000Y-30050000D03*
%TO.P,U4,24*%
%TO.N,SDA*%
X50750000Y-30050000D03*
%TD*%
D18*
%TO.P,J4,1*%
%TO.N,3V3*%
X28000000Y-42000000D03*
D19*
%TO.P,J4,2*%
%TO.N,UART_TX*%
X30540000Y-42000000D03*
%TO.P,J4,3*%
%TO.N,UART_RX*%
X33080000Y-42000000D03*
%TO.P,J4,4*%
%TO.N,GND*%
X35620000Y-42000000D03*
%TD*%
D20*
%TO.P,C1,1*%
%TO.N,3V3*%
X33225000Y-34500000D03*
%TO.P,C1,2*%
%TO.N,GND*%
X34775000Y-34500000D03*
%TD*%
D14*
%TO.P,R5,1*%
%TO.N,3V3*%
X7175000Y-34000000D03*
%TO.P,R5,2*%
%TO.N,PWR_LED*%
X8825000Y-34000000D03*
%TD*%
D21*
%TO.P,SW2,1*%
%TO.N,EN*%
X19300000Y-38000000D03*
%TO.P,SW2,2*%
%TO.N,GND*%
X22700000Y-38000000D03*
%TD*%
D20*
%TO.P,C9,1*%
%TO.N,3V3*%
X43225000Y-34000000D03*
%TO.P,C9,2*%
%TO.N,GND*%
X44775000Y-34000000D03*
%TD*%
D22*
%TO.P,C6,1*%
%TO.N,3V3*%
X43550000Y-13500000D03*
%TO.P,C6,2*%
%TO.N,GND*%
X45450000Y-13500000D03*
%TD*%
D23*
%TO.P,J3,1*%
%TO.N,+BAT*%
X55500000Y-41500000D03*
D24*
%TO.P,J3,2*%
%TO.N,GND*%
X55500000Y-39500000D03*
%TD*%
D15*
%TO.P,D3,1*%
%TO.N,GND*%
X10712500Y-36500000D03*
%TO.P,D3,2*%
%TO.N,STAT_LED*%
X12287500Y-36500000D03*
%TD*%
D20*
%TO.P,C2,1*%
%TO.N,3V3*%
X36725000Y-34500000D03*
%TO.P,C2,2*%
%TO.N,GND*%
X38275000Y-34500000D03*
%TD*%
D14*
%TO.P,R9,1*%
%TO.N,3V3*%
X7175000Y-39000000D03*
%TO.P,R9,2*%
%TO.N,EN*%
X8825000Y-39000000D03*
%TD*%
D22*
%TO.P,C5,1*%
%TO.N,+BAT*%
X43550000Y-9000000D03*
%TO.P,C5,2*%
%TO.N,GND*%
X45450000Y-9000000D03*
%TD*%
D14*
%TO.P,R3,1*%
%TO.N,FLEX3*%
X7175000Y-14800000D03*
%TO.P,R3,2*%
%TO.N,GND*%
X8825000Y-14800000D03*
%TD*%
D25*
%TO.P,U2,1*%
%TO.N,GND*%
X48525000Y-8095000D03*
%TO.P,U2,2*%
%TO.N,TP_PROG*%
X48525000Y-9365000D03*
%TO.P,U2,3*%
%TO.N,GND*%
X48525000Y-10635000D03*
%TO.P,U2,4*%
%TO.N,+5V*%
X48525000Y-11905000D03*
%TO.P,U2,5*%
%TO.N,+BAT*%
X53475000Y-11905000D03*
%TO.P,U2,6*%
%TO.N,N/C*%
X53475000Y-10635000D03*
%TO.P,U2,7*%
%TO.N,CHRG*%
X53475000Y-9365000D03*
%TO.P,U2,8*%
%TO.N,+5V*%
X53475000Y-8095000D03*
%TD*%
D22*
%TO.P,C10,1*%
%TO.N,REGOUT*%
X43050000Y-30500000D03*
%TO.P,C10,2*%
%TO.N,GND*%
X44950000Y-30500000D03*
%TD*%
D18*
%TO.P,J2,1*%
%TO.N,3V3*%
X7000000Y-42000000D03*
D19*
%TO.P,J2,2*%
%TO.N,FLEX1*%
X9540000Y-42000000D03*
%TO.P,J2,3*%
%TO.N,FLEX2*%
X12080000Y-42000000D03*
%TO.P,J2,4*%
%TO.N,FLEX3*%
X14620000Y-42000000D03*
%TO.P,J2,5*%
%TO.N,FLEX4*%
X17160000Y-42000000D03*
%TO.P,J2,6*%
%TO.N,FLEX5*%
X19700000Y-42000000D03*
%TO.P,J2,7*%
%TO.N,GND*%
X22240000Y-42000000D03*
%TD*%
D26*
%TO.P,U1,1*%
%TO.N,GND*%
X21250000Y-6750000D03*
%TO.P,U1,2*%
%TO.N,3V3*%
X21250000Y-8020000D03*
%TO.P,U1,3*%
%TO.N,EN*%
X21250000Y-9290000D03*
%TO.P,U1,4*%
%TO.N,FLEX1*%
X21250000Y-10560000D03*
%TO.P,U1,5*%
%TO.N,FLEX2*%
X21250000Y-11830000D03*
%TO.P,U1,6*%
%TO.N,FLEX3*%
X21250000Y-13100000D03*
%TO.P,U1,7*%
%TO.N,FLEX4*%
X21250000Y-14370000D03*
%TO.P,U1,8*%
%TO.N,FLEX5*%
X21250000Y-15640000D03*
%TO.P,U1,9*%
%TO.N,N/C*%
X21250000Y-16910000D03*
%TO.P,U1,10*%
X21250000Y-18180000D03*
%TO.P,U1,11*%
X21250000Y-19450000D03*
%TO.P,U1,12*%
X21250000Y-20720000D03*
%TO.P,U1,13*%
X21250000Y-21990000D03*
%TO.P,U1,14*%
X21250000Y-23260000D03*
D27*
%TO.P,U1,15*%
%TO.N,GND*%
X24290000Y-24510000D03*
%TO.P,U1,16*%
%TO.N,N/C*%
X25560000Y-24510000D03*
%TO.P,U1,17*%
X26830000Y-24510000D03*
%TO.P,U1,18*%
X28100000Y-24510000D03*
%TO.P,U1,19*%
X29370000Y-24510000D03*
%TO.P,U1,20*%
X30640000Y-24510000D03*
%TO.P,U1,21*%
X31910000Y-24510000D03*
%TO.P,U1,22*%
X33180000Y-24510000D03*
%TO.P,U1,23*%
X34450000Y-24510000D03*
%TO.P,U1,24*%
%TO.N,STAT_LED*%
X35720000Y-24510000D03*
D26*
%TO.P,U1,25*%
%TO.N,BOOT*%
X38750000Y-23260000D03*
%TO.P,U1,26*%
%TO.N,N/C*%
X38750000Y-21990000D03*
%TO.P,U1,27*%
X38750000Y-20720000D03*
%TO.P,U1,28*%
X38750000Y-19450000D03*
%TO.P,U1,29*%
X38750000Y-18180000D03*
%TO.P,U1,30*%
X38750000Y-16910000D03*
%TO.P,U1,31*%
%TO.N,IMU_INT*%
X38750000Y-15640000D03*
%TO.P,U1,32*%
%TO.N,N/C*%
X38750000Y-14370000D03*
%TO.P,U1,33*%
%TO.N,SDA*%
X38750000Y-13100000D03*
%TO.P,U1,34*%
%TO.N,UART_RX*%
X38750000Y-11830000D03*
%TO.P,U1,35*%
%TO.N,UART_TX*%
X38750000Y-10560000D03*
%TO.P,U1,36*%
%TO.N,SCL*%
X38750000Y-9290000D03*
%TO.P,U1,37*%
%TO.N,N/C*%
X38750000Y-8020000D03*
%TO.P,U1,38*%
%TO.N,GND*%
X38750000Y-6750000D03*
D28*
%TO.P,U1,39*%
X27795000Y-12565000D03*
D29*
X27795000Y-13327500D03*
D28*
X27795000Y-14090000D03*
D29*
X27795000Y-14852500D03*
D28*
X27795000Y-15615000D03*
D29*
X28557500Y-12565000D03*
X28557500Y-14090000D03*
X28557500Y-15615000D03*
D28*
X29320000Y-12565000D03*
D29*
X29320000Y-13327500D03*
D28*
X29320000Y-14090000D03*
D30*
X29320000Y-14090000D03*
D29*
X29320000Y-14852500D03*
D28*
X29320000Y-15615000D03*
D29*
X30082500Y-12565000D03*
X30082500Y-14090000D03*
X30082500Y-15615000D03*
D28*
X30845000Y-12565000D03*
D29*
X30845000Y-13327500D03*
D28*
X30845000Y-14090000D03*
D29*
X30845000Y-14852500D03*
D28*
X30845000Y-15615000D03*
%TD*%
D21*
%TO.P,SW1,1*%
%TO.N,BOOT*%
X14300000Y-38000000D03*
%TO.P,SW1,2*%
%TO.N,GND*%
X17700000Y-38000000D03*
%TD*%
D14*
%TO.P,R2,1*%
%TO.N,FLEX2*%
X7175000Y-11400000D03*
%TO.P,R2,2*%
%TO.N,GND*%
X8825000Y-11400000D03*
%TD*%
%TO.P,R6,1*%
%TO.N,CC1*%
X17175000Y-35000000D03*
%TO.P,R6,2*%
%TO.N,GND*%
X18825000Y-35000000D03*
%TD*%
%TO.P,R7,1*%
%TO.N,CC2*%
X21675000Y-35000000D03*
%TO.P,R7,2*%
%TO.N,GND*%
X23325000Y-35000000D03*
%TD*%
%TO.P,R10,1*%
%TO.N,3V3*%
X10675000Y-39000000D03*
%TO.P,R10,2*%
%TO.N,BOOT*%
X12325000Y-39000000D03*
%TD*%
D20*
%TO.P,C7,1*%
%TO.N,3V3*%
X43725000Y-17500000D03*
%TO.P,C7,2*%
%TO.N,GND*%
X45275000Y-17500000D03*
%TD*%
D31*
%TO.P,U3,1*%
%TO.N,GND*%
X53300000Y-16850000D03*
%TO.P,U3,2*%
%TO.N,3V3*%
X51000000Y-16850000D03*
%TO.P,U3,3*%
%TO.N,+BAT*%
X48700000Y-16850000D03*
D32*
%TO.P,U3,4*%
%TO.N,3V3*%
X51000000Y-23150000D03*
%TD*%
D14*
%TO.P,R4,1*%
%TO.N,FLEX4*%
X7175000Y-18200000D03*
%TO.P,R4,2*%
%TO.N,GND*%
X8825000Y-18200000D03*
%TD*%
%TO.P,R11,1*%
%TO.N,FLEX5*%
X7175000Y-21600000D03*
%TO.P,R11,2*%
%TO.N,GND*%
X8825000Y-21600000D03*
%TD*%
D33*
%TO.N,GND*%
X46320000Y-34397700D03*
%TO.N,3V3*%
X22511400Y-8020000D03*
X30506500Y-34402800D03*
%TO.N,+BAT*%
X52528400Y-12709700D03*
%TO.N,FLEX1*%
X10296300Y-10560000D03*
%TO.N,FLEX2*%
X12800200Y-12134700D03*
%TO.N,FLEX3*%
X15670500Y-13169500D03*
%TO.N,FLEX4*%
X15910100Y-15426100D03*
%TO.N,FLEX5*%
X17773500Y-16693200D03*
%TO.N,EN*%
X20846400Y-38037500D03*
X21108100Y-26445300D03*
%TO.N,IMU_INT*%
X47527000Y-35292100D03*
X40009800Y-20296900D03*
%TO.N,CC1*%
X21890000Y-32085700D03*
X27002300Y-36572200D03*
%TO.N,UART_TX*%
X36506200Y-10560000D03*
%TO.N,UART_RX*%
X37498000Y-11830000D03*
%TD*%
D34*
%TO.N,GND*%
X35620000Y-42000000D02*
X34468300Y-42000000D01*
X37323400Y-41448300D02*
X37680000Y-41448300D01*
X21825800Y-36499200D02*
X18825000Y-36499200D01*
X22700000Y-38000000D02*
X22700000Y-39151700D01*
X30082500Y-15615000D02*
X29320000Y-15615000D01*
X22700000Y-40533900D02*
X33270700Y-40533900D01*
X35620000Y-42000000D02*
X36771700Y-42000000D01*
X34775000Y-34500000D02*
X35552600Y-35277600D01*
X6474200Y-10605500D02*
X6472500Y-10607200D01*
X21675000Y-6750000D02*
X21250000Y-6750000D01*
X11500000Y-39440200D02*
X11500000Y-38612800D01*
X6472500Y-15298400D02*
X6819400Y-15645300D01*
X28557500Y-15615000D02*
X27795000Y-15615000D01*
X21825800Y-37877500D02*
X21825800Y-36499200D01*
X22385600Y-40848300D02*
X22700000Y-40533900D01*
X45275000Y-13675000D02*
X45275000Y-17500000D01*
X8028800Y-18996200D02*
X8825000Y-18200000D01*
X46442500Y-34275100D02*
X49604500Y-34275100D01*
X15145500Y-39802800D02*
X11862600Y-39802800D01*
X42737500Y-8237000D02*
X43525400Y-7449100D01*
X46320000Y-38370000D02*
X46320000Y-39721700D01*
X21825800Y-36499200D02*
X23325000Y-35000000D01*
X16948300Y-38000000D02*
X15145500Y-39802800D01*
X17324200Y-38000000D02*
X16948300Y-38000000D01*
X27795000Y-11738300D02*
X32783300Y-6750000D01*
X8020000Y-22405000D02*
X10712500Y-25097500D01*
X10207000Y-37319800D02*
X8032300Y-37319800D01*
X10712500Y-25097500D02*
X10712500Y-36500000D01*
X6819400Y-15645300D02*
X7979700Y-15645300D01*
X6794300Y-22405000D02*
X6472500Y-22083200D01*
X10712500Y-36500000D02*
X10207000Y-37005500D01*
X8020000Y-22405000D02*
X6794300Y-22405000D01*
X37680000Y-41999100D02*
X37680000Y-41448300D01*
X54101600Y-39721700D02*
X46320000Y-39721700D01*
X37680000Y-37018300D02*
X38270000Y-36428300D01*
X8042300Y-7217300D02*
X8825000Y-8000000D01*
X49839100Y-9692400D02*
X49839100Y-8961200D01*
X30082500Y-12565000D02*
X29320000Y-12565000D01*
X55500000Y-39500000D02*
X54323300Y-39500000D01*
X21675000Y-6750000D02*
X22301700Y-6750000D01*
X22301700Y-6750000D02*
X22806700Y-6750000D01*
X21250000Y-6750000D02*
X10075000Y-6750000D01*
X45940500Y-18165500D02*
X45275000Y-17500000D01*
X45450000Y-9000000D02*
X47085000Y-10635000D01*
X43899100Y-7449100D02*
X45450000Y-9000000D01*
X10075000Y-6750000D02*
X8825000Y-8000000D01*
X49399900Y-18165500D02*
X45940500Y-18165500D01*
X21948300Y-38000000D02*
X21825800Y-37877500D01*
X10207000Y-37005500D02*
X10207000Y-37319800D01*
X44775000Y-34000000D02*
X44950000Y-34000000D01*
X29320000Y-13327500D02*
X27795000Y-13327500D01*
X8032300Y-37319800D02*
X7212500Y-36500000D01*
X22806700Y-6750000D02*
X27795000Y-11738300D01*
X43739300Y-11789300D02*
X42737500Y-10787500D01*
X6472500Y-7510800D02*
X6766000Y-7217300D01*
X30845000Y-12565000D02*
X30082500Y-12565000D01*
X46320000Y-34397600D02*
X46320000Y-34397700D01*
X28557500Y-14090000D02*
X27795000Y-14090000D01*
X43739300Y-11789300D02*
X42682000Y-12846600D01*
X30082500Y-14090000D02*
X29320000Y-14090000D01*
X53300000Y-16850000D02*
X51981700Y-15531700D01*
X29320000Y-14090000D02*
X29320000Y-13327500D01*
X35552600Y-35277600D02*
X38275000Y-35277600D01*
X22240000Y-40848300D02*
X22385600Y-40848300D01*
X37680000Y-38370000D02*
X37680000Y-37018300D01*
X8825000Y-11400000D02*
X8030500Y-10605500D01*
X45325000Y-6000000D02*
X43899100Y-7425900D01*
X46320000Y-34397600D02*
X46442500Y-34275100D01*
X30845000Y-14090000D02*
X30082500Y-14090000D01*
X37680000Y-42550000D02*
X37680000Y-41999100D01*
X44950000Y-34000000D02*
X44950000Y-30500000D01*
X22700000Y-38000000D02*
X21948300Y-38000000D01*
X38750000Y-6750000D02*
X41250500Y-6750000D01*
X27795000Y-16028300D02*
X27795000Y-15615000D01*
X30845000Y-14090000D02*
X30845000Y-13327500D01*
X7979700Y-15645300D02*
X8825000Y-14800000D01*
X45450000Y-13500000D02*
X43739300Y-11789300D01*
X29320000Y-15615000D02*
X28557500Y-15615000D01*
X6472500Y-19230400D02*
X6706700Y-18996200D01*
X32783300Y-6750000D02*
X38750000Y-6750000D01*
X46320000Y-42550000D02*
X46320000Y-41999100D01*
X33270700Y-40533900D02*
X34468300Y-41731500D01*
X28557500Y-12565000D02*
X27795000Y-12565000D01*
X46320000Y-41999100D02*
X46320000Y-39721700D01*
X41250500Y-6750000D02*
X42737500Y-8237000D01*
X8030500Y-10605500D02*
X6474200Y-10605500D01*
X37680000Y-41999100D02*
X46320000Y-41999100D01*
X27795000Y-16441700D02*
X24290000Y-19946700D01*
X38275000Y-36428300D02*
X38750000Y-36428300D01*
X27795000Y-15615000D02*
X27795000Y-14852500D01*
X6474200Y-10605500D02*
X6472500Y-10603800D01*
X38275000Y-35277600D02*
X38275000Y-36428300D01*
X36771700Y-42000000D02*
X37323400Y-41448300D01*
X45347600Y-34397600D02*
X46320000Y-34397600D01*
X43899100Y-7425900D02*
X43899100Y-7449100D01*
X22700000Y-40533900D02*
X22700000Y-39151700D01*
X29320000Y-14090000D02*
X28557500Y-14090000D01*
X46320000Y-38370000D02*
X46320000Y-37018300D01*
X6706700Y-18996200D02*
X8028800Y-18996200D01*
X34468300Y-41731500D02*
X34468300Y-42000000D01*
X46320000Y-37018300D02*
X45686700Y-37018300D01*
X29320000Y-12565000D02*
X28557500Y-12565000D01*
X49930900Y-17634500D02*
X49399900Y-18165500D01*
X54323300Y-39500000D02*
X54101600Y-39721700D01*
X29320000Y-14852500D02*
X29320000Y-14090000D01*
X30845000Y-15615000D02*
X30082500Y-15615000D01*
X50315400Y-15531700D02*
X49930900Y-15916200D01*
X30845000Y-14852500D02*
X30845000Y-14090000D01*
X30845000Y-12565000D02*
X30845000Y-13327500D01*
X17700000Y-38000000D02*
X17324200Y-38000000D01*
X49604500Y-34275100D02*
X50019800Y-34690400D01*
X17324200Y-38000000D02*
X18825000Y-36499200D01*
X43525400Y-7449100D02*
X43899100Y-7449100D01*
X11500000Y-38612800D02*
X10207000Y-37319800D01*
X51981700Y-15531700D02*
X50315400Y-15531700D01*
X8825000Y-21600000D02*
X8020000Y-22405000D01*
X38270000Y-36428300D02*
X38275000Y-36428300D01*
X11862600Y-39802800D02*
X11500000Y-39440200D01*
X6819400Y-15645300D02*
X6458600Y-16006100D01*
X27795000Y-16028300D02*
X27795000Y-16441700D01*
X38275000Y-34500000D02*
X38275000Y-35277600D01*
X6458600Y-18748100D02*
X6706700Y-18996200D01*
X22240000Y-42000000D02*
X22240000Y-40848300D01*
X45450000Y-13500000D02*
X45275000Y-13675000D01*
X30845000Y-15615000D02*
X30845000Y-14852500D01*
X44950000Y-34000000D02*
X45347600Y-34397600D01*
X27795000Y-12565000D02*
X27795000Y-11738300D01*
X24290000Y-19946700D02*
X24290000Y-24510000D01*
X6766000Y-7217300D02*
X8042300Y-7217300D01*
X18825000Y-36499200D02*
X18825000Y-35000000D01*
X50019800Y-34690400D02*
X51467700Y-34690400D01*
%TO.N,3V3*%
X54677000Y-33068300D02*
X54677000Y-26827000D01*
X33905400Y-33722400D02*
X33225000Y-34402800D01*
X7679200Y-38495800D02*
X7175000Y-39000000D01*
X43550000Y-13500000D02*
X43550000Y-17325000D01*
X35947400Y-33722400D02*
X33905400Y-33722400D01*
X54677000Y-26827000D02*
X51000000Y-23150000D01*
X36725000Y-34500000D02*
X35947400Y-33722400D01*
X51530400Y-33202000D02*
X51250000Y-33482400D01*
X9855900Y-38180900D02*
X7679200Y-38180900D01*
X6472200Y-34702800D02*
X7175000Y-34000000D01*
X43550000Y-17325000D02*
X43725000Y-17500000D01*
X51000000Y-18568900D02*
X51000000Y-16850000D01*
X7000000Y-41424100D02*
X8727600Y-43151700D01*
X33225000Y-34402800D02*
X30506500Y-34402800D01*
X8727600Y-43151700D02*
X25696600Y-43151700D01*
X37502600Y-33722400D02*
X36725000Y-34500000D01*
X25696600Y-43151700D02*
X26848300Y-42000000D01*
X44765500Y-35895500D02*
X52370100Y-35895500D01*
X43225000Y-34000000D02*
X43225000Y-34355000D01*
X7000000Y-40848300D02*
X7175000Y-40673300D01*
X7679200Y-38180900D02*
X6472200Y-36973900D01*
X28000000Y-42000000D02*
X26848300Y-42000000D01*
X54495300Y-33250000D02*
X54677000Y-33068300D01*
X33225000Y-34402800D02*
X33225000Y-34500000D01*
X43225000Y-34355000D02*
X44765500Y-35895500D01*
X51250000Y-33482400D02*
X51250000Y-33950000D01*
X51000000Y-18568900D02*
X44793900Y-18568900D01*
X43225000Y-34000000D02*
X42947400Y-33722400D01*
X7000000Y-41424100D02*
X7000000Y-40848300D01*
X21250000Y-8020000D02*
X22301700Y-8020000D01*
X53950000Y-34315600D02*
X53950000Y-33250000D01*
X51000000Y-23150000D02*
X51000000Y-18568900D01*
X10675000Y-39000000D02*
X9855900Y-38180900D01*
X7679200Y-38180900D02*
X7679200Y-38495800D01*
X22301700Y-8020000D02*
X22511400Y-8020000D01*
X53902000Y-33202000D02*
X51530400Y-33202000D01*
X53950000Y-33250000D02*
X54495300Y-33250000D01*
X7000000Y-42000000D02*
X7000000Y-41424100D01*
X53950000Y-33250000D02*
X53902000Y-33202000D01*
X7175000Y-40673300D02*
X7175000Y-39000000D01*
X6472200Y-36973900D02*
X6472200Y-34702800D01*
X42947400Y-33722400D02*
X37502600Y-33722400D01*
X44793900Y-18568900D02*
X43725000Y-17500000D01*
X52370100Y-35895500D02*
X53950000Y-34315600D01*
%TO.N,+5V*%
X53884700Y-8095000D02*
X53475000Y-8095000D01*
X39550000Y-37455000D02*
X39550000Y-36428300D01*
X44448500Y-36428300D02*
X44450000Y-36429800D01*
X44450000Y-37455000D02*
X44450000Y-36429800D01*
X54475900Y-10000000D02*
X54755700Y-9720200D01*
X53475000Y-8095000D02*
X51380000Y-6000000D01*
X39550000Y-36428300D02*
X44448500Y-36428300D01*
X44450000Y-36428300D02*
X52412000Y-36428300D01*
X55089100Y-33751200D02*
X55089100Y-10613200D01*
X51380000Y-6000000D02*
X49287500Y-6000000D01*
X48525000Y-11905000D02*
X50460200Y-11905000D01*
X55089100Y-10613200D02*
X54475900Y-10000000D01*
X52412000Y-36428300D02*
X55089100Y-33751200D01*
X54755700Y-9720200D02*
X54755700Y-8966000D01*
X52365200Y-10000000D02*
X54475900Y-10000000D01*
X54755700Y-8966000D02*
X53884700Y-8095000D01*
X50460200Y-11905000D02*
X52365200Y-10000000D01*
X44450000Y-36429800D02*
X44450000Y-36428300D01*
%TO.N,+BAT*%
X48368600Y-13818600D02*
X43550000Y-9000000D01*
X52528400Y-12709700D02*
X51419500Y-13818600D01*
X53333100Y-11905000D02*
X52528400Y-12709700D01*
X53475000Y-11905000D02*
X53333100Y-11905000D01*
X48700000Y-13818600D02*
X48700000Y-16850000D01*
X48700000Y-13818600D02*
X48368600Y-13818600D01*
X51419500Y-13818600D02*
X48700000Y-13818600D01*
%TO.N,FLEX1*%
X10296300Y-10560000D02*
X9735000Y-10560000D01*
X21250000Y-10560000D02*
X10296300Y-10560000D01*
X9735000Y-10560000D02*
X7175000Y-8000000D01*
%TO.N,FLEX2*%
X7981900Y-12206900D02*
X7175000Y-11400000D01*
X12728000Y-12206900D02*
X7981900Y-12206900D01*
X19893600Y-12134700D02*
X12800200Y-12134700D01*
X21250000Y-11830000D02*
X20198300Y-11830000D01*
X20198300Y-11830000D02*
X19893600Y-12134700D01*
X12800200Y-12134700D02*
X12728000Y-12206900D01*
%TO.N,FLEX3*%
X21250000Y-13100000D02*
X15740000Y-13100000D01*
X15740000Y-13100000D02*
X15670500Y-13169500D01*
X8805500Y-13169500D02*
X15670500Y-13169500D01*
X7175000Y-14800000D02*
X8805500Y-13169500D01*
%TO.N,FLEX4*%
X15910100Y-15426100D02*
X9948900Y-15426100D01*
X16966200Y-14370000D02*
X15910100Y-15426100D01*
X9948900Y-15426100D02*
X7175000Y-18200000D01*
X21250000Y-14370000D02*
X16966200Y-14370000D01*
%TO.N,FLEX5*%
X17773500Y-16693200D02*
X18826700Y-15640000D01*
X18826700Y-15640000D02*
X21250000Y-15640000D01*
X12081800Y-16693200D02*
X17773500Y-16693200D01*
X7175000Y-21600000D02*
X12081800Y-16693200D01*
%TO.N,SDA*%
X39801700Y-13100000D02*
X40605100Y-13903400D01*
X40605100Y-19905100D02*
X50750000Y-30050000D01*
X40605100Y-13903400D02*
X40605100Y-19905100D01*
X38750000Y-13100000D02*
X39801700Y-13100000D01*
%TO.N,SCL*%
X51250000Y-28221700D02*
X51250000Y-30050000D01*
X41956000Y-11444300D02*
X41956000Y-18927700D01*
X39801700Y-9290000D02*
X41956000Y-11444300D01*
X38750000Y-9290000D02*
X39801700Y-9290000D01*
X41956000Y-18927700D02*
X51250000Y-28221700D01*
%TO.N,EN*%
X10079900Y-40254900D02*
X8825000Y-39000000D01*
X20846400Y-38037500D02*
X20089200Y-38037500D01*
X20089200Y-38037500D02*
X20051700Y-38000000D01*
X19300000Y-38000000D02*
X19675900Y-38000000D01*
X19675900Y-38000000D02*
X20051700Y-38000000D01*
X19675900Y-38000000D02*
X17421000Y-40254900D01*
X21250000Y-9290000D02*
X22301700Y-9290000D01*
X22301700Y-25251700D02*
X21108100Y-26445300D01*
X17421000Y-40254900D02*
X10079900Y-40254900D01*
X22301700Y-9290000D02*
X22301700Y-25251700D01*
%TO.N,BOOT*%
X37698300Y-24186600D02*
X37698300Y-23260000D01*
X15051700Y-38000000D02*
X15439800Y-38000000D01*
X17877500Y-34730400D02*
X19311500Y-33296400D01*
X14300000Y-38000000D02*
X15051700Y-38000000D01*
X17877500Y-35562300D02*
X17877500Y-34730400D01*
X15439800Y-38000000D02*
X17877500Y-35562300D01*
X12325000Y-39000000D02*
X13325000Y-38000000D01*
X13325000Y-38000000D02*
X14300000Y-38000000D01*
X28588500Y-33296400D02*
X37698300Y-24186600D01*
X38750000Y-23260000D02*
X37698300Y-23260000D01*
X19311500Y-33296400D02*
X28588500Y-33296400D01*
%TO.N,STAT_LED*%
X35720000Y-25561700D02*
X23225800Y-25561700D01*
X23225800Y-25561700D02*
X12287500Y-36500000D01*
X35720000Y-24510000D02*
X35720000Y-25561700D01*
%TO.N,CHRG*%
X53475000Y-9365000D02*
X51409700Y-9365000D01*
X48044700Y-6000000D02*
X47712500Y-6000000D01*
X51409700Y-9365000D02*
X48044700Y-6000000D01*
%TO.N,IMU_INT*%
X39801700Y-20088800D02*
X40009800Y-20296900D01*
X39801700Y-15640000D02*
X39801700Y-20088800D01*
X53250000Y-34436900D02*
X53250000Y-33950000D01*
X47527000Y-35292100D02*
X47728700Y-35493800D01*
X47728700Y-35493800D02*
X52193100Y-35493800D01*
X38750000Y-15640000D02*
X39801700Y-15640000D01*
X52193100Y-35493800D02*
X53250000Y-34436900D01*
%TO.N,TP_PROG*%
X45805700Y-5221500D02*
X46650100Y-6065900D01*
X43675000Y-6000000D02*
X44453500Y-5221500D01*
X44453500Y-5221500D02*
X45805700Y-5221500D01*
X46650100Y-6065900D02*
X46650100Y-7866900D01*
X48148200Y-9365000D02*
X48525000Y-9365000D01*
X46650100Y-7866900D02*
X48148200Y-9365000D01*
%TO.N,PWR_LED*%
X8787500Y-34037500D02*
X8825000Y-34000000D01*
X8787500Y-36500000D02*
X8787500Y-34037500D01*
%TO.N,CC1*%
X40750000Y-38540100D02*
X39492700Y-39797400D01*
X39492700Y-39797400D02*
X35939800Y-39797400D01*
X17175000Y-34824900D02*
X19914200Y-32085700D01*
X19914200Y-32085700D02*
X21890000Y-32085700D01*
X32714600Y-36572200D02*
X27002300Y-36572200D01*
X35939800Y-39797400D02*
X32714600Y-36572200D01*
X40750000Y-37455000D02*
X40750000Y-38540100D01*
X17175000Y-35000000D02*
X17175000Y-34824900D01*
%TO.N,CC2*%
X22459400Y-34215600D02*
X23770400Y-34215600D01*
X21675000Y-35000000D02*
X22459400Y-34215600D01*
X34450400Y-40211000D02*
X42020700Y-40211000D01*
X23770400Y-34215600D02*
X29552200Y-39997400D01*
X42020700Y-40211000D02*
X43750000Y-38481700D01*
X29552200Y-39997400D02*
X34236800Y-39997400D01*
X34236800Y-39997400D02*
X34450400Y-40211000D01*
X43750000Y-37455000D02*
X43750000Y-38481700D01*
%TO.N,REGOUT*%
X44599800Y-35092000D02*
X46876300Y-35092000D01*
X46876300Y-35092000D02*
X47277900Y-34690400D01*
X49753600Y-35092100D02*
X51666800Y-35092100D01*
X52250000Y-34508900D02*
X52250000Y-33950000D01*
X51666800Y-35092100D02*
X52250000Y-34508900D01*
X49351900Y-34690400D02*
X49753600Y-35092100D01*
X44000000Y-34492200D02*
X44599800Y-35092000D01*
X43050000Y-30500000D02*
X44000000Y-31450000D01*
X44000000Y-31450000D02*
X44000000Y-34492200D01*
X47277900Y-34690400D02*
X49351900Y-34690400D01*
%TO.N,UART_TX*%
X38750000Y-10560000D02*
X36506200Y-10560000D01*
%TO.N,UART_RX*%
X38750000Y-11830000D02*
X37498000Y-11830000D01*
%TD*%
%TA.AperFunction,Conductor*%
%TO.N,GND*%
G36*
X43033692Y-6018907D02*
G01*
X43069656Y-6068407D01*
X43074501Y-6099000D01*
X43074501Y-6306523D01*
X43089352Y-6400299D01*
X43089354Y-6400304D01*
X43146950Y-6513342D01*
X43236658Y-6603050D01*
X43349696Y-6660646D01*
X43443481Y-6675500D01*
X43906518Y-6675499D01*
X43906520Y-6675499D01*
X43906521Y-6675498D01*
X43953411Y-6668072D01*
X44000299Y-6660647D01*
X44000299Y-6660646D01*
X44000304Y-6660646D01*
X44113342Y-6603050D01*
X44203050Y-6513342D01*
X44260646Y-6400304D01*
X44275500Y-6306519D01*
X44275499Y-6098998D01*
X44294406Y-6040810D01*
X44343906Y-6004846D01*
X44374499Y-6000000D01*
X46118221Y-6000000D01*
X46176412Y-6018907D01*
X46188225Y-6028996D01*
X46320604Y-6161375D01*
X46348381Y-6215892D01*
X46349600Y-6231379D01*
X46349600Y-7906464D01*
X46351014Y-7911740D01*
X46370079Y-7982889D01*
X46391505Y-8020000D01*
X46409640Y-8051411D01*
X46878728Y-8520499D01*
X47346354Y-8988125D01*
X47374131Y-9042642D01*
X47365293Y-9101605D01*
X47359428Y-9113603D01*
X47359428Y-9113604D01*
X47359427Y-9113607D01*
X47349500Y-9181740D01*
X47349500Y-9548260D01*
X47356118Y-9593682D01*
X47359427Y-9616395D01*
X47394376Y-9687883D01*
X47410802Y-9721483D01*
X47493517Y-9804198D01*
X47547285Y-9830483D01*
X47598604Y-9855572D01*
X47598605Y-9855572D01*
X47598607Y-9855573D01*
X47666740Y-9865500D01*
X47666743Y-9865500D01*
X49383257Y-9865500D01*
X49383260Y-9865500D01*
X49451393Y-9855573D01*
X49556483Y-9804198D01*
X49639198Y-9721483D01*
X49690573Y-9616393D01*
X49700500Y-9548260D01*
X49700500Y-9181740D01*
X49690573Y-9113607D01*
X49690571Y-9113603D01*
X49657323Y-9045593D01*
X49639198Y-9008517D01*
X49556483Y-8925802D01*
X49546851Y-8921093D01*
X49451395Y-8874427D01*
X49424139Y-8870456D01*
X49383260Y-8864500D01*
X49383257Y-8864500D01*
X48113679Y-8864500D01*
X48055488Y-8845593D01*
X48043675Y-8835504D01*
X46979596Y-7771425D01*
X46951819Y-7716908D01*
X46950600Y-7701421D01*
X46950600Y-6526099D01*
X46969507Y-6467908D01*
X47019007Y-6431944D01*
X47080193Y-6431944D01*
X47129693Y-6467908D01*
X47137804Y-6481145D01*
X47150342Y-6505751D01*
X47244249Y-6599658D01*
X47362580Y-6659951D01*
X47429130Y-6670491D01*
X47460751Y-6675500D01*
X47460754Y-6675500D01*
X47964249Y-6675500D01*
X47992803Y-6670976D01*
X48062420Y-6659951D01*
X48142256Y-6619271D01*
X48202688Y-6609700D01*
X48257205Y-6637477D01*
X48257206Y-6637477D01*
X51225189Y-9605460D01*
X51225191Y-9605461D01*
X51225192Y-9605462D01*
X51225193Y-9605463D01*
X51293708Y-9645020D01*
X51293706Y-9645020D01*
X51293710Y-9645021D01*
X51293712Y-9645022D01*
X51370138Y-9665500D01*
X51449262Y-9665500D01*
X52035722Y-9665500D01*
X52093913Y-9684407D01*
X52129877Y-9733907D01*
X52129877Y-9795093D01*
X52105727Y-9834501D01*
X51215729Y-10724500D01*
X50364725Y-11575504D01*
X50310208Y-11603281D01*
X50294721Y-11604500D01*
X49728365Y-11604500D01*
X49670174Y-11585593D01*
X49644389Y-11554891D01*
X49643965Y-11555194D01*
X49640115Y-11549802D01*
X49639423Y-11548978D01*
X49639198Y-11548517D01*
X49556483Y-11465802D01*
X49519772Y-11447855D01*
X49451395Y-11414427D01*
X49424139Y-11410456D01*
X49383260Y-11404500D01*
X47666740Y-11404500D01*
X47632673Y-11409463D01*
X47598604Y-11414427D01*
X47493518Y-11465801D01*
X47410801Y-11548518D01*
X47359427Y-11653604D01*
X47354483Y-11687543D01*
X47349500Y-11721740D01*
X47349500Y-12088260D01*
X47350778Y-12097037D01*
X47355302Y-12128085D01*
X47344981Y-12188394D01*
X47301183Y-12231118D01*
X47240636Y-12239938D01*
X47187332Y-12212361D01*
X44279496Y-9304525D01*
X44251719Y-9250008D01*
X44250500Y-9234521D01*
X44250500Y-8470727D01*
X44250499Y-8470725D01*
X44247646Y-8440301D01*
X44202793Y-8312118D01*
X44198660Y-8306518D01*
X44122154Y-8202855D01*
X44122152Y-8202853D01*
X44122150Y-8202850D01*
X44122146Y-8202847D01*
X44122144Y-8202845D01*
X44012883Y-8122207D01*
X43884703Y-8077355D01*
X43884694Y-8077353D01*
X43854274Y-8074500D01*
X43854266Y-8074500D01*
X43245734Y-8074500D01*
X43245725Y-8074500D01*
X43215305Y-8077353D01*
X43215296Y-8077355D01*
X43087116Y-8122207D01*
X42977855Y-8202845D01*
X42977845Y-8202855D01*
X42897207Y-8312116D01*
X42852355Y-8440296D01*
X42852353Y-8440305D01*
X42849500Y-8470725D01*
X42849500Y-9529274D01*
X42852353Y-9559694D01*
X42852355Y-9559703D01*
X42897207Y-9687883D01*
X42977845Y-9797144D01*
X42977847Y-9797146D01*
X42977850Y-9797150D01*
X42977853Y-9797152D01*
X42977855Y-9797154D01*
X43087116Y-9877792D01*
X43087117Y-9877792D01*
X43087118Y-9877793D01*
X43215301Y-9922646D01*
X43245725Y-9925499D01*
X43245727Y-9925500D01*
X43245734Y-9925500D01*
X43854273Y-9925500D01*
X43854273Y-9925499D01*
X43884699Y-9922646D01*
X43946713Y-9900945D01*
X44007882Y-9899572D01*
X44049415Y-9924386D01*
X48128140Y-14003111D01*
X48128139Y-14003111D01*
X48184089Y-14059060D01*
X48252607Y-14098619D01*
X48252605Y-14098619D01*
X48252609Y-14098620D01*
X48252611Y-14098621D01*
X48326125Y-14118319D01*
X48377437Y-14151642D01*
X48399364Y-14208764D01*
X48399500Y-14213945D01*
X48399500Y-15550500D01*
X48380593Y-15608691D01*
X48331093Y-15644655D01*
X48300500Y-15649500D01*
X48287279Y-15649500D01*
X48174767Y-15664312D01*
X48174761Y-15664314D01*
X48034768Y-15722301D01*
X47914551Y-15814547D01*
X47914547Y-15814551D01*
X47822301Y-15934768D01*
X47764314Y-16074761D01*
X47764312Y-16074767D01*
X47749500Y-16187279D01*
X47749500Y-16187280D01*
X47749500Y-17512720D01*
X47764313Y-17625236D01*
X47775305Y-17651772D01*
X47817866Y-17754525D01*
X47822302Y-17765233D01*
X47914549Y-17885451D01*
X48034767Y-17977698D01*
X48174764Y-18035687D01*
X48287280Y-18050500D01*
X48287281Y-18050500D01*
X49112719Y-18050500D01*
X49112720Y-18050500D01*
X49225236Y-18035687D01*
X49365233Y-17977698D01*
X49485451Y-17885451D01*
X49577698Y-17765233D01*
X49635687Y-17625236D01*
X49650500Y-17512720D01*
X49650500Y-16187280D01*
X49635687Y-16074764D01*
X49577698Y-15934767D01*
X49485451Y-15814549D01*
X49365233Y-15722302D01*
X49310114Y-15699471D01*
X49225238Y-15664314D01*
X49225240Y-15664314D01*
X49225236Y-15664313D01*
X49225234Y-15664312D01*
X49225232Y-15664312D01*
X49112720Y-15649500D01*
X49099500Y-15649500D01*
X49041309Y-15630593D01*
X49005345Y-15581093D01*
X49000500Y-15550500D01*
X49000500Y-14218100D01*
X49019407Y-14159909D01*
X49068907Y-14123945D01*
X49099500Y-14119100D01*
X51459063Y-14119100D01*
X51459063Y-14119099D01*
X51535489Y-14098621D01*
X51604011Y-14059060D01*
X51659960Y-14003111D01*
X52423874Y-13239195D01*
X52478391Y-13211419D01*
X52493878Y-13210200D01*
X52600359Y-13210200D01*
X52600361Y-13210200D01*
X52738453Y-13169653D01*
X52859528Y-13091843D01*
X52953777Y-12983073D01*
X53013565Y-12852157D01*
X53022882Y-12787354D01*
X53034047Y-12709702D01*
X53034047Y-12709698D01*
X53030958Y-12688216D01*
X53041391Y-12627927D01*
X53058943Y-12604126D01*
X53228575Y-12434496D01*
X53283092Y-12406719D01*
X53298578Y-12405500D01*
X54333257Y-12405500D01*
X54333260Y-12405500D01*
X54401393Y-12395573D01*
X54506483Y-12344198D01*
X54589198Y-12261483D01*
X54600659Y-12238039D01*
X54643203Y-12194065D01*
X54703468Y-12183495D01*
X54758436Y-12210367D01*
X54787112Y-12264417D01*
X54788600Y-12281519D01*
X54788600Y-26274621D01*
X54769693Y-26332812D01*
X54720193Y-26368776D01*
X54659007Y-26368776D01*
X54619596Y-26344625D01*
X52703449Y-24428478D01*
X52675672Y-24373961D01*
X52685243Y-24313529D01*
X52722235Y-24273752D01*
X52835185Y-24205472D01*
X52955472Y-24085185D01*
X53043478Y-23939606D01*
X53094086Y-23777196D01*
X53100500Y-23706616D01*
X53100500Y-22593384D01*
X53094086Y-22522804D01*
X53043478Y-22360394D01*
X52955472Y-22214815D01*
X52835185Y-22094528D01*
X52797777Y-22071914D01*
X52689607Y-22006522D01*
X52689605Y-22006521D01*
X52527194Y-21955913D01*
X52456620Y-21949500D01*
X52456616Y-21949500D01*
X51399500Y-21949500D01*
X51341309Y-21930593D01*
X51305345Y-21881093D01*
X51300500Y-21850500D01*
X51300500Y-18149500D01*
X51319407Y-18091309D01*
X51368907Y-18055345D01*
X51399500Y-18050500D01*
X51412719Y-18050500D01*
X51412720Y-18050500D01*
X51525236Y-18035687D01*
X51665233Y-17977698D01*
X51785451Y-17885451D01*
X51877698Y-17765233D01*
X51935687Y-17625236D01*
X51950500Y-17512720D01*
X51950500Y-16187280D01*
X51935687Y-16074764D01*
X51877698Y-15934767D01*
X51785451Y-15814549D01*
X51665233Y-15722302D01*
X51610114Y-15699471D01*
X51525238Y-15664314D01*
X51525240Y-15664314D01*
X51525236Y-15664313D01*
X51525234Y-15664312D01*
X51525232Y-15664312D01*
X51412720Y-15649500D01*
X50587280Y-15649500D01*
X50587279Y-15649500D01*
X50474767Y-15664312D01*
X50474761Y-15664314D01*
X50334768Y-15722301D01*
X50214551Y-15814547D01*
X50214547Y-15814551D01*
X50122301Y-15934768D01*
X50064314Y-16074761D01*
X50064312Y-16074767D01*
X50049500Y-16187279D01*
X50049500Y-16187280D01*
X50049500Y-17512720D01*
X50064313Y-17625236D01*
X50075305Y-17651772D01*
X50117866Y-17754525D01*
X50122302Y-17765233D01*
X50214549Y-17885451D01*
X50334767Y-17977698D01*
X50474764Y-18035687D01*
X50587280Y-18050500D01*
X50600500Y-18050500D01*
X50658691Y-18069407D01*
X50694655Y-18118907D01*
X50699500Y-18149500D01*
X50699500Y-18169400D01*
X50680593Y-18227591D01*
X50631093Y-18263555D01*
X50600500Y-18268400D01*
X44959379Y-18268400D01*
X44901188Y-18249493D01*
X44889375Y-18239404D01*
X44404496Y-17754525D01*
X44376719Y-17700008D01*
X44375500Y-17684521D01*
X44375500Y-17216510D01*
X44371703Y-17192541D01*
X44359719Y-17116874D01*
X44359716Y-17116869D01*
X44359716Y-17116867D01*
X44298529Y-16996782D01*
X44298528Y-16996780D01*
X44203220Y-16901472D01*
X44203217Y-16901470D01*
X44083132Y-16840283D01*
X44083127Y-16840281D01*
X44083126Y-16840281D01*
X44049913Y-16835020D01*
X43983490Y-16824500D01*
X43983488Y-16824500D01*
X43949500Y-16824500D01*
X43891309Y-16805593D01*
X43855345Y-16756093D01*
X43850500Y-16725500D01*
X43850500Y-14504857D01*
X43869407Y-14446666D01*
X43916802Y-14411413D01*
X43945911Y-14401226D01*
X44012882Y-14377793D01*
X44122150Y-14297150D01*
X44202793Y-14187882D01*
X44247646Y-14059699D01*
X44250499Y-14029273D01*
X44250500Y-14029273D01*
X44250500Y-12970727D01*
X44250499Y-12970725D01*
X44247646Y-12940305D01*
X44247646Y-12940301D01*
X44202793Y-12812118D01*
X44184519Y-12787358D01*
X44122154Y-12702855D01*
X44122152Y-12702853D01*
X44122150Y-12702850D01*
X44122146Y-12702847D01*
X44122144Y-12702845D01*
X44012883Y-12622207D01*
X43884703Y-12577355D01*
X43884694Y-12577353D01*
X43854274Y-12574500D01*
X43854266Y-12574500D01*
X43245734Y-12574500D01*
X43245725Y-12574500D01*
X43215305Y-12577353D01*
X43215296Y-12577355D01*
X43087116Y-12622207D01*
X42977855Y-12702845D01*
X42977845Y-12702855D01*
X42897207Y-12812116D01*
X42852355Y-12940296D01*
X42852353Y-12940305D01*
X42849500Y-12970725D01*
X42849500Y-14029274D01*
X42852353Y-14059694D01*
X42852355Y-14059703D01*
X42897207Y-14187883D01*
X42977845Y-14297144D01*
X42977847Y-14297146D01*
X42977850Y-14297150D01*
X42977853Y-14297152D01*
X42977855Y-14297154D01*
X43087116Y-14377792D01*
X43087117Y-14377792D01*
X43087118Y-14377793D01*
X43136608Y-14395110D01*
X43183198Y-14411413D01*
X43231878Y-14448478D01*
X43249500Y-14504857D01*
X43249500Y-16857744D01*
X43230593Y-16915935D01*
X43220504Y-16927747D01*
X43151473Y-16996778D01*
X43151470Y-16996782D01*
X43090283Y-17116867D01*
X43090281Y-17116874D01*
X43074500Y-17216510D01*
X43074500Y-17783489D01*
X43090281Y-17883125D01*
X43090283Y-17883132D01*
X43147525Y-17995474D01*
X43151472Y-18003220D01*
X43246780Y-18098528D01*
X43246782Y-18098529D01*
X43366867Y-18159716D01*
X43366869Y-18159716D01*
X43366874Y-18159719D01*
X43442541Y-18171703D01*
X43466510Y-18175500D01*
X43466512Y-18175500D01*
X43934521Y-18175500D01*
X43992712Y-18194407D01*
X44004525Y-18204496D01*
X44553440Y-18753411D01*
X44553439Y-18753411D01*
X44609389Y-18809360D01*
X44677907Y-18848919D01*
X44677911Y-18848921D01*
X44754335Y-18869399D01*
X44754337Y-18869400D01*
X44754338Y-18869400D01*
X44833462Y-18869400D01*
X50600500Y-18869400D01*
X50658691Y-18888307D01*
X50694655Y-18937807D01*
X50699500Y-18968400D01*
X50699500Y-21850500D01*
X50680593Y-21908691D01*
X50631093Y-21944655D01*
X50600500Y-21949500D01*
X49543379Y-21949500D01*
X49472805Y-21955913D01*
X49310394Y-22006521D01*
X49310392Y-22006522D01*
X49164816Y-22094527D01*
X49044527Y-22214816D01*
X48956522Y-22360392D01*
X48956521Y-22360394D01*
X48905913Y-22522805D01*
X48899500Y-22593379D01*
X48899500Y-23706620D01*
X48905913Y-23777194D01*
X48956521Y-23939605D01*
X48956522Y-23939607D01*
X49005800Y-24021121D01*
X49044528Y-24085185D01*
X49164815Y-24205472D01*
X49310394Y-24293478D01*
X49472804Y-24344086D01*
X49543384Y-24350500D01*
X51734521Y-24350500D01*
X51792712Y-24369407D01*
X51804525Y-24379496D01*
X54347504Y-26922475D01*
X54375281Y-26976992D01*
X54376500Y-26992479D01*
X54376500Y-30800500D01*
X54357593Y-30858691D01*
X54308093Y-30894655D01*
X54277500Y-30899500D01*
X53572870Y-30899500D01*
X53572863Y-30899501D01*
X53492505Y-30915484D01*
X53492503Y-30915485D01*
X53401379Y-30976373D01*
X53401373Y-30976379D01*
X53340486Y-31067501D01*
X53340486Y-31067503D01*
X53340485Y-31067505D01*
X53340485Y-31067506D01*
X53324500Y-31147867D01*
X53324500Y-31352129D01*
X53324501Y-31352137D01*
X53340484Y-31432494D01*
X53340486Y-31432498D01*
X53348840Y-31445001D01*
X53365447Y-31503889D01*
X53348840Y-31554999D01*
X53340485Y-31567503D01*
X53340484Y-31567504D01*
X53324500Y-31647864D01*
X53324500Y-31852129D01*
X53324501Y-31852137D01*
X53340484Y-31932494D01*
X53340486Y-31932498D01*
X53348840Y-31945001D01*
X53365447Y-32003889D01*
X53348840Y-32054999D01*
X53340485Y-32067503D01*
X53340484Y-32067504D01*
X53324500Y-32147864D01*
X53324500Y-32352129D01*
X53324501Y-32352137D01*
X53340484Y-32432494D01*
X53340486Y-32432498D01*
X53348840Y-32445001D01*
X53365447Y-32503889D01*
X53348840Y-32554999D01*
X53340485Y-32567503D01*
X53340484Y-32567504D01*
X53324500Y-32647864D01*
X53324500Y-32647867D01*
X53324501Y-32802499D01*
X53305594Y-32860690D01*
X53256094Y-32896654D01*
X53225501Y-32901500D01*
X51490835Y-32901500D01*
X51414411Y-32921978D01*
X51414407Y-32921980D01*
X51345889Y-32961539D01*
X51009538Y-33297890D01*
X51008452Y-33299306D01*
X51007400Y-33300028D01*
X51004952Y-33302477D01*
X51004498Y-33302023D01*
X50958025Y-33333958D01*
X50910601Y-33336130D01*
X50852135Y-33324500D01*
X50852133Y-33324500D01*
X50774499Y-33324500D01*
X50716308Y-33305593D01*
X50680344Y-33256093D01*
X50675499Y-33225500D01*
X50675499Y-33147870D01*
X50675498Y-33147863D01*
X50659515Y-33067506D01*
X50659515Y-33067505D01*
X50651159Y-33054999D01*
X50634551Y-32996114D01*
X50651159Y-32944999D01*
X50659515Y-32932495D01*
X50675500Y-32852133D01*
X50675499Y-32647868D01*
X50659515Y-32567505D01*
X50651159Y-32554999D01*
X50634551Y-32496114D01*
X50651159Y-32444999D01*
X50659515Y-32432495D01*
X50675500Y-32352133D01*
X50675499Y-32147868D01*
X50659515Y-32067505D01*
X50651159Y-32054999D01*
X50634551Y-31996114D01*
X50651159Y-31944999D01*
X50659515Y-31932495D01*
X50675500Y-31852133D01*
X50675499Y-31647868D01*
X50659515Y-31567505D01*
X50651159Y-31554999D01*
X50634551Y-31496114D01*
X50651159Y-31444999D01*
X50659515Y-31432495D01*
X50675500Y-31352133D01*
X50675499Y-31147868D01*
X50659515Y-31067505D01*
X50651159Y-31054999D01*
X50634551Y-30996114D01*
X50651159Y-30944999D01*
X50659515Y-30932495D01*
X50675500Y-30852133D01*
X50675500Y-30774499D01*
X50694407Y-30716308D01*
X50743907Y-30680344D01*
X50774500Y-30675499D01*
X50852130Y-30675499D01*
X50852132Y-30675499D01*
X50932495Y-30659515D01*
X50944996Y-30651161D01*
X51003883Y-30634551D01*
X51055000Y-30651159D01*
X51067505Y-30659515D01*
X51147867Y-30675500D01*
X51352132Y-30675499D01*
X51432495Y-30659515D01*
X51444996Y-30651161D01*
X51503883Y-30634551D01*
X51555000Y-30651159D01*
X51567505Y-30659515D01*
X51647867Y-30675500D01*
X51852132Y-30675499D01*
X51932495Y-30659515D01*
X51944996Y-30651161D01*
X52003883Y-30634551D01*
X52055000Y-30651159D01*
X52067505Y-30659515D01*
X52147867Y-30675500D01*
X52352132Y-30675499D01*
X52432495Y-30659515D01*
X52444996Y-30651161D01*
X52503883Y-30634551D01*
X52555000Y-30651159D01*
X52567505Y-30659515D01*
X52647867Y-30675500D01*
X52852132Y-30675499D01*
X52932495Y-30659515D01*
X52944996Y-30651161D01*
X53003883Y-30634551D01*
X53055000Y-30651159D01*
X53067505Y-30659515D01*
X53147867Y-30675500D01*
X53352132Y-30675499D01*
X53432495Y-30659515D01*
X53523624Y-30598624D01*
X53584515Y-30507495D01*
X53600500Y-30427133D01*
X53600499Y-29672868D01*
X53584515Y-29592505D01*
X53574391Y-29577354D01*
X53523626Y-29501379D01*
X53523624Y-29501376D01*
X53469853Y-29465447D01*
X53432497Y-29440486D01*
X53432496Y-29440485D01*
X53432495Y-29440485D01*
X53352133Y-29424500D01*
X53352132Y-29424500D01*
X53147870Y-29424500D01*
X53147862Y-29424501D01*
X53067505Y-29440484D01*
X53067501Y-29440486D01*
X53054999Y-29448840D01*
X52996111Y-29465447D01*
X52945001Y-29448840D01*
X52932496Y-29440485D01*
X52932495Y-29440484D01*
X52852134Y-29424500D01*
X52647870Y-29424500D01*
X52647862Y-29424501D01*
X52567505Y-29440484D01*
X52567501Y-29440486D01*
X52554999Y-29448840D01*
X52496111Y-29465447D01*
X52445001Y-29448840D01*
X52432496Y-29440485D01*
X52432495Y-29440484D01*
X52352134Y-29424500D01*
X52147870Y-29424500D01*
X52147862Y-29424501D01*
X52067505Y-29440484D01*
X52067501Y-29440486D01*
X52054999Y-29448840D01*
X51996111Y-29465447D01*
X51945001Y-29448840D01*
X51932496Y-29440485D01*
X51932495Y-29440484D01*
X51852135Y-29424500D01*
X51649500Y-29424500D01*
X51591309Y-29405593D01*
X51555345Y-29356093D01*
X51550500Y-29325500D01*
X51550500Y-28182137D01*
X51550499Y-28182135D01*
X51530021Y-28105711D01*
X51530019Y-28105707D01*
X51490460Y-28037189D01*
X51434511Y-27981239D01*
X51434511Y-27981240D01*
X42285496Y-18832225D01*
X42257719Y-18777708D01*
X42256500Y-18762221D01*
X42256500Y-11404737D01*
X42256499Y-11404735D01*
X42236021Y-11328311D01*
X42236019Y-11328307D01*
X42196460Y-11259789D01*
X42140511Y-11203839D01*
X42140511Y-11203840D01*
X39986211Y-9049540D01*
X39979375Y-9045593D01*
X39917692Y-9009980D01*
X39917688Y-9009978D01*
X39841264Y-8989500D01*
X39841262Y-8989500D01*
X39799500Y-8989500D01*
X39741309Y-8970593D01*
X39705345Y-8921093D01*
X39700500Y-8890500D01*
X39700500Y-8820253D01*
X39700498Y-8820241D01*
X39697711Y-8806231D01*
X39688867Y-8761769D01*
X39654274Y-8709999D01*
X39637667Y-8651115D01*
X39654274Y-8600001D01*
X39688867Y-8548231D01*
X39700500Y-8489748D01*
X39700500Y-7550252D01*
X39688867Y-7491769D01*
X39644552Y-7425448D01*
X39644548Y-7425445D01*
X39578233Y-7381134D01*
X39578231Y-7381133D01*
X39578228Y-7381132D01*
X39578227Y-7381132D01*
X39519758Y-7369501D01*
X39519748Y-7369500D01*
X37980252Y-7369500D01*
X37980251Y-7369500D01*
X37980241Y-7369501D01*
X37921772Y-7381132D01*
X37921766Y-7381134D01*
X37855451Y-7425445D01*
X37855445Y-7425451D01*
X37811134Y-7491766D01*
X37811132Y-7491772D01*
X37799501Y-7550241D01*
X37799500Y-7550253D01*
X37799500Y-8489746D01*
X37799501Y-8489758D01*
X37811132Y-8548227D01*
X37811134Y-8548233D01*
X37845723Y-8599998D01*
X37862332Y-8658886D01*
X37845723Y-8710002D01*
X37811134Y-8761766D01*
X37811132Y-8761772D01*
X37799501Y-8820241D01*
X37799500Y-8820253D01*
X37799500Y-9759746D01*
X37799501Y-9759758D01*
X37811132Y-9818227D01*
X37811134Y-9818233D01*
X37845723Y-9869998D01*
X37862332Y-9928886D01*
X37845723Y-9980002D01*
X37811134Y-10031766D01*
X37811132Y-10031772D01*
X37799501Y-10090241D01*
X37799500Y-10090253D01*
X37799500Y-10160500D01*
X37780593Y-10218691D01*
X37731093Y-10254655D01*
X37700500Y-10259500D01*
X36953283Y-10259500D01*
X36895092Y-10240593D01*
X36878464Y-10225331D01*
X36877506Y-10224225D01*
X36837328Y-10177857D01*
X36804382Y-10156684D01*
X36716257Y-10100049D01*
X36716254Y-10100047D01*
X36716253Y-10100047D01*
X36716250Y-10100046D01*
X36578164Y-10059500D01*
X36578161Y-10059500D01*
X36434239Y-10059500D01*
X36434235Y-10059500D01*
X36296149Y-10100046D01*
X36296142Y-10100049D01*
X36175073Y-10177855D01*
X36080822Y-10286628D01*
X36021034Y-10417543D01*
X36000553Y-10559997D01*
X36000553Y-10560002D01*
X36021034Y-10702456D01*
X36064189Y-10796950D01*
X36080823Y-10833373D01*
X36163603Y-10928907D01*
X36175073Y-10942144D01*
X36283023Y-11011519D01*
X36296147Y-11019953D01*
X36402603Y-11051211D01*
X36434235Y-11060499D01*
X36434236Y-11060499D01*
X36434239Y-11060500D01*
X36434241Y-11060500D01*
X36578159Y-11060500D01*
X36578161Y-11060500D01*
X36716253Y-11019953D01*
X36837328Y-10942143D01*
X36878464Y-10894668D01*
X36930860Y-10863073D01*
X36953283Y-10860500D01*
X37700500Y-10860500D01*
X37758691Y-10879407D01*
X37794655Y-10928907D01*
X37799500Y-10959500D01*
X37799500Y-11029746D01*
X37799501Y-11029758D01*
X37811132Y-11088227D01*
X37811134Y-11088233D01*
X37845723Y-11139998D01*
X37862332Y-11198886D01*
X37845723Y-11250002D01*
X37811132Y-11301769D01*
X37808770Y-11307473D01*
X37769032Y-11353998D01*
X37709537Y-11368280D01*
X37689418Y-11364575D01*
X37662716Y-11356735D01*
X37569964Y-11329500D01*
X37569961Y-11329500D01*
X37426039Y-11329500D01*
X37426035Y-11329500D01*
X37287949Y-11370046D01*
X37287942Y-11370049D01*
X37166873Y-11447855D01*
X37072622Y-11556628D01*
X37012834Y-11687543D01*
X36992353Y-11829997D01*
X36992353Y-11830002D01*
X37012834Y-11972456D01*
X37065721Y-12088260D01*
X37072623Y-12103373D01*
X37161115Y-12205499D01*
X37166873Y-12212144D01*
X37248212Y-12264417D01*
X37287947Y-12289953D01*
X37387592Y-12319211D01*
X37426035Y-12330499D01*
X37426036Y-12330499D01*
X37426039Y-12330500D01*
X37426041Y-12330500D01*
X37569959Y-12330500D01*
X37569961Y-12330500D01*
X37689419Y-12295424D01*
X37750575Y-12297171D01*
X37799028Y-12334534D01*
X37808771Y-12352528D01*
X37811133Y-12358232D01*
X37845723Y-12409998D01*
X37862332Y-12468886D01*
X37845723Y-12520002D01*
X37811134Y-12571766D01*
X37811132Y-12571772D01*
X37799501Y-12630241D01*
X37799500Y-12630253D01*
X37799500Y-13569746D01*
X37799501Y-13569758D01*
X37811132Y-13628227D01*
X37811134Y-13628233D01*
X37845723Y-13679998D01*
X37862332Y-13738886D01*
X37845723Y-13790002D01*
X37811134Y-13841766D01*
X37811132Y-13841772D01*
X37799501Y-13900241D01*
X37799500Y-13900253D01*
X37799500Y-14839746D01*
X37799501Y-14839758D01*
X37811132Y-14898227D01*
X37811134Y-14898233D01*
X37845723Y-14949998D01*
X37862332Y-15008886D01*
X37845723Y-15060002D01*
X37811134Y-15111766D01*
X37811132Y-15111772D01*
X37799501Y-15170241D01*
X37799500Y-15170251D01*
X37799500Y-16109746D01*
X37799501Y-16109758D01*
X37811132Y-16168227D01*
X37811134Y-16168233D01*
X37845723Y-16219998D01*
X37862332Y-16278886D01*
X37845723Y-16330002D01*
X37811134Y-16381766D01*
X37811132Y-16381772D01*
X37799501Y-16440241D01*
X37799500Y-16440250D01*
X37799500Y-17379746D01*
X37799501Y-17379758D01*
X37811132Y-17438227D01*
X37811134Y-17438233D01*
X37845723Y-17489998D01*
X37862332Y-17548886D01*
X37845723Y-17600002D01*
X37811134Y-17651766D01*
X37811132Y-17651772D01*
X37799501Y-17710241D01*
X37799500Y-17710253D01*
X37799500Y-18649746D01*
X37799501Y-18649758D01*
X37811132Y-18708227D01*
X37811134Y-18708233D01*
X37845723Y-18759998D01*
X37862332Y-18818886D01*
X37845723Y-18870002D01*
X37811134Y-18921766D01*
X37811132Y-18921772D01*
X37799501Y-18980241D01*
X37799500Y-18980253D01*
X37799500Y-19919746D01*
X37799501Y-19919758D01*
X37811132Y-19978227D01*
X37811134Y-19978233D01*
X37845723Y-20029998D01*
X37862332Y-20088886D01*
X37845723Y-20140002D01*
X37811134Y-20191766D01*
X37811132Y-20191772D01*
X37799501Y-20250241D01*
X37799500Y-20250253D01*
X37799500Y-21189746D01*
X37799501Y-21189758D01*
X37811132Y-21248227D01*
X37811134Y-21248233D01*
X37845723Y-21299998D01*
X37862332Y-21358886D01*
X37845723Y-21410002D01*
X37811134Y-21461766D01*
X37811132Y-21461772D01*
X37799501Y-21520241D01*
X37799500Y-21520253D01*
X37799500Y-22459746D01*
X37799501Y-22459758D01*
X37811132Y-22518227D01*
X37811134Y-22518233D01*
X37845723Y-22569998D01*
X37862332Y-22628886D01*
X37845723Y-22680002D01*
X37811134Y-22731766D01*
X37811132Y-22731772D01*
X37799501Y-22790241D01*
X37799500Y-22790253D01*
X37799500Y-22860500D01*
X37780593Y-22918691D01*
X37731093Y-22954655D01*
X37700500Y-22959500D01*
X37658735Y-22959500D01*
X37582311Y-22979978D01*
X37582307Y-22979980D01*
X37513791Y-23019538D01*
X37457838Y-23075491D01*
X37418280Y-23144007D01*
X37418278Y-23144011D01*
X37397800Y-23220435D01*
X37397800Y-24021121D01*
X37378893Y-24079312D01*
X37368804Y-24091125D01*
X36539504Y-24920425D01*
X36484987Y-24948202D01*
X36424555Y-24938631D01*
X36381290Y-24895366D01*
X36370500Y-24850421D01*
X36370500Y-23740253D01*
X36370498Y-23740241D01*
X36363808Y-23706611D01*
X36358867Y-23681769D01*
X36314552Y-23615448D01*
X36299998Y-23605723D01*
X36248233Y-23571134D01*
X36248231Y-23571133D01*
X36248228Y-23571132D01*
X36248227Y-23571132D01*
X36189758Y-23559501D01*
X36189748Y-23559500D01*
X35250252Y-23559500D01*
X35250251Y-23559500D01*
X35250241Y-23559501D01*
X35191772Y-23571132D01*
X35191766Y-23571134D01*
X35140002Y-23605723D01*
X35081114Y-23622332D01*
X35029998Y-23605723D01*
X34978233Y-23571134D01*
X34978231Y-23571133D01*
X34978228Y-23571132D01*
X34978227Y-23571132D01*
X34919758Y-23559501D01*
X34919748Y-23559500D01*
X33980252Y-23559500D01*
X33980251Y-23559500D01*
X33980241Y-23559501D01*
X33921772Y-23571132D01*
X33921766Y-23571134D01*
X33870002Y-23605723D01*
X33811114Y-23622332D01*
X33759998Y-23605723D01*
X33708233Y-23571134D01*
X33708231Y-23571133D01*
X33708228Y-23571132D01*
X33708227Y-23571132D01*
X33649758Y-23559501D01*
X33649748Y-23559500D01*
X32710252Y-23559500D01*
X32710251Y-23559500D01*
X32710241Y-23559501D01*
X32651772Y-23571132D01*
X32651766Y-23571134D01*
X32600002Y-23605723D01*
X32541114Y-23622332D01*
X32489998Y-23605723D01*
X32438233Y-23571134D01*
X32438231Y-23571133D01*
X32438228Y-23571132D01*
X32438227Y-23571132D01*
X32379758Y-23559501D01*
X32379748Y-23559500D01*
X31440252Y-23559500D01*
X31440251Y-23559500D01*
X31440241Y-23559501D01*
X31381772Y-23571132D01*
X31381766Y-23571134D01*
X31330002Y-23605723D01*
X31271114Y-23622332D01*
X31219998Y-23605723D01*
X31168233Y-23571134D01*
X31168231Y-23571133D01*
X31168228Y-23571132D01*
X31168227Y-23571132D01*
X31109758Y-23559501D01*
X31109748Y-23559500D01*
X30170252Y-23559500D01*
X30170251Y-23559500D01*
X30170241Y-23559501D01*
X30111772Y-23571132D01*
X30111766Y-23571134D01*
X30060002Y-23605723D01*
X30001114Y-23622332D01*
X29949998Y-23605723D01*
X29898233Y-23571134D01*
X29898231Y-23571133D01*
X29898228Y-23571132D01*
X29898227Y-23571132D01*
X29839758Y-23559501D01*
X29839748Y-23559500D01*
X28900252Y-23559500D01*
X28900251Y-23559500D01*
X28900241Y-23559501D01*
X28841772Y-23571132D01*
X28841766Y-23571134D01*
X28790002Y-23605723D01*
X28731114Y-23622332D01*
X28679998Y-23605723D01*
X28628233Y-23571134D01*
X28628231Y-23571133D01*
X28628228Y-23571132D01*
X28628227Y-23571132D01*
X28569758Y-23559501D01*
X28569748Y-23559500D01*
X27630252Y-23559500D01*
X27630251Y-23559500D01*
X27630241Y-23559501D01*
X27571772Y-23571132D01*
X27571766Y-23571134D01*
X27520002Y-23605723D01*
X27461114Y-23622332D01*
X27409998Y-23605723D01*
X27358233Y-23571134D01*
X27358231Y-23571133D01*
X27358228Y-23571132D01*
X27358227Y-23571132D01*
X27299758Y-23559501D01*
X27299748Y-23559500D01*
X26360252Y-23559500D01*
X26360251Y-23559500D01*
X26360241Y-23559501D01*
X26301772Y-23571132D01*
X26301766Y-23571134D01*
X26250002Y-23605723D01*
X26191114Y-23622332D01*
X26139998Y-23605723D01*
X26088233Y-23571134D01*
X26088231Y-23571133D01*
X26088228Y-23571132D01*
X26088227Y-23571132D01*
X26029758Y-23559501D01*
X26029748Y-23559500D01*
X25090252Y-23559500D01*
X25090251Y-23559500D01*
X25090241Y-23559501D01*
X25031772Y-23571132D01*
X25031766Y-23571134D01*
X24965451Y-23615445D01*
X24965445Y-23615451D01*
X24921134Y-23681766D01*
X24921132Y-23681772D01*
X24909501Y-23740241D01*
X24909500Y-23740253D01*
X24909500Y-25162200D01*
X24890593Y-25220391D01*
X24841093Y-25256355D01*
X24810500Y-25261200D01*
X23186235Y-25261200D01*
X23109811Y-25281678D01*
X23109807Y-25281680D01*
X23093213Y-25291260D01*
X23093214Y-25291261D01*
X23041290Y-25321239D01*
X21773113Y-26589416D01*
X21718596Y-26617193D01*
X21658164Y-26607622D01*
X21614899Y-26564357D01*
X21605117Y-26505322D01*
X21613747Y-26445300D01*
X21610658Y-26423818D01*
X21621090Y-26363528D01*
X21638643Y-26339726D01*
X22542160Y-25436211D01*
X22561945Y-25401940D01*
X22576199Y-25377254D01*
X22576209Y-25377235D01*
X22576236Y-25377189D01*
X22581721Y-25367689D01*
X22602200Y-25291262D01*
X22602200Y-9250438D01*
X22581721Y-9174011D01*
X22542160Y-9105489D01*
X22486211Y-9049540D01*
X22479375Y-9045593D01*
X22417692Y-9009980D01*
X22417688Y-9009978D01*
X22341264Y-8989500D01*
X22341262Y-8989500D01*
X22299500Y-8989500D01*
X22241309Y-8970593D01*
X22205345Y-8921093D01*
X22200500Y-8890500D01*
X22200500Y-8820253D01*
X22200498Y-8820241D01*
X22197711Y-8806231D01*
X22188867Y-8761769D01*
X22154274Y-8709999D01*
X22137667Y-8651115D01*
X22154274Y-8600001D01*
X22188867Y-8548231D01*
X22188868Y-8548223D01*
X22192245Y-8540072D01*
X22231980Y-8493545D01*
X22291474Y-8479259D01*
X22311602Y-8482964D01*
X22439435Y-8520499D01*
X22439436Y-8520499D01*
X22439439Y-8520500D01*
X22439441Y-8520500D01*
X22583359Y-8520500D01*
X22583361Y-8520500D01*
X22721453Y-8479953D01*
X22842528Y-8402143D01*
X22936777Y-8293373D01*
X22996565Y-8162457D01*
X23017047Y-8020000D01*
X23011711Y-7982889D01*
X22996565Y-7877543D01*
X22936777Y-7746628D01*
X22936777Y-7746627D01*
X22842528Y-7637857D01*
X22842527Y-7637856D01*
X22842526Y-7637855D01*
X22721457Y-7560049D01*
X22721454Y-7560047D01*
X22721453Y-7560047D01*
X22721450Y-7560046D01*
X22583364Y-7519500D01*
X22583361Y-7519500D01*
X22439439Y-7519500D01*
X22439435Y-7519500D01*
X22311602Y-7557035D01*
X22250441Y-7555287D01*
X22201989Y-7517924D01*
X22192246Y-7499929D01*
X22188867Y-7491772D01*
X22188867Y-7491769D01*
X22144552Y-7425448D01*
X22144548Y-7425445D01*
X22078233Y-7381134D01*
X22078231Y-7381133D01*
X22078228Y-7381132D01*
X22078227Y-7381132D01*
X22019758Y-7369501D01*
X22019748Y-7369500D01*
X20480252Y-7369500D01*
X20480251Y-7369500D01*
X20480241Y-7369501D01*
X20421772Y-7381132D01*
X20421766Y-7381134D01*
X20355451Y-7425445D01*
X20355445Y-7425451D01*
X20311134Y-7491766D01*
X20311132Y-7491772D01*
X20299501Y-7550241D01*
X20299500Y-7550253D01*
X20299500Y-8489746D01*
X20299501Y-8489758D01*
X20311132Y-8548227D01*
X20311134Y-8548233D01*
X20345723Y-8599998D01*
X20362332Y-8658886D01*
X20345723Y-8710002D01*
X20311134Y-8761766D01*
X20311132Y-8761772D01*
X20299501Y-8820241D01*
X20299500Y-8820253D01*
X20299500Y-9759746D01*
X20299501Y-9759758D01*
X20311132Y-9818227D01*
X20311134Y-9818233D01*
X20345723Y-9869998D01*
X20362332Y-9928886D01*
X20345723Y-9980002D01*
X20311134Y-10031766D01*
X20311132Y-10031772D01*
X20299501Y-10090241D01*
X20299500Y-10090253D01*
X20299500Y-10160500D01*
X20280593Y-10218691D01*
X20231093Y-10254655D01*
X20200500Y-10259500D01*
X10743383Y-10259500D01*
X10685192Y-10240593D01*
X10668564Y-10225331D01*
X10667606Y-10224225D01*
X10627428Y-10177857D01*
X10594482Y-10156684D01*
X10506357Y-10100049D01*
X10506354Y-10100047D01*
X10506353Y-10100047D01*
X10506350Y-10100046D01*
X10368264Y-10059500D01*
X10368261Y-10059500D01*
X10224339Y-10059500D01*
X10224335Y-10059500D01*
X10086249Y-10100046D01*
X10086242Y-10100049D01*
X9965176Y-10177854D01*
X9965172Y-10177857D01*
X9947831Y-10197869D01*
X9895434Y-10229463D01*
X9834473Y-10224225D01*
X9803010Y-10203039D01*
X7804495Y-8204524D01*
X7776718Y-8150007D01*
X7775499Y-8134520D01*
X7775499Y-7693478D01*
X7775498Y-7693476D01*
X7760647Y-7599700D01*
X7760646Y-7599698D01*
X7760646Y-7599696D01*
X7703050Y-7486658D01*
X7613342Y-7396950D01*
X7500304Y-7339354D01*
X7500305Y-7339354D01*
X7406522Y-7324500D01*
X6943479Y-7324500D01*
X6943476Y-7324501D01*
X6849700Y-7339352D01*
X6849695Y-7339354D01*
X6736659Y-7396949D01*
X6646949Y-7486659D01*
X6589354Y-7599695D01*
X6574500Y-7693477D01*
X6574500Y-8306520D01*
X6574501Y-8306523D01*
X6589352Y-8400299D01*
X6589354Y-8400304D01*
X6646950Y-8513342D01*
X6736658Y-8603050D01*
X6849696Y-8660646D01*
X6943481Y-8675500D01*
X7384520Y-8675499D01*
X7442711Y-8694406D01*
X7454524Y-8704495D01*
X9550489Y-10800460D01*
X9550491Y-10800461D01*
X9550492Y-10800462D01*
X9550493Y-10800463D01*
X9619008Y-10840020D01*
X9619006Y-10840020D01*
X9619010Y-10840021D01*
X9619012Y-10840022D01*
X9695438Y-10860500D01*
X9774562Y-10860500D01*
X9849217Y-10860500D01*
X9907408Y-10879407D01*
X9924033Y-10894667D01*
X9965172Y-10942143D01*
X10086247Y-11019953D01*
X10192703Y-11051211D01*
X10224335Y-11060499D01*
X10224336Y-11060499D01*
X10224339Y-11060500D01*
X10224341Y-11060500D01*
X10368259Y-11060500D01*
X10368261Y-11060500D01*
X10506353Y-11019953D01*
X10627428Y-10942143D01*
X10668564Y-10894668D01*
X10720960Y-10863073D01*
X10743383Y-10860500D01*
X20200500Y-10860500D01*
X20258691Y-10879407D01*
X20294655Y-10928907D01*
X20299500Y-10959500D01*
X20299500Y-11029746D01*
X20299501Y-11029758D01*
X20311132Y-11088227D01*
X20311134Y-11088233D01*
X20345723Y-11139998D01*
X20362332Y-11198886D01*
X20345723Y-11250002D01*
X20311134Y-11301766D01*
X20311132Y-11301772D01*
X20299501Y-11360241D01*
X20299500Y-11360253D01*
X20299500Y-11430500D01*
X20280593Y-11488691D01*
X20231093Y-11524655D01*
X20200500Y-11529500D01*
X20158735Y-11529500D01*
X20082311Y-11549978D01*
X20082307Y-11549980D01*
X20022502Y-11584509D01*
X20022502Y-11584510D01*
X20013791Y-11589539D01*
X20013785Y-11589543D01*
X19798124Y-11805204D01*
X19743608Y-11832981D01*
X19728121Y-11834200D01*
X13247283Y-11834200D01*
X13189092Y-11815293D01*
X13172464Y-11800031D01*
X13131328Y-11752557D01*
X13098382Y-11731384D01*
X13010257Y-11674749D01*
X13010254Y-11674747D01*
X13010253Y-11674747D01*
X13010250Y-11674746D01*
X12872164Y-11634200D01*
X12872161Y-11634200D01*
X12728239Y-11634200D01*
X12728235Y-11634200D01*
X12590149Y-11674746D01*
X12590142Y-11674749D01*
X12469073Y-11752555D01*
X12427699Y-11800304D01*
X12374823Y-11861327D01*
X12374822Y-11861328D01*
X12370187Y-11866678D01*
X12369147Y-11865777D01*
X12327712Y-11899656D01*
X12291798Y-11906400D01*
X8147379Y-11906400D01*
X8089188Y-11887493D01*
X8077375Y-11877404D01*
X7804495Y-11604524D01*
X7776718Y-11550007D01*
X7775499Y-11534520D01*
X7775499Y-11093478D01*
X7775498Y-11093476D01*
X7760647Y-10999700D01*
X7760646Y-10999698D01*
X7760646Y-10999696D01*
X7703050Y-10886658D01*
X7613342Y-10796950D01*
X7500304Y-10739354D01*
X7500305Y-10739354D01*
X7406522Y-10724500D01*
X6943479Y-10724500D01*
X6943476Y-10724501D01*
X6849700Y-10739352D01*
X6849695Y-10739354D01*
X6736659Y-10796949D01*
X6646949Y-10886659D01*
X6589354Y-10999695D01*
X6574500Y-11093477D01*
X6574500Y-11706520D01*
X6574501Y-11706523D01*
X6589352Y-11800299D01*
X6589354Y-11800304D01*
X6646950Y-11913342D01*
X6736658Y-12003050D01*
X6849696Y-12060646D01*
X6943481Y-12075500D01*
X7384520Y-12075499D01*
X7442711Y-12094406D01*
X7454524Y-12104495D01*
X7741440Y-12391411D01*
X7741439Y-12391411D01*
X7797389Y-12447360D01*
X7865907Y-12486919D01*
X7865911Y-12486921D01*
X7942335Y-12507399D01*
X7942337Y-12507400D01*
X7942338Y-12507400D01*
X12425309Y-12507400D01*
X12478832Y-12523116D01*
X12590142Y-12594650D01*
X12590147Y-12594653D01*
X12696603Y-12625911D01*
X12728235Y-12635199D01*
X12728236Y-12635199D01*
X12728239Y-12635200D01*
X12728241Y-12635200D01*
X12872159Y-12635200D01*
X12872161Y-12635200D01*
X13010253Y-12594653D01*
X13131328Y-12516843D01*
X13172464Y-12469368D01*
X13224860Y-12437773D01*
X13247283Y-12435200D01*
X19933163Y-12435200D01*
X19933163Y-12435199D01*
X20009589Y-12414721D01*
X20078111Y-12375160D01*
X20119259Y-12334012D01*
X20134061Y-12319211D01*
X20144310Y-12308961D01*
X20198825Y-12281181D01*
X20259258Y-12290749D01*
X20302524Y-12334012D01*
X20309847Y-12355125D01*
X20311134Y-12358233D01*
X20345723Y-12409998D01*
X20362332Y-12468886D01*
X20345723Y-12520002D01*
X20311134Y-12571766D01*
X20311132Y-12571772D01*
X20299501Y-12630241D01*
X20299500Y-12630253D01*
X20299500Y-12700500D01*
X20280593Y-12758691D01*
X20231093Y-12794655D01*
X20200500Y-12799500D01*
X16049592Y-12799500D01*
X15996069Y-12783784D01*
X15880557Y-12709549D01*
X15880554Y-12709547D01*
X15880553Y-12709547D01*
X15880550Y-12709546D01*
X15742464Y-12669000D01*
X15742461Y-12669000D01*
X15598539Y-12669000D01*
X15598535Y-12669000D01*
X15460449Y-12709546D01*
X15460442Y-12709549D01*
X15339376Y-12787354D01*
X15339373Y-12787356D01*
X15339372Y-12787357D01*
X15317917Y-12812118D01*
X15298236Y-12834831D01*
X15245840Y-12866427D01*
X15223417Y-12869000D01*
X8765935Y-12869000D01*
X8689514Y-12889477D01*
X8689509Y-12889479D01*
X8644459Y-12915489D01*
X8620989Y-12929039D01*
X7454522Y-14095504D01*
X7400006Y-14123281D01*
X7384519Y-14124500D01*
X6943479Y-14124500D01*
X6943476Y-14124501D01*
X6849700Y-14139352D01*
X6849695Y-14139354D01*
X6736659Y-14196949D01*
X6646949Y-14286659D01*
X6589354Y-14399695D01*
X6574500Y-14493477D01*
X6574500Y-15106520D01*
X6574501Y-15106523D01*
X6589352Y-15200299D01*
X6589354Y-15200304D01*
X6646950Y-15313342D01*
X6736658Y-15403050D01*
X6849696Y-15460646D01*
X6943481Y-15475500D01*
X7406518Y-15475499D01*
X7406520Y-15475499D01*
X7406521Y-15475498D01*
X7453411Y-15468072D01*
X7500299Y-15460647D01*
X7500299Y-15460646D01*
X7500304Y-15460646D01*
X7613342Y-15403050D01*
X7703050Y-15313342D01*
X7760646Y-15200304D01*
X7775500Y-15106519D01*
X7775499Y-14665477D01*
X7794406Y-14607287D01*
X7804489Y-14595481D01*
X8900975Y-13498996D01*
X8955492Y-13471219D01*
X8970979Y-13470000D01*
X15223417Y-13470000D01*
X15281608Y-13488907D01*
X15298233Y-13504167D01*
X15339372Y-13551643D01*
X15367560Y-13569758D01*
X15458548Y-13628233D01*
X15460447Y-13629453D01*
X15566903Y-13660711D01*
X15598535Y-13669999D01*
X15598536Y-13669999D01*
X15598539Y-13670000D01*
X15598541Y-13670000D01*
X15742459Y-13670000D01*
X15742461Y-13670000D01*
X15880553Y-13629453D01*
X16001628Y-13551643D01*
X16095877Y-13442873D01*
X16095877Y-13442871D01*
X16100513Y-13437522D01*
X16102311Y-13439080D01*
X16141260Y-13407241D01*
X16177167Y-13400500D01*
X20200500Y-13400500D01*
X20258691Y-13419407D01*
X20294655Y-13468907D01*
X20299500Y-13499500D01*
X20299500Y-13569746D01*
X20299501Y-13569758D01*
X20311132Y-13628227D01*
X20311134Y-13628233D01*
X20345723Y-13679998D01*
X20362332Y-13738886D01*
X20345723Y-13790002D01*
X20311134Y-13841766D01*
X20311132Y-13841772D01*
X20299501Y-13900241D01*
X20299500Y-13900253D01*
X20299500Y-13970500D01*
X20280593Y-14028691D01*
X20231093Y-14064655D01*
X20200500Y-14069500D01*
X16926635Y-14069500D01*
X16850218Y-14089976D01*
X16850207Y-14089981D01*
X16835240Y-14098622D01*
X16781689Y-14129539D01*
X16014623Y-14896604D01*
X15960107Y-14924381D01*
X15944620Y-14925600D01*
X15838135Y-14925600D01*
X15700049Y-14966146D01*
X15700042Y-14966149D01*
X15578976Y-15043954D01*
X15578971Y-15043958D01*
X15537836Y-15091431D01*
X15485440Y-15123027D01*
X15463017Y-15125600D01*
X9909335Y-15125600D01*
X9832912Y-15146078D01*
X9791042Y-15170252D01*
X9791041Y-15170251D01*
X9764390Y-15185639D01*
X7454523Y-17495504D01*
X7400006Y-17523281D01*
X7384519Y-17524500D01*
X6943479Y-17524500D01*
X6943476Y-17524501D01*
X6849700Y-17539352D01*
X6849695Y-17539354D01*
X6736659Y-17596949D01*
X6646949Y-17686659D01*
X6589354Y-17799695D01*
X6574500Y-17893477D01*
X6574500Y-18506520D01*
X6574501Y-18506523D01*
X6589352Y-18600299D01*
X6589354Y-18600304D01*
X6646950Y-18713342D01*
X6736658Y-18803050D01*
X6849696Y-18860646D01*
X6943481Y-18875500D01*
X7406518Y-18875499D01*
X7406520Y-18875499D01*
X7406521Y-18875498D01*
X7453411Y-18868072D01*
X7500299Y-18860647D01*
X7500299Y-18860646D01*
X7500304Y-18860646D01*
X7613342Y-18803050D01*
X7703050Y-18713342D01*
X7760646Y-18600304D01*
X7775500Y-18506519D01*
X7775499Y-18065477D01*
X7794406Y-18007287D01*
X7804489Y-17995480D01*
X10044375Y-15755596D01*
X10098892Y-15727819D01*
X10114379Y-15726600D01*
X15463017Y-15726600D01*
X15521208Y-15745507D01*
X15537833Y-15760767D01*
X15578972Y-15808243D01*
X15700047Y-15886053D01*
X15806503Y-15917311D01*
X15838135Y-15926599D01*
X15838136Y-15926599D01*
X15838139Y-15926600D01*
X15838141Y-15926600D01*
X15982059Y-15926600D01*
X15982061Y-15926600D01*
X16120153Y-15886053D01*
X16241228Y-15808243D01*
X16335477Y-15699473D01*
X16395265Y-15568557D01*
X16402092Y-15521071D01*
X16415747Y-15426102D01*
X16415747Y-15426100D01*
X16412658Y-15404618D01*
X16423090Y-15344328D01*
X16440647Y-15320523D01*
X17061676Y-14699496D01*
X17116192Y-14671719D01*
X17131679Y-14670500D01*
X20200500Y-14670500D01*
X20258691Y-14689407D01*
X20294655Y-14738907D01*
X20299500Y-14769500D01*
X20299500Y-14839746D01*
X20299501Y-14839758D01*
X20311132Y-14898227D01*
X20311134Y-14898233D01*
X20345723Y-14949998D01*
X20362332Y-15008886D01*
X20345723Y-15060002D01*
X20311134Y-15111766D01*
X20311132Y-15111772D01*
X20299501Y-15170241D01*
X20299500Y-15170251D01*
X20299500Y-15240500D01*
X20280593Y-15298691D01*
X20231093Y-15334655D01*
X20200500Y-15339500D01*
X18866262Y-15339500D01*
X18787138Y-15339500D01*
X18740361Y-15352033D01*
X18710707Y-15359979D01*
X18642193Y-15399536D01*
X18642188Y-15399540D01*
X17878023Y-16163704D01*
X17823507Y-16191481D01*
X17808020Y-16192700D01*
X17701535Y-16192700D01*
X17563449Y-16233246D01*
X17563442Y-16233249D01*
X17442376Y-16311054D01*
X17442371Y-16311058D01*
X17401236Y-16358531D01*
X17348840Y-16390127D01*
X17326417Y-16392700D01*
X12042235Y-16392700D01*
X11965812Y-16413178D01*
X11918919Y-16440252D01*
X11918918Y-16440251D01*
X11897291Y-16452738D01*
X7454523Y-20895504D01*
X7400006Y-20923281D01*
X7384519Y-20924500D01*
X6943479Y-20924500D01*
X6943476Y-20924501D01*
X6849700Y-20939352D01*
X6849695Y-20939354D01*
X6736659Y-20996949D01*
X6646949Y-21086659D01*
X6589354Y-21199695D01*
X6574500Y-21293477D01*
X6574500Y-21906520D01*
X6574501Y-21906523D01*
X6589352Y-22000299D01*
X6589354Y-22000304D01*
X6646950Y-22113342D01*
X6736658Y-22203050D01*
X6849696Y-22260646D01*
X6943481Y-22275500D01*
X7406518Y-22275499D01*
X7406520Y-22275499D01*
X7406521Y-22275498D01*
X7453411Y-22268072D01*
X7500299Y-22260647D01*
X7500299Y-22260646D01*
X7500304Y-22260646D01*
X7613342Y-22203050D01*
X7703050Y-22113342D01*
X7760646Y-22000304D01*
X7775500Y-21906519D01*
X7775499Y-21465477D01*
X7794406Y-21407287D01*
X7804489Y-21395480D01*
X12177275Y-17022696D01*
X12231792Y-16994919D01*
X12247279Y-16993700D01*
X17326417Y-16993700D01*
X17384608Y-17012607D01*
X17401233Y-17027867D01*
X17442372Y-17075343D01*
X17563447Y-17153153D01*
X17669903Y-17184411D01*
X17701535Y-17193699D01*
X17701536Y-17193699D01*
X17701539Y-17193700D01*
X17701541Y-17193700D01*
X17845459Y-17193700D01*
X17845461Y-17193700D01*
X17983553Y-17153153D01*
X18104628Y-17075343D01*
X18198877Y-16966573D01*
X18258665Y-16835657D01*
X18265492Y-16788171D01*
X18279147Y-16693202D01*
X18279147Y-16693200D01*
X18276058Y-16671718D01*
X18286490Y-16611428D01*
X18304047Y-16587623D01*
X18922176Y-15969496D01*
X18976692Y-15941719D01*
X18992179Y-15940500D01*
X20200500Y-15940500D01*
X20258691Y-15959407D01*
X20294655Y-16008907D01*
X20299500Y-16039500D01*
X20299500Y-16109746D01*
X20299501Y-16109758D01*
X20311132Y-16168227D01*
X20311134Y-16168233D01*
X20345723Y-16219998D01*
X20362332Y-16278886D01*
X20345723Y-16330002D01*
X20311134Y-16381766D01*
X20311132Y-16381772D01*
X20299501Y-16440241D01*
X20299500Y-16440250D01*
X20299500Y-17379746D01*
X20299501Y-17379758D01*
X20311132Y-17438227D01*
X20311134Y-17438233D01*
X20345723Y-17489998D01*
X20362332Y-17548886D01*
X20345723Y-17600002D01*
X20311134Y-17651766D01*
X20311132Y-17651772D01*
X20299501Y-17710241D01*
X20299500Y-17710253D01*
X20299500Y-18649746D01*
X20299501Y-18649758D01*
X20311132Y-18708227D01*
X20311134Y-18708233D01*
X20345723Y-18759998D01*
X20362332Y-18818886D01*
X20345723Y-18870002D01*
X20311134Y-18921766D01*
X20311132Y-18921772D01*
X20299501Y-18980241D01*
X20299500Y-18980253D01*
X20299500Y-19919746D01*
X20299501Y-19919758D01*
X20311132Y-19978227D01*
X20311134Y-19978233D01*
X20345723Y-20029998D01*
X20362332Y-20088886D01*
X20345723Y-20140002D01*
X20311134Y-20191766D01*
X20311132Y-20191772D01*
X20299501Y-20250241D01*
X20299500Y-20250253D01*
X20299500Y-21189746D01*
X20299501Y-21189758D01*
X20311132Y-21248227D01*
X20311134Y-21248233D01*
X20345723Y-21299998D01*
X20362332Y-21358886D01*
X20345723Y-21410002D01*
X20311134Y-21461766D01*
X20311132Y-21461772D01*
X20299501Y-21520241D01*
X20299500Y-21520253D01*
X20299500Y-22459746D01*
X20299501Y-22459758D01*
X20311132Y-22518227D01*
X20311134Y-22518233D01*
X20345723Y-22569998D01*
X20362332Y-22628886D01*
X20345723Y-22680002D01*
X20311134Y-22731766D01*
X20311132Y-22731772D01*
X20299501Y-22790241D01*
X20299500Y-22790253D01*
X20299500Y-23729746D01*
X20299501Y-23729758D01*
X20308938Y-23777196D01*
X20311133Y-23788231D01*
X20355448Y-23854552D01*
X20421769Y-23898867D01*
X20466231Y-23907711D01*
X20480241Y-23910498D01*
X20480246Y-23910498D01*
X20480252Y-23910500D01*
X21902200Y-23910500D01*
X21960391Y-23929407D01*
X21996355Y-23978907D01*
X22001200Y-24009500D01*
X22001200Y-25086220D01*
X21982293Y-25144411D01*
X21972204Y-25156224D01*
X21212624Y-25915804D01*
X21158107Y-25943581D01*
X21142620Y-25944800D01*
X21036135Y-25944800D01*
X20898049Y-25985346D01*
X20898042Y-25985349D01*
X20776973Y-26063155D01*
X20682722Y-26171928D01*
X20622934Y-26302843D01*
X20602453Y-26445297D01*
X20602453Y-26445302D01*
X20622934Y-26587756D01*
X20632007Y-26607622D01*
X20682723Y-26718673D01*
X20776972Y-26827443D01*
X20776973Y-26827444D01*
X20898042Y-26905250D01*
X20898047Y-26905253D01*
X21004503Y-26936511D01*
X21036135Y-26945799D01*
X21036136Y-26945799D01*
X21036139Y-26945800D01*
X21036141Y-26945800D01*
X21177722Y-26945800D01*
X21235913Y-26964707D01*
X21271877Y-27014207D01*
X21271877Y-27075393D01*
X21247727Y-27114801D01*
X16866415Y-31496114D01*
X12567025Y-35795504D01*
X12512508Y-35823281D01*
X12497021Y-35824500D01*
X12035751Y-35824500D01*
X11937580Y-35840049D01*
X11937576Y-35840050D01*
X11819250Y-35900341D01*
X11725341Y-35994250D01*
X11665050Y-36112576D01*
X11665049Y-36112580D01*
X11649500Y-36210751D01*
X11649500Y-36789248D01*
X11665049Y-36887419D01*
X11665050Y-36887423D01*
X11696681Y-36949501D01*
X11725342Y-37005751D01*
X11819249Y-37099658D01*
X11937580Y-37159951D01*
X12004130Y-37170491D01*
X12035751Y-37175500D01*
X12035754Y-37175500D01*
X12539249Y-37175500D01*
X12567803Y-37170976D01*
X12637420Y-37159951D01*
X12755751Y-37099658D01*
X12849658Y-37005751D01*
X12909951Y-36887420D01*
X12925500Y-36789246D01*
X12925500Y-36327979D01*
X12944407Y-36269788D01*
X12954496Y-36257975D01*
X23321275Y-25891196D01*
X23375792Y-25863419D01*
X23391279Y-25862200D01*
X35358721Y-25862200D01*
X35416912Y-25881107D01*
X35452876Y-25930607D01*
X35452876Y-25991793D01*
X35428725Y-26031204D01*
X28493025Y-32966904D01*
X28438508Y-32994681D01*
X28423021Y-32995900D01*
X19667979Y-32995900D01*
X19609788Y-32976993D01*
X19573824Y-32927493D01*
X19573824Y-32866307D01*
X19597975Y-32826896D01*
X20009675Y-32415196D01*
X20064192Y-32387419D01*
X20079679Y-32386200D01*
X21442917Y-32386200D01*
X21501108Y-32405107D01*
X21517733Y-32420367D01*
X21558872Y-32467843D01*
X21679947Y-32545653D01*
X21786403Y-32576911D01*
X21818035Y-32586199D01*
X21818036Y-32586199D01*
X21818039Y-32586200D01*
X21818041Y-32586200D01*
X21961959Y-32586200D01*
X21961961Y-32586200D01*
X22100053Y-32545653D01*
X22221128Y-32467843D01*
X22315377Y-32359073D01*
X22375165Y-32228157D01*
X22381992Y-32180671D01*
X22395647Y-32085702D01*
X22395647Y-32085697D01*
X22375165Y-31943243D01*
X22333556Y-31852133D01*
X22315377Y-31812327D01*
X22221128Y-31703557D01*
X22221127Y-31703556D01*
X22221126Y-31703555D01*
X22100057Y-31625749D01*
X22100054Y-31625747D01*
X22100053Y-31625747D01*
X22100050Y-31625746D01*
X21961964Y-31585200D01*
X21961961Y-31585200D01*
X21818039Y-31585200D01*
X21818035Y-31585200D01*
X21679949Y-31625746D01*
X21679942Y-31625749D01*
X21558876Y-31703554D01*
X21558871Y-31703558D01*
X21517736Y-31751031D01*
X21465340Y-31782627D01*
X21442917Y-31785200D01*
X19953762Y-31785200D01*
X19874638Y-31785200D01*
X19827861Y-31797733D01*
X19798207Y-31805679D01*
X19729693Y-31845236D01*
X19729692Y-31845237D01*
X17279423Y-34295504D01*
X17224906Y-34323281D01*
X17209419Y-34324500D01*
X16943479Y-34324500D01*
X16943476Y-34324501D01*
X16849700Y-34339352D01*
X16849695Y-34339354D01*
X16736659Y-34396949D01*
X16646949Y-34486659D01*
X16589354Y-34599695D01*
X16574500Y-34693477D01*
X16574500Y-35306520D01*
X16574501Y-35306523D01*
X16589352Y-35400299D01*
X16589354Y-35400304D01*
X16646950Y-35513342D01*
X16736658Y-35603050D01*
X16849696Y-35660646D01*
X16943481Y-35675500D01*
X17100320Y-35675499D01*
X17158510Y-35694406D01*
X17194474Y-35743906D01*
X17194475Y-35805091D01*
X17170324Y-35844503D01*
X15344325Y-37670504D01*
X15289808Y-37698281D01*
X15274321Y-37699500D01*
X15049500Y-37699500D01*
X14991309Y-37680593D01*
X14955345Y-37631093D01*
X14950500Y-37600500D01*
X14950500Y-37130253D01*
X14950498Y-37130241D01*
X14942471Y-37089887D01*
X14938867Y-37071769D01*
X14894552Y-37005448D01*
X14894548Y-37005445D01*
X14828233Y-36961134D01*
X14828231Y-36961133D01*
X14828228Y-36961132D01*
X14828227Y-36961132D01*
X14769758Y-36949501D01*
X14769748Y-36949500D01*
X13830252Y-36949500D01*
X13830251Y-36949500D01*
X13830241Y-36949501D01*
X13771772Y-36961132D01*
X13771766Y-36961134D01*
X13705451Y-37005445D01*
X13705445Y-37005451D01*
X13661134Y-37071766D01*
X13661132Y-37071772D01*
X13649501Y-37130241D01*
X13649500Y-37130253D01*
X13649500Y-37600500D01*
X13630593Y-37658691D01*
X13581093Y-37694655D01*
X13550500Y-37699500D01*
X13364562Y-37699500D01*
X13285438Y-37699500D01*
X13238661Y-37712033D01*
X13209007Y-37719979D01*
X13140493Y-37759536D01*
X13140488Y-37759540D01*
X12604523Y-38295504D01*
X12550007Y-38323281D01*
X12534520Y-38324500D01*
X12093479Y-38324500D01*
X12093476Y-38324501D01*
X11999700Y-38339352D01*
X11999695Y-38339354D01*
X11886659Y-38396949D01*
X11796949Y-38486659D01*
X11739354Y-38599695D01*
X11724500Y-38693477D01*
X11724500Y-39306520D01*
X11724501Y-39306523D01*
X11739352Y-39400299D01*
X11739354Y-39400304D01*
X11796950Y-39513342D01*
X11886658Y-39603050D01*
X11999696Y-39660646D01*
X12093481Y-39675500D01*
X12556518Y-39675499D01*
X12556520Y-39675499D01*
X12556521Y-39675498D01*
X12625502Y-39664574D01*
X12650299Y-39660647D01*
X12650299Y-39660646D01*
X12650304Y-39660646D01*
X12763342Y-39603050D01*
X12853050Y-39513342D01*
X12910646Y-39400304D01*
X12925500Y-39306519D01*
X12925499Y-38865477D01*
X12944406Y-38807287D01*
X12954496Y-38795474D01*
X13420476Y-38329496D01*
X13474992Y-38301719D01*
X13490479Y-38300500D01*
X13550500Y-38300500D01*
X13608691Y-38319407D01*
X13644655Y-38368907D01*
X13649500Y-38399500D01*
X13649500Y-38869746D01*
X13649501Y-38869758D01*
X13661132Y-38928227D01*
X13661134Y-38928233D01*
X13705445Y-38994548D01*
X13705448Y-38994552D01*
X13771769Y-39038867D01*
X13816231Y-39047711D01*
X13830241Y-39050498D01*
X13830246Y-39050498D01*
X13830252Y-39050500D01*
X13830253Y-39050500D01*
X14769747Y-39050500D01*
X14769748Y-39050500D01*
X14828231Y-39038867D01*
X14894552Y-38994552D01*
X14938867Y-38928231D01*
X14950500Y-38869748D01*
X14950500Y-38399500D01*
X14969407Y-38341309D01*
X15018907Y-38305345D01*
X15049500Y-38300500D01*
X15479363Y-38300500D01*
X15479363Y-38300499D01*
X15555789Y-38280021D01*
X15624311Y-38240460D01*
X15680260Y-38184511D01*
X18117960Y-35746811D01*
X18125206Y-35734260D01*
X18157521Y-35678289D01*
X18178000Y-35601862D01*
X18178000Y-34895879D01*
X18196907Y-34837688D01*
X18206996Y-34825875D01*
X19406975Y-33625896D01*
X19461492Y-33598119D01*
X19476979Y-33596900D01*
X28628063Y-33596900D01*
X28628063Y-33596899D01*
X28704489Y-33576421D01*
X28773011Y-33536860D01*
X28828960Y-33480911D01*
X37938760Y-24371111D01*
X37950660Y-24350500D01*
X37978320Y-24302592D01*
X37978320Y-24302590D01*
X37978322Y-24302588D01*
X37998800Y-24226162D01*
X37998800Y-24147038D01*
X37998800Y-24009500D01*
X38017707Y-23951309D01*
X38067207Y-23915345D01*
X38097800Y-23910500D01*
X39519747Y-23910500D01*
X39519748Y-23910500D01*
X39578231Y-23898867D01*
X39644552Y-23854552D01*
X39688867Y-23788231D01*
X39700500Y-23729748D01*
X39700500Y-22790252D01*
X39688867Y-22731769D01*
X39654274Y-22679999D01*
X39637667Y-22621115D01*
X39654274Y-22570001D01*
X39688867Y-22518231D01*
X39700500Y-22459748D01*
X39700500Y-21520252D01*
X39688867Y-21461769D01*
X39654274Y-21409999D01*
X39637667Y-21351115D01*
X39654274Y-21300001D01*
X39688867Y-21248231D01*
X39700500Y-21189748D01*
X39700500Y-20859959D01*
X39719407Y-20801768D01*
X39768907Y-20765804D01*
X39827388Y-20764969D01*
X39937839Y-20797400D01*
X39937841Y-20797400D01*
X40081759Y-20797400D01*
X40081761Y-20797400D01*
X40219853Y-20756853D01*
X40340928Y-20679043D01*
X40435177Y-20570273D01*
X40494965Y-20439357D01*
X40494964Y-20439357D01*
X40494966Y-20439355D01*
X40496961Y-20432562D01*
X40499330Y-20433257D01*
X40521391Y-20388381D01*
X40575503Y-20359823D01*
X40636066Y-20368526D01*
X40662397Y-20387368D01*
X50370504Y-30095475D01*
X50398281Y-30149992D01*
X50399500Y-30165479D01*
X50399500Y-30300500D01*
X50380593Y-30358691D01*
X50331093Y-30394655D01*
X50300500Y-30399500D01*
X49672870Y-30399500D01*
X49672863Y-30399501D01*
X49592505Y-30415484D01*
X49592503Y-30415485D01*
X49501379Y-30476373D01*
X49501373Y-30476379D01*
X49440486Y-30567501D01*
X49440486Y-30567503D01*
X49440485Y-30567505D01*
X49434296Y-30598620D01*
X49424500Y-30647867D01*
X49424500Y-30852129D01*
X49424501Y-30852137D01*
X49440484Y-30932494D01*
X49440486Y-30932498D01*
X49448840Y-30945001D01*
X49465447Y-31003889D01*
X49448840Y-31054999D01*
X49440485Y-31067503D01*
X49440484Y-31067504D01*
X49424500Y-31147864D01*
X49424500Y-31352129D01*
X49424501Y-31352137D01*
X49440484Y-31432494D01*
X49440486Y-31432498D01*
X49448840Y-31445001D01*
X49465447Y-31503889D01*
X49448840Y-31554999D01*
X49440485Y-31567503D01*
X49440484Y-31567504D01*
X49424500Y-31647864D01*
X49424500Y-31852129D01*
X49424501Y-31852137D01*
X49440484Y-31932494D01*
X49440486Y-31932498D01*
X49448840Y-31945001D01*
X49465447Y-32003889D01*
X49448840Y-32054999D01*
X49440485Y-32067503D01*
X49440484Y-32067504D01*
X49424500Y-32147864D01*
X49424500Y-32352129D01*
X49424501Y-32352137D01*
X49440484Y-32432494D01*
X49440486Y-32432498D01*
X49448840Y-32445001D01*
X49465447Y-32503889D01*
X49448840Y-32554999D01*
X49440485Y-32567503D01*
X49440484Y-32567504D01*
X49424500Y-32647864D01*
X49424500Y-32852129D01*
X49424501Y-32852137D01*
X49440484Y-32932494D01*
X49440486Y-32932498D01*
X49448840Y-32945001D01*
X49465447Y-33003889D01*
X49448840Y-33054999D01*
X49440485Y-33067503D01*
X49440484Y-33067504D01*
X49424500Y-33147864D01*
X49424500Y-33352129D01*
X49424501Y-33352137D01*
X49440484Y-33432494D01*
X49440485Y-33432496D01*
X49501373Y-33523620D01*
X49501376Y-33523624D01*
X49592505Y-33584515D01*
X49672867Y-33600500D01*
X50300500Y-33600499D01*
X50358691Y-33619406D01*
X50394655Y-33668906D01*
X50399500Y-33699499D01*
X50399500Y-34327129D01*
X50399501Y-34327136D01*
X50415484Y-34407494D01*
X50415485Y-34407496D01*
X50468381Y-34486659D01*
X50476376Y-34498624D01*
X50567505Y-34559515D01*
X50647867Y-34575500D01*
X50852132Y-34575499D01*
X50932495Y-34559515D01*
X50944996Y-34551161D01*
X51003883Y-34534551D01*
X51055000Y-34551159D01*
X51067505Y-34559515D01*
X51147867Y-34575500D01*
X51352132Y-34575499D01*
X51432495Y-34559515D01*
X51523624Y-34498624D01*
X51584515Y-34407495D01*
X51600500Y-34327133D01*
X51600499Y-33601499D01*
X51619406Y-33543309D01*
X51668906Y-33507345D01*
X51699499Y-33502500D01*
X51800500Y-33502500D01*
X51858691Y-33521407D01*
X51894655Y-33570907D01*
X51899500Y-33601500D01*
X51899500Y-34327129D01*
X51899501Y-34327138D01*
X51906978Y-34364728D01*
X51899785Y-34425489D01*
X51879884Y-34454043D01*
X51571326Y-34762603D01*
X51516809Y-34790381D01*
X51501322Y-34791600D01*
X49919079Y-34791600D01*
X49860888Y-34772693D01*
X49849076Y-34762604D01*
X49536411Y-34449940D01*
X49504623Y-34431587D01*
X49504622Y-34431587D01*
X49467888Y-34410378D01*
X49391464Y-34389900D01*
X49391462Y-34389900D01*
X47238338Y-34389900D01*
X47238335Y-34389900D01*
X47161912Y-34410378D01*
X47125176Y-34431588D01*
X47125175Y-34431587D01*
X47093388Y-34449940D01*
X46780824Y-34762504D01*
X46726308Y-34790281D01*
X46710821Y-34791500D01*
X44765279Y-34791500D01*
X44707088Y-34772593D01*
X44695275Y-34762504D01*
X44329496Y-34396725D01*
X44301719Y-34342208D01*
X44300500Y-34326721D01*
X44300500Y-31410437D01*
X44300499Y-31410435D01*
X44297956Y-31400946D01*
X44280021Y-31334011D01*
X44258739Y-31297150D01*
X44240460Y-31265489D01*
X44184511Y-31209539D01*
X44184511Y-31209540D01*
X43779496Y-30804525D01*
X43751719Y-30750008D01*
X43750500Y-30734521D01*
X43750500Y-29970727D01*
X43750499Y-29970725D01*
X43747646Y-29940305D01*
X43747646Y-29940301D01*
X43702793Y-29812118D01*
X43622150Y-29702850D01*
X43622146Y-29702847D01*
X43622144Y-29702845D01*
X43512883Y-29622207D01*
X43384703Y-29577355D01*
X43384694Y-29577353D01*
X43354274Y-29574500D01*
X43354266Y-29574500D01*
X42745734Y-29574500D01*
X42745725Y-29574500D01*
X42715305Y-29577353D01*
X42715296Y-29577355D01*
X42587116Y-29622207D01*
X42477855Y-29702845D01*
X42477845Y-29702855D01*
X42397207Y-29812116D01*
X42352355Y-29940296D01*
X42352353Y-29940305D01*
X42349500Y-29970725D01*
X42349500Y-31029274D01*
X42352353Y-31059694D01*
X42352355Y-31059703D01*
X42397207Y-31187883D01*
X42477845Y-31297144D01*
X42477847Y-31297146D01*
X42477850Y-31297150D01*
X42477853Y-31297152D01*
X42477855Y-31297154D01*
X42587116Y-31377792D01*
X42587117Y-31377792D01*
X42587118Y-31377793D01*
X42715301Y-31422646D01*
X42745725Y-31425499D01*
X42745727Y-31425500D01*
X42745734Y-31425500D01*
X43354273Y-31425500D01*
X43354273Y-31425499D01*
X43384699Y-31422646D01*
X43446713Y-31400945D01*
X43507882Y-31399572D01*
X43549415Y-31424386D01*
X43670504Y-31545475D01*
X43698281Y-31599992D01*
X43699500Y-31615479D01*
X43699500Y-33242799D01*
X43680593Y-33300990D01*
X43631093Y-33336954D01*
X43585013Y-33340580D01*
X43583126Y-33340281D01*
X43562120Y-33336954D01*
X43483491Y-33324500D01*
X43483488Y-33324500D01*
X42966512Y-33324500D01*
X42966510Y-33324500D01*
X42866874Y-33340281D01*
X42866867Y-33340283D01*
X42746782Y-33401470D01*
X42744687Y-33402993D01*
X42742223Y-33403793D01*
X42739838Y-33405009D01*
X42739645Y-33404631D01*
X42686497Y-33421900D01*
X37463035Y-33421900D01*
X37386618Y-33442376D01*
X37386609Y-33442380D01*
X37372199Y-33450699D01*
X37372199Y-33450700D01*
X37318089Y-33481940D01*
X37318086Y-33481942D01*
X37004524Y-33795504D01*
X36950008Y-33823281D01*
X36934521Y-33824500D01*
X36515479Y-33824500D01*
X36457288Y-33805593D01*
X36445476Y-33795504D01*
X36131913Y-33481942D01*
X36131911Y-33481940D01*
X36077801Y-33450700D01*
X36077800Y-33450699D01*
X36070595Y-33446539D01*
X36063389Y-33442379D01*
X36063385Y-33442378D01*
X36063381Y-33442376D01*
X35986964Y-33421900D01*
X35986962Y-33421900D01*
X33865838Y-33421900D01*
X33865835Y-33421900D01*
X33789418Y-33442376D01*
X33789409Y-33442380D01*
X33774999Y-33450699D01*
X33774999Y-33450700D01*
X33720889Y-33481940D01*
X33720886Y-33481942D01*
X33407324Y-33795504D01*
X33352808Y-33823281D01*
X33337321Y-33824500D01*
X32966510Y-33824500D01*
X32866874Y-33840281D01*
X32866867Y-33840283D01*
X32746782Y-33901470D01*
X32746780Y-33901472D01*
X32651472Y-33996780D01*
X32625248Y-34048246D01*
X32581985Y-34091510D01*
X32537040Y-34102300D01*
X30953583Y-34102300D01*
X30895392Y-34083393D01*
X30878764Y-34068131D01*
X30837628Y-34020657D01*
X30766802Y-33975140D01*
X30716557Y-33942849D01*
X30716554Y-33942847D01*
X30716553Y-33942847D01*
X30716550Y-33942846D01*
X30578464Y-33902300D01*
X30578461Y-33902300D01*
X30434539Y-33902300D01*
X30434535Y-33902300D01*
X30296449Y-33942846D01*
X30296442Y-33942849D01*
X30175373Y-34020655D01*
X30081122Y-34129428D01*
X30021334Y-34260343D01*
X30000853Y-34402797D01*
X30000853Y-34402802D01*
X30021334Y-34545256D01*
X30074032Y-34660646D01*
X30081123Y-34676173D01*
X30174111Y-34783488D01*
X30175373Y-34784944D01*
X30257445Y-34837688D01*
X30296447Y-34862753D01*
X30402903Y-34894011D01*
X30434535Y-34903299D01*
X30434536Y-34903299D01*
X30434539Y-34903300D01*
X30434541Y-34903300D01*
X30578459Y-34903300D01*
X30578461Y-34903300D01*
X30716553Y-34862753D01*
X30837628Y-34784943D01*
X30878764Y-34737468D01*
X30931160Y-34705873D01*
X30953583Y-34703300D01*
X32477245Y-34703300D01*
X32535436Y-34722207D01*
X32571400Y-34771707D01*
X32575026Y-34786812D01*
X32590281Y-34883125D01*
X32590283Y-34883132D01*
X32651470Y-35003217D01*
X32651472Y-35003220D01*
X32746780Y-35098528D01*
X32746782Y-35098529D01*
X32866867Y-35159716D01*
X32866869Y-35159716D01*
X32866874Y-35159719D01*
X32942541Y-35171703D01*
X32966510Y-35175500D01*
X32966512Y-35175500D01*
X33483490Y-35175500D01*
X33504885Y-35172111D01*
X33583126Y-35159719D01*
X33703220Y-35098528D01*
X33798528Y-35003220D01*
X33859719Y-34883126D01*
X33875269Y-34784945D01*
X33875500Y-34783489D01*
X33875500Y-34218277D01*
X33894407Y-34160086D01*
X33904497Y-34148273D01*
X33950471Y-34102300D01*
X34000875Y-34051896D01*
X34055391Y-34024119D01*
X34070878Y-34022900D01*
X35781921Y-34022900D01*
X35840112Y-34041807D01*
X35851925Y-34051896D01*
X36045504Y-34245475D01*
X36073281Y-34299992D01*
X36074500Y-34315479D01*
X36074500Y-34783489D01*
X36090281Y-34883125D01*
X36090283Y-34883132D01*
X36151470Y-35003217D01*
X36151472Y-35003220D01*
X36246780Y-35098528D01*
X36246782Y-35098529D01*
X36366867Y-35159716D01*
X36366869Y-35159716D01*
X36366874Y-35159719D01*
X36442541Y-35171703D01*
X36466510Y-35175500D01*
X36466512Y-35175500D01*
X36983490Y-35175500D01*
X37004885Y-35172111D01*
X37083126Y-35159719D01*
X37203220Y-35098528D01*
X37298528Y-35003220D01*
X37359719Y-34883126D01*
X37375269Y-34784945D01*
X37375500Y-34783489D01*
X37375500Y-34315479D01*
X37394407Y-34257288D01*
X37404496Y-34245475D01*
X37598075Y-34051896D01*
X37652592Y-34024119D01*
X37668079Y-34022900D01*
X42475500Y-34022900D01*
X42533691Y-34041807D01*
X42569655Y-34091307D01*
X42574500Y-34121900D01*
X42574500Y-34283489D01*
X42590281Y-34383125D01*
X42590283Y-34383132D01*
X42649128Y-34498620D01*
X42651472Y-34503220D01*
X42746780Y-34598528D01*
X42746782Y-34598529D01*
X42866867Y-34659716D01*
X42866869Y-34659716D01*
X42866874Y-34659719D01*
X42942541Y-34671703D01*
X42966510Y-34675500D01*
X42966512Y-34675500D01*
X43079521Y-34675500D01*
X43137712Y-34694407D01*
X43149525Y-34704496D01*
X44403825Y-35958796D01*
X44431602Y-36013313D01*
X44422031Y-36073745D01*
X44378766Y-36117010D01*
X44333821Y-36127800D01*
X39510435Y-36127800D01*
X39434011Y-36148278D01*
X39434007Y-36148280D01*
X39365491Y-36187838D01*
X39309538Y-36243791D01*
X39269980Y-36312307D01*
X39269978Y-36312311D01*
X39249500Y-36388735D01*
X39249500Y-36444424D01*
X39230593Y-36502615D01*
X39181093Y-36538579D01*
X39172563Y-36540804D01*
X39171766Y-36541134D01*
X39105451Y-36585445D01*
X39105445Y-36585451D01*
X39061134Y-36651766D01*
X39061132Y-36651772D01*
X39049501Y-36710241D01*
X39049500Y-36710253D01*
X39049500Y-38199748D01*
X39054197Y-38223360D01*
X39047006Y-38284121D01*
X39005473Y-38329052D01*
X38982723Y-38338302D01*
X38953973Y-38346005D01*
X38887865Y-38363719D01*
X38887863Y-38363719D01*
X38887859Y-38363721D01*
X38756639Y-38439481D01*
X38649481Y-38546639D01*
X38573722Y-38677858D01*
X38573720Y-38677859D01*
X38546501Y-38779443D01*
X38534500Y-38824234D01*
X38534500Y-38975766D01*
X38562294Y-39079496D01*
X38573720Y-39122139D01*
X38649481Y-39253360D01*
X38649483Y-39253362D01*
X38649485Y-39253365D01*
X38724018Y-39327898D01*
X38751794Y-39382413D01*
X38742223Y-39442845D01*
X38698958Y-39486110D01*
X38654013Y-39496900D01*
X36105279Y-39496900D01*
X36047088Y-39477993D01*
X36035275Y-39467904D01*
X34468249Y-37900878D01*
X32899111Y-36331740D01*
X32892597Y-36327979D01*
X32870964Y-36315489D01*
X32870962Y-36315488D01*
X32830589Y-36292179D01*
X32830586Y-36292178D01*
X32754164Y-36271700D01*
X32754162Y-36271700D01*
X27449383Y-36271700D01*
X27391192Y-36252793D01*
X27374564Y-36237531D01*
X27333428Y-36190057D01*
X27268420Y-36148279D01*
X27212357Y-36112249D01*
X27212354Y-36112247D01*
X27212353Y-36112247D01*
X27212350Y-36112246D01*
X27074264Y-36071700D01*
X27074261Y-36071700D01*
X26930339Y-36071700D01*
X26930335Y-36071700D01*
X26792249Y-36112246D01*
X26792242Y-36112249D01*
X26671173Y-36190055D01*
X26576922Y-36298828D01*
X26542627Y-36373922D01*
X26501254Y-36418999D01*
X26441288Y-36431150D01*
X26385632Y-36405732D01*
X26382570Y-36402799D01*
X25173071Y-35193300D01*
X23954911Y-33975140D01*
X23929446Y-33960438D01*
X23886618Y-33935711D01*
X23886388Y-33935578D01*
X23809964Y-33915100D01*
X23809962Y-33915100D01*
X22419838Y-33915100D01*
X22419835Y-33915100D01*
X22343411Y-33935578D01*
X22300356Y-33960437D01*
X22300355Y-33960437D01*
X22274889Y-33975139D01*
X21954524Y-34295504D01*
X21900008Y-34323281D01*
X21884521Y-34324500D01*
X21443479Y-34324500D01*
X21443476Y-34324501D01*
X21349700Y-34339352D01*
X21349695Y-34339354D01*
X21236659Y-34396949D01*
X21146949Y-34486659D01*
X21089354Y-34599695D01*
X21074500Y-34693477D01*
X21074500Y-35306520D01*
X21074501Y-35306523D01*
X21089352Y-35400299D01*
X21089354Y-35400304D01*
X21146950Y-35513342D01*
X21236658Y-35603050D01*
X21349696Y-35660646D01*
X21443481Y-35675500D01*
X21906518Y-35675499D01*
X21906520Y-35675499D01*
X21906521Y-35675498D01*
X21953411Y-35668072D01*
X22000299Y-35660647D01*
X22000299Y-35660646D01*
X22000304Y-35660646D01*
X22113342Y-35603050D01*
X22203050Y-35513342D01*
X22260646Y-35400304D01*
X22275500Y-35306519D01*
X22275499Y-34865477D01*
X22294406Y-34807287D01*
X22304496Y-34795474D01*
X22554875Y-34545096D01*
X22609391Y-34517319D01*
X22624878Y-34516100D01*
X23604921Y-34516100D01*
X23663112Y-34535007D01*
X23674925Y-34545096D01*
X29311740Y-40181911D01*
X29311739Y-40181911D01*
X29367689Y-40237860D01*
X29436207Y-40277419D01*
X29436211Y-40277421D01*
X29512635Y-40297899D01*
X29512637Y-40297900D01*
X29512638Y-40297900D01*
X34071321Y-40297900D01*
X34129512Y-40316807D01*
X34141325Y-40326896D01*
X34209940Y-40395511D01*
X34209939Y-40395511D01*
X34265889Y-40451460D01*
X34334407Y-40491019D01*
X34334411Y-40491021D01*
X34410835Y-40511499D01*
X34410837Y-40511500D01*
X34410838Y-40511500D01*
X42060263Y-40511500D01*
X42060263Y-40511499D01*
X42136689Y-40491021D01*
X42205211Y-40451460D01*
X42261160Y-40395511D01*
X43990460Y-38666211D01*
X44011121Y-38630425D01*
X44030020Y-38597692D01*
X44030020Y-38597690D01*
X44030022Y-38597688D01*
X44050500Y-38521262D01*
X44050500Y-38479500D01*
X44069407Y-38421309D01*
X44118907Y-38385345D01*
X44149500Y-38380500D01*
X44356613Y-38380500D01*
X44414804Y-38399407D01*
X44450768Y-38448907D01*
X44450768Y-38510093D01*
X44432138Y-38540494D01*
X44433434Y-38541489D01*
X44429481Y-38546639D01*
X44353722Y-38677858D01*
X44353720Y-38677859D01*
X44326501Y-38779443D01*
X44314500Y-38824234D01*
X44314500Y-38975766D01*
X44342294Y-39079496D01*
X44353720Y-39122139D01*
X44429481Y-39253360D01*
X44429483Y-39253362D01*
X44429485Y-39253365D01*
X44536635Y-39360515D01*
X44536637Y-39360516D01*
X44536639Y-39360518D01*
X44667861Y-39436279D01*
X44667859Y-39436279D01*
X44667863Y-39436280D01*
X44667865Y-39436281D01*
X44814234Y-39475500D01*
X44814236Y-39475500D01*
X44965764Y-39475500D01*
X44965766Y-39475500D01*
X45112135Y-39436281D01*
X45112137Y-39436279D01*
X45112139Y-39436279D01*
X45243360Y-39360518D01*
X45243360Y-39360517D01*
X45243365Y-39360515D01*
X45350515Y-39253365D01*
X45350518Y-39253360D01*
X45426279Y-39122139D01*
X45426279Y-39122137D01*
X45426281Y-39122135D01*
X45465500Y-38975766D01*
X45465500Y-38824234D01*
X45426281Y-38677865D01*
X45426280Y-38677863D01*
X45426279Y-38677859D01*
X45426278Y-38677858D01*
X45350518Y-38546639D01*
X45350516Y-38546637D01*
X45350515Y-38546635D01*
X45243365Y-38439485D01*
X45243362Y-38439483D01*
X45243360Y-38439481D01*
X45112138Y-38363720D01*
X45112139Y-38363720D01*
X45017277Y-38338302D01*
X44965962Y-38304977D01*
X44944036Y-38247856D01*
X44945803Y-38223360D01*
X44950500Y-38199748D01*
X44950500Y-36827800D01*
X44969407Y-36769609D01*
X45018907Y-36733645D01*
X45049500Y-36728800D01*
X52451563Y-36728800D01*
X52451563Y-36728799D01*
X52527989Y-36708321D01*
X52596511Y-36668760D01*
X52652460Y-36612811D01*
X55329560Y-33935711D01*
X55344151Y-33910438D01*
X55369121Y-33867189D01*
X55389600Y-33790762D01*
X55389600Y-10573638D01*
X55375345Y-10520438D01*
X55375345Y-10520436D01*
X55369124Y-10497217D01*
X55369123Y-10497215D01*
X55369122Y-10497214D01*
X55369122Y-10497212D01*
X55329560Y-10428689D01*
X55155526Y-10254655D01*
X54970874Y-10070002D01*
X54943097Y-10015486D01*
X54952668Y-9955054D01*
X54970873Y-9929997D01*
X54996160Y-9904711D01*
X55007799Y-9884552D01*
X55035721Y-9836189D01*
X55056200Y-9759762D01*
X55056200Y-8926438D01*
X55035721Y-8850011D01*
X55033170Y-8845593D01*
X54996160Y-8781489D01*
X54940211Y-8725539D01*
X54940211Y-8725540D01*
X54664008Y-8449337D01*
X54636231Y-8394820D01*
X54639427Y-8350097D01*
X54640569Y-8346399D01*
X54640573Y-8346393D01*
X54650500Y-8278260D01*
X54650500Y-7911740D01*
X54640573Y-7843607D01*
X54589198Y-7738517D01*
X54506483Y-7655802D01*
X54469772Y-7637855D01*
X54401395Y-7604427D01*
X54374139Y-7600456D01*
X54333260Y-7594500D01*
X54333257Y-7594500D01*
X53440479Y-7594500D01*
X53382288Y-7575593D01*
X53370475Y-7565504D01*
X51973975Y-6169004D01*
X51946198Y-6114487D01*
X51955769Y-6054055D01*
X51999034Y-6010790D01*
X52043979Y-6000000D01*
X58701000Y-6000000D01*
X58759191Y-6018907D01*
X58795155Y-6068407D01*
X58800000Y-6099000D01*
X58800000Y-43701000D01*
X58781093Y-43759191D01*
X58731593Y-43795155D01*
X58701000Y-43800000D01*
X1299000Y-43800000D01*
X1240809Y-43781093D01*
X1204845Y-43731593D01*
X1200000Y-43701000D01*
X1200000Y-41130253D01*
X5949500Y-41130253D01*
X5949500Y-42869746D01*
X5949501Y-42869758D01*
X5961132Y-42928227D01*
X5961134Y-42928233D01*
X6001799Y-42989091D01*
X6005448Y-42994552D01*
X6071769Y-43038867D01*
X6116231Y-43047711D01*
X6130241Y-43050498D01*
X6130246Y-43050498D01*
X6130252Y-43050500D01*
X6130253Y-43050500D01*
X7869747Y-43050500D01*
X7869748Y-43050500D01*
X7928231Y-43038867D01*
X7994552Y-42994552D01*
X7994556Y-42994545D01*
X8000012Y-42989091D01*
X8054529Y-42961314D01*
X8114961Y-42970885D01*
X8140020Y-42989091D01*
X8487140Y-43336211D01*
X8487139Y-43336211D01*
X8543089Y-43392160D01*
X8611607Y-43431719D01*
X8611611Y-43431721D01*
X8688035Y-43452199D01*
X8688037Y-43452200D01*
X8688038Y-43452200D01*
X25736163Y-43452200D01*
X25736163Y-43452199D01*
X25812589Y-43431721D01*
X25881111Y-43392160D01*
X25937060Y-43336211D01*
X26780496Y-42492775D01*
X26835013Y-42464998D01*
X26895445Y-42474569D01*
X26938710Y-42517834D01*
X26949500Y-42562779D01*
X26949500Y-42869746D01*
X26949501Y-42869758D01*
X26961132Y-42928227D01*
X26961134Y-42928233D01*
X27001799Y-42989091D01*
X27005448Y-42994552D01*
X27071769Y-43038867D01*
X27116231Y-43047711D01*
X27130241Y-43050498D01*
X27130246Y-43050498D01*
X27130252Y-43050500D01*
X27130253Y-43050500D01*
X28869747Y-43050500D01*
X28869748Y-43050500D01*
X28928231Y-43038867D01*
X28994552Y-42994552D01*
X29038867Y-42928231D01*
X29050500Y-42869748D01*
X29050500Y-41999996D01*
X29484417Y-41999996D01*
X29484417Y-42000003D01*
X29504698Y-42205929D01*
X29504699Y-42205934D01*
X29564768Y-42403954D01*
X29662316Y-42586452D01*
X29746799Y-42689395D01*
X29793590Y-42746410D01*
X29793595Y-42746414D01*
X29953547Y-42877683D01*
X29953548Y-42877683D01*
X29953550Y-42877685D01*
X30136046Y-42975232D01*
X30273997Y-43017078D01*
X30334065Y-43035300D01*
X30334070Y-43035301D01*
X30539997Y-43055583D01*
X30540000Y-43055583D01*
X30540003Y-43055583D01*
X30745929Y-43035301D01*
X30745934Y-43035300D01*
X30943954Y-42975232D01*
X31126450Y-42877685D01*
X31286410Y-42746410D01*
X31417685Y-42586450D01*
X31515232Y-42403954D01*
X31575300Y-42205934D01*
X31575301Y-42205929D01*
X31595583Y-42000003D01*
X31595583Y-41999996D01*
X32024417Y-41999996D01*
X32024417Y-42000003D01*
X32044698Y-42205929D01*
X32044699Y-42205934D01*
X32104768Y-42403954D01*
X32202316Y-42586452D01*
X32286799Y-42689395D01*
X32333590Y-42746410D01*
X32333595Y-42746414D01*
X32493547Y-42877683D01*
X32493548Y-42877683D01*
X32493550Y-42877685D01*
X32676046Y-42975232D01*
X32813997Y-43017078D01*
X32874065Y-43035300D01*
X32874070Y-43035301D01*
X33079997Y-43055583D01*
X33080000Y-43055583D01*
X33080003Y-43055583D01*
X33285929Y-43035301D01*
X33285934Y-43035300D01*
X33483954Y-42975232D01*
X33666450Y-42877685D01*
X33826410Y-42746410D01*
X33957685Y-42586450D01*
X34055232Y-42403954D01*
X34115300Y-42205934D01*
X34115301Y-42205929D01*
X34135583Y-42000003D01*
X34135583Y-41999996D01*
X34115301Y-41794070D01*
X34115300Y-41794065D01*
X34074235Y-41658691D01*
X34055232Y-41596046D01*
X33957685Y-41413550D01*
X33826410Y-41253590D01*
X33676123Y-41130253D01*
X33666452Y-41122316D01*
X33616704Y-41095725D01*
X54424500Y-41095725D01*
X54424500Y-41904274D01*
X54427353Y-41934694D01*
X54427355Y-41934703D01*
X54472207Y-42062883D01*
X54552845Y-42172144D01*
X54552847Y-42172146D01*
X54552850Y-42172150D01*
X54552853Y-42172152D01*
X54552855Y-42172154D01*
X54662116Y-42252792D01*
X54662117Y-42252792D01*
X54662118Y-42252793D01*
X54790301Y-42297646D01*
X54820725Y-42300499D01*
X54820727Y-42300500D01*
X54820734Y-42300500D01*
X56179273Y-42300500D01*
X56179273Y-42300499D01*
X56209699Y-42297646D01*
X56337882Y-42252793D01*
X56447150Y-42172150D01*
X56527793Y-42062882D01*
X56572646Y-41934699D01*
X56575499Y-41904273D01*
X56575500Y-41904273D01*
X56575500Y-41095727D01*
X56575499Y-41095725D01*
X56573253Y-41071772D01*
X56572646Y-41065301D01*
X56527793Y-40937118D01*
X56522977Y-40930593D01*
X56447154Y-40827855D01*
X56447152Y-40827853D01*
X56447150Y-40827850D01*
X56447146Y-40827847D01*
X56447144Y-40827845D01*
X56337883Y-40747207D01*
X56209703Y-40702355D01*
X56209694Y-40702353D01*
X56179274Y-40699500D01*
X56179266Y-40699500D01*
X54820734Y-40699500D01*
X54820725Y-40699500D01*
X54790305Y-40702353D01*
X54790296Y-40702355D01*
X54662116Y-40747207D01*
X54552855Y-40827845D01*
X54552845Y-40827855D01*
X54472207Y-40937116D01*
X54427355Y-41065296D01*
X54427353Y-41065305D01*
X54424500Y-41095725D01*
X33616704Y-41095725D01*
X33483954Y-41024768D01*
X33285934Y-40964699D01*
X33285929Y-40964698D01*
X33080003Y-40944417D01*
X33079997Y-40944417D01*
X32874070Y-40964698D01*
X32874065Y-40964699D01*
X32676045Y-41024768D01*
X32493547Y-41122316D01*
X32333595Y-41253585D01*
X32333585Y-41253595D01*
X32202316Y-41413547D01*
X32104768Y-41596045D01*
X32044699Y-41794065D01*
X32044698Y-41794070D01*
X32024417Y-41999996D01*
X31595583Y-41999996D01*
X31575301Y-41794070D01*
X31575300Y-41794065D01*
X31534235Y-41658691D01*
X31515232Y-41596046D01*
X31417685Y-41413550D01*
X31286410Y-41253590D01*
X31136123Y-41130253D01*
X31126452Y-41122316D01*
X30943954Y-41024768D01*
X30745934Y-40964699D01*
X30745929Y-40964698D01*
X30540003Y-40944417D01*
X30539997Y-40944417D01*
X30334070Y-40964698D01*
X30334065Y-40964699D01*
X30136045Y-41024768D01*
X29953547Y-41122316D01*
X29793595Y-41253585D01*
X29793585Y-41253595D01*
X29662316Y-41413547D01*
X29564768Y-41596045D01*
X29504699Y-41794065D01*
X29504698Y-41794070D01*
X29484417Y-41999996D01*
X29050500Y-41999996D01*
X29050500Y-41130252D01*
X29048921Y-41122316D01*
X29043634Y-41095734D01*
X29038867Y-41071769D01*
X28994552Y-41005448D01*
X28994548Y-41005445D01*
X28928233Y-40961134D01*
X28928231Y-40961133D01*
X28928228Y-40961132D01*
X28928227Y-40961132D01*
X28869758Y-40949501D01*
X28869748Y-40949500D01*
X27130252Y-40949500D01*
X27130251Y-40949500D01*
X27130241Y-40949501D01*
X27071772Y-40961132D01*
X27071766Y-40961134D01*
X27005451Y-41005445D01*
X27005445Y-41005451D01*
X26961134Y-41071766D01*
X26961132Y-41071772D01*
X26949501Y-41130241D01*
X26949500Y-41130253D01*
X26949500Y-41600500D01*
X26930593Y-41658691D01*
X26881093Y-41694655D01*
X26850500Y-41699500D01*
X26808738Y-41699500D01*
X26761961Y-41712033D01*
X26732307Y-41719979D01*
X26663793Y-41759536D01*
X25601125Y-42822204D01*
X25546608Y-42849981D01*
X25531121Y-42851200D01*
X20569729Y-42851200D01*
X20511538Y-42832293D01*
X20475574Y-42782793D01*
X20475574Y-42721607D01*
X20493201Y-42689395D01*
X20507488Y-42671985D01*
X20577685Y-42586450D01*
X20675232Y-42403954D01*
X20735300Y-42205934D01*
X20735301Y-42205929D01*
X20755583Y-42000003D01*
X20755583Y-41999996D01*
X20735301Y-41794070D01*
X20735300Y-41794065D01*
X20694235Y-41658691D01*
X20675232Y-41596046D01*
X20577685Y-41413550D01*
X20446410Y-41253590D01*
X20296123Y-41130253D01*
X20286452Y-41122316D01*
X20103954Y-41024768D01*
X19905934Y-40964699D01*
X19905929Y-40964698D01*
X19700003Y-40944417D01*
X19699997Y-40944417D01*
X19494070Y-40964698D01*
X19494065Y-40964699D01*
X19296045Y-41024768D01*
X19113547Y-41122316D01*
X18953595Y-41253585D01*
X18953585Y-41253595D01*
X18822316Y-41413547D01*
X18724768Y-41596045D01*
X18664699Y-41794065D01*
X18664698Y-41794070D01*
X18644417Y-41999996D01*
X18644417Y-42000003D01*
X18664698Y-42205929D01*
X18664699Y-42205934D01*
X18724768Y-42403954D01*
X18822316Y-42586452D01*
X18906799Y-42689395D01*
X18929099Y-42746372D01*
X18913650Y-42805575D01*
X18866353Y-42844390D01*
X18830271Y-42851200D01*
X18029729Y-42851200D01*
X17971538Y-42832293D01*
X17935574Y-42782793D01*
X17935574Y-42721607D01*
X17953201Y-42689395D01*
X17967488Y-42671985D01*
X18037685Y-42586450D01*
X18135232Y-42403954D01*
X18195300Y-42205934D01*
X18195301Y-42205929D01*
X18215583Y-42000003D01*
X18215583Y-41999996D01*
X18195301Y-41794070D01*
X18195300Y-41794065D01*
X18154235Y-41658691D01*
X18135232Y-41596046D01*
X18037685Y-41413550D01*
X17906410Y-41253590D01*
X17756123Y-41130253D01*
X17746452Y-41122316D01*
X17563954Y-41024768D01*
X17365934Y-40964699D01*
X17365929Y-40964698D01*
X17160003Y-40944417D01*
X17159997Y-40944417D01*
X16954070Y-40964698D01*
X16954065Y-40964699D01*
X16756045Y-41024768D01*
X16573547Y-41122316D01*
X16413595Y-41253585D01*
X16413585Y-41253595D01*
X16282316Y-41413547D01*
X16184768Y-41596045D01*
X16124699Y-41794065D01*
X16124698Y-41794070D01*
X16104417Y-41999996D01*
X16104417Y-42000003D01*
X16124698Y-42205929D01*
X16124699Y-42205934D01*
X16184768Y-42403954D01*
X16282316Y-42586452D01*
X16366799Y-42689395D01*
X16389099Y-42746372D01*
X16373650Y-42805575D01*
X16326353Y-42844390D01*
X16290271Y-42851200D01*
X15489729Y-42851200D01*
X15431538Y-42832293D01*
X15395574Y-42782793D01*
X15395574Y-42721607D01*
X15413201Y-42689395D01*
X15427488Y-42671985D01*
X15497685Y-42586450D01*
X15595232Y-42403954D01*
X15655300Y-42205934D01*
X15655301Y-42205929D01*
X15675583Y-42000003D01*
X15675583Y-41999996D01*
X15655301Y-41794070D01*
X15655300Y-41794065D01*
X15614235Y-41658691D01*
X15595232Y-41596046D01*
X15497685Y-41413550D01*
X15366410Y-41253590D01*
X15216123Y-41130253D01*
X15206452Y-41122316D01*
X15023954Y-41024768D01*
X14825934Y-40964699D01*
X14825929Y-40964698D01*
X14620003Y-40944417D01*
X14619997Y-40944417D01*
X14414070Y-40964698D01*
X14414065Y-40964699D01*
X14216045Y-41024768D01*
X14033547Y-41122316D01*
X13873595Y-41253585D01*
X13873585Y-41253595D01*
X13742316Y-41413547D01*
X13644768Y-41596045D01*
X13584699Y-41794065D01*
X13584698Y-41794070D01*
X13564417Y-41999996D01*
X13564417Y-42000003D01*
X13584698Y-42205929D01*
X13584699Y-42205934D01*
X13644768Y-42403954D01*
X13742316Y-42586452D01*
X13826799Y-42689395D01*
X13849099Y-42746372D01*
X13833650Y-42805575D01*
X13786353Y-42844390D01*
X13750271Y-42851200D01*
X12949729Y-42851200D01*
X12891538Y-42832293D01*
X12855574Y-42782793D01*
X12855574Y-42721607D01*
X12873201Y-42689395D01*
X12887488Y-42671985D01*
X12957685Y-42586450D01*
X13055232Y-42403954D01*
X13115300Y-42205934D01*
X13115301Y-42205929D01*
X13135583Y-42000003D01*
X13135583Y-41999996D01*
X13115301Y-41794070D01*
X13115300Y-41794065D01*
X13074235Y-41658691D01*
X13055232Y-41596046D01*
X12957685Y-41413550D01*
X12826410Y-41253590D01*
X12676123Y-41130253D01*
X12666452Y-41122316D01*
X12483954Y-41024768D01*
X12285934Y-40964699D01*
X12285929Y-40964698D01*
X12080003Y-40944417D01*
X12079997Y-40944417D01*
X11874070Y-40964698D01*
X11874065Y-40964699D01*
X11676045Y-41024768D01*
X11493547Y-41122316D01*
X11333595Y-41253585D01*
X11333585Y-41253595D01*
X11202316Y-41413547D01*
X11104768Y-41596045D01*
X11044699Y-41794065D01*
X11044698Y-41794070D01*
X11024417Y-41999996D01*
X11024417Y-42000003D01*
X11044698Y-42205929D01*
X11044699Y-42205934D01*
X11104768Y-42403954D01*
X11202316Y-42586452D01*
X11286799Y-42689395D01*
X11309099Y-42746372D01*
X11293650Y-42805575D01*
X11246353Y-42844390D01*
X11210271Y-42851200D01*
X10409729Y-42851200D01*
X10351538Y-42832293D01*
X10315574Y-42782793D01*
X10315574Y-42721607D01*
X10333201Y-42689395D01*
X10347488Y-42671985D01*
X10417685Y-42586450D01*
X10515232Y-42403954D01*
X10575300Y-42205934D01*
X10575301Y-42205929D01*
X10595583Y-42000003D01*
X10595583Y-41999996D01*
X10575301Y-41794070D01*
X10575300Y-41794065D01*
X10534235Y-41658691D01*
X10515232Y-41596046D01*
X10417685Y-41413550D01*
X10286410Y-41253590D01*
X10136123Y-41130253D01*
X10126452Y-41122316D01*
X9943954Y-41024768D01*
X9745934Y-40964699D01*
X9745929Y-40964698D01*
X9540003Y-40944417D01*
X9539997Y-40944417D01*
X9334070Y-40964698D01*
X9334065Y-40964699D01*
X9136045Y-41024768D01*
X8953547Y-41122316D01*
X8793595Y-41253585D01*
X8793585Y-41253595D01*
X8662316Y-41413547D01*
X8564768Y-41596045D01*
X8504699Y-41794065D01*
X8504698Y-41794070D01*
X8484417Y-41999996D01*
X8484417Y-42000003D01*
X8504698Y-42205929D01*
X8504700Y-42205937D01*
X8519683Y-42255330D01*
X8518481Y-42316503D01*
X8481552Y-42365287D01*
X8423001Y-42383048D01*
X8365193Y-42363001D01*
X8354942Y-42354071D01*
X8079496Y-42078625D01*
X8051719Y-42024108D01*
X8050500Y-42008621D01*
X8050500Y-41130253D01*
X8050498Y-41130241D01*
X8043634Y-41095734D01*
X8038867Y-41071769D01*
X7994552Y-41005448D01*
X7994548Y-41005445D01*
X7928233Y-40961134D01*
X7928231Y-40961133D01*
X7928228Y-40961132D01*
X7928227Y-40961132D01*
X7869758Y-40949501D01*
X7869748Y-40949500D01*
X7869747Y-40949500D01*
X7533996Y-40949500D01*
X7475805Y-40930593D01*
X7439841Y-40881093D01*
X7439841Y-40819907D01*
X7448261Y-40800998D01*
X7455020Y-40789290D01*
X7455021Y-40789289D01*
X7475500Y-40712862D01*
X7475500Y-39733951D01*
X7494407Y-39675760D01*
X7529552Y-39645742D01*
X7613342Y-39603050D01*
X7703050Y-39513342D01*
X7760646Y-39400304D01*
X7775500Y-39306519D01*
X7775499Y-38865477D01*
X7794406Y-38807287D01*
X7804496Y-38795474D01*
X7919660Y-38680311D01*
X7921072Y-38677865D01*
X7959221Y-38611789D01*
X7974498Y-38554775D01*
X8007821Y-38503462D01*
X8064943Y-38481536D01*
X8070124Y-38481400D01*
X8142176Y-38481400D01*
X8200367Y-38500307D01*
X8236331Y-38549807D01*
X8239957Y-38595887D01*
X8224500Y-38693477D01*
X8224500Y-39306520D01*
X8224501Y-39306523D01*
X8239352Y-39400299D01*
X8239354Y-39400304D01*
X8296950Y-39513342D01*
X8386658Y-39603050D01*
X8499696Y-39660646D01*
X8593481Y-39675500D01*
X9034520Y-39675499D01*
X9092711Y-39694406D01*
X9104524Y-39704495D01*
X9895389Y-40495360D01*
X9895391Y-40495361D01*
X9895392Y-40495362D01*
X9895393Y-40495363D01*
X9963908Y-40534920D01*
X9963906Y-40534920D01*
X9963910Y-40534921D01*
X9963912Y-40534922D01*
X10040338Y-40555400D01*
X10040340Y-40555400D01*
X17460563Y-40555400D01*
X17460563Y-40555399D01*
X17536989Y-40534921D01*
X17605511Y-40495360D01*
X17661460Y-40439411D01*
X19021375Y-39079496D01*
X19075892Y-39051719D01*
X19091379Y-39050500D01*
X19769747Y-39050500D01*
X19769748Y-39050500D01*
X19828231Y-39038867D01*
X19894552Y-38994552D01*
X19938867Y-38928231D01*
X19950500Y-38869748D01*
X19950500Y-38437000D01*
X19969407Y-38378809D01*
X20018907Y-38342845D01*
X20049500Y-38338000D01*
X20049638Y-38338000D01*
X20128762Y-38338000D01*
X20399317Y-38338000D01*
X20457508Y-38356907D01*
X20474133Y-38372167D01*
X20515272Y-38419643D01*
X20560808Y-38448907D01*
X20628157Y-38492190D01*
X20636347Y-38497453D01*
X20717434Y-38521262D01*
X20774435Y-38537999D01*
X20774436Y-38537999D01*
X20774439Y-38538000D01*
X20774441Y-38538000D01*
X20918359Y-38538000D01*
X20918361Y-38538000D01*
X21056453Y-38497453D01*
X21177528Y-38419643D01*
X21271777Y-38310873D01*
X21331565Y-38179957D01*
X21352047Y-38037500D01*
X21331565Y-37895043D01*
X21271777Y-37764127D01*
X21177528Y-37655357D01*
X21177527Y-37655356D01*
X21177526Y-37655355D01*
X21056457Y-37577549D01*
X21056454Y-37577547D01*
X21056453Y-37577547D01*
X21056450Y-37577546D01*
X20918364Y-37537000D01*
X20918361Y-37537000D01*
X20774439Y-37537000D01*
X20774435Y-37537000D01*
X20636349Y-37577546D01*
X20636342Y-37577549D01*
X20515276Y-37655354D01*
X20515275Y-37655355D01*
X20515272Y-37655357D01*
X20478079Y-37698281D01*
X20474136Y-37702831D01*
X20421740Y-37734427D01*
X20399317Y-37737000D01*
X20223697Y-37737000D01*
X20174194Y-37723735D01*
X20167689Y-37719979D01*
X20167688Y-37719978D01*
X20167687Y-37719978D01*
X20091264Y-37699500D01*
X20091262Y-37699500D01*
X20049500Y-37699500D01*
X19991309Y-37680593D01*
X19955345Y-37631093D01*
X19950500Y-37600500D01*
X19950500Y-37130253D01*
X19950498Y-37130241D01*
X19942471Y-37089887D01*
X19938867Y-37071769D01*
X19894552Y-37005448D01*
X19894548Y-37005445D01*
X19828233Y-36961134D01*
X19828231Y-36961133D01*
X19828228Y-36961132D01*
X19828227Y-36961132D01*
X19769758Y-36949501D01*
X19769748Y-36949500D01*
X18830252Y-36949500D01*
X18830251Y-36949500D01*
X18830241Y-36949501D01*
X18771772Y-36961132D01*
X18771766Y-36961134D01*
X18705451Y-37005445D01*
X18705445Y-37005451D01*
X18661134Y-37071766D01*
X18661132Y-37071772D01*
X18649501Y-37130241D01*
X18649500Y-37130253D01*
X18649500Y-38560421D01*
X18630593Y-38618612D01*
X18620504Y-38630425D01*
X17325525Y-39925404D01*
X17271008Y-39953181D01*
X17255521Y-39954400D01*
X10245379Y-39954400D01*
X10187188Y-39935493D01*
X10175375Y-39925404D01*
X9454495Y-39204524D01*
X9426718Y-39150007D01*
X9425499Y-39134520D01*
X9425499Y-38693478D01*
X9410043Y-38595886D01*
X9419615Y-38535454D01*
X9462880Y-38492190D01*
X9507824Y-38481400D01*
X9690421Y-38481400D01*
X9748612Y-38500307D01*
X9760425Y-38510396D01*
X10045504Y-38795475D01*
X10073281Y-38849992D01*
X10074500Y-38865479D01*
X10074500Y-39306520D01*
X10074501Y-39306523D01*
X10089352Y-39400299D01*
X10089354Y-39400304D01*
X10146950Y-39513342D01*
X10236658Y-39603050D01*
X10349696Y-39660646D01*
X10443481Y-39675500D01*
X10906518Y-39675499D01*
X10906520Y-39675499D01*
X10906521Y-39675498D01*
X10975502Y-39664574D01*
X11000299Y-39660647D01*
X11000299Y-39660646D01*
X11000304Y-39660646D01*
X11113342Y-39603050D01*
X11203050Y-39513342D01*
X11260646Y-39400304D01*
X11275500Y-39306519D01*
X11275499Y-38693482D01*
X11275498Y-38693478D01*
X11275498Y-38693476D01*
X11260647Y-38599700D01*
X11260646Y-38599698D01*
X11260646Y-38599696D01*
X11203050Y-38486658D01*
X11113342Y-38396950D01*
X11000304Y-38339354D01*
X11000305Y-38339354D01*
X10906522Y-38324500D01*
X10465479Y-38324500D01*
X10407288Y-38305593D01*
X10395476Y-38295504D01*
X10040410Y-37940439D01*
X9971892Y-37900880D01*
X9971888Y-37900878D01*
X9895464Y-37880400D01*
X9895462Y-37880400D01*
X7844679Y-37880400D01*
X7786488Y-37861493D01*
X7774675Y-37851404D01*
X6801696Y-36878425D01*
X6773919Y-36823908D01*
X6772700Y-36808421D01*
X6772700Y-36210751D01*
X8149500Y-36210751D01*
X8149500Y-36789248D01*
X8165049Y-36887419D01*
X8165050Y-36887423D01*
X8196681Y-36949501D01*
X8225342Y-37005751D01*
X8319249Y-37099658D01*
X8437580Y-37159951D01*
X8504130Y-37170491D01*
X8535751Y-37175500D01*
X8535754Y-37175500D01*
X9039249Y-37175500D01*
X9067803Y-37170976D01*
X9137420Y-37159951D01*
X9255751Y-37099658D01*
X9349658Y-37005751D01*
X9409951Y-36887420D01*
X9425500Y-36789246D01*
X9425500Y-36210754D01*
X9422221Y-36190054D01*
X9415605Y-36148279D01*
X9409951Y-36112580D01*
X9349658Y-35994249D01*
X9255751Y-35900342D01*
X9253902Y-35899400D01*
X9142054Y-35842409D01*
X9098790Y-35799144D01*
X9088000Y-35754200D01*
X9088000Y-34752817D01*
X9106907Y-34694626D01*
X9144832Y-34667071D01*
X9143361Y-34664184D01*
X9173948Y-34648598D01*
X9263342Y-34603050D01*
X9353050Y-34513342D01*
X9410646Y-34400304D01*
X9425500Y-34306519D01*
X9425499Y-33693482D01*
X9425498Y-33693478D01*
X9425498Y-33693476D01*
X9410647Y-33599700D01*
X9410646Y-33599698D01*
X9410646Y-33599696D01*
X9353050Y-33486658D01*
X9263342Y-33396950D01*
X9150304Y-33339354D01*
X9150305Y-33339354D01*
X9056522Y-33324500D01*
X8593479Y-33324500D01*
X8593476Y-33324501D01*
X8499700Y-33339352D01*
X8499695Y-33339354D01*
X8386659Y-33396949D01*
X8296949Y-33486659D01*
X8239354Y-33599695D01*
X8224500Y-33693477D01*
X8224500Y-34306520D01*
X8224501Y-34306523D01*
X8239352Y-34400299D01*
X8239354Y-34400304D01*
X8296950Y-34513342D01*
X8386658Y-34603050D01*
X8429519Y-34624889D01*
X8432946Y-34626635D01*
X8476210Y-34669900D01*
X8487000Y-34714844D01*
X8487000Y-35754200D01*
X8468093Y-35812391D01*
X8432946Y-35842409D01*
X8319250Y-35900341D01*
X8225341Y-35994250D01*
X8165050Y-36112576D01*
X8165049Y-36112580D01*
X8149500Y-36210751D01*
X6772700Y-36210751D01*
X6772700Y-34868277D01*
X6791607Y-34810086D01*
X6801691Y-34798279D01*
X6895475Y-34704494D01*
X6949989Y-34676718D01*
X6965464Y-34675499D01*
X7406518Y-34675499D01*
X7406521Y-34675499D01*
X7406522Y-34675498D01*
X7459735Y-34667071D01*
X7500299Y-34660647D01*
X7500299Y-34660646D01*
X7500304Y-34660646D01*
X7613342Y-34603050D01*
X7703050Y-34513342D01*
X7760646Y-34400304D01*
X7775500Y-34306519D01*
X7775499Y-33693482D01*
X7775498Y-33693478D01*
X7775498Y-33693476D01*
X7760647Y-33599700D01*
X7760646Y-33599698D01*
X7760646Y-33599696D01*
X7703050Y-33486658D01*
X7613342Y-33396950D01*
X7500304Y-33339354D01*
X7500305Y-33339354D01*
X7406522Y-33324500D01*
X6943479Y-33324500D01*
X6943476Y-33324501D01*
X6849700Y-33339352D01*
X6849695Y-33339354D01*
X6736659Y-33396949D01*
X6646949Y-33486659D01*
X6589354Y-33599695D01*
X6574500Y-33693478D01*
X6574500Y-34134521D01*
X6555593Y-34192712D01*
X6545509Y-34204518D01*
X6287689Y-34462340D01*
X6287688Y-34462339D01*
X6231739Y-34518289D01*
X6192180Y-34586807D01*
X6192178Y-34586811D01*
X6171700Y-34663235D01*
X6171700Y-37013464D01*
X6192178Y-37089887D01*
X6192179Y-37089889D01*
X6215483Y-37130253D01*
X6229482Y-37154500D01*
X6229481Y-37154500D01*
X6231738Y-37158408D01*
X6231740Y-37158411D01*
X6732020Y-37658691D01*
X7228825Y-38155496D01*
X7256602Y-38210013D01*
X7247031Y-38270445D01*
X7203766Y-38313710D01*
X7158821Y-38324500D01*
X6943479Y-38324500D01*
X6943476Y-38324501D01*
X6849700Y-38339352D01*
X6849695Y-38339354D01*
X6736659Y-38396949D01*
X6646949Y-38486659D01*
X6589354Y-38599695D01*
X6574500Y-38693477D01*
X6574500Y-39306520D01*
X6574501Y-39306523D01*
X6589352Y-39400299D01*
X6589354Y-39400304D01*
X6646950Y-39513342D01*
X6736658Y-39603050D01*
X6820446Y-39645742D01*
X6863710Y-39689006D01*
X6874500Y-39733951D01*
X6874500Y-40507821D01*
X6855593Y-40566012D01*
X6845504Y-40577825D01*
X6815489Y-40607840D01*
X6815488Y-40607839D01*
X6759539Y-40663789D01*
X6719980Y-40732307D01*
X6719978Y-40732311D01*
X6699500Y-40808735D01*
X6699500Y-40850500D01*
X6680593Y-40908691D01*
X6631093Y-40944655D01*
X6600500Y-40949500D01*
X6130252Y-40949500D01*
X6130251Y-40949500D01*
X6130241Y-40949501D01*
X6071772Y-40961132D01*
X6071766Y-40961134D01*
X6005451Y-41005445D01*
X6005445Y-41005451D01*
X5961134Y-41071766D01*
X5961132Y-41071772D01*
X5949501Y-41130241D01*
X5949500Y-41130253D01*
X1200000Y-41130253D01*
X1200000Y-6099000D01*
X1218907Y-6040809D01*
X1268407Y-6004845D01*
X1299000Y-6000000D01*
X42975501Y-6000000D01*
X43033692Y-6018907D01*
G37*
%TD.AperFunction*%
%TD*%
M02*
