%TF.GenerationSoftware,KiCad,Pcbnew,8.0.9-8.0.9-0~ubuntu24.04.1*%
%TF.CreationDate,2026-07-18T22:23:39+00:00*%
%TF.ProjectId,smart-glove,736d6172-742d-4676-9c6f-76652e6b6963,rev?*%
%TF.SameCoordinates,Original*%
%TF.FileFunction,Copper,L2,Bot*%
%TF.FilePolarity,Positive*%
%FSLAX46Y46*%
G04 Gerber Fmt 4.6, Leading zero omitted, Abs format (unit mm)*
G04 Created by KiCad (PCBNEW 8.0.9-8.0.9-0~ubuntu24.04.1) date 2026-07-18 22:23:39*
%MOMM*%
%LPD*%
G01*
G04 APERTURE LIST*
G04 Aperture macros list*
%AMRoundRect*
0 Rectangle with rounded corners*
0 $1 Rounding radius*
0 $2 $3 $4 $5 $6 $7 $8 $9 X,Y pos of 4 corners*
0 Add a 4 corners polygon primitive as box body*
4,1,4,$2,$3,$4,$5,$6,$7,$8,$9,$2,$3,0*
0 Add four circle primitives for the rounded corners*
1,1,$1+$1,$2,$3*
1,1,$1+$1,$4,$5*
1,1,$1+$1,$6,$7*
1,1,$1+$1,$8,$9*
0 Add four rect primitives between the rounded corners*
20,1,$1+$1,$2,$3,$4,$5,0*
20,1,$1+$1,$4,$5,$6,$7,0*
20,1,$1+$1,$6,$7,$8,$9,0*
20,1,$1+$1,$8,$9,$2,$3,0*%
G04 Aperture macros list end*
%TA.AperFunction,HeatsinkPad*%
%ADD10C,0.600000*%
%TD*%
%TA.AperFunction,ComponentPad*%
%ADD11O,1.000000X2.100000*%
%TD*%
%TA.AperFunction,ComponentPad*%
%ADD12O,1.000000X1.600000*%
%TD*%
%TA.AperFunction,ComponentPad*%
%ADD13RoundRect,0.250000X0.625000X-0.350000X0.625000X0.350000X-0.625000X0.350000X-0.625000X-0.350000X0*%
%TD*%
%TA.AperFunction,ComponentPad*%
%ADD14O,1.750000X1.200000*%
%TD*%
%TA.AperFunction,ComponentPad*%
%ADD15R,1.700000X1.700000*%
%TD*%
%TA.AperFunction,ComponentPad*%
%ADD16O,1.700000X1.700000*%
%TD*%
%TA.AperFunction,ViaPad*%
%ADD17C,0.600000*%
%TD*%
%TA.AperFunction,Conductor*%
%ADD18C,0.200000*%
%TD*%
G04 APERTURE END LIST*
D10*
%TO.P,U1,39*%
%TO.N,GND*%
X35795000Y-16327500D03*
X35795000Y-17852500D03*
X36557500Y-15565000D03*
X36557500Y-17090000D03*
X36557500Y-18615000D03*
X37320000Y-16327500D03*
X37320000Y-17852500D03*
X38082500Y-15565000D03*
X38082500Y-17090000D03*
X38082500Y-18615000D03*
X38845000Y-16327500D03*
X38845000Y-17852500D03*
%TD*%
D11*
%TO.P,J1,S1*%
%TO.N,GND*%
X37680000Y-44670000D03*
D12*
X37680000Y-48850000D03*
D11*
X46320000Y-44670000D03*
D12*
X46320000Y-48850000D03*
%TD*%
D13*
%TO.P,J3,1*%
%TO.N,+BAT*%
X65000000Y-48000000D03*
D14*
%TO.P,J3,2*%
%TO.N,GND*%
X65000000Y-46000000D03*
%TD*%
D15*
%TO.P,J2,1*%
%TO.N,3V3*%
X10000000Y-48500000D03*
D16*
%TO.P,J2,2*%
%TO.N,FLEX1*%
X12540000Y-48500000D03*
%TO.P,J2,3*%
%TO.N,FLEX2*%
X15080000Y-48500000D03*
%TO.P,J2,4*%
%TO.N,FLEX3*%
X17620000Y-48500000D03*
%TO.P,J2,5*%
%TO.N,FLEX4*%
X20160000Y-48500000D03*
%TO.P,J2,6*%
%TO.N,FLEX5*%
X22700000Y-48500000D03*
%TO.P,J2,7*%
%TO.N,GND*%
X25240000Y-48500000D03*
%TD*%
D17*
%TO.N,GND*%
X49553900Y-39750800D03*
%TO.N,3V3*%
X34062900Y-40864700D03*
%TO.N,+5V*%
X39674400Y-42521700D03*
X44014500Y-42134500D03*
X61525000Y-14726300D03*
%TO.N,FLEX1*%
X11456200Y-11795500D03*
%TO.N,FLEX2*%
X13501000Y-15200000D03*
%TO.N,FLEX3*%
X18393000Y-16100000D03*
%TO.N,FLEX4*%
X18933400Y-24108900D03*
%TO.N,EN*%
X26272800Y-43000000D03*
X19590100Y-45136700D03*
%TD*%
D18*
%TO.N,GND*%
X49553900Y-40084400D02*
X49553900Y-39750800D01*
X35795000Y-16327500D02*
X36557500Y-17090000D01*
X46320000Y-43318300D02*
X49553900Y-40084400D01*
X37320000Y-17852500D02*
X38082500Y-18615000D01*
X46320000Y-44670000D02*
X46320000Y-43318300D01*
%TO.N,3V3*%
X20599100Y-49701700D02*
X21430000Y-48870800D01*
X29078500Y-45849100D02*
X34062900Y-40864700D01*
X21430000Y-48110300D02*
X23691200Y-45849100D01*
X10000000Y-48500000D02*
X11151700Y-48500000D01*
X12065500Y-49701700D02*
X20599100Y-49701700D01*
X23691200Y-45849100D02*
X29078500Y-45849100D01*
X11151700Y-48500000D02*
X11151700Y-48787900D01*
X21430000Y-48870800D02*
X21430000Y-48110300D01*
X11151700Y-48787900D02*
X12065500Y-49701700D01*
%TO.N,+5V*%
X44014500Y-42134500D02*
X44014500Y-32236800D01*
X43627300Y-42521700D02*
X39674400Y-42521700D01*
X44014500Y-42134500D02*
X43627300Y-42521700D01*
X44014500Y-32236800D02*
X61525000Y-14726300D01*
%TO.N,FLEX1*%
X12540000Y-48500000D02*
X12540000Y-12879300D01*
X12540000Y-12879300D02*
X11456200Y-11795500D01*
%TO.N,FLEX2*%
X13501000Y-45769300D02*
X13501000Y-15200000D01*
X15080000Y-47348300D02*
X13501000Y-45769300D01*
X15080000Y-48500000D02*
X15080000Y-47348300D01*
%TO.N,FLEX3*%
X17620000Y-16873000D02*
X18393000Y-16100000D01*
X17620000Y-48500000D02*
X17620000Y-16873000D01*
%TO.N,FLEX4*%
X20160000Y-47348300D02*
X18933400Y-46121700D01*
X20160000Y-48500000D02*
X20160000Y-47348300D01*
X18933400Y-46121700D02*
X18933400Y-24108900D01*
%TO.N,EN*%
X21726800Y-43000000D02*
X26272800Y-43000000D01*
X19590100Y-45136700D02*
X21726800Y-43000000D01*
%TD*%
%TA.AperFunction,Conductor*%
%TO.N,GND*%
G36*
X73759191Y-8018907D02*
G01*
X73795155Y-8068407D01*
X73800000Y-8099000D01*
X73800000Y-50701000D01*
X73781093Y-50759191D01*
X73731593Y-50795155D01*
X73701000Y-50800000D01*
X1299000Y-50800000D01*
X1240809Y-50781093D01*
X1204845Y-50731593D01*
X1200000Y-50701000D01*
X1200000Y-48393709D01*
X2149500Y-48393709D01*
X2149500Y-48606290D01*
X2182752Y-48816238D01*
X2248443Y-49018412D01*
X2344948Y-49207815D01*
X2344950Y-49207819D01*
X2469891Y-49379786D01*
X2469893Y-49379788D01*
X2469896Y-49379792D01*
X2620208Y-49530104D01*
X2620211Y-49530106D01*
X2620213Y-49530108D01*
X2792180Y-49655049D01*
X2792184Y-49655051D01*
X2981588Y-49751557D01*
X3183757Y-49817246D01*
X3183758Y-49817246D01*
X3183761Y-49817247D01*
X3393710Y-49850500D01*
X3393713Y-49850500D01*
X3606290Y-49850500D01*
X3816238Y-49817247D01*
X3816239Y-49817246D01*
X3816243Y-49817246D01*
X4018412Y-49751557D01*
X4207816Y-49655051D01*
X4379792Y-49530104D01*
X4530104Y-49379792D01*
X4655051Y-49207816D01*
X4751557Y-49018412D01*
X4817246Y-48816243D01*
X4817247Y-48816238D01*
X4850500Y-48606290D01*
X4850500Y-48393709D01*
X4817247Y-48183761D01*
X4790194Y-48100500D01*
X4751557Y-47981588D01*
X4655051Y-47792184D01*
X4655049Y-47792180D01*
X4537402Y-47630253D01*
X8949500Y-47630253D01*
X8949500Y-49369746D01*
X8949501Y-49369758D01*
X8961132Y-49428227D01*
X8961134Y-49428233D01*
X9005445Y-49494548D01*
X9005448Y-49494552D01*
X9071769Y-49538867D01*
X9116231Y-49547711D01*
X9130241Y-49550498D01*
X9130246Y-49550498D01*
X9130252Y-49550500D01*
X9130253Y-49550500D01*
X10869747Y-49550500D01*
X10869748Y-49550500D01*
X10928231Y-49538867D01*
X10994552Y-49494552D01*
X11038867Y-49428231D01*
X11050500Y-49369748D01*
X11050500Y-49350679D01*
X11069407Y-49292488D01*
X11118907Y-49256524D01*
X11180093Y-49256524D01*
X11219504Y-49280675D01*
X11825040Y-49886211D01*
X11825039Y-49886211D01*
X11880989Y-49942160D01*
X11949507Y-49981719D01*
X11949511Y-49981721D01*
X12025935Y-50002199D01*
X12025937Y-50002200D01*
X12025938Y-50002200D01*
X20638663Y-50002200D01*
X20638663Y-50002199D01*
X20715089Y-49981721D01*
X20783611Y-49942160D01*
X20811585Y-49914185D01*
X20839561Y-49886211D01*
X21454164Y-49271607D01*
X21664186Y-49061584D01*
X21718701Y-49033808D01*
X21779133Y-49043379D01*
X21819205Y-49082673D01*
X21819611Y-49082403D01*
X21820907Y-49084342D01*
X21821498Y-49084922D01*
X21822315Y-49086450D01*
X21953590Y-49246410D01*
X21953595Y-49246414D01*
X22113547Y-49377683D01*
X22113548Y-49377683D01*
X22113550Y-49377685D01*
X22296046Y-49475232D01*
X22433997Y-49517078D01*
X22494065Y-49535300D01*
X22494070Y-49535301D01*
X22699997Y-49555583D01*
X22700000Y-49555583D01*
X22700003Y-49555583D01*
X22905929Y-49535301D01*
X22905934Y-49535300D01*
X22923063Y-49530104D01*
X23103954Y-49475232D01*
X23286450Y-49377685D01*
X23446410Y-49246410D01*
X23577685Y-49086450D01*
X23675232Y-48903954D01*
X23735300Y-48705934D01*
X23735301Y-48705929D01*
X23755583Y-48500003D01*
X23755583Y-48499996D01*
X23735301Y-48294070D01*
X23735300Y-48294065D01*
X23717078Y-48233997D01*
X23675232Y-48096046D01*
X23577685Y-47913550D01*
X23541813Y-47869840D01*
X23446414Y-47753595D01*
X23446410Y-47753590D01*
X23296123Y-47630253D01*
X23286452Y-47622316D01*
X23236704Y-47595725D01*
X63924500Y-47595725D01*
X63924500Y-48404274D01*
X63927353Y-48434694D01*
X63927355Y-48434703D01*
X63972207Y-48562883D01*
X64052845Y-48672144D01*
X64052847Y-48672146D01*
X64052850Y-48672150D01*
X64052853Y-48672152D01*
X64052855Y-48672154D01*
X64162116Y-48752792D01*
X64162117Y-48752792D01*
X64162118Y-48752793D01*
X64290301Y-48797646D01*
X64320725Y-48800499D01*
X64320727Y-48800500D01*
X64320734Y-48800500D01*
X65679273Y-48800500D01*
X65679273Y-48800499D01*
X65709699Y-48797646D01*
X65837882Y-48752793D01*
X65947150Y-48672150D01*
X66027793Y-48562882D01*
X66072646Y-48434699D01*
X66075499Y-48404273D01*
X66075500Y-48404273D01*
X66075500Y-47595727D01*
X66075499Y-47595725D01*
X66073253Y-47571772D01*
X66072646Y-47565301D01*
X66027793Y-47437118D01*
X66016563Y-47421902D01*
X65947154Y-47327855D01*
X65947152Y-47327853D01*
X65947150Y-47327850D01*
X65947146Y-47327847D01*
X65947144Y-47327845D01*
X65837883Y-47247207D01*
X65709703Y-47202355D01*
X65709694Y-47202353D01*
X65679274Y-47199500D01*
X65679266Y-47199500D01*
X64320734Y-47199500D01*
X64320725Y-47199500D01*
X64290305Y-47202353D01*
X64290296Y-47202355D01*
X64162116Y-47247207D01*
X64052855Y-47327845D01*
X64052845Y-47327855D01*
X63972207Y-47437116D01*
X63927355Y-47565296D01*
X63927353Y-47565305D01*
X63924500Y-47595725D01*
X23236704Y-47595725D01*
X23103954Y-47524768D01*
X22905934Y-47464699D01*
X22905929Y-47464698D01*
X22745226Y-47448871D01*
X22689169Y-47424351D01*
X22658230Y-47371565D01*
X22664227Y-47310674D01*
X22684926Y-47280344D01*
X23786675Y-46178596D01*
X23841192Y-46150819D01*
X23856679Y-46149600D01*
X29118063Y-46149600D01*
X29118063Y-46149599D01*
X29194489Y-46129121D01*
X29263011Y-46089560D01*
X29318960Y-46033611D01*
X30228337Y-45124234D01*
X38534500Y-45124234D01*
X38534500Y-45275766D01*
X38535409Y-45279157D01*
X38573720Y-45422139D01*
X38649481Y-45553360D01*
X38649483Y-45553362D01*
X38649485Y-45553365D01*
X38756635Y-45660515D01*
X38756637Y-45660516D01*
X38756639Y-45660518D01*
X38887861Y-45736279D01*
X38887859Y-45736279D01*
X38887863Y-45736280D01*
X38887865Y-45736281D01*
X39034234Y-45775500D01*
X39034236Y-45775500D01*
X39185764Y-45775500D01*
X39185766Y-45775500D01*
X39332135Y-45736281D01*
X39332137Y-45736279D01*
X39332139Y-45736279D01*
X39463360Y-45660518D01*
X39463360Y-45660517D01*
X39463365Y-45660515D01*
X39570515Y-45553365D01*
X39590446Y-45518844D01*
X39646279Y-45422139D01*
X39646279Y-45422137D01*
X39646281Y-45422135D01*
X39685500Y-45275766D01*
X39685500Y-45124234D01*
X44314500Y-45124234D01*
X44314500Y-45275766D01*
X44315409Y-45279157D01*
X44353720Y-45422139D01*
X44429481Y-45553360D01*
X44429483Y-45553362D01*
X44429485Y-45553365D01*
X44536635Y-45660515D01*
X44536637Y-45660516D01*
X44536639Y-45660518D01*
X44667861Y-45736279D01*
X44667859Y-45736279D01*
X44667863Y-45736280D01*
X44667865Y-45736281D01*
X44814234Y-45775500D01*
X44814236Y-45775500D01*
X44965764Y-45775500D01*
X44965766Y-45775500D01*
X45112135Y-45736281D01*
X45112137Y-45736279D01*
X45112139Y-45736279D01*
X45243360Y-45660518D01*
X45243360Y-45660517D01*
X45243365Y-45660515D01*
X45350515Y-45553365D01*
X45370446Y-45518844D01*
X45426279Y-45422139D01*
X45426279Y-45422137D01*
X45426281Y-45422135D01*
X45465500Y-45275766D01*
X45465500Y-45124234D01*
X45426281Y-44977865D01*
X45426279Y-44977862D01*
X45426279Y-44977860D01*
X45350518Y-44846639D01*
X45350516Y-44846637D01*
X45350515Y-44846635D01*
X45243365Y-44739485D01*
X45243362Y-44739483D01*
X45243360Y-44739481D01*
X45112138Y-44663720D01*
X45112140Y-44663720D01*
X45055347Y-44648503D01*
X44965766Y-44624500D01*
X44814234Y-44624500D01*
X44724652Y-44648503D01*
X44667860Y-44663720D01*
X44536639Y-44739481D01*
X44429481Y-44846639D01*
X44353720Y-44977860D01*
X44353719Y-44977865D01*
X44314500Y-45124234D01*
X39685500Y-45124234D01*
X39646281Y-44977865D01*
X39646279Y-44977862D01*
X39646279Y-44977860D01*
X39570518Y-44846639D01*
X39570516Y-44846637D01*
X39570515Y-44846635D01*
X39463365Y-44739485D01*
X39463362Y-44739483D01*
X39463360Y-44739481D01*
X39332138Y-44663720D01*
X39332140Y-44663720D01*
X39275347Y-44648503D01*
X39185766Y-44624500D01*
X39034234Y-44624500D01*
X38944652Y-44648503D01*
X38887860Y-44663720D01*
X38756639Y-44739481D01*
X38649481Y-44846639D01*
X38573720Y-44977860D01*
X38573719Y-44977865D01*
X38534500Y-45124234D01*
X30228337Y-45124234D01*
X32830873Y-42521697D01*
X39168753Y-42521697D01*
X39168753Y-42521702D01*
X39189234Y-42664156D01*
X39232795Y-42759540D01*
X39249023Y-42795073D01*
X39343270Y-42903841D01*
X39343273Y-42903844D01*
X39343275Y-42903845D01*
X39464347Y-42981653D01*
X39570803Y-43012911D01*
X39602435Y-43022199D01*
X39602436Y-43022199D01*
X39602439Y-43022200D01*
X39602441Y-43022200D01*
X39746359Y-43022200D01*
X39746361Y-43022200D01*
X39884453Y-42981653D01*
X40005528Y-42903843D01*
X40046664Y-42856368D01*
X40099060Y-42824773D01*
X40121483Y-42822200D01*
X43666863Y-42822200D01*
X43666863Y-42822199D01*
X43743289Y-42801721D01*
X43811811Y-42762160D01*
X43867760Y-42706211D01*
X43909973Y-42663996D01*
X43964489Y-42636219D01*
X43979977Y-42635000D01*
X44086459Y-42635000D01*
X44086461Y-42635000D01*
X44224553Y-42594453D01*
X44345628Y-42516643D01*
X44439877Y-42407873D01*
X44499665Y-42276957D01*
X44519420Y-42139555D01*
X44520147Y-42134502D01*
X44520147Y-42134497D01*
X44499665Y-41992043D01*
X44439877Y-41861128D01*
X44439877Y-41861127D01*
X44345628Y-41752357D01*
X44345627Y-41752356D01*
X44340991Y-41747006D01*
X44343024Y-41745243D01*
X44317567Y-41703005D01*
X44315000Y-41680605D01*
X44315000Y-39893709D01*
X70149500Y-39893709D01*
X70149500Y-40106290D01*
X70182752Y-40316238D01*
X70248443Y-40518412D01*
X70344948Y-40707815D01*
X70344950Y-40707819D01*
X70469891Y-40879786D01*
X70469893Y-40879788D01*
X70469896Y-40879792D01*
X70620208Y-41030104D01*
X70620211Y-41030106D01*
X70620213Y-41030108D01*
X70792180Y-41155049D01*
X70792184Y-41155051D01*
X70981588Y-41251557D01*
X71183757Y-41317246D01*
X71183758Y-41317246D01*
X71183761Y-41317247D01*
X71393710Y-41350500D01*
X71393713Y-41350500D01*
X71606290Y-41350500D01*
X71816238Y-41317247D01*
X71816239Y-41317246D01*
X71816243Y-41317246D01*
X72018412Y-41251557D01*
X72207816Y-41155051D01*
X72231185Y-41138073D01*
X72379786Y-41030108D01*
X72379792Y-41030104D01*
X72530104Y-40879792D01*
X72655051Y-40707816D01*
X72751557Y-40518412D01*
X72817246Y-40316243D01*
X72850500Y-40106287D01*
X72850500Y-39893713D01*
X72850500Y-39893709D01*
X72817247Y-39683761D01*
X72817246Y-39683757D01*
X72751557Y-39481588D01*
X72655051Y-39292184D01*
X72655049Y-39292180D01*
X72530108Y-39120213D01*
X72530106Y-39120211D01*
X72530104Y-39120208D01*
X72379792Y-38969896D01*
X72379788Y-38969893D01*
X72379786Y-38969891D01*
X72207819Y-38844950D01*
X72207815Y-38844948D01*
X72018412Y-38748443D01*
X71816238Y-38682752D01*
X71606290Y-38649500D01*
X71606287Y-38649500D01*
X71393713Y-38649500D01*
X71393710Y-38649500D01*
X71183761Y-38682752D01*
X70981587Y-38748443D01*
X70792184Y-38844948D01*
X70792180Y-38844950D01*
X70620213Y-38969891D01*
X70469891Y-39120213D01*
X70344950Y-39292180D01*
X70344948Y-39292184D01*
X70248443Y-39481587D01*
X70182752Y-39683761D01*
X70149500Y-39893709D01*
X44315000Y-39893709D01*
X44315000Y-32402278D01*
X44333907Y-32344087D01*
X44343990Y-32332280D01*
X61420474Y-15255795D01*
X61474991Y-15228019D01*
X61490478Y-15226800D01*
X61596959Y-15226800D01*
X61596961Y-15226800D01*
X61735053Y-15186253D01*
X61856128Y-15108443D01*
X61950377Y-14999673D01*
X62010165Y-14868757D01*
X62020506Y-14796834D01*
X62030647Y-14726302D01*
X62030647Y-14726297D01*
X62010165Y-14583843D01*
X61950377Y-14452928D01*
X61950377Y-14452927D01*
X61856128Y-14344157D01*
X61856127Y-14344156D01*
X61856126Y-14344155D01*
X61735057Y-14266349D01*
X61735054Y-14266347D01*
X61735053Y-14266347D01*
X61735050Y-14266346D01*
X61596964Y-14225800D01*
X61596961Y-14225800D01*
X61453039Y-14225800D01*
X61453035Y-14225800D01*
X61314949Y-14266346D01*
X61314942Y-14266349D01*
X61193873Y-14344155D01*
X61099622Y-14452928D01*
X61039834Y-14583843D01*
X61019353Y-14726297D01*
X61019353Y-14726303D01*
X61022441Y-14747782D01*
X61012007Y-14808071D01*
X60994453Y-14831874D01*
X43829989Y-31996340D01*
X43829988Y-31996339D01*
X43774039Y-32052289D01*
X43734480Y-32120807D01*
X43734478Y-32120811D01*
X43714000Y-32197235D01*
X43714000Y-41680605D01*
X43695093Y-41738796D01*
X43687758Y-41746789D01*
X43688009Y-41747006D01*
X43589122Y-41861128D01*
X43529334Y-41992043D01*
X43508595Y-42136289D01*
X43481599Y-42191197D01*
X43427485Y-42219750D01*
X43410603Y-42221200D01*
X40121483Y-42221200D01*
X40063292Y-42202293D01*
X40046664Y-42187031D01*
X40005528Y-42139557D01*
X39972582Y-42118384D01*
X39884457Y-42061749D01*
X39884454Y-42061747D01*
X39884453Y-42061747D01*
X39884450Y-42061746D01*
X39746364Y-42021200D01*
X39746361Y-42021200D01*
X39602439Y-42021200D01*
X39602435Y-42021200D01*
X39464349Y-42061746D01*
X39464342Y-42061749D01*
X39343273Y-42139555D01*
X39249022Y-42248328D01*
X39189234Y-42379243D01*
X39168753Y-42521697D01*
X32830873Y-42521697D01*
X33958374Y-41394195D01*
X34012891Y-41366419D01*
X34028378Y-41365200D01*
X34134859Y-41365200D01*
X34134861Y-41365200D01*
X34272953Y-41324653D01*
X34394028Y-41246843D01*
X34488277Y-41138073D01*
X34548065Y-41007157D01*
X34558406Y-40935234D01*
X34568547Y-40864702D01*
X34568547Y-40864697D01*
X34548065Y-40722243D01*
X34488277Y-40591328D01*
X34488277Y-40591327D01*
X34394028Y-40482557D01*
X34394027Y-40482556D01*
X34394026Y-40482555D01*
X34272957Y-40404749D01*
X34272954Y-40404747D01*
X34272953Y-40404747D01*
X34272950Y-40404746D01*
X34134864Y-40364200D01*
X34134861Y-40364200D01*
X33990939Y-40364200D01*
X33990935Y-40364200D01*
X33852849Y-40404746D01*
X33852842Y-40404749D01*
X33731773Y-40482555D01*
X33637522Y-40591328D01*
X33577734Y-40722243D01*
X33557253Y-40864697D01*
X33557253Y-40864703D01*
X33560341Y-40886182D01*
X33549907Y-40946471D01*
X33532353Y-40970274D01*
X28983025Y-45519604D01*
X28928508Y-45547381D01*
X28913021Y-45548600D01*
X23730762Y-45548600D01*
X23651638Y-45548600D01*
X23604861Y-45561133D01*
X23575207Y-45569079D01*
X23506693Y-45608636D01*
X21188712Y-47926617D01*
X21134195Y-47954394D01*
X21073763Y-47944823D01*
X21041824Y-47916445D01*
X21040771Y-47917310D01*
X20906414Y-47753595D01*
X20906410Y-47753590D01*
X20756123Y-47630253D01*
X20746452Y-47622316D01*
X20563958Y-47524770D01*
X20563957Y-47524769D01*
X20563954Y-47524768D01*
X20563948Y-47524766D01*
X20563945Y-47524765D01*
X20530759Y-47514697D01*
X20480563Y-47479711D01*
X20460519Y-47421902D01*
X20460500Y-47419961D01*
X20460500Y-47308737D01*
X20460499Y-47308735D01*
X20440021Y-47232311D01*
X20440019Y-47232307D01*
X20400460Y-47163789D01*
X20344511Y-47107839D01*
X20344511Y-47107840D01*
X19262896Y-46026225D01*
X19235119Y-45971708D01*
X19233900Y-45956221D01*
X19233900Y-45683956D01*
X19252807Y-45625765D01*
X19302307Y-45589801D01*
X19363493Y-45589801D01*
X19374031Y-45593905D01*
X19380047Y-45596653D01*
X19518135Y-45637199D01*
X19518136Y-45637199D01*
X19518139Y-45637200D01*
X19518141Y-45637200D01*
X19662059Y-45637200D01*
X19662061Y-45637200D01*
X19800153Y-45596653D01*
X19921228Y-45518843D01*
X20015477Y-45410073D01*
X20075265Y-45279157D01*
X20095747Y-45136700D01*
X20092658Y-45115217D01*
X20103090Y-45054928D01*
X20120643Y-45031126D01*
X21822275Y-43329496D01*
X21876792Y-43301719D01*
X21892279Y-43300500D01*
X25825717Y-43300500D01*
X25883908Y-43319407D01*
X25900533Y-43334667D01*
X25941672Y-43382143D01*
X26062747Y-43459953D01*
X26169203Y-43491211D01*
X26200835Y-43500499D01*
X26200836Y-43500499D01*
X26200839Y-43500500D01*
X26200841Y-43500500D01*
X26344759Y-43500500D01*
X26344761Y-43500500D01*
X26482853Y-43459953D01*
X26603928Y-43382143D01*
X26698177Y-43273373D01*
X26757965Y-43142457D01*
X26775255Y-43022200D01*
X26778447Y-43000002D01*
X26778447Y-42999997D01*
X26757965Y-42857543D01*
X26741824Y-42822199D01*
X26698177Y-42726627D01*
X26603928Y-42617857D01*
X26603927Y-42617856D01*
X26603926Y-42617855D01*
X26482857Y-42540049D01*
X26482854Y-42540047D01*
X26482853Y-42540047D01*
X26482850Y-42540046D01*
X26344764Y-42499500D01*
X26344761Y-42499500D01*
X26200839Y-42499500D01*
X26200835Y-42499500D01*
X26062749Y-42540046D01*
X26062742Y-42540049D01*
X25941676Y-42617854D01*
X25941675Y-42617855D01*
X25941672Y-42617857D01*
X25901692Y-42663997D01*
X25900536Y-42665331D01*
X25848140Y-42696927D01*
X25825717Y-42699500D01*
X21687235Y-42699500D01*
X21610811Y-42719978D01*
X21610807Y-42719980D01*
X21542291Y-42759538D01*
X19694624Y-44607204D01*
X19640107Y-44634981D01*
X19624620Y-44636200D01*
X19518135Y-44636200D01*
X19380045Y-44676747D01*
X19374025Y-44679497D01*
X19313238Y-44686471D01*
X19259962Y-44656383D01*
X19234545Y-44600727D01*
X19233900Y-44589443D01*
X19233900Y-24562793D01*
X19252807Y-24504602D01*
X19260141Y-24496611D01*
X19259891Y-24496394D01*
X19264528Y-24491043D01*
X19358777Y-24382273D01*
X19418565Y-24251357D01*
X19439047Y-24108900D01*
X19418565Y-23966443D01*
X19358777Y-23835527D01*
X19264528Y-23726757D01*
X19264527Y-23726756D01*
X19264526Y-23726755D01*
X19143457Y-23648949D01*
X19143454Y-23648947D01*
X19143453Y-23648947D01*
X19143450Y-23648946D01*
X19005364Y-23608400D01*
X19005361Y-23608400D01*
X18861439Y-23608400D01*
X18861435Y-23608400D01*
X18723349Y-23648946D01*
X18723342Y-23648949D01*
X18602273Y-23726755D01*
X18508022Y-23835528D01*
X18448234Y-23966443D01*
X18427753Y-24108897D01*
X18427753Y-24108902D01*
X18448234Y-24251356D01*
X18508023Y-24382273D01*
X18606909Y-24496394D01*
X18604871Y-24498159D01*
X18630325Y-24540358D01*
X18632900Y-24562793D01*
X18632900Y-46161264D01*
X18653378Y-46237688D01*
X18653380Y-46237692D01*
X18692938Y-46306208D01*
X18692940Y-46306211D01*
X19494568Y-47107839D01*
X19762960Y-47376231D01*
X19790737Y-47430748D01*
X19781166Y-47491180D01*
X19739625Y-47533545D01*
X19573547Y-47622316D01*
X19413595Y-47753585D01*
X19413585Y-47753595D01*
X19282316Y-47913547D01*
X19184768Y-48096045D01*
X19124699Y-48294065D01*
X19124698Y-48294070D01*
X19104417Y-48499996D01*
X19104417Y-48500003D01*
X19124698Y-48705929D01*
X19124699Y-48705934D01*
X19184768Y-48903954D01*
X19282316Y-49086452D01*
X19407833Y-49239395D01*
X19430133Y-49296372D01*
X19414684Y-49355575D01*
X19367387Y-49394390D01*
X19331305Y-49401200D01*
X18448695Y-49401200D01*
X18390504Y-49382293D01*
X18354540Y-49332793D01*
X18354540Y-49271607D01*
X18372167Y-49239395D01*
X18497685Y-49086450D01*
X18595232Y-48903954D01*
X18655300Y-48705934D01*
X18655301Y-48705929D01*
X18675583Y-48500003D01*
X18675583Y-48499996D01*
X18655301Y-48294070D01*
X18655300Y-48294065D01*
X18637078Y-48233997D01*
X18595232Y-48096046D01*
X18497685Y-47913550D01*
X18461813Y-47869840D01*
X18366414Y-47753595D01*
X18366410Y-47753590D01*
X18216123Y-47630253D01*
X18206452Y-47622316D01*
X18023958Y-47524770D01*
X18023957Y-47524769D01*
X18023954Y-47524768D01*
X18023948Y-47524766D01*
X18023945Y-47524765D01*
X17990759Y-47514697D01*
X17940563Y-47479711D01*
X17920519Y-47421902D01*
X17920500Y-47419961D01*
X17920500Y-17038477D01*
X17939407Y-16980286D01*
X17949484Y-16968486D01*
X18288475Y-16629494D01*
X18342990Y-16601719D01*
X18358477Y-16600500D01*
X18464959Y-16600500D01*
X18464961Y-16600500D01*
X18603053Y-16559953D01*
X18724128Y-16482143D01*
X18818377Y-16373373D01*
X18878165Y-16242457D01*
X18898647Y-16100000D01*
X18898646Y-16099996D01*
X18878165Y-15957543D01*
X18818377Y-15826628D01*
X18818377Y-15826627D01*
X18724128Y-15717857D01*
X18724127Y-15717856D01*
X18724126Y-15717855D01*
X18603057Y-15640049D01*
X18603054Y-15640047D01*
X18603053Y-15640047D01*
X18603050Y-15640046D01*
X18464964Y-15599500D01*
X18464961Y-15599500D01*
X18321039Y-15599500D01*
X18321035Y-15599500D01*
X18182949Y-15640046D01*
X18182942Y-15640049D01*
X18061873Y-15717855D01*
X17967622Y-15826628D01*
X17907834Y-15957543D01*
X17887353Y-16099996D01*
X17887353Y-16099997D01*
X17887353Y-16100000D01*
X17890442Y-16121483D01*
X17880007Y-16181772D01*
X17862453Y-16205574D01*
X17435489Y-16632539D01*
X17379539Y-16688489D01*
X17339980Y-16757007D01*
X17339978Y-16757011D01*
X17319500Y-16833435D01*
X17319500Y-47419961D01*
X17300593Y-47478152D01*
X17251093Y-47514116D01*
X17249241Y-47514697D01*
X17216054Y-47524765D01*
X17216041Y-47524770D01*
X17033547Y-47622316D01*
X16873595Y-47753585D01*
X16873585Y-47753595D01*
X16742316Y-47913547D01*
X16644768Y-48096045D01*
X16584699Y-48294065D01*
X16584698Y-48294070D01*
X16564417Y-48499996D01*
X16564417Y-48500003D01*
X16584698Y-48705929D01*
X16584699Y-48705934D01*
X16644768Y-48903954D01*
X16742316Y-49086452D01*
X16867833Y-49239395D01*
X16890133Y-49296372D01*
X16874684Y-49355575D01*
X16827387Y-49394390D01*
X16791305Y-49401200D01*
X15908695Y-49401200D01*
X15850504Y-49382293D01*
X15814540Y-49332793D01*
X15814540Y-49271607D01*
X15832167Y-49239395D01*
X15957685Y-49086450D01*
X16055232Y-48903954D01*
X16115300Y-48705934D01*
X16115301Y-48705929D01*
X16135583Y-48500003D01*
X16135583Y-48499996D01*
X16115301Y-48294070D01*
X16115300Y-48294065D01*
X16097078Y-48233997D01*
X16055232Y-48096046D01*
X15957685Y-47913550D01*
X15921813Y-47869840D01*
X15826414Y-47753595D01*
X15826410Y-47753590D01*
X15676123Y-47630253D01*
X15666452Y-47622316D01*
X15483958Y-47524770D01*
X15483957Y-47524769D01*
X15483954Y-47524768D01*
X15483948Y-47524766D01*
X15483945Y-47524765D01*
X15450759Y-47514697D01*
X15400563Y-47479711D01*
X15380519Y-47421902D01*
X15380500Y-47419961D01*
X15380500Y-47308737D01*
X15380499Y-47308735D01*
X15360021Y-47232311D01*
X15360019Y-47232307D01*
X15320460Y-47163789D01*
X15264511Y-47107839D01*
X15264511Y-47107840D01*
X13830496Y-45673825D01*
X13802719Y-45619308D01*
X13801500Y-45603821D01*
X13801500Y-15653893D01*
X13820407Y-15595702D01*
X13827741Y-15587711D01*
X13827491Y-15587494D01*
X13832128Y-15582143D01*
X13926377Y-15473373D01*
X13986165Y-15342457D01*
X14006647Y-15200000D01*
X13993483Y-15108444D01*
X13986165Y-15057543D01*
X13926377Y-14926628D01*
X13926377Y-14926627D01*
X13832128Y-14817857D01*
X13832127Y-14817856D01*
X13832126Y-14817855D01*
X13711057Y-14740049D01*
X13711054Y-14740047D01*
X13711053Y-14740047D01*
X13711050Y-14740046D01*
X13572964Y-14699500D01*
X13572961Y-14699500D01*
X13429039Y-14699500D01*
X13429035Y-14699500D01*
X13290949Y-14740046D01*
X13290942Y-14740049D01*
X13169873Y-14817855D01*
X13075622Y-14926628D01*
X13029553Y-15027504D01*
X12988181Y-15072581D01*
X12928214Y-15084732D01*
X12872558Y-15059314D01*
X12842472Y-15006037D01*
X12840500Y-14986377D01*
X12840500Y-12839739D01*
X12840500Y-12839738D01*
X12820022Y-12763312D01*
X12820020Y-12763309D01*
X12820020Y-12763307D01*
X12780463Y-12694793D01*
X12780462Y-12694792D01*
X12780461Y-12694791D01*
X12780460Y-12694789D01*
X11986746Y-11901075D01*
X11958969Y-11846558D01*
X11958758Y-11816982D01*
X11961847Y-11795500D01*
X11941365Y-11653043D01*
X11881577Y-11522127D01*
X11787328Y-11413357D01*
X11787327Y-11413356D01*
X11787326Y-11413355D01*
X11666257Y-11335549D01*
X11666254Y-11335547D01*
X11666253Y-11335547D01*
X11666250Y-11335546D01*
X11528164Y-11295000D01*
X11528161Y-11295000D01*
X11384239Y-11295000D01*
X11384235Y-11295000D01*
X11246149Y-11335546D01*
X11246142Y-11335549D01*
X11125073Y-11413355D01*
X11030822Y-11522128D01*
X10971034Y-11653043D01*
X10950553Y-11795497D01*
X10950553Y-11795502D01*
X10971034Y-11937956D01*
X11030822Y-12068871D01*
X11030823Y-12068873D01*
X11125072Y-12177643D01*
X11125073Y-12177644D01*
X11246142Y-12255450D01*
X11246147Y-12255453D01*
X11352603Y-12286711D01*
X11384235Y-12295999D01*
X11384236Y-12295999D01*
X11384239Y-12296000D01*
X11384241Y-12296000D01*
X11490721Y-12296000D01*
X11548912Y-12314907D01*
X11560725Y-12324996D01*
X12210504Y-12974775D01*
X12238281Y-13029292D01*
X12239500Y-13044779D01*
X12239500Y-47419961D01*
X12220593Y-47478152D01*
X12171093Y-47514116D01*
X12169241Y-47514697D01*
X12136054Y-47524765D01*
X12136041Y-47524770D01*
X11953547Y-47622316D01*
X11793595Y-47753585D01*
X11793585Y-47753595D01*
X11662316Y-47913547D01*
X11564768Y-48096045D01*
X11521467Y-48238790D01*
X11486482Y-48288987D01*
X11428674Y-48309033D01*
X11370123Y-48291272D01*
X11356732Y-48280061D01*
X11336211Y-48259540D01*
X11336208Y-48259538D01*
X11267692Y-48219980D01*
X11267688Y-48219978D01*
X11191264Y-48199500D01*
X11191262Y-48199500D01*
X11149500Y-48199500D01*
X11091309Y-48180593D01*
X11055345Y-48131093D01*
X11050500Y-48100500D01*
X11050500Y-47630253D01*
X11050498Y-47630241D01*
X11043634Y-47595734D01*
X11038867Y-47571769D01*
X10994552Y-47505448D01*
X10973199Y-47491180D01*
X10928233Y-47461134D01*
X10928231Y-47461133D01*
X10928228Y-47461132D01*
X10928227Y-47461132D01*
X10869758Y-47449501D01*
X10869748Y-47449500D01*
X9130252Y-47449500D01*
X9130251Y-47449500D01*
X9130241Y-47449501D01*
X9071772Y-47461132D01*
X9071766Y-47461134D01*
X9005451Y-47505445D01*
X9005445Y-47505451D01*
X8961134Y-47571766D01*
X8961132Y-47571772D01*
X8949501Y-47630241D01*
X8949500Y-47630253D01*
X4537402Y-47630253D01*
X4530108Y-47620213D01*
X4530106Y-47620211D01*
X4530104Y-47620208D01*
X4379792Y-47469896D01*
X4379788Y-47469893D01*
X4379786Y-47469891D01*
X4207819Y-47344950D01*
X4207815Y-47344948D01*
X4018412Y-47248443D01*
X3816238Y-47182752D01*
X3606290Y-47149500D01*
X3606287Y-47149500D01*
X3393713Y-47149500D01*
X3393710Y-47149500D01*
X3183761Y-47182752D01*
X2981587Y-47248443D01*
X2792184Y-47344948D01*
X2792180Y-47344950D01*
X2620213Y-47469891D01*
X2469891Y-47620213D01*
X2344950Y-47792180D01*
X2344948Y-47792184D01*
X2248443Y-47981587D01*
X2182752Y-48183761D01*
X2149500Y-48393709D01*
X1200000Y-48393709D01*
X1200000Y-8099000D01*
X1218907Y-8040809D01*
X1268407Y-8004845D01*
X1299000Y-8000000D01*
X73701000Y-8000000D01*
X73759191Y-8018907D01*
G37*
%TD.AperFunction*%
%TD*%
M02*
