%TF.GenerationSoftware,KiCad,Pcbnew,8.0.9-8.0.9-0~ubuntu24.04.1*%
%TF.CreationDate,2026-07-18T20:59:54+00:00*%
%TF.ProjectId,smart-glove,736d6172-742d-4676-9c6f-76652e6b6963,rev?*%
%TF.SameCoordinates,Original*%
%TF.FileFunction,Legend,Top*%
%TF.FilePolarity,Positive*%
%FSLAX46Y46*%
G04 Gerber Fmt 4.6, Leading zero omitted, Abs format (unit mm)*
G04 Created by KiCad (PCBNEW 8.0.9-8.0.9-0~ubuntu24.04.1) date 2026-07-18 20:59:54*
%MOMM*%
%LPD*%
G01*
G04 APERTURE LIST*
%ADD10C,0.150000*%
%ADD11C,0.120000*%
G04 APERTURE END LIST*
D10*
X57547619Y-9142570D02*
X57952381Y-9142570D01*
X57466667Y-9385427D02*
X57750000Y-8535427D01*
X57750000Y-8535427D02*
X58033334Y-9385427D01*
X58316666Y-9385427D02*
X58316666Y-8535427D01*
X58316666Y-8535427D02*
X58802381Y-9385427D01*
X58802381Y-9385427D02*
X58802381Y-8535427D01*
X59085714Y-8535427D02*
X59571428Y-8535427D01*
X59328571Y-9385427D02*
X59328571Y-8535427D01*
X60502380Y-9385427D02*
X60502380Y-8535427D01*
X60988095Y-9385427D02*
X60623809Y-8899712D01*
X60988095Y-8535427D02*
X60502380Y-9021141D01*
X61352380Y-8940189D02*
X61635714Y-8940189D01*
X61757142Y-9385427D02*
X61352380Y-9385427D01*
X61352380Y-9385427D02*
X61352380Y-8535427D01*
X61352380Y-8535427D02*
X61757142Y-8535427D01*
X62121428Y-8940189D02*
X62404762Y-8940189D01*
X62526190Y-9385427D02*
X62121428Y-9385427D01*
X62121428Y-9385427D02*
X62121428Y-8535427D01*
X62121428Y-8535427D02*
X62526190Y-8535427D01*
X62890476Y-9385427D02*
X62890476Y-8535427D01*
X62890476Y-8535427D02*
X63214286Y-8535427D01*
X63214286Y-8535427D02*
X63295238Y-8575903D01*
X63295238Y-8575903D02*
X63335715Y-8616379D01*
X63335715Y-8616379D02*
X63376191Y-8697331D01*
X63376191Y-8697331D02*
X63376191Y-8818760D01*
X63376191Y-8818760D02*
X63335715Y-8899712D01*
X63335715Y-8899712D02*
X63295238Y-8940189D01*
X63295238Y-8940189D02*
X63214286Y-8980665D01*
X63214286Y-8980665D02*
X62890476Y-8980665D01*
X64550000Y-8535427D02*
X64711905Y-8535427D01*
X64711905Y-8535427D02*
X64792857Y-8575903D01*
X64792857Y-8575903D02*
X64873810Y-8656855D01*
X64873810Y-8656855D02*
X64914286Y-8818760D01*
X64914286Y-8818760D02*
X64914286Y-9102093D01*
X64914286Y-9102093D02*
X64873810Y-9263998D01*
X64873810Y-9263998D02*
X64792857Y-9344951D01*
X64792857Y-9344951D02*
X64711905Y-9385427D01*
X64711905Y-9385427D02*
X64550000Y-9385427D01*
X64550000Y-9385427D02*
X64469048Y-9344951D01*
X64469048Y-9344951D02*
X64388095Y-9263998D01*
X64388095Y-9263998D02*
X64347619Y-9102093D01*
X64347619Y-9102093D02*
X64347619Y-8818760D01*
X64347619Y-8818760D02*
X64388095Y-8656855D01*
X64388095Y-8656855D02*
X64469048Y-8575903D01*
X64469048Y-8575903D02*
X64550000Y-8535427D01*
X65278571Y-8535427D02*
X65278571Y-9223522D01*
X65278571Y-9223522D02*
X65319048Y-9304474D01*
X65319048Y-9304474D02*
X65359524Y-9344951D01*
X65359524Y-9344951D02*
X65440476Y-9385427D01*
X65440476Y-9385427D02*
X65602381Y-9385427D01*
X65602381Y-9385427D02*
X65683333Y-9344951D01*
X65683333Y-9344951D02*
X65723810Y-9304474D01*
X65723810Y-9304474D02*
X65764286Y-9223522D01*
X65764286Y-9223522D02*
X65764286Y-8535427D01*
X66047619Y-8535427D02*
X66533333Y-8535427D01*
X66290476Y-9385427D02*
X66290476Y-8535427D01*
X1880950Y-8502438D02*
X1785712Y-8454819D01*
X1785712Y-8454819D02*
X1642855Y-8454819D01*
X1642855Y-8454819D02*
X1499998Y-8502438D01*
X1499998Y-8502438D02*
X1404760Y-8597676D01*
X1404760Y-8597676D02*
X1357141Y-8692914D01*
X1357141Y-8692914D02*
X1309522Y-8883390D01*
X1309522Y-8883390D02*
X1309522Y-9026247D01*
X1309522Y-9026247D02*
X1357141Y-9216723D01*
X1357141Y-9216723D02*
X1404760Y-9311961D01*
X1404760Y-9311961D02*
X1499998Y-9407200D01*
X1499998Y-9407200D02*
X1642855Y-9454819D01*
X1642855Y-9454819D02*
X1738093Y-9454819D01*
X1738093Y-9454819D02*
X1880950Y-9407200D01*
X1880950Y-9407200D02*
X1928569Y-9359580D01*
X1928569Y-9359580D02*
X1928569Y-9026247D01*
X1928569Y-9026247D02*
X1738093Y-9026247D01*
X2738093Y-9407200D02*
X2642855Y-9454819D01*
X2642855Y-9454819D02*
X2452379Y-9454819D01*
X2452379Y-9454819D02*
X2357141Y-9407200D01*
X2357141Y-9407200D02*
X2309522Y-9311961D01*
X2309522Y-9311961D02*
X2309522Y-8931009D01*
X2309522Y-8931009D02*
X2357141Y-8835771D01*
X2357141Y-8835771D02*
X2452379Y-8788152D01*
X2452379Y-8788152D02*
X2642855Y-8788152D01*
X2642855Y-8788152D02*
X2738093Y-8835771D01*
X2738093Y-8835771D02*
X2785712Y-8931009D01*
X2785712Y-8931009D02*
X2785712Y-9026247D01*
X2785712Y-9026247D02*
X2309522Y-9121485D01*
X3071427Y-8788152D02*
X3452379Y-8788152D01*
X3214284Y-8454819D02*
X3214284Y-9311961D01*
X3214284Y-9311961D02*
X3261903Y-9407200D01*
X3261903Y-9407200D02*
X3357141Y-9454819D01*
X3357141Y-9454819D02*
X3452379Y-9454819D01*
X4119046Y-8931009D02*
X3785713Y-8931009D01*
X3785713Y-9454819D02*
X3785713Y-8454819D01*
X3785713Y-8454819D02*
X4261903Y-8454819D01*
X4785713Y-9454819D02*
X4690475Y-9407200D01*
X4690475Y-9407200D02*
X4642856Y-9311961D01*
X4642856Y-9311961D02*
X4642856Y-8454819D01*
X5071428Y-8788152D02*
X5309523Y-9454819D01*
X5547618Y-8788152D02*
X5309523Y-9454819D01*
X5309523Y-9454819D02*
X5214285Y-9692914D01*
X5214285Y-9692914D02*
X5166666Y-9740533D01*
X5166666Y-9740533D02*
X5071428Y-9788152D01*
X6642857Y-9407200D02*
X6785714Y-9454819D01*
X6785714Y-9454819D02*
X7023809Y-9454819D01*
X7023809Y-9454819D02*
X7119047Y-9407200D01*
X7119047Y-9407200D02*
X7166666Y-9359580D01*
X7166666Y-9359580D02*
X7214285Y-9264342D01*
X7214285Y-9264342D02*
X7214285Y-9169104D01*
X7214285Y-9169104D02*
X7166666Y-9073866D01*
X7166666Y-9073866D02*
X7119047Y-9026247D01*
X7119047Y-9026247D02*
X7023809Y-8978628D01*
X7023809Y-8978628D02*
X6833333Y-8931009D01*
X6833333Y-8931009D02*
X6738095Y-8883390D01*
X6738095Y-8883390D02*
X6690476Y-8835771D01*
X6690476Y-8835771D02*
X6642857Y-8740533D01*
X6642857Y-8740533D02*
X6642857Y-8645295D01*
X6642857Y-8645295D02*
X6690476Y-8550057D01*
X6690476Y-8550057D02*
X6738095Y-8502438D01*
X6738095Y-8502438D02*
X6833333Y-8454819D01*
X6833333Y-8454819D02*
X7071428Y-8454819D01*
X7071428Y-8454819D02*
X7214285Y-8502438D01*
X7642857Y-9454819D02*
X7642857Y-8788152D01*
X7642857Y-8883390D02*
X7690476Y-8835771D01*
X7690476Y-8835771D02*
X7785714Y-8788152D01*
X7785714Y-8788152D02*
X7928571Y-8788152D01*
X7928571Y-8788152D02*
X8023809Y-8835771D01*
X8023809Y-8835771D02*
X8071428Y-8931009D01*
X8071428Y-8931009D02*
X8071428Y-9454819D01*
X8071428Y-8931009D02*
X8119047Y-8835771D01*
X8119047Y-8835771D02*
X8214285Y-8788152D01*
X8214285Y-8788152D02*
X8357142Y-8788152D01*
X8357142Y-8788152D02*
X8452381Y-8835771D01*
X8452381Y-8835771D02*
X8500000Y-8931009D01*
X8500000Y-8931009D02*
X8500000Y-9454819D01*
X9404761Y-9454819D02*
X9404761Y-8931009D01*
X9404761Y-8931009D02*
X9357142Y-8835771D01*
X9357142Y-8835771D02*
X9261904Y-8788152D01*
X9261904Y-8788152D02*
X9071428Y-8788152D01*
X9071428Y-8788152D02*
X8976190Y-8835771D01*
X9404761Y-9407200D02*
X9309523Y-9454819D01*
X9309523Y-9454819D02*
X9071428Y-9454819D01*
X9071428Y-9454819D02*
X8976190Y-9407200D01*
X8976190Y-9407200D02*
X8928571Y-9311961D01*
X8928571Y-9311961D02*
X8928571Y-9216723D01*
X8928571Y-9216723D02*
X8976190Y-9121485D01*
X8976190Y-9121485D02*
X9071428Y-9073866D01*
X9071428Y-9073866D02*
X9309523Y-9073866D01*
X9309523Y-9073866D02*
X9404761Y-9026247D01*
X9880952Y-9454819D02*
X9880952Y-8788152D01*
X9880952Y-8978628D02*
X9928571Y-8883390D01*
X9928571Y-8883390D02*
X9976190Y-8835771D01*
X9976190Y-8835771D02*
X10071428Y-8788152D01*
X10071428Y-8788152D02*
X10166666Y-8788152D01*
X10357143Y-8788152D02*
X10738095Y-8788152D01*
X10500000Y-8454819D02*
X10500000Y-9311961D01*
X10500000Y-9311961D02*
X10547619Y-9407200D01*
X10547619Y-9407200D02*
X10642857Y-9454819D01*
X10642857Y-9454819D02*
X10738095Y-9454819D01*
X11595238Y-8502438D02*
X11500000Y-8454819D01*
X11500000Y-8454819D02*
X11357143Y-8454819D01*
X11357143Y-8454819D02*
X11214286Y-8502438D01*
X11214286Y-8502438D02*
X11119048Y-8597676D01*
X11119048Y-8597676D02*
X11071429Y-8692914D01*
X11071429Y-8692914D02*
X11023810Y-8883390D01*
X11023810Y-8883390D02*
X11023810Y-9026247D01*
X11023810Y-9026247D02*
X11071429Y-9216723D01*
X11071429Y-9216723D02*
X11119048Y-9311961D01*
X11119048Y-9311961D02*
X11214286Y-9407200D01*
X11214286Y-9407200D02*
X11357143Y-9454819D01*
X11357143Y-9454819D02*
X11452381Y-9454819D01*
X11452381Y-9454819D02*
X11595238Y-9407200D01*
X11595238Y-9407200D02*
X11642857Y-9359580D01*
X11642857Y-9359580D02*
X11642857Y-9026247D01*
X11642857Y-9026247D02*
X11452381Y-9026247D01*
X12214286Y-9454819D02*
X12119048Y-9407200D01*
X12119048Y-9407200D02*
X12071429Y-9311961D01*
X12071429Y-9311961D02*
X12071429Y-8454819D01*
X12738096Y-9454819D02*
X12642858Y-9407200D01*
X12642858Y-9407200D02*
X12595239Y-9359580D01*
X12595239Y-9359580D02*
X12547620Y-9264342D01*
X12547620Y-9264342D02*
X12547620Y-8978628D01*
X12547620Y-8978628D02*
X12595239Y-8883390D01*
X12595239Y-8883390D02*
X12642858Y-8835771D01*
X12642858Y-8835771D02*
X12738096Y-8788152D01*
X12738096Y-8788152D02*
X12880953Y-8788152D01*
X12880953Y-8788152D02*
X12976191Y-8835771D01*
X12976191Y-8835771D02*
X13023810Y-8883390D01*
X13023810Y-8883390D02*
X13071429Y-8978628D01*
X13071429Y-8978628D02*
X13071429Y-9264342D01*
X13071429Y-9264342D02*
X13023810Y-9359580D01*
X13023810Y-9359580D02*
X12976191Y-9407200D01*
X12976191Y-9407200D02*
X12880953Y-9454819D01*
X12880953Y-9454819D02*
X12738096Y-9454819D01*
X13404763Y-8788152D02*
X13642858Y-9454819D01*
X13642858Y-9454819D02*
X13880953Y-8788152D01*
X14642858Y-9407200D02*
X14547620Y-9454819D01*
X14547620Y-9454819D02*
X14357144Y-9454819D01*
X14357144Y-9454819D02*
X14261906Y-9407200D01*
X14261906Y-9407200D02*
X14214287Y-9311961D01*
X14214287Y-9311961D02*
X14214287Y-8931009D01*
X14214287Y-8931009D02*
X14261906Y-8835771D01*
X14261906Y-8835771D02*
X14357144Y-8788152D01*
X14357144Y-8788152D02*
X14547620Y-8788152D01*
X14547620Y-8788152D02*
X14642858Y-8835771D01*
X14642858Y-8835771D02*
X14690477Y-8931009D01*
X14690477Y-8931009D02*
X14690477Y-9026247D01*
X14690477Y-9026247D02*
X14214287Y-9121485D01*
X4660714Y-11385427D02*
X4660714Y-10535427D01*
X4660714Y-10535427D02*
X4944048Y-11142570D01*
X4944048Y-11142570D02*
X5227381Y-10535427D01*
X5227381Y-10535427D02*
X5227381Y-11385427D01*
X6117858Y-11304474D02*
X6077382Y-11344951D01*
X6077382Y-11344951D02*
X5955953Y-11385427D01*
X5955953Y-11385427D02*
X5875001Y-11385427D01*
X5875001Y-11385427D02*
X5753572Y-11344951D01*
X5753572Y-11344951D02*
X5672620Y-11263998D01*
X5672620Y-11263998D02*
X5632143Y-11183046D01*
X5632143Y-11183046D02*
X5591667Y-11021141D01*
X5591667Y-11021141D02*
X5591667Y-10899712D01*
X5591667Y-10899712D02*
X5632143Y-10737808D01*
X5632143Y-10737808D02*
X5672620Y-10656855D01*
X5672620Y-10656855D02*
X5753572Y-10575903D01*
X5753572Y-10575903D02*
X5875001Y-10535427D01*
X5875001Y-10535427D02*
X5955953Y-10535427D01*
X5955953Y-10535427D02*
X6077382Y-10575903D01*
X6077382Y-10575903D02*
X6117858Y-10616379D01*
X6482143Y-10535427D02*
X6482143Y-11223522D01*
X6482143Y-11223522D02*
X6522620Y-11304474D01*
X6522620Y-11304474D02*
X6563096Y-11344951D01*
X6563096Y-11344951D02*
X6644048Y-11385427D01*
X6644048Y-11385427D02*
X6805953Y-11385427D01*
X6805953Y-11385427D02*
X6886905Y-11344951D01*
X6886905Y-11344951D02*
X6927382Y-11304474D01*
X6927382Y-11304474D02*
X6967858Y-11223522D01*
X6967858Y-11223522D02*
X6967858Y-10535427D01*
X8505953Y-11385427D02*
X8222619Y-10980665D01*
X8020238Y-11385427D02*
X8020238Y-10535427D01*
X8020238Y-10535427D02*
X8344048Y-10535427D01*
X8344048Y-10535427D02*
X8425000Y-10575903D01*
X8425000Y-10575903D02*
X8465477Y-10616379D01*
X8465477Y-10616379D02*
X8505953Y-10697331D01*
X8505953Y-10697331D02*
X8505953Y-10818760D01*
X8505953Y-10818760D02*
X8465477Y-10899712D01*
X8465477Y-10899712D02*
X8425000Y-10940189D01*
X8425000Y-10940189D02*
X8344048Y-10980665D01*
X8344048Y-10980665D02*
X8020238Y-10980665D01*
X9194048Y-11344951D02*
X9113096Y-11385427D01*
X9113096Y-11385427D02*
X8951191Y-11385427D01*
X8951191Y-11385427D02*
X8870238Y-11344951D01*
X8870238Y-11344951D02*
X8829762Y-11263998D01*
X8829762Y-11263998D02*
X8829762Y-10940189D01*
X8829762Y-10940189D02*
X8870238Y-10859236D01*
X8870238Y-10859236D02*
X8951191Y-10818760D01*
X8951191Y-10818760D02*
X9113096Y-10818760D01*
X9113096Y-10818760D02*
X9194048Y-10859236D01*
X9194048Y-10859236D02*
X9234524Y-10940189D01*
X9234524Y-10940189D02*
X9234524Y-11021141D01*
X9234524Y-11021141D02*
X8829762Y-11102093D01*
X9517857Y-10818760D02*
X9720238Y-11385427D01*
X9720238Y-11385427D02*
X9922619Y-10818760D01*
X10894047Y-11385427D02*
X10894047Y-10535427D01*
X10894047Y-10535427D02*
X11096428Y-10535427D01*
X11096428Y-10535427D02*
X11217857Y-10575903D01*
X11217857Y-10575903D02*
X11298809Y-10656855D01*
X11298809Y-10656855D02*
X11339286Y-10737808D01*
X11339286Y-10737808D02*
X11379762Y-10899712D01*
X11379762Y-10899712D02*
X11379762Y-11021141D01*
X11379762Y-11021141D02*
X11339286Y-11183046D01*
X11339286Y-11183046D02*
X11298809Y-11263998D01*
X11298809Y-11263998D02*
X11217857Y-11344951D01*
X11217857Y-11344951D02*
X11096428Y-11385427D01*
X11096428Y-11385427D02*
X10894047Y-11385427D01*
D11*
%TO.C,C7*%
X69859420Y-33490000D02*
X70140580Y-33490000D01*
X69859420Y-34510000D02*
X70140580Y-34510000D01*
%TO.C,R1*%
X15762742Y-15477500D02*
X16237258Y-15477500D01*
X15762742Y-16522500D02*
X16237258Y-16522500D01*
%TO.C,J1*%
X43300000Y-64100000D02*
X43300000Y-66100000D01*
X43300000Y-68000000D02*
X43300000Y-69900000D01*
X43300000Y-69900000D02*
X52700000Y-69900000D01*
X52700000Y-64100000D02*
X52700000Y-66100000D01*
X52700000Y-68000000D02*
X52700000Y-69900000D01*
%TO.C,C9*%
X69859420Y-55490000D02*
X70140580Y-55490000D01*
X69859420Y-56510000D02*
X70140580Y-56510000D01*
%TO.C,R8*%
X65762742Y-13477500D02*
X66237258Y-13477500D01*
X65762742Y-14522500D02*
X66237258Y-14522500D01*
%TO.C,D1*%
X16515000Y-51765000D02*
X16515000Y-53235000D01*
X16515000Y-53235000D02*
X18800000Y-53235000D01*
X18800000Y-51765000D02*
X16515000Y-51765000D01*
%TO.C,R2*%
X15762742Y-19477500D02*
X16237258Y-19477500D01*
X15762742Y-20522500D02*
X16237258Y-20522500D01*
%TO.C,R4*%
X15762742Y-27477500D02*
X16237258Y-27477500D01*
X15762742Y-28522500D02*
X16237258Y-28522500D01*
%TO.C,R9*%
X17762742Y-57477500D02*
X18237258Y-57477500D01*
X17762742Y-58522500D02*
X18237258Y-58522500D01*
%TO.C,C5*%
X69738748Y-23265000D02*
X70261252Y-23265000D01*
X69738748Y-24735000D02*
X70261252Y-24735000D01*
%TO.C,SW1*%
X28350000Y-56600000D02*
X31650000Y-56600000D01*
X28350000Y-56900000D02*
X28350000Y-56600000D01*
X28350000Y-59100000D02*
X28350000Y-59400000D01*
X28350000Y-59400000D02*
X31650000Y-59400000D01*
X31650000Y-56600000D02*
X31650000Y-56900000D01*
X31650000Y-59400000D02*
X31650000Y-59100000D01*
%TO.C,D3*%
X22515000Y-51765000D02*
X22515000Y-53235000D01*
X22515000Y-53235000D02*
X24800000Y-53235000D01*
X24800000Y-51765000D02*
X22515000Y-51765000D01*
%TO.C,J3*%
X75890000Y-65110000D02*
X75890000Y-66360000D01*
X75890000Y-66360000D02*
X77140000Y-66360000D01*
X75990000Y-64300000D02*
X75990000Y-64600000D01*
X75990000Y-64600000D02*
X76190000Y-64600000D01*
X76090000Y-64300000D02*
X76090000Y-64600000D01*
X76190000Y-59940000D02*
X76190000Y-66060000D01*
X76190000Y-63500000D02*
X76800000Y-63500000D01*
X76190000Y-64300000D02*
X75990000Y-64300000D01*
X76190000Y-66060000D02*
X80910000Y-66060000D01*
X76800000Y-60550000D02*
X76800000Y-62500000D01*
X76800000Y-62500000D02*
X76190000Y-62500000D01*
X76800000Y-63500000D02*
X76800000Y-65450000D01*
X76800000Y-65450000D02*
X80300000Y-65450000D01*
X77500000Y-59940000D02*
X77500000Y-60550000D01*
X77500000Y-66060000D02*
X77500000Y-65450000D01*
X78800000Y-59940000D02*
X78800000Y-60550000D01*
X78800000Y-66060000D02*
X78800000Y-65450000D01*
X79800000Y-62900000D02*
X80300000Y-62900000D01*
X79800000Y-63100000D02*
X79800000Y-62900000D01*
X80300000Y-60550000D02*
X76800000Y-60550000D01*
X80300000Y-63000000D02*
X79800000Y-63000000D01*
X80300000Y-63100000D02*
X79800000Y-63100000D01*
X80300000Y-65450000D02*
X80300000Y-60550000D01*
X80910000Y-59940000D02*
X76190000Y-59940000D01*
X80910000Y-66060000D02*
X80910000Y-59940000D01*
%TO.C,SW2*%
X34350000Y-56600000D02*
X37650000Y-56600000D01*
X34350000Y-56900000D02*
X34350000Y-56600000D01*
X34350000Y-59100000D02*
X34350000Y-59400000D01*
X34350000Y-59400000D02*
X37650000Y-59400000D01*
X37650000Y-56600000D02*
X37650000Y-56900000D01*
X37650000Y-59400000D02*
X37650000Y-59100000D01*
%TO.C,R6*%
X33762742Y-53477500D02*
X34237258Y-53477500D01*
X33762742Y-54522500D02*
X34237258Y-54522500D01*
%TO.C,U4*%
X77850000Y-54315000D02*
X77850000Y-54090000D01*
X77850000Y-58150000D02*
X77850000Y-57625000D01*
X77850000Y-58150000D02*
X78375000Y-58150000D01*
X78375000Y-53850000D02*
X78150000Y-53850000D01*
X82150000Y-53850000D02*
X81625000Y-53850000D01*
X82150000Y-53850000D02*
X82150000Y-54375000D01*
X82150000Y-58150000D02*
X81625000Y-58150000D01*
X82150000Y-58150000D02*
X82150000Y-57625000D01*
X77850000Y-53850000D02*
X77610000Y-53520000D01*
X78090000Y-53520000D01*
X77850000Y-53850000D01*
G36*
X77850000Y-53850000D02*
G01*
X77610000Y-53520000D01*
X78090000Y-53520000D01*
X77850000Y-53850000D01*
G37*
%TO.C,U3*%
X76590000Y-28150000D02*
X76590000Y-31910000D01*
X76590000Y-31910000D02*
X77850000Y-31910000D01*
X83410000Y-28150000D02*
X83410000Y-31910000D01*
X83410000Y-31910000D02*
X82150000Y-31910000D01*
X83640000Y-27110000D02*
X83310000Y-26870000D01*
X83640000Y-26630000D01*
X83640000Y-27110000D01*
G36*
X83640000Y-27110000D02*
G01*
X83310000Y-26870000D01*
X83640000Y-26630000D01*
X83640000Y-27110000D01*
G37*
%TO.C,D2*%
X70515000Y-13265000D02*
X70515000Y-14735000D01*
X70515000Y-14735000D02*
X72800000Y-14735000D01*
X72800000Y-13265000D02*
X70515000Y-13265000D01*
%TO.C,R3*%
X15762742Y-23477500D02*
X16237258Y-23477500D01*
X15762742Y-24522500D02*
X16237258Y-24522500D01*
%TO.C,C1*%
X51859420Y-53490000D02*
X52140580Y-53490000D01*
X51859420Y-54510000D02*
X52140580Y-54510000D01*
%TO.C,R10*%
X23762742Y-57477500D02*
X24237258Y-57477500D01*
X23762742Y-58522500D02*
X24237258Y-58522500D01*
%TO.C,U2*%
X80000000Y-15440000D02*
X78050000Y-15440000D01*
X80000000Y-15440000D02*
X81950000Y-15440000D01*
X80000000Y-20560000D02*
X78050000Y-20560000D01*
X80000000Y-20560000D02*
X81950000Y-20560000D01*
X77300000Y-15535000D02*
X77060000Y-15205000D01*
X77540000Y-15205000D01*
X77300000Y-15535000D01*
G36*
X77300000Y-15535000D02*
G01*
X77060000Y-15205000D01*
X77540000Y-15205000D01*
X77300000Y-15535000D01*
G37*
%TO.C,J2*%
X6670000Y-54670000D02*
X8000000Y-54670000D01*
X6670000Y-56000000D02*
X6670000Y-54670000D01*
X6670000Y-57270000D02*
X6670000Y-70030000D01*
X6670000Y-57270000D02*
X9330000Y-57270000D01*
X6670000Y-70030000D02*
X9330000Y-70030000D01*
X9330000Y-57270000D02*
X9330000Y-70030000D01*
%TO.C,C10*%
X69738748Y-49265000D02*
X70261252Y-49265000D01*
X69738748Y-50735000D02*
X70261252Y-50735000D01*
%TO.C,R7*%
X61762742Y-53477500D02*
X62237258Y-53477500D01*
X61762742Y-54522500D02*
X62237258Y-54522500D01*
%TO.C,C6*%
X69738748Y-29265000D02*
X70261252Y-29265000D01*
X69738748Y-30735000D02*
X70261252Y-30735000D01*
%TO.C,C2*%
X55859420Y-53490000D02*
X56140580Y-53490000D01*
X55859420Y-54510000D02*
X56140580Y-54510000D01*
%TO.C,R5*%
X17762742Y-53477500D02*
X18237258Y-53477500D01*
X17762742Y-54522500D02*
X18237258Y-54522500D01*
%TO.C,U1*%
X38880000Y-8140000D02*
X38880000Y-14300000D01*
X38880000Y-8140000D02*
X57120000Y-8140000D01*
X38880000Y-33100000D02*
X38880000Y-33880000D01*
X38880000Y-33880000D02*
X39880000Y-33880000D01*
X57120000Y-8140000D02*
X57120000Y-14555000D01*
X57120000Y-33100000D02*
X57120000Y-33880000D01*
X57120000Y-33880000D02*
X56120000Y-33880000D01*
X38875000Y-15025000D02*
X38375000Y-15025000D01*
X38875000Y-14525000D01*
X38875000Y-15025000D01*
G36*
X38875000Y-15025000D02*
G01*
X38375000Y-15025000D01*
X38875000Y-14525000D01*
X38875000Y-15025000D01*
G37*
%TD*%
M02*
