%TF.GenerationSoftware,KiCad,Pcbnew,8.0.9-8.0.9-0~ubuntu24.04.1*%
%TF.CreationDate,2026-07-18T22:49:06+00:00*%
%TF.ProjectId,smart-glove,736d6172-742d-4676-9c6f-76652e6b6963,rev?*%
%TF.SameCoordinates,Original*%
%TF.FileFunction,Legend,Top*%
%TF.FilePolarity,Positive*%
%FSLAX46Y46*%
G04 Gerber Fmt 4.6, Leading zero omitted, Abs format (unit mm)*
G04 Created by KiCad (PCBNEW 8.0.9-8.0.9-0~ubuntu24.04.1) date 2026-07-18 22:49:06*
%MOMM*%
%LPD*%
G01*
G04 APERTURE LIST*
%ADD10C,0.150000*%
%ADD11C,0.120000*%
G04 APERTURE END LIST*
D10*
X22963095Y-43142902D02*
X22963095Y-43669092D01*
X22963095Y-43669092D02*
X22994048Y-43730997D01*
X22994048Y-43730997D02*
X23025000Y-43761950D01*
X23025000Y-43761950D02*
X23086905Y-43792902D01*
X23086905Y-43792902D02*
X23210714Y-43792902D01*
X23210714Y-43792902D02*
X23272619Y-43761950D01*
X23272619Y-43761950D02*
X23303572Y-43730997D01*
X23303572Y-43730997D02*
X23334524Y-43669092D01*
X23334524Y-43669092D02*
X23334524Y-43142902D01*
X23613095Y-43607188D02*
X23922619Y-43607188D01*
X23551190Y-43792902D02*
X23767857Y-43142902D01*
X23767857Y-43142902D02*
X23984524Y-43792902D01*
X24572619Y-43792902D02*
X24355952Y-43483378D01*
X24201190Y-43792902D02*
X24201190Y-43142902D01*
X24201190Y-43142902D02*
X24448809Y-43142902D01*
X24448809Y-43142902D02*
X24510714Y-43173854D01*
X24510714Y-43173854D02*
X24541667Y-43204807D01*
X24541667Y-43204807D02*
X24572619Y-43266711D01*
X24572619Y-43266711D02*
X24572619Y-43359569D01*
X24572619Y-43359569D02*
X24541667Y-43421473D01*
X24541667Y-43421473D02*
X24510714Y-43452426D01*
X24510714Y-43452426D02*
X24448809Y-43483378D01*
X24448809Y-43483378D02*
X24201190Y-43483378D01*
X24758333Y-43142902D02*
X25129762Y-43142902D01*
X24944048Y-43792902D02*
X24944048Y-43142902D01*
X4050002Y-4716033D02*
X4050002Y-4016033D01*
X4050002Y-4016033D02*
X4283336Y-4516033D01*
X4283336Y-4516033D02*
X4516669Y-4016033D01*
X4516669Y-4016033D02*
X4516669Y-4716033D01*
X5150002Y-4716033D02*
X5150002Y-4349366D01*
X5150002Y-4349366D02*
X5116669Y-4282700D01*
X5116669Y-4282700D02*
X5050002Y-4249366D01*
X5050002Y-4249366D02*
X4916669Y-4249366D01*
X4916669Y-4249366D02*
X4850002Y-4282700D01*
X5150002Y-4682700D02*
X5083336Y-4716033D01*
X5083336Y-4716033D02*
X4916669Y-4716033D01*
X4916669Y-4716033D02*
X4850002Y-4682700D01*
X4850002Y-4682700D02*
X4816669Y-4616033D01*
X4816669Y-4616033D02*
X4816669Y-4549366D01*
X4816669Y-4549366D02*
X4850002Y-4482700D01*
X4850002Y-4482700D02*
X4916669Y-4449366D01*
X4916669Y-4449366D02*
X5083336Y-4449366D01*
X5083336Y-4449366D02*
X5150002Y-4416033D01*
X5483335Y-4249366D02*
X5483335Y-4716033D01*
X5483335Y-4316033D02*
X5516669Y-4282700D01*
X5516669Y-4282700D02*
X5583335Y-4249366D01*
X5583335Y-4249366D02*
X5683335Y-4249366D01*
X5683335Y-4249366D02*
X5750002Y-4282700D01*
X5750002Y-4282700D02*
X5783335Y-4349366D01*
X5783335Y-4349366D02*
X5783335Y-4716033D01*
X6583335Y-4016033D02*
X6750001Y-4716033D01*
X6750001Y-4716033D02*
X6883335Y-4216033D01*
X6883335Y-4216033D02*
X7016668Y-4716033D01*
X7016668Y-4716033D02*
X7183335Y-4016033D01*
X7450001Y-4716033D02*
X7450001Y-4016033D01*
X7750001Y-4716033D02*
X7750001Y-4349366D01*
X7750001Y-4349366D02*
X7716668Y-4282700D01*
X7716668Y-4282700D02*
X7650001Y-4249366D01*
X7650001Y-4249366D02*
X7550001Y-4249366D01*
X7550001Y-4249366D02*
X7483335Y-4282700D01*
X7483335Y-4282700D02*
X7450001Y-4316033D01*
X8183334Y-4716033D02*
X8116668Y-4682700D01*
X8116668Y-4682700D02*
X8083334Y-4649366D01*
X8083334Y-4649366D02*
X8050001Y-4582700D01*
X8050001Y-4582700D02*
X8050001Y-4382700D01*
X8050001Y-4382700D02*
X8083334Y-4316033D01*
X8083334Y-4316033D02*
X8116668Y-4282700D01*
X8116668Y-4282700D02*
X8183334Y-4249366D01*
X8183334Y-4249366D02*
X8283334Y-4249366D01*
X8283334Y-4249366D02*
X8350001Y-4282700D01*
X8350001Y-4282700D02*
X8383334Y-4316033D01*
X8383334Y-4316033D02*
X8416668Y-4382700D01*
X8416668Y-4382700D02*
X8416668Y-4582700D01*
X8416668Y-4582700D02*
X8383334Y-4649366D01*
X8383334Y-4649366D02*
X8350001Y-4682700D01*
X8350001Y-4682700D02*
X8283334Y-4716033D01*
X8283334Y-4716033D02*
X8183334Y-4716033D01*
X9250000Y-4349366D02*
X9483334Y-4349366D01*
X9583334Y-4716033D02*
X9250000Y-4716033D01*
X9250000Y-4716033D02*
X9250000Y-4016033D01*
X9250000Y-4016033D02*
X9583334Y-4016033D01*
X9883333Y-4716033D02*
X9883333Y-4249366D01*
X9883333Y-4316033D02*
X9916667Y-4282700D01*
X9916667Y-4282700D02*
X9983333Y-4249366D01*
X9983333Y-4249366D02*
X10083333Y-4249366D01*
X10083333Y-4249366D02*
X10150000Y-4282700D01*
X10150000Y-4282700D02*
X10183333Y-4349366D01*
X10183333Y-4349366D02*
X10183333Y-4716033D01*
X10183333Y-4349366D02*
X10216667Y-4282700D01*
X10216667Y-4282700D02*
X10283333Y-4249366D01*
X10283333Y-4249366D02*
X10383333Y-4249366D01*
X10383333Y-4249366D02*
X10450000Y-4282700D01*
X10450000Y-4282700D02*
X10483333Y-4349366D01*
X10483333Y-4349366D02*
X10483333Y-4716033D01*
X10816666Y-4716033D02*
X10816666Y-4016033D01*
X10816666Y-4282700D02*
X10883333Y-4249366D01*
X10883333Y-4249366D02*
X11016666Y-4249366D01*
X11016666Y-4249366D02*
X11083333Y-4282700D01*
X11083333Y-4282700D02*
X11116666Y-4316033D01*
X11116666Y-4316033D02*
X11150000Y-4382700D01*
X11150000Y-4382700D02*
X11150000Y-4582700D01*
X11150000Y-4582700D02*
X11116666Y-4649366D01*
X11116666Y-4649366D02*
X11083333Y-4682700D01*
X11083333Y-4682700D02*
X11016666Y-4716033D01*
X11016666Y-4716033D02*
X10883333Y-4716033D01*
X10883333Y-4716033D02*
X10816666Y-4682700D01*
X11716666Y-4682700D02*
X11649999Y-4716033D01*
X11649999Y-4716033D02*
X11516666Y-4716033D01*
X11516666Y-4716033D02*
X11449999Y-4682700D01*
X11449999Y-4682700D02*
X11416666Y-4616033D01*
X11416666Y-4616033D02*
X11416666Y-4349366D01*
X11416666Y-4349366D02*
X11449999Y-4282700D01*
X11449999Y-4282700D02*
X11516666Y-4249366D01*
X11516666Y-4249366D02*
X11649999Y-4249366D01*
X11649999Y-4249366D02*
X11716666Y-4282700D01*
X11716666Y-4282700D02*
X11749999Y-4349366D01*
X11749999Y-4349366D02*
X11749999Y-4416033D01*
X11749999Y-4416033D02*
X11416666Y-4482700D01*
X12349999Y-4716033D02*
X12349999Y-4016033D01*
X12349999Y-4682700D02*
X12283333Y-4716033D01*
X12283333Y-4716033D02*
X12149999Y-4716033D01*
X12149999Y-4716033D02*
X12083333Y-4682700D01*
X12083333Y-4682700D02*
X12049999Y-4649366D01*
X12049999Y-4649366D02*
X12016666Y-4582700D01*
X12016666Y-4582700D02*
X12016666Y-4382700D01*
X12016666Y-4382700D02*
X12049999Y-4316033D01*
X12049999Y-4316033D02*
X12083333Y-4282700D01*
X12083333Y-4282700D02*
X12149999Y-4249366D01*
X12149999Y-4249366D02*
X12283333Y-4249366D01*
X12283333Y-4249366D02*
X12349999Y-4282700D01*
X13616665Y-4716033D02*
X13383332Y-4382700D01*
X13216665Y-4716033D02*
X13216665Y-4016033D01*
X13216665Y-4016033D02*
X13483332Y-4016033D01*
X13483332Y-4016033D02*
X13549999Y-4049366D01*
X13549999Y-4049366D02*
X13583332Y-4082700D01*
X13583332Y-4082700D02*
X13616665Y-4149366D01*
X13616665Y-4149366D02*
X13616665Y-4249366D01*
X13616665Y-4249366D02*
X13583332Y-4316033D01*
X13583332Y-4316033D02*
X13549999Y-4349366D01*
X13549999Y-4349366D02*
X13483332Y-4382700D01*
X13483332Y-4382700D02*
X13216665Y-4382700D01*
X14183332Y-4682700D02*
X14116665Y-4716033D01*
X14116665Y-4716033D02*
X13983332Y-4716033D01*
X13983332Y-4716033D02*
X13916665Y-4682700D01*
X13916665Y-4682700D02*
X13883332Y-4616033D01*
X13883332Y-4616033D02*
X13883332Y-4349366D01*
X13883332Y-4349366D02*
X13916665Y-4282700D01*
X13916665Y-4282700D02*
X13983332Y-4249366D01*
X13983332Y-4249366D02*
X14116665Y-4249366D01*
X14116665Y-4249366D02*
X14183332Y-4282700D01*
X14183332Y-4282700D02*
X14216665Y-4349366D01*
X14216665Y-4349366D02*
X14216665Y-4416033D01*
X14216665Y-4416033D02*
X13883332Y-4482700D01*
X14449999Y-4249366D02*
X14616665Y-4716033D01*
X14616665Y-4716033D02*
X14783332Y-4249366D01*
X15949998Y-4049366D02*
X15883331Y-4016033D01*
X15883331Y-4016033D02*
X15783331Y-4016033D01*
X15783331Y-4016033D02*
X15683331Y-4049366D01*
X15683331Y-4049366D02*
X15616665Y-4116033D01*
X15616665Y-4116033D02*
X15583331Y-4182700D01*
X15583331Y-4182700D02*
X15549998Y-4316033D01*
X15549998Y-4316033D02*
X15549998Y-4416033D01*
X15549998Y-4416033D02*
X15583331Y-4549366D01*
X15583331Y-4549366D02*
X15616665Y-4616033D01*
X15616665Y-4616033D02*
X15683331Y-4682700D01*
X15683331Y-4682700D02*
X15783331Y-4716033D01*
X15783331Y-4716033D02*
X15849998Y-4716033D01*
X15849998Y-4716033D02*
X15949998Y-4682700D01*
X15949998Y-4682700D02*
X15983331Y-4649366D01*
X15983331Y-4649366D02*
X15983331Y-4416033D01*
X15983331Y-4416033D02*
X15849998Y-4416033D01*
X45200000Y-2916033D02*
X45533333Y-2916033D01*
X45133333Y-3116033D02*
X45366667Y-2416033D01*
X45366667Y-2416033D02*
X45600000Y-3116033D01*
X45833333Y-3116033D02*
X45833333Y-2416033D01*
X45833333Y-2416033D02*
X46233333Y-3116033D01*
X46233333Y-3116033D02*
X46233333Y-2416033D01*
X46466666Y-2416033D02*
X46866666Y-2416033D01*
X46666666Y-3116033D02*
X46666666Y-2416033D01*
X7085713Y-3124200D02*
X7199999Y-3162295D01*
X7199999Y-3162295D02*
X7390475Y-3162295D01*
X7390475Y-3162295D02*
X7466666Y-3124200D01*
X7466666Y-3124200D02*
X7504761Y-3086104D01*
X7504761Y-3086104D02*
X7542856Y-3009914D01*
X7542856Y-3009914D02*
X7542856Y-2933723D01*
X7542856Y-2933723D02*
X7504761Y-2857533D01*
X7504761Y-2857533D02*
X7466666Y-2819438D01*
X7466666Y-2819438D02*
X7390475Y-2781342D01*
X7390475Y-2781342D02*
X7238094Y-2743247D01*
X7238094Y-2743247D02*
X7161904Y-2705152D01*
X7161904Y-2705152D02*
X7123809Y-2667057D01*
X7123809Y-2667057D02*
X7085713Y-2590866D01*
X7085713Y-2590866D02*
X7085713Y-2514676D01*
X7085713Y-2514676D02*
X7123809Y-2438485D01*
X7123809Y-2438485D02*
X7161904Y-2400390D01*
X7161904Y-2400390D02*
X7238094Y-2362295D01*
X7238094Y-2362295D02*
X7428571Y-2362295D01*
X7428571Y-2362295D02*
X7542856Y-2400390D01*
X7885714Y-3162295D02*
X7885714Y-2628961D01*
X7885714Y-2362295D02*
X7847618Y-2400390D01*
X7847618Y-2400390D02*
X7885714Y-2438485D01*
X7885714Y-2438485D02*
X7923809Y-2400390D01*
X7923809Y-2400390D02*
X7885714Y-2362295D01*
X7885714Y-2362295D02*
X7885714Y-2438485D01*
X8609523Y-2628961D02*
X8609523Y-3276580D01*
X8609523Y-3276580D02*
X8571428Y-3352771D01*
X8571428Y-3352771D02*
X8533332Y-3390866D01*
X8533332Y-3390866D02*
X8457142Y-3428961D01*
X8457142Y-3428961D02*
X8342856Y-3428961D01*
X8342856Y-3428961D02*
X8266666Y-3390866D01*
X8609523Y-3124200D02*
X8533332Y-3162295D01*
X8533332Y-3162295D02*
X8380951Y-3162295D01*
X8380951Y-3162295D02*
X8304761Y-3124200D01*
X8304761Y-3124200D02*
X8266666Y-3086104D01*
X8266666Y-3086104D02*
X8228570Y-3009914D01*
X8228570Y-3009914D02*
X8228570Y-2781342D01*
X8228570Y-2781342D02*
X8266666Y-2705152D01*
X8266666Y-2705152D02*
X8304761Y-2667057D01*
X8304761Y-2667057D02*
X8380951Y-2628961D01*
X8380951Y-2628961D02*
X8533332Y-2628961D01*
X8533332Y-2628961D02*
X8609523Y-2667057D01*
X8990476Y-2628961D02*
X8990476Y-3162295D01*
X8990476Y-2705152D02*
X9028571Y-2667057D01*
X9028571Y-2667057D02*
X9104761Y-2628961D01*
X9104761Y-2628961D02*
X9219047Y-2628961D01*
X9219047Y-2628961D02*
X9295238Y-2667057D01*
X9295238Y-2667057D02*
X9333333Y-2743247D01*
X9333333Y-2743247D02*
X9333333Y-3162295D01*
X9676190Y-3124200D02*
X9790476Y-3162295D01*
X9790476Y-3162295D02*
X9980952Y-3162295D01*
X9980952Y-3162295D02*
X10057143Y-3124200D01*
X10057143Y-3124200D02*
X10095238Y-3086104D01*
X10095238Y-3086104D02*
X10133333Y-3009914D01*
X10133333Y-3009914D02*
X10133333Y-2933723D01*
X10133333Y-2933723D02*
X10095238Y-2857533D01*
X10095238Y-2857533D02*
X10057143Y-2819438D01*
X10057143Y-2819438D02*
X9980952Y-2781342D01*
X9980952Y-2781342D02*
X9828571Y-2743247D01*
X9828571Y-2743247D02*
X9752381Y-2705152D01*
X9752381Y-2705152D02*
X9714286Y-2667057D01*
X9714286Y-2667057D02*
X9676190Y-2590866D01*
X9676190Y-2590866D02*
X9676190Y-2514676D01*
X9676190Y-2514676D02*
X9714286Y-2438485D01*
X9714286Y-2438485D02*
X9752381Y-2400390D01*
X9752381Y-2400390D02*
X9828571Y-2362295D01*
X9828571Y-2362295D02*
X10019048Y-2362295D01*
X10019048Y-2362295D02*
X10133333Y-2400390D01*
X10476191Y-2628961D02*
X10476191Y-3428961D01*
X10476191Y-2667057D02*
X10552381Y-2628961D01*
X10552381Y-2628961D02*
X10704762Y-2628961D01*
X10704762Y-2628961D02*
X10780953Y-2667057D01*
X10780953Y-2667057D02*
X10819048Y-2705152D01*
X10819048Y-2705152D02*
X10857143Y-2781342D01*
X10857143Y-2781342D02*
X10857143Y-3009914D01*
X10857143Y-3009914D02*
X10819048Y-3086104D01*
X10819048Y-3086104D02*
X10780953Y-3124200D01*
X10780953Y-3124200D02*
X10704762Y-3162295D01*
X10704762Y-3162295D02*
X10552381Y-3162295D01*
X10552381Y-3162295D02*
X10476191Y-3124200D01*
X11504763Y-3124200D02*
X11428572Y-3162295D01*
X11428572Y-3162295D02*
X11276191Y-3162295D01*
X11276191Y-3162295D02*
X11200001Y-3124200D01*
X11200001Y-3124200D02*
X11161905Y-3048009D01*
X11161905Y-3048009D02*
X11161905Y-2743247D01*
X11161905Y-2743247D02*
X11200001Y-2667057D01*
X11200001Y-2667057D02*
X11276191Y-2628961D01*
X11276191Y-2628961D02*
X11428572Y-2628961D01*
X11428572Y-2628961D02*
X11504763Y-2667057D01*
X11504763Y-2667057D02*
X11542858Y-2743247D01*
X11542858Y-2743247D02*
X11542858Y-2819438D01*
X11542858Y-2819438D02*
X11161905Y-2895628D01*
X12228572Y-3162295D02*
X12228572Y-2743247D01*
X12228572Y-2743247D02*
X12190477Y-2667057D01*
X12190477Y-2667057D02*
X12114286Y-2628961D01*
X12114286Y-2628961D02*
X11961905Y-2628961D01*
X11961905Y-2628961D02*
X11885715Y-2667057D01*
X12228572Y-3124200D02*
X12152381Y-3162295D01*
X12152381Y-3162295D02*
X11961905Y-3162295D01*
X11961905Y-3162295D02*
X11885715Y-3124200D01*
X11885715Y-3124200D02*
X11847619Y-3048009D01*
X11847619Y-3048009D02*
X11847619Y-2971819D01*
X11847619Y-2971819D02*
X11885715Y-2895628D01*
X11885715Y-2895628D02*
X11961905Y-2857533D01*
X11961905Y-2857533D02*
X12152381Y-2857533D01*
X12152381Y-2857533D02*
X12228572Y-2819438D01*
X12609525Y-3162295D02*
X12609525Y-2362295D01*
X12685715Y-2857533D02*
X12914287Y-3162295D01*
X12914287Y-2628961D02*
X12609525Y-2933723D01*
D11*
%TO.C,J1*%
X37300000Y-39600000D02*
X37300000Y-41600000D01*
X37300000Y-43500000D02*
X37300000Y-45400000D01*
X37300000Y-45400000D02*
X46700000Y-45400000D01*
X46700000Y-39600000D02*
X46700000Y-41600000D01*
X46700000Y-43500000D02*
X46700000Y-45400000D01*
%TO.C,R1*%
X7762742Y-7477500D02*
X8237258Y-7477500D01*
X7762742Y-8522500D02*
X8237258Y-8522500D01*
%TO.C,R8*%
X44262742Y-5477500D02*
X44737258Y-5477500D01*
X44262742Y-6522500D02*
X44737258Y-6522500D01*
%TO.C,D1*%
X6515000Y-35765000D02*
X6515000Y-37235000D01*
X6515000Y-37235000D02*
X8800000Y-37235000D01*
X8800000Y-35765000D02*
X6515000Y-35765000D01*
%TO.C,D2*%
X47015000Y-5265000D02*
X47015000Y-6735000D01*
X47015000Y-6735000D02*
X49300000Y-6735000D01*
X49300000Y-5265000D02*
X47015000Y-5265000D01*
%TO.C,U4*%
X49850000Y-30315000D02*
X49850000Y-30090000D01*
X49850000Y-34150000D02*
X49850000Y-33625000D01*
X49850000Y-34150000D02*
X50375000Y-34150000D01*
X50375000Y-29850000D02*
X50150000Y-29850000D01*
X54150000Y-29850000D02*
X53625000Y-29850000D01*
X54150000Y-29850000D02*
X54150000Y-30375000D01*
X54150000Y-34150000D02*
X53625000Y-34150000D01*
X54150000Y-34150000D02*
X54150000Y-33625000D01*
X49850000Y-29850000D02*
X49610000Y-29520000D01*
X50090000Y-29520000D01*
X49850000Y-29850000D01*
G36*
X49850000Y-29850000D02*
G01*
X49610000Y-29520000D01*
X50090000Y-29520000D01*
X49850000Y-29850000D01*
G37*
%TO.C,J4*%
X26670000Y-43330000D02*
X26670000Y-42000000D01*
X28000000Y-43330000D02*
X26670000Y-43330000D01*
X29270000Y-40670000D02*
X36950000Y-40670000D01*
X29270000Y-43330000D02*
X29270000Y-40670000D01*
X29270000Y-43330000D02*
X36950000Y-43330000D01*
X36950000Y-43330000D02*
X36950000Y-40670000D01*
%TO.C,C1*%
X33859420Y-33990000D02*
X34140580Y-33990000D01*
X33859420Y-35010000D02*
X34140580Y-35010000D01*
%TO.C,R5*%
X7762742Y-33477500D02*
X8237258Y-33477500D01*
X7762742Y-34522500D02*
X8237258Y-34522500D01*
%TO.C,SW2*%
X19350000Y-36600000D02*
X22650000Y-36600000D01*
X19350000Y-36900000D02*
X19350000Y-36600000D01*
X19350000Y-39100000D02*
X19350000Y-39400000D01*
X19350000Y-39400000D02*
X22650000Y-39400000D01*
X22650000Y-36600000D02*
X22650000Y-36900000D01*
X22650000Y-39400000D02*
X22650000Y-39100000D01*
%TO.C,C9*%
X43859420Y-33490000D02*
X44140580Y-33490000D01*
X43859420Y-34510000D02*
X44140580Y-34510000D01*
%TO.C,C6*%
X44238748Y-12765000D02*
X44761252Y-12765000D01*
X44238748Y-14235000D02*
X44761252Y-14235000D01*
%TO.C,J3*%
X53390000Y-42610000D02*
X53390000Y-43860000D01*
X53390000Y-43860000D02*
X54640000Y-43860000D01*
X53490000Y-41800000D02*
X53490000Y-42100000D01*
X53490000Y-42100000D02*
X53690000Y-42100000D01*
X53590000Y-41800000D02*
X53590000Y-42100000D01*
X53690000Y-37440000D02*
X53690000Y-43560000D01*
X53690000Y-41000000D02*
X54300000Y-41000000D01*
X53690000Y-41800000D02*
X53490000Y-41800000D01*
X53690000Y-43560000D02*
X58410000Y-43560000D01*
X54300000Y-38050000D02*
X54300000Y-40000000D01*
X54300000Y-40000000D02*
X53690000Y-40000000D01*
X54300000Y-41000000D02*
X54300000Y-42950000D01*
X54300000Y-42950000D02*
X57800000Y-42950000D01*
X55000000Y-37440000D02*
X55000000Y-38050000D01*
X55000000Y-43560000D02*
X55000000Y-42950000D01*
X56300000Y-37440000D02*
X56300000Y-38050000D01*
X56300000Y-43560000D02*
X56300000Y-42950000D01*
X57300000Y-40400000D02*
X57800000Y-40400000D01*
X57300000Y-40600000D02*
X57300000Y-40400000D01*
X57800000Y-38050000D02*
X54300000Y-38050000D01*
X57800000Y-40500000D02*
X57300000Y-40500000D01*
X57800000Y-40600000D02*
X57300000Y-40600000D01*
X57800000Y-42950000D02*
X57800000Y-38050000D01*
X58410000Y-37440000D02*
X53690000Y-37440000D01*
X58410000Y-43560000D02*
X58410000Y-37440000D01*
%TO.C,D3*%
X10015000Y-35765000D02*
X10015000Y-37235000D01*
X10015000Y-37235000D02*
X12300000Y-37235000D01*
X12300000Y-35765000D02*
X10015000Y-35765000D01*
%TO.C,C2*%
X37359420Y-33990000D02*
X37640580Y-33990000D01*
X37359420Y-35010000D02*
X37640580Y-35010000D01*
%TO.C,R9*%
X7762742Y-38477500D02*
X8237258Y-38477500D01*
X7762742Y-39522500D02*
X8237258Y-39522500D01*
%TO.C,C5*%
X44238748Y-8265000D02*
X44761252Y-8265000D01*
X44238748Y-9735000D02*
X44761252Y-9735000D01*
%TO.C,R3*%
X7762742Y-14277500D02*
X8237258Y-14277500D01*
X7762742Y-15322500D02*
X8237258Y-15322500D01*
%TO.C,U2*%
X51000000Y-7440000D02*
X49050000Y-7440000D01*
X51000000Y-7440000D02*
X52950000Y-7440000D01*
X51000000Y-12560000D02*
X49050000Y-12560000D01*
X51000000Y-12560000D02*
X52950000Y-12560000D01*
X48300000Y-7535000D02*
X48060000Y-7205000D01*
X48540000Y-7205000D01*
X48300000Y-7535000D01*
G36*
X48300000Y-7535000D02*
G01*
X48060000Y-7205000D01*
X48540000Y-7205000D01*
X48300000Y-7535000D01*
G37*
%TO.C,C10*%
X43738748Y-29765000D02*
X44261252Y-29765000D01*
X43738748Y-31235000D02*
X44261252Y-31235000D01*
%TO.C,J2*%
X5670000Y-43330000D02*
X5670000Y-42000000D01*
X7000000Y-43330000D02*
X5670000Y-43330000D01*
X8270000Y-40670000D02*
X23570000Y-40670000D01*
X8270000Y-43330000D02*
X8270000Y-40670000D01*
X8270000Y-43330000D02*
X23570000Y-43330000D01*
X23570000Y-43330000D02*
X23570000Y-40670000D01*
%TO.C,U1*%
X20880000Y860000D02*
X20880000Y-5300000D01*
X20880000Y860000D02*
X39120000Y860000D01*
X20880000Y-24100000D02*
X20880000Y-24880000D01*
X20880000Y-24880000D02*
X21880000Y-24880000D01*
X39120000Y860000D02*
X39120000Y-5555000D01*
X39120000Y-24100000D02*
X39120000Y-24880000D01*
X39120000Y-24880000D02*
X38120000Y-24880000D01*
X20875000Y-6025000D02*
X20375000Y-6025000D01*
X20875000Y-5525000D01*
X20875000Y-6025000D01*
G36*
X20875000Y-6025000D02*
G01*
X20375000Y-6025000D01*
X20875000Y-5525000D01*
X20875000Y-6025000D01*
G37*
%TO.C,SW1*%
X14350000Y-36600000D02*
X17650000Y-36600000D01*
X14350000Y-36900000D02*
X14350000Y-36600000D01*
X14350000Y-39100000D02*
X14350000Y-39400000D01*
X14350000Y-39400000D02*
X17650000Y-39400000D01*
X17650000Y-36600000D02*
X17650000Y-36900000D01*
X17650000Y-39400000D02*
X17650000Y-39100000D01*
%TO.C,R2*%
X7762742Y-10877500D02*
X8237258Y-10877500D01*
X7762742Y-11922500D02*
X8237258Y-11922500D01*
%TO.C,R6*%
X17762742Y-34477500D02*
X18237258Y-34477500D01*
X17762742Y-35522500D02*
X18237258Y-35522500D01*
%TO.C,R7*%
X22262742Y-34477500D02*
X22737258Y-34477500D01*
X22262742Y-35522500D02*
X22737258Y-35522500D01*
%TO.C,R10*%
X11262742Y-38477500D02*
X11737258Y-38477500D01*
X11262742Y-39522500D02*
X11737258Y-39522500D01*
%TO.C,C7*%
X44359420Y-16990000D02*
X44640580Y-16990000D01*
X44359420Y-18010000D02*
X44640580Y-18010000D01*
%TO.C,U3*%
X47590000Y-18150000D02*
X47590000Y-21910000D01*
X47590000Y-21910000D02*
X48850000Y-21910000D01*
X54410000Y-18150000D02*
X54410000Y-21910000D01*
X54410000Y-21910000D02*
X53150000Y-21910000D01*
X54640000Y-17110000D02*
X54310000Y-16870000D01*
X54640000Y-16630000D01*
X54640000Y-17110000D01*
G36*
X54640000Y-17110000D02*
G01*
X54310000Y-16870000D01*
X54640000Y-16630000D01*
X54640000Y-17110000D01*
G37*
%TO.C,R4*%
X7762742Y-17677500D02*
X8237258Y-17677500D01*
X7762742Y-18722500D02*
X8237258Y-18722500D01*
%TO.C,R11*%
X7762742Y-21077500D02*
X8237258Y-21077500D01*
X7762742Y-22122500D02*
X8237258Y-22122500D01*
%TD*%
M02*
