%TF.GenerationSoftware,KiCad,Pcbnew,8.0.9-8.0.9-0~ubuntu24.04.1*%
%TF.CreationDate,2026-07-18T22:49:06+00:00*%
%TF.ProjectId,smart-glove,736d6172-742d-4676-9c6f-76652e6b6963,rev?*%
%TF.SameCoordinates,Original*%
%TF.FileFunction,Soldermask,Top*%
%TF.FilePolarity,Negative*%
%FSLAX46Y46*%
G04 Gerber Fmt 4.6, Leading zero omitted, Abs format (unit mm)*
G04 Created by KiCad (PCBNEW 8.0.9-8.0.9-0~ubuntu24.04.1) date 2026-07-18 22:49:06*
%MOMM*%
%LPD*%
G01*
G04 APERTURE LIST*
G04 Aperture macros list*
%AMRoundRect*
0 Rectangle with rounded corners*
0 $1 Rounding radius*
0 $2 $3 $4 $5 $6 $7 $8 $9 X,Y pos of 4 corners*
0 Add a 4 corners polygon primitive as box body*
4,1,4,$2,$3,$4,$5,$6,$7,$8,$9,$2,$3,0*
0 Add four circle primitives for the rounded corners*
1,1,$1+$1,$2,$3*
1,1,$1+$1,$4,$5*
1,1,$1+$1,$6,$7*
1,1,$1+$1,$8,$9*
0 Add four rect primitives between the rounded corners*
20,1,$1+$1,$2,$3,$4,$5,0*
20,1,$1+$1,$4,$5,$6,$7,0*
20,1,$1+$1,$6,$7,$8,$9,0*
20,1,$1+$1,$8,$9,$2,$3,0*%
G04 Aperture macros list end*
%ADD10C,0.650000*%
%ADD11R,0.600000X1.450000*%
%ADD12R,0.300000X1.450000*%
%ADD13O,1.000000X2.100000*%
%ADD14O,1.000000X1.600000*%
%ADD15RoundRect,0.200000X-0.200000X-0.275000X0.200000X-0.275000X0.200000X0.275000X-0.200000X0.275000X0*%
%ADD16RoundRect,0.218750X-0.218750X-0.256250X0.218750X-0.256250X0.218750X0.256250X-0.218750X0.256250X0*%
%ADD17RoundRect,0.075000X-0.350000X-0.075000X0.350000X-0.075000X0.350000X0.075000X-0.350000X0.075000X0*%
%ADD18RoundRect,0.075000X0.075000X-0.350000X0.075000X0.350000X-0.075000X0.350000X-0.075000X-0.350000X0*%
%ADD19R,1.700000X1.700000*%
%ADD20O,1.700000X1.700000*%
%ADD21RoundRect,0.225000X-0.225000X-0.250000X0.225000X-0.250000X0.225000X0.250000X-0.225000X0.250000X0*%
%ADD22R,0.900000X1.700000*%
%ADD23RoundRect,0.250000X-0.250000X-0.475000X0.250000X-0.475000X0.250000X0.475000X-0.250000X0.475000X0*%
%ADD24RoundRect,0.250000X0.625000X-0.350000X0.625000X0.350000X-0.625000X0.350000X-0.625000X-0.350000X0*%
%ADD25O,1.750000X1.200000*%
%ADD26RoundRect,0.150000X-0.825000X-0.150000X0.825000X-0.150000X0.825000X0.150000X-0.825000X0.150000X0*%
%ADD27R,1.500000X0.900000*%
%ADD28R,0.900000X1.500000*%
%ADD29C,0.600000*%
%ADD30R,4.200000X4.200000*%
%ADD31C,2.200000*%
%ADD32RoundRect,0.375000X-0.375000X0.625000X-0.375000X-0.625000X0.375000X-0.625000X0.375000X0.625000X0*%
%ADD33RoundRect,0.500000X-1.400000X0.500000X-1.400000X-0.500000X1.400000X-0.500000X1.400000X0.500000X0*%
G04 APERTURE END LIST*
D10*
%TO.C,J1*%
X39110000Y-38900000D03*
X44890000Y-38900000D03*
D11*
X38750000Y-37455000D03*
X39550000Y-37455000D03*
D12*
X40750000Y-37455000D03*
X41750000Y-37455000D03*
X42250000Y-37455000D03*
X43250000Y-37455000D03*
D11*
X44450000Y-37455000D03*
X45250000Y-37455000D03*
X45250000Y-37455000D03*
X44450000Y-37455000D03*
D12*
X43750000Y-37455000D03*
X42750000Y-37455000D03*
X41250000Y-37455000D03*
X40250000Y-37455000D03*
D11*
X39550000Y-37455000D03*
X38750000Y-37455000D03*
D13*
X37680000Y-38370000D03*
D14*
X37680000Y-42550000D03*
D13*
X46320000Y-38370000D03*
D14*
X46320000Y-42550000D03*
%TD*%
D15*
%TO.C,R1*%
X7175000Y-8000000D03*
X8825000Y-8000000D03*
%TD*%
%TO.C,R8*%
X43675000Y-6000000D03*
X45325000Y-6000000D03*
%TD*%
D16*
%TO.C,D1*%
X7212500Y-36500000D03*
X8787500Y-36500000D03*
%TD*%
%TO.C,D2*%
X47712500Y-6000000D03*
X49287500Y-6000000D03*
%TD*%
D17*
%TO.C,U4*%
X50050000Y-30750000D03*
X50050000Y-31250000D03*
X50050000Y-31750000D03*
X50050000Y-32250000D03*
X50050000Y-32750000D03*
X50050000Y-33250000D03*
D18*
X50750000Y-33950000D03*
X51250000Y-33950000D03*
X51750000Y-33950000D03*
X52250000Y-33950000D03*
X52750000Y-33950000D03*
X53250000Y-33950000D03*
D17*
X53950000Y-33250000D03*
X53950000Y-32750000D03*
X53950000Y-32250000D03*
X53950000Y-31750000D03*
X53950000Y-31250000D03*
X53950000Y-30750000D03*
D18*
X53250000Y-30050000D03*
X52750000Y-30050000D03*
X52250000Y-30050000D03*
X51750000Y-30050000D03*
X51250000Y-30050000D03*
X50750000Y-30050000D03*
%TD*%
D19*
%TO.C,J4*%
X28000000Y-42000000D03*
D20*
X30540000Y-42000000D03*
X33080000Y-42000000D03*
X35620000Y-42000000D03*
%TD*%
D21*
%TO.C,C1*%
X33225000Y-34500000D03*
X34775000Y-34500000D03*
%TD*%
D15*
%TO.C,R5*%
X7175000Y-34000000D03*
X8825000Y-34000000D03*
%TD*%
D22*
%TO.C,SW2*%
X19300000Y-38000000D03*
X22700000Y-38000000D03*
%TD*%
D21*
%TO.C,C9*%
X43225000Y-34000000D03*
X44775000Y-34000000D03*
%TD*%
D23*
%TO.C,C6*%
X43550000Y-13500000D03*
X45450000Y-13500000D03*
%TD*%
D24*
%TO.C,J3*%
X55500000Y-41500000D03*
D25*
X55500000Y-39500000D03*
%TD*%
D16*
%TO.C,D3*%
X10712500Y-36500000D03*
X12287500Y-36500000D03*
%TD*%
D21*
%TO.C,C2*%
X36725000Y-34500000D03*
X38275000Y-34500000D03*
%TD*%
D15*
%TO.C,R9*%
X7175000Y-39000000D03*
X8825000Y-39000000D03*
%TD*%
D23*
%TO.C,C5*%
X43550000Y-9000000D03*
X45450000Y-9000000D03*
%TD*%
D15*
%TO.C,R3*%
X7175000Y-14800000D03*
X8825000Y-14800000D03*
%TD*%
D26*
%TO.C,U2*%
X48525000Y-8095000D03*
X48525000Y-9365000D03*
X48525000Y-10635000D03*
X48525000Y-11905000D03*
X53475000Y-11905000D03*
X53475000Y-10635000D03*
X53475000Y-9365000D03*
X53475000Y-8095000D03*
%TD*%
D23*
%TO.C,C10*%
X43050000Y-30500000D03*
X44950000Y-30500000D03*
%TD*%
D19*
%TO.C,J2*%
X7000000Y-42000000D03*
D20*
X9540000Y-42000000D03*
X12080000Y-42000000D03*
X14620000Y-42000000D03*
X17160000Y-42000000D03*
X19700000Y-42000000D03*
X22240000Y-42000000D03*
%TD*%
D27*
%TO.C,U1*%
X21250000Y-6750000D03*
X21250000Y-8020000D03*
X21250000Y-9290000D03*
X21250000Y-10560000D03*
X21250000Y-11830000D03*
X21250000Y-13100000D03*
X21250000Y-14370000D03*
X21250000Y-15640000D03*
X21250000Y-16910000D03*
X21250000Y-18180000D03*
X21250000Y-19450000D03*
X21250000Y-20720000D03*
X21250000Y-21990000D03*
X21250000Y-23260000D03*
D28*
X24290000Y-24510000D03*
X25560000Y-24510000D03*
X26830000Y-24510000D03*
X28100000Y-24510000D03*
X29370000Y-24510000D03*
X30640000Y-24510000D03*
X31910000Y-24510000D03*
X33180000Y-24510000D03*
X34450000Y-24510000D03*
X35720000Y-24510000D03*
D27*
X38750000Y-23260000D03*
X38750000Y-21990000D03*
X38750000Y-20720000D03*
X38750000Y-19450000D03*
X38750000Y-18180000D03*
X38750000Y-16910000D03*
X38750000Y-15640000D03*
X38750000Y-14370000D03*
X38750000Y-13100000D03*
X38750000Y-11830000D03*
X38750000Y-10560000D03*
X38750000Y-9290000D03*
X38750000Y-8020000D03*
X38750000Y-6750000D03*
D29*
X27795000Y-13327500D03*
X27795000Y-14852500D03*
X28557500Y-12565000D03*
X28557500Y-14090000D03*
X28557500Y-15615000D03*
X29320000Y-13327500D03*
D30*
X29320000Y-14090000D03*
D29*
X29320000Y-14852500D03*
X30082500Y-12565000D03*
X30082500Y-14090000D03*
X30082500Y-15615000D03*
X30845000Y-13327500D03*
X30845000Y-14852500D03*
%TD*%
D22*
%TO.C,SW1*%
X14300000Y-38000000D03*
X17700000Y-38000000D03*
%TD*%
D15*
%TO.C,R2*%
X7175000Y-11400000D03*
X8825000Y-11400000D03*
%TD*%
D31*
%TO.C,H2*%
X57000000Y-3000000D03*
%TD*%
D15*
%TO.C,R6*%
X17175000Y-35000000D03*
X18825000Y-35000000D03*
%TD*%
%TO.C,R7*%
X21675000Y-35000000D03*
X23325000Y-35000000D03*
%TD*%
%TO.C,R10*%
X10675000Y-39000000D03*
X12325000Y-39000000D03*
%TD*%
D21*
%TO.C,C7*%
X43725000Y-17500000D03*
X45275000Y-17500000D03*
%TD*%
D31*
%TO.C,H1*%
X3000000Y-3000000D03*
%TD*%
D32*
%TO.C,U3*%
X53300000Y-16850000D03*
X51000000Y-16850000D03*
X48700000Y-16850000D03*
D33*
X51000000Y-23150000D03*
%TD*%
D15*
%TO.C,R4*%
X7175000Y-18200000D03*
X8825000Y-18200000D03*
%TD*%
%TO.C,R11*%
X7175000Y-21600000D03*
X8825000Y-21600000D03*
%TD*%
M02*
