M48
; DRILL file {KiCad 8.0.9-8.0.9-0~ubuntu24.04.1} date 2026-07-18T20:59:54+0000
; FORMAT={-:-/ absolute / metric / decimal}
; #@! TF.CreationDate,2026-07-18T20:59:54+00:00
; #@! TF.GenerationSoftware,Kicad,Pcbnew,8.0.9-8.0.9-0~ubuntu24.04.1
; #@! TF.FileFunction,MixedPlating,1,2
FMAT,2
METRIC
; #@! TA.AperFunction,Plated,PTH,ComponentDrill
T1C0.200
; #@! TA.AperFunction,Plated,PTH,ViaDrill
T2C0.300
; #@! TA.AperFunction,Plated,PTH,ComponentDrill
T3C0.600
; #@! TA.AperFunction,Plated,PTH,ComponentDrill
T4C0.750
; #@! TA.AperFunction,Plated,PTH,ComponentDrill
T5C1.000
; #@! TA.AperFunction,NonPlated,NPTH,ComponentDrill
T6C0.650
; #@! TA.AperFunction,NonPlated,NPTH,ComponentDrill
T7C2.200
%
G90
G05
T1
X45.795Y-22.328
X45.795Y-23.852
X46.557Y-21.565
X46.557Y-23.09
X46.557Y-24.615
X47.32Y-22.328
X47.32Y-23.852
X48.082Y-21.565
X48.082Y-23.09
X48.082Y-24.615
X48.845Y-22.328
X48.845Y-23.852
T2
X16.005Y-20.83
X22.198Y-57.88
X33.292Y-58.228
X35.977Y-55.994
X40.509Y-18.169
X42.288Y-62.069
X59.723Y-40.904
X69.225Y-34.999
X69.225Y-52.777
X70.374Y-57.018
X72.807Y-15.833
X78.981Y-57.022
X79.989Y-28.355
T4
X78.0Y-62.0
X78.0Y-64.0
T5
X8.0Y-56.0
X8.0Y-58.54
X8.0Y-61.08
X8.0Y-63.62
X8.0Y-66.16
X8.0Y-68.7
T6
X45.11Y-63.4
X50.89Y-63.4
T7
X3.5Y-3.5
X3.5Y-68.5
X91.5Y-3.5
X91.5Y-68.5
T3
X43.68Y-62.32G85X43.68Y-63.42
G05
X43.68Y-66.75G85X43.68Y-67.35
G05
X52.32Y-62.32G85X52.32Y-63.42
G05
X52.32Y-66.75G85X52.32Y-67.35
G05
M30
